<?xml version="1.0" encoding="UTF-8" standalone="no"?>
<!DOCTYPE svg PUBLIC "-//W3C//DTD SVG 1.1//EN"
 "http://www.w3.org/Graphics/SVG/1.1/DTD/svg11.dtd">
<!-- Generated by graphviz version 2.43.0 (0)
 -->
<!-- Title: G Pages: 1 -->
<svg width="1840pt" height="1009pt"
 viewBox="0.00 0.00 1840.20 1009.35" xmlns="http://www.w3.org/2000/svg" xmlns:xlink="http://www.w3.org/1999/xlink">
<g id="graph0" class="graph" transform="scale(1 1) rotate(0) translate(21.6 987.75)">
<title>G</title>
<polygon fill="#111111" stroke="transparent" points="-21.6,21.6 -21.6,-987.75 1818.6,-987.75 1818.6,21.6 -21.6,21.6"/>
<!-- dist/cluster/cluster&#45;logger.js -->
<g id="node1" class="node">
<title>dist/cluster/cluster&#45;logger.js</title>
<path fill="none" stroke="#c6c5fe" d="M1327.83,-747.65C1327.83,-747.65 1164.17,-747.65 1164.17,-747.65 1160.33,-747.65 1156.5,-743.82 1156.5,-739.98 1156.5,-739.98 1156.5,-732.32 1156.5,-732.32 1156.5,-728.48 1160.33,-724.65 1164.17,-724.65 1164.17,-724.65 1327.83,-724.65 1327.83,-724.65 1331.67,-724.65 1335.5,-728.48 1335.5,-732.32 1335.5,-732.32 1335.5,-739.98 1335.5,-739.98 1335.5,-743.82 1331.67,-747.65 1327.83,-747.65"/>
<text text-anchor="middle" x="1246" y="-732.45" font-family="Arial" font-size="14.00" fill="#c6c5fe">dist/cluster/cluster&#45;logger.js</text>
</g>
<!-- dist/cluster/cluster.constants.js -->
<g id="node2" class="node">
<title>dist/cluster/cluster.constants.js</title>
<path fill="none" stroke="#cfffac" d="M1600.33,-806.65C1600.33,-806.65 1416.67,-806.65 1416.67,-806.65 1412.83,-806.65 1409,-802.82 1409,-798.98 1409,-798.98 1409,-791.32 1409,-791.32 1409,-787.48 1412.83,-783.65 1416.67,-783.65 1416.67,-783.65 1600.33,-783.65 1600.33,-783.65 1604.17,-783.65 1608,-787.48 1608,-791.32 1608,-791.32 1608,-798.98 1608,-798.98 1608,-802.82 1604.17,-806.65 1600.33,-806.65"/>
<text text-anchor="middle" x="1508.5" y="-791.45" font-family="Arial" font-size="14.00" fill="#cfffac">dist/cluster/cluster.constants.js</text>
</g>
<!-- dist/cluster/cluster&#45;logger.js&#45;&gt;dist/cluster/cluster.constants.js -->
<g id="edge1" class="edge">
<title>dist/cluster/cluster&#45;logger.js&#45;&gt;dist/cluster/cluster.constants.js</title>
<path fill="none" stroke="#757575" d="M1305.12,-747.67C1326.5,-752.04 1350.89,-757.16 1373,-762.15 1399.18,-768.06 1428.1,-775.09 1452.39,-781.14"/>
<polygon fill="#757575" stroke="#757575" points="1451.6,-784.55 1462.15,-783.58 1453.3,-777.76 1451.6,-784.55"/>
</g>
<!-- dist/cluster/cluster&#45;manager.js -->
<g id="node3" class="node">
<title>dist/cluster/cluster&#45;manager.js</title>
<path fill="none" stroke="#c6c5fe" d="M775.83,-782.65C775.83,-782.65 595.17,-782.65 595.17,-782.65 591.33,-782.65 587.5,-778.82 587.5,-774.98 587.5,-774.98 587.5,-767.32 587.5,-767.32 587.5,-763.48 591.33,-759.65 595.17,-759.65 595.17,-759.65 775.83,-759.65 775.83,-759.65 779.67,-759.65 783.5,-763.48 783.5,-767.32 783.5,-767.32 783.5,-774.98 783.5,-774.98 783.5,-778.82 779.67,-782.65 775.83,-782.65"/>
<text text-anchor="middle" x="685.5" y="-767.45" font-family="Arial" font-size="14.00" fill="#c6c5fe">dist/cluster/cluster&#45;manager.js</text>
</g>
<!-- dist/cluster/cluster&#45;manager.js&#45;&gt;dist/cluster/cluster.constants.js -->
<g id="edge2" class="edge">
<title>dist/cluster/cluster&#45;manager.js&#45;&gt;dist/cluster/cluster.constants.js</title>
<path fill="none" stroke="#757575" d="M783.9,-774C938.1,-778.5 1237.42,-787.25 1398.54,-791.96"/>
<polygon fill="#757575" stroke="#757575" points="1398.85,-795.47 1408.95,-792.27 1399.05,-788.48 1398.85,-795.47"/>
</g>
<!-- dist/errors/index.js -->
<g id="node4" class="node">
<title>dist/errors/index.js</title>
<path fill="none" stroke="#c6c5fe" d="M1011.33,-550.65C1011.33,-550.65 900.67,-550.65 900.67,-550.65 896.83,-550.65 893,-546.82 893,-542.98 893,-542.98 893,-535.32 893,-535.32 893,-531.48 896.83,-527.65 900.67,-527.65 900.67,-527.65 1011.33,-527.65 1011.33,-527.65 1015.17,-527.65 1019,-531.48 1019,-535.32 1019,-535.32 1019,-542.98 1019,-542.98 1019,-546.82 1015.17,-550.65 1011.33,-550.65"/>
<text text-anchor="middle" x="956" y="-535.45" font-family="Arial" font-size="14.00" fill="#c6c5fe">dist/errors/index.js</text>
</g>
<!-- dist/cluster/cluster&#45;manager.js&#45;&gt;dist/errors/index.js -->
<g id="edge3" class="edge">
<title>dist/cluster/cluster&#45;manager.js&#45;&gt;dist/errors/index.js</title>
<path fill="none" stroke="#757575" d="M781.82,-759.59C785.83,-757.18 789.59,-754.39 793,-751.15 842.12,-704.57 786.98,-656.22 829,-603.15 847.5,-579.78 876.82,-564.18 902.52,-554.24"/>
<polygon fill="#757575" stroke="#757575" points="903.98,-557.43 912.16,-550.7 901.57,-550.86 903.98,-557.43"/>
</g>
<!-- dist/messages/index.js -->
<g id="node5" class="node">
<title>dist/messages/index.js</title>
<path fill="none" stroke="#cfffac" d="M1789.33,-449.65C1789.33,-449.65 1651.67,-449.65 1651.67,-449.65 1647.83,-449.65 1644,-445.82 1644,-441.98 1644,-441.98 1644,-434.32 1644,-434.32 1644,-430.48 1647.83,-426.65 1651.67,-426.65 1651.67,-426.65 1789.33,-426.65 1789.33,-426.65 1793.17,-426.65 1797,-430.48 1797,-434.32 1797,-434.32 1797,-441.98 1797,-441.98 1797,-445.82 1793.17,-449.65 1789.33,-449.65"/>
<text text-anchor="middle" x="1720.5" y="-434.45" font-family="Arial" font-size="14.00" fill="#cfffac">dist/messages/index.js</text>
</g>
<!-- dist/cluster/cluster&#45;manager.js&#45;&gt;dist/messages/index.js -->
<g id="edge4" class="edge">
<title>dist/cluster/cluster&#45;manager.js&#45;&gt;dist/messages/index.js</title>
<path fill="none" stroke="#757575" d="M776.99,-759.64C949.9,-737.62 1315.3,-690.92 1373,-682.15 1477.82,-666.22 1521.75,-702.81 1608,-641.15 1671.79,-595.55 1703.1,-501.61 1714.39,-459.45"/>
<polygon fill="#757575" stroke="#757575" points="1717.8,-460.24 1716.9,-449.69 1711.02,-458.5 1717.8,-460.24"/>
</g>
<!-- dist/utils/index.js -->
<g id="node6" class="node">
<title>dist/utils/index.js</title>
<path fill="none" stroke="#c6c5fe" d="M1295.83,-429.65C1295.83,-429.65 1196.17,-429.65 1196.17,-429.65 1192.33,-429.65 1188.5,-425.82 1188.5,-421.98 1188.5,-421.98 1188.5,-414.32 1188.5,-414.32 1188.5,-410.48 1192.33,-406.65 1196.17,-406.65 1196.17,-406.65 1295.83,-406.65 1295.83,-406.65 1299.67,-406.65 1303.5,-410.48 1303.5,-414.32 1303.5,-414.32 1303.5,-421.98 1303.5,-421.98 1303.5,-425.82 1299.67,-429.65 1295.83,-429.65"/>
<text text-anchor="middle" x="1246" y="-414.45" font-family="Arial" font-size="14.00" fill="#c6c5fe">dist/utils/index.js</text>
</g>
<!-- dist/cluster/cluster&#45;manager.js&#45;&gt;dist/utils/index.js -->
<g id="edge5" class="edge">
<title>dist/cluster/cluster&#45;manager.js&#45;&gt;dist/utils/index.js</title>
<path fill="none" stroke="#757575" d="M781.06,-759.58C785.32,-757.19 789.34,-754.39 793,-751.15 832.76,-715.9 791.28,-674.57 829,-637.15 912.83,-553.98 994.81,-637.68 1083,-559.15 1112.72,-532.68 1091.2,-505.63 1119,-477.15 1139.03,-456.62 1167.59,-442.45 1192.45,-433.14"/>
<polygon fill="#757575" stroke="#757575" points="1193.89,-436.35 1202.13,-429.69 1191.53,-429.76 1193.89,-436.35"/>
</g>
<!-- dist/errors/client&#45;not&#45;found.error.js -->
<g id="node14" class="node">
<title>dist/errors/client&#45;not&#45;found.error.js</title>
<path fill="none" stroke="#cfffac" d="M1347.33,-509.65C1347.33,-509.65 1144.67,-509.65 1144.67,-509.65 1140.83,-509.65 1137,-505.82 1137,-501.98 1137,-501.98 1137,-494.32 1137,-494.32 1137,-490.48 1140.83,-486.65 1144.67,-486.65 1144.67,-486.65 1347.33,-486.65 1347.33,-486.65 1351.17,-486.65 1355,-490.48 1355,-494.32 1355,-494.32 1355,-501.98 1355,-501.98 1355,-505.82 1351.17,-509.65 1347.33,-509.65"/>
<text text-anchor="middle" x="1246" y="-494.45" font-family="Arial" font-size="14.00" fill="#cfffac">dist/errors/client&#45;not&#45;found.error.js</text>
</g>
<!-- dist/errors/index.js&#45;&gt;dist/errors/client&#45;not&#45;found.error.js -->
<g id="edge26" class="edge">
<title>dist/errors/index.js&#45;&gt;dist/errors/client&#45;not&#45;found.error.js</title>
<path fill="none" stroke="#757575" d="M1019.14,-530.3C1058.49,-524.7 1110.05,-517.36 1153.97,-511.11"/>
<polygon fill="#757575" stroke="#757575" points="1154.68,-514.54 1164.09,-509.67 1153.69,-507.61 1154.68,-514.54"/>
</g>
<!-- dist/errors/missing&#45;configuration.error.js -->
<g id="node15" class="node">
<title>dist/errors/missing&#45;configuration.error.js</title>
<path fill="none" stroke="#cfffac" d="M1365.33,-550.65C1365.33,-550.65 1126.67,-550.65 1126.67,-550.65 1122.83,-550.65 1119,-546.82 1119,-542.98 1119,-542.98 1119,-535.32 1119,-535.32 1119,-531.48 1122.83,-527.65 1126.67,-527.65 1126.67,-527.65 1365.33,-527.65 1365.33,-527.65 1369.17,-527.65 1373,-531.48 1373,-535.32 1373,-535.32 1373,-542.98 1373,-542.98 1373,-546.82 1369.17,-550.65 1365.33,-550.65"/>
<text text-anchor="middle" x="1246" y="-535.45" font-family="Arial" font-size="14.00" fill="#cfffac">dist/errors/missing&#45;configuration.error.js</text>
</g>
<!-- dist/errors/index.js&#45;&gt;dist/errors/missing&#45;configuration.error.js -->
<g id="edge27" class="edge">
<title>dist/errors/index.js&#45;&gt;dist/errors/missing&#45;configuration.error.js</title>
<path fill="none" stroke="#757575" d="M1019.14,-539.15C1045.47,-539.15 1077.28,-539.15 1108.6,-539.15"/>
<polygon fill="#757575" stroke="#757575" points="1108.75,-542.65 1118.75,-539.15 1108.75,-535.65 1108.75,-542.65"/>
</g>
<!-- dist/utils/is.js -->
<g id="node29" class="node">
<title>dist/utils/is.js</title>
<path fill="none" stroke="#cfffac" d="M1758.83,-331.65C1758.83,-331.65 1682.17,-331.65 1682.17,-331.65 1678.33,-331.65 1674.5,-327.82 1674.5,-323.98 1674.5,-323.98 1674.5,-316.32 1674.5,-316.32 1674.5,-312.48 1678.33,-308.65 1682.17,-308.65 1682.17,-308.65 1758.83,-308.65 1758.83,-308.65 1762.67,-308.65 1766.5,-312.48 1766.5,-316.32 1766.5,-316.32 1766.5,-323.98 1766.5,-323.98 1766.5,-327.82 1762.67,-331.65 1758.83,-331.65"/>
<text text-anchor="middle" x="1720.5" y="-316.45" font-family="Arial" font-size="14.00" fill="#cfffac">dist/utils/is.js</text>
</g>
<!-- dist/utils/index.js&#45;&gt;dist/utils/is.js -->
<g id="edge66" class="edge">
<title>dist/utils/index.js&#45;&gt;dist/utils/is.js</title>
<path fill="none" stroke="#757575" d="M1302.59,-406.62C1393.71,-387.72 1573.75,-350.38 1664.48,-331.56"/>
<polygon fill="#757575" stroke="#757575" points="1665.22,-334.98 1674.3,-329.52 1663.8,-328.13 1665.22,-334.98"/>
</g>
<!-- dist/utils/parsers.js -->
<g id="node30" class="node">
<title>dist/utils/parsers.js</title>
<path fill="none" stroke="#c6c5fe" d="M1564.83,-311.65C1564.83,-311.65 1452.17,-311.65 1452.17,-311.65 1448.33,-311.65 1444.5,-307.82 1444.5,-303.98 1444.5,-303.98 1444.5,-296.32 1444.5,-296.32 1444.5,-292.48 1448.33,-288.65 1452.17,-288.65 1452.17,-288.65 1564.83,-288.65 1564.83,-288.65 1568.67,-288.65 1572.5,-292.48 1572.5,-296.32 1572.5,-296.32 1572.5,-303.98 1572.5,-303.98 1572.5,-307.82 1568.67,-311.65 1564.83,-311.65"/>
<text text-anchor="middle" x="1508.5" y="-296.45" font-family="Arial" font-size="14.00" fill="#c6c5fe">dist/utils/parsers.js</text>
</g>
<!-- dist/utils/index.js&#45;&gt;dist/utils/parsers.js -->
<g id="edge67" class="edge">
<title>dist/utils/index.js&#45;&gt;dist/utils/parsers.js</title>
<path fill="none" stroke="#757575" d="M1268.01,-406.44C1293.07,-392.44 1336.19,-368.26 1373,-347.15 1389.07,-337.94 1391.89,-333.24 1409,-326.15 1419.91,-321.62 1431.84,-317.69 1443.5,-314.35"/>
<polygon fill="#757575" stroke="#757575" points="1444.5,-317.7 1453.21,-311.68 1442.64,-310.95 1444.5,-317.7"/>
</g>
<!-- dist/utils/promise&#45;timeout.js -->
<g id="node31" class="node">
<title>dist/utils/promise&#45;timeout.js</title>
<path fill="none" stroke="#c6c5fe" d="M1591.33,-429.65C1591.33,-429.65 1425.67,-429.65 1425.67,-429.65 1421.83,-429.65 1418,-425.82 1418,-421.98 1418,-421.98 1418,-414.32 1418,-414.32 1418,-410.48 1421.83,-406.65 1425.67,-406.65 1425.67,-406.65 1591.33,-406.65 1591.33,-406.65 1595.17,-406.65 1599,-410.48 1599,-414.32 1599,-414.32 1599,-421.98 1599,-421.98 1599,-425.82 1595.17,-429.65 1591.33,-429.65"/>
<text text-anchor="middle" x="1508.5" y="-414.45" font-family="Arial" font-size="14.00" fill="#c6c5fe">dist/utils/promise&#45;timeout.js</text>
</g>
<!-- dist/utils/index.js&#45;&gt;dist/utils/promise&#45;timeout.js -->
<g id="edge68" class="edge">
<title>dist/utils/index.js&#45;&gt;dist/utils/promise&#45;timeout.js</title>
<path fill="none" stroke="#757575" d="M1303.52,-418.15C1333.9,-418.15 1372.24,-418.15 1407.47,-418.15"/>
<polygon fill="#757575" stroke="#757575" points="1407.8,-421.65 1417.8,-418.15 1407.8,-414.65 1407.8,-421.65"/>
</g>
<!-- dist/cluster/cluster.module.js -->
<g id="node7" class="node">
<title>dist/cluster/cluster.module.js</title>
<path fill="none" stroke="#c6c5fe" d="M301.33,-700.65C301.33,-700.65 130.67,-700.65 130.67,-700.65 126.83,-700.65 123,-696.82 123,-692.98 123,-692.98 123,-685.32 123,-685.32 123,-681.48 126.83,-677.65 130.67,-677.65 130.67,-677.65 301.33,-677.65 301.33,-677.65 305.17,-677.65 309,-681.48 309,-685.32 309,-685.32 309,-692.98 309,-692.98 309,-696.82 305.17,-700.65 301.33,-700.65"/>
<text text-anchor="middle" x="216" y="-685.45" font-family="Arial" font-size="14.00" fill="#c6c5fe">dist/cluster/cluster.module.js</text>
</g>
<!-- dist/cluster/cluster.module.js&#45;&gt;dist/cluster/cluster&#45;logger.js -->
<g id="edge6" class="edge">
<title>dist/cluster/cluster.module.js&#45;&gt;dist/cluster/cluster&#45;logger.js</title>
<path fill="none" stroke="#757575" d="M229.19,-700.81C250.61,-720.46 297.26,-759.65 345,-776.15 653.98,-882.94 1058.39,-788.68 1196.41,-750.49"/>
<polygon fill="#757575" stroke="#757575" points="1197.58,-753.79 1206.27,-747.73 1195.69,-747.05 1197.58,-753.79"/>
</g>
<!-- dist/cluster/cluster.module.js&#45;&gt;dist/cluster/cluster.constants.js -->
<g id="edge8" class="edge">
<title>dist/cluster/cluster.module.js&#45;&gt;dist/cluster/cluster.constants.js</title>
<path fill="none" stroke="#757575" d="M225.81,-700.91C244.76,-725.32 291.97,-781.57 345,-810.15 481.46,-883.7 529.48,-890.15 684.5,-890.15 684.5,-890.15 684.5,-890.15 957,-890.15 1143.22,-890.15 1191.32,-881.01 1373,-840.15 1406.02,-832.72 1442.35,-820.3 1468.92,-810.39"/>
<polygon fill="#757575" stroke="#757575" points="1470.49,-813.54 1478.6,-806.72 1468.01,-806.99 1470.49,-813.54"/>
</g>
<!-- dist/cluster/cluster.module.js&#45;&gt;dist/cluster/cluster&#45;manager.js -->
<g id="edge7" class="edge">
<title>dist/cluster/cluster.module.js&#45;&gt;dist/cluster/cluster&#45;manager.js</title>
<path fill="none" stroke="#757575" d="M235.19,-700.82C259.23,-715.57 303.42,-740.31 345,-751.15 420.95,-770.94 509.56,-775.57 577.2,-775.45"/>
<polygon fill="#757575" stroke="#757575" points="577.47,-778.95 587.45,-775.4 577.43,-771.95 577.47,-778.95"/>
</g>
<!-- dist/cluster/cluster.module.js&#45;&gt;dist/errors/index.js -->
<g id="edge11" class="edge">
<title>dist/cluster/cluster.module.js&#45;&gt;dist/errors/index.js</title>
<path fill="none" stroke="#757575" d="M240.47,-677.46C265.69,-665.37 307.27,-646.8 345,-636.15 535.09,-582.49 767.42,-555.83 882.81,-545.1"/>
<polygon fill="#757575" stroke="#757575" points="883.29,-548.57 892.93,-544.17 882.65,-541.6 883.29,-548.57"/>
</g>
<!-- dist/cluster/cluster.module.js&#45;&gt;dist/messages/index.js -->
<g id="edge12" class="edge">
<title>dist/cluster/cluster.module.js&#45;&gt;dist/messages/index.js</title>
<path fill="none" stroke="#757575" d="M309.29,-681.46C546,-661.31 1170.3,-605.32 1373,-559.15 1489.76,-532.55 1621.84,-479.79 1683.81,-453.62"/>
<polygon fill="#757575" stroke="#757575" points="1685.31,-456.78 1693.14,-449.65 1682.57,-450.34 1685.31,-456.78"/>
</g>
<!-- dist/cluster/cluster.module.js&#45;&gt;dist/utils/index.js -->
<g id="edge13" class="edge">
<title>dist/cluster/cluster.module.js&#45;&gt;dist/utils/index.js</title>
<path fill="none" stroke="#757575" d="M227.7,-677.59C248.2,-656.25 295.4,-610.85 345,-589.15 648.88,-456.19 761.55,-559.93 1083,-478.15 1127.78,-466.76 1177.33,-447.35 1209.7,-433.69"/>
<polygon fill="#757575" stroke="#757575" points="1211.34,-436.8 1219.17,-429.66 1208.59,-430.36 1211.34,-436.8"/>
</g>
<!-- dist/cluster/cluster.providers.js -->
<g id="node8" class="node">
<title>dist/cluster/cluster.providers.js</title>
<path fill="none" stroke="#c6c5fe" d="M534.33,-741.65C534.33,-741.65 352.67,-741.65 352.67,-741.65 348.83,-741.65 345,-737.82 345,-733.98 345,-733.98 345,-726.32 345,-726.32 345,-722.48 348.83,-718.65 352.67,-718.65 352.67,-718.65 534.33,-718.65 534.33,-718.65 538.17,-718.65 542,-722.48 542,-726.32 542,-726.32 542,-733.98 542,-733.98 542,-737.82 538.17,-741.65 534.33,-741.65"/>
<text text-anchor="middle" x="443.5" y="-726.45" font-family="Arial" font-size="14.00" fill="#c6c5fe">dist/cluster/cluster.providers.js</text>
</g>
<!-- dist/cluster/cluster.module.js&#45;&gt;dist/cluster/cluster.providers.js -->
<g id="edge9" class="edge">
<title>dist/cluster/cluster.module.js&#45;&gt;dist/cluster/cluster.providers.js</title>
<path fill="none" stroke="#757575" d="M280.41,-700.68C308.03,-705.7 340.57,-711.62 369.22,-716.82"/>
<polygon fill="#757575" stroke="#757575" points="368.71,-720.29 379.17,-718.64 369.96,-713.4 368.71,-720.29"/>
</g>
<!-- dist/cluster/common/index.js -->
<g id="node9" class="node">
<title>dist/cluster/common/index.js</title>
<path fill="none" stroke="#c6c5fe" d="M771.83,-700.65C771.83,-700.65 599.17,-700.65 599.17,-700.65 595.33,-700.65 591.5,-696.82 591.5,-692.98 591.5,-692.98 591.5,-685.32 591.5,-685.32 591.5,-681.48 595.33,-677.65 599.17,-677.65 599.17,-677.65 771.83,-677.65 771.83,-677.65 775.67,-677.65 779.5,-681.48 779.5,-685.32 779.5,-685.32 779.5,-692.98 779.5,-692.98 779.5,-696.82 775.67,-700.65 771.83,-700.65"/>
<text text-anchor="middle" x="685.5" y="-685.45" font-family="Arial" font-size="14.00" fill="#c6c5fe">dist/cluster/common/index.js</text>
</g>
<!-- dist/cluster/cluster.module.js&#45;&gt;dist/cluster/common/index.js -->
<g id="edge10" class="edge">
<title>dist/cluster/cluster.module.js&#45;&gt;dist/cluster/common/index.js</title>
<path fill="none" stroke="#757575" d="M309.08,-689.15C387.4,-689.15 499.78,-689.15 581.15,-689.15"/>
<polygon fill="#757575" stroke="#757575" points="581.42,-692.65 591.42,-689.15 581.42,-685.65 581.42,-692.65"/>
</g>
<!-- dist/cluster/cluster.providers.js&#45;&gt;dist/cluster/cluster.constants.js -->
<g id="edge15" class="edge">
<title>dist/cluster/cluster.providers.js&#45;&gt;dist/cluster/cluster.constants.js</title>
<path fill="none" stroke="#757575" d="M473.43,-741.72C493.01,-749.76 519.34,-761.01 542,-772.15 558.43,-780.22 560.32,-787.43 578,-792.15 883.62,-873.76 1266.18,-832.15 1428.67,-808.17"/>
<polygon fill="#757575" stroke="#757575" points="1429.21,-811.63 1438.58,-806.69 1428.17,-804.71 1429.21,-811.63"/>
</g>
<!-- dist/cluster/cluster.providers.js&#45;&gt;dist/cluster/cluster&#45;manager.js -->
<g id="edge14" class="edge">
<title>dist/cluster/cluster.providers.js&#45;&gt;dist/cluster/cluster&#45;manager.js</title>
<path fill="none" stroke="#757575" d="M511.99,-741.68C541.51,-746.72 576.32,-752.67 606.9,-757.89"/>
<polygon fill="#757575" stroke="#757575" points="606.65,-761.4 617.1,-759.64 607.83,-754.5 606.65,-761.4"/>
</g>
<!-- dist/cluster/cluster.providers.js&#45;&gt;dist/cluster/common/index.js -->
<g id="edge16" class="edge">
<title>dist/cluster/cluster.providers.js&#45;&gt;dist/cluster/common/index.js</title>
<path fill="none" stroke="#757575" d="M511.99,-718.62C541.51,-713.58 576.32,-707.63 606.9,-702.41"/>
<polygon fill="#757575" stroke="#757575" points="607.83,-705.8 617.1,-700.66 606.65,-698.9 607.83,-705.8"/>
</g>
<!-- dist/cluster/default&#45;options.js -->
<g id="node10" class="node">
<title>dist/cluster/default&#45;options.js</title>
<path fill="none" stroke="#cfffac" d="M771.33,-741.65C771.33,-741.65 599.67,-741.65 599.67,-741.65 595.83,-741.65 592,-737.82 592,-733.98 592,-733.98 592,-726.32 592,-726.32 592,-722.48 595.83,-718.65 599.67,-718.65 599.67,-718.65 771.33,-718.65 771.33,-718.65 775.17,-718.65 779,-722.48 779,-726.32 779,-726.32 779,-733.98 779,-733.98 779,-737.82 775.17,-741.65 771.33,-741.65"/>
<text text-anchor="middle" x="685.5" y="-726.45" font-family="Arial" font-size="14.00" fill="#cfffac">dist/cluster/default&#45;options.js</text>
</g>
<!-- dist/cluster/cluster.providers.js&#45;&gt;dist/cluster/default&#45;options.js -->
<g id="edge17" class="edge">
<title>dist/cluster/cluster.providers.js&#45;&gt;dist/cluster/default&#45;options.js</title>
<path fill="none" stroke="#757575" d="M542.12,-730.15C555.02,-730.15 568.28,-730.15 581.27,-730.15"/>
<polygon fill="#757575" stroke="#757575" points="581.62,-733.65 591.62,-730.15 581.62,-726.65 581.62,-733.65"/>
</g>
<!-- dist/cluster/common/cluster.decorator.js -->
<g id="node11" class="node">
<title>dist/cluster/common/cluster.decorator.js</title>
<path fill="none" stroke="#c6c5fe" d="M1075.33,-709.65C1075.33,-709.65 836.67,-709.65 836.67,-709.65 832.83,-709.65 829,-705.82 829,-701.98 829,-701.98 829,-694.32 829,-694.32 829,-690.48 832.83,-686.65 836.67,-686.65 836.67,-686.65 1075.33,-686.65 1075.33,-686.65 1079.17,-686.65 1083,-690.48 1083,-694.32 1083,-694.32 1083,-701.98 1083,-701.98 1083,-705.82 1079.17,-709.65 1075.33,-709.65"/>
<text text-anchor="middle" x="956" y="-694.45" font-family="Arial" font-size="14.00" fill="#c6c5fe">dist/cluster/common/cluster.decorator.js</text>
</g>
<!-- dist/cluster/common/index.js&#45;&gt;dist/cluster/common/cluster.decorator.js -->
<g id="edge24" class="edge">
<title>dist/cluster/common/index.js&#45;&gt;dist/cluster/common/cluster.decorator.js</title>
<path fill="none" stroke="#757575" d="M779.65,-692.27C792.33,-692.7 805.54,-693.14 818.78,-693.58"/>
<polygon fill="#757575" stroke="#757575" points="818.79,-697.09 828.9,-693.92 819.03,-690.09 818.79,-697.09"/>
</g>
<!-- dist/cluster/common/cluster.utils.js -->
<g id="node12" class="node">
<title>dist/cluster/common/cluster.utils.js</title>
<path fill="none" stroke="#c6c5fe" d="M1059.33,-668.65C1059.33,-668.65 852.67,-668.65 852.67,-668.65 848.83,-668.65 845,-664.82 845,-660.98 845,-660.98 845,-653.32 845,-653.32 845,-649.48 848.83,-645.65 852.67,-645.65 852.67,-645.65 1059.33,-645.65 1059.33,-645.65 1063.17,-645.65 1067,-649.48 1067,-653.32 1067,-653.32 1067,-660.98 1067,-660.98 1067,-664.82 1063.17,-668.65 1059.33,-668.65"/>
<text text-anchor="middle" x="956" y="-653.45" font-family="Arial" font-size="14.00" fill="#c6c5fe">dist/cluster/common/cluster.utils.js</text>
</g>
<!-- dist/cluster/common/index.js&#45;&gt;dist/cluster/common/cluster.utils.js -->
<g id="edge25" class="edge">
<title>dist/cluster/common/index.js&#45;&gt;dist/cluster/common/cluster.utils.js</title>
<path fill="none" stroke="#757575" d="M779.65,-678.05C801.82,-675.41 825.64,-672.57 848.36,-669.86"/>
<polygon fill="#757575" stroke="#757575" points="848.85,-673.33 858.36,-668.67 848.02,-666.37 848.85,-673.33"/>
</g>
<!-- dist/cluster/common/cluster.decorator.js&#45;&gt;dist/cluster/cluster.constants.js -->
<g id="edge18" class="edge">
<title>dist/cluster/common/cluster.decorator.js&#45;&gt;dist/cluster/cluster.constants.js</title>
<path fill="none" stroke="#757575" d="M1083.37,-687.95C1167.2,-684.96 1278.71,-688.3 1373,-716.15 1415.98,-728.84 1459.6,-758.14 1485.07,-777.27"/>
<polygon fill="#757575" stroke="#757575" points="1483.22,-780.26 1493.29,-783.56 1487.48,-774.7 1483.22,-780.26"/>
</g>
<!-- dist/cluster/common/cluster.decorator.js&#45;&gt;dist/utils/index.js -->
<g id="edge19" class="edge">
<title>dist/cluster/common/cluster.decorator.js&#45;&gt;dist/utils/index.js</title>
<path fill="none" stroke="#757575" d="M1072.47,-686.58C1076.23,-684.13 1079.76,-681.33 1083,-678.15 1147.81,-614.61 1063.71,-549.12 1119,-477.15 1135.37,-455.84 1161.3,-441.91 1185.4,-432.97"/>
<polygon fill="#757575" stroke="#757575" points="1186.58,-436.27 1194.87,-429.67 1184.27,-429.66 1186.58,-436.27"/>
</g>
<!-- dist/cluster/common/cluster.utils.js&#45;&gt;dist/cluster/cluster&#45;logger.js -->
<g id="edge20" class="edge">
<title>dist/cluster/common/cluster.utils.js&#45;&gt;dist/cluster/cluster&#45;logger.js</title>
<path fill="none" stroke="#757575" d="M1039.12,-668.65C1053.83,-671.33 1068.94,-674.49 1083,-678.15 1126.76,-689.53 1175.39,-707.73 1207.85,-720.7"/>
<polygon fill="#757575" stroke="#757575" points="1206.8,-724.05 1217.38,-724.55 1209.42,-717.56 1206.8,-724.05"/>
</g>
<!-- dist/cluster/common/cluster.utils.js&#45;&gt;dist/messages/index.js -->
<g id="edge22" class="edge">
<title>dist/cluster/common/cluster.utils.js&#45;&gt;dist/messages/index.js</title>
<path fill="none" stroke="#757575" d="M1032,-668.65C1159.68,-684.34 1423.36,-699.5 1608,-593.15 1661.62,-562.26 1696.33,-493.99 1711.2,-459.29"/>
<polygon fill="#757575" stroke="#757575" points="1714.59,-460.26 1715.17,-449.68 1708.12,-457.58 1714.59,-460.26"/>
</g>
<!-- dist/cluster/common/cluster.utils.js&#45;&gt;dist/utils/index.js -->
<g id="edge23" class="edge">
<title>dist/cluster/common/cluster.utils.js&#45;&gt;dist/utils/index.js</title>
<path fill="none" stroke="#757575" d="M1062.27,-645.58C1069.87,-641.81 1076.92,-637.07 1083,-631.15 1133.35,-582.1 1074.73,-531.75 1119,-477.15 1136.12,-456.03 1162.55,-442.08 1186.78,-433.07"/>
<polygon fill="#757575" stroke="#757575" points="1188.01,-436.35 1196.29,-429.74 1185.7,-429.74 1188.01,-436.35"/>
</g>
<!-- dist/constants/index.js -->
<g id="node13" class="node">
<title>dist/constants/index.js</title>
<path fill="none" stroke="#cfffac" d="M1312.83,-338.65C1312.83,-338.65 1179.17,-338.65 1179.17,-338.65 1175.33,-338.65 1171.5,-334.82 1171.5,-330.98 1171.5,-330.98 1171.5,-323.32 1171.5,-323.32 1171.5,-319.48 1175.33,-315.65 1179.17,-315.65 1179.17,-315.65 1312.83,-315.65 1312.83,-315.65 1316.67,-315.65 1320.5,-319.48 1320.5,-323.32 1320.5,-323.32 1320.5,-330.98 1320.5,-330.98 1320.5,-334.82 1316.67,-338.65 1312.83,-338.65"/>
<text text-anchor="middle" x="1246" y="-323.45" font-family="Arial" font-size="14.00" fill="#cfffac">dist/constants/index.js</text>
</g>
<!-- dist/cluster/common/cluster.utils.js&#45;&gt;dist/constants/index.js -->
<g id="edge21" class="edge">
<title>dist/cluster/common/cluster.utils.js&#45;&gt;dist/constants/index.js</title>
<path fill="none" stroke="#757575" d="M980.56,-645.43C1009.39,-629.82 1057.51,-599.43 1083,-559.15 1122.44,-496.82 1074.88,-456.26 1119,-397.15 1138.4,-371.16 1170.44,-353.55 1197.36,-342.49"/>
<polygon fill="#757575" stroke="#757575" points="1198.98,-345.61 1207.01,-338.71 1196.42,-339.1 1198.98,-345.61"/>
</g>
<!-- dist/health/index.js -->
<g id="node16" class="node">
<title>dist/health/index.js</title>
<path fill="none" stroke="#c6c5fe" d="M499.83,-450.65C499.83,-450.65 387.17,-450.65 387.17,-450.65 383.33,-450.65 379.5,-446.82 379.5,-442.98 379.5,-442.98 379.5,-435.32 379.5,-435.32 379.5,-431.48 383.33,-427.65 387.17,-427.65 387.17,-427.65 499.83,-427.65 499.83,-427.65 503.67,-427.65 507.5,-431.48 507.5,-435.32 507.5,-435.32 507.5,-442.98 507.5,-442.98 507.5,-446.82 503.67,-450.65 499.83,-450.65"/>
<text text-anchor="middle" x="443.5" y="-435.45" font-family="Arial" font-size="14.00" fill="#c6c5fe">dist/health/index.js</text>
</g>
<!-- dist/health/indicators/redis.health.js -->
<g id="node17" class="node">
<title>dist/health/indicators/redis.health.js</title>
<path fill="none" stroke="#c6c5fe" d="M1061.83,-469.65C1061.83,-469.65 850.17,-469.65 850.17,-469.65 846.33,-469.65 842.5,-465.82 842.5,-461.98 842.5,-461.98 842.5,-454.32 842.5,-454.32 842.5,-450.48 846.33,-446.65 850.17,-446.65 850.17,-446.65 1061.83,-446.65 1061.83,-446.65 1065.67,-446.65 1069.5,-450.48 1069.5,-454.32 1069.5,-454.32 1069.5,-461.98 1069.5,-461.98 1069.5,-465.82 1065.67,-469.65 1061.83,-469.65"/>
<text text-anchor="middle" x="956" y="-454.45" font-family="Arial" font-size="14.00" fill="#c6c5fe">dist/health/indicators/redis.health.js</text>
</g>
<!-- dist/health/index.js&#45;&gt;dist/health/indicators/redis.health.js -->
<g id="edge28" class="edge">
<title>dist/health/index.js&#45;&gt;dist/health/indicators/redis.health.js</title>
<path fill="none" stroke="#757575" d="M507.61,-441.5C588.29,-444.5 729.75,-449.77 832.04,-453.57"/>
<polygon fill="#757575" stroke="#757575" points="832.01,-457.07 842.13,-453.95 832.27,-450.08 832.01,-457.07"/>
</g>
<!-- dist/health/redis&#45;health.module.js -->
<g id="node18" class="node">
<title>dist/health/redis&#45;health.module.js</title>
<path fill="none" stroke="#c6c5fe" d="M785.33,-431.65C785.33,-431.65 585.67,-431.65 585.67,-431.65 581.83,-431.65 578,-427.82 578,-423.98 578,-423.98 578,-416.32 578,-416.32 578,-412.48 581.83,-408.65 585.67,-408.65 585.67,-408.65 785.33,-408.65 785.33,-408.65 789.17,-408.65 793,-412.48 793,-416.32 793,-416.32 793,-423.98 793,-423.98 793,-427.82 789.17,-431.65 785.33,-431.65"/>
<text text-anchor="middle" x="685.5" y="-416.45" font-family="Arial" font-size="14.00" fill="#c6c5fe">dist/health/redis&#45;health.module.js</text>
</g>
<!-- dist/health/index.js&#45;&gt;dist/health/redis&#45;health.module.js -->
<g id="edge29" class="edge">
<title>dist/health/index.js&#45;&gt;dist/health/redis&#45;health.module.js</title>
<path fill="none" stroke="#757575" d="M507.56,-434.16C526.06,-432.69 546.91,-431.04 567.63,-429.4"/>
<polygon fill="#757575" stroke="#757575" points="568.09,-432.88 577.79,-428.6 567.54,-425.9 568.09,-432.88"/>
</g>
<!-- dist/health/indicators/redis.health.js&#45;&gt;dist/messages/index.js -->
<g id="edge30" class="edge">
<title>dist/health/indicators/redis.health.js&#45;&gt;dist/messages/index.js</title>
<path fill="none" stroke="#757575" d="M1069.51,-455.2C1223.19,-451.17 1495.39,-444.03 1633.7,-440.4"/>
<polygon fill="#757575" stroke="#757575" points="1633.92,-443.9 1643.82,-440.13 1633.73,-436.9 1633.92,-443.9"/>
</g>
<!-- dist/health/indicators/redis.health.js&#45;&gt;dist/utils/index.js -->
<g id="edge31" class="edge">
<title>dist/health/indicators/redis.health.js&#45;&gt;dist/utils/index.js</title>
<path fill="none" stroke="#757575" d="M1039.92,-446.63C1083.82,-440.54 1137.03,-433.15 1178.24,-427.42"/>
<polygon fill="#757575" stroke="#757575" points="1178.76,-430.88 1188.18,-426.04 1177.79,-423.95 1178.76,-430.88"/>
</g>
<!-- dist/health/redis&#45;health.module.js&#45;&gt;dist/health/indicators/redis.health.js -->
<g id="edge32" class="edge">
<title>dist/health/redis&#45;health.module.js&#45;&gt;dist/health/indicators/redis.health.js</title>
<path fill="none" stroke="#757575" d="M767.79,-431.65C798.01,-435.93 832.5,-440.81 863.57,-445.21"/>
<polygon fill="#757575" stroke="#757575" points="863.13,-448.68 873.53,-446.62 864.11,-441.75 863.13,-448.68"/>
</g>
<!-- dist/index.js -->
<g id="node19" class="node">
<title>dist/index.js</title>
<path fill="none" stroke="#c6c5fe" d="M79.33,-450.65C79.33,-450.65 7.67,-450.65 7.67,-450.65 3.83,-450.65 0,-446.82 0,-442.98 0,-442.98 0,-435.32 0,-435.32 0,-431.48 3.83,-427.65 7.67,-427.65 7.67,-427.65 79.33,-427.65 79.33,-427.65 83.17,-427.65 87,-431.48 87,-435.32 87,-435.32 87,-442.98 87,-442.98 87,-446.82 83.17,-450.65 79.33,-450.65"/>
<text text-anchor="middle" x="43.5" y="-435.45" font-family="Arial" font-size="14.00" fill="#c6c5fe">dist/index.js</text>
</g>
<!-- dist/index.js&#45;&gt;dist/cluster/cluster.constants.js -->
<g id="edge34" class="edge">
<title>dist/index.js&#45;&gt;dist/cluster/cluster.constants.js</title>
<path fill="none" stroke="#757575" d="M44.23,-450.93C43.78,-496.47 47.57,-663.63 123,-768.15 220.76,-903.62 275.44,-966.15 442.5,-966.15 442.5,-966.15 442.5,-966.15 957,-966.15 1146.17,-966.15 1197.16,-945.89 1373,-876.15 1414.48,-859.7 1457.91,-831.17 1483.83,-812.73"/>
<polygon fill="#757575" stroke="#757575" points="1486.18,-815.35 1492.24,-806.67 1482.08,-809.68 1486.18,-815.35"/>
</g>
<!-- dist/index.js&#45;&gt;dist/cluster/cluster&#45;manager.js -->
<g id="edge33" class="edge">
<title>dist/index.js&#45;&gt;dist/cluster/cluster&#45;manager.js</title>
<path fill="none" stroke="#757575" d="M44.2,-450.85C43.78,-492.45 48.1,-634.73 123,-710.15 258.81,-846.92 517.11,-809.62 629.72,-784.93"/>
<polygon fill="#757575" stroke="#757575" points="630.52,-788.34 639.51,-782.73 628.99,-781.5 630.52,-788.34"/>
</g>
<!-- dist/index.js&#45;&gt;dist/cluster/cluster.module.js -->
<g id="edge35" class="edge">
<title>dist/index.js&#45;&gt;dist/cluster/cluster.module.js</title>
<path fill="none" stroke="#757575" d="M49.47,-450.94C60.68,-476.9 89.58,-540.52 123,-588.15 144.89,-619.35 175.54,-651.17 195.34,-670.54"/>
<polygon fill="#757575" stroke="#757575" points="192.98,-673.13 202.6,-677.57 197.84,-668.1 192.98,-673.13"/>
</g>
<!-- dist/index.js&#45;&gt;dist/cluster/common/index.js -->
<g id="edge36" class="edge">
<title>dist/index.js&#45;&gt;dist/cluster/common/index.js</title>
<path fill="none" stroke="#757575" d="M74.08,-450.71C178.22,-491.38 527.86,-627.96 645.5,-673.91"/>
<polygon fill="#757575" stroke="#757575" points="644.27,-677.19 654.86,-677.57 646.82,-670.67 644.27,-677.19"/>
</g>
<!-- dist/redis/common/index.js -->
<g id="node20" class="node">
<title>dist/redis/common/index.js</title>
<path fill="none" stroke="#c6c5fe" d="M766.33,-197.65C766.33,-197.65 604.67,-197.65 604.67,-197.65 600.83,-197.65 597,-193.82 597,-189.98 597,-189.98 597,-182.32 597,-182.32 597,-178.48 600.83,-174.65 604.67,-174.65 604.67,-174.65 766.33,-174.65 766.33,-174.65 770.17,-174.65 774,-178.48 774,-182.32 774,-182.32 774,-189.98 774,-189.98 774,-193.82 770.17,-197.65 766.33,-197.65"/>
<text text-anchor="middle" x="685.5" y="-182.45" font-family="Arial" font-size="14.00" fill="#c6c5fe">dist/redis/common/index.js</text>
</g>
<!-- dist/index.js&#45;&gt;dist/redis/common/index.js -->
<g id="edge37" class="edge">
<title>dist/index.js&#45;&gt;dist/redis/common/index.js</title>
<path fill="none" stroke="#757575" d="M45.66,-427.44C49.66,-393.6 65.91,-294.78 123,-243.15 264.64,-115.04 516.1,-148.97 628.04,-172.45"/>
<polygon fill="#757575" stroke="#757575" points="627.6,-175.94 638.11,-174.62 629.07,-169.1 627.6,-175.94"/>
</g>
<!-- dist/redis/redis&#45;manager.js -->
<g id="node21" class="node">
<title>dist/redis/redis&#45;manager.js</title>
<path fill="none" stroke="#c6c5fe" d="M765.33,-284.65C765.33,-284.65 605.67,-284.65 605.67,-284.65 601.83,-284.65 598,-280.82 598,-276.98 598,-276.98 598,-269.32 598,-269.32 598,-265.48 601.83,-261.65 605.67,-261.65 605.67,-261.65 765.33,-261.65 765.33,-261.65 769.17,-261.65 773,-265.48 773,-269.32 773,-269.32 773,-276.98 773,-276.98 773,-280.82 769.17,-284.65 765.33,-284.65"/>
<text text-anchor="middle" x="685.5" y="-269.45" font-family="Arial" font-size="14.00" fill="#c6c5fe">dist/redis/redis&#45;manager.js</text>
</g>
<!-- dist/index.js&#45;&gt;dist/redis/redis&#45;manager.js -->
<g id="edge38" class="edge">
<title>dist/index.js&#45;&gt;dist/redis/redis&#45;manager.js</title>
<path fill="none" stroke="#757575" d="M87.26,-427.64C98.85,-424.54 111.4,-421.2 123,-418.15 308.45,-369.4 528.75,-312.93 629.4,-287.21"/>
<polygon fill="#757575" stroke="#757575" points="630.52,-290.54 639.34,-284.67 628.79,-283.75 630.52,-290.54"/>
</g>
<!-- dist/redis/redis.constants.js -->
<g id="node22" class="node">
<title>dist/redis/redis.constants.js</title>
<path fill="none" stroke="#cfffac" d="M1590.33,-107.65C1590.33,-107.65 1426.67,-107.65 1426.67,-107.65 1422.83,-107.65 1419,-103.82 1419,-99.98 1419,-99.98 1419,-92.32 1419,-92.32 1419,-88.48 1422.83,-84.65 1426.67,-84.65 1426.67,-84.65 1590.33,-84.65 1590.33,-84.65 1594.17,-84.65 1598,-88.48 1598,-92.32 1598,-92.32 1598,-99.98 1598,-99.98 1598,-103.82 1594.17,-107.65 1590.33,-107.65"/>
<text text-anchor="middle" x="1508.5" y="-92.45" font-family="Arial" font-size="14.00" fill="#cfffac">dist/redis/redis.constants.js</text>
</g>
<!-- dist/index.js&#45;&gt;dist/redis/redis.constants.js -->
<g id="edge39" class="edge">
<title>dist/index.js&#45;&gt;dist/redis/redis.constants.js</title>
<path fill="none" stroke="#757575" d="M44.54,-427.41C45.26,-385.59 52.98,-241.81 123,-156.15 223.01,-33.8 284.48,-0.15 442.5,-0.15 442.5,-0.15 442.5,-0.15 957,-0.15 1142.83,-0.15 1192.55,2.24 1373,-42.15 1409.12,-51.04 1448.38,-67.67 1475.11,-80.14"/>
<polygon fill="#757575" stroke="#757575" points="1473.82,-83.4 1484.36,-84.52 1476.82,-77.07 1473.82,-83.4"/>
</g>
<!-- dist/redis/redis.module.js -->
<g id="node23" class="node">
<title>dist/redis/redis.module.js</title>
<path fill="none" stroke="#c6c5fe" d="M291.33,-275.65C291.33,-275.65 140.67,-275.65 140.67,-275.65 136.83,-275.65 133,-271.82 133,-267.98 133,-267.98 133,-260.32 133,-260.32 133,-256.48 136.83,-252.65 140.67,-252.65 140.67,-252.65 291.33,-252.65 291.33,-252.65 295.17,-252.65 299,-256.48 299,-260.32 299,-260.32 299,-267.98 299,-267.98 299,-271.82 295.17,-275.65 291.33,-275.65"/>
<text text-anchor="middle" x="216" y="-260.45" font-family="Arial" font-size="14.00" fill="#c6c5fe">dist/redis/redis.module.js</text>
</g>
<!-- dist/index.js&#45;&gt;dist/redis/redis.module.js -->
<g id="edge40" class="edge">
<title>dist/index.js&#45;&gt;dist/redis/redis.module.js</title>
<path fill="none" stroke="#757575" d="M47.27,-427.44C54.54,-399.31 76.87,-327.5 123,-290.15 127.99,-286.11 133.58,-282.69 139.47,-279.8"/>
<polygon fill="#757575" stroke="#757575" points="141.15,-282.89 148.93,-275.69 138.36,-276.47 141.15,-282.89"/>
</g>
<!-- dist/redis/common/redis.decorator.js -->
<g id="node24" class="node">
<title>dist/redis/common/redis.decorator.js</title>
<path fill="none" stroke="#c6c5fe" d="M1065.33,-206.65C1065.33,-206.65 846.67,-206.65 846.67,-206.65 842.83,-206.65 839,-202.82 839,-198.98 839,-198.98 839,-191.32 839,-191.32 839,-187.48 842.83,-183.65 846.67,-183.65 846.67,-183.65 1065.33,-183.65 1065.33,-183.65 1069.17,-183.65 1073,-187.48 1073,-191.32 1073,-191.32 1073,-198.98 1073,-198.98 1073,-202.82 1069.17,-206.65 1065.33,-206.65"/>
<text text-anchor="middle" x="956" y="-191.45" font-family="Arial" font-size="14.00" fill="#c6c5fe">dist/redis/common/redis.decorator.js</text>
</g>
<!-- dist/redis/common/index.js&#45;&gt;dist/redis/common/redis.decorator.js -->
<g id="edge41" class="edge">
<title>dist/redis/common/index.js&#45;&gt;dist/redis/common/redis.decorator.js</title>
<path fill="none" stroke="#757575" d="M774.05,-189.08C791.48,-189.67 810.11,-190.29 828.54,-190.91"/>
<polygon fill="#757575" stroke="#757575" points="828.64,-194.42 838.76,-191.25 828.88,-187.42 828.64,-194.42"/>
</g>
<!-- dist/redis/common/redis.utils.js -->
<g id="node25" class="node">
<title>dist/redis/common/redis.utils.js</title>
<path fill="none" stroke="#c6c5fe" d="M1049.33,-165.65C1049.33,-165.65 862.67,-165.65 862.67,-165.65 858.83,-165.65 855,-161.82 855,-157.98 855,-157.98 855,-150.32 855,-150.32 855,-146.48 858.83,-142.65 862.67,-142.65 862.67,-142.65 1049.33,-142.65 1049.33,-142.65 1053.17,-142.65 1057,-146.48 1057,-150.32 1057,-150.32 1057,-157.98 1057,-157.98 1057,-161.82 1053.17,-165.65 1049.33,-165.65"/>
<text text-anchor="middle" x="956" y="-150.45" font-family="Arial" font-size="14.00" fill="#c6c5fe">dist/redis/common/redis.utils.js</text>
</g>
<!-- dist/redis/common/index.js&#45;&gt;dist/redis/common/redis.utils.js -->
<g id="edge42" class="edge">
<title>dist/redis/common/index.js&#45;&gt;dist/redis/common/redis.utils.js</title>
<path fill="none" stroke="#757575" d="M774.05,-175.72C797.72,-172.89 823.6,-169.81 848.2,-166.88"/>
<polygon fill="#757575" stroke="#757575" points="848.78,-170.33 858.29,-165.68 847.95,-163.38 848.78,-170.33"/>
</g>
<!-- dist/redis/redis&#45;manager.js&#45;&gt;dist/errors/index.js -->
<g id="edge50" class="edge">
<title>dist/redis/redis&#45;manager.js&#45;&gt;dist/errors/index.js</title>
<path fill="none" stroke="#757575" d="M698.28,-284.79C719.32,-306.04 763.88,-353.18 793,-399.15 813.65,-431.74 802.04,-450.55 829,-478.15 849.86,-499.5 879.7,-514.4 905.11,-524.13"/>
<polygon fill="#757575" stroke="#757575" points="904.01,-527.46 914.6,-527.61 906.42,-520.88 904.01,-527.46"/>
</g>
<!-- dist/redis/redis&#45;manager.js&#45;&gt;dist/messages/index.js -->
<g id="edge51" class="edge">
<title>dist/redis/redis&#45;manager.js&#45;&gt;dist/messages/index.js</title>
<path fill="none" stroke="#757575" d="M773.18,-268.9C988.77,-259.01 1536.93,-238.26 1608,-279.15 1635.29,-294.85 1626.36,-314.08 1644,-340.15 1663.08,-368.35 1687.48,-399.21 1703.3,-418.62"/>
<polygon fill="#757575" stroke="#757575" points="1700.66,-420.92 1709.71,-426.43 1706.08,-416.48 1700.66,-420.92"/>
</g>
<!-- dist/redis/redis&#45;manager.js&#45;&gt;dist/utils/index.js -->
<g id="edge53" class="edge">
<title>dist/redis/redis&#45;manager.js&#45;&gt;dist/utils/index.js</title>
<path fill="none" stroke="#757575" d="M731.26,-284.77C832.79,-311.13 1080.29,-375.39 1190.5,-404"/>
<polygon fill="#757575" stroke="#757575" points="1189.86,-407.45 1200.41,-406.57 1191.62,-400.67 1189.86,-407.45"/>
</g>
<!-- dist/redis/redis&#45;manager.js&#45;&gt;dist/redis/redis.constants.js -->
<g id="edge52" class="edge">
<title>dist/redis/redis&#45;manager.js&#45;&gt;dist/redis/redis.constants.js</title>
<path fill="none" stroke="#757575" d="M773.24,-264.23C932.12,-247.25 1263.55,-208.59 1373,-171.15 1413.96,-157.14 1456.91,-130.85 1482.95,-113.42"/>
<polygon fill="#757575" stroke="#757575" points="1485.12,-116.17 1491.42,-107.66 1481.18,-110.38 1485.12,-116.17"/>
</g>
<!-- dist/redis/redis.module.js&#45;&gt;dist/errors/index.js -->
<g id="edge54" class="edge">
<title>dist/redis/redis.module.js&#45;&gt;dist/errors/index.js</title>
<path fill="none" stroke="#757575" d="M223.88,-275.81C247.72,-316.09 326.43,-447.5 345,-459.15 433.22,-514.48 740.96,-531.93 882.62,-537.11"/>
<polygon fill="#757575" stroke="#757575" points="882.82,-540.62 892.94,-537.48 883.07,-533.63 882.82,-540.62"/>
</g>
<!-- dist/redis/redis.module.js&#45;&gt;dist/messages/index.js -->
<g id="edge55" class="edge">
<title>dist/redis/redis.module.js&#45;&gt;dist/messages/index.js</title>
<path fill="none" stroke="#757575" d="M289.67,-275.68C307.72,-278.33 327.04,-281.01 345,-283.15 414.96,-291.49 1539.26,-381.69 1608,-397.15 1634.35,-403.07 1662.92,-413.67 1684.54,-422.6"/>
<polygon fill="#757575" stroke="#757575" points="1683.37,-425.91 1693.95,-426.56 1686.09,-419.46 1683.37,-425.91"/>
</g>
<!-- dist/redis/redis.module.js&#45;&gt;dist/utils/index.js -->
<g id="edge61" class="edge">
<title>dist/redis/redis.module.js&#45;&gt;dist/utils/index.js</title>
<path fill="none" stroke="#757575" d="M228.38,-275.83C249.27,-296.38 296.08,-338.52 345,-356.15 422.67,-384.15 982.94,-408.08 1178.14,-415.66"/>
<polygon fill="#757575" stroke="#757575" points="1178.14,-419.16 1188.27,-416.05 1178.41,-412.16 1178.14,-419.16"/>
</g>
<!-- dist/redis/redis.module.js&#45;&gt;dist/redis/common/index.js -->
<g id="edge56" class="edge">
<title>dist/redis/redis.module.js&#45;&gt;dist/redis/common/index.js</title>
<path fill="none" stroke="#757575" d="M236.11,-252.54C260.42,-238.45 304.16,-215.31 345,-205.15 424.55,-185.35 517.7,-181.44 586.28,-182.01"/>
<polygon fill="#757575" stroke="#757575" points="586.61,-185.51 596.65,-182.13 586.69,-178.51 586.61,-185.51"/>
</g>
<!-- dist/redis/redis.module.js&#45;&gt;dist/redis/redis&#45;manager.js -->
<g id="edge58" class="edge">
<title>dist/redis/redis.module.js&#45;&gt;dist/redis/redis&#45;manager.js</title>
<path fill="none" stroke="#757575" d="M299.24,-265.73C379.8,-267.28 502.56,-269.65 587.77,-271.29"/>
<polygon fill="#757575" stroke="#757575" points="587.9,-274.79 597.97,-271.48 588.04,-267.79 587.9,-274.79"/>
</g>
<!-- dist/redis/redis.module.js&#45;&gt;dist/redis/redis.constants.js -->
<g id="edge59" class="edge">
<title>dist/redis/redis.module.js&#45;&gt;dist/redis/redis.constants.js</title>
<path fill="none" stroke="#757575" d="M224.41,-252.54C241.95,-226.01 288.81,-160.67 345,-127.15 478.96,-47.24 528.51,-38.15 684.5,-38.15 684.5,-38.15 684.5,-38.15 957,-38.15 1127.14,-38.15 1325.23,-65.89 1431.25,-83"/>
<polygon fill="#757575" stroke="#757575" points="1430.79,-86.47 1441.22,-84.62 1431.91,-79.56 1430.79,-86.47"/>
</g>
<!-- dist/redis/redis&#45;logger.js -->
<g id="node26" class="node">
<title>dist/redis/redis&#45;logger.js</title>
<path fill="none" stroke="#c6c5fe" d="M1317.33,-127.65C1317.33,-127.65 1174.67,-127.65 1174.67,-127.65 1170.83,-127.65 1167,-123.82 1167,-119.98 1167,-119.98 1167,-112.32 1167,-112.32 1167,-108.48 1170.83,-104.65 1174.67,-104.65 1174.67,-104.65 1317.33,-104.65 1317.33,-104.65 1321.17,-104.65 1325,-108.48 1325,-112.32 1325,-112.32 1325,-119.98 1325,-119.98 1325,-123.82 1321.17,-127.65 1317.33,-127.65"/>
<text text-anchor="middle" x="1246" y="-112.45" font-family="Arial" font-size="14.00" fill="#c6c5fe">dist/redis/redis&#45;logger.js</text>
</g>
<!-- dist/redis/redis.module.js&#45;&gt;dist/redis/redis&#45;logger.js -->
<g id="edge57" class="edge">
<title>dist/redis/redis.module.js&#45;&gt;dist/redis/redis&#45;logger.js</title>
<path fill="none" stroke="#757575" d="M229.64,-252.58C251.35,-233.48 297.98,-195.81 345,-179.15 628.08,-78.86 991.98,-93.46 1156.84,-107.11"/>
<polygon fill="#757575" stroke="#757575" points="1156.68,-110.6 1166.94,-107.96 1157.27,-103.63 1156.68,-110.6"/>
</g>
<!-- dist/redis/redis.providers.js -->
<g id="node28" class="node">
<title>dist/redis/redis.providers.js</title>
<path fill="none" stroke="#c6c5fe" d="M523.83,-237.65C523.83,-237.65 363.17,-237.65 363.17,-237.65 359.33,-237.65 355.5,-233.82 355.5,-229.98 355.5,-229.98 355.5,-222.32 355.5,-222.32 355.5,-218.48 359.33,-214.65 363.17,-214.65 363.17,-214.65 523.83,-214.65 523.83,-214.65 527.67,-214.65 531.5,-218.48 531.5,-222.32 531.5,-222.32 531.5,-229.98 531.5,-229.98 531.5,-233.82 527.67,-237.65 523.83,-237.65"/>
<text text-anchor="middle" x="443.5" y="-222.45" font-family="Arial" font-size="14.00" fill="#c6c5fe">dist/redis/redis.providers.js</text>
</g>
<!-- dist/redis/redis.module.js&#45;&gt;dist/redis/redis.providers.js -->
<g id="edge60" class="edge">
<title>dist/redis/redis.module.js&#45;&gt;dist/redis/redis.providers.js</title>
<path fill="none" stroke="#757575" d="M285.27,-252.64C310.1,-248.46 338.36,-243.7 364.01,-239.38"/>
<polygon fill="#757575" stroke="#757575" points="364.79,-242.79 374.07,-237.68 363.63,-235.89 364.79,-242.79"/>
</g>
<!-- dist/redis/common/redis.decorator.js&#45;&gt;dist/utils/index.js -->
<g id="edge44" class="edge">
<title>dist/redis/common/redis.decorator.js&#45;&gt;dist/utils/index.js</title>
<path fill="none" stroke="#757575" d="M967.57,-206.83C992.28,-233.73 1056.52,-301.27 1119,-347.15 1148.38,-368.72 1184.96,-388.66 1211.12,-401.88"/>
<polygon fill="#757575" stroke="#757575" points="1209.75,-405.11 1220.26,-406.44 1212.87,-398.84 1209.75,-405.11"/>
</g>
<!-- dist/redis/common/redis.decorator.js&#45;&gt;dist/redis/redis.constants.js -->
<g id="edge43" class="edge">
<title>dist/redis/common/redis.decorator.js&#45;&gt;dist/redis/redis.constants.js</title>
<path fill="none" stroke="#757575" d="M1070.81,-183.62C1154.88,-173.98 1271.8,-158.25 1373,-136.15 1403.92,-129.4 1438.09,-119.2 1464.25,-110.79"/>
<polygon fill="#757575" stroke="#757575" points="1465.44,-114.08 1473.87,-107.66 1463.27,-107.43 1465.44,-114.08"/>
</g>
<!-- dist/redis/common/redis.utils.js&#45;&gt;dist/messages/index.js -->
<g id="edge46" class="edge">
<title>dist/redis/common/redis.utils.js&#45;&gt;dist/messages/index.js</title>
<path fill="none" stroke="#757575" d="M1057.13,-156.17C1218.11,-161.36 1524.86,-179.91 1608,-246.15 1642.99,-274.03 1622.12,-301.13 1644,-340.15 1660.56,-369.69 1685.36,-400.01 1701.97,-418.95"/>
<polygon fill="#757575" stroke="#757575" points="1699.49,-421.43 1708.75,-426.57 1704.72,-416.78 1699.49,-421.43"/>
</g>
<!-- dist/redis/common/redis.utils.js&#45;&gt;dist/utils/index.js -->
<g id="edge48" class="edge">
<title>dist/redis/common/redis.utils.js&#45;&gt;dist/utils/index.js</title>
<path fill="none" stroke="#757575" d="M1057.06,-158.13C1066.64,-161.86 1075.55,-167.04 1083,-174.15 1139.84,-228.34 1072.64,-283.76 1119,-347.15 1138.42,-373.71 1170.98,-391.68 1198.13,-402.9"/>
<polygon fill="#757575" stroke="#757575" points="1196.89,-406.17 1207.48,-406.59 1199.46,-399.66 1196.89,-406.17"/>
</g>
<!-- dist/redis/common/redis.utils.js&#45;&gt;dist/constants/index.js -->
<g id="edge45" class="edge">
<title>dist/redis/common/redis.utils.js&#45;&gt;dist/constants/index.js</title>
<path fill="none" stroke="#757575" d="M1057.22,-164.05C1066.18,-166.71 1074.91,-170.03 1083,-174.15 1103.16,-184.43 1102.71,-194.45 1119,-210.15 1155.66,-245.48 1199.39,-285.66 1224.51,-308.55"/>
<polygon fill="#757575" stroke="#757575" points="1222.22,-311.2 1231.97,-315.35 1226.93,-306.03 1222.22,-311.2"/>
</g>
<!-- dist/redis/common/redis.utils.js&#45;&gt;dist/redis/redis&#45;logger.js -->
<g id="edge47" class="edge">
<title>dist/redis/common/redis.utils.js&#45;&gt;dist/redis/redis&#45;logger.js</title>
<path fill="none" stroke="#757575" d="M1044.19,-142.64C1079.91,-137.93 1121.17,-132.49 1156.97,-127.76"/>
<polygon fill="#757575" stroke="#757575" points="1157.46,-131.23 1166.91,-126.45 1156.54,-124.29 1157.46,-131.23"/>
</g>
<!-- dist/redis/redis&#45;logger.js&#45;&gt;dist/redis/redis.constants.js -->
<g id="edge49" class="edge">
<title>dist/redis/redis&#45;logger.js&#45;&gt;dist/redis/redis.constants.js</title>
<path fill="none" stroke="#757575" d="M1325.16,-110.15C1351.45,-108.13 1381.14,-105.85 1408.8,-103.73"/>
<polygon fill="#757575" stroke="#757575" points="1409.19,-107.21 1418.89,-102.95 1408.66,-100.23 1409.19,-107.21"/>
</g>
<!-- dist/redis/default&#45;options.js -->
<g id="node27" class="node">
<title>dist/redis/default&#45;options.js</title>
<path fill="none" stroke="#cfffac" d="M765.83,-238.65C765.83,-238.65 605.17,-238.65 605.17,-238.65 601.33,-238.65 597.5,-234.82 597.5,-230.98 597.5,-230.98 597.5,-223.32 597.5,-223.32 597.5,-219.48 601.33,-215.65 605.17,-215.65 605.17,-215.65 765.83,-215.65 765.83,-215.65 769.67,-215.65 773.5,-219.48 773.5,-223.32 773.5,-223.32 773.5,-230.98 773.5,-230.98 773.5,-234.82 769.67,-238.65 765.83,-238.65"/>
<text text-anchor="middle" x="685.5" y="-223.45" font-family="Arial" font-size="14.00" fill="#cfffac">dist/redis/default&#45;options.js</text>
</g>
<!-- dist/redis/redis.providers.js&#45;&gt;dist/redis/common/index.js -->
<g id="edge62" class="edge">
<title>dist/redis/redis.providers.js&#45;&gt;dist/redis/common/index.js</title>
<path fill="none" stroke="#757575" d="M513.6,-214.63C542.34,-209.84 575.86,-204.26 605.56,-199.31"/>
<polygon fill="#757575" stroke="#757575" points="606.19,-202.75 615.48,-197.65 605.04,-195.84 606.19,-202.75"/>
</g>
<!-- dist/redis/redis.providers.js&#45;&gt;dist/redis/redis&#45;manager.js -->
<g id="edge64" class="edge">
<title>dist/redis/redis.providers.js&#45;&gt;dist/redis/redis&#45;manager.js</title>
<path fill="none" stroke="#757575" d="M503.52,-237.71C537.37,-244.34 580.05,-252.69 615.45,-259.63"/>
<polygon fill="#757575" stroke="#757575" points="615.22,-263.15 625.71,-261.64 616.57,-256.28 615.22,-263.15"/>
</g>
<!-- dist/redis/redis.providers.js&#45;&gt;dist/redis/redis.constants.js -->
<g id="edge65" class="edge">
<title>dist/redis/redis.providers.js&#45;&gt;dist/redis/redis.constants.js</title>
<path fill="none" stroke="#757575" d="M465.02,-214.4C490.61,-200.33 536.11,-177.13 578,-165.15 871.25,-81.26 1236.58,-83.5 1408.86,-90.51"/>
<polygon fill="#757575" stroke="#757575" points="1408.79,-94.01 1418.93,-90.94 1409.08,-87.02 1408.79,-94.01"/>
</g>
<!-- dist/redis/redis.providers.js&#45;&gt;dist/redis/default&#45;options.js -->
<g id="edge63" class="edge">
<title>dist/redis/redis.providers.js&#45;&gt;dist/redis/default&#45;options.js</title>
<path fill="none" stroke="#757575" d="M531.82,-226.51C549.81,-226.59 568.85,-226.67 587.15,-226.74"/>
<polygon fill="#757575" stroke="#757575" points="587.23,-230.24 597.24,-226.79 587.26,-223.24 587.23,-230.24"/>
</g>
<!-- dist/utils/parsers.js&#45;&gt;dist/utils/is.js -->
<g id="edge69" class="edge">
<title>dist/utils/parsers.js&#45;&gt;dist/utils/is.js</title>
<path fill="none" stroke="#757575" d="M1572.51,-306.15C1601.67,-308.93 1636,-312.2 1664.15,-314.88"/>
<polygon fill="#757575" stroke="#757575" points="1663.93,-318.37 1674.22,-315.84 1664.59,-311.4 1663.93,-318.37"/>
</g>
<!-- dist/utils/promise&#45;timeout.js&#45;&gt;dist/messages/index.js -->
<g id="edge70" class="edge">
<title>dist/utils/promise&#45;timeout.js&#45;&gt;dist/messages/index.js</title>
<path fill="none" stroke="#757575" d="M1599.17,-426.69C1610.52,-427.77 1622.12,-428.87 1633.41,-429.95"/>
<polygon fill="#757575" stroke="#757575" points="1633.39,-433.46 1643.68,-430.93 1634.06,-426.5 1633.39,-433.46"/>
</g>
<!-- health/index.js -->
<g id="node32" class="node">
<title>health/index.js</title>
<path fill="none" stroke="#c6c5fe" d="M259.83,-450.65C259.83,-450.65 172.17,-450.65 172.17,-450.65 168.33,-450.65 164.5,-446.82 164.5,-442.98 164.5,-442.98 164.5,-435.32 164.5,-435.32 164.5,-431.48 168.33,-427.65 172.17,-427.65 172.17,-427.65 259.83,-427.65 259.83,-427.65 263.67,-427.65 267.5,-431.48 267.5,-435.32 267.5,-435.32 267.5,-442.98 267.5,-442.98 267.5,-446.82 263.67,-450.65 259.83,-450.65"/>
<text text-anchor="middle" x="216" y="-435.45" font-family="Arial" font-size="14.00" fill="#c6c5fe">health/index.js</text>
</g>
<!-- health/index.js&#45;&gt;dist/health/index.js -->
<g id="edge71" class="edge">
<title>health/index.js&#45;&gt;dist/health/index.js</title>
<path fill="none" stroke="#757575" d="M267.61,-439.15C297.5,-439.15 335.86,-439.15 369.04,-439.15"/>
<polygon fill="#757575" stroke="#757575" points="369.15,-442.65 379.15,-439.15 369.15,-435.65 369.15,-442.65"/>
</g>
</g>
</svg>
