<?xml version="1.0" encoding="UTF-8" standalone="no"?>
<!DOCTYPE svg PUBLIC "-//W3C//DTD SVG 1.1//EN"
 "http://www.w3.org/Graphics/SVG/1.1/DTD/svg11.dtd">
<!-- Generated by graphviz version 2.43.0 (0)
 -->
<!-- Title: G Pages: 1 -->
<svg width="1576pt" height="898pt"
 viewBox="0.00 0.00 1576.20 898.20" xmlns="http://www.w3.org/2000/svg" xmlns:xlink="http://www.w3.org/1999/xlink">
<g id="graph0" class="graph" transform="scale(1 1) rotate(0) translate(21.6 876.6)">
<title>G</title>
<polygon fill="#111111" stroke="transparent" points="-21.6,21.6 -21.6,-876.6 1554.6,-876.6 1554.6,21.6 -21.6,21.6"/>
<!-- dist/cluster/cluster&#45;logger.js -->
<g id="node1" class="node">
<title>dist/cluster/cluster&#45;logger.js</title>
<path fill="none" stroke="#c6c5fe" d="M1290.33,-748.5C1290.33,-748.5 1126.67,-748.5 1126.67,-748.5 1122.83,-748.5 1119,-744.67 1119,-740.83 1119,-740.83 1119,-733.17 1119,-733.17 1119,-729.33 1122.83,-725.5 1126.67,-725.5 1126.67,-725.5 1290.33,-725.5 1290.33,-725.5 1294.17,-725.5 1298,-729.33 1298,-733.17 1298,-733.17 1298,-740.83 1298,-740.83 1298,-744.67 1294.17,-748.5 1290.33,-748.5"/>
<text text-anchor="middle" x="1208.5" y="-733.3" font-family="Arial" font-size="14.00" fill="#c6c5fe">dist/cluster/cluster&#45;logger.js</text>
</g>
<!-- dist/cluster/cluster.constants.js -->
<g id="node2" class="node">
<title>dist/cluster/cluster.constants.js</title>
<path fill="none" stroke="#cfffac" d="M1525.33,-748.5C1525.33,-748.5 1341.67,-748.5 1341.67,-748.5 1337.83,-748.5 1334,-744.67 1334,-740.83 1334,-740.83 1334,-733.17 1334,-733.17 1334,-729.33 1337.83,-725.5 1341.67,-725.5 1341.67,-725.5 1525.33,-725.5 1525.33,-725.5 1529.17,-725.5 1533,-729.33 1533,-733.17 1533,-733.17 1533,-740.83 1533,-740.83 1533,-744.67 1529.17,-748.5 1525.33,-748.5"/>
<text text-anchor="middle" x="1433.5" y="-733.3" font-family="Arial" font-size="14.00" fill="#cfffac">dist/cluster/cluster.constants.js</text>
</g>
<!-- dist/cluster/cluster&#45;logger.js&#45;&gt;dist/cluster/cluster.constants.js -->
<g id="edge1" class="edge">
<title>dist/cluster/cluster&#45;logger.js&#45;&gt;dist/cluster/cluster.constants.js</title>
<path fill="none" stroke="#757575" d="M1298.28,-737C1306.66,-737 1315.22,-737 1323.75,-737"/>
<polygon fill="#757575" stroke="#757575" points="1323.76,-740.5 1333.76,-737 1323.76,-733.5 1323.76,-740.5"/>
</g>
<!-- dist/cluster/cluster&#45;manager.js -->
<g id="node3" class="node">
<title>dist/cluster/cluster&#45;manager.js</title>
<path fill="none" stroke="#c6c5fe" d="M1046.33,-574.5C1046.33,-574.5 865.67,-574.5 865.67,-574.5 861.83,-574.5 858,-570.67 858,-566.83 858,-566.83 858,-559.17 858,-559.17 858,-555.33 861.83,-551.5 865.67,-551.5 865.67,-551.5 1046.33,-551.5 1046.33,-551.5 1050.17,-551.5 1054,-555.33 1054,-559.17 1054,-559.17 1054,-566.83 1054,-566.83 1054,-570.67 1050.17,-574.5 1046.33,-574.5"/>
<text text-anchor="middle" x="956" y="-559.3" font-family="Arial" font-size="14.00" fill="#c6c5fe">dist/cluster/cluster&#45;manager.js</text>
</g>
<!-- dist/cluster/cluster&#45;manager.js&#45;&gt;dist/cluster/cluster.constants.js -->
<g id="edge2" class="edge">
<title>dist/cluster/cluster&#45;manager.js&#45;&gt;dist/cluster/cluster.constants.js</title>
<path fill="none" stroke="#757575" d="M1043.94,-574.52C1114.62,-586.01 1215.74,-607.35 1298,-644 1341.8,-663.51 1386.35,-697.76 1411.6,-718.81"/>
<polygon fill="#757575" stroke="#757575" points="1409.5,-721.61 1419.39,-725.4 1414.02,-716.27 1409.5,-721.61"/>
</g>
<!-- dist/messages/index.js -->
<g id="node4" class="node">
<title>dist/messages/index.js</title>
<path fill="none" stroke="#cfffac" d="M1277.33,-398.5C1277.33,-398.5 1139.67,-398.5 1139.67,-398.5 1135.83,-398.5 1132,-394.67 1132,-390.83 1132,-390.83 1132,-383.17 1132,-383.17 1132,-379.33 1135.83,-375.5 1139.67,-375.5 1139.67,-375.5 1277.33,-375.5 1277.33,-375.5 1281.17,-375.5 1285,-379.33 1285,-383.17 1285,-383.17 1285,-390.83 1285,-390.83 1285,-394.67 1281.17,-398.5 1277.33,-398.5"/>
<text text-anchor="middle" x="1208.5" y="-383.3" font-family="Arial" font-size="14.00" fill="#cfffac">dist/messages/index.js</text>
</g>
<!-- dist/cluster/cluster&#45;manager.js&#45;&gt;dist/messages/index.js -->
<g id="edge3" class="edge">
<title>dist/cluster/cluster&#45;manager.js&#45;&gt;dist/messages/index.js</title>
<path fill="none" stroke="#757575" d="M972.95,-551.17C1001.84,-529.83 1064.85,-483.59 1119,-446 1139.67,-431.65 1163.41,-415.87 1181.09,-404.23"/>
<polygon fill="#757575" stroke="#757575" points="1183.3,-406.97 1189.74,-398.56 1179.46,-401.12 1183.3,-406.97"/>
</g>
<!-- dist/utils/index.js -->
<g id="node5" class="node">
<title>dist/utils/index.js</title>
<path fill="none" stroke="#cfffac" d="M1258.33,-478.5C1258.33,-478.5 1158.67,-478.5 1158.67,-478.5 1154.83,-478.5 1151,-474.67 1151,-470.83 1151,-470.83 1151,-463.17 1151,-463.17 1151,-459.33 1154.83,-455.5 1158.67,-455.5 1158.67,-455.5 1258.33,-455.5 1258.33,-455.5 1262.17,-455.5 1266,-459.33 1266,-463.17 1266,-463.17 1266,-470.83 1266,-470.83 1266,-474.67 1262.17,-478.5 1258.33,-478.5"/>
<text text-anchor="middle" x="1208.5" y="-463.3" font-family="Arial" font-size="14.00" fill="#cfffac">dist/utils/index.js</text>
</g>
<!-- dist/cluster/cluster&#45;manager.js&#45;&gt;dist/utils/index.js -->
<g id="edge4" class="edge">
<title>dist/cluster/cluster&#45;manager.js&#45;&gt;dist/utils/index.js</title>
<path fill="none" stroke="#757575" d="M991.97,-551.41C1017.37,-542.85 1052.49,-530.69 1083,-519 1113.13,-507.46 1146.87,-493.29 1171.62,-482.65"/>
<polygon fill="#757575" stroke="#757575" points="1173.17,-485.8 1180.97,-478.62 1170.4,-479.37 1173.17,-485.8"/>
</g>
<!-- dist/cluster/cluster.module.js -->
<g id="node6" class="node">
<title>dist/cluster/cluster.module.js</title>
<path fill="none" stroke="#c6c5fe" d="M301.33,-631.5C301.33,-631.5 130.67,-631.5 130.67,-631.5 126.83,-631.5 123,-627.67 123,-623.83 123,-623.83 123,-616.17 123,-616.17 123,-612.33 126.83,-608.5 130.67,-608.5 130.67,-608.5 301.33,-608.5 301.33,-608.5 305.17,-608.5 309,-612.33 309,-616.17 309,-616.17 309,-623.83 309,-623.83 309,-627.67 305.17,-631.5 301.33,-631.5"/>
<text text-anchor="middle" x="216" y="-616.3" font-family="Arial" font-size="14.00" fill="#c6c5fe">dist/cluster/cluster.module.js</text>
</g>
<!-- dist/cluster/cluster.module.js&#45;&gt;dist/cluster/cluster&#45;logger.js -->
<g id="edge5" class="edge">
<title>dist/cluster/cluster.module.js&#45;&gt;dist/cluster/cluster&#45;logger.js</title>
<path fill="none" stroke="#757575" d="M228.91,-631.64C250.26,-651.79 297.3,-693.03 345,-714 622.2,-835.86 999.42,-779.61 1145.86,-750.55"/>
<polygon fill="#757575" stroke="#757575" points="1146.89,-753.92 1156,-748.51 1145.5,-747.05 1146.89,-753.92"/>
</g>
<!-- dist/cluster/cluster.module.js&#45;&gt;dist/cluster/cluster.constants.js -->
<g id="edge7" class="edge">
<title>dist/cluster/cluster.module.js&#45;&gt;dist/cluster/cluster.constants.js</title>
<path fill="none" stroke="#757575" d="M224.28,-631.74C241.56,-658.49 287.91,-724.09 345,-755 479.88,-828.04 531.12,-817 684.5,-817 684.5,-817 684.5,-817 957,-817 1109.76,-817 1148.2,-803.89 1298,-774 1327.67,-768.08 1360.41,-759.13 1386.16,-751.51"/>
<polygon fill="#757575" stroke="#757575" points="1387.44,-754.78 1396.02,-748.56 1385.43,-748.07 1387.44,-754.78"/>
</g>
<!-- dist/cluster/cluster.module.js&#45;&gt;dist/cluster/cluster&#45;manager.js -->
<g id="edge6" class="edge">
<title>dist/cluster/cluster.module.js&#45;&gt;dist/cluster/cluster&#45;manager.js</title>
<path fill="none" stroke="#757575" d="M309.35,-612.87C446.26,-602.29 702.5,-582.5 847.61,-571.29"/>
<polygon fill="#757575" stroke="#757575" points="848.16,-574.76 857.86,-570.5 847.62,-567.78 848.16,-574.76"/>
</g>
<!-- dist/cluster/cluster.module.js&#45;&gt;dist/messages/index.js -->
<g id="edge10" class="edge">
<title>dist/cluster/cluster.module.js&#45;&gt;dist/messages/index.js</title>
<path fill="none" stroke="#757575" d="M222.28,-608.33C241.09,-567.27 305.82,-430.49 345,-404 431.8,-345.3 473.52,-376.02 578,-368 772.05,-353.1 1000.58,-368.1 1121.83,-378.63"/>
<polygon fill="#757575" stroke="#757575" points="1121.53,-382.12 1131.8,-379.51 1122.14,-375.15 1121.53,-382.12"/>
</g>
<!-- dist/cluster/cluster.module.js&#45;&gt;dist/utils/index.js -->
<g id="edge11" class="edge">
<title>dist/cluster/cluster.module.js&#45;&gt;dist/utils/index.js</title>
<path fill="none" stroke="#757575" d="M265.76,-608.47C289.58,-603.07 318.7,-596.78 345,-592 640.12,-538.41 995.38,-492.86 1140.67,-475.03"/>
<polygon fill="#757575" stroke="#757575" points="1141.26,-478.49 1150.76,-473.8 1140.41,-471.54 1141.26,-478.49"/>
</g>
<!-- dist/cluster/cluster.providers.js -->
<g id="node7" class="node">
<title>dist/cluster/cluster.providers.js</title>
<path fill="none" stroke="#c6c5fe" d="M534.33,-670.5C534.33,-670.5 352.67,-670.5 352.67,-670.5 348.83,-670.5 345,-666.67 345,-662.83 345,-662.83 345,-655.17 345,-655.17 345,-651.33 348.83,-647.5 352.67,-647.5 352.67,-647.5 534.33,-647.5 534.33,-647.5 538.17,-647.5 542,-651.33 542,-655.17 542,-655.17 542,-662.83 542,-662.83 542,-666.67 538.17,-670.5 534.33,-670.5"/>
<text text-anchor="middle" x="443.5" y="-655.3" font-family="Arial" font-size="14.00" fill="#c6c5fe">dist/cluster/cluster.providers.js</text>
</g>
<!-- dist/cluster/cluster.module.js&#45;&gt;dist/cluster/cluster.providers.js -->
<g id="edge8" class="edge">
<title>dist/cluster/cluster.module.js&#45;&gt;dist/cluster/cluster.providers.js</title>
<path fill="none" stroke="#757575" d="M283.74,-631.54C309.54,-636 339.21,-641.14 365.87,-645.75"/>
<polygon fill="#757575" stroke="#757575" points="365.48,-649.23 375.93,-647.49 366.67,-642.33 365.48,-649.23"/>
</g>
<!-- dist/cluster/common/index.js -->
<g id="node8" class="node">
<title>dist/cluster/common/index.js</title>
<path fill="none" stroke="#c6c5fe" d="M771.83,-750.5C771.83,-750.5 599.17,-750.5 599.17,-750.5 595.33,-750.5 591.5,-746.67 591.5,-742.83 591.5,-742.83 591.5,-735.17 591.5,-735.17 591.5,-731.33 595.33,-727.5 599.17,-727.5 599.17,-727.5 771.83,-727.5 771.83,-727.5 775.67,-727.5 779.5,-731.33 779.5,-735.17 779.5,-735.17 779.5,-742.83 779.5,-742.83 779.5,-746.67 775.67,-750.5 771.83,-750.5"/>
<text text-anchor="middle" x="685.5" y="-735.3" font-family="Arial" font-size="14.00" fill="#c6c5fe">dist/cluster/common/index.js</text>
</g>
<!-- dist/cluster/cluster.module.js&#45;&gt;dist/cluster/common/index.js -->
<g id="edge9" class="edge">
<title>dist/cluster/cluster.module.js&#45;&gt;dist/cluster/common/index.js</title>
<path fill="none" stroke="#757575" d="M237.16,-631.52C261.82,-645.12 305.21,-667.46 345,-680 422.34,-704.37 512.95,-719.47 581.11,-728.29"/>
<polygon fill="#757575" stroke="#757575" points="581.06,-731.81 591.42,-729.6 581.94,-724.87 581.06,-731.81"/>
</g>
<!-- dist/cluster/cluster.providers.js&#45;&gt;dist/cluster/cluster.constants.js -->
<g id="edge13" class="edge">
<title>dist/cluster/cluster.providers.js&#45;&gt;dist/cluster/cluster.constants.js</title>
<path fill="none" stroke="#757575" d="M511.62,-670.54C537.95,-674.87 564.96,-678.98 578,-680 673.26,-687.45 697.48,-682.65 793,-680 809.02,-679.56 812.98,-678.44 829,-678 941.85,-674.87 970.26,-672.25 1083,-678 1178.93,-682.9 1203.59,-682.31 1298,-700 1328.05,-705.63 1361.17,-714.71 1387.03,-722.46"/>
<polygon fill="#757575" stroke="#757575" points="1386.33,-725.9 1396.91,-725.46 1388.36,-719.21 1386.33,-725.9"/>
</g>
<!-- dist/cluster/cluster.providers.js&#45;&gt;dist/cluster/cluster&#45;manager.js -->
<g id="edge12" class="edge">
<title>dist/cluster/cluster.providers.js&#45;&gt;dist/cluster/cluster&#45;manager.js</title>
<path fill="none" stroke="#757575" d="M508.78,-647.46C578.75,-634.84 693.9,-613.89 793,-595 824.11,-589.07 858.54,-582.3 887.63,-576.52"/>
<polygon fill="#757575" stroke="#757575" points="888.56,-579.9 897.68,-574.52 887.19,-573.04 888.56,-579.9"/>
</g>
<!-- dist/cluster/cluster.providers.js&#45;&gt;dist/cluster/common/index.js -->
<g id="edge14" class="edge">
<title>dist/cluster/cluster.providers.js&#45;&gt;dist/cluster/common/index.js</title>
<path fill="none" stroke="#757575" d="M497.1,-670.52C512.01,-674.74 527.98,-680.18 542,-687 559.75,-695.63 560.08,-704.73 578,-713 588.09,-717.66 599.12,-721.54 610.13,-724.77"/>
<polygon fill="#757575" stroke="#757575" points="609.21,-728.14 619.78,-727.43 611.08,-721.4 609.21,-728.14"/>
</g>
<!-- dist/cluster/default&#45;options.js -->
<g id="node9" class="node">
<title>dist/cluster/default&#45;options.js</title>
<path fill="none" stroke="#cfffac" d="M771.33,-670.5C771.33,-670.5 599.67,-670.5 599.67,-670.5 595.83,-670.5 592,-666.67 592,-662.83 592,-662.83 592,-655.17 592,-655.17 592,-651.33 595.83,-647.5 599.67,-647.5 599.67,-647.5 771.33,-647.5 771.33,-647.5 775.17,-647.5 779,-651.33 779,-655.17 779,-655.17 779,-662.83 779,-662.83 779,-666.67 775.17,-670.5 771.33,-670.5"/>
<text text-anchor="middle" x="685.5" y="-655.3" font-family="Arial" font-size="14.00" fill="#cfffac">dist/cluster/default&#45;options.js</text>
</g>
<!-- dist/cluster/cluster.providers.js&#45;&gt;dist/cluster/default&#45;options.js -->
<g id="edge15" class="edge">
<title>dist/cluster/cluster.providers.js&#45;&gt;dist/cluster/default&#45;options.js</title>
<path fill="none" stroke="#757575" d="M542.12,-659C555.02,-659 568.28,-659 581.27,-659"/>
<polygon fill="#757575" stroke="#757575" points="581.62,-662.5 591.62,-659 581.62,-655.5 581.62,-662.5"/>
</g>
<!-- dist/cluster/common/cluster.decorator.js -->
<g id="node10" class="node">
<title>dist/cluster/common/cluster.decorator.js</title>
<path fill="none" stroke="#c6c5fe" d="M1075.33,-750.5C1075.33,-750.5 836.67,-750.5 836.67,-750.5 832.83,-750.5 829,-746.67 829,-742.83 829,-742.83 829,-735.17 829,-735.17 829,-731.33 832.83,-727.5 836.67,-727.5 836.67,-727.5 1075.33,-727.5 1075.33,-727.5 1079.17,-727.5 1083,-731.33 1083,-735.17 1083,-735.17 1083,-742.83 1083,-742.83 1083,-746.67 1079.17,-750.5 1075.33,-750.5"/>
<text text-anchor="middle" x="956" y="-735.3" font-family="Arial" font-size="14.00" fill="#c6c5fe">dist/cluster/common/cluster.decorator.js</text>
</g>
<!-- dist/cluster/common/index.js&#45;&gt;dist/cluster/common/cluster.decorator.js -->
<g id="edge22" class="edge">
<title>dist/cluster/common/index.js&#45;&gt;dist/cluster/common/cluster.decorator.js</title>
<path fill="none" stroke="#757575" d="M779.65,-739C792.33,-739 805.54,-739 818.78,-739"/>
<polygon fill="#757575" stroke="#757575" points="818.9,-742.5 828.9,-739 818.9,-735.5 818.9,-742.5"/>
</g>
<!-- dist/cluster/common/cluster.utils.js -->
<g id="node11" class="node">
<title>dist/cluster/common/cluster.utils.js</title>
<path fill="none" stroke="#c6c5fe" d="M1059.33,-709.5C1059.33,-709.5 852.67,-709.5 852.67,-709.5 848.83,-709.5 845,-705.67 845,-701.83 845,-701.83 845,-694.17 845,-694.17 845,-690.33 848.83,-686.5 852.67,-686.5 852.67,-686.5 1059.33,-686.5 1059.33,-686.5 1063.17,-686.5 1067,-690.33 1067,-694.17 1067,-694.17 1067,-701.83 1067,-701.83 1067,-705.67 1063.17,-709.5 1059.33,-709.5"/>
<text text-anchor="middle" x="956" y="-694.3" font-family="Arial" font-size="14.00" fill="#c6c5fe">dist/cluster/common/cluster.utils.js</text>
</g>
<!-- dist/cluster/common/index.js&#45;&gt;dist/cluster/common/cluster.utils.js -->
<g id="edge23" class="edge">
<title>dist/cluster/common/index.js&#45;&gt;dist/cluster/common/cluster.utils.js</title>
<path fill="none" stroke="#757575" d="M762.01,-727.47C795.46,-722.36 834.99,-716.33 869.52,-711.05"/>
<polygon fill="#757575" stroke="#757575" points="870.24,-714.48 879.6,-709.51 869.18,-707.56 870.24,-714.48"/>
</g>
<!-- dist/cluster/common/cluster.decorator.js&#45;&gt;dist/cluster/cluster.constants.js -->
<g id="edge16" class="edge">
<title>dist/cluster/common/cluster.decorator.js&#45;&gt;dist/cluster/cluster.constants.js</title>
<path fill="none" stroke="#757575" d="M1039.25,-750.53C1064.75,-753.6 1092.99,-756.48 1119,-758 1198.42,-762.64 1218.68,-764.15 1298,-758 1318.86,-756.38 1341.37,-753.37 1361.9,-750.13"/>
<polygon fill="#757575" stroke="#757575" points="1362.5,-753.58 1371.81,-748.52 1361.37,-746.67 1362.5,-753.58"/>
</g>
<!-- dist/cluster/common/cluster.decorator.js&#45;&gt;dist/utils/index.js -->
<g id="edge17" class="edge">
<title>dist/cluster/common/cluster.decorator.js&#45;&gt;dist/utils/index.js</title>
<path fill="none" stroke="#757575" d="M1069.04,-727.41C1073.94,-725 1078.63,-722.22 1083,-719 1162.09,-660.76 1193.78,-538.32 1203.71,-488.64"/>
<polygon fill="#757575" stroke="#757575" points="1207.17,-489.15 1205.6,-478.67 1200.3,-487.85 1207.17,-489.15"/>
</g>
<!-- dist/cluster/common/cluster.utils.js&#45;&gt;dist/cluster/cluster&#45;logger.js -->
<g id="edge18" class="edge">
<title>dist/cluster/common/cluster.utils.js&#45;&gt;dist/cluster/cluster&#45;logger.js</title>
<path fill="none" stroke="#757575" d="M1031.14,-709.54C1060.18,-714.06 1093.63,-719.27 1123.55,-723.93"/>
<polygon fill="#757575" stroke="#757575" points="1123.13,-727.41 1133.55,-725.49 1124.21,-720.49 1123.13,-727.41"/>
</g>
<!-- dist/cluster/common/cluster.utils.js&#45;&gt;dist/cluster/cluster.constants.js -->
<g id="edge19" class="edge">
<title>dist/cluster/common/cluster.utils.js&#45;&gt;dist/cluster/cluster.constants.js</title>
<path fill="none" stroke="#757575" d="M1067,-701.56C1133.91,-704.36 1221.02,-709.15 1298,-717 1315.93,-718.83 1335.14,-721.35 1353.25,-723.98"/>
<polygon fill="#757575" stroke="#757575" points="1352.79,-727.45 1363.19,-725.45 1353.81,-720.52 1352.79,-727.45"/>
</g>
<!-- dist/cluster/common/cluster.utils.js&#45;&gt;dist/messages/index.js -->
<g id="edge20" class="edge">
<title>dist/cluster/common/cluster.utils.js&#45;&gt;dist/messages/index.js</title>
<path fill="none" stroke="#757575" d="M975.51,-686.29C1003.19,-667.79 1055.1,-629.12 1083,-583 1115.58,-529.13 1082.43,-497.24 1119,-446 1132.15,-427.57 1153.01,-413.26 1171.18,-403.35"/>
<polygon fill="#757575" stroke="#757575" points="1173.11,-406.29 1180.37,-398.57 1169.89,-400.07 1173.11,-406.29"/>
</g>
<!-- dist/cluster/common/cluster.utils.js&#45;&gt;dist/utils/index.js -->
<g id="edge21" class="edge">
<title>dist/cluster/common/cluster.utils.js&#45;&gt;dist/utils/index.js</title>
<path fill="none" stroke="#757575" d="M969.92,-686.29C992.78,-665.54 1041.85,-620.95 1083,-583 1120.07,-548.81 1163.06,-508.64 1187.59,-485.67"/>
<polygon fill="#757575" stroke="#757575" points="1190.26,-487.96 1195.17,-478.57 1185.48,-482.85 1190.26,-487.96"/>
</g>
<!-- dist/health/index.js -->
<g id="node12" class="node">
<title>dist/health/index.js</title>
<path fill="none" stroke="#c6c5fe" d="M499.83,-436.5C499.83,-436.5 387.17,-436.5 387.17,-436.5 383.33,-436.5 379.5,-432.67 379.5,-428.83 379.5,-428.83 379.5,-421.17 379.5,-421.17 379.5,-417.33 383.33,-413.5 387.17,-413.5 387.17,-413.5 499.83,-413.5 499.83,-413.5 503.67,-413.5 507.5,-417.33 507.5,-421.17 507.5,-421.17 507.5,-428.83 507.5,-428.83 507.5,-432.67 503.67,-436.5 499.83,-436.5"/>
<text text-anchor="middle" x="443.5" y="-421.3" font-family="Arial" font-size="14.00" fill="#c6c5fe">dist/health/index.js</text>
</g>
<!-- dist/health/indicators/redis.health.js -->
<g id="node13" class="node">
<title>dist/health/indicators/redis.health.js</title>
<path fill="none" stroke="#c6c5fe" d="M1061.83,-438.5C1061.83,-438.5 850.17,-438.5 850.17,-438.5 846.33,-438.5 842.5,-434.67 842.5,-430.83 842.5,-430.83 842.5,-423.17 842.5,-423.17 842.5,-419.33 846.33,-415.5 850.17,-415.5 850.17,-415.5 1061.83,-415.5 1061.83,-415.5 1065.67,-415.5 1069.5,-419.33 1069.5,-423.17 1069.5,-423.17 1069.5,-430.83 1069.5,-430.83 1069.5,-434.67 1065.67,-438.5 1061.83,-438.5"/>
<text text-anchor="middle" x="956" y="-423.3" font-family="Arial" font-size="14.00" fill="#c6c5fe">dist/health/indicators/redis.health.js</text>
</g>
<!-- dist/health/index.js&#45;&gt;dist/health/indicators/redis.health.js -->
<g id="edge24" class="edge">
<title>dist/health/index.js&#45;&gt;dist/health/indicators/redis.health.js</title>
<path fill="none" stroke="#757575" d="M507.61,-425.25C588.29,-425.56 729.75,-426.12 832.04,-426.52"/>
<polygon fill="#757575" stroke="#757575" points="832.11,-430.02 842.13,-426.56 832.14,-423.02 832.11,-430.02"/>
</g>
<!-- dist/health/redis&#45;health.module.js -->
<g id="node14" class="node">
<title>dist/health/redis&#45;health.module.js</title>
<path fill="none" stroke="#c6c5fe" d="M785.33,-400.5C785.33,-400.5 585.67,-400.5 585.67,-400.5 581.83,-400.5 578,-396.67 578,-392.83 578,-392.83 578,-385.17 578,-385.17 578,-381.33 581.83,-377.5 585.67,-377.5 585.67,-377.5 785.33,-377.5 785.33,-377.5 789.17,-377.5 793,-381.33 793,-385.17 793,-385.17 793,-392.83 793,-392.83 793,-396.67 789.17,-400.5 785.33,-400.5"/>
<text text-anchor="middle" x="685.5" y="-385.3" font-family="Arial" font-size="14.00" fill="#c6c5fe">dist/health/redis&#45;health.module.js</text>
</g>
<!-- dist/health/index.js&#45;&gt;dist/health/redis&#45;health.module.js -->
<g id="edge25" class="edge">
<title>dist/health/index.js&#45;&gt;dist/health/redis&#45;health.module.js</title>
<path fill="none" stroke="#757575" d="M507.56,-415.54C535.13,-411.41 567.93,-406.49 597.75,-402.01"/>
<polygon fill="#757575" stroke="#757575" points="598.37,-405.46 607.74,-400.51 597.33,-398.54 598.37,-405.46"/>
</g>
<!-- dist/health/indicators/redis.health.js&#45;&gt;dist/messages/index.js -->
<g id="edge26" class="edge">
<title>dist/health/indicators/redis.health.js&#45;&gt;dist/messages/index.js</title>
<path fill="none" stroke="#757575" d="M1029.12,-415.48C1059.25,-410.67 1094.41,-405.06 1125.51,-400.09"/>
<polygon fill="#757575" stroke="#757575" points="1126.13,-403.54 1135.46,-398.5 1125.03,-396.62 1126.13,-403.54"/>
</g>
<!-- dist/health/indicators/redis.health.js&#45;&gt;dist/utils/index.js -->
<g id="edge27" class="edge">
<title>dist/health/indicators/redis.health.js&#45;&gt;dist/utils/index.js</title>
<path fill="none" stroke="#757575" d="M1029.12,-438.52C1064.37,-444.15 1106.52,-450.88 1141,-456.38"/>
<polygon fill="#757575" stroke="#757575" points="1140.54,-459.85 1150.97,-457.97 1141.65,-452.94 1140.54,-459.85"/>
</g>
<!-- dist/health/redis&#45;health.module.js&#45;&gt;dist/health/indicators/redis.health.js -->
<g id="edge28" class="edge">
<title>dist/health/redis&#45;health.module.js&#45;&gt;dist/health/indicators/redis.health.js</title>
<path fill="none" stroke="#757575" d="M767.79,-400.5C798.01,-404.78 832.5,-409.66 863.57,-414.06"/>
<polygon fill="#757575" stroke="#757575" points="863.13,-417.53 873.53,-415.47 864.11,-410.6 863.13,-417.53"/>
</g>
<!-- dist/index.js -->
<g id="node15" class="node">
<title>dist/index.js</title>
<path fill="none" stroke="#c6c5fe" d="M79.33,-436.5C79.33,-436.5 7.67,-436.5 7.67,-436.5 3.83,-436.5 0,-432.67 0,-428.83 0,-428.83 0,-421.17 0,-421.17 0,-417.33 3.83,-413.5 7.67,-413.5 7.67,-413.5 79.33,-413.5 79.33,-413.5 83.17,-413.5 87,-417.33 87,-421.17 87,-421.17 87,-428.83 87,-428.83 87,-432.67 83.17,-436.5 79.33,-436.5"/>
<text text-anchor="middle" x="43.5" y="-421.3" font-family="Arial" font-size="14.00" fill="#c6c5fe">dist/index.js</text>
</g>
<!-- dist/index.js&#45;&gt;dist/cluster/cluster.constants.js -->
<g id="edge30" class="edge">
<title>dist/index.js&#45;&gt;dist/cluster/cluster.constants.js</title>
<path fill="none" stroke="#757575" d="M44.57,-436.51C45.39,-477.48 53.41,-618.27 123,-701 224.48,-821.63 284.87,-855 442.5,-855 442.5,-855 442.5,-855 957,-855 1110.24,-855 1151.85,-850.06 1298,-804 1336.95,-791.72 1378.56,-769.41 1405.01,-753.92"/>
<polygon fill="#757575" stroke="#757575" points="1406.89,-756.87 1413.7,-748.76 1403.32,-750.86 1406.89,-756.87"/>
</g>
<!-- dist/index.js&#45;&gt;dist/cluster/cluster&#45;manager.js -->
<g id="edge29" class="edge">
<title>dist/index.js&#45;&gt;dist/cluster/cluster&#45;manager.js</title>
<path fill="none" stroke="#757575" d="M87.12,-436.59C98.71,-439.54 111.3,-442.57 123,-445 220.86,-465.36 246.13,-466.34 345,-481 523.63,-507.49 732.25,-534.74 853.42,-550.2"/>
<polygon fill="#757575" stroke="#757575" points="853.07,-553.69 863.43,-551.48 853.95,-546.74 853.07,-553.69"/>
</g>
<!-- dist/index.js&#45;&gt;dist/cluster/cluster.module.js -->
<g id="edge31" class="edge">
<title>dist/index.js&#45;&gt;dist/cluster/cluster.module.js</title>
<path fill="none" stroke="#757575" d="M54.01,-436.71C68.62,-454.63 97.56,-489.84 123,-519 148.21,-547.91 178.29,-580.6 197.02,-600.75"/>
<polygon fill="#757575" stroke="#757575" points="194.69,-603.4 204.07,-608.33 199.82,-598.63 194.69,-603.4"/>
</g>
<!-- dist/index.js&#45;&gt;dist/cluster/common/index.js -->
<g id="edge32" class="edge">
<title>dist/index.js&#45;&gt;dist/cluster/common/index.js</title>
<path fill="none" stroke="#757575" d="M45.28,-436.73C48.29,-472.63 62.27,-582.12 123,-641 248.94,-763.11 469.7,-763.1 593.57,-751.54"/>
<polygon fill="#757575" stroke="#757575" points="594.17,-755 603.79,-750.54 593.49,-748.03 594.17,-755"/>
</g>
<!-- dist/redis/common/index.js -->
<g id="node16" class="node">
<title>dist/redis/common/index.js</title>
<path fill="none" stroke="#c6c5fe" d="M766.33,-199.5C766.33,-199.5 604.67,-199.5 604.67,-199.5 600.83,-199.5 597,-195.67 597,-191.83 597,-191.83 597,-184.17 597,-184.17 597,-180.33 600.83,-176.5 604.67,-176.5 604.67,-176.5 766.33,-176.5 766.33,-176.5 770.17,-176.5 774,-180.33 774,-184.17 774,-184.17 774,-191.83 774,-191.83 774,-195.67 770.17,-199.5 766.33,-199.5"/>
<text text-anchor="middle" x="685.5" y="-184.3" font-family="Arial" font-size="14.00" fill="#c6c5fe">dist/redis/common/index.js</text>
</g>
<!-- dist/index.js&#45;&gt;dist/redis/common/index.js -->
<g id="edge33" class="edge">
<title>dist/index.js&#45;&gt;dist/redis/common/index.js</title>
<path fill="none" stroke="#757575" d="M45.38,-413.47C48.63,-379.24 63.16,-277.54 123,-228 271.59,-104.99 524.85,-147.89 633.04,-173.98"/>
<polygon fill="#757575" stroke="#757575" points="632.5,-177.46 643.05,-176.45 634.17,-170.66 632.5,-177.46"/>
</g>
<!-- dist/redis/redis&#45;manager.js -->
<g id="node17" class="node">
<title>dist/redis/redis&#45;manager.js</title>
<path fill="none" stroke="#c6c5fe" d="M765.33,-320.5C765.33,-320.5 605.67,-320.5 605.67,-320.5 601.83,-320.5 598,-316.67 598,-312.83 598,-312.83 598,-305.17 598,-305.17 598,-301.33 601.83,-297.5 605.67,-297.5 605.67,-297.5 765.33,-297.5 765.33,-297.5 769.17,-297.5 773,-301.33 773,-305.17 773,-305.17 773,-312.83 773,-312.83 773,-316.67 769.17,-320.5 765.33,-320.5"/>
<text text-anchor="middle" x="685.5" y="-305.3" font-family="Arial" font-size="14.00" fill="#c6c5fe">dist/redis/redis&#45;manager.js</text>
</g>
<!-- dist/index.js&#45;&gt;dist/redis/redis&#45;manager.js -->
<g id="edge34" class="edge">
<title>dist/index.js&#45;&gt;dist/redis/redis&#45;manager.js</title>
<path fill="none" stroke="#757575" d="M84.66,-413.48C96.91,-410.18 110.46,-406.73 123,-404 286.7,-368.34 479.72,-338.26 591.51,-322"/>
<polygon fill="#757575" stroke="#757575" points="592.34,-325.42 601.73,-320.52 591.34,-318.49 592.34,-325.42"/>
</g>
<!-- dist/redis/redis.constants.js -->
<g id="node18" class="node">
<title>dist/redis/redis.constants.js</title>
<path fill="none" stroke="#cfffac" d="M1515.33,-130.5C1515.33,-130.5 1351.67,-130.5 1351.67,-130.5 1347.83,-130.5 1344,-126.67 1344,-122.83 1344,-122.83 1344,-115.17 1344,-115.17 1344,-111.33 1347.83,-107.5 1351.67,-107.5 1351.67,-107.5 1515.33,-107.5 1515.33,-107.5 1519.17,-107.5 1523,-111.33 1523,-115.17 1523,-115.17 1523,-122.83 1523,-122.83 1523,-126.67 1519.17,-130.5 1515.33,-130.5"/>
<text text-anchor="middle" x="1433.5" y="-115.3" font-family="Arial" font-size="14.00" fill="#cfffac">dist/redis/redis.constants.js</text>
</g>
<!-- dist/index.js&#45;&gt;dist/redis/redis.constants.js -->
<g id="edge35" class="edge">
<title>dist/index.js&#45;&gt;dist/redis/redis.constants.js</title>
<path fill="none" stroke="#757575" d="M44.51,-413.42C45.14,-372.17 52.58,-230.5 123,-148 224.6,-28.97 286,0 442.5,0 442.5,0 442.5,0 957,0 1110.05,0 1152.38,-0.91 1298,-48 1338,-60.94 1380.28,-85.25 1406.52,-101.78"/>
<polygon fill="#757575" stroke="#757575" points="1404.79,-104.83 1415.1,-107.27 1408.57,-98.93 1404.79,-104.83"/>
</g>
<!-- dist/redis/redis.module.js -->
<g id="node19" class="node">
<title>dist/redis/redis.module.js</title>
<path fill="none" stroke="#c6c5fe" d="M291.33,-260.5C291.33,-260.5 140.67,-260.5 140.67,-260.5 136.83,-260.5 133,-256.67 133,-252.83 133,-252.83 133,-245.17 133,-245.17 133,-241.33 136.83,-237.5 140.67,-237.5 140.67,-237.5 291.33,-237.5 291.33,-237.5 295.17,-237.5 299,-241.33 299,-245.17 299,-245.17 299,-252.83 299,-252.83 299,-256.67 295.17,-260.5 291.33,-260.5"/>
<text text-anchor="middle" x="216" y="-245.3" font-family="Arial" font-size="14.00" fill="#c6c5fe">dist/redis/redis.module.js</text>
</g>
<!-- dist/index.js&#45;&gt;dist/redis/redis.module.js -->
<g id="edge36" class="edge">
<title>dist/index.js&#45;&gt;dist/redis/redis.module.js</title>
<path fill="none" stroke="#757575" d="M53.41,-413.25C67.45,-394.98 95.93,-358.95 123,-331 145.56,-307.7 173.66,-283.25 192.82,-267.17"/>
<polygon fill="#757575" stroke="#757575" points="195.25,-269.7 200.7,-260.62 190.78,-264.32 195.25,-269.7"/>
</g>
<!-- dist/redis/common/redis.decorator.js -->
<g id="node20" class="node">
<title>dist/redis/common/redis.decorator.js</title>
<path fill="none" stroke="#c6c5fe" d="M1065.33,-206.5C1065.33,-206.5 846.67,-206.5 846.67,-206.5 842.83,-206.5 839,-202.67 839,-198.83 839,-198.83 839,-191.17 839,-191.17 839,-187.33 842.83,-183.5 846.67,-183.5 846.67,-183.5 1065.33,-183.5 1065.33,-183.5 1069.17,-183.5 1073,-187.33 1073,-191.17 1073,-191.17 1073,-198.83 1073,-198.83 1073,-202.67 1069.17,-206.5 1065.33,-206.5"/>
<text text-anchor="middle" x="956" y="-191.3" font-family="Arial" font-size="14.00" fill="#c6c5fe">dist/redis/common/redis.decorator.js</text>
</g>
<!-- dist/redis/common/index.js&#45;&gt;dist/redis/common/redis.decorator.js -->
<g id="edge37" class="edge">
<title>dist/redis/common/index.js&#45;&gt;dist/redis/common/redis.decorator.js</title>
<path fill="none" stroke="#757575" d="M774.05,-190.28C791.48,-190.74 810.11,-191.22 828.54,-191.7"/>
<polygon fill="#757575" stroke="#757575" points="828.67,-195.21 838.76,-191.97 828.85,-188.21 828.67,-195.21"/>
</g>
<!-- dist/redis/common/redis.utils.js -->
<g id="node21" class="node">
<title>dist/redis/common/redis.utils.js</title>
<path fill="none" stroke="#c6c5fe" d="M1049.33,-165.5C1049.33,-165.5 862.67,-165.5 862.67,-165.5 858.83,-165.5 855,-161.67 855,-157.83 855,-157.83 855,-150.17 855,-150.17 855,-146.33 858.83,-142.5 862.67,-142.5 862.67,-142.5 1049.33,-142.5 1049.33,-142.5 1053.17,-142.5 1057,-146.33 1057,-150.17 1057,-150.17 1057,-157.83 1057,-157.83 1057,-161.67 1053.17,-165.5 1049.33,-165.5"/>
<text text-anchor="middle" x="956" y="-150.3" font-family="Arial" font-size="14.00" fill="#c6c5fe">dist/redis/common/redis.utils.js</text>
</g>
<!-- dist/redis/common/index.js&#45;&gt;dist/redis/common/redis.utils.js -->
<g id="edge38" class="edge">
<title>dist/redis/common/index.js&#45;&gt;dist/redis/common/redis.utils.js</title>
<path fill="none" stroke="#757575" d="M774.05,-176.91C799.56,-173.68 827.64,-170.13 853.91,-166.8"/>
<polygon fill="#757575" stroke="#757575" points="854.4,-170.27 863.88,-165.54 853.52,-163.32 854.4,-170.27"/>
</g>
<!-- dist/redis/redis&#45;manager.js&#45;&gt;dist/messages/index.js -->
<g id="edge46" class="edge">
<title>dist/redis/redis&#45;manager.js&#45;&gt;dist/messages/index.js</title>
<path fill="none" stroke="#757575" d="M773.17,-306.54C854.31,-306.15 978.4,-310.45 1083,-335 1116.22,-342.8 1151.94,-358.56 1176.57,-370.69"/>
<polygon fill="#757575" stroke="#757575" points="1175.25,-373.95 1185.75,-375.31 1178.39,-367.69 1175.25,-373.95"/>
</g>
<!-- dist/redis/redis&#45;manager.js&#45;&gt;dist/utils/index.js -->
<g id="edge48" class="edge">
<title>dist/redis/redis&#45;manager.js&#45;&gt;dist/utils/index.js</title>
<path fill="none" stroke="#757575" d="M751.98,-320.52C831.65,-335.55 969.57,-364.88 1083,-406 1116.91,-418.29 1153.78,-437.1 1178.53,-450.58"/>
<polygon fill="#757575" stroke="#757575" points="1176.94,-453.7 1187.39,-455.46 1180.32,-447.57 1176.94,-453.7"/>
</g>
<!-- dist/redis/redis&#45;manager.js&#45;&gt;dist/redis/redis.constants.js -->
<g id="edge47" class="edge">
<title>dist/redis/redis&#45;manager.js&#45;&gt;dist/redis/redis.constants.js</title>
<path fill="none" stroke="#757575" d="M773.21,-298.88C893.46,-283.22 1116.56,-248.21 1298,-186 1336.41,-172.83 1377.83,-150.91 1404.41,-135.74"/>
<polygon fill="#757575" stroke="#757575" points="1406.25,-138.72 1413.16,-130.69 1402.75,-132.66 1406.25,-138.72"/>
</g>
<!-- dist/redis/redis.module.js&#45;&gt;dist/messages/index.js -->
<g id="edge49" class="edge">
<title>dist/redis/redis.module.js&#45;&gt;dist/messages/index.js</title>
<path fill="none" stroke="#757575" d="M299.18,-248.81C486.38,-249.26 939.38,-255.49 1083,-304 1123.77,-317.77 1163.91,-348.47 1187.16,-368.43"/>
<polygon fill="#757575" stroke="#757575" points="1185.11,-371.28 1194.93,-375.24 1189.72,-366.02 1185.11,-371.28"/>
</g>
<!-- dist/redis/redis.module.js&#45;&gt;dist/utils/index.js -->
<g id="edge55" class="edge">
<title>dist/redis/redis.module.js&#45;&gt;dist/utils/index.js</title>
<path fill="none" stroke="#757575" d="M223.67,-260.51C247.16,-300.9 325.75,-434.26 345,-445 413.68,-483.32 950.12,-473.57 1140.65,-468.83"/>
<polygon fill="#757575" stroke="#757575" points="1140.9,-472.33 1150.81,-468.58 1140.72,-465.33 1140.9,-472.33"/>
</g>
<!-- dist/redis/redis.module.js&#45;&gt;dist/redis/common/index.js -->
<g id="edge50" class="edge">
<title>dist/redis/redis.module.js&#45;&gt;dist/redis/common/index.js</title>
<path fill="none" stroke="#757575" d="M245.95,-237.42C271.55,-227.74 310.13,-214.5 345,-208 425.47,-192.99 518.34,-188.37 586.59,-187.29"/>
<polygon fill="#757575" stroke="#757575" points="586.95,-190.79 596.9,-187.15 586.86,-183.79 586.95,-190.79"/>
</g>
<!-- dist/redis/redis.module.js&#45;&gt;dist/redis/redis&#45;manager.js -->
<g id="edge52" class="edge">
<title>dist/redis/redis.module.js&#45;&gt;dist/redis/redis&#45;manager.js</title>
<path fill="none" stroke="#757575" d="M253.3,-260.55C278.71,-268.16 313.6,-277.67 345,-283 426.07,-296.75 519.28,-303.24 587.5,-306.29"/>
<polygon fill="#757575" stroke="#757575" points="587.66,-309.8 597.81,-306.73 587.97,-302.81 587.66,-309.8"/>
</g>
<!-- dist/redis/redis.module.js&#45;&gt;dist/redis/redis.constants.js -->
<g id="edge53" class="edge">
<title>dist/redis/redis.module.js&#45;&gt;dist/redis/redis.constants.js</title>
<path fill="none" stroke="#757575" d="M227.42,-237.21C247.82,-214.85 295.36,-166.09 345,-139 483.19,-63.59 527.08,-38 684.5,-38 684.5,-38 684.5,-38 957,-38 1114.28,-38 1296.71,-81.6 1382.74,-104.82"/>
<polygon fill="#757575" stroke="#757575" points="1381.93,-108.23 1392.5,-107.48 1383.77,-101.47 1381.93,-108.23"/>
</g>
<!-- dist/redis/redis&#45;logger.js -->
<g id="node22" class="node">
<title>dist/redis/redis&#45;logger.js</title>
<path fill="none" stroke="#c6c5fe" d="M1279.83,-130.5C1279.83,-130.5 1137.17,-130.5 1137.17,-130.5 1133.33,-130.5 1129.5,-126.67 1129.5,-122.83 1129.5,-122.83 1129.5,-115.17 1129.5,-115.17 1129.5,-111.33 1133.33,-107.5 1137.17,-107.5 1137.17,-107.5 1279.83,-107.5 1279.83,-107.5 1283.67,-107.5 1287.5,-111.33 1287.5,-115.17 1287.5,-115.17 1287.5,-122.83 1287.5,-122.83 1287.5,-126.67 1283.67,-130.5 1279.83,-130.5"/>
<text text-anchor="middle" x="1208.5" y="-115.3" font-family="Arial" font-size="14.00" fill="#c6c5fe">dist/redis/redis&#45;logger.js</text>
</g>
<!-- dist/redis/redis.module.js&#45;&gt;dist/redis/redis&#45;logger.js -->
<g id="edge51" class="edge">
<title>dist/redis/redis.module.js&#45;&gt;dist/redis/redis&#45;logger.js</title>
<path fill="none" stroke="#757575" d="M235.22,-237.25C259.29,-222.36 303.52,-197.17 345,-185 618.56,-104.75 960.67,-107.23 1119.25,-113.87"/>
<polygon fill="#757575" stroke="#757575" points="1119.29,-117.37 1129.43,-114.31 1119.59,-110.38 1119.29,-117.37"/>
</g>
<!-- dist/redis/redis.providers.js -->
<g id="node24" class="node">
<title>dist/redis/redis.providers.js</title>
<path fill="none" stroke="#c6c5fe" d="M523.83,-240.5C523.83,-240.5 363.17,-240.5 363.17,-240.5 359.33,-240.5 355.5,-236.67 355.5,-232.83 355.5,-232.83 355.5,-225.17 355.5,-225.17 355.5,-221.33 359.33,-217.5 363.17,-217.5 363.17,-217.5 523.83,-217.5 523.83,-217.5 527.67,-217.5 531.5,-221.33 531.5,-225.17 531.5,-225.17 531.5,-232.83 531.5,-232.83 531.5,-236.67 527.67,-240.5 523.83,-240.5"/>
<text text-anchor="middle" x="443.5" y="-225.3" font-family="Arial" font-size="14.00" fill="#c6c5fe">dist/redis/redis.providers.js</text>
</g>
<!-- dist/redis/redis.module.js&#45;&gt;dist/redis/redis.providers.js -->
<g id="edge54" class="edge">
<title>dist/redis/redis.module.js&#45;&gt;dist/redis/redis.providers.js</title>
<path fill="none" stroke="#757575" d="M299.05,-241.72C314.03,-240.39 329.79,-239 345.16,-237.63"/>
<polygon fill="#757575" stroke="#757575" points="345.54,-241.11 355.19,-236.74 344.92,-234.14 345.54,-241.11"/>
</g>
<!-- dist/redis/common/redis.decorator.js&#45;&gt;dist/utils/index.js -->
<g id="edge40" class="edge">
<title>dist/redis/common/redis.decorator.js&#45;&gt;dist/utils/index.js</title>
<path fill="none" stroke="#757575" d="M969.68,-206.79C993.89,-229.76 1047.46,-282.85 1083,-335 1103.15,-364.56 1095.43,-380.09 1119,-407 1134.62,-424.84 1156.69,-439.81 1174.88,-450.34"/>
<polygon fill="#757575" stroke="#757575" points="1173.55,-453.6 1183.98,-455.43 1176.96,-447.5 1173.55,-453.6"/>
</g>
<!-- dist/redis/common/redis.decorator.js&#45;&gt;dist/redis/redis.constants.js -->
<g id="edge39" class="edge">
<title>dist/redis/common/redis.decorator.js&#45;&gt;dist/redis/redis.constants.js</title>
<path fill="none" stroke="#757575" d="M1073.02,-188.07C1139.36,-182.78 1223.86,-173.81 1298,-159 1329.35,-152.74 1363.91,-142.38 1390.14,-133.78"/>
<polygon fill="#757575" stroke="#757575" points="1391.38,-137.06 1399.76,-130.58 1389.17,-130.41 1391.38,-137.06"/>
</g>
<!-- dist/redis/common/redis.utils.js&#45;&gt;dist/messages/index.js -->
<g id="edge41" class="edge">
<title>dist/redis/common/redis.utils.js&#45;&gt;dist/messages/index.js</title>
<path fill="none" stroke="#757575" d="M1057.2,-161.33C1066.36,-164.49 1075.14,-168.63 1083,-174 1152.58,-221.56 1188.75,-321.85 1201.77,-365.71"/>
<polygon fill="#757575" stroke="#757575" points="1198.41,-366.69 1204.52,-375.35 1205.14,-364.77 1198.41,-366.69"/>
</g>
<!-- dist/redis/common/redis.utils.js&#45;&gt;dist/utils/index.js -->
<g id="edge44" class="edge">
<title>dist/redis/common/redis.utils.js&#45;&gt;dist/utils/index.js</title>
<path fill="none" stroke="#757575" d="M1057.13,-157.48C1066.76,-161.28 1075.65,-166.62 1083,-174 1156.94,-248.25 1062.97,-318.45 1119,-407 1131.14,-426.19 1151.89,-440.74 1170.24,-450.7"/>
<polygon fill="#757575" stroke="#757575" points="1168.8,-453.89 1179.29,-455.36 1172,-447.67 1168.8,-453.89"/>
</g>
<!-- dist/redis/common/redis.utils.js&#45;&gt;dist/redis/redis.constants.js -->
<g id="edge43" class="edge">
<title>dist/redis/common/redis.utils.js&#45;&gt;dist/redis/redis.constants.js</title>
<path fill="none" stroke="#757575" d="M1057.16,-152.32C1125.21,-150.51 1217.19,-146.76 1298,-139 1316.24,-137.25 1335.79,-134.72 1354.17,-132.05"/>
<polygon fill="#757575" stroke="#757575" points="1354.87,-135.48 1364.24,-130.55 1353.84,-128.56 1354.87,-135.48"/>
</g>
<!-- dist/redis/common/redis.utils.js&#45;&gt;dist/redis/redis&#45;logger.js -->
<g id="edge42" class="edge">
<title>dist/redis/common/redis.utils.js&#45;&gt;dist/redis/redis&#45;logger.js</title>
<path fill="none" stroke="#757575" d="M1039.37,-142.49C1064.93,-138.92 1093.19,-134.97 1119.13,-131.35"/>
<polygon fill="#757575" stroke="#757575" points="1119.91,-134.77 1129.33,-129.92 1118.94,-127.84 1119.91,-134.77"/>
</g>
<!-- dist/redis/redis&#45;logger.js&#45;&gt;dist/redis/redis.constants.js -->
<g id="edge45" class="edge">
<title>dist/redis/redis&#45;logger.js&#45;&gt;dist/redis/redis.constants.js</title>
<path fill="none" stroke="#757575" d="M1287.81,-119C1302.63,-119 1318.32,-119 1333.68,-119"/>
<polygon fill="#757575" stroke="#757575" points="1333.71,-122.5 1343.71,-119 1333.71,-115.5 1333.71,-122.5"/>
</g>
<!-- dist/redis/default&#45;options.js -->
<g id="node23" class="node">
<title>dist/redis/default&#45;options.js</title>
<path fill="none" stroke="#cfffac" d="M765.83,-240.5C765.83,-240.5 605.17,-240.5 605.17,-240.5 601.33,-240.5 597.5,-236.67 597.5,-232.83 597.5,-232.83 597.5,-225.17 597.5,-225.17 597.5,-221.33 601.33,-217.5 605.17,-217.5 605.17,-217.5 765.83,-217.5 765.83,-217.5 769.67,-217.5 773.5,-221.33 773.5,-225.17 773.5,-225.17 773.5,-232.83 773.5,-232.83 773.5,-236.67 769.67,-240.5 765.83,-240.5"/>
<text text-anchor="middle" x="685.5" y="-225.3" font-family="Arial" font-size="14.00" fill="#cfffac">dist/redis/default&#45;options.js</text>
</g>
<!-- dist/redis/redis.providers.js&#45;&gt;dist/redis/common/index.js -->
<g id="edge56" class="edge">
<title>dist/redis/redis.providers.js&#45;&gt;dist/redis/common/index.js</title>
<path fill="none" stroke="#757575" d="M511.99,-217.47C541.51,-212.43 576.32,-206.48 606.9,-201.26"/>
<polygon fill="#757575" stroke="#757575" points="607.83,-204.65 617.1,-199.51 606.65,-197.75 607.83,-204.65"/>
</g>
<!-- dist/redis/redis.providers.js&#45;&gt;dist/redis/redis&#45;manager.js -->
<g id="edge58" class="edge">
<title>dist/redis/redis.providers.js&#45;&gt;dist/redis/redis&#45;manager.js</title>
<path fill="none" stroke="#757575" d="M479.14,-240.55C521.68,-254.73 593.89,-278.8 640.36,-294.29"/>
<polygon fill="#757575" stroke="#757575" points="639.28,-297.61 649.87,-297.46 641.49,-290.97 639.28,-297.61"/>
</g>
<!-- dist/redis/redis.providers.js&#45;&gt;dist/redis/redis.constants.js -->
<g id="edge59" class="edge">
<title>dist/redis/redis.providers.js&#45;&gt;dist/redis/redis.constants.js</title>
<path fill="none" stroke="#757575" d="M464.56,-217.34C490.05,-203.09 535.82,-179.35 578,-167 810.63,-98.92 877.04,-112.55 1119,-98 1198.41,-93.23 1218.68,-91.85 1298,-98 1318.86,-99.62 1341.37,-102.63 1361.9,-105.87"/>
<polygon fill="#757575" stroke="#757575" points="1361.37,-109.33 1371.81,-107.48 1362.5,-102.42 1361.37,-109.33"/>
</g>
<!-- dist/redis/redis.providers.js&#45;&gt;dist/redis/default&#45;options.js -->
<g id="edge57" class="edge">
<title>dist/redis/redis.providers.js&#45;&gt;dist/redis/default&#45;options.js</title>
<path fill="none" stroke="#757575" d="M531.82,-229C549.81,-229 568.85,-229 587.15,-229"/>
<polygon fill="#757575" stroke="#757575" points="587.24,-232.5 597.24,-229 587.24,-225.5 587.24,-232.5"/>
</g>
<!-- health/index.js -->
<g id="node25" class="node">
<title>health/index.js</title>
<path fill="none" stroke="#c6c5fe" d="M259.83,-436.5C259.83,-436.5 172.17,-436.5 172.17,-436.5 168.33,-436.5 164.5,-432.67 164.5,-428.83 164.5,-428.83 164.5,-421.17 164.5,-421.17 164.5,-417.33 168.33,-413.5 172.17,-413.5 172.17,-413.5 259.83,-413.5 259.83,-413.5 263.67,-413.5 267.5,-417.33 267.5,-421.17 267.5,-421.17 267.5,-428.83 267.5,-428.83 267.5,-432.67 263.67,-436.5 259.83,-436.5"/>
<text text-anchor="middle" x="216" y="-421.3" font-family="Arial" font-size="14.00" fill="#c6c5fe">health/index.js</text>
</g>
<!-- health/index.js&#45;&gt;dist/health/index.js -->
<g id="edge60" class="edge">
<title>health/index.js&#45;&gt;dist/health/index.js</title>
<path fill="none" stroke="#757575" d="M267.61,-425C297.5,-425 335.86,-425 369.04,-425"/>
<polygon fill="#757575" stroke="#757575" points="369.15,-428.5 379.15,-425 369.15,-421.5 369.15,-428.5"/>
</g>
</g>
</svg>
