<?xml version="1.0" encoding="UTF-8" standalone="no"?>
<!DOCTYPE svg PUBLIC "-//W3C//DTD SVG 1.1//EN"
 "http://www.w3.org/Graphics/SVG/1.1/DTD/svg11.dtd">
<!-- Generated by graphviz version 2.43.0 (0)
 -->
<!-- Title: G Pages: 1 -->
<svg width="1840pt" height="980pt"
 viewBox="0.00 0.00 1840.20 980.30" xmlns="http://www.w3.org/2000/svg" xmlns:xlink="http://www.w3.org/1999/xlink">
<g id="graph0" class="graph" transform="scale(1 1) rotate(0) translate(21.6 958.7)">
<title>G</title>
<polygon fill="#111111" stroke="transparent" points="-21.6,21.6 -21.6,-958.7 1818.6,-958.7 1818.6,21.6 -21.6,21.6"/>
<!-- dist/cluster/cluster&#45;logger.js -->
<g id="node1" class="node">
<title>dist/cluster/cluster&#45;logger.js</title>
<path fill="none" stroke="#c6c5fe" d="M1327.83,-829.24C1327.83,-829.24 1164.17,-829.24 1164.17,-829.24 1160.33,-829.24 1156.5,-825.41 1156.5,-821.58 1156.5,-821.58 1156.5,-813.91 1156.5,-813.91 1156.5,-810.08 1160.33,-806.24 1164.17,-806.24 1164.17,-806.24 1327.83,-806.24 1327.83,-806.24 1331.67,-806.24 1335.5,-810.08 1335.5,-813.91 1335.5,-813.91 1335.5,-821.58 1335.5,-821.58 1335.5,-825.41 1331.67,-829.24 1327.83,-829.24"/>
<text text-anchor="middle" x="1246" y="-814.04" font-family="Arial" font-size="14.00" fill="#c6c5fe">dist/cluster/cluster&#45;logger.js</text>
</g>
<!-- dist/cluster/cluster.constants.js -->
<g id="node2" class="node">
<title>dist/cluster/cluster.constants.js</title>
<path fill="none" stroke="#cfffac" d="M1600.33,-829.24C1600.33,-829.24 1416.67,-829.24 1416.67,-829.24 1412.83,-829.24 1409,-825.41 1409,-821.58 1409,-821.58 1409,-813.91 1409,-813.91 1409,-810.08 1412.83,-806.24 1416.67,-806.24 1416.67,-806.24 1600.33,-806.24 1600.33,-806.24 1604.17,-806.24 1608,-810.08 1608,-813.91 1608,-813.91 1608,-821.58 1608,-821.58 1608,-825.41 1604.17,-829.24 1600.33,-829.24"/>
<text text-anchor="middle" x="1508.5" y="-814.04" font-family="Arial" font-size="14.00" fill="#cfffac">dist/cluster/cluster.constants.js</text>
</g>
<!-- dist/cluster/cluster&#45;logger.js&#45;&gt;dist/cluster/cluster.constants.js -->
<g id="edge1" class="edge">
<title>dist/cluster/cluster&#45;logger.js&#45;&gt;dist/cluster/cluster.constants.js</title>
<path fill="none" stroke="#757575" d="M1335.56,-817.74C1355.84,-817.74 1377.63,-817.74 1398.65,-817.74"/>
<polygon fill="#757575" stroke="#757575" points="1398.9,-821.24 1408.9,-817.74 1398.9,-814.24 1398.9,-821.24"/>
</g>
<!-- dist/cluster/cluster&#45;manager.js -->
<g id="node3" class="node">
<title>dist/cluster/cluster&#45;manager.js</title>
<path fill="none" stroke="#c6c5fe" d="M775.83,-669.24C775.83,-669.24 595.17,-669.24 595.17,-669.24 591.33,-669.24 587.5,-665.41 587.5,-661.58 587.5,-661.58 587.5,-653.91 587.5,-653.91 587.5,-650.08 591.33,-646.24 595.17,-646.24 595.17,-646.24 775.83,-646.24 775.83,-646.24 779.67,-646.24 783.5,-650.08 783.5,-653.91 783.5,-653.91 783.5,-661.58 783.5,-661.58 783.5,-665.41 779.67,-669.24 775.83,-669.24"/>
<text text-anchor="middle" x="685.5" y="-654.04" font-family="Arial" font-size="14.00" fill="#c6c5fe">dist/cluster/cluster&#45;manager.js</text>
</g>
<!-- dist/cluster/cluster&#45;manager.js&#45;&gt;dist/cluster/cluster.constants.js -->
<g id="edge2" class="edge">
<title>dist/cluster/cluster&#45;manager.js&#45;&gt;dist/cluster/cluster.constants.js</title>
<path fill="none" stroke="#757575" d="M783.63,-668.62C966.34,-689.21 1345.38,-732.65 1373,-741.74 1414.48,-755.4 1457.59,-782.42 1483.49,-800.29"/>
<polygon fill="#757575" stroke="#757575" points="1481.71,-803.31 1491.9,-806.19 1485.73,-797.58 1481.71,-803.31"/>
</g>
<!-- dist/errors/index.js -->
<g id="node4" class="node">
<title>dist/errors/index.js</title>
<path fill="none" stroke="#c6c5fe" d="M1011.33,-554.24C1011.33,-554.24 900.67,-554.24 900.67,-554.24 896.83,-554.24 893,-550.41 893,-546.58 893,-546.58 893,-538.91 893,-538.91 893,-535.08 896.83,-531.24 900.67,-531.24 900.67,-531.24 1011.33,-531.24 1011.33,-531.24 1015.17,-531.24 1019,-535.08 1019,-538.91 1019,-538.91 1019,-546.58 1019,-546.58 1019,-550.41 1015.17,-554.24 1011.33,-554.24"/>
<text text-anchor="middle" x="956" y="-539.04" font-family="Arial" font-size="14.00" fill="#c6c5fe">dist/errors/index.js</text>
</g>
<!-- dist/cluster/cluster&#45;manager.js&#45;&gt;dist/errors/index.js -->
<g id="edge3" class="edge">
<title>dist/cluster/cluster&#45;manager.js&#45;&gt;dist/errors/index.js</title>
<path fill="none" stroke="#757575" d="M713.47,-646.19C762.02,-625.4 864.14,-581.66 918.74,-558.27"/>
<polygon fill="#757575" stroke="#757575" points="920.23,-561.44 928.04,-554.29 917.47,-555.01 920.23,-561.44"/>
</g>
<!-- dist/messages/index.js -->
<g id="node5" class="node">
<title>dist/messages/index.js</title>
<path fill="none" stroke="#cfffac" d="M1789.33,-456.24C1789.33,-456.24 1651.67,-456.24 1651.67,-456.24 1647.83,-456.24 1644,-452.41 1644,-448.58 1644,-448.58 1644,-440.91 1644,-440.91 1644,-437.08 1647.83,-433.24 1651.67,-433.24 1651.67,-433.24 1789.33,-433.24 1789.33,-433.24 1793.17,-433.24 1797,-437.08 1797,-440.91 1797,-440.91 1797,-448.58 1797,-448.58 1797,-452.41 1793.17,-456.24 1789.33,-456.24"/>
<text text-anchor="middle" x="1720.5" y="-441.04" font-family="Arial" font-size="14.00" fill="#cfffac">dist/messages/index.js</text>
</g>
<!-- dist/cluster/cluster&#45;manager.js&#45;&gt;dist/messages/index.js -->
<g id="edge4" class="edge">
<title>dist/cluster/cluster&#45;manager.js&#45;&gt;dist/messages/index.js</title>
<path fill="none" stroke="#757575" d="M783.57,-656.18C1005.67,-651.94 1537.2,-637.8 1608,-598.74 1661.96,-568.98 1696.51,-500.73 1711.27,-465.95"/>
<polygon fill="#757575" stroke="#757575" points="1714.67,-466.9 1715.22,-456.32 1708.19,-464.25 1714.67,-466.9"/>
</g>
<!-- dist/utils/index.js -->
<g id="node6" class="node">
<title>dist/utils/index.js</title>
<path fill="none" stroke="#c6c5fe" d="M1295.83,-397.24C1295.83,-397.24 1196.17,-397.24 1196.17,-397.24 1192.33,-397.24 1188.5,-393.41 1188.5,-389.58 1188.5,-389.58 1188.5,-381.91 1188.5,-381.91 1188.5,-378.08 1192.33,-374.24 1196.17,-374.24 1196.17,-374.24 1295.83,-374.24 1295.83,-374.24 1299.67,-374.24 1303.5,-378.08 1303.5,-381.91 1303.5,-381.91 1303.5,-389.58 1303.5,-389.58 1303.5,-393.41 1299.67,-397.24 1295.83,-397.24"/>
<text text-anchor="middle" x="1246" y="-382.04" font-family="Arial" font-size="14.00" fill="#c6c5fe">dist/utils/index.js</text>
</g>
<!-- dist/cluster/cluster&#45;manager.js&#45;&gt;dist/utils/index.js -->
<g id="edge5" class="edge">
<title>dist/cluster/cluster&#45;manager.js&#45;&gt;dist/utils/index.js</title>
<path fill="none" stroke="#757575" d="M772.3,-646.18C874.19,-630.93 1036.25,-601.45 1083,-562.74 1113.03,-537.88 1094.83,-513.34 1119,-482.74 1145.91,-448.69 1187.29,-419.88 1215.22,-402.71"/>
<polygon fill="#757575" stroke="#757575" points="1217.37,-405.5 1224.14,-397.35 1213.76,-399.51 1217.37,-405.5"/>
</g>
<!-- dist/errors/client&#45;not&#45;found.error.js -->
<g id="node13" class="node">
<title>dist/errors/client&#45;not&#45;found.error.js</title>
<path fill="none" stroke="#cfffac" d="M1347.33,-515.24C1347.33,-515.24 1144.67,-515.24 1144.67,-515.24 1140.83,-515.24 1137,-511.41 1137,-507.58 1137,-507.58 1137,-499.91 1137,-499.91 1137,-496.08 1140.83,-492.24 1144.67,-492.24 1144.67,-492.24 1347.33,-492.24 1347.33,-492.24 1351.17,-492.24 1355,-496.08 1355,-499.91 1355,-499.91 1355,-507.58 1355,-507.58 1355,-511.41 1351.17,-515.24 1347.33,-515.24"/>
<text text-anchor="middle" x="1246" y="-500.04" font-family="Arial" font-size="14.00" fill="#cfffac">dist/errors/client&#45;not&#45;found.error.js</text>
</g>
<!-- dist/errors/index.js&#45;&gt;dist/errors/client&#45;not&#45;found.error.js -->
<g id="edge26" class="edge">
<title>dist/errors/index.js&#45;&gt;dist/errors/client&#45;not&#45;found.error.js</title>
<path fill="none" stroke="#757575" d="M1019.14,-534.33C1057.34,-529.16 1107.04,-522.43 1150.1,-516.6"/>
<polygon fill="#757575" stroke="#757575" points="1150.59,-520.06 1160.03,-515.25 1149.65,-513.12 1150.59,-520.06"/>
</g>
<!-- dist/errors/missing&#45;configuration.error.js -->
<g id="node14" class="node">
<title>dist/errors/missing&#45;configuration.error.js</title>
<path fill="none" stroke="#cfffac" d="M1365.33,-556.24C1365.33,-556.24 1126.67,-556.24 1126.67,-556.24 1122.83,-556.24 1119,-552.41 1119,-548.58 1119,-548.58 1119,-540.91 1119,-540.91 1119,-537.08 1122.83,-533.24 1126.67,-533.24 1126.67,-533.24 1365.33,-533.24 1365.33,-533.24 1369.17,-533.24 1373,-537.08 1373,-540.91 1373,-540.91 1373,-548.58 1373,-548.58 1373,-552.41 1369.17,-556.24 1365.33,-556.24"/>
<text text-anchor="middle" x="1246" y="-541.04" font-family="Arial" font-size="14.00" fill="#cfffac">dist/errors/missing&#45;configuration.error.js</text>
</g>
<!-- dist/errors/index.js&#45;&gt;dist/errors/missing&#45;configuration.error.js -->
<g id="edge27" class="edge">
<title>dist/errors/index.js&#45;&gt;dist/errors/missing&#45;configuration.error.js</title>
<path fill="none" stroke="#757575" d="M1019.14,-543.18C1045.47,-543.36 1077.28,-543.58 1108.6,-543.8"/>
<polygon fill="#757575" stroke="#757575" points="1108.73,-547.3 1118.75,-543.87 1108.77,-540.3 1108.73,-547.3"/>
</g>
<!-- dist/utils/is.js -->
<g id="node28" class="node">
<title>dist/utils/is.js</title>
<path fill="none" stroke="#cfffac" d="M1758.83,-299.24C1758.83,-299.24 1682.17,-299.24 1682.17,-299.24 1678.33,-299.24 1674.5,-295.41 1674.5,-291.58 1674.5,-291.58 1674.5,-283.91 1674.5,-283.91 1674.5,-280.08 1678.33,-276.24 1682.17,-276.24 1682.17,-276.24 1758.83,-276.24 1758.83,-276.24 1762.67,-276.24 1766.5,-280.08 1766.5,-283.91 1766.5,-283.91 1766.5,-291.58 1766.5,-291.58 1766.5,-295.41 1762.67,-299.24 1758.83,-299.24"/>
<text text-anchor="middle" x="1720.5" y="-284.04" font-family="Arial" font-size="14.00" fill="#cfffac">dist/utils/is.js</text>
</g>
<!-- dist/utils/index.js&#45;&gt;dist/utils/is.js -->
<g id="edge66" class="edge">
<title>dist/utils/index.js&#45;&gt;dist/utils/is.js</title>
<path fill="none" stroke="#757575" d="M1302.59,-374.21C1393.71,-355.32 1573.75,-317.98 1664.48,-299.16"/>
<polygon fill="#757575" stroke="#757575" points="1665.22,-302.58 1674.3,-297.12 1663.8,-295.72 1665.22,-302.58"/>
</g>
<!-- dist/utils/parsers.js -->
<g id="node29" class="node">
<title>dist/utils/parsers.js</title>
<path fill="none" stroke="#c6c5fe" d="M1564.83,-279.24C1564.83,-279.24 1452.17,-279.24 1452.17,-279.24 1448.33,-279.24 1444.5,-275.41 1444.5,-271.58 1444.5,-271.58 1444.5,-263.91 1444.5,-263.91 1444.5,-260.08 1448.33,-256.24 1452.17,-256.24 1452.17,-256.24 1564.83,-256.24 1564.83,-256.24 1568.67,-256.24 1572.5,-260.08 1572.5,-263.91 1572.5,-263.91 1572.5,-271.58 1572.5,-271.58 1572.5,-275.41 1568.67,-279.24 1564.83,-279.24"/>
<text text-anchor="middle" x="1508.5" y="-264.04" font-family="Arial" font-size="14.00" fill="#c6c5fe">dist/utils/parsers.js</text>
</g>
<!-- dist/utils/index.js&#45;&gt;dist/utils/parsers.js -->
<g id="edge67" class="edge">
<title>dist/utils/index.js&#45;&gt;dist/utils/parsers.js</title>
<path fill="none" stroke="#757575" d="M1273.37,-374.15C1299.43,-362.27 1340.06,-342.65 1373,-321.74 1390.11,-310.88 1390.83,-302.74 1409,-293.74 1418.19,-289.2 1428.27,-285.38 1438.36,-282.18"/>
<polygon fill="#757575" stroke="#757575" points="1439.43,-285.52 1448.02,-279.32 1437.43,-278.81 1439.43,-285.52"/>
</g>
<!-- dist/utils/promise&#45;timeout.js -->
<g id="node30" class="node">
<title>dist/utils/promise&#45;timeout.js</title>
<path fill="none" stroke="#c6c5fe" d="M1591.33,-397.24C1591.33,-397.24 1425.67,-397.24 1425.67,-397.24 1421.83,-397.24 1418,-393.41 1418,-389.58 1418,-389.58 1418,-381.91 1418,-381.91 1418,-378.08 1421.83,-374.24 1425.67,-374.24 1425.67,-374.24 1591.33,-374.24 1591.33,-374.24 1595.17,-374.24 1599,-378.08 1599,-381.91 1599,-381.91 1599,-389.58 1599,-389.58 1599,-393.41 1595.17,-397.24 1591.33,-397.24"/>
<text text-anchor="middle" x="1508.5" y="-382.04" font-family="Arial" font-size="14.00" fill="#c6c5fe">dist/utils/promise&#45;timeout.js</text>
</g>
<!-- dist/utils/index.js&#45;&gt;dist/utils/promise&#45;timeout.js -->
<g id="edge68" class="edge">
<title>dist/utils/index.js&#45;&gt;dist/utils/promise&#45;timeout.js</title>
<path fill="none" stroke="#757575" d="M1303.52,-385.74C1333.9,-385.74 1372.24,-385.74 1407.47,-385.74"/>
<polygon fill="#757575" stroke="#757575" points="1407.8,-389.24 1417.8,-385.74 1407.8,-382.24 1407.8,-389.24"/>
</g>
<!-- dist/cluster/cluster.module.js -->
<g id="node7" class="node">
<title>dist/cluster/cluster.module.js</title>
<path fill="none" stroke="#c6c5fe" d="M301.33,-704.24C301.33,-704.24 130.67,-704.24 130.67,-704.24 126.83,-704.24 123,-700.41 123,-696.58 123,-696.58 123,-688.91 123,-688.91 123,-685.08 126.83,-681.24 130.67,-681.24 130.67,-681.24 301.33,-681.24 301.33,-681.24 305.17,-681.24 309,-685.08 309,-688.91 309,-688.91 309,-696.58 309,-696.58 309,-700.41 305.17,-704.24 301.33,-704.24"/>
<text text-anchor="middle" x="216" y="-689.04" font-family="Arial" font-size="14.00" fill="#c6c5fe">dist/cluster/cluster.module.js</text>
</g>
<!-- dist/cluster/cluster.module.js&#45;&gt;dist/cluster/cluster&#45;logger.js -->
<g id="edge6" class="edge">
<title>dist/cluster/cluster.module.js&#45;&gt;dist/cluster/cluster&#45;logger.js</title>
<path fill="none" stroke="#757575" d="M229.22,-704.32C250.68,-723.84 297.4,-762.84 345,-779.74 628.46,-880.43 994.05,-851.27 1158.32,-830.54"/>
<polygon fill="#757575" stroke="#757575" points="1158.9,-833.99 1168.37,-829.25 1158.01,-827.05 1158.9,-833.99"/>
</g>
<!-- dist/cluster/cluster.module.js&#45;&gt;dist/cluster/cluster.constants.js -->
<g id="edge8" class="edge">
<title>dist/cluster/cluster.module.js&#45;&gt;dist/cluster/cluster.constants.js</title>
<path fill="none" stroke="#757575" d="M225.05,-704.3C243.21,-729.4 290.1,-788.87 345,-816.74 438.69,-864.31 473.4,-846.86 578,-856.74 929.79,-890 1025.02,-928.16 1373,-866.74 1408.75,-860.44 1447.49,-845.38 1474.17,-833.6"/>
<polygon fill="#757575" stroke="#757575" points="1475.74,-836.73 1483.42,-829.44 1472.87,-830.35 1475.74,-836.73"/>
</g>
<!-- dist/cluster/cluster.module.js&#45;&gt;dist/cluster/cluster&#45;manager.js -->
<g id="edge7" class="edge">
<title>dist/cluster/cluster.module.js&#45;&gt;dist/cluster/cluster&#45;manager.js</title>
<path fill="none" stroke="#757575" d="M309.11,-686.02C374.18,-681.26 463.44,-674.68 542,-668.74 553.29,-667.89 565.08,-666.99 576.84,-666.09"/>
<polygon fill="#757575" stroke="#757575" points="577.45,-669.56 587.15,-665.3 576.91,-662.58 577.45,-669.56"/>
</g>
<!-- dist/cluster/cluster.module.js&#45;&gt;dist/errors/index.js -->
<g id="edge11" class="edge">
<title>dist/cluster/cluster.module.js&#45;&gt;dist/errors/index.js</title>
<path fill="none" stroke="#757575" d="M240.97,-681.11C266.27,-669.28 307.59,-651.25 345,-640.74 535.21,-587.33 767.49,-560.05 882.84,-548.94"/>
<polygon fill="#757575" stroke="#757575" points="883.33,-552.41 892.95,-547.98 882.67,-545.44 883.33,-552.41"/>
</g>
<!-- dist/cluster/cluster.module.js&#45;&gt;dist/messages/index.js -->
<g id="edge12" class="edge">
<title>dist/cluster/cluster.module.js&#45;&gt;dist/messages/index.js</title>
<path fill="none" stroke="#757575" d="M275.2,-681.21C297.05,-677.05 322.12,-672.46 345,-668.74 448.18,-652 474.14,-648.57 578,-636.74 930.5,-596.6 1026.15,-639.35 1373,-564.74 1489.97,-539.59 1621.95,-486.69 1683.86,-460.34"/>
<polygon fill="#757575" stroke="#757575" points="1685.36,-463.51 1693.18,-456.35 1682.61,-457.07 1685.36,-463.51"/>
</g>
<!-- dist/cluster/cluster.module.js&#45;&gt;dist/utils/index.js -->
<g id="edge13" class="edge">
<title>dist/cluster/cluster.module.js&#45;&gt;dist/utils/index.js</title>
<path fill="none" stroke="#757575" d="M228.05,-680.98C248.76,-659.72 295.79,-615.13 345,-593.74 441.23,-551.92 474.3,-571.7 578,-555.74 606.02,-551.44 1056.29,-492.24 1083,-482.74 1136.7,-463.66 1192.17,-425.76 1222.24,-403.41"/>
<polygon fill="#757575" stroke="#757575" points="1224.5,-406.09 1230.38,-397.27 1220.29,-400.5 1224.5,-406.09"/>
</g>
<!-- dist/cluster/cluster.providers.js -->
<g id="node8" class="node">
<title>dist/cluster/cluster.providers.js</title>
<path fill="none" stroke="#c6c5fe" d="M534.33,-744.24C534.33,-744.24 352.67,-744.24 352.67,-744.24 348.83,-744.24 345,-740.41 345,-736.58 345,-736.58 345,-728.91 345,-728.91 345,-725.08 348.83,-721.24 352.67,-721.24 352.67,-721.24 534.33,-721.24 534.33,-721.24 538.17,-721.24 542,-725.08 542,-728.91 542,-728.91 542,-736.58 542,-736.58 542,-740.41 538.17,-744.24 534.33,-744.24"/>
<text text-anchor="middle" x="443.5" y="-729.04" font-family="Arial" font-size="14.00" fill="#c6c5fe">dist/cluster/cluster.providers.js</text>
</g>
<!-- dist/cluster/cluster.module.js&#45;&gt;dist/cluster/cluster.providers.js -->
<g id="edge9" class="edge">
<title>dist/cluster/cluster.module.js&#45;&gt;dist/cluster/cluster.providers.js</title>
<path fill="none" stroke="#757575" d="M281.92,-704.26C308.69,-709.01 339.87,-714.54 367.6,-719.46"/>
<polygon fill="#757575" stroke="#757575" points="367.19,-722.94 377.65,-721.24 368.41,-716.05 367.19,-722.94"/>
</g>
<!-- dist/cluster/common/index.js -->
<g id="node9" class="node">
<title>dist/cluster/common/index.js</title>
<path fill="none" stroke="#c6c5fe" d="M771.83,-790.24C771.83,-790.24 599.17,-790.24 599.17,-790.24 595.33,-790.24 591.5,-786.41 591.5,-782.58 591.5,-782.58 591.5,-774.91 591.5,-774.91 591.5,-771.08 595.33,-767.24 599.17,-767.24 599.17,-767.24 771.83,-767.24 771.83,-767.24 775.67,-767.24 779.5,-771.08 779.5,-774.91 779.5,-774.91 779.5,-782.58 779.5,-782.58 779.5,-786.41 775.67,-790.24 771.83,-790.24"/>
<text text-anchor="middle" x="685.5" y="-775.04" font-family="Arial" font-size="14.00" fill="#c6c5fe">dist/cluster/common/index.js</text>
</g>
<!-- dist/cluster/cluster.module.js&#45;&gt;dist/cluster/common/index.js -->
<g id="edge10" class="edge">
<title>dist/cluster/cluster.module.js&#45;&gt;dist/cluster/common/index.js</title>
<path fill="none" stroke="#757575" d="M235.66,-704.38C259.85,-718.81 303.83,-742.83 345,-753.74 422.43,-774.27 513.04,-780.07 581.17,-780.98"/>
<polygon fill="#757575" stroke="#757575" points="581.44,-784.48 591.48,-781.08 581.51,-777.48 581.44,-784.48"/>
</g>
<!-- dist/cluster/cluster.providers.js&#45;&gt;dist/cluster/cluster.constants.js -->
<g id="edge15" class="edge">
<title>dist/cluster/cluster.providers.js&#45;&gt;dist/cluster/cluster.constants.js</title>
<path fill="none" stroke="#757575" d="M542.2,-732C629.63,-732.77 750.38,-737.83 793,-758.74 814.47,-769.28 807.87,-787.54 829,-798.74 1043.19,-912.31 1131.3,-857.5 1373,-838.74 1393.86,-837.13 1416.37,-834.12 1436.9,-830.87"/>
<polygon fill="#757575" stroke="#757575" points="1437.5,-834.32 1446.81,-829.26 1436.37,-827.41 1437.5,-834.32"/>
</g>
<!-- dist/cluster/cluster.providers.js&#45;&gt;dist/cluster/cluster&#45;manager.js -->
<g id="edge14" class="edge">
<title>dist/cluster/cluster.providers.js&#45;&gt;dist/cluster/cluster&#45;manager.js</title>
<path fill="none" stroke="#757575" d="M503.12,-721.18C516.28,-717.49 529.92,-712.74 542,-706.74 560.16,-697.73 559.56,-687.16 578,-678.74 583.33,-676.32 588.93,-674.17 594.66,-672.27"/>
<polygon fill="#757575" stroke="#757575" points="595.87,-675.56 604.41,-669.29 593.82,-668.86 595.87,-675.56"/>
</g>
<!-- dist/cluster/cluster.providers.js&#45;&gt;dist/cluster/common/index.js -->
<g id="edge16" class="edge">
<title>dist/cluster/cluster.providers.js&#45;&gt;dist/cluster/common/index.js</title>
<path fill="none" stroke="#757575" d="M504.75,-744.29C537.99,-750.66 579.44,-758.61 614.15,-765.26"/>
<polygon fill="#757575" stroke="#757575" points="613.74,-768.75 624.22,-767.19 615.06,-761.87 613.74,-768.75"/>
</g>
<!-- dist/cluster/default&#45;options.js -->
<g id="node10" class="node">
<title>dist/cluster/default&#45;options.js</title>
<path fill="none" stroke="#cfffac" d="M771.33,-710.24C771.33,-710.24 599.67,-710.24 599.67,-710.24 595.83,-710.24 592,-706.41 592,-702.58 592,-702.58 592,-694.91 592,-694.91 592,-691.08 595.83,-687.24 599.67,-687.24 599.67,-687.24 771.33,-687.24 771.33,-687.24 775.17,-687.24 779,-691.08 779,-694.91 779,-694.91 779,-702.58 779,-702.58 779,-706.41 775.17,-710.24 771.33,-710.24"/>
<text text-anchor="middle" x="685.5" y="-695.04" font-family="Arial" font-size="14.00" fill="#cfffac">dist/cluster/default&#45;options.js</text>
</g>
<!-- dist/cluster/cluster.providers.js&#45;&gt;dist/cluster/default&#45;options.js -->
<g id="edge17" class="edge">
<title>dist/cluster/cluster.providers.js&#45;&gt;dist/cluster/default&#45;options.js</title>
<path fill="none" stroke="#757575" d="M525.75,-721.23C547.33,-718.18 570.79,-714.85 592.88,-711.72"/>
<polygon fill="#757575" stroke="#757575" points="593.51,-715.17 602.92,-710.3 592.53,-708.24 593.51,-715.17"/>
</g>
<!-- dist/cluster/common/cluster.decorator.js -->
<g id="node11" class="node">
<title>dist/cluster/common/cluster.decorator.js</title>
<path fill="none" stroke="#c6c5fe" d="M1075.33,-748.24C1075.33,-748.24 836.67,-748.24 836.67,-748.24 832.83,-748.24 829,-744.41 829,-740.58 829,-740.58 829,-732.91 829,-732.91 829,-729.08 832.83,-725.24 836.67,-725.24 836.67,-725.24 1075.33,-725.24 1075.33,-725.24 1079.17,-725.24 1083,-729.08 1083,-732.91 1083,-732.91 1083,-740.58 1083,-740.58 1083,-744.41 1079.17,-748.24 1075.33,-748.24"/>
<text text-anchor="middle" x="956" y="-733.04" font-family="Arial" font-size="14.00" fill="#c6c5fe">dist/cluster/common/cluster.decorator.js</text>
</g>
<!-- dist/cluster/common/index.js&#45;&gt;dist/cluster/common/cluster.decorator.js -->
<g id="edge24" class="edge">
<title>dist/cluster/common/index.js&#45;&gt;dist/cluster/common/cluster.decorator.js</title>
<path fill="none" stroke="#757575" d="M760.22,-767.21C794.71,-761.82 835.93,-755.37 871.55,-749.8"/>
<polygon fill="#757575" stroke="#757575" points="872.1,-753.25 881.44,-748.25 871.02,-746.34 872.1,-753.25"/>
</g>
<!-- dist/cluster/common/cluster.utils.js -->
<g id="node12" class="node">
<title>dist/cluster/common/cluster.utils.js</title>
<path fill="none" stroke="#c6c5fe" d="M1059.33,-789.24C1059.33,-789.24 852.67,-789.24 852.67,-789.24 848.83,-789.24 845,-785.41 845,-781.58 845,-781.58 845,-773.91 845,-773.91 845,-770.08 848.83,-766.24 852.67,-766.24 852.67,-766.24 1059.33,-766.24 1059.33,-766.24 1063.17,-766.24 1067,-770.08 1067,-773.91 1067,-773.91 1067,-781.58 1067,-781.58 1067,-785.41 1063.17,-789.24 1059.33,-789.24"/>
<text text-anchor="middle" x="956" y="-774.04" font-family="Arial" font-size="14.00" fill="#c6c5fe">dist/cluster/common/cluster.utils.js</text>
</g>
<!-- dist/cluster/common/index.js&#45;&gt;dist/cluster/common/cluster.utils.js -->
<g id="edge25" class="edge">
<title>dist/cluster/common/index.js&#45;&gt;dist/cluster/common/cluster.utils.js</title>
<path fill="none" stroke="#757575" d="M779.65,-778.4C797.42,-778.33 816.24,-778.26 834.71,-778.19"/>
<polygon fill="#757575" stroke="#757575" points="834.94,-781.69 844.93,-778.15 834.92,-774.69 834.94,-781.69"/>
</g>
<!-- dist/cluster/common/cluster.decorator.js&#45;&gt;dist/cluster/cluster.constants.js -->
<g id="edge18" class="edge">
<title>dist/cluster/common/cluster.decorator.js&#45;&gt;dist/cluster/cluster.constants.js</title>
<path fill="none" stroke="#757575" d="M1083.06,-742.9C1166.02,-748.48 1276.68,-758.86 1373,-777.74 1404.48,-783.92 1439.16,-794.32 1465.42,-802.97"/>
<polygon fill="#757575" stroke="#757575" points="1464.45,-806.34 1475.05,-806.19 1466.67,-799.7 1464.45,-806.34"/>
</g>
<!-- dist/cluster/common/cluster.decorator.js&#45;&gt;dist/utils/index.js -->
<g id="edge19" class="edge">
<title>dist/cluster/common/cluster.decorator.js&#45;&gt;dist/utils/index.js</title>
<path fill="none" stroke="#757575" d="M978.98,-725.09C1007.53,-708.79 1056.78,-676.44 1083,-634.74 1119.96,-575.98 1081.32,-541.06 1119,-482.74 1142.25,-446.76 1183.62,-418.75 1212.6,-402.28"/>
<polygon fill="#757575" stroke="#757575" points="1214.47,-405.24 1221.53,-397.34 1211.08,-399.12 1214.47,-405.24"/>
</g>
<!-- dist/cluster/common/cluster.utils.js&#45;&gt;dist/cluster/cluster&#45;logger.js -->
<g id="edge20" class="edge">
<title>dist/cluster/common/cluster.utils.js&#45;&gt;dist/cluster/cluster&#45;logger.js</title>
<path fill="none" stroke="#757575" d="M1039.92,-789.26C1075,-794.13 1116.03,-799.83 1152.13,-804.85"/>
<polygon fill="#757575" stroke="#757575" points="1151.79,-808.33 1162.17,-806.24 1152.75,-801.4 1151.79,-808.33"/>
</g>
<!-- dist/cluster/common/cluster.utils.js&#45;&gt;dist/cluster/cluster.constants.js -->
<g id="edge21" class="edge">
<title>dist/cluster/common/cluster.utils.js&#45;&gt;dist/cluster/cluster.constants.js</title>
<path fill="none" stroke="#757575" d="M1067.14,-780.05C1151.12,-782.54 1269.56,-787.59 1373,-797.74 1391.14,-799.53 1410.57,-802.05 1428.86,-804.71"/>
<polygon fill="#757575" stroke="#757575" points="1428.49,-808.19 1438.89,-806.2 1429.52,-801.27 1428.49,-808.19"/>
</g>
<!-- dist/cluster/common/cluster.utils.js&#45;&gt;dist/messages/index.js -->
<g id="edge22" class="edge">
<title>dist/cluster/common/cluster.utils.js&#45;&gt;dist/messages/index.js</title>
<path fill="none" stroke="#757575" d="M1061.25,-766.24C1222.38,-746.74 1522.33,-703.03 1608,-639.74 1668.47,-595.08 1701.09,-507.11 1713.52,-466.38"/>
<polygon fill="#757575" stroke="#757575" points="1716.92,-467.24 1716.37,-456.66 1710.2,-465.27 1716.92,-467.24"/>
</g>
<!-- dist/cluster/common/cluster.utils.js&#45;&gt;dist/utils/index.js -->
<g id="edge23" class="edge">
<title>dist/cluster/common/cluster.utils.js&#45;&gt;dist/utils/index.js</title>
<path fill="none" stroke="#757575" d="M1067.09,-769.8C1072.91,-766.56 1078.29,-762.59 1083,-757.74 1168.97,-669.4 1057.49,-589.57 1119,-482.74 1140.19,-445.94 1181.42,-418.34 1210.95,-402.17"/>
<polygon fill="#757575" stroke="#757575" points="1212.89,-405.1 1220.08,-397.33 1209.61,-398.92 1212.89,-405.1"/>
</g>
<!-- dist/health/index.js -->
<g id="node15" class="node">
<title>dist/health/index.js</title>
<path fill="none" stroke="#c6c5fe" d="M499.83,-455.24C499.83,-455.24 387.17,-455.24 387.17,-455.24 383.33,-455.24 379.5,-451.41 379.5,-447.58 379.5,-447.58 379.5,-439.91 379.5,-439.91 379.5,-436.08 383.33,-432.24 387.17,-432.24 387.17,-432.24 499.83,-432.24 499.83,-432.24 503.67,-432.24 507.5,-436.08 507.5,-439.91 507.5,-439.91 507.5,-447.58 507.5,-447.58 507.5,-451.41 503.67,-455.24 499.83,-455.24"/>
<text text-anchor="middle" x="443.5" y="-440.04" font-family="Arial" font-size="14.00" fill="#c6c5fe">dist/health/index.js</text>
</g>
<!-- dist/health/indicators/redis.health.js -->
<g id="node16" class="node">
<title>dist/health/indicators/redis.health.js</title>
<path fill="none" stroke="#c6c5fe" d="M1061.83,-474.24C1061.83,-474.24 850.17,-474.24 850.17,-474.24 846.33,-474.24 842.5,-470.41 842.5,-466.58 842.5,-466.58 842.5,-458.91 842.5,-458.91 842.5,-455.08 846.33,-451.24 850.17,-451.24 850.17,-451.24 1061.83,-451.24 1061.83,-451.24 1065.67,-451.24 1069.5,-455.08 1069.5,-458.91 1069.5,-458.91 1069.5,-466.58 1069.5,-466.58 1069.5,-470.41 1065.67,-474.24 1061.83,-474.24"/>
<text text-anchor="middle" x="956" y="-459.04" font-family="Arial" font-size="14.00" fill="#c6c5fe">dist/health/indicators/redis.health.js</text>
</g>
<!-- dist/health/index.js&#45;&gt;dist/health/indicators/redis.health.js -->
<g id="edge28" class="edge">
<title>dist/health/index.js&#45;&gt;dist/health/indicators/redis.health.js</title>
<path fill="none" stroke="#757575" d="M507.61,-446.09C588.29,-449.1 729.75,-454.36 832.04,-458.17"/>
<polygon fill="#757575" stroke="#757575" points="832.01,-461.67 842.13,-458.54 832.27,-454.67 832.01,-461.67"/>
</g>
<!-- dist/health/redis&#45;health.module.js -->
<g id="node17" class="node">
<title>dist/health/redis&#45;health.module.js</title>
<path fill="none" stroke="#c6c5fe" d="M785.33,-436.24C785.33,-436.24 585.67,-436.24 585.67,-436.24 581.83,-436.24 578,-432.41 578,-428.58 578,-428.58 578,-420.91 578,-420.91 578,-417.08 581.83,-413.24 585.67,-413.24 585.67,-413.24 785.33,-413.24 785.33,-413.24 789.17,-413.24 793,-417.08 793,-420.91 793,-420.91 793,-428.58 793,-428.58 793,-432.41 789.17,-436.24 785.33,-436.24"/>
<text text-anchor="middle" x="685.5" y="-421.04" font-family="Arial" font-size="14.00" fill="#c6c5fe">dist/health/redis&#45;health.module.js</text>
</g>
<!-- dist/health/index.js&#45;&gt;dist/health/redis&#45;health.module.js -->
<g id="edge29" class="edge">
<title>dist/health/index.js&#45;&gt;dist/health/redis&#45;health.module.js</title>
<path fill="none" stroke="#757575" d="M507.56,-438.75C526.06,-437.29 546.91,-435.64 567.63,-434"/>
<polygon fill="#757575" stroke="#757575" points="568.09,-437.47 577.79,-433.19 567.54,-430.49 568.09,-437.47"/>
</g>
<!-- dist/health/indicators/redis.health.js&#45;&gt;dist/messages/index.js -->
<g id="edge30" class="edge">
<title>dist/health/indicators/redis.health.js&#45;&gt;dist/messages/index.js</title>
<path fill="none" stroke="#757575" d="M1069.51,-460.09C1223.19,-456.46 1495.39,-450.04 1633.7,-446.77"/>
<polygon fill="#757575" stroke="#757575" points="1633.91,-450.27 1643.82,-446.53 1633.74,-443.27 1633.91,-450.27"/>
</g>
<!-- dist/health/indicators/redis.health.js&#45;&gt;dist/utils/index.js -->
<g id="edge31" class="edge">
<title>dist/health/indicators/redis.health.js&#45;&gt;dist/utils/index.js</title>
<path fill="none" stroke="#757575" d="M1000.12,-451.22C1051.23,-437.55 1136.42,-414.78 1191.64,-400.01"/>
<polygon fill="#757575" stroke="#757575" points="1192.83,-403.32 1201.59,-397.35 1191.02,-396.55 1192.83,-403.32"/>
</g>
<!-- dist/health/redis&#45;health.module.js&#45;&gt;dist/health/indicators/redis.health.js -->
<g id="edge32" class="edge">
<title>dist/health/redis&#45;health.module.js&#45;&gt;dist/health/indicators/redis.health.js</title>
<path fill="none" stroke="#757575" d="M767.79,-436.25C798.01,-440.53 832.5,-445.41 863.57,-449.8"/>
<polygon fill="#757575" stroke="#757575" points="863.13,-453.28 873.53,-451.21 864.11,-446.35 863.13,-453.28"/>
</g>
<!-- dist/index.js -->
<g id="node18" class="node">
<title>dist/index.js</title>
<path fill="none" stroke="#c6c5fe" d="M79.33,-493.24C79.33,-493.24 7.67,-493.24 7.67,-493.24 3.83,-493.24 0,-489.41 0,-485.58 0,-485.58 0,-477.91 0,-477.91 0,-474.08 3.83,-470.24 7.67,-470.24 7.67,-470.24 79.33,-470.24 79.33,-470.24 83.17,-470.24 87,-474.08 87,-477.91 87,-477.91 87,-485.58 87,-485.58 87,-489.41 83.17,-493.24 79.33,-493.24"/>
<text text-anchor="middle" x="43.5" y="-478.04" font-family="Arial" font-size="14.00" fill="#c6c5fe">dist/index.js</text>
</g>
<!-- dist/index.js&#45;&gt;dist/cluster/cluster.constants.js -->
<g id="edge34" class="edge">
<title>dist/index.js&#45;&gt;dist/cluster/cluster.constants.js</title>
<path fill="none" stroke="#757575" d="M44.46,-493.43C44.89,-535.73 51.71,-682.97 123,-770.74 223.5,-894.48 283.09,-933.74 442.5,-933.74 442.5,-933.74 442.5,-933.74 957,-933.74 1142.66,-933.74 1196.1,-952.08 1373,-895.74 1415.1,-882.34 1458.36,-854.18 1484.07,-835.62"/>
<polygon fill="#757575" stroke="#757575" points="1486.42,-838.24 1492.41,-829.5 1482.28,-832.6 1486.42,-838.24"/>
</g>
<!-- dist/index.js&#45;&gt;dist/cluster/cluster&#45;manager.js -->
<g id="edge33" class="edge">
<title>dist/index.js&#45;&gt;dist/cluster/cluster&#45;manager.js</title>
<path fill="none" stroke="#757575" d="M86.49,-493.29C199.29,-524.31 508.65,-609.39 632.37,-643.41"/>
<polygon fill="#757575" stroke="#757575" points="631.78,-646.88 642.35,-646.15 633.64,-640.13 631.78,-646.88"/>
</g>
<!-- dist/index.js&#45;&gt;dist/cluster/cluster.module.js -->
<g id="edge35" class="edge">
<title>dist/index.js&#45;&gt;dist/cluster/cluster.module.js</title>
<path fill="none" stroke="#757575" d="M48.38,-493.37C57.74,-520.1 83.75,-587 123,-630.74 139.8,-649.47 163.41,-665.23 182.51,-676.17"/>
<polygon fill="#757575" stroke="#757575" points="181.03,-679.35 191.47,-681.15 184.42,-673.23 181.03,-679.35"/>
</g>
<!-- dist/index.js&#45;&gt;dist/cluster/common/index.js -->
<g id="edge36" class="edge">
<title>dist/index.js&#45;&gt;dist/cluster/common/index.js</title>
<path fill="none" stroke="#757575" d="M44.85,-493.33C46.64,-530.91 57.47,-650.61 123,-713.74 260.2,-845.93 512.23,-815.01 626.02,-792.35"/>
<polygon fill="#757575" stroke="#757575" points="626.84,-795.75 635.94,-790.32 625.44,-788.89 626.84,-795.75"/>
</g>
<!-- dist/redis/common/index.js -->
<g id="node19" class="node">
<title>dist/redis/common/index.js</title>
<path fill="none" stroke="#c6c5fe" d="M766.33,-86.24C766.33,-86.24 604.67,-86.24 604.67,-86.24 600.83,-86.24 597,-82.41 597,-78.58 597,-78.58 597,-70.91 597,-70.91 597,-67.08 600.83,-63.24 604.67,-63.24 604.67,-63.24 766.33,-63.24 766.33,-63.24 770.17,-63.24 774,-67.08 774,-70.91 774,-70.91 774,-78.58 774,-78.58 774,-82.41 770.17,-86.24 766.33,-86.24"/>
<text text-anchor="middle" x="685.5" y="-71.04" font-family="Arial" font-size="14.00" fill="#c6c5fe">dist/redis/common/index.js</text>
</g>
<!-- dist/index.js&#45;&gt;dist/redis/common/index.js -->
<g id="edge37" class="edge">
<title>dist/index.js&#45;&gt;dist/redis/common/index.js</title>
<path fill="none" stroke="#757575" d="M45.92,-469.97C50.79,-433.8 69.54,-322.33 123,-249.74 195.28,-151.61 229.87,-128.74 345,-88.74 423.08,-61.62 517.38,-60 586.77,-64.08"/>
<polygon fill="#757575" stroke="#757575" points="586.62,-67.58 596.82,-64.72 587.06,-60.59 586.62,-67.58"/>
</g>
<!-- dist/redis/redis&#45;manager.js -->
<g id="node20" class="node">
<title>dist/redis/redis&#45;manager.js</title>
<path fill="none" stroke="#c6c5fe" d="M765.33,-356.24C765.33,-356.24 605.67,-356.24 605.67,-356.24 601.83,-356.24 598,-352.41 598,-348.58 598,-348.58 598,-340.91 598,-340.91 598,-337.08 601.83,-333.24 605.67,-333.24 605.67,-333.24 765.33,-333.24 765.33,-333.24 769.17,-333.24 773,-337.08 773,-340.91 773,-340.91 773,-348.58 773,-348.58 773,-352.41 769.17,-356.24 765.33,-356.24"/>
<text text-anchor="middle" x="685.5" y="-341.04" font-family="Arial" font-size="14.00" fill="#c6c5fe">dist/redis/redis&#45;manager.js</text>
</g>
<!-- dist/index.js&#45;&gt;dist/redis/redis&#45;manager.js -->
<g id="edge38" class="edge">
<title>dist/index.js&#45;&gt;dist/redis/redis&#45;manager.js</title>
<path fill="none" stroke="#757575" d="M55.8,-470.23C70.08,-456.45 96.05,-433.86 123,-422.74 276.89,-359.26 472.55,-345.61 587.6,-343.66"/>
<polygon fill="#757575" stroke="#757575" points="587.84,-347.16 597.79,-343.52 587.74,-340.16 587.84,-347.16"/>
</g>
<!-- dist/redis/redis.constants.js -->
<g id="node21" class="node">
<title>dist/redis/redis.constants.js</title>
<path fill="none" stroke="#cfffac" d="M1590.33,-166.24C1590.33,-166.24 1426.67,-166.24 1426.67,-166.24 1422.83,-166.24 1419,-162.41 1419,-158.58 1419,-158.58 1419,-150.91 1419,-150.91 1419,-147.08 1422.83,-143.24 1426.67,-143.24 1426.67,-143.24 1590.33,-143.24 1590.33,-143.24 1594.17,-143.24 1598,-147.08 1598,-150.91 1598,-150.91 1598,-158.58 1598,-158.58 1598,-162.41 1594.17,-166.24 1590.33,-166.24"/>
<text text-anchor="middle" x="1508.5" y="-151.04" font-family="Arial" font-size="14.00" fill="#cfffac">dist/redis/redis.constants.js</text>
</g>
<!-- dist/index.js&#45;&gt;dist/redis/redis.constants.js -->
<g id="edge39" class="edge">
<title>dist/index.js&#45;&gt;dist/redis/redis.constants.js</title>
<path fill="none" stroke="#757575" d="M45.33,-469.93C49.63,-411.67 71.3,-155.63 123,-98.74 222.9,11.17 293.97,-0.74 442.5,-0.74 442.5,-0.74 442.5,-0.74 957,-0.74 1145.36,-0.74 1195.72,-18.08 1373,-81.74 1412.81,-96.04 1455.13,-120.8 1481.44,-137.47"/>
<polygon fill="#757575" stroke="#757575" points="1479.74,-140.53 1490.05,-143 1483.52,-134.65 1479.74,-140.53"/>
</g>
<!-- dist/redis/redis.module.js -->
<g id="node22" class="node">
<title>dist/redis/redis.module.js</title>
<path fill="none" stroke="#c6c5fe" d="M291.33,-282.24C291.33,-282.24 140.67,-282.24 140.67,-282.24 136.83,-282.24 133,-278.41 133,-274.58 133,-274.58 133,-266.91 133,-266.91 133,-263.08 136.83,-259.24 140.67,-259.24 140.67,-259.24 291.33,-259.24 291.33,-259.24 295.17,-259.24 299,-263.08 299,-266.91 299,-266.91 299,-274.58 299,-274.58 299,-278.41 295.17,-282.24 291.33,-282.24"/>
<text text-anchor="middle" x="216" y="-267.04" font-family="Arial" font-size="14.00" fill="#c6c5fe">dist/redis/redis.module.js</text>
</g>
<!-- dist/index.js&#45;&gt;dist/redis/redis.module.js -->
<g id="edge40" class="edge">
<title>dist/index.js&#45;&gt;dist/redis/redis.module.js</title>
<path fill="none" stroke="#757575" d="M48.38,-470.12C57.74,-443.39 83.75,-376.49 123,-332.74 139.8,-314.02 163.41,-298.26 182.51,-287.32"/>
<polygon fill="#757575" stroke="#757575" points="184.42,-290.26 191.47,-282.34 181.03,-284.14 184.42,-290.26"/>
</g>
<!-- dist/redis/common/redis.decorator.js -->
<g id="node23" class="node">
<title>dist/redis/common/redis.decorator.js</title>
<path fill="none" stroke="#c6c5fe" d="M1065.33,-128.24C1065.33,-128.24 846.67,-128.24 846.67,-128.24 842.83,-128.24 839,-124.41 839,-120.58 839,-120.58 839,-112.91 839,-112.91 839,-109.08 842.83,-105.24 846.67,-105.24 846.67,-105.24 1065.33,-105.24 1065.33,-105.24 1069.17,-105.24 1073,-109.08 1073,-112.91 1073,-112.91 1073,-120.58 1073,-120.58 1073,-124.41 1069.17,-128.24 1065.33,-128.24"/>
<text text-anchor="middle" x="956" y="-113.04" font-family="Arial" font-size="14.00" fill="#c6c5fe">dist/redis/common/redis.decorator.js</text>
</g>
<!-- dist/redis/common/index.js&#45;&gt;dist/redis/common/redis.decorator.js -->
<g id="edge41" class="edge">
<title>dist/redis/common/index.js&#45;&gt;dist/redis/common/redis.decorator.js</title>
<path fill="none" stroke="#757575" d="M760.22,-86.28C794.71,-91.67 835.93,-98.12 871.55,-103.69"/>
<polygon fill="#757575" stroke="#757575" points="871.02,-107.15 881.44,-105.24 872.1,-100.23 871.02,-107.15"/>
</g>
<!-- dist/redis/common/redis.utils.js -->
<g id="node24" class="node">
<title>dist/redis/common/redis.utils.js</title>
<path fill="none" stroke="#c6c5fe" d="M1049.33,-87.24C1049.33,-87.24 862.67,-87.24 862.67,-87.24 858.83,-87.24 855,-83.41 855,-79.58 855,-79.58 855,-71.91 855,-71.91 855,-68.08 858.83,-64.24 862.67,-64.24 862.67,-64.24 1049.33,-64.24 1049.33,-64.24 1053.17,-64.24 1057,-68.08 1057,-71.91 1057,-71.91 1057,-79.58 1057,-79.58 1057,-83.41 1053.17,-87.24 1049.33,-87.24"/>
<text text-anchor="middle" x="956" y="-72.04" font-family="Arial" font-size="14.00" fill="#c6c5fe">dist/redis/common/redis.utils.js</text>
</g>
<!-- dist/redis/common/index.js&#45;&gt;dist/redis/common/redis.utils.js -->
<g id="edge42" class="edge">
<title>dist/redis/common/index.js&#45;&gt;dist/redis/common/redis.utils.js</title>
<path fill="none" stroke="#757575" d="M774.05,-75.07C796.68,-75.16 821.33,-75.25 844.95,-75.33"/>
<polygon fill="#757575" stroke="#757575" points="844.98,-78.84 855,-75.37 845.01,-71.84 844.98,-78.84"/>
</g>
<!-- dist/redis/redis&#45;manager.js&#45;&gt;dist/errors/index.js -->
<g id="edge50" class="edge">
<title>dist/redis/redis&#45;manager.js&#45;&gt;dist/errors/index.js</title>
<path fill="none" stroke="#757575" d="M718.93,-356.31C742.08,-365.96 772.62,-381.71 793,-403.74 819.19,-432.08 801.95,-455.23 829,-482.74 849.56,-503.65 878.85,-518.2 904.01,-527.73"/>
<polygon fill="#757575" stroke="#757575" points="902.83,-531.03 913.42,-531.14 905.21,-524.45 902.83,-531.03"/>
</g>
<!-- dist/redis/redis&#45;manager.js&#45;&gt;dist/messages/index.js -->
<g id="edge51" class="edge">
<title>dist/redis/redis&#45;manager.js&#45;&gt;dist/messages/index.js</title>
<path fill="none" stroke="#757575" d="M773.17,-343.71C987.42,-341.57 1530.3,-338.82 1608,-364.74 1645.11,-377.13 1680.49,-406.54 1701.09,-426.04"/>
<polygon fill="#757575" stroke="#757575" points="1698.87,-428.76 1708.48,-433.22 1703.74,-423.74 1698.87,-428.76"/>
</g>
<!-- dist/redis/redis&#45;manager.js&#45;&gt;dist/utils/index.js -->
<g id="edge53" class="edge">
<title>dist/redis/redis&#45;manager.js&#45;&gt;dist/utils/index.js</title>
<path fill="none" stroke="#757575" d="M773.09,-355.19C791.53,-357.21 810.89,-359.19 829,-360.74 952.05,-371.34 1095.96,-378.92 1178.2,-382.8"/>
<polygon fill="#757575" stroke="#757575" points="1178.26,-386.3 1188.41,-383.27 1178.59,-379.31 1178.26,-386.3"/>
</g>
<!-- dist/redis/redis&#45;manager.js&#45;&gt;dist/redis/redis.constants.js -->
<g id="edge52" class="edge">
<title>dist/redis/redis&#45;manager.js&#45;&gt;dist/redis/redis.constants.js</title>
<path fill="none" stroke="#757575" d="M773.26,-337.31C932.55,-322.86 1265.21,-288.66 1373,-246.74 1417.77,-229.33 1462.33,-194.54 1487.25,-173.09"/>
<polygon fill="#757575" stroke="#757575" points="1489.71,-175.59 1494.92,-166.37 1485.1,-170.33 1489.71,-175.59"/>
</g>
<!-- dist/redis/redis.module.js&#45;&gt;dist/errors/index.js -->
<g id="edge54" class="edge">
<title>dist/redis/redis.module.js&#45;&gt;dist/errors/index.js</title>
<path fill="none" stroke="#757575" d="M223.88,-282.29C247.75,-322.16 326.53,-452.24 345,-463.74 433.38,-518.78 741.04,-535.81 882.65,-540.8"/>
<polygon fill="#757575" stroke="#757575" points="882.85,-544.31 892.96,-541.15 883.08,-537.31 882.85,-544.31"/>
</g>
<!-- dist/redis/redis.module.js&#45;&gt;dist/messages/index.js -->
<g id="edge55" class="edge">
<title>dist/redis/redis.module.js&#45;&gt;dist/messages/index.js</title>
<path fill="none" stroke="#757575" d="M242.5,-282.33C267.99,-293.53 308.54,-310.28 345,-320.74 446.3,-349.82 473.52,-350.96 578,-364.74 970.12,-416.46 1442.72,-436.12 1633.47,-442.31"/>
<polygon fill="#757575" stroke="#757575" points="1633.61,-445.82 1643.71,-442.64 1633.83,-438.82 1633.61,-445.82"/>
</g>
<!-- dist/redis/redis.module.js&#45;&gt;dist/utils/index.js -->
<g id="edge61" class="edge">
<title>dist/redis/redis.module.js&#45;&gt;dist/utils/index.js</title>
<path fill="none" stroke="#757575" d="M299.26,-273.71C365.03,-276.47 459.55,-281.29 542,-288.74 783.35,-310.57 843.42,-320.27 1083,-356.74 1114.33,-361.52 1148.93,-367.6 1178.07,-372.96"/>
<polygon fill="#757575" stroke="#757575" points="1177.67,-376.44 1188.14,-374.82 1178.94,-369.56 1177.67,-376.44"/>
</g>
<!-- dist/redis/redis.module.js&#45;&gt;dist/redis/common/index.js -->
<g id="edge56" class="edge">
<title>dist/redis/redis.module.js&#45;&gt;dist/redis/common/index.js</title>
<path fill="none" stroke="#757575" d="M223.96,-259.2C240.9,-232.24 287.16,-165.02 345,-133.74 385.81,-111.68 501.8,-94.69 586.89,-84.73"/>
<polygon fill="#757575" stroke="#757575" points="587.31,-88.2 596.84,-83.58 586.51,-81.25 587.31,-88.2"/>
</g>
<!-- dist/redis/redis.module.js&#45;&gt;dist/redis/redis&#45;manager.js -->
<g id="edge58" class="edge">
<title>dist/redis/redis.module.js&#45;&gt;dist/redis/redis&#45;manager.js</title>
<path fill="none" stroke="#757575" d="M289.79,-282.27C374.18,-295.62 512.98,-317.6 601.49,-331.61"/>
<polygon fill="#757575" stroke="#757575" points="601.07,-335.08 611.5,-333.19 602.17,-328.17 601.07,-335.08"/>
</g>
<!-- dist/redis/redis.module.js&#45;&gt;dist/redis/redis.constants.js -->
<g id="edge59" class="edge">
<title>dist/redis/redis.module.js&#45;&gt;dist/redis/redis.constants.js</title>
<path fill="none" stroke="#757575" d="M299.17,-260.01C392.41,-248.77 549.12,-232.74 684.5,-232.74 684.5,-232.74 684.5,-232.74 957,-232.74 1142.78,-232.74 1190.33,-225.62 1373,-191.74 1403.06,-186.17 1436.18,-177.1 1462.03,-169.33"/>
<polygon fill="#757575" stroke="#757575" points="1463.38,-172.58 1471.92,-166.32 1461.33,-165.88 1463.38,-172.58"/>
</g>
<!-- dist/redis/redis&#45;logger.js -->
<g id="node25" class="node">
<title>dist/redis/redis&#45;logger.js</title>
<path fill="none" stroke="#c6c5fe" d="M1317.33,-166.24C1317.33,-166.24 1174.67,-166.24 1174.67,-166.24 1170.83,-166.24 1167,-162.41 1167,-158.58 1167,-158.58 1167,-150.91 1167,-150.91 1167,-147.08 1170.83,-143.24 1174.67,-143.24 1174.67,-143.24 1317.33,-143.24 1317.33,-143.24 1321.17,-143.24 1325,-147.08 1325,-150.91 1325,-150.91 1325,-158.58 1325,-158.58 1325,-162.41 1321.17,-166.24 1317.33,-166.24"/>
<text text-anchor="middle" x="1246" y="-151.04" font-family="Arial" font-size="14.00" fill="#c6c5fe">dist/redis/redis&#45;logger.js</text>
</g>
<!-- dist/redis/redis.module.js&#45;&gt;dist/redis/redis&#45;logger.js -->
<g id="edge57" class="edge">
<title>dist/redis/redis.module.js&#45;&gt;dist/redis/redis&#45;logger.js</title>
<path fill="none" stroke="#757575" d="M239.41,-259.1C264.42,-246.72 306.45,-227.71 345,-218.74 422.59,-200.71 945.13,-170.92 1156.51,-159.45"/>
<polygon fill="#757575" stroke="#757575" points="1156.85,-162.94 1166.64,-158.9 1156.47,-155.95 1156.85,-162.94"/>
</g>
<!-- dist/redis/redis.providers.js -->
<g id="node27" class="node">
<title>dist/redis/redis.providers.js</title>
<path fill="none" stroke="#c6c5fe" d="M523.83,-166.24C523.83,-166.24 363.17,-166.24 363.17,-166.24 359.33,-166.24 355.5,-162.41 355.5,-158.58 355.5,-158.58 355.5,-150.91 355.5,-150.91 355.5,-147.08 359.33,-143.24 363.17,-143.24 363.17,-143.24 523.83,-143.24 523.83,-143.24 527.67,-143.24 531.5,-147.08 531.5,-150.91 531.5,-150.91 531.5,-158.58 531.5,-158.58 531.5,-162.41 527.67,-166.24 523.83,-166.24"/>
<text text-anchor="middle" x="443.5" y="-151.04" font-family="Arial" font-size="14.00" fill="#c6c5fe">dist/redis/redis.providers.js</text>
</g>
<!-- dist/redis/redis.module.js&#45;&gt;dist/redis/redis.providers.js -->
<g id="edge60" class="edge">
<title>dist/redis/redis.module.js&#45;&gt;dist/redis/redis.providers.js</title>
<path fill="none" stroke="#757575" d="M230.21,-259.03C252.39,-239.94 299.21,-202.12 345,-180.74 354.72,-176.21 365.37,-172.35 375.95,-169.11"/>
<polygon fill="#757575" stroke="#757575" points="376.99,-172.46 385.62,-166.31 375.04,-165.73 376.99,-172.46"/>
</g>
<!-- dist/redis/common/redis.decorator.js&#45;&gt;dist/utils/index.js -->
<g id="edge44" class="edge">
<title>dist/redis/common/redis.decorator.js&#45;&gt;dist/utils/index.js</title>
<path fill="none" stroke="#757575" d="M969.38,-128.3C1014.42,-170.38 1169.92,-315.62 1225.26,-367.31"/>
<polygon fill="#757575" stroke="#757575" points="1222.97,-369.96 1232.67,-374.23 1227.75,-364.85 1222.97,-369.96"/>
</g>
<!-- dist/redis/common/redis.decorator.js&#45;&gt;dist/redis/redis.constants.js -->
<g id="edge43" class="edge">
<title>dist/redis/common/redis.decorator.js&#45;&gt;dist/redis/redis.constants.js</title>
<path fill="none" stroke="#757575" d="M1073.35,-117.95C1156.91,-119.69 1272.11,-123.84 1373,-133.74 1392.63,-135.67 1413.75,-138.57 1433.31,-141.61"/>
<polygon fill="#757575" stroke="#757575" points="1432.96,-145.1 1443.38,-143.21 1434.05,-138.18 1432.96,-145.1"/>
</g>
<!-- dist/redis/common/redis.utils.js&#45;&gt;dist/messages/index.js -->
<g id="edge45" class="edge">
<title>dist/redis/common/redis.utils.js&#45;&gt;dist/messages/index.js</title>
<path fill="none" stroke="#757575" d="M996.7,-64.15C1110.59,-33.58 1440.87,35.7 1608,-133.74 1663.46,-189.97 1616.64,-233.67 1644,-307.74 1660.26,-351.76 1688.96,-398.77 1705.91,-424.68"/>
<polygon fill="#757575" stroke="#757575" points="1703.13,-426.83 1711.57,-433.23 1708.96,-422.96 1703.13,-426.83"/>
</g>
<!-- dist/redis/common/redis.utils.js&#45;&gt;dist/utils/index.js -->
<g id="edge48" class="edge">
<title>dist/redis/common/redis.utils.js&#45;&gt;dist/utils/index.js</title>
<path fill="none" stroke="#757575" d="M1057.16,-82.04C1066.43,-85.38 1075.24,-89.84 1083,-95.74 1113.71,-119.11 1101.08,-140.57 1119,-174.74 1156.81,-246.85 1208.26,-328.7 1232.01,-365.7"/>
<polygon fill="#757575" stroke="#757575" points="1229.07,-367.6 1237.43,-374.11 1234.95,-363.81 1229.07,-367.6"/>
</g>
<!-- dist/redis/common/redis.utils.js&#45;&gt;dist/redis/redis.constants.js -->
<g id="edge47" class="edge">
<title>dist/redis/common/redis.utils.js&#45;&gt;dist/redis/redis.constants.js</title>
<path fill="none" stroke="#757575" d="M1057.35,-80.15C1142.07,-85.11 1266.28,-95.33 1373,-115.74 1404.13,-121.7 1438.43,-131.7 1464.6,-140.09"/>
<polygon fill="#757575" stroke="#757575" points="1463.61,-143.45 1474.2,-143.21 1465.78,-136.79 1463.61,-143.45"/>
</g>
<!-- dist/redis/common/redis.utils.js&#45;&gt;dist/redis/redis&#45;logger.js -->
<g id="edge46" class="edge">
<title>dist/redis/common/redis.utils.js&#45;&gt;dist/redis/redis&#45;logger.js</title>
<path fill="none" stroke="#757575" d="M1043.87,-87.29C1057.07,-89.69 1070.46,-92.5 1083,-95.74 1127.25,-107.2 1176.35,-125.98 1208.77,-139.27"/>
<polygon fill="#757575" stroke="#757575" points="1207.69,-142.62 1218.27,-143.21 1210.37,-136.15 1207.69,-142.62"/>
</g>
<!-- dist/redis/redis&#45;logger.js&#45;&gt;dist/redis/redis.constants.js -->
<g id="edge49" class="edge">
<title>dist/redis/redis&#45;logger.js&#45;&gt;dist/redis/redis.constants.js</title>
<path fill="none" stroke="#757575" d="M1325.16,-154.74C1351.45,-154.74 1381.14,-154.74 1408.8,-154.74"/>
<polygon fill="#757575" stroke="#757575" points="1408.89,-158.24 1418.89,-154.74 1408.89,-151.24 1408.89,-158.24"/>
</g>
<!-- dist/redis/default&#45;options.js -->
<g id="node26" class="node">
<title>dist/redis/default&#45;options.js</title>
<path fill="none" stroke="#cfffac" d="M765.83,-166.24C765.83,-166.24 605.17,-166.24 605.17,-166.24 601.33,-166.24 597.5,-162.41 597.5,-158.58 597.5,-158.58 597.5,-150.91 597.5,-150.91 597.5,-147.08 601.33,-143.24 605.17,-143.24 605.17,-143.24 765.83,-143.24 765.83,-143.24 769.67,-143.24 773.5,-147.08 773.5,-150.91 773.5,-150.91 773.5,-158.58 773.5,-158.58 773.5,-162.41 769.67,-166.24 765.83,-166.24"/>
<text text-anchor="middle" x="685.5" y="-151.04" font-family="Arial" font-size="14.00" fill="#cfffac">dist/redis/default&#45;options.js</text>
</g>
<!-- dist/redis/redis.providers.js&#45;&gt;dist/redis/common/index.js -->
<g id="edge62" class="edge">
<title>dist/redis/redis.providers.js&#45;&gt;dist/redis/common/index.js</title>
<path fill="none" stroke="#757575" d="M499.97,-143.23C514.07,-139.27 528.92,-134.18 542,-127.74 559.95,-118.92 559.92,-109.29 578,-100.74 587.82,-96.11 598.54,-92.24 609.29,-89.04"/>
<polygon fill="#757575" stroke="#757575" points="610.45,-92.35 619.14,-86.28 608.57,-85.61 610.45,-92.35"/>
</g>
<!-- dist/redis/redis.providers.js&#45;&gt;dist/redis/redis&#45;manager.js -->
<g id="edge64" class="edge">
<title>dist/redis/redis.providers.js&#45;&gt;dist/redis/redis&#45;manager.js</title>
<path fill="none" stroke="#757575" d="M459.15,-166.34C499.57,-198.34 612.88,-288.04 661.67,-326.67"/>
<polygon fill="#757575" stroke="#757575" points="659.72,-329.59 669.74,-333.06 664.07,-324.1 659.72,-329.59"/>
</g>
<!-- dist/redis/redis.providers.js&#45;&gt;dist/redis/redis.constants.js -->
<g id="edge65" class="edge">
<title>dist/redis/redis.providers.js&#45;&gt;dist/redis/redis.constants.js</title>
<path fill="none" stroke="#757575" d="M504.74,-143.23C527.59,-139.4 553.91,-135.63 578,-133.74 673.26,-126.3 697.63,-127.77 793,-133.74 865.87,-138.31 1046.13,-170.18 1119,-174.74 1231.67,-181.8 1260.42,-183.07 1373,-174.74 1392.65,-173.29 1413.78,-170.66 1433.34,-167.77"/>
<polygon fill="#757575" stroke="#757575" points="1434.04,-171.21 1443.41,-166.25 1432.99,-164.29 1434.04,-171.21"/>
</g>
<!-- dist/redis/redis.providers.js&#45;&gt;dist/redis/default&#45;options.js -->
<g id="edge63" class="edge">
<title>dist/redis/redis.providers.js&#45;&gt;dist/redis/default&#45;options.js</title>
<path fill="none" stroke="#757575" d="M531.82,-154.74C549.81,-154.74 568.85,-154.74 587.15,-154.74"/>
<polygon fill="#757575" stroke="#757575" points="587.24,-158.24 597.24,-154.74 587.24,-151.24 587.24,-158.24"/>
</g>
<!-- dist/utils/parsers.js&#45;&gt;dist/utils/is.js -->
<g id="edge69" class="edge">
<title>dist/utils/parsers.js&#45;&gt;dist/utils/is.js</title>
<path fill="none" stroke="#757575" d="M1572.51,-273.75C1601.67,-276.52 1636,-279.79 1664.15,-282.47"/>
<polygon fill="#757575" stroke="#757575" points="1663.93,-285.97 1674.22,-283.43 1664.59,-279 1663.93,-285.97"/>
</g>
<!-- dist/utils/promise&#45;timeout.js&#45;&gt;dist/messages/index.js -->
<g id="edge70" class="edge">
<title>dist/utils/promise&#45;timeout.js&#45;&gt;dist/messages/index.js</title>
<path fill="none" stroke="#757575" d="M1554.69,-397.37C1571.46,-401.77 1590.63,-406.88 1608,-411.74 1629.04,-417.63 1652.21,-424.44 1671.96,-430.34"/>
<polygon fill="#757575" stroke="#757575" points="1671.07,-433.72 1681.65,-433.24 1673.07,-427.02 1671.07,-433.72"/>
</g>
<!-- health/index.js -->
<g id="node31" class="node">
<title>health/index.js</title>
<path fill="none" stroke="#c6c5fe" d="M259.83,-455.24C259.83,-455.24 172.17,-455.24 172.17,-455.24 168.33,-455.24 164.5,-451.41 164.5,-447.58 164.5,-447.58 164.5,-439.91 164.5,-439.91 164.5,-436.08 168.33,-432.24 172.17,-432.24 172.17,-432.24 259.83,-432.24 259.83,-432.24 263.67,-432.24 267.5,-436.08 267.5,-439.91 267.5,-439.91 267.5,-447.58 267.5,-447.58 267.5,-451.41 263.67,-455.24 259.83,-455.24"/>
<text text-anchor="middle" x="216" y="-440.04" font-family="Arial" font-size="14.00" fill="#c6c5fe">health/index.js</text>
</g>
<!-- health/index.js&#45;&gt;dist/health/index.js -->
<g id="edge71" class="edge">
<title>health/index.js&#45;&gt;dist/health/index.js</title>
<path fill="none" stroke="#757575" d="M267.61,-443.74C297.5,-443.74 335.86,-443.74 369.04,-443.74"/>
<polygon fill="#757575" stroke="#757575" points="369.15,-447.24 379.15,-443.74 369.15,-440.24 369.15,-447.24"/>
</g>
</g>
</svg>
