<?xml version="1.0" encoding="UTF-8" standalone="no"?>
<!DOCTYPE svg PUBLIC "-//W3C//DTD SVG 1.1//EN"
 "http://www.w3.org/Graphics/SVG/1.1/DTD/svg11.dtd">
<!-- Generated by graphviz version 2.43.0 (0)
 -->
<!-- Title: G Pages: 1 -->
<svg width="1197pt" height="107pt"
 viewBox="0.00 0.00 1197.20 107.20" xmlns="http://www.w3.org/2000/svg" xmlns:xlink="http://www.w3.org/1999/xlink">
<g id="graph0" class="graph" transform="scale(1 1) rotate(0) translate(21.6 85.6)">
<title>G</title>
<polygon fill="#111111" stroke="transparent" points="-21.6,21.6 -21.6,-85.6 1175.6,-85.6 1175.6,21.6 -21.6,21.6"/>
<!-- dist/errors/index.js -->
<g id="node1" class="node">
<title>dist/errors/index.js</title>
<path fill="none" stroke="#c6c5fe" d="M899.33,-43C899.33,-43 788.67,-43 788.67,-43 784.83,-43 781,-39.17 781,-35.33 781,-35.33 781,-27.67 781,-27.67 781,-23.83 784.83,-20 788.67,-20 788.67,-20 899.33,-20 899.33,-20 903.17,-20 907,-23.83 907,-27.67 907,-27.67 907,-35.33 907,-35.33 907,-39.17 903.17,-43 899.33,-43"/>
<text text-anchor="middle" x="844" y="-27.8" font-family="Arial" font-size="14.00" fill="#c6c5fe">dist/errors/index.js</text>
</g>
<!-- dist/errors/messages.constant.js -->
<g id="node2" class="node">
<title>dist/errors/messages.constant.js</title>
<path fill="none" stroke="#cfffac" d="M1146.33,-64C1146.33,-64 950.67,-64 950.67,-64 946.83,-64 943,-60.17 943,-56.33 943,-56.33 943,-48.67 943,-48.67 943,-44.83 946.83,-41 950.67,-41 950.67,-41 1146.33,-41 1146.33,-41 1150.17,-41 1154,-44.83 1154,-48.67 1154,-48.67 1154,-56.33 1154,-56.33 1154,-60.17 1150.17,-64 1146.33,-64"/>
<text text-anchor="middle" x="1048.5" y="-48.8" font-family="Arial" font-size="14.00" fill="#cfffac">dist/errors/messages.constant.js</text>
</g>
<!-- dist/errors/index.js&#45;&gt;dist/errors/messages.constant.js -->
<g id="edge1" class="edge">
<title>dist/errors/index.js&#45;&gt;dist/errors/messages.constant.js</title>
<path fill="none" stroke="#757575" d="M907.13,-37.94C915.41,-38.8 924.1,-39.7 932.93,-40.62"/>
<polygon fill="#757575" stroke="#757575" points="932.63,-44.11 942.94,-41.66 933.35,-37.14 932.63,-44.11"/>
</g>
<!-- dist/errors/redis.error.js -->
<g id="node3" class="node">
<title>dist/errors/redis.error.js</title>
<path fill="none" stroke="#cfffac" d="M1118.33,-23C1118.33,-23 978.67,-23 978.67,-23 974.83,-23 971,-19.17 971,-15.33 971,-15.33 971,-7.67 971,-7.67 971,-3.83 974.83,0 978.67,0 978.67,0 1118.33,0 1118.33,0 1122.17,0 1126,-3.83 1126,-7.67 1126,-7.67 1126,-15.33 1126,-15.33 1126,-19.17 1122.17,-23 1118.33,-23"/>
<text text-anchor="middle" x="1048.5" y="-7.8" font-family="Arial" font-size="14.00" fill="#cfffac">dist/errors/redis.error.js</text>
</g>
<!-- dist/errors/index.js&#45;&gt;dist/errors/redis.error.js -->
<g id="edge2" class="edge">
<title>dist/errors/index.js&#45;&gt;dist/errors/redis.error.js</title>
<path fill="none" stroke="#757575" d="M907.13,-25.36C924.1,-23.69 942.81,-21.84 960.87,-20.06"/>
<polygon fill="#757575" stroke="#757575" points="961.22,-23.54 970.83,-19.07 960.54,-16.57 961.22,-23.54"/>
</g>
<!-- dist/health/index.js -->
<g id="node4" class="node">
<title>dist/health/index.js</title>
<path fill="none" stroke="#c6c5fe" d="M223.33,-43C223.33,-43 110.67,-43 110.67,-43 106.83,-43 103,-39.17 103,-35.33 103,-35.33 103,-27.67 103,-27.67 103,-23.83 106.83,-20 110.67,-20 110.67,-20 223.33,-20 223.33,-20 227.17,-20 231,-23.83 231,-27.67 231,-27.67 231,-35.33 231,-35.33 231,-39.17 227.17,-43 223.33,-43"/>
<text text-anchor="middle" x="167" y="-27.8" font-family="Arial" font-size="14.00" fill="#c6c5fe">dist/health/index.js</text>
</g>
<!-- dist/health/indicators/redis.health.js -->
<g id="node5" class="node">
<title>dist/health/indicators/redis.health.js</title>
<path fill="none" stroke="#c6c5fe" d="M737.33,-43C737.33,-43 525.67,-43 525.67,-43 521.83,-43 518,-39.17 518,-35.33 518,-35.33 518,-27.67 518,-27.67 518,-23.83 521.83,-20 525.67,-20 525.67,-20 737.33,-20 737.33,-20 741.17,-20 745,-23.83 745,-27.67 745,-27.67 745,-35.33 745,-35.33 745,-39.17 741.17,-43 737.33,-43"/>
<text text-anchor="middle" x="631.5" y="-27.8" font-family="Arial" font-size="14.00" fill="#c6c5fe">dist/health/indicators/redis.health.js</text>
</g>
<!-- dist/health/index.js&#45;&gt;dist/health/indicators/redis.health.js -->
<g id="edge3" class="edge">
<title>dist/health/index.js&#45;&gt;dist/health/indicators/redis.health.js</title>
<path fill="none" stroke="#757575" d="M231.11,-32.23C243.03,-32.34 255.4,-32.44 267,-32.5 362.55,-32.98 386.44,-32.82 482,-32.5 490.34,-32.47 498.94,-32.43 507.61,-32.39"/>
<polygon fill="#757575" stroke="#757575" points="507.82,-35.89 517.8,-32.34 507.78,-28.89 507.82,-35.89"/>
</g>
<!-- dist/health/redis&#45;health.module.js -->
<g id="node6" class="node">
<title>dist/health/redis&#45;health.module.js</title>
<path fill="none" stroke="#c6c5fe" d="M474.33,-23C474.33,-23 274.67,-23 274.67,-23 270.83,-23 267,-19.17 267,-15.33 267,-15.33 267,-7.67 267,-7.67 267,-3.83 270.83,0 274.67,0 274.67,0 474.33,0 474.33,0 478.17,0 482,-3.83 482,-7.67 482,-7.67 482,-15.33 482,-15.33 482,-19.17 478.17,-23 474.33,-23"/>
<text text-anchor="middle" x="374.5" y="-7.8" font-family="Arial" font-size="14.00" fill="#c6c5fe">dist/health/redis&#45;health.module.js</text>
</g>
<!-- dist/health/index.js&#45;&gt;dist/health/redis&#45;health.module.js -->
<g id="edge4" class="edge">
<title>dist/health/index.js&#45;&gt;dist/health/redis&#45;health.module.js</title>
<path fill="none" stroke="#757575" d="M231.05,-25.36C239.19,-24.57 247.73,-23.74 256.4,-22.9"/>
<polygon fill="#757575" stroke="#757575" points="257.02,-26.35 266.63,-21.9 256.34,-19.39 257.02,-26.35"/>
</g>
<!-- dist/health/indicators/redis.health.js&#45;&gt;dist/errors/index.js -->
<g id="edge5" class="edge">
<title>dist/health/indicators/redis.health.js&#45;&gt;dist/errors/index.js</title>
<path fill="none" stroke="#757575" d="M745.14,-31.5C753.74,-31.5 762.26,-31.5 770.49,-31.5"/>
<polygon fill="#757575" stroke="#757575" points="770.74,-35 780.74,-31.5 770.74,-28 770.74,-35"/>
</g>
<!-- dist/health/redis&#45;health.module.js&#45;&gt;dist/health/indicators/redis.health.js -->
<g id="edge6" class="edge">
<title>dist/health/redis&#45;health.module.js&#45;&gt;dist/health/indicators/redis.health.js</title>
<path fill="none" stroke="#757575" d="M482.17,-19.87C490.6,-20.53 499.16,-21.2 507.7,-21.87"/>
<polygon fill="#757575" stroke="#757575" points="507.45,-25.36 517.69,-22.65 507.99,-18.38 507.45,-25.36"/>
</g>
<!-- health.js -->
<g id="node7" class="node">
<title>health.js</title>
<path fill="none" stroke="#c6c5fe" d="M59.33,-43C59.33,-43 7.67,-43 7.67,-43 3.83,-43 0,-39.17 0,-35.33 0,-35.33 0,-27.67 0,-27.67 0,-23.83 3.83,-20 7.67,-20 7.67,-20 59.33,-20 59.33,-20 63.17,-20 67,-23.83 67,-27.67 67,-27.67 67,-35.33 67,-35.33 67,-39.17 63.17,-43 59.33,-43"/>
<text text-anchor="middle" x="33.5" y="-27.8" font-family="Arial" font-size="14.00" fill="#c6c5fe">health.js</text>
</g>
<!-- health.js&#45;&gt;dist/health/index.js -->
<g id="edge7" class="edge">
<title>health.js&#45;&gt;dist/health/index.js</title>
<path fill="none" stroke="#757575" d="M67.01,-31.5C74.91,-31.5 83.68,-31.5 92.64,-31.5"/>
<polygon fill="#757575" stroke="#757575" points="92.81,-35 102.81,-31.5 92.81,-28 92.81,-35"/>
</g>
</g>
</svg>
