<?xml version="1.0" encoding="UTF-8" standalone="no"?>
<!DOCTYPE svg PUBLIC "-//W3C//DTD SVG 1.1//EN"
 "http://www.w3.org/Graphics/SVG/1.1/DTD/svg11.dtd">
<!-- Generated by graphviz version 2.43.0 (0)
 -->
<!-- Title: G Pages: 1 -->
<svg width="1576pt" height="862pt"
 viewBox="0.00 0.00 1576.20 862.20" xmlns="http://www.w3.org/2000/svg" xmlns:xlink="http://www.w3.org/1999/xlink">
<g id="graph0" class="graph" transform="scale(1 1) rotate(0) translate(21.6 840.6)">
<title>G</title>
<polygon fill="#111111" stroke="transparent" points="-21.6,21.6 -21.6,-840.6 1554.6,-840.6 1554.6,21.6 -21.6,21.6"/>
<!-- dist/cluster/cluster&#45;logger.js -->
<g id="node1" class="node">
<title>dist/cluster/cluster&#45;logger.js</title>
<path fill="none" stroke="#c6c5fe" d="M1290.33,-675.5C1290.33,-675.5 1126.67,-675.5 1126.67,-675.5 1122.83,-675.5 1119,-671.67 1119,-667.83 1119,-667.83 1119,-660.17 1119,-660.17 1119,-656.33 1122.83,-652.5 1126.67,-652.5 1126.67,-652.5 1290.33,-652.5 1290.33,-652.5 1294.17,-652.5 1298,-656.33 1298,-660.17 1298,-660.17 1298,-667.83 1298,-667.83 1298,-671.67 1294.17,-675.5 1290.33,-675.5"/>
<text text-anchor="middle" x="1208.5" y="-660.3" font-family="Arial" font-size="14.00" fill="#c6c5fe">dist/cluster/cluster&#45;logger.js</text>
</g>
<!-- dist/cluster/cluster.constants.js -->
<g id="node2" class="node">
<title>dist/cluster/cluster.constants.js</title>
<path fill="none" stroke="#cfffac" d="M1525.33,-715.5C1525.33,-715.5 1341.67,-715.5 1341.67,-715.5 1337.83,-715.5 1334,-711.67 1334,-707.83 1334,-707.83 1334,-700.17 1334,-700.17 1334,-696.33 1337.83,-692.5 1341.67,-692.5 1341.67,-692.5 1525.33,-692.5 1525.33,-692.5 1529.17,-692.5 1533,-696.33 1533,-700.17 1533,-700.17 1533,-707.83 1533,-707.83 1533,-711.67 1529.17,-715.5 1525.33,-715.5"/>
<text text-anchor="middle" x="1433.5" y="-700.3" font-family="Arial" font-size="14.00" fill="#cfffac">dist/cluster/cluster.constants.js</text>
</g>
<!-- dist/cluster/cluster&#45;logger.js&#45;&gt;dist/cluster/cluster.constants.js -->
<g id="edge1" class="edge">
<title>dist/cluster/cluster&#45;logger.js&#45;&gt;dist/cluster/cluster.constants.js</title>
<path fill="none" stroke="#757575" d="M1273.7,-675.52C1300.17,-680.26 1331.01,-685.8 1358.43,-690.71"/>
<polygon fill="#757575" stroke="#757575" points="1357.9,-694.18 1368.37,-692.5 1359.14,-687.29 1357.9,-694.18"/>
</g>
<!-- dist/cluster/cluster&#45;manager.js -->
<g id="node3" class="node">
<title>dist/cluster/cluster&#45;manager.js</title>
<path fill="none" stroke="#c6c5fe" d="M1046.33,-519.5C1046.33,-519.5 865.67,-519.5 865.67,-519.5 861.83,-519.5 858,-515.67 858,-511.83 858,-511.83 858,-504.17 858,-504.17 858,-500.33 861.83,-496.5 865.67,-496.5 865.67,-496.5 1046.33,-496.5 1046.33,-496.5 1050.17,-496.5 1054,-500.33 1054,-504.17 1054,-504.17 1054,-511.83 1054,-511.83 1054,-515.67 1050.17,-519.5 1046.33,-519.5"/>
<text text-anchor="middle" x="956" y="-504.3" font-family="Arial" font-size="14.00" fill="#c6c5fe">dist/cluster/cluster&#45;manager.js</text>
</g>
<!-- dist/cluster/cluster&#45;manager.js&#45;&gt;dist/cluster/cluster.constants.js -->
<g id="edge2" class="edge">
<title>dist/cluster/cluster&#45;manager.js&#45;&gt;dist/cluster/cluster.constants.js</title>
<path fill="none" stroke="#757575" d="M1006.83,-519.51C1074.67,-536.15 1198.97,-570.17 1298,-617 1339.56,-636.66 1383.53,-667.2 1409.47,-686.38"/>
<polygon fill="#757575" stroke="#757575" points="1407.44,-689.23 1417.54,-692.42 1411.63,-683.63 1407.44,-689.23"/>
</g>
<!-- dist/messages/index.js -->
<g id="node4" class="node">
<title>dist/messages/index.js</title>
<path fill="none" stroke="#cfffac" d="M1277.33,-400.5C1277.33,-400.5 1139.67,-400.5 1139.67,-400.5 1135.83,-400.5 1132,-396.67 1132,-392.83 1132,-392.83 1132,-385.17 1132,-385.17 1132,-381.33 1135.83,-377.5 1139.67,-377.5 1139.67,-377.5 1277.33,-377.5 1277.33,-377.5 1281.17,-377.5 1285,-381.33 1285,-385.17 1285,-385.17 1285,-392.83 1285,-392.83 1285,-396.67 1281.17,-400.5 1277.33,-400.5"/>
<text text-anchor="middle" x="1208.5" y="-385.3" font-family="Arial" font-size="14.00" fill="#cfffac">dist/messages/index.js</text>
</g>
<!-- dist/cluster/cluster&#45;manager.js&#45;&gt;dist/messages/index.js -->
<g id="edge3" class="edge">
<title>dist/cluster/cluster&#45;manager.js&#45;&gt;dist/messages/index.js</title>
<path fill="none" stroke="#757575" d="M981.48,-496.37C1026.47,-475 1122.38,-429.44 1173.6,-405.1"/>
<polygon fill="#757575" stroke="#757575" points="1175.39,-408.13 1182.93,-400.67 1172.39,-401.8 1175.39,-408.13"/>
</g>
<!-- dist/utils/index.js -->
<g id="node5" class="node">
<title>dist/utils/index.js</title>
<path fill="none" stroke="#cfffac" d="M1258.33,-499.5C1258.33,-499.5 1158.67,-499.5 1158.67,-499.5 1154.83,-499.5 1151,-495.67 1151,-491.83 1151,-491.83 1151,-484.17 1151,-484.17 1151,-480.33 1154.83,-476.5 1158.67,-476.5 1158.67,-476.5 1258.33,-476.5 1258.33,-476.5 1262.17,-476.5 1266,-480.33 1266,-484.17 1266,-484.17 1266,-491.83 1266,-491.83 1266,-495.67 1262.17,-499.5 1258.33,-499.5"/>
<text text-anchor="middle" x="1208.5" y="-484.3" font-family="Arial" font-size="14.00" fill="#cfffac">dist/utils/index.js</text>
</g>
<!-- dist/cluster/cluster&#45;manager.js&#45;&gt;dist/utils/index.js -->
<g id="edge4" class="edge">
<title>dist/cluster/cluster&#45;manager.js&#45;&gt;dist/utils/index.js</title>
<path fill="none" stroke="#757575" d="M1054.21,-500.24C1083.1,-497.93 1114.1,-495.46 1140.6,-493.34"/>
<polygon fill="#757575" stroke="#757575" points="1141.22,-496.8 1150.91,-492.52 1140.66,-489.83 1141.22,-496.8"/>
</g>
<!-- dist/cluster/cluster.module.js -->
<g id="node6" class="node">
<title>dist/cluster/cluster.module.js</title>
<path fill="none" stroke="#c6c5fe" d="M301.33,-655.5C301.33,-655.5 130.67,-655.5 130.67,-655.5 126.83,-655.5 123,-651.67 123,-647.83 123,-647.83 123,-640.17 123,-640.17 123,-636.33 126.83,-632.5 130.67,-632.5 130.67,-632.5 301.33,-632.5 301.33,-632.5 305.17,-632.5 309,-636.33 309,-640.17 309,-640.17 309,-647.83 309,-647.83 309,-651.67 305.17,-655.5 301.33,-655.5"/>
<text text-anchor="middle" x="216" y="-640.3" font-family="Arial" font-size="14.00" fill="#c6c5fe">dist/cluster/cluster.module.js</text>
</g>
<!-- dist/cluster/cluster.module.js&#45;&gt;dist/cluster/cluster&#45;logger.js -->
<g id="edge5" class="edge">
<title>dist/cluster/cluster.module.js&#45;&gt;dist/cluster/cluster&#45;logger.js</title>
<path fill="none" stroke="#757575" d="M235.6,-655.72C259.73,-670.17 303.65,-693.93 345,-703 639.18,-767.54 1002.89,-706.74 1145.77,-677.6"/>
<polygon fill="#757575" stroke="#757575" points="1146.58,-681 1155.67,-675.56 1145.17,-674.15 1146.58,-681"/>
</g>
<!-- dist/cluster/cluster.module.js&#45;&gt;dist/cluster/cluster.constants.js -->
<g id="edge7" class="edge">
<title>dist/cluster/cluster.module.js&#45;&gt;dist/cluster/cluster.constants.js</title>
<path fill="none" stroke="#757575" d="M230.1,-655.58C252.12,-674.34 298.72,-711.1 345,-729 487.37,-784.07 531.85,-781 684.5,-781 684.5,-781 684.5,-781 957,-781 1112.66,-781 1293.33,-740.3 1380.36,-718.08"/>
<polygon fill="#757575" stroke="#757575" points="1381.44,-721.41 1390.25,-715.53 1379.69,-714.63 1381.44,-721.41"/>
</g>
<!-- dist/cluster/cluster.module.js&#45;&gt;dist/cluster/cluster&#45;manager.js -->
<g id="edge6" class="edge">
<title>dist/cluster/cluster.module.js&#45;&gt;dist/cluster/cluster&#45;manager.js</title>
<path fill="none" stroke="#757575" d="M228.39,-632.34C249.29,-611.82 296.12,-569.73 345,-552 512.59,-491.2 722.75,-491.23 847.55,-498.45"/>
<polygon fill="#757575" stroke="#757575" points="847.67,-501.96 857.87,-499.07 848.1,-494.97 847.67,-501.96"/>
</g>
<!-- dist/cluster/cluster.module.js&#45;&gt;dist/messages/index.js -->
<g id="edge10" class="edge">
<title>dist/cluster/cluster.module.js&#45;&gt;dist/messages/index.js</title>
<path fill="none" stroke="#757575" d="M223.83,-632.12C240.48,-604.4 286.16,-535.48 345,-505 638.7,-352.86 755.68,-456.57 1083,-409 1097.52,-406.89 1112.97,-404.51 1127.88,-402.15"/>
<polygon fill="#757575" stroke="#757575" points="1128.76,-405.56 1138.08,-400.53 1127.66,-398.65 1128.76,-405.56"/>
</g>
<!-- dist/cluster/cluster.module.js&#45;&gt;dist/utils/index.js -->
<g id="edge11" class="edge">
<title>dist/cluster/cluster.module.js&#45;&gt;dist/utils/index.js</title>
<path fill="none" stroke="#757575" d="M298.24,-632.46C313.76,-630.29 329.88,-628.06 345,-626 672.8,-581.41 760.47,-602.62 1083,-529 1112.05,-522.37 1143.96,-511.79 1168.2,-503.04"/>
<polygon fill="#757575" stroke="#757575" points="1169.57,-506.27 1177.76,-499.55 1167.16,-499.7 1169.57,-506.27"/>
</g>
<!-- dist/cluster/cluster.providers.js -->
<g id="node7" class="node">
<title>dist/cluster/cluster.providers.js</title>
<path fill="none" stroke="#c6c5fe" d="M534.33,-693.5C534.33,-693.5 352.67,-693.5 352.67,-693.5 348.83,-693.5 345,-689.67 345,-685.83 345,-685.83 345,-678.17 345,-678.17 345,-674.33 348.83,-670.5 352.67,-670.5 352.67,-670.5 534.33,-670.5 534.33,-670.5 538.17,-670.5 542,-674.33 542,-678.17 542,-678.17 542,-685.83 542,-685.83 542,-689.67 538.17,-693.5 534.33,-693.5"/>
<text text-anchor="middle" x="443.5" y="-678.3" font-family="Arial" font-size="14.00" fill="#c6c5fe">dist/cluster/cluster.providers.js</text>
</g>
<!-- dist/cluster/cluster.module.js&#45;&gt;dist/cluster/cluster.providers.js -->
<g id="edge8" class="edge">
<title>dist/cluster/cluster.module.js&#45;&gt;dist/cluster/cluster.providers.js</title>
<path fill="none" stroke="#757575" d="M285.27,-655.5C310.1,-659.69 338.36,-664.45 364.01,-668.77"/>
<polygon fill="#757575" stroke="#757575" points="363.63,-672.26 374.07,-670.47 364.79,-665.36 363.63,-672.26"/>
</g>
<!-- dist/cluster/common/index.js -->
<g id="node8" class="node">
<title>dist/cluster/common/index.js</title>
<path fill="none" stroke="#c6c5fe" d="M771.83,-635.5C771.83,-635.5 599.17,-635.5 599.17,-635.5 595.33,-635.5 591.5,-631.67 591.5,-627.83 591.5,-627.83 591.5,-620.17 591.5,-620.17 591.5,-616.33 595.33,-612.5 599.17,-612.5 599.17,-612.5 771.83,-612.5 771.83,-612.5 775.67,-612.5 779.5,-616.33 779.5,-620.17 779.5,-620.17 779.5,-627.83 779.5,-627.83 779.5,-631.67 775.67,-635.5 771.83,-635.5"/>
<text text-anchor="middle" x="685.5" y="-620.3" font-family="Arial" font-size="14.00" fill="#c6c5fe">dist/cluster/common/index.js</text>
</g>
<!-- dist/cluster/cluster.module.js&#45;&gt;dist/cluster/common/index.js -->
<g id="edge9" class="edge">
<title>dist/cluster/cluster.module.js&#45;&gt;dist/cluster/common/index.js</title>
<path fill="none" stroke="#757575" d="M309.08,-640.06C387.4,-636.71 499.78,-631.9 581.15,-628.42"/>
<polygon fill="#757575" stroke="#757575" points="581.58,-631.91 591.42,-627.98 581.28,-624.91 581.58,-631.91"/>
</g>
<!-- dist/cluster/cluster.providers.js&#45;&gt;dist/cluster/cluster.constants.js -->
<g id="edge13" class="edge">
<title>dist/cluster/cluster.providers.js&#45;&gt;dist/cluster/cluster.constants.js</title>
<path fill="none" stroke="#757575" d="M542.21,-686.38C673.38,-692.01 913.69,-701.5 1119,-705 1198.54,-706.36 1218.44,-705.3 1298,-705 1306.31,-704.97 1314.9,-704.93 1323.55,-704.88"/>
<polygon fill="#757575" stroke="#757575" points="1323.73,-708.38 1333.7,-704.82 1323.68,-701.38 1323.73,-708.38"/>
</g>
<!-- dist/cluster/cluster.providers.js&#45;&gt;dist/cluster/cluster&#45;manager.js -->
<g id="edge12" class="edge">
<title>dist/cluster/cluster.providers.js&#45;&gt;dist/cluster/cluster&#45;manager.js</title>
<path fill="none" stroke="#757575" d="M460.99,-670.3C485.46,-653.44 533.29,-622.33 578,-604 677.13,-563.36 798.16,-536.23 875.89,-521.46"/>
<polygon fill="#757575" stroke="#757575" points="876.91,-524.83 886.09,-519.55 875.62,-517.95 876.91,-524.83"/>
</g>
<!-- dist/cluster/cluster.providers.js&#45;&gt;dist/cluster/common/index.js -->
<g id="edge14" class="edge">
<title>dist/cluster/cluster.providers.js&#45;&gt;dist/cluster/common/index.js</title>
<path fill="none" stroke="#757575" d="M489.25,-670.43C505.85,-666.04 524.82,-660.91 542,-656 558.09,-651.4 561.77,-649.07 578,-645 588.43,-642.39 599.49,-639.89 610.4,-637.6"/>
<polygon fill="#757575" stroke="#757575" points="611.26,-641 620.35,-635.55 609.84,-634.14 611.26,-641"/>
</g>
<!-- dist/cluster/default&#45;options.js -->
<g id="node9" class="node">
<title>dist/cluster/default&#45;options.js</title>
<path fill="none" stroke="#cfffac" d="M771.33,-676.5C771.33,-676.5 599.67,-676.5 599.67,-676.5 595.83,-676.5 592,-672.67 592,-668.83 592,-668.83 592,-661.17 592,-661.17 592,-657.33 595.83,-653.5 599.67,-653.5 599.67,-653.5 771.33,-653.5 771.33,-653.5 775.17,-653.5 779,-657.33 779,-661.17 779,-661.17 779,-668.83 779,-668.83 779,-672.67 775.17,-676.5 771.33,-676.5"/>
<text text-anchor="middle" x="685.5" y="-661.3" font-family="Arial" font-size="14.00" fill="#cfffac">dist/cluster/default&#45;options.js</text>
</g>
<!-- dist/cluster/cluster.providers.js&#45;&gt;dist/cluster/default&#45;options.js -->
<g id="edge15" class="edge">
<title>dist/cluster/cluster.providers.js&#45;&gt;dist/cluster/default&#45;options.js</title>
<path fill="none" stroke="#757575" d="M542.12,-675.09C555.02,-674.17 568.28,-673.23 581.27,-672.31"/>
<polygon fill="#757575" stroke="#757575" points="581.9,-675.78 591.62,-671.58 581.4,-668.79 581.9,-675.78"/>
</g>
<!-- dist/cluster/common/cluster.decorator.js -->
<g id="node10" class="node">
<title>dist/cluster/common/cluster.decorator.js</title>
<path fill="none" stroke="#c6c5fe" d="M1075.33,-676.5C1075.33,-676.5 836.67,-676.5 836.67,-676.5 832.83,-676.5 829,-672.67 829,-668.83 829,-668.83 829,-661.17 829,-661.17 829,-657.33 832.83,-653.5 836.67,-653.5 836.67,-653.5 1075.33,-653.5 1075.33,-653.5 1079.17,-653.5 1083,-657.33 1083,-661.17 1083,-661.17 1083,-668.83 1083,-668.83 1083,-672.67 1079.17,-676.5 1075.33,-676.5"/>
<text text-anchor="middle" x="956" y="-661.3" font-family="Arial" font-size="14.00" fill="#c6c5fe">dist/cluster/common/cluster.decorator.js</text>
</g>
<!-- dist/cluster/common/index.js&#45;&gt;dist/cluster/common/cluster.decorator.js -->
<g id="edge22" class="edge">
<title>dist/cluster/common/index.js&#45;&gt;dist/cluster/common/cluster.decorator.js</title>
<path fill="none" stroke="#757575" d="M762.01,-635.53C795.46,-640.64 834.99,-646.67 869.52,-651.95"/>
<polygon fill="#757575" stroke="#757575" points="869.18,-655.44 879.6,-653.49 870.24,-648.52 869.18,-655.44"/>
</g>
<!-- dist/cluster/common/cluster.utils.js -->
<g id="node11" class="node">
<title>dist/cluster/common/cluster.utils.js</title>
<path fill="none" stroke="#c6c5fe" d="M1059.33,-635.5C1059.33,-635.5 852.67,-635.5 852.67,-635.5 848.83,-635.5 845,-631.67 845,-627.83 845,-627.83 845,-620.17 845,-620.17 845,-616.33 848.83,-612.5 852.67,-612.5 852.67,-612.5 1059.33,-612.5 1059.33,-612.5 1063.17,-612.5 1067,-616.33 1067,-620.17 1067,-620.17 1067,-627.83 1067,-627.83 1067,-631.67 1063.17,-635.5 1059.33,-635.5"/>
<text text-anchor="middle" x="956" y="-620.3" font-family="Arial" font-size="14.00" fill="#c6c5fe">dist/cluster/common/cluster.utils.js</text>
</g>
<!-- dist/cluster/common/index.js&#45;&gt;dist/cluster/common/cluster.utils.js -->
<g id="edge23" class="edge">
<title>dist/cluster/common/index.js&#45;&gt;dist/cluster/common/cluster.utils.js</title>
<path fill="none" stroke="#757575" d="M779.65,-624C797.42,-624 816.24,-624 834.71,-624"/>
<polygon fill="#757575" stroke="#757575" points="834.93,-627.5 844.93,-624 834.93,-620.5 834.93,-627.5"/>
</g>
<!-- dist/cluster/common/cluster.decorator.js&#45;&gt;dist/cluster/cluster.constants.js -->
<g id="edge16" class="edge">
<title>dist/cluster/common/cluster.decorator.js&#45;&gt;dist/cluster/cluster.constants.js</title>
<path fill="none" stroke="#757575" d="M1042.23,-676.53C1066.96,-679.61 1094.03,-682.7 1119,-685 1186.88,-691.24 1263.23,-695.92 1323.58,-699.07"/>
<polygon fill="#757575" stroke="#757575" points="1323.73,-702.58 1333.89,-699.6 1324.09,-695.59 1323.73,-702.58"/>
</g>
<!-- dist/cluster/common/cluster.decorator.js&#45;&gt;dist/utils/index.js -->
<g id="edge17" class="edge">
<title>dist/cluster/common/cluster.decorator.js&#45;&gt;dist/utils/index.js</title>
<path fill="none" stroke="#757575" d="M1065.12,-653.48C1071.34,-651.1 1077.36,-648.3 1083,-645 1139.04,-612.25 1179.53,-543.84 1197.36,-509.15"/>
<polygon fill="#757575" stroke="#757575" points="1200.63,-510.44 1201.98,-499.93 1194.37,-507.3 1200.63,-510.44"/>
</g>
<!-- dist/cluster/common/cluster.utils.js&#45;&gt;dist/cluster/cluster&#45;logger.js -->
<g id="edge18" class="edge">
<title>dist/cluster/common/cluster.utils.js&#45;&gt;dist/cluster/cluster&#45;logger.js</title>
<path fill="none" stroke="#757575" d="M1029.12,-635.52C1059.25,-640.33 1094.41,-645.94 1125.51,-650.91"/>
<polygon fill="#757575" stroke="#757575" points="1125.03,-654.38 1135.46,-652.5 1126.13,-647.46 1125.03,-654.38"/>
</g>
<!-- dist/cluster/common/cluster.utils.js&#45;&gt;dist/cluster/cluster.constants.js -->
<g id="edge19" class="edge">
<title>dist/cluster/common/cluster.utils.js&#45;&gt;dist/cluster/cluster.constants.js</title>
<path fill="none" stroke="#757575" d="M1067.14,-620.49C1134.66,-620.78 1222.38,-625.57 1298,-644 1336.28,-653.33 1377.2,-673.16 1403.72,-687.48"/>
<polygon fill="#757575" stroke="#757575" points="1402.36,-690.72 1412.81,-692.47 1405.73,-684.59 1402.36,-690.72"/>
</g>
<!-- dist/cluster/common/cluster.utils.js&#45;&gt;dist/messages/index.js -->
<g id="edge20" class="edge">
<title>dist/cluster/common/cluster.utils.js&#45;&gt;dist/messages/index.js</title>
<path fill="none" stroke="#757575" d="M977.31,-612.26C1003.99,-596.09 1051.19,-564.87 1083,-529 1104.14,-505.16 1098.79,-491.63 1119,-467 1138.04,-443.8 1164.29,-421.6 1183.24,-406.86"/>
<polygon fill="#757575" stroke="#757575" points="1185.57,-409.48 1191.39,-400.63 1181.32,-403.92 1185.57,-409.48"/>
</g>
<!-- dist/cluster/common/cluster.utils.js&#45;&gt;dist/utils/index.js -->
<g id="edge21" class="edge">
<title>dist/cluster/common/cluster.utils.js&#45;&gt;dist/utils/index.js</title>
<path fill="none" stroke="#757575" d="M1043.4,-612.42C1057.06,-608.83 1070.71,-604.14 1083,-598 1127.97,-575.52 1169.41,-532.66 1191.29,-507.59"/>
<polygon fill="#757575" stroke="#757575" points="1194.09,-509.7 1197.94,-499.83 1188.77,-505.15 1194.09,-509.7"/>
</g>
<!-- dist/health/index.js -->
<g id="node12" class="node">
<title>dist/health/index.js</title>
<path fill="none" stroke="#c6c5fe" d="M499.83,-364.5C499.83,-364.5 387.17,-364.5 387.17,-364.5 383.33,-364.5 379.5,-360.67 379.5,-356.83 379.5,-356.83 379.5,-349.17 379.5,-349.17 379.5,-345.33 383.33,-341.5 387.17,-341.5 387.17,-341.5 499.83,-341.5 499.83,-341.5 503.67,-341.5 507.5,-345.33 507.5,-349.17 507.5,-349.17 507.5,-356.83 507.5,-356.83 507.5,-360.67 503.67,-364.5 499.83,-364.5"/>
<text text-anchor="middle" x="443.5" y="-349.3" font-family="Arial" font-size="14.00" fill="#c6c5fe">dist/health/index.js</text>
</g>
<!-- dist/health/indicators/redis.health.js -->
<g id="node13" class="node">
<title>dist/health/indicators/redis.health.js</title>
<path fill="none" stroke="#c6c5fe" d="M1061.83,-400.5C1061.83,-400.5 850.17,-400.5 850.17,-400.5 846.33,-400.5 842.5,-396.67 842.5,-392.83 842.5,-392.83 842.5,-385.17 842.5,-385.17 842.5,-381.33 846.33,-377.5 850.17,-377.5 850.17,-377.5 1061.83,-377.5 1061.83,-377.5 1065.67,-377.5 1069.5,-381.33 1069.5,-385.17 1069.5,-385.17 1069.5,-392.83 1069.5,-392.83 1069.5,-396.67 1065.67,-400.5 1061.83,-400.5"/>
<text text-anchor="middle" x="956" y="-385.3" font-family="Arial" font-size="14.00" fill="#c6c5fe">dist/health/indicators/redis.health.js</text>
</g>
<!-- dist/health/index.js&#45;&gt;dist/health/indicators/redis.health.js -->
<g id="edge24" class="edge">
<title>dist/health/index.js&#45;&gt;dist/health/indicators/redis.health.js</title>
<path fill="none" stroke="#757575" d="M507.61,-357.45C588.29,-363.14 729.75,-373.12 832.04,-380.33"/>
<polygon fill="#757575" stroke="#757575" points="831.91,-383.83 842.13,-381.04 832.4,-376.85 831.91,-383.83"/>
</g>
<!-- dist/health/redis&#45;health.module.js -->
<g id="node14" class="node">
<title>dist/health/redis&#45;health.module.js</title>
<path fill="none" stroke="#c6c5fe" d="M785.33,-327.5C785.33,-327.5 585.67,-327.5 585.67,-327.5 581.83,-327.5 578,-323.67 578,-319.83 578,-319.83 578,-312.17 578,-312.17 578,-308.33 581.83,-304.5 585.67,-304.5 585.67,-304.5 785.33,-304.5 785.33,-304.5 789.17,-304.5 793,-308.33 793,-312.17 793,-312.17 793,-319.83 793,-319.83 793,-323.67 789.17,-327.5 785.33,-327.5"/>
<text text-anchor="middle" x="685.5" y="-312.3" font-family="Arial" font-size="14.00" fill="#c6c5fe">dist/health/redis&#45;health.module.js</text>
</g>
<!-- dist/health/index.js&#45;&gt;dist/health/redis&#45;health.module.js -->
<g id="edge25" class="edge">
<title>dist/health/index.js&#45;&gt;dist/health/redis&#45;health.module.js</title>
<path fill="none" stroke="#757575" d="M507.56,-343.28C535.63,-338.95 569.12,-333.79 599.37,-329.12"/>
<polygon fill="#757575" stroke="#757575" points="600.14,-332.55 609.49,-327.56 599.08,-325.63 600.14,-332.55"/>
</g>
<!-- dist/health/indicators/redis.health.js&#45;&gt;dist/messages/index.js -->
<g id="edge26" class="edge">
<title>dist/health/indicators/redis.health.js&#45;&gt;dist/messages/index.js</title>
<path fill="none" stroke="#757575" d="M1069.79,-389C1087.21,-389 1104.96,-389 1121.67,-389"/>
<polygon fill="#757575" stroke="#757575" points="1121.92,-392.5 1131.92,-389 1121.92,-385.5 1121.92,-392.5"/>
</g>
<!-- dist/health/redis&#45;health.module.js&#45;&gt;dist/health/indicators/redis.health.js -->
<g id="edge27" class="edge">
<title>dist/health/redis&#45;health.module.js&#45;&gt;dist/health/indicators/redis.health.js</title>
<path fill="none" stroke="#757575" d="M746.88,-327.54C762.2,-331.33 778.44,-336.12 793,-342 810.18,-348.94 811.7,-356.37 829,-363 841.67,-367.85 855.43,-371.87 869.03,-375.17"/>
<polygon fill="#757575" stroke="#757575" points="868.37,-378.61 878.9,-377.45 869.94,-371.79 868.37,-378.61"/>
</g>
<!-- dist/index.js -->
<g id="node15" class="node">
<title>dist/index.js</title>
<path fill="none" stroke="#c6c5fe" d="M79.33,-403.5C79.33,-403.5 7.67,-403.5 7.67,-403.5 3.83,-403.5 0,-399.67 0,-395.83 0,-395.83 0,-388.17 0,-388.17 0,-384.33 3.83,-380.5 7.67,-380.5 7.67,-380.5 79.33,-380.5 79.33,-380.5 83.17,-380.5 87,-384.33 87,-388.17 87,-388.17 87,-395.83 87,-395.83 87,-399.67 83.17,-403.5 79.33,-403.5"/>
<text text-anchor="middle" x="43.5" y="-388.3" font-family="Arial" font-size="14.00" fill="#c6c5fe">dist/index.js</text>
</g>
<!-- dist/index.js&#45;&gt;dist/cluster/cluster.constants.js -->
<g id="edge29" class="edge">
<title>dist/index.js&#45;&gt;dist/cluster/cluster.constants.js</title>
<path fill="none" stroke="#757575" d="M44.61,-403.66C45.61,-444.56 54.15,-583.39 123,-665 224.65,-785.48 284.87,-819 442.5,-819 442.5,-819 442.5,-819 957,-819 1110.38,-819 1151.16,-810.31 1298,-766 1335.71,-754.62 1376.45,-734.66 1403.09,-720.46"/>
<polygon fill="#757575" stroke="#757575" points="1405.1,-723.35 1412.24,-715.52 1401.77,-717.19 1405.1,-723.35"/>
</g>
<!-- dist/index.js&#45;&gt;dist/cluster/cluster&#45;manager.js -->
<g id="edge28" class="edge">
<title>dist/index.js&#45;&gt;dist/cluster/cluster&#45;manager.js</title>
<path fill="none" stroke="#757575" d="M87.19,-397.44C224.39,-414.92 656.53,-469.97 854.35,-495.18"/>
<polygon fill="#757575" stroke="#757575" points="854.09,-498.67 864.45,-496.46 854.97,-491.73 854.09,-498.67"/>
</g>
<!-- dist/index.js&#45;&gt;dist/cluster/cluster.module.js -->
<g id="edge30" class="edge">
<title>dist/index.js&#45;&gt;dist/cluster/cluster.module.js</title>
<path fill="none" stroke="#757575" d="M44.94,-403.59C46.98,-440.61 58.48,-557.17 123,-618 127.08,-621.84 131.68,-625.12 136.59,-627.93"/>
<polygon fill="#757575" stroke="#757575" points="135.22,-631.15 145.73,-632.47 138.34,-624.88 135.22,-631.15"/>
</g>
<!-- dist/index.js&#45;&gt;dist/cluster/common/index.js -->
<g id="edge31" class="edge">
<title>dist/index.js&#45;&gt;dist/cluster/common/index.js</title>
<path fill="none" stroke="#757575" d="M51.07,-403.63C62.84,-423.34 89.44,-463.22 123,-484 266.18,-572.65 462.57,-605.23 581.12,-617.16"/>
<polygon fill="#757575" stroke="#757575" points="580.99,-620.66 591.29,-618.15 581.67,-613.7 580.99,-620.66"/>
</g>
<!-- dist/redis/common/index.js -->
<g id="node16" class="node">
<title>dist/redis/common/index.js</title>
<path fill="none" stroke="#c6c5fe" d="M766.33,-206.5C766.33,-206.5 604.67,-206.5 604.67,-206.5 600.83,-206.5 597,-202.67 597,-198.83 597,-198.83 597,-191.17 597,-191.17 597,-187.33 600.83,-183.5 604.67,-183.5 604.67,-183.5 766.33,-183.5 766.33,-183.5 770.17,-183.5 774,-187.33 774,-191.17 774,-191.17 774,-198.83 774,-198.83 774,-202.67 770.17,-206.5 766.33,-206.5"/>
<text text-anchor="middle" x="685.5" y="-191.3" font-family="Arial" font-size="14.00" fill="#c6c5fe">dist/redis/common/index.js</text>
</g>
<!-- dist/index.js&#45;&gt;dist/redis/common/index.js -->
<g id="edge32" class="edge">
<title>dist/index.js&#45;&gt;dist/redis/common/index.js</title>
<path fill="none" stroke="#757575" d="M50.22,-380.48C61.21,-359.68 87.37,-316.04 123,-295 268.19,-209.28 468.67,-193.35 586.64,-192.29"/>
<polygon fill="#757575" stroke="#757575" points="586.76,-195.79 596.75,-192.24 586.73,-188.79 586.76,-195.79"/>
</g>
<!-- dist/redis/redis&#45;manager.js -->
<g id="node17" class="node">
<title>dist/redis/redis&#45;manager.js</title>
<path fill="none" stroke="#c6c5fe" d="M765.33,-286.5C765.33,-286.5 605.67,-286.5 605.67,-286.5 601.83,-286.5 598,-282.67 598,-278.83 598,-278.83 598,-271.17 598,-271.17 598,-267.33 601.83,-263.5 605.67,-263.5 605.67,-263.5 765.33,-263.5 765.33,-263.5 769.17,-263.5 773,-267.33 773,-271.17 773,-271.17 773,-278.83 773,-278.83 773,-282.67 769.17,-286.5 765.33,-286.5"/>
<text text-anchor="middle" x="685.5" y="-271.3" font-family="Arial" font-size="14.00" fill="#c6c5fe">dist/redis/redis&#45;manager.js</text>
</g>
<!-- dist/index.js&#45;&gt;dist/redis/redis&#45;manager.js -->
<g id="edge33" class="edge">
<title>dist/index.js&#45;&gt;dist/redis/redis&#45;manager.js</title>
<path fill="none" stroke="#757575" d="M55.45,-380.37C69.56,-366.21 95.57,-342.86 123,-332 205.11,-299.5 449.93,-284.51 587.65,-278.48"/>
<polygon fill="#757575" stroke="#757575" points="587.94,-281.97 597.78,-278.05 587.64,-274.98 587.94,-281.97"/>
</g>
<!-- dist/redis/redis.constants.js -->
<g id="node18" class="node">
<title>dist/redis/redis.constants.js</title>
<path fill="none" stroke="#cfffac" d="M1515.33,-127.5C1515.33,-127.5 1351.67,-127.5 1351.67,-127.5 1347.83,-127.5 1344,-123.67 1344,-119.83 1344,-119.83 1344,-112.17 1344,-112.17 1344,-108.33 1347.83,-104.5 1351.67,-104.5 1351.67,-104.5 1515.33,-104.5 1515.33,-104.5 1519.17,-104.5 1523,-108.33 1523,-112.17 1523,-112.17 1523,-119.83 1523,-119.83 1523,-123.67 1519.17,-127.5 1515.33,-127.5"/>
<text text-anchor="middle" x="1433.5" y="-112.3" font-family="Arial" font-size="14.00" fill="#cfffac">dist/redis/redis.constants.js</text>
</g>
<!-- dist/index.js&#45;&gt;dist/redis/redis.constants.js -->
<g id="edge34" class="edge">
<title>dist/index.js&#45;&gt;dist/redis/redis.constants.js</title>
<path fill="none" stroke="#757575" d="M44.87,-380.23C46.73,-340.81 57.74,-211.7 123,-136 223.76,-19.11 288.17,0 442.5,0 442.5,0 442.5,0 957,0 1110.05,0 1151.97,-2.19 1298,-48 1337.31,-60.33 1379.14,-83.21 1405.52,-99.01"/>
<polygon fill="#757575" stroke="#757575" points="1403.81,-102.06 1414.18,-104.27 1407.45,-96.08 1403.81,-102.06"/>
</g>
<!-- dist/redis/redis.module.js -->
<g id="node19" class="node">
<title>dist/redis/redis.module.js</title>
<path fill="none" stroke="#c6c5fe" d="M291.33,-168.5C291.33,-168.5 140.67,-168.5 140.67,-168.5 136.83,-168.5 133,-164.67 133,-160.83 133,-160.83 133,-153.17 133,-153.17 133,-149.33 136.83,-145.5 140.67,-145.5 140.67,-145.5 291.33,-145.5 291.33,-145.5 295.17,-145.5 299,-149.33 299,-153.17 299,-153.17 299,-160.83 299,-160.83 299,-164.67 295.17,-168.5 291.33,-168.5"/>
<text text-anchor="middle" x="216" y="-153.3" font-family="Arial" font-size="14.00" fill="#c6c5fe">dist/redis/redis.module.js</text>
</g>
<!-- dist/index.js&#45;&gt;dist/redis/redis.module.js -->
<g id="edge35" class="edge">
<title>dist/index.js&#45;&gt;dist/redis/redis.module.js</title>
<path fill="none" stroke="#757575" d="M45.32,-380.28C48.44,-344.94 62.65,-238.49 123,-183 127.12,-179.21 131.76,-175.96 136.7,-173.19"/>
<polygon fill="#757575" stroke="#757575" points="138.44,-176.23 145.88,-168.69 135.36,-169.95 138.44,-176.23"/>
</g>
<!-- dist/redis/common/redis.decorator.js -->
<g id="node20" class="node">
<title>dist/redis/common/redis.decorator.js</title>
<path fill="none" stroke="#c6c5fe" d="M1065.33,-206.5C1065.33,-206.5 846.67,-206.5 846.67,-206.5 842.83,-206.5 839,-202.67 839,-198.83 839,-198.83 839,-191.17 839,-191.17 839,-187.33 842.83,-183.5 846.67,-183.5 846.67,-183.5 1065.33,-183.5 1065.33,-183.5 1069.17,-183.5 1073,-187.33 1073,-191.17 1073,-191.17 1073,-198.83 1073,-198.83 1073,-202.67 1069.17,-206.5 1065.33,-206.5"/>
<text text-anchor="middle" x="956" y="-191.3" font-family="Arial" font-size="14.00" fill="#c6c5fe">dist/redis/common/redis.decorator.js</text>
</g>
<!-- dist/redis/common/index.js&#45;&gt;dist/redis/common/redis.decorator.js -->
<g id="edge36" class="edge">
<title>dist/redis/common/index.js&#45;&gt;dist/redis/common/redis.decorator.js</title>
<path fill="none" stroke="#757575" d="M774.05,-195C791.48,-195 810.11,-195 828.54,-195"/>
<polygon fill="#757575" stroke="#757575" points="828.76,-198.5 838.76,-195 828.76,-191.5 828.76,-198.5"/>
</g>
<!-- dist/redis/common/redis.utils.js -->
<g id="node21" class="node">
<title>dist/redis/common/redis.utils.js</title>
<path fill="none" stroke="#c6c5fe" d="M1049.33,-165.5C1049.33,-165.5 862.67,-165.5 862.67,-165.5 858.83,-165.5 855,-161.67 855,-157.83 855,-157.83 855,-150.17 855,-150.17 855,-146.33 858.83,-142.5 862.67,-142.5 862.67,-142.5 1049.33,-142.5 1049.33,-142.5 1053.17,-142.5 1057,-146.33 1057,-150.17 1057,-150.17 1057,-157.83 1057,-157.83 1057,-161.67 1053.17,-165.5 1049.33,-165.5"/>
<text text-anchor="middle" x="956" y="-150.3" font-family="Arial" font-size="14.00" fill="#c6c5fe">dist/redis/common/redis.utils.js</text>
</g>
<!-- dist/redis/common/index.js&#45;&gt;dist/redis/common/redis.utils.js -->
<g id="edge37" class="edge">
<title>dist/redis/common/index.js&#45;&gt;dist/redis/common/redis.utils.js</title>
<path fill="none" stroke="#757575" d="M762.01,-183.47C795.46,-178.36 834.99,-172.33 869.52,-167.05"/>
<polygon fill="#757575" stroke="#757575" points="870.24,-170.48 879.6,-165.51 869.18,-163.56 870.24,-170.48"/>
</g>
<!-- dist/redis/redis&#45;manager.js&#45;&gt;dist/messages/index.js -->
<g id="edge45" class="edge">
<title>dist/redis/redis&#45;manager.js&#45;&gt;dist/messages/index.js</title>
<path fill="none" stroke="#757575" d="M773.34,-281.62C854.61,-289.34 978.78,-305.06 1083,-335 1115.98,-344.47 1151.74,-360.65 1176.44,-372.83"/>
<polygon fill="#757575" stroke="#757575" points="1175.14,-376.1 1185.65,-377.45 1178.28,-369.84 1175.14,-376.1"/>
</g>
<!-- dist/redis/redis&#45;manager.js&#45;&gt;dist/utils/index.js -->
<g id="edge47" class="edge">
<title>dist/redis/redis&#45;manager.js&#45;&gt;dist/utils/index.js</title>
<path fill="none" stroke="#757575" d="M770.97,-286.55C778.59,-288.87 786.05,-291.66 793,-295 812.03,-304.15 809.87,-317.06 829,-326 932.65,-374.47 982.98,-312.44 1083,-368 1104.2,-379.78 1101.92,-391.78 1119,-409 1140.76,-430.94 1167.41,-454.29 1185.74,-469.87"/>
<polygon fill="#757575" stroke="#757575" points="1183.64,-472.67 1193.54,-476.45 1188.15,-467.32 1183.64,-472.67"/>
</g>
<!-- dist/redis/redis&#45;manager.js&#45;&gt;dist/redis/redis.constants.js -->
<g id="edge46" class="edge">
<title>dist/redis/redis&#45;manager.js&#45;&gt;dist/redis/redis.constants.js</title>
<path fill="none" stroke="#757575" d="M773.03,-270.83C893.31,-263.1 1116.7,-241.66 1298,-184 1337.26,-171.52 1379.1,-148.67 1405.5,-132.93"/>
<polygon fill="#757575" stroke="#757575" points="1407.42,-135.85 1414.16,-127.68 1403.79,-129.87 1407.42,-135.85"/>
</g>
<!-- dist/redis/redis.module.js&#45;&gt;dist/messages/index.js -->
<g id="edge48" class="edge">
<title>dist/redis/redis.module.js&#45;&gt;dist/messages/index.js</title>
<path fill="none" stroke="#757575" d="M256.49,-168.55C281.65,-175.57 315.02,-184.25 345,-190 426.18,-205.57 1007.31,-250.77 1083,-284 1128.13,-303.81 1169.52,-345.32 1191.34,-369.79"/>
<polygon fill="#757575" stroke="#757575" points="1188.75,-372.16 1197.97,-377.39 1194.03,-367.55 1188.75,-372.16"/>
</g>
<!-- dist/redis/redis.module.js&#45;&gt;dist/utils/index.js -->
<g id="edge54" class="edge">
<title>dist/redis/redis.module.js&#45;&gt;dist/utils/index.js</title>
<path fill="none" stroke="#757575" d="M222.26,-168.7C241.01,-209.85 305.55,-346.92 345,-373 411.2,-416.77 949.85,-466.17 1140.74,-482.46"/>
<polygon fill="#757575" stroke="#757575" points="1140.65,-485.97 1150.91,-483.33 1141.25,-478.99 1140.65,-485.97"/>
</g>
<!-- dist/redis/redis.module.js&#45;&gt;dist/redis/common/index.js -->
<g id="edge49" class="edge">
<title>dist/redis/redis.module.js&#45;&gt;dist/redis/common/index.js</title>
<path fill="none" stroke="#757575" d="M299.15,-163.48C364.86,-168.68 459.35,-176.21 542,-183 556.37,-184.18 571.56,-185.44 586.46,-186.69"/>
<polygon fill="#757575" stroke="#757575" points="586.45,-190.2 596.71,-187.55 587.03,-183.23 586.45,-190.2"/>
</g>
<!-- dist/redis/redis.module.js&#45;&gt;dist/redis/redis&#45;manager.js -->
<g id="edge51" class="edge">
<title>dist/redis/redis.module.js&#45;&gt;dist/redis/redis&#45;manager.js</title>
<path fill="none" stroke="#757575" d="M228.4,-168.64C249.31,-189.13 296.15,-231.18 345,-249 423.2,-277.53 518.1,-282.54 587.66,-281.27"/>
<polygon fill="#757575" stroke="#757575" points="587.82,-284.77 597.74,-281.04 587.66,-277.77 587.82,-284.77"/>
</g>
<!-- dist/redis/redis.module.js&#45;&gt;dist/redis/redis.constants.js -->
<g id="edge52" class="edge">
<title>dist/redis/redis.module.js&#45;&gt;dist/redis/redis.constants.js</title>
<path fill="none" stroke="#757575" d="M228.8,-145.34C249.98,-125.25 296.75,-84.56 345,-67 487.31,-15.21 533.06,-38 684.5,-38 684.5,-38 684.5,-38 957,-38 1113.11,-38 1294.29,-79.45 1381.04,-101.92"/>
<polygon fill="#757575" stroke="#757575" points="1380.34,-105.35 1390.9,-104.49 1382.11,-98.58 1380.34,-105.35"/>
</g>
<!-- dist/redis/redis&#45;logger.js -->
<g id="node22" class="node">
<title>dist/redis/redis&#45;logger.js</title>
<path fill="none" stroke="#c6c5fe" d="M1279.83,-127.5C1279.83,-127.5 1137.17,-127.5 1137.17,-127.5 1133.33,-127.5 1129.5,-123.67 1129.5,-119.83 1129.5,-119.83 1129.5,-112.17 1129.5,-112.17 1129.5,-108.33 1133.33,-104.5 1137.17,-104.5 1137.17,-104.5 1279.83,-104.5 1279.83,-104.5 1283.67,-104.5 1287.5,-108.33 1287.5,-112.17 1287.5,-112.17 1287.5,-119.83 1287.5,-119.83 1287.5,-123.67 1283.67,-127.5 1279.83,-127.5"/>
<text text-anchor="middle" x="1208.5" y="-112.3" font-family="Arial" font-size="14.00" fill="#c6c5fe">dist/redis/redis&#45;logger.js</text>
</g>
<!-- dist/redis/redis.module.js&#45;&gt;dist/redis/redis&#45;logger.js -->
<g id="edge50" class="edge">
<title>dist/redis/redis.module.js&#45;&gt;dist/redis/redis&#45;logger.js</title>
<path fill="none" stroke="#757575" d="M235.6,-145.28C259.73,-130.83 303.65,-107.07 345,-98 630.66,-35.33 982.33,-78.74 1133.13,-102.86"/>
<polygon fill="#757575" stroke="#757575" points="1132.77,-106.35 1143.2,-104.49 1133.89,-99.44 1132.77,-106.35"/>
</g>
<!-- dist/redis/redis.providers.js -->
<g id="node24" class="node">
<title>dist/redis/redis.providers.js</title>
<path fill="none" stroke="#c6c5fe" d="M523.83,-130.5C523.83,-130.5 363.17,-130.5 363.17,-130.5 359.33,-130.5 355.5,-126.67 355.5,-122.83 355.5,-122.83 355.5,-115.17 355.5,-115.17 355.5,-111.33 359.33,-107.5 363.17,-107.5 363.17,-107.5 523.83,-107.5 523.83,-107.5 527.67,-107.5 531.5,-111.33 531.5,-115.17 531.5,-115.17 531.5,-122.83 531.5,-122.83 531.5,-126.67 527.67,-130.5 523.83,-130.5"/>
<text text-anchor="middle" x="443.5" y="-115.3" font-family="Arial" font-size="14.00" fill="#c6c5fe">dist/redis/redis.providers.js</text>
</g>
<!-- dist/redis/redis.module.js&#45;&gt;dist/redis/redis.providers.js -->
<g id="edge53" class="edge">
<title>dist/redis/redis.module.js&#45;&gt;dist/redis/redis.providers.js</title>
<path fill="none" stroke="#757575" d="M285.27,-145.5C310.1,-141.31 338.36,-136.55 364.01,-132.23"/>
<polygon fill="#757575" stroke="#757575" points="364.79,-135.64 374.07,-130.53 363.63,-128.74 364.79,-135.64"/>
</g>
<!-- dist/redis/common/redis.decorator.js&#45;&gt;dist/utils/index.js -->
<g id="edge39" class="edge">
<title>dist/redis/common/redis.decorator.js&#45;&gt;dist/utils/index.js</title>
<path fill="none" stroke="#757575" d="M969.73,-206.75C994.03,-229.67 1047.74,-282.66 1083,-335 1103.43,-365.33 1096.94,-379.83 1119,-409 1137.29,-433.18 1163.81,-455.68 1183.05,-470.43"/>
<polygon fill="#757575" stroke="#757575" points="1180.96,-473.24 1191.06,-476.45 1185.17,-467.64 1180.96,-473.24"/>
</g>
<!-- dist/redis/common/redis.decorator.js&#45;&gt;dist/redis/redis.constants.js -->
<g id="edge38" class="edge">
<title>dist/redis/common/redis.decorator.js&#45;&gt;dist/redis/redis.constants.js</title>
<path fill="none" stroke="#757575" d="M1073.06,-187.42C1139.41,-181.76 1223.91,-172.28 1298,-157 1329.69,-150.46 1364.63,-139.7 1390.95,-130.84"/>
<polygon fill="#757575" stroke="#757575" points="1392.26,-134.1 1400.59,-127.56 1390,-127.47 1392.26,-134.1"/>
</g>
<!-- dist/redis/common/redis.utils.js&#45;&gt;dist/messages/index.js -->
<g id="edge40" class="edge">
<title>dist/redis/common/redis.utils.js&#45;&gt;dist/messages/index.js</title>
<path fill="none" stroke="#757575" d="M1057.22,-161.3C1066.38,-164.47 1075.15,-168.61 1083,-174 1152.97,-222.04 1188.93,-323.26 1201.83,-367.52"/>
<polygon fill="#757575" stroke="#757575" points="1198.48,-368.56 1204.55,-377.24 1205.22,-366.67 1198.48,-368.56"/>
</g>
<!-- dist/redis/common/redis.utils.js&#45;&gt;dist/utils/index.js -->
<g id="edge43" class="edge">
<title>dist/redis/common/redis.utils.js&#45;&gt;dist/utils/index.js</title>
<path fill="none" stroke="#757575" d="M1057.14,-157.47C1066.77,-161.27 1075.66,-166.62 1083,-174 1157.51,-248.92 1068.62,-316.12 1119,-409 1133.11,-435.02 1159.28,-456.73 1179.51,-470.76"/>
<polygon fill="#757575" stroke="#757575" points="1177.79,-473.82 1188.04,-476.47 1181.68,-468 1177.79,-473.82"/>
</g>
<!-- dist/redis/common/redis.utils.js&#45;&gt;dist/redis/redis.constants.js -->
<g id="edge42" class="edge">
<title>dist/redis/common/redis.utils.js&#45;&gt;dist/redis/redis.constants.js</title>
<path fill="none" stroke="#757575" d="M1057.16,-151.21C1125.21,-148.71 1217.19,-144.12 1298,-136 1316.04,-134.19 1335.35,-131.66 1353.56,-129.02"/>
<polygon fill="#757575" stroke="#757575" points="1354.16,-132.47 1363.54,-127.54 1353.14,-125.54 1354.16,-132.47"/>
</g>
<!-- dist/redis/common/redis.utils.js&#45;&gt;dist/redis/redis&#45;logger.js -->
<g id="edge41" class="edge">
<title>dist/redis/common/redis.utils.js&#45;&gt;dist/redis/redis&#45;logger.js</title>
<path fill="none" stroke="#757575" d="M1032.84,-142.5C1060.79,-138.26 1092.65,-133.42 1121.44,-129.05"/>
<polygon fill="#757575" stroke="#757575" points="1122.13,-132.49 1131.49,-127.53 1121.08,-125.57 1122.13,-132.49"/>
</g>
<!-- dist/redis/redis&#45;logger.js&#45;&gt;dist/redis/redis.constants.js -->
<g id="edge44" class="edge">
<title>dist/redis/redis&#45;logger.js&#45;&gt;dist/redis/redis.constants.js</title>
<path fill="none" stroke="#757575" d="M1287.81,-116C1302.63,-116 1318.32,-116 1333.68,-116"/>
<polygon fill="#757575" stroke="#757575" points="1333.71,-119.5 1343.71,-116 1333.71,-112.5 1333.71,-119.5"/>
</g>
<!-- dist/redis/default&#45;options.js -->
<g id="node23" class="node">
<title>dist/redis/default&#45;options.js</title>
<path fill="none" stroke="#cfffac" d="M765.83,-165.5C765.83,-165.5 605.17,-165.5 605.17,-165.5 601.33,-165.5 597.5,-161.67 597.5,-157.83 597.5,-157.83 597.5,-150.17 597.5,-150.17 597.5,-146.33 601.33,-142.5 605.17,-142.5 605.17,-142.5 765.83,-142.5 765.83,-142.5 769.67,-142.5 773.5,-146.33 773.5,-150.17 773.5,-150.17 773.5,-157.83 773.5,-157.83 773.5,-161.67 769.67,-165.5 765.83,-165.5"/>
<text text-anchor="middle" x="685.5" y="-150.3" font-family="Arial" font-size="14.00" fill="#cfffac">dist/redis/default&#45;options.js</text>
</g>
<!-- dist/redis/redis.providers.js&#45;&gt;dist/redis/common/index.js -->
<g id="edge55" class="edge">
<title>dist/redis/redis.providers.js&#45;&gt;dist/redis/common/index.js</title>
<path fill="none" stroke="#757575" d="M503.71,-130.55C516.71,-134.24 530.13,-138.98 542,-145 560.32,-154.29 559.38,-165.32 578,-174 583.07,-176.36 588.4,-178.46 593.85,-180.33"/>
<polygon fill="#757575" stroke="#757575" points="593.19,-183.79 603.78,-183.43 595.28,-177.11 593.19,-183.79"/>
</g>
<!-- dist/redis/redis.providers.js&#45;&gt;dist/redis/redis&#45;manager.js -->
<g id="edge57" class="edge">
<title>dist/redis/redis.providers.js&#45;&gt;dist/redis/redis&#45;manager.js</title>
<path fill="none" stroke="#757575" d="M459.73,-130.8C484.13,-149.51 533.73,-186.73 578,-215 602.62,-230.72 631.55,-246.88 653.04,-258.46"/>
<polygon fill="#757575" stroke="#757575" points="651.58,-261.65 662.05,-263.29 654.89,-255.48 651.58,-261.65"/>
</g>
<!-- dist/redis/redis.providers.js&#45;&gt;dist/redis/redis.constants.js -->
<g id="edge58" class="edge">
<title>dist/redis/redis.providers.js&#45;&gt;dist/redis/redis.constants.js</title>
<path fill="none" stroke="#757575" d="M531.58,-110.5C686.14,-96.77 1018.49,-73.31 1298,-95 1318.86,-96.62 1341.37,-99.63 1361.9,-102.87"/>
<polygon fill="#757575" stroke="#757575" points="1361.37,-106.33 1371.81,-104.48 1362.5,-99.42 1361.37,-106.33"/>
</g>
<!-- dist/redis/redis.providers.js&#45;&gt;dist/redis/default&#45;options.js -->
<g id="edge56" class="edge">
<title>dist/redis/redis.providers.js&#45;&gt;dist/redis/default&#45;options.js</title>
<path fill="none" stroke="#757575" d="M523.42,-130.51C546.49,-133.87 571.87,-137.57 595.52,-141.02"/>
<polygon fill="#757575" stroke="#757575" points="595.13,-144.5 605.54,-142.48 596.14,-137.58 595.13,-144.5"/>
</g>
<!-- health/index.js -->
<g id="node25" class="node">
<title>health/index.js</title>
<path fill="none" stroke="#c6c5fe" d="M259.83,-364.5C259.83,-364.5 172.17,-364.5 172.17,-364.5 168.33,-364.5 164.5,-360.67 164.5,-356.83 164.5,-356.83 164.5,-349.17 164.5,-349.17 164.5,-345.33 168.33,-341.5 172.17,-341.5 172.17,-341.5 259.83,-341.5 259.83,-341.5 263.67,-341.5 267.5,-345.33 267.5,-349.17 267.5,-349.17 267.5,-356.83 267.5,-356.83 267.5,-360.67 263.67,-364.5 259.83,-364.5"/>
<text text-anchor="middle" x="216" y="-349.3" font-family="Arial" font-size="14.00" fill="#c6c5fe">health/index.js</text>
</g>
<!-- health/index.js&#45;&gt;dist/health/index.js -->
<g id="edge59" class="edge">
<title>health/index.js&#45;&gt;dist/health/index.js</title>
<path fill="none" stroke="#757575" d="M267.61,-353C297.5,-353 335.86,-353 369.04,-353"/>
<polygon fill="#757575" stroke="#757575" points="369.15,-356.5 379.15,-353 369.15,-349.5 369.15,-356.5"/>
</g>
</g>
</svg>
