<?xml version="1.0" encoding="UTF-8" standalone="no"?>
<!DOCTYPE svg PUBLIC "-//W3C//DTD SVG 1.1//EN"
 "http://www.w3.org/Graphics/SVG/1.1/DTD/svg11.dtd">
<!-- Generated by graphviz version 2.43.0 (0)
 -->
<!-- Title: G Pages: 1 -->
<svg width="1636pt" height="726pt"
 viewBox="0.00 0.00 1636.20 726.38" xmlns="http://www.w3.org/2000/svg" xmlns:xlink="http://www.w3.org/1999/xlink">
<g id="graph0" class="graph" transform="scale(1 1) rotate(0) translate(21.6 704.78)">
<title>G</title>
<polygon fill="#111111" stroke="transparent" points="-21.6,21.6 -21.6,-704.78 1614.6,-704.78 1614.6,21.6 -21.6,21.6"/>
<!-- cluster/cluster&#45;core.module.js -->
<g id="node1" class="node">
<title>cluster/cluster&#45;core.module.js</title>
<path fill="none" stroke="#c6c5fe" d="M480.33,-497.68C480.33,-497.68 302.67,-497.68 302.67,-497.68 298.83,-497.68 295,-493.85 295,-490.01 295,-490.01 295,-482.35 295,-482.35 295,-478.51 298.83,-474.68 302.67,-474.68 302.67,-474.68 480.33,-474.68 480.33,-474.68 484.17,-474.68 488,-478.51 488,-482.35 488,-482.35 488,-490.01 488,-490.01 488,-493.85 484.17,-497.68 480.33,-497.68"/>
<text text-anchor="middle" x="391.5" y="-482.48" font-family="Arial" font-size="14.00" fill="#c6c5fe">cluster/cluster&#45;core.module.js</text>
</g>
<!-- cluster/cluster.constants.js -->
<g id="node2" class="node">
<title>cluster/cluster.constants.js</title>
<path fill="none" stroke="#cfffac" d="M1363.33,-616.68C1363.33,-616.68 1204.67,-616.68 1204.67,-616.68 1200.83,-616.68 1197,-612.85 1197,-609.01 1197,-609.01 1197,-601.35 1197,-601.35 1197,-597.51 1200.83,-593.68 1204.67,-593.68 1204.67,-593.68 1363.33,-593.68 1363.33,-593.68 1367.17,-593.68 1371,-597.51 1371,-601.35 1371,-601.35 1371,-609.01 1371,-609.01 1371,-612.85 1367.17,-616.68 1363.33,-616.68"/>
<text text-anchor="middle" x="1284" y="-601.48" font-family="Arial" font-size="14.00" fill="#cfffac">cluster/cluster.constants.js</text>
</g>
<!-- cluster/cluster&#45;core.module.js&#45;&gt;cluster/cluster.constants.js -->
<g id="edge1" class="edge">
<title>cluster/cluster&#45;core.module.js&#45;&gt;cluster/cluster.constants.js</title>
<path fill="none" stroke="#757575" d="M406.41,-497.83C429.31,-516.31 477.1,-552 524,-569.18 790.9,-666.94 877.79,-650.38 1161,-626.18 1179.61,-624.59 1199.64,-621.66 1217.99,-618.48"/>
<polygon fill="#757575" stroke="#757575" points="1218.76,-621.9 1227.99,-616.7 1217.53,-615.01 1218.76,-621.9"/>
</g>
<!-- cluster/cluster.health.js -->
<g id="node3" class="node">
<title>cluster/cluster.health.js</title>
<path fill="none" stroke="#c6c5fe" d="M678.83,-417.68C678.83,-417.68 541.17,-417.68 541.17,-417.68 537.33,-417.68 533.5,-413.85 533.5,-410.01 533.5,-410.01 533.5,-402.35 533.5,-402.35 533.5,-398.51 537.33,-394.68 541.17,-394.68 541.17,-394.68 678.83,-394.68 678.83,-394.68 682.67,-394.68 686.5,-398.51 686.5,-402.35 686.5,-402.35 686.5,-410.01 686.5,-410.01 686.5,-413.85 682.67,-417.68 678.83,-417.68"/>
<text text-anchor="middle" x="610" y="-402.48" font-family="Arial" font-size="14.00" fill="#c6c5fe">cluster/cluster.health.js</text>
</g>
<!-- cluster/cluster&#45;core.module.js&#45;&gt;cluster/cluster.health.js -->
<g id="edge2" class="edge">
<title>cluster/cluster&#45;core.module.js&#45;&gt;cluster/cluster.health.js</title>
<path fill="none" stroke="#757575" d="M423.98,-474.55C462.09,-460.46 526.35,-436.72 568.22,-421.25"/>
<polygon fill="#757575" stroke="#757575" points="569.67,-424.45 577.83,-417.7 567.24,-417.88 569.67,-424.45"/>
</g>
<!-- cluster/cluster.providers.js -->
<g id="node4" class="node">
<title>cluster/cluster.providers.js</title>
<path fill="none" stroke="#c6c5fe" d="M688.33,-535.68C688.33,-535.68 531.67,-535.68 531.67,-535.68 527.83,-535.68 524,-531.85 524,-528.01 524,-528.01 524,-520.35 524,-520.35 524,-516.51 527.83,-512.68 531.67,-512.68 531.67,-512.68 688.33,-512.68 688.33,-512.68 692.17,-512.68 696,-516.51 696,-520.35 696,-520.35 696,-528.01 696,-528.01 696,-531.85 692.17,-535.68 688.33,-535.68"/>
<text text-anchor="middle" x="610" y="-520.48" font-family="Arial" font-size="14.00" fill="#c6c5fe">cluster/cluster.providers.js</text>
</g>
<!-- cluster/cluster&#45;core.module.js&#45;&gt;cluster/cluster.providers.js -->
<g id="edge3" class="edge">
<title>cluster/cluster&#45;core.module.js&#45;&gt;cluster/cluster.providers.js</title>
<path fill="none" stroke="#757575" d="M458.04,-497.68C481.78,-501.85 508.78,-506.59 533.32,-510.9"/>
<polygon fill="#757575" stroke="#757575" points="532.85,-514.37 543.3,-512.65 534.06,-507.47 532.85,-514.37"/>
</g>
<!-- cluster/cluster.service.js -->
<g id="node5" class="node">
<title>cluster/cluster.service.js</title>
<path fill="none" stroke="#c6c5fe" d="M885.33,-457.68C885.33,-457.68 741.67,-457.68 741.67,-457.68 737.83,-457.68 734,-453.85 734,-450.01 734,-450.01 734,-442.35 734,-442.35 734,-438.51 737.83,-434.68 741.67,-434.68 741.67,-434.68 885.33,-434.68 885.33,-434.68 889.17,-434.68 893,-438.51 893,-442.35 893,-442.35 893,-450.01 893,-450.01 893,-453.85 889.17,-457.68 885.33,-457.68"/>
<text text-anchor="middle" x="813.5" y="-442.48" font-family="Arial" font-size="14.00" fill="#c6c5fe">cluster/cluster.service.js</text>
</g>
<!-- cluster/cluster&#45;core.module.js&#45;&gt;cluster/cluster.service.js -->
<g id="edge4" class="edge">
<title>cluster/cluster&#45;core.module.js&#45;&gt;cluster/cluster.service.js</title>
<path fill="none" stroke="#757575" d="M488.26,-478.82C548.04,-474.01 626.56,-467.32 696,-460.18 705,-459.25 714.39,-458.23 723.76,-457.16"/>
<polygon fill="#757575" stroke="#757575" points="724.36,-460.62 733.89,-456 723.56,-453.66 724.36,-460.62"/>
</g>
<!-- cluster/common/index.js -->
<g id="node6" class="node">
<title>cluster/common/index.js</title>
<path fill="none" stroke="#c6c5fe" d="M887.33,-575.68C887.33,-575.68 739.67,-575.68 739.67,-575.68 735.83,-575.68 732,-571.85 732,-568.01 732,-568.01 732,-560.35 732,-560.35 732,-556.51 735.83,-552.68 739.67,-552.68 739.67,-552.68 887.33,-552.68 887.33,-552.68 891.17,-552.68 895,-556.51 895,-560.35 895,-560.35 895,-568.01 895,-568.01 895,-571.85 891.17,-575.68 887.33,-575.68"/>
<text text-anchor="middle" x="813.5" y="-560.48" font-family="Arial" font-size="14.00" fill="#c6c5fe">cluster/common/index.js</text>
</g>
<!-- cluster/cluster&#45;core.module.js&#45;&gt;cluster/common/index.js -->
<g id="edge5" class="edge">
<title>cluster/cluster&#45;core.module.js&#45;&gt;cluster/common/index.js</title>
<path fill="none" stroke="#757575" d="M412.19,-497.71C437.23,-511.73 482.23,-534.79 524,-545.18 588.79,-561.29 664.14,-565.79 721.58,-566.39"/>
<polygon fill="#757575" stroke="#757575" points="721.71,-569.9 731.73,-566.46 721.75,-562.9 721.71,-569.9"/>
</g>
<!-- utils/index.js -->
<g id="node7" class="node">
<title>utils/index.js</title>
<path fill="none" stroke="#c6c5fe" d="M1083.33,-343.68C1083.33,-343.68 1008.67,-343.68 1008.67,-343.68 1004.83,-343.68 1001,-339.85 1001,-336.01 1001,-336.01 1001,-328.35 1001,-328.35 1001,-324.51 1004.83,-320.68 1008.67,-320.68 1008.67,-320.68 1083.33,-320.68 1083.33,-320.68 1087.17,-320.68 1091,-324.51 1091,-328.35 1091,-328.35 1091,-336.01 1091,-336.01 1091,-339.85 1087.17,-343.68 1083.33,-343.68"/>
<text text-anchor="middle" x="1046" y="-328.48" font-family="Arial" font-size="14.00" fill="#c6c5fe">utils/index.js</text>
</g>
<!-- cluster/cluster&#45;core.module.js&#45;&gt;utils/index.js -->
<g id="edge6" class="edge">
<title>cluster/cluster&#45;core.module.js&#45;&gt;utils/index.js</title>
<path fill="none" stroke="#757575" d="M403.45,-474.35C424.43,-452.56 472.79,-406.44 524,-386.18 607.93,-352.98 874.97,-338.8 990.67,-334.1"/>
<polygon fill="#757575" stroke="#757575" points="990.87,-337.6 1000.73,-333.7 990.59,-330.6 990.87,-337.6"/>
</g>
<!-- cluster/cluster.health.js&#45;&gt;cluster/cluster.service.js -->
<g id="edge7" class="edge">
<title>cluster/cluster.health.js&#45;&gt;cluster/cluster.service.js</title>
<path fill="none" stroke="#757575" d="M669.01,-417.7C692.62,-422.38 720.06,-427.83 744.59,-432.7"/>
<polygon fill="#757575" stroke="#757575" points="744.06,-436.16 754.55,-434.68 745.42,-429.3 744.06,-436.16"/>
</g>
<!-- errors/index.js -->
<g id="node8" class="node">
<title>errors/index.js</title>
<path fill="none" stroke="#c6c5fe" d="M1326.83,-363.68C1326.83,-363.68 1241.17,-363.68 1241.17,-363.68 1237.33,-363.68 1233.5,-359.85 1233.5,-356.01 1233.5,-356.01 1233.5,-348.35 1233.5,-348.35 1233.5,-344.51 1237.33,-340.68 1241.17,-340.68 1241.17,-340.68 1326.83,-340.68 1326.83,-340.68 1330.67,-340.68 1334.5,-344.51 1334.5,-348.35 1334.5,-348.35 1334.5,-356.01 1334.5,-356.01 1334.5,-359.85 1330.67,-363.68 1326.83,-363.68"/>
<text text-anchor="middle" x="1284" y="-348.48" font-family="Arial" font-size="14.00" fill="#c6c5fe">errors/index.js</text>
</g>
<!-- cluster/cluster.health.js&#45;&gt;errors/index.js -->
<g id="edge8" class="edge">
<title>cluster/cluster.health.js&#45;&gt;errors/index.js</title>
<path fill="none" stroke="#757575" d="M686.78,-400.09C821.53,-389.26 1100.14,-366.87 1222.8,-357.02"/>
<polygon fill="#757575" stroke="#757575" points="1223.43,-360.48 1233.12,-356.19 1222.87,-353.5 1223.43,-360.48"/>
</g>
<!-- cluster/cluster.providers.js&#45;&gt;cluster/cluster.constants.js -->
<g id="edge10" class="edge">
<title>cluster/cluster.providers.js&#45;&gt;cluster/cluster.constants.js</title>
<path fill="none" stroke="#757575" d="M696.45,-516.23C805.97,-508.53 1000.84,-503.28 1161,-544.18 1196.24,-553.18 1233.12,-573.34 1256.98,-588.03"/>
<polygon fill="#757575" stroke="#757575" points="1255.43,-591.19 1265.76,-593.55 1259.15,-585.26 1255.43,-591.19"/>
</g>
<!-- cluster/cluster.providers.js&#45;&gt;cluster/cluster.service.js -->
<g id="edge11" class="edge">
<title>cluster/cluster.providers.js&#45;&gt;cluster/cluster.service.js</title>
<path fill="none" stroke="#757575" d="M658.83,-512.55C671.25,-508.73 684.39,-503.95 696,-498.18 713.67,-489.4 714.39,-481.1 732,-472.18 740.27,-467.99 749.37,-464.28 758.37,-461.08"/>
<polygon fill="#757575" stroke="#757575" points="759.71,-464.32 768.06,-457.8 757.46,-457.69 759.71,-464.32"/>
</g>
<!-- cluster/cluster.providers.js&#45;&gt;cluster/common/index.js -->
<g id="edge12" class="edge">
<title>cluster/cluster.providers.js&#45;&gt;cluster/common/index.js</title>
<path fill="none" stroke="#757575" d="M669.01,-535.7C692.62,-540.38 720.06,-545.83 744.59,-550.7"/>
<polygon fill="#757575" stroke="#757575" points="744.06,-554.16 754.55,-552.68 745.42,-547.3 744.06,-554.16"/>
</g>
<!-- cluster/cluster.providers.js&#45;&gt;errors/index.js -->
<g id="edge13" class="edge">
<title>cluster/cluster.providers.js&#45;&gt;errors/index.js</title>
<path fill="none" stroke="#757575" d="M688.62,-512.65C818.76,-492.8 1075.12,-451.3 1161,-420.18 1196.58,-407.29 1234.12,-384.84 1258.01,-369.28"/>
<polygon fill="#757575" stroke="#757575" points="1260.05,-372.13 1266.46,-363.69 1256.19,-366.29 1260.05,-372.13"/>
</g>
<!-- cluster/cluster.service.js&#45;&gt;cluster/cluster.constants.js -->
<g id="edge14" class="edge">
<title>cluster/cluster.service.js&#45;&gt;cluster/cluster.constants.js</title>
<path fill="none" stroke="#757575" d="M893.01,-450.04C965.37,-456.02 1074.36,-471.27 1161,-510.18 1202.62,-528.87 1242.75,-564.62 1265.02,-586.53"/>
<polygon fill="#757575" stroke="#757575" points="1262.59,-589.05 1272.13,-593.66 1267.55,-584.11 1262.59,-589.05"/>
</g>
<!-- cluster/cluster.service.js&#45;&gt;utils/index.js -->
<g id="edge16" class="edge">
<title>cluster/cluster.service.js&#45;&gt;utils/index.js</title>
<path fill="none" stroke="#757575" d="M837.87,-434.62C879.2,-414.18 965.27,-371.61 1012.41,-348.3"/>
<polygon fill="#757575" stroke="#757575" points="1014.16,-351.34 1021.57,-343.77 1011.05,-345.06 1014.16,-351.34"/>
</g>
<!-- cluster/cluster.service.js&#45;&gt;errors/index.js -->
<g id="edge15" class="edge">
<title>cluster/cluster.service.js&#45;&gt;errors/index.js</title>
<path fill="none" stroke="#757575" d="M893.04,-434.88C963.56,-424.19 1069.73,-406.75 1161,-386.18 1185.85,-380.58 1213.2,-373.08 1235.69,-366.56"/>
<polygon fill="#757575" stroke="#757575" points="1236.72,-369.9 1245.33,-363.73 1234.75,-363.19 1236.72,-369.9"/>
</g>
<!-- cluster/common/cluster&#45;utils.js -->
<g id="node10" class="node">
<title>cluster/common/cluster&#45;utils.js</title>
<path fill="none" stroke="#cfffac" d="M1137.83,-575.68C1137.83,-575.68 954.17,-575.68 954.17,-575.68 950.33,-575.68 946.5,-571.85 946.5,-568.01 946.5,-568.01 946.5,-560.35 946.5,-560.35 946.5,-556.51 950.33,-552.68 954.17,-552.68 954.17,-552.68 1137.83,-552.68 1137.83,-552.68 1141.67,-552.68 1145.5,-556.51 1145.5,-560.35 1145.5,-560.35 1145.5,-568.01 1145.5,-568.01 1145.5,-571.85 1141.67,-575.68 1137.83,-575.68"/>
<text text-anchor="middle" x="1046" y="-560.48" font-family="Arial" font-size="14.00" fill="#cfffac">cluster/common/cluster&#45;utils.js</text>
</g>
<!-- cluster/common/index.js&#45;&gt;cluster/common/cluster&#45;utils.js -->
<g id="edge18" class="edge">
<title>cluster/common/index.js&#45;&gt;cluster/common/cluster&#45;utils.js</title>
<path fill="none" stroke="#757575" d="M895.12,-564.18C908.39,-564.18 922.33,-564.18 936.15,-564.18"/>
<polygon fill="#757575" stroke="#757575" points="936.18,-567.68 946.18,-564.18 936.18,-560.68 936.18,-567.68"/>
</g>
<!-- cluster/common/cluster.decorator.js -->
<g id="node11" class="node">
<title>cluster/common/cluster.decorator.js</title>
<path fill="none" stroke="#c6c5fe" d="M1153.33,-616.68C1153.33,-616.68 938.67,-616.68 938.67,-616.68 934.83,-616.68 931,-612.85 931,-609.01 931,-609.01 931,-601.35 931,-601.35 931,-597.51 934.83,-593.68 938.67,-593.68 938.67,-593.68 1153.33,-593.68 1153.33,-593.68 1157.17,-593.68 1161,-597.51 1161,-601.35 1161,-601.35 1161,-609.01 1161,-609.01 1161,-612.85 1157.17,-616.68 1153.33,-616.68"/>
<text text-anchor="middle" x="1046" y="-601.48" font-family="Arial" font-size="14.00" fill="#c6c5fe">cluster/common/cluster.decorator.js</text>
</g>
<!-- cluster/common/index.js&#45;&gt;cluster/common/cluster.decorator.js -->
<g id="edge19" class="edge">
<title>cluster/common/index.js&#45;&gt;cluster/common/cluster.decorator.js</title>
<path fill="none" stroke="#757575" d="M878.28,-575.73C895.4,-578.82 913.9,-582.14 931,-585.18 943.25,-587.36 956.25,-589.65 968.92,-591.88"/>
<polygon fill="#757575" stroke="#757575" points="968.53,-595.37 978.98,-593.65 969.74,-588.47 968.53,-595.37"/>
</g>
<!-- utils/index.js&#45;&gt;errors/index.js -->
<g id="edge50" class="edge">
<title>utils/index.js&#45;&gt;errors/index.js</title>
<path fill="none" stroke="#757575" d="M1091.11,-335.92C1128.38,-339.08 1182.1,-343.63 1223.22,-347.11"/>
<polygon fill="#757575" stroke="#757575" points="1223.13,-350.62 1233.39,-347.98 1223.72,-343.64 1223.13,-350.62"/>
</g>
<!-- errors/messages.constant.js -->
<g id="node12" class="node">
<title>errors/messages.constant.js</title>
<path fill="none" stroke="#cfffac" d="M1585.33,-383.68C1585.33,-383.68 1414.67,-383.68 1414.67,-383.68 1410.83,-383.68 1407,-379.85 1407,-376.01 1407,-376.01 1407,-368.35 1407,-368.35 1407,-364.51 1410.83,-360.68 1414.67,-360.68 1414.67,-360.68 1585.33,-360.68 1585.33,-360.68 1589.17,-360.68 1593,-364.51 1593,-368.35 1593,-368.35 1593,-376.01 1593,-376.01 1593,-379.85 1589.17,-383.68 1585.33,-383.68"/>
<text text-anchor="middle" x="1500" y="-368.48" font-family="Arial" font-size="14.00" fill="#cfffac">errors/messages.constant.js</text>
</g>
<!-- errors/index.js&#45;&gt;errors/messages.constant.js -->
<g id="edge20" class="edge">
<title>errors/index.js&#45;&gt;errors/messages.constant.js</title>
<path fill="none" stroke="#757575" d="M1334.63,-356.82C1353.18,-358.55 1374.99,-360.59 1396.56,-362.61"/>
<polygon fill="#757575" stroke="#757575" points="1396.49,-366.11 1406.77,-363.56 1397.14,-359.14 1396.49,-366.11"/>
</g>
<!-- errors/redis.error.js -->
<g id="node13" class="node">
<title>errors/redis.error.js</title>
<path fill="none" stroke="#cfffac" d="M1557.33,-342.68C1557.33,-342.68 1442.67,-342.68 1442.67,-342.68 1438.83,-342.68 1435,-338.85 1435,-335.01 1435,-335.01 1435,-327.35 1435,-327.35 1435,-323.51 1438.83,-319.68 1442.67,-319.68 1442.67,-319.68 1557.33,-319.68 1557.33,-319.68 1561.17,-319.68 1565,-323.51 1565,-327.35 1565,-327.35 1565,-335.01 1565,-335.01 1565,-338.85 1561.17,-342.68 1557.33,-342.68"/>
<text text-anchor="middle" x="1500" y="-327.48" font-family="Arial" font-size="14.00" fill="#cfffac">errors/redis.error.js</text>
</g>
<!-- errors/index.js&#45;&gt;errors/redis.error.js -->
<g id="edge21" class="edge">
<title>errors/index.js&#45;&gt;errors/redis.error.js</title>
<path fill="none" stroke="#757575" d="M1334.63,-347.31C1361.25,-344.7 1394.6,-341.42 1424.28,-338.51"/>
<polygon fill="#757575" stroke="#757575" points="1425,-341.96 1434.61,-337.5 1424.32,-334.99 1425,-341.96"/>
</g>
<!-- cluster/cluster.module.js -->
<g id="node9" class="node">
<title>cluster/cluster.module.js</title>
<path fill="none" stroke="#c6c5fe" d="M251.33,-497.68C251.33,-497.68 105.67,-497.68 105.67,-497.68 101.83,-497.68 98,-493.85 98,-490.01 98,-490.01 98,-482.35 98,-482.35 98,-478.51 101.83,-474.68 105.67,-474.68 105.67,-474.68 251.33,-474.68 251.33,-474.68 255.17,-474.68 259,-478.51 259,-482.35 259,-482.35 259,-490.01 259,-490.01 259,-493.85 255.17,-497.68 251.33,-497.68"/>
<text text-anchor="middle" x="178.5" y="-482.48" font-family="Arial" font-size="14.00" fill="#c6c5fe">cluster/cluster.module.js</text>
</g>
<!-- cluster/cluster.module.js&#45;&gt;cluster/cluster&#45;core.module.js -->
<g id="edge9" class="edge">
<title>cluster/cluster.module.js&#45;&gt;cluster/cluster&#45;core.module.js</title>
<path fill="none" stroke="#757575" d="M259.27,-486.18C267.57,-486.18 276.1,-486.18 284.64,-486.18"/>
<polygon fill="#757575" stroke="#757575" points="284.64,-489.68 294.64,-486.18 284.64,-482.68 284.64,-489.68"/>
</g>
<!-- cluster/common/cluster.decorator.js&#45;&gt;cluster/cluster.constants.js -->
<g id="edge17" class="edge">
<title>cluster/common/cluster.decorator.js&#45;&gt;cluster/cluster.constants.js</title>
<path fill="none" stroke="#757575" d="M1161.2,-605.18C1169.73,-605.18 1178.29,-605.18 1186.69,-605.18"/>
<polygon fill="#757575" stroke="#757575" points="1186.86,-608.68 1196.86,-605.18 1186.86,-601.68 1186.86,-608.68"/>
</g>
<!-- index.js -->
<g id="node14" class="node">
<title>index.js</title>
<path fill="none" stroke="#c6c5fe" d="M54.33,-378.68C54.33,-378.68 7.67,-378.68 7.67,-378.68 3.83,-378.68 0,-374.85 0,-371.01 0,-371.01 0,-363.35 0,-363.35 0,-359.51 3.83,-355.68 7.67,-355.68 7.67,-355.68 54.33,-355.68 54.33,-355.68 58.17,-355.68 62,-359.51 62,-363.35 62,-363.35 62,-371.01 62,-371.01 62,-374.85 58.17,-378.68 54.33,-378.68"/>
<text text-anchor="middle" x="31" y="-363.48" font-family="Arial" font-size="14.00" fill="#c6c5fe">index.js</text>
</g>
<!-- index.js&#45;&gt;cluster/cluster.constants.js -->
<g id="edge22" class="edge">
<title>index.js&#45;&gt;cluster/cluster.constants.js</title>
<path fill="none" stroke="#757575" d="M32.87,-379.1C35.88,-411.81 48.53,-503.99 98,-557.18 194.4,-660.83 248.95,-683.18 390.5,-683.18 390.5,-683.18 390.5,-683.18 814.5,-683.18 969.28,-683.18 1009.94,-681.92 1161,-648.18 1190.47,-641.6 1222.65,-630.06 1246.55,-620.6"/>
<polygon fill="#757575" stroke="#757575" points="1247.96,-623.8 1255.93,-616.82 1245.35,-617.31 1247.96,-623.8"/>
</g>
<!-- index.js&#45;&gt;cluster/cluster.health.js -->
<g id="edge23" class="edge">
<title>index.js&#45;&gt;cluster/cluster.health.js</title>
<path fill="none" stroke="#757575" d="M62.21,-369.22C147.46,-374.98 392.24,-391.53 523.47,-400.4"/>
<polygon fill="#757575" stroke="#757575" points="523.28,-403.89 533.49,-401.08 523.75,-396.91 523.28,-403.89"/>
</g>
<!-- index.js&#45;&gt;cluster/cluster.service.js -->
<g id="edge25" class="edge">
<title>index.js&#45;&gt;cluster/cluster.service.js</title>
<path fill="none" stroke="#757575" d="M60.15,-378.72C71.69,-383 85.3,-387.46 98,-390.18 319.44,-437.61 587.17,-445.9 723.44,-446.73"/>
<polygon fill="#757575" stroke="#757575" points="723.8,-450.24 733.81,-446.79 723.83,-443.24 723.8,-450.24"/>
</g>
<!-- index.js&#45;&gt;cluster/common/index.js -->
<g id="edge26" class="edge">
<title>index.js&#45;&gt;cluster/common/index.js</title>
<path fill="none" stroke="#757575" d="M33.75,-378.93C38.5,-406.39 54.38,-474.88 98,-507.18 299.27,-656.22 625.67,-606.15 756.07,-577.92"/>
<polygon fill="#757575" stroke="#757575" points="756.84,-581.33 765.85,-575.76 755.33,-574.5 756.84,-581.33"/>
</g>
<!-- index.js&#45;&gt;cluster/cluster.module.js -->
<g id="edge24" class="edge">
<title>index.js&#45;&gt;cluster/cluster.module.js</title>
<path fill="none" stroke="#757575" d="M37.15,-378.71C46.48,-398.3 68.03,-438.11 98,-460.18 103.58,-464.29 109.84,-467.77 116.33,-470.71"/>
<polygon fill="#757575" stroke="#757575" points="115.38,-474.1 125.96,-474.65 118.03,-467.62 115.38,-474.1"/>
</g>
<!-- redis/common/index.js -->
<g id="node15" class="node">
<title>redis/common/index.js</title>
<path fill="none" stroke="#c6c5fe" d="M881.83,-141.68C881.83,-141.68 745.17,-141.68 745.17,-141.68 741.33,-141.68 737.5,-137.85 737.5,-134.01 737.5,-134.01 737.5,-126.35 737.5,-126.35 737.5,-122.51 741.33,-118.68 745.17,-118.68 745.17,-118.68 881.83,-118.68 881.83,-118.68 885.67,-118.68 889.5,-122.51 889.5,-126.35 889.5,-126.35 889.5,-134.01 889.5,-134.01 889.5,-137.85 885.67,-141.68 881.83,-141.68"/>
<text text-anchor="middle" x="813.5" y="-126.48" font-family="Arial" font-size="14.00" fill="#c6c5fe">redis/common/index.js</text>
</g>
<!-- index.js&#45;&gt;redis/common/index.js -->
<g id="edge27" class="edge">
<title>index.js&#45;&gt;redis/common/index.js</title>
<path fill="none" stroke="#757575" d="M32.8,-355.58C35.61,-324.72 47.73,-240.18 98,-199.18 292.36,-40.65 622.72,-88.73 755.12,-116.55"/>
<polygon fill="#757575" stroke="#757575" points="754.55,-120 765.06,-118.68 756.01,-113.16 754.55,-120"/>
</g>
<!-- redis/redis.constants.js -->
<g id="node16" class="node">
<title>redis/redis.constants.js</title>
<path fill="none" stroke="#cfffac" d="M1353.33,-144.68C1353.33,-144.68 1214.67,-144.68 1214.67,-144.68 1210.83,-144.68 1207,-140.85 1207,-137.01 1207,-137.01 1207,-129.35 1207,-129.35 1207,-125.51 1210.83,-121.68 1214.67,-121.68 1214.67,-121.68 1353.33,-121.68 1353.33,-121.68 1357.17,-121.68 1361,-125.51 1361,-129.35 1361,-129.35 1361,-137.01 1361,-137.01 1361,-140.85 1357.17,-144.68 1353.33,-144.68"/>
<text text-anchor="middle" x="1284" y="-129.48" font-family="Arial" font-size="14.00" fill="#cfffac">redis/redis.constants.js</text>
</g>
<!-- index.js&#45;&gt;redis/redis.constants.js -->
<g id="edge28" class="edge">
<title>index.js&#45;&gt;redis/redis.constants.js</title>
<path fill="none" stroke="#757575" d="M31.44,-355.57C30.17,-316.14 31.44,-185.87 98,-114.18 191.48,-13.49 253.11,-14.18 390.5,-14.18 390.5,-14.18 390.5,-14.18 814.5,-14.18 968.66,-14.18 1017.47,26.09 1161,-30.18 1205.79,-47.74 1245.91,-88.82 1267.12,-113.47"/>
<polygon fill="#757575" stroke="#757575" points="1264.7,-116.03 1273.81,-121.44 1270.06,-111.53 1264.7,-116.03"/>
</g>
<!-- redis/redis.health.js -->
<g id="node17" class="node">
<title>redis/redis.health.js</title>
<path fill="none" stroke="#c6c5fe" d="M668.83,-261.68C668.83,-261.68 551.17,-261.68 551.17,-261.68 547.33,-261.68 543.5,-257.85 543.5,-254.01 543.5,-254.01 543.5,-246.35 543.5,-246.35 543.5,-242.51 547.33,-238.68 551.17,-238.68 551.17,-238.68 668.83,-238.68 668.83,-238.68 672.67,-238.68 676.5,-242.51 676.5,-246.35 676.5,-246.35 676.5,-254.01 676.5,-254.01 676.5,-257.85 672.67,-261.68 668.83,-261.68"/>
<text text-anchor="middle" x="610" y="-246.48" font-family="Arial" font-size="14.00" fill="#c6c5fe">redis/redis.health.js</text>
</g>
<!-- index.js&#45;&gt;redis/redis.health.js -->
<g id="edge29" class="edge">
<title>index.js&#45;&gt;redis/redis.health.js</title>
<path fill="none" stroke="#757575" d="M42.41,-355.66C54.45,-343.15 75.54,-323.69 98,-314.18 242.87,-252.83 430,-245.58 532.86,-247.04"/>
<polygon fill="#757575" stroke="#757575" points="533.09,-250.55 543.15,-247.22 533.21,-243.55 533.09,-250.55"/>
</g>
<!-- redis/redis.module.js -->
<g id="node18" class="node">
<title>redis/redis.module.js</title>
<path fill="none" stroke="#c6c5fe" d="M241.33,-231.68C241.33,-231.68 115.67,-231.68 115.67,-231.68 111.83,-231.68 108,-227.85 108,-224.01 108,-224.01 108,-216.35 108,-216.35 108,-212.51 111.83,-208.68 115.67,-208.68 115.67,-208.68 241.33,-208.68 241.33,-208.68 245.17,-208.68 249,-212.51 249,-216.35 249,-216.35 249,-224.01 249,-224.01 249,-227.85 245.17,-231.68 241.33,-231.68"/>
<text text-anchor="middle" x="178.5" y="-216.48" font-family="Arial" font-size="14.00" fill="#c6c5fe">redis/redis.module.js</text>
</g>
<!-- index.js&#45;&gt;redis/redis.module.js -->
<g id="edge30" class="edge">
<title>index.js&#45;&gt;redis/redis.module.js</title>
<path fill="none" stroke="#757575" d="M36.16,-355.56C44.61,-333.47 65.75,-285.03 98,-256.18 107.35,-247.81 118.97,-241.09 130.42,-235.83"/>
<polygon fill="#757575" stroke="#757575" points="132.12,-238.91 139.93,-231.75 129.36,-232.47 132.12,-238.91"/>
</g>
<!-- redis/redis.service.js -->
<g id="node19" class="node">
<title>redis/redis.service.js</title>
<path fill="none" stroke="#c6c5fe" d="M875.33,-262.68C875.33,-262.68 751.67,-262.68 751.67,-262.68 747.83,-262.68 744,-258.85 744,-255.01 744,-255.01 744,-247.35 744,-247.35 744,-243.51 747.83,-239.68 751.67,-239.68 751.67,-239.68 875.33,-239.68 875.33,-239.68 879.17,-239.68 883,-243.51 883,-247.35 883,-247.35 883,-255.01 883,-255.01 883,-258.85 879.17,-262.68 875.33,-262.68"/>
<text text-anchor="middle" x="813.5" y="-247.48" font-family="Arial" font-size="14.00" fill="#c6c5fe">redis/redis.service.js</text>
</g>
<!-- index.js&#45;&gt;redis/redis.service.js -->
<g id="edge31" class="edge">
<title>index.js&#45;&gt;redis/redis.service.js</title>
<path fill="none" stroke="#757575" d="M62.14,-362.96C156.03,-349.77 451.63,-307.95 696,-270.18 708.23,-268.29 721.16,-266.23 733.8,-264.2"/>
<polygon fill="#757575" stroke="#757575" points="734.53,-267.62 743.84,-262.57 733.41,-260.71 734.53,-267.62"/>
</g>
<!-- redis/common/redis&#45;utils.js -->
<g id="node20" class="node">
<title>redis/common/redis&#45;utils.js</title>
<path fill="none" stroke="#cfffac" d="M1127.33,-103.68C1127.33,-103.68 964.67,-103.68 964.67,-103.68 960.83,-103.68 957,-99.85 957,-96.01 957,-96.01 957,-88.35 957,-88.35 957,-84.51 960.83,-80.68 964.67,-80.68 964.67,-80.68 1127.33,-80.68 1127.33,-80.68 1131.17,-80.68 1135,-84.51 1135,-88.35 1135,-88.35 1135,-96.01 1135,-96.01 1135,-99.85 1131.17,-103.68 1127.33,-103.68"/>
<text text-anchor="middle" x="1046" y="-88.48" font-family="Arial" font-size="14.00" fill="#cfffac">redis/common/redis&#45;utils.js</text>
</g>
<!-- redis/common/index.js&#45;&gt;redis/common/redis&#45;utils.js -->
<g id="edge32" class="edge">
<title>redis/common/index.js&#45;&gt;redis/common/redis&#45;utils.js</title>
<path fill="none" stroke="#757575" d="M884.28,-118.68C909.78,-114.47 938.81,-109.69 965.12,-105.35"/>
<polygon fill="#757575" stroke="#757575" points="965.76,-108.79 975.06,-103.71 964.62,-101.88 965.76,-108.79"/>
</g>
<!-- redis/common/redis.decorator.js -->
<g id="node21" class="node">
<title>redis/common/redis.decorator.js</title>
<path fill="none" stroke="#c6c5fe" d="M1142.83,-144.68C1142.83,-144.68 949.17,-144.68 949.17,-144.68 945.33,-144.68 941.5,-140.85 941.5,-137.01 941.5,-137.01 941.5,-129.35 941.5,-129.35 941.5,-125.51 945.33,-121.68 949.17,-121.68 949.17,-121.68 1142.83,-121.68 1142.83,-121.68 1146.67,-121.68 1150.5,-125.51 1150.5,-129.35 1150.5,-129.35 1150.5,-137.01 1150.5,-137.01 1150.5,-140.85 1146.67,-144.68 1142.83,-144.68"/>
<text text-anchor="middle" x="1046" y="-129.48" font-family="Arial" font-size="14.00" fill="#c6c5fe">redis/common/redis.decorator.js</text>
</g>
<!-- redis/common/index.js&#45;&gt;redis/common/redis.decorator.js -->
<g id="edge33" class="edge">
<title>redis/common/index.js&#45;&gt;redis/common/redis.decorator.js</title>
<path fill="none" stroke="#757575" d="M889.66,-131.16C902.98,-131.33 917.11,-131.51 931.22,-131.7"/>
<polygon fill="#757575" stroke="#757575" points="931.43,-135.2 941.47,-131.83 931.52,-128.2 931.43,-135.2"/>
</g>
<!-- redis/redis.health.js&#45;&gt;redis/redis.service.js -->
<g id="edge41" class="edge">
<title>redis/redis.health.js&#45;&gt;redis/redis.service.js</title>
<path fill="none" stroke="#757575" d="M676.7,-250.51C694.9,-250.6 714.85,-250.69 733.72,-250.79"/>
<polygon fill="#757575" stroke="#757575" points="733.76,-254.29 743.77,-250.84 733.79,-247.29 733.76,-254.29"/>
</g>
<!-- redis/redis&#45;core.module.js -->
<g id="node22" class="node">
<title>redis/redis&#45;core.module.js</title>
<path fill="none" stroke="#c6c5fe" d="M469.83,-221.68C469.83,-221.68 313.17,-221.68 313.17,-221.68 309.33,-221.68 305.5,-217.85 305.5,-214.01 305.5,-214.01 305.5,-206.35 305.5,-206.35 305.5,-202.51 309.33,-198.68 313.17,-198.68 313.17,-198.68 469.83,-198.68 469.83,-198.68 473.67,-198.68 477.5,-202.51 477.5,-206.35 477.5,-206.35 477.5,-214.01 477.5,-214.01 477.5,-217.85 473.67,-221.68 469.83,-221.68"/>
<text text-anchor="middle" x="391.5" y="-206.48" font-family="Arial" font-size="14.00" fill="#c6c5fe">redis/redis&#45;core.module.js</text>
</g>
<!-- redis/redis.module.js&#45;&gt;redis/redis&#45;core.module.js -->
<g id="edge42" class="edge">
<title>redis/redis.module.js&#45;&gt;redis/redis&#45;core.module.js</title>
<path fill="none" stroke="#757575" d="M249.17,-216.88C263.94,-216.18 279.78,-215.43 295.31,-214.69"/>
<polygon fill="#757575" stroke="#757575" points="295.64,-218.18 305.46,-214.21 295.31,-211.19 295.64,-218.18"/>
</g>
<!-- redis/redis.service.js&#45;&gt;utils/index.js -->
<g id="edge49" class="edge">
<title>redis/redis.service.js&#45;&gt;utils/index.js</title>
<path fill="none" stroke="#757575" d="M859.43,-262.8C871.32,-266.64 883.92,-271.44 895,-277.18 912.76,-286.38 912.92,-295.62 931,-304.18 949.67,-313.02 971.42,-319.24 990.89,-323.54"/>
<polygon fill="#757575" stroke="#757575" points="990.33,-327 1000.83,-325.62 991.76,-320.15 990.33,-327"/>
</g>
<!-- redis/redis.service.js&#45;&gt;errors/index.js -->
<g id="edge47" class="edge">
<title>redis/redis.service.js&#45;&gt;errors/index.js</title>
<path fill="none" stroke="#757575" d="M883.2,-259.92C953.58,-269.61 1065.86,-287.11 1161,-311.18 1188.86,-318.23 1219.53,-328.55 1243.14,-337.07"/>
<polygon fill="#757575" stroke="#757575" points="1242.21,-340.45 1252.8,-340.59 1244.61,-333.88 1242.21,-340.45"/>
</g>
<!-- redis/redis.service.js&#45;&gt;redis/redis.constants.js -->
<g id="edge48" class="edge">
<title>redis/redis.service.js&#45;&gt;redis/redis.constants.js</title>
<path fill="none" stroke="#757575" d="M883.03,-243.33C953.76,-234.13 1066.75,-216.3 1161,-187.18 1193.04,-177.28 1227.86,-161.31 1252.07,-149.29"/>
<polygon fill="#757575" stroke="#757575" points="1253.76,-152.36 1261.12,-144.74 1250.61,-146.11 1253.76,-152.36"/>
</g>
<!-- redis/common/redis.decorator.js&#45;&gt;redis/redis.constants.js -->
<g id="edge34" class="edge">
<title>redis/common/redis.decorator.js&#45;&gt;redis/redis.constants.js</title>
<path fill="none" stroke="#757575" d="M1150.51,-133.18C1165.91,-133.18 1181.64,-133.18 1196.63,-133.18"/>
<polygon fill="#757575" stroke="#757575" points="1196.88,-136.68 1206.88,-133.18 1196.88,-129.68 1196.88,-136.68"/>
</g>
<!-- redis/redis&#45;core.module.js&#45;&gt;utils/index.js -->
<g id="edge40" class="edge">
<title>redis/redis&#45;core.module.js&#45;&gt;utils/index.js</title>
<path fill="none" stroke="#757575" d="M412.7,-221.8C437.89,-235.72 482.68,-258.6 524,-270.18 689.87,-316.67 894.98,-328.31 990.85,-331.21"/>
<polygon fill="#757575" stroke="#757575" points="990.79,-334.71 1000.89,-331.5 990.99,-327.72 990.79,-334.71"/>
</g>
<!-- redis/redis&#45;core.module.js&#45;&gt;redis/common/index.js -->
<g id="edge35" class="edge">
<title>redis/redis&#45;core.module.js&#45;&gt;redis/common/index.js</title>
<path fill="none" stroke="#757575" d="M411.7,-198.5C436.59,-184.02 481.82,-159.95 524,-149.18 590.75,-132.13 668.86,-127.9 726.96,-127.65"/>
<polygon fill="#757575" stroke="#757575" points="727.2,-131.15 737.2,-127.64 727.2,-124.15 727.2,-131.15"/>
</g>
<!-- redis/redis&#45;core.module.js&#45;&gt;redis/redis.constants.js -->
<g id="edge36" class="edge">
<title>redis/redis&#45;core.module.js&#45;&gt;redis/redis.constants.js</title>
<path fill="none" stroke="#757575" d="M405.98,-198.51C428.63,-179.61 476.55,-142.65 524,-125.18 790.62,-26.99 884.69,-5 1161,-71.18 1197.06,-79.82 1234.49,-100.96 1258.22,-116.16"/>
<polygon fill="#757575" stroke="#757575" points="1256.33,-119.1 1266.62,-121.65 1260.17,-113.25 1256.33,-119.1"/>
</g>
<!-- redis/redis&#45;core.module.js&#45;&gt;redis/redis.health.js -->
<g id="edge37" class="edge">
<title>redis/redis&#45;core.module.js&#45;&gt;redis/redis.health.js</title>
<path fill="none" stroke="#757575" d="M454.83,-221.7C480.42,-226.42 510.21,-231.93 536.74,-236.83"/>
<polygon fill="#757575" stroke="#757575" points="536.27,-240.3 546.73,-238.68 537.54,-233.42 536.27,-240.3"/>
</g>
<!-- redis/redis&#45;core.module.js&#45;&gt;redis/redis.service.js -->
<g id="edge39" class="edge">
<title>redis/redis&#45;core.module.js&#45;&gt;redis/redis.service.js</title>
<path fill="none" stroke="#757575" d="M477.8,-212.69C538.77,-215.17 622.66,-220 696,-229.18 713.33,-231.35 731.97,-234.5 749.15,-237.74"/>
<polygon fill="#757575" stroke="#757575" points="748.59,-241.19 759.07,-239.65 749.91,-234.32 748.59,-241.19"/>
</g>
<!-- redis/redis.providers.js -->
<g id="node23" class="node">
<title>redis/redis.providers.js</title>
<path fill="none" stroke="#c6c5fe" d="M678.33,-181.68C678.33,-181.68 541.67,-181.68 541.67,-181.68 537.83,-181.68 534,-177.85 534,-174.01 534,-174.01 534,-166.35 534,-166.35 534,-162.51 537.83,-158.68 541.67,-158.68 541.67,-158.68 678.33,-158.68 678.33,-158.68 682.17,-158.68 686,-162.51 686,-166.35 686,-166.35 686,-174.01 686,-174.01 686,-177.85 682.17,-181.68 678.33,-181.68"/>
<text text-anchor="middle" x="610" y="-166.48" font-family="Arial" font-size="14.00" fill="#c6c5fe">redis/redis.providers.js</text>
</g>
<!-- redis/redis&#45;core.module.js&#45;&gt;redis/redis.providers.js -->
<g id="edge38" class="edge">
<title>redis/redis&#45;core.module.js&#45;&gt;redis/redis.providers.js</title>
<path fill="none" stroke="#757575" d="M454.83,-198.66C480.42,-193.94 510.21,-188.43 536.74,-183.53"/>
<polygon fill="#757575" stroke="#757575" points="537.54,-186.94 546.73,-181.68 536.27,-180.06 537.54,-186.94"/>
</g>
<!-- redis/redis.providers.js&#45;&gt;errors/index.js -->
<g id="edge43" class="edge">
<title>redis/redis.providers.js&#45;&gt;errors/index.js</title>
<path fill="none" stroke="#757575" d="M686.18,-178.76C816,-194.28 1076.41,-228.71 1161,-264.18 1201.11,-281 1240.67,-313.18 1263.41,-333.62"/>
<polygon fill="#757575" stroke="#757575" points="1261.26,-336.39 1271,-340.56 1265.99,-331.23 1261.26,-336.39"/>
</g>
<!-- redis/redis.providers.js&#45;&gt;redis/common/index.js -->
<g id="edge44" class="edge">
<title>redis/redis.providers.js&#45;&gt;redis/common/index.js</title>
<path fill="none" stroke="#757575" d="M669.01,-158.66C692.62,-153.98 720.06,-148.53 744.59,-143.66"/>
<polygon fill="#757575" stroke="#757575" points="745.42,-147.06 754.55,-141.68 744.06,-140.2 745.42,-147.06"/>
</g>
<!-- redis/redis.providers.js&#45;&gt;redis/redis.constants.js -->
<g id="edge45" class="edge">
<title>redis/redis.providers.js&#45;&gt;redis/redis.constants.js</title>
<path fill="none" stroke="#757575" d="M686.37,-170.98C792.52,-171.4 991.99,-169.57 1161,-153.18 1177.63,-151.57 1195.43,-149.09 1212.14,-146.41"/>
<polygon fill="#757575" stroke="#757575" points="1213.09,-149.8 1222.39,-144.73 1211.96,-142.9 1213.09,-149.8"/>
</g>
<!-- redis/redis.providers.js&#45;&gt;redis/redis.service.js -->
<g id="edge46" class="edge">
<title>redis/redis.providers.js&#45;&gt;redis/redis.service.js</title>
<path fill="none" stroke="#757575" d="M660.37,-181.81C672.39,-185.57 684.96,-190.32 696,-196.18 714.15,-205.8 713.92,-215.41 732,-225.18 739.79,-229.39 748.38,-233.06 756.96,-236.21"/>
<polygon fill="#757575" stroke="#757575" points="756,-239.58 766.59,-239.54 758.29,-232.96 756,-239.58"/>
</g>
</g>
</svg>
