<?xml version="1.0" encoding="UTF-8" standalone="no"?>
<!DOCTYPE svg PUBLIC "-//W3C//DTD SVG 1.1//EN"
 "http://www.w3.org/Graphics/SVG/1.1/DTD/svg11.dtd">
<!-- Generated by graphviz version 2.43.0 (0)
 -->
<!-- Title: G Pages: 1 -->
<svg width="1426pt" height="654pt"
 viewBox="0.00 0.00 1426.20 654.26" xmlns="http://www.w3.org/2000/svg" xmlns:xlink="http://www.w3.org/1999/xlink">
<g id="graph0" class="graph" transform="scale(1 1) rotate(0) translate(21.6 632.66)">
<title>G</title>
<polygon fill="#111111" stroke="transparent" points="-21.6,21.6 -21.6,-632.66 1404.6,-632.66 1404.6,21.6 -21.6,21.6"/>
<!-- cluster/cluster&#45;core.module.js -->
<g id="node1" class="node">
<title>cluster/cluster&#45;core.module.js</title>
<path fill="none" stroke="#c6c5fe" d="M480.33,-440.85C480.33,-440.85 302.67,-440.85 302.67,-440.85 298.83,-440.85 295,-437.02 295,-433.19 295,-433.19 295,-425.52 295,-425.52 295,-421.69 298.83,-417.85 302.67,-417.85 302.67,-417.85 480.33,-417.85 480.33,-417.85 484.17,-417.85 488,-421.69 488,-425.52 488,-425.52 488,-433.19 488,-433.19 488,-437.02 484.17,-440.85 480.33,-440.85"/>
<text text-anchor="middle" x="391.5" y="-425.65" font-family="Arial" font-size="14.00" fill="#c6c5fe">cluster/cluster&#45;core.module.js</text>
</g>
<!-- cluster/cluster.constants.js -->
<g id="node2" class="node">
<title>cluster/cluster.constants.js</title>
<path fill="none" stroke="#cfffac" d="M1369.33,-489.85C1369.33,-489.85 1210.67,-489.85 1210.67,-489.85 1206.83,-489.85 1203,-486.02 1203,-482.19 1203,-482.19 1203,-474.52 1203,-474.52 1203,-470.69 1206.83,-466.85 1210.67,-466.85 1210.67,-466.85 1369.33,-466.85 1369.33,-466.85 1373.17,-466.85 1377,-470.69 1377,-474.52 1377,-474.52 1377,-482.19 1377,-482.19 1377,-486.02 1373.17,-489.85 1369.33,-489.85"/>
<text text-anchor="middle" x="1290" y="-474.65" font-family="Arial" font-size="14.00" fill="#cfffac">cluster/cluster.constants.js</text>
</g>
<!-- cluster/cluster&#45;core.module.js&#45;&gt;cluster/cluster.constants.js -->
<g id="edge1" class="edge">
<title>cluster/cluster&#45;core.module.js&#45;&gt;cluster/cluster.constants.js</title>
<path fill="none" stroke="#757575" d="M433.29,-440.87C459.07,-447.6 493.21,-455.5 524,-459.35 762.96,-489.28 1047.08,-486.35 1192.59,-482.09"/>
<polygon fill="#757575" stroke="#757575" points="1192.94,-485.58 1202.83,-481.78 1192.72,-478.59 1192.94,-485.58"/>
</g>
<!-- cluster/cluster.health.js -->
<g id="node3" class="node">
<title>cluster/cluster.health.js</title>
<path fill="none" stroke="#c6c5fe" d="M678.83,-331.85C678.83,-331.85 541.17,-331.85 541.17,-331.85 537.33,-331.85 533.5,-328.02 533.5,-324.19 533.5,-324.19 533.5,-316.52 533.5,-316.52 533.5,-312.69 537.33,-308.85 541.17,-308.85 541.17,-308.85 678.83,-308.85 678.83,-308.85 682.67,-308.85 686.5,-312.69 686.5,-316.52 686.5,-316.52 686.5,-324.19 686.5,-324.19 686.5,-328.02 682.67,-331.85 678.83,-331.85"/>
<text text-anchor="middle" x="610" y="-316.65" font-family="Arial" font-size="14.00" fill="#c6c5fe">cluster/cluster.health.js</text>
</g>
<!-- cluster/cluster&#45;core.module.js&#45;&gt;cluster/cluster.health.js -->
<g id="edge2" class="edge">
<title>cluster/cluster&#45;core.module.js&#45;&gt;cluster/cluster.health.js</title>
<path fill="none" stroke="#757575" d="M415.67,-417.69C454.49,-398.14 532.75,-358.74 576.87,-336.53"/>
<polygon fill="#757575" stroke="#757575" points="578.64,-339.56 586,-331.94 575.49,-333.31 578.64,-339.56"/>
</g>
<!-- cluster/cluster.providers.js -->
<g id="node4" class="node">
<title>cluster/cluster.providers.js</title>
<path fill="none" stroke="#c6c5fe" d="M688.33,-449.85C688.33,-449.85 531.67,-449.85 531.67,-449.85 527.83,-449.85 524,-446.02 524,-442.19 524,-442.19 524,-434.52 524,-434.52 524,-430.69 527.83,-426.85 531.67,-426.85 531.67,-426.85 688.33,-426.85 688.33,-426.85 692.17,-426.85 696,-430.69 696,-434.52 696,-434.52 696,-442.19 696,-442.19 696,-446.02 692.17,-449.85 688.33,-449.85"/>
<text text-anchor="middle" x="610" y="-434.65" font-family="Arial" font-size="14.00" fill="#c6c5fe">cluster/cluster.providers.js</text>
</g>
<!-- cluster/cluster&#45;core.module.js&#45;&gt;cluster/cluster.providers.js -->
<g id="edge3" class="edge">
<title>cluster/cluster&#45;core.module.js&#45;&gt;cluster/cluster.providers.js</title>
<path fill="none" stroke="#757575" d="M488.09,-433.33C496.55,-433.68 505.11,-434.04 513.56,-434.39"/>
<polygon fill="#757575" stroke="#757575" points="513.67,-437.89 523.81,-434.81 513.96,-430.9 513.67,-437.89"/>
</g>
<!-- cluster/cluster.service.js -->
<g id="node5" class="node">
<title>cluster/cluster.service.js</title>
<path fill="none" stroke="#c6c5fe" d="M885.33,-373.85C885.33,-373.85 741.67,-373.85 741.67,-373.85 737.83,-373.85 734,-370.02 734,-366.19 734,-366.19 734,-358.52 734,-358.52 734,-354.69 737.83,-350.85 741.67,-350.85 741.67,-350.85 885.33,-350.85 885.33,-350.85 889.17,-350.85 893,-354.69 893,-358.52 893,-358.52 893,-366.19 893,-366.19 893,-370.02 889.17,-373.85 885.33,-373.85"/>
<text text-anchor="middle" x="813.5" y="-358.65" font-family="Arial" font-size="14.00" fill="#c6c5fe">cluster/cluster.service.js</text>
</g>
<!-- cluster/cluster&#45;core.module.js&#45;&gt;cluster/cluster.service.js -->
<g id="edge4" class="edge">
<title>cluster/cluster&#45;core.module.js&#45;&gt;cluster/cluster.service.js</title>
<path fill="none" stroke="#757575" d="M464.7,-417.84C538.44,-406.07 652.75,-387.84 730.01,-375.51"/>
<polygon fill="#757575" stroke="#757575" points="730.86,-378.92 740.19,-373.89 729.76,-372.01 730.86,-378.92"/>
</g>
<!-- cluster/common/index.js -->
<g id="node6" class="node">
<title>cluster/common/index.js</title>
<path fill="none" stroke="#c6c5fe" d="M887.33,-529.85C887.33,-529.85 739.67,-529.85 739.67,-529.85 735.83,-529.85 732,-526.02 732,-522.19 732,-522.19 732,-514.52 732,-514.52 732,-510.69 735.83,-506.85 739.67,-506.85 739.67,-506.85 887.33,-506.85 887.33,-506.85 891.17,-506.85 895,-510.69 895,-514.52 895,-514.52 895,-522.19 895,-522.19 895,-526.02 891.17,-529.85 887.33,-529.85"/>
<text text-anchor="middle" x="813.5" y="-514.65" font-family="Arial" font-size="14.00" fill="#c6c5fe">cluster/common/index.js</text>
</g>
<!-- cluster/cluster&#45;core.module.js&#45;&gt;cluster/common/index.js -->
<g id="edge5" class="edge">
<title>cluster/cluster&#45;core.module.js&#45;&gt;cluster/common/index.js</title>
<path fill="none" stroke="#757575" d="M411.26,-441.01C436.04,-455.77 481.53,-480.68 524,-492.35 588.61,-510.12 664.13,-516.44 721.69,-518.41"/>
<polygon fill="#757575" stroke="#757575" points="721.75,-521.91 731.85,-518.72 721.96,-514.91 721.75,-521.91"/>
</g>
<!-- cluster/cluster.health.js&#45;&gt;cluster/cluster.service.js -->
<g id="edge6" class="edge">
<title>cluster/cluster.health.js&#45;&gt;cluster/cluster.service.js</title>
<path fill="none" stroke="#757575" d="M666.33,-331.89C691.43,-337.12 721.29,-343.34 747.46,-348.8"/>
<polygon fill="#757575" stroke="#757575" points="746.79,-352.23 757.3,-350.85 748.22,-345.38 746.79,-352.23"/>
</g>
<!-- errors/index.js -->
<g id="node7" class="node">
<title>errors/index.js</title>
<path fill="none" stroke="#c6c5fe" d="M1088.83,-295.85C1088.83,-295.85 1003.17,-295.85 1003.17,-295.85 999.33,-295.85 995.5,-292.02 995.5,-288.19 995.5,-288.19 995.5,-280.52 995.5,-280.52 995.5,-276.69 999.33,-272.85 1003.17,-272.85 1003.17,-272.85 1088.83,-272.85 1088.83,-272.85 1092.67,-272.85 1096.5,-276.69 1096.5,-280.52 1096.5,-280.52 1096.5,-288.19 1096.5,-288.19 1096.5,-292.02 1092.67,-295.85 1088.83,-295.85"/>
<text text-anchor="middle" x="1046" y="-280.65" font-family="Arial" font-size="14.00" fill="#c6c5fe">errors/index.js</text>
</g>
<!-- cluster/cluster.health.js&#45;&gt;errors/index.js -->
<g id="edge7" class="edge">
<title>cluster/cluster.health.js&#45;&gt;errors/index.js</title>
<path fill="none" stroke="#757575" d="M686.6,-314.08C771.43,-307.05 907.34,-295.77 985.14,-289.32"/>
<polygon fill="#757575" stroke="#757575" points="985.58,-292.8 995.25,-288.48 985,-285.82 985.58,-292.8"/>
</g>
<!-- utils/index.js -->
<g id="node8" class="node">
<title>utils/index.js</title>
<path fill="none" stroke="#cfffac" d="M1083.33,-336.85C1083.33,-336.85 1008.67,-336.85 1008.67,-336.85 1004.83,-336.85 1001,-333.02 1001,-329.19 1001,-329.19 1001,-321.52 1001,-321.52 1001,-317.69 1004.83,-313.85 1008.67,-313.85 1008.67,-313.85 1083.33,-313.85 1083.33,-313.85 1087.17,-313.85 1091,-317.69 1091,-321.52 1091,-321.52 1091,-329.19 1091,-329.19 1091,-333.02 1087.17,-336.85 1083.33,-336.85"/>
<text text-anchor="middle" x="1046" y="-321.65" font-family="Arial" font-size="14.00" fill="#cfffac">utils/index.js</text>
</g>
<!-- cluster/cluster.health.js&#45;&gt;utils/index.js -->
<g id="edge8" class="edge">
<title>cluster/cluster.health.js&#45;&gt;utils/index.js</title>
<path fill="none" stroke="#757575" d="M686.6,-321.23C773.35,-322.22 913.5,-323.84 990.31,-324.72"/>
<polygon fill="#757575" stroke="#757575" points="990.68,-328.23 1000.72,-324.84 990.76,-321.23 990.68,-328.23"/>
</g>
<!-- cluster/cluster.providers.js&#45;&gt;cluster/cluster.constants.js -->
<g id="edge10" class="edge">
<title>cluster/cluster.providers.js&#45;&gt;cluster/cluster.constants.js</title>
<path fill="none" stroke="#757575" d="M696.37,-440.76C804.59,-444.18 996.84,-451.51 1161,-464.35 1171.22,-465.15 1181.88,-466.12 1192.5,-467.16"/>
<polygon fill="#757575" stroke="#757575" points="1192.36,-470.66 1202.66,-468.18 1193.06,-463.69 1192.36,-470.66"/>
</g>
<!-- cluster/cluster.providers.js&#45;&gt;cluster/cluster.service.js -->
<g id="edge11" class="edge">
<title>cluster/cluster.providers.js&#45;&gt;cluster/cluster.service.js</title>
<path fill="none" stroke="#757575" d="M657.36,-426.84C670.16,-422.95 683.87,-418.1 696,-412.35 713.38,-404.12 714.69,-396.72 732,-388.35 740.64,-384.18 750.11,-380.44 759.42,-377.19"/>
<polygon fill="#757575" stroke="#757575" points="760.65,-380.47 769.03,-373.98 758.44,-373.83 760.65,-380.47"/>
</g>
<!-- cluster/cluster.providers.js&#45;&gt;cluster/common/index.js -->
<g id="edge12" class="edge">
<title>cluster/cluster.providers.js&#45;&gt;cluster/common/index.js</title>
<path fill="none" stroke="#757575" d="M640.3,-449.99C675.62,-464.01 735.07,-487.61 774.05,-503.09"/>
<polygon fill="#757575" stroke="#757575" points="772.91,-506.4 783.49,-506.84 775.49,-499.89 772.91,-506.4"/>
</g>
<!-- cluster/cluster.providers.js&#45;&gt;errors/index.js -->
<g id="edge13" class="edge">
<title>cluster/cluster.providers.js&#45;&gt;errors/index.js</title>
<path fill="none" stroke="#757575" d="M696.19,-430.44C768.29,-422.22 864.62,-407.17 895,-383.35 925.05,-359.8 900.84,-328.77 931,-305.35 946.36,-293.43 966.37,-287.51 985.32,-284.77"/>
<polygon fill="#757575" stroke="#757575" points="985.89,-288.23 995.41,-283.58 985.07,-281.28 985.89,-288.23"/>
</g>
<!-- cluster/cluster.service.js&#45;&gt;cluster/cluster.constants.js -->
<g id="edge14" class="edge">
<title>cluster/cluster.service.js&#45;&gt;cluster/cluster.constants.js</title>
<path fill="none" stroke="#757575" d="M893.31,-372.25C964.25,-382.26 1070.87,-400.02 1161,-426.35 1193.87,-435.96 1229.88,-451.02 1255.32,-462.47"/>
<polygon fill="#757575" stroke="#757575" points="1253.96,-465.7 1264.52,-466.66 1256.87,-459.33 1253.96,-465.7"/>
</g>
<!-- cluster/cluster.service.js&#45;&gt;errors/index.js -->
<g id="edge15" class="edge">
<title>cluster/cluster.service.js&#45;&gt;errors/index.js</title>
<path fill="none" stroke="#757575" d="M834,-350.75C856.59,-337.8 895.29,-317.13 931,-305.35 948.25,-299.66 967.52,-295.37 985.23,-292.21"/>
<polygon fill="#757575" stroke="#757575" points="986.17,-295.6 995.45,-290.47 985,-288.69 986.17,-295.6"/>
</g>
<!-- cluster/cluster.service.js&#45;&gt;utils/index.js -->
<g id="edge16" class="edge">
<title>cluster/cluster.service.js&#45;&gt;utils/index.js</title>
<path fill="none" stroke="#757575" d="M886.17,-350.85C919.89,-345.44 959.45,-339.09 990.65,-334.08"/>
<polygon fill="#757575" stroke="#757575" points="991.57,-337.48 1000.89,-332.43 990.46,-330.56 991.57,-337.48"/>
</g>
<!-- cluster/common/cluster&#45;utils.js -->
<g id="node10" class="node">
<title>cluster/common/cluster&#45;utils.js</title>
<path fill="none" stroke="#cfffac" d="M1137.83,-529.85C1137.83,-529.85 954.17,-529.85 954.17,-529.85 950.33,-529.85 946.5,-526.02 946.5,-522.19 946.5,-522.19 946.5,-514.52 946.5,-514.52 946.5,-510.69 950.33,-506.85 954.17,-506.85 954.17,-506.85 1137.83,-506.85 1137.83,-506.85 1141.67,-506.85 1145.5,-510.69 1145.5,-514.52 1145.5,-514.52 1145.5,-522.19 1145.5,-522.19 1145.5,-526.02 1141.67,-529.85 1137.83,-529.85"/>
<text text-anchor="middle" x="1046" y="-514.65" font-family="Arial" font-size="14.00" fill="#cfffac">cluster/common/cluster&#45;utils.js</text>
</g>
<!-- cluster/common/index.js&#45;&gt;cluster/common/cluster&#45;utils.js -->
<g id="edge18" class="edge">
<title>cluster/common/index.js&#45;&gt;cluster/common/cluster&#45;utils.js</title>
<path fill="none" stroke="#757575" d="M895.12,-518.35C908.39,-518.35 922.33,-518.35 936.15,-518.35"/>
<polygon fill="#757575" stroke="#757575" points="936.18,-521.85 946.18,-518.35 936.18,-514.85 936.18,-521.85"/>
</g>
<!-- cluster/common/cluster.decorator.js -->
<g id="node11" class="node">
<title>cluster/common/cluster.decorator.js</title>
<path fill="none" stroke="#c6c5fe" d="M1153.33,-570.85C1153.33,-570.85 938.67,-570.85 938.67,-570.85 934.83,-570.85 931,-567.02 931,-563.19 931,-563.19 931,-555.52 931,-555.52 931,-551.69 934.83,-547.85 938.67,-547.85 938.67,-547.85 1153.33,-547.85 1153.33,-547.85 1157.17,-547.85 1161,-551.69 1161,-555.52 1161,-555.52 1161,-563.19 1161,-563.19 1161,-567.02 1157.17,-570.85 1153.33,-570.85"/>
<text text-anchor="middle" x="1046" y="-555.65" font-family="Arial" font-size="14.00" fill="#c6c5fe">cluster/common/cluster.decorator.js</text>
</g>
<!-- cluster/common/index.js&#45;&gt;cluster/common/cluster.decorator.js -->
<g id="edge19" class="edge">
<title>cluster/common/index.js&#45;&gt;cluster/common/cluster.decorator.js</title>
<path fill="none" stroke="#757575" d="M878.28,-529.91C895.4,-532.99 913.9,-536.31 931,-539.35 943.25,-541.53 956.25,-543.83 968.92,-546.06"/>
<polygon fill="#757575" stroke="#757575" points="968.53,-549.54 978.98,-547.83 969.74,-542.65 968.53,-549.54"/>
</g>
<!-- errors/messages.constant.js -->
<g id="node12" class="node">
<title>errors/messages.constant.js</title>
<path fill="none" stroke="#cfffac" d="M1375.33,-315.85C1375.33,-315.85 1204.67,-315.85 1204.67,-315.85 1200.83,-315.85 1197,-312.02 1197,-308.19 1197,-308.19 1197,-300.52 1197,-300.52 1197,-296.69 1200.83,-292.85 1204.67,-292.85 1204.67,-292.85 1375.33,-292.85 1375.33,-292.85 1379.17,-292.85 1383,-296.69 1383,-300.52 1383,-300.52 1383,-308.19 1383,-308.19 1383,-312.02 1379.17,-315.85 1375.33,-315.85"/>
<text text-anchor="middle" x="1290" y="-300.65" font-family="Arial" font-size="14.00" fill="#cfffac">errors/messages.constant.js</text>
</g>
<!-- errors/index.js&#45;&gt;errors/messages.constant.js -->
<g id="edge20" class="edge">
<title>errors/index.js&#45;&gt;errors/messages.constant.js</title>
<path fill="none" stroke="#757575" d="M1096.56,-288.45C1122.63,-290.61 1155.61,-293.33 1186.87,-295.91"/>
<polygon fill="#757575" stroke="#757575" points="1186.69,-299.41 1196.94,-296.75 1187.26,-292.43 1186.69,-299.41"/>
</g>
<!-- errors/redis.error.js -->
<g id="node13" class="node">
<title>errors/redis.error.js</title>
<path fill="none" stroke="#cfffac" d="M1347.33,-274.85C1347.33,-274.85 1232.67,-274.85 1232.67,-274.85 1228.83,-274.85 1225,-271.02 1225,-267.19 1225,-267.19 1225,-259.52 1225,-259.52 1225,-255.69 1228.83,-251.85 1232.67,-251.85 1232.67,-251.85 1347.33,-251.85 1347.33,-251.85 1351.17,-251.85 1355,-255.69 1355,-259.52 1355,-259.52 1355,-267.19 1355,-267.19 1355,-271.02 1351.17,-274.85 1347.33,-274.85"/>
<text text-anchor="middle" x="1290" y="-259.65" font-family="Arial" font-size="14.00" fill="#cfffac">errors/redis.error.js</text>
</g>
<!-- errors/index.js&#45;&gt;errors/redis.error.js -->
<g id="edge21" class="edge">
<title>errors/index.js&#45;&gt;errors/redis.error.js</title>
<path fill="none" stroke="#757575" d="M1096.56,-280.05C1130.58,-277.1 1176.33,-273.13 1214.7,-269.8"/>
<polygon fill="#757575" stroke="#757575" points="1215.13,-273.28 1224.79,-268.93 1214.52,-266.3 1215.13,-273.28"/>
</g>
<!-- cluster/cluster.module.js -->
<g id="node9" class="node">
<title>cluster/cluster.module.js</title>
<path fill="none" stroke="#c6c5fe" d="M251.33,-421.85C251.33,-421.85 105.67,-421.85 105.67,-421.85 101.83,-421.85 98,-418.02 98,-414.19 98,-414.19 98,-406.52 98,-406.52 98,-402.69 101.83,-398.85 105.67,-398.85 105.67,-398.85 251.33,-398.85 251.33,-398.85 255.17,-398.85 259,-402.69 259,-406.52 259,-406.52 259,-414.19 259,-414.19 259,-418.02 255.17,-421.85 251.33,-421.85"/>
<text text-anchor="middle" x="178.5" y="-406.65" font-family="Arial" font-size="14.00" fill="#c6c5fe">cluster/cluster.module.js</text>
</g>
<!-- cluster/cluster.module.js&#45;&gt;cluster/cluster&#45;core.module.js -->
<g id="edge9" class="edge">
<title>cluster/cluster.module.js&#45;&gt;cluster/cluster&#45;core.module.js</title>
<path fill="none" stroke="#757575" d="M259.27,-417.54C267.57,-418.29 276.1,-419.05 284.64,-419.82"/>
<polygon fill="#757575" stroke="#757575" points="284.37,-423.31 294.64,-420.72 285,-416.34 284.37,-423.31"/>
</g>
<!-- cluster/common/cluster.decorator.js&#45;&gt;cluster/cluster.constants.js -->
<g id="edge17" class="edge">
<title>cluster/common/cluster.decorator.js&#45;&gt;cluster/cluster.constants.js</title>
<path fill="none" stroke="#757575" d="M1128.62,-547.82C1139.62,-545.45 1150.66,-542.66 1161,-539.35 1196.35,-528.06 1234.45,-508.92 1259.8,-495.08"/>
<polygon fill="#757575" stroke="#757575" points="1261.81,-497.97 1268.87,-490.07 1258.42,-491.85 1261.81,-497.97"/>
</g>
<!-- index.js -->
<g id="node14" class="node">
<title>index.js</title>
<path fill="none" stroke="#c6c5fe" d="M54.33,-310.85C54.33,-310.85 7.67,-310.85 7.67,-310.85 3.83,-310.85 0,-307.02 0,-303.19 0,-303.19 0,-295.52 0,-295.52 0,-291.69 3.83,-287.85 7.67,-287.85 7.67,-287.85 54.33,-287.85 54.33,-287.85 58.17,-287.85 62,-291.69 62,-295.52 62,-295.52 62,-303.19 62,-303.19 62,-307.02 58.17,-310.85 54.33,-310.85"/>
<text text-anchor="middle" x="31" y="-295.65" font-family="Arial" font-size="14.00" fill="#c6c5fe">index.js</text>
</g>
<!-- index.js&#45;&gt;cluster/cluster.constants.js -->
<g id="edge22" class="edge">
<title>index.js&#45;&gt;cluster/cluster.constants.js</title>
<path fill="none" stroke="#757575" d="M32.91,-310.98C36.02,-342.86 48.92,-432.62 98,-483.35 195.24,-583.87 250.65,-599.35 390.5,-599.35 390.5,-599.35 390.5,-599.35 814.5,-599.35 968.73,-599.35 1016.86,-635.23 1161,-580.35 1207.28,-562.73 1249.88,-521.82 1272.35,-497.51"/>
<polygon fill="#757575" stroke="#757575" points="1275.07,-499.72 1279.18,-489.95 1269.88,-495.03 1275.07,-499.72"/>
</g>
<!-- index.js&#45;&gt;cluster/cluster.health.js -->
<g id="edge23" class="edge">
<title>index.js&#45;&gt;cluster/cluster.health.js</title>
<path fill="none" stroke="#757575" d="M62.21,-300.45C147.46,-303.56 392.24,-312.47 523.47,-317.24"/>
<polygon fill="#757575" stroke="#757575" points="523.37,-320.74 533.49,-317.61 523.63,-313.74 523.37,-320.74"/>
</g>
<!-- index.js&#45;&gt;cluster/cluster.service.js -->
<g id="edge25" class="edge">
<title>index.js&#45;&gt;cluster/cluster.service.js</title>
<path fill="none" stroke="#757575" d="M62.23,-309.56C73.36,-312.92 86.13,-316.31 98,-318.35 320.76,-356.8 587.66,-362.83 723.53,-363.09"/>
<polygon fill="#757575" stroke="#757575" points="723.88,-366.59 733.88,-363.1 723.88,-359.59 723.88,-366.59"/>
</g>
<!-- index.js&#45;&gt;cluster/common/index.js -->
<g id="edge26" class="edge">
<title>index.js&#45;&gt;cluster/common/index.js</title>
<path fill="none" stroke="#757575" d="M34.26,-311.06C39.93,-337.14 57.34,-400.17 98,-431.35 290.38,-578.91 601.56,-552.78 740.96,-531.47"/>
<polygon fill="#757575" stroke="#757575" points="741.76,-534.89 751.1,-529.89 740.68,-527.97 741.76,-534.89"/>
</g>
<!-- index.js&#45;&gt;cluster/cluster.module.js -->
<g id="edge24" class="edge">
<title>index.js&#45;&gt;cluster/cluster.module.js</title>
<path fill="none" stroke="#757575" d="M39.74,-310.88C50.97,-326.9 73.18,-355.99 98,-374.35 108.97,-382.47 122.05,-389.33 134.41,-394.82"/>
<polygon fill="#757575" stroke="#757575" points="133.1,-398.06 143.68,-398.74 135.83,-391.62 133.1,-398.06"/>
</g>
<!-- redis/common/index.js -->
<g id="node15" class="node">
<title>redis/common/index.js</title>
<path fill="none" stroke="#c6c5fe" d="M881.83,-131.85C881.83,-131.85 745.17,-131.85 745.17,-131.85 741.33,-131.85 737.5,-128.02 737.5,-124.19 737.5,-124.19 737.5,-116.52 737.5,-116.52 737.5,-112.69 741.33,-108.85 745.17,-108.85 745.17,-108.85 881.83,-108.85 881.83,-108.85 885.67,-108.85 889.5,-112.69 889.5,-116.52 889.5,-116.52 889.5,-124.19 889.5,-124.19 889.5,-128.02 885.67,-131.85 881.83,-131.85"/>
<text text-anchor="middle" x="813.5" y="-116.65" font-family="Arial" font-size="14.00" fill="#c6c5fe">redis/common/index.js</text>
</g>
<!-- index.js&#45;&gt;redis/common/index.js -->
<g id="edge27" class="edge">
<title>index.js&#45;&gt;redis/common/index.js</title>
<path fill="none" stroke="#757575" d="M34.68,-287.81C41.02,-263.33 59.37,-206.27 98,-179.35 301.29,-37.71 620.45,-80.68 752.36,-106.79"/>
<polygon fill="#757575" stroke="#757575" points="751.79,-110.25 762.28,-108.8 753.17,-103.39 751.79,-110.25"/>
</g>
<!-- redis/redis.constants.js -->
<g id="node16" class="node">
<title>redis/redis.constants.js</title>
<path fill="none" stroke="#cfffac" d="M1359.33,-154.85C1359.33,-154.85 1220.67,-154.85 1220.67,-154.85 1216.83,-154.85 1213,-151.02 1213,-147.19 1213,-147.19 1213,-139.52 1213,-139.52 1213,-135.69 1216.83,-131.85 1220.67,-131.85 1220.67,-131.85 1359.33,-131.85 1359.33,-131.85 1363.17,-131.85 1367,-135.69 1367,-139.52 1367,-139.52 1367,-147.19 1367,-147.19 1367,-151.02 1363.17,-154.85 1359.33,-154.85"/>
<text text-anchor="middle" x="1290" y="-139.65" font-family="Arial" font-size="14.00" fill="#cfffac">redis/redis.constants.js</text>
</g>
<!-- index.js&#45;&gt;redis/redis.constants.js -->
<g id="edge28" class="edge">
<title>index.js&#45;&gt;redis/redis.constants.js</title>
<path fill="none" stroke="#757575" d="M32.54,-287.45C34.69,-253.95 45.38,-157.89 98,-105.35 195.12,-8.38 253.26,-6.35 390.5,-6.35 390.5,-6.35 390.5,-6.35 814.5,-6.35 969.16,-6.35 1017.93,20.38 1161,-38.35 1207.34,-57.38 1249.92,-99.17 1272.37,-123.91"/>
<polygon fill="#757575" stroke="#757575" points="1269.93,-126.44 1279.19,-131.59 1275.17,-121.79 1269.93,-126.44"/>
</g>
<!-- redis/redis.health.js -->
<g id="node17" class="node">
<title>redis/redis.health.js</title>
<path fill="none" stroke="#c6c5fe" d="M668.83,-251.85C668.83,-251.85 551.17,-251.85 551.17,-251.85 547.33,-251.85 543.5,-248.02 543.5,-244.19 543.5,-244.19 543.5,-236.52 543.5,-236.52 543.5,-232.69 547.33,-228.85 551.17,-228.85 551.17,-228.85 668.83,-228.85 668.83,-228.85 672.67,-228.85 676.5,-232.69 676.5,-236.52 676.5,-236.52 676.5,-244.19 676.5,-244.19 676.5,-248.02 672.67,-251.85 668.83,-251.85"/>
<text text-anchor="middle" x="610" y="-236.65" font-family="Arial" font-size="14.00" fill="#c6c5fe">redis/redis.health.js</text>
</g>
<!-- index.js&#45;&gt;redis/redis.health.js -->
<g id="edge29" class="edge">
<title>index.js&#45;&gt;redis/redis.health.js</title>
<path fill="none" stroke="#757575" d="M49.97,-287.81C62.8,-280.22 80.78,-270.88 98,-266.35 248.33,-226.81 431.91,-229.18 533.04,-234.64"/>
<polygon fill="#757575" stroke="#757575" points="532.98,-238.14 543.16,-235.21 533.37,-231.15 532.98,-238.14"/>
</g>
<!-- redis/redis.module.js -->
<g id="node18" class="node">
<title>redis/redis.module.js</title>
<path fill="none" stroke="#c6c5fe" d="M241.33,-211.85C241.33,-211.85 115.67,-211.85 115.67,-211.85 111.83,-211.85 108,-208.02 108,-204.19 108,-204.19 108,-196.52 108,-196.52 108,-192.69 111.83,-188.85 115.67,-188.85 115.67,-188.85 241.33,-188.85 241.33,-188.85 245.17,-188.85 249,-192.69 249,-196.52 249,-196.52 249,-204.19 249,-204.19 249,-208.02 245.17,-211.85 241.33,-211.85"/>
<text text-anchor="middle" x="178.5" y="-196.65" font-family="Arial" font-size="14.00" fill="#c6c5fe">redis/redis.module.js</text>
</g>
<!-- index.js&#45;&gt;redis/redis.module.js -->
<g id="edge30" class="edge">
<title>index.js&#45;&gt;redis/redis.module.js</title>
<path fill="none" stroke="#757575" d="M39.8,-287.7C50.94,-271.9 72.86,-243.76 98,-227.35 105.11,-222.72 113.09,-218.79 121.19,-215.5"/>
<polygon fill="#757575" stroke="#757575" points="122.58,-218.71 130.7,-211.91 120.11,-212.16 122.58,-218.71"/>
</g>
<!-- redis/redis.service.js -->
<g id="node19" class="node">
<title>redis/redis.service.js</title>
<path fill="none" stroke="#c6c5fe" d="M875.33,-255.85C875.33,-255.85 751.67,-255.85 751.67,-255.85 747.83,-255.85 744,-252.02 744,-248.19 744,-248.19 744,-240.52 744,-240.52 744,-236.69 747.83,-232.85 751.67,-232.85 751.67,-232.85 875.33,-232.85 875.33,-232.85 879.17,-232.85 883,-236.69 883,-240.52 883,-240.52 883,-248.19 883,-248.19 883,-252.02 879.17,-255.85 875.33,-255.85"/>
<text text-anchor="middle" x="813.5" y="-240.65" font-family="Arial" font-size="14.00" fill="#c6c5fe">redis/redis.service.js</text>
</g>
<!-- index.js&#45;&gt;redis/redis.service.js -->
<g id="edge31" class="edge">
<title>index.js&#45;&gt;redis/redis.service.js</title>
<path fill="none" stroke="#757575" d="M62.18,-298.42C156.18,-295.32 452.07,-284.23 696,-260.35 708.26,-259.15 721.22,-257.63 733.87,-256"/>
<polygon fill="#757575" stroke="#757575" points="734.46,-259.45 743.92,-254.68 733.55,-252.51 734.46,-259.45"/>
</g>
<!-- redis/common/redis&#45;utils.js -->
<g id="node20" class="node">
<title>redis/common/redis&#45;utils.js</title>
<path fill="none" stroke="#cfffac" d="M1127.33,-113.85C1127.33,-113.85 964.67,-113.85 964.67,-113.85 960.83,-113.85 957,-110.02 957,-106.19 957,-106.19 957,-98.52 957,-98.52 957,-94.69 960.83,-90.85 964.67,-90.85 964.67,-90.85 1127.33,-90.85 1127.33,-90.85 1131.17,-90.85 1135,-94.69 1135,-98.52 1135,-98.52 1135,-106.19 1135,-106.19 1135,-110.02 1131.17,-113.85 1127.33,-113.85"/>
<text text-anchor="middle" x="1046" y="-98.65" font-family="Arial" font-size="14.00" fill="#cfffac">redis/common/redis&#45;utils.js</text>
</g>
<!-- redis/common/index.js&#45;&gt;redis/common/redis&#45;utils.js -->
<g id="edge32" class="edge">
<title>redis/common/index.js&#45;&gt;redis/common/redis&#45;utils.js</title>
<path fill="none" stroke="#757575" d="M889.66,-114.49C907.81,-113.07 927.48,-111.53 946.52,-110.04"/>
<polygon fill="#757575" stroke="#757575" points="947.02,-113.52 956.71,-109.25 946.47,-106.54 947.02,-113.52"/>
</g>
<!-- redis/common/redis.decorator.js -->
<g id="node21" class="node">
<title>redis/common/redis.decorator.js</title>
<path fill="none" stroke="#c6c5fe" d="M1142.83,-154.85C1142.83,-154.85 949.17,-154.85 949.17,-154.85 945.33,-154.85 941.5,-151.02 941.5,-147.19 941.5,-147.19 941.5,-139.52 941.5,-139.52 941.5,-135.69 945.33,-131.85 949.17,-131.85 949.17,-131.85 1142.83,-131.85 1142.83,-131.85 1146.67,-131.85 1150.5,-135.69 1150.5,-139.52 1150.5,-139.52 1150.5,-147.19 1150.5,-147.19 1150.5,-151.02 1146.67,-154.85 1142.83,-154.85"/>
<text text-anchor="middle" x="1046" y="-139.65" font-family="Arial" font-size="14.00" fill="#c6c5fe">redis/common/redis.decorator.js</text>
</g>
<!-- redis/common/index.js&#45;&gt;redis/common/redis.decorator.js -->
<g id="edge33" class="edge">
<title>redis/common/index.js&#45;&gt;redis/common/redis.decorator.js</title>
<path fill="none" stroke="#757575" d="M889.66,-127.85C902.98,-129.18 917.11,-130.59 931.22,-132"/>
<polygon fill="#757575" stroke="#757575" points="931.18,-135.51 941.47,-133.02 931.87,-128.55 931.18,-135.51"/>
</g>
<!-- redis/redis.health.js&#45;&gt;redis/redis.service.js -->
<g id="edge40" class="edge">
<title>redis/redis.health.js&#45;&gt;redis/redis.service.js</title>
<path fill="none" stroke="#757575" d="M676.7,-241.66C694.9,-242.02 714.85,-242.42 733.72,-242.79"/>
<polygon fill="#757575" stroke="#757575" points="733.71,-246.29 743.77,-242.99 733.84,-239.29 733.71,-246.29"/>
</g>
<!-- redis/redis&#45;core.module.js -->
<g id="node22" class="node">
<title>redis/redis&#45;core.module.js</title>
<path fill="none" stroke="#c6c5fe" d="M469.83,-211.85C469.83,-211.85 313.17,-211.85 313.17,-211.85 309.33,-211.85 305.5,-208.02 305.5,-204.19 305.5,-204.19 305.5,-196.52 305.5,-196.52 305.5,-192.69 309.33,-188.85 313.17,-188.85 313.17,-188.85 469.83,-188.85 469.83,-188.85 473.67,-188.85 477.5,-192.69 477.5,-196.52 477.5,-196.52 477.5,-204.19 477.5,-204.19 477.5,-208.02 473.67,-211.85 469.83,-211.85"/>
<text text-anchor="middle" x="391.5" y="-196.65" font-family="Arial" font-size="14.00" fill="#c6c5fe">redis/redis&#45;core.module.js</text>
</g>
<!-- redis/redis.module.js&#45;&gt;redis/redis&#45;core.module.js -->
<g id="edge41" class="edge">
<title>redis/redis.module.js&#45;&gt;redis/redis&#45;core.module.js</title>
<path fill="none" stroke="#757575" d="M249.17,-200.35C263.94,-200.35 279.78,-200.35 295.31,-200.35"/>
<polygon fill="#757575" stroke="#757575" points="295.46,-203.85 305.46,-200.35 295.46,-196.85 295.46,-203.85"/>
</g>
<!-- redis/redis.service.js&#45;&gt;errors/index.js -->
<g id="edge46" class="edge">
<title>redis/redis.service.js&#45;&gt;errors/index.js</title>
<path fill="none" stroke="#757575" d="M880.86,-255.87C913.74,-261.58 953.14,-268.41 985.1,-273.96"/>
<polygon fill="#757575" stroke="#757575" points="984.74,-277.45 995.19,-275.71 985.94,-270.55 984.74,-277.45"/>
</g>
<!-- redis/redis.service.js&#45;&gt;utils/index.js -->
<g id="edge48" class="edge">
<title>redis/redis.service.js&#45;&gt;utils/index.js</title>
<path fill="none" stroke="#757575" d="M832.28,-255.9C854.48,-269.79 894.04,-292.78 931,-305.35 950.03,-311.83 971.59,-316.3 990.8,-319.34"/>
<polygon fill="#757575" stroke="#757575" points="990.5,-322.83 1000.9,-320.84 991.53,-315.91 990.5,-322.83"/>
</g>
<!-- redis/redis.service.js&#45;&gt;redis/redis.constants.js -->
<g id="edge47" class="edge">
<title>redis/redis.service.js&#45;&gt;redis/redis.constants.js</title>
<path fill="none" stroke="#757575" d="M883.29,-240.4C953.98,-235.08 1066.73,-223.14 1161,-197.35 1195.04,-188.04 1231.98,-171.74 1257.39,-159.47"/>
<polygon fill="#757575" stroke="#757575" points="1259.09,-162.54 1266.53,-154.99 1256.01,-156.25 1259.09,-162.54"/>
</g>
<!-- redis/common/redis.decorator.js&#45;&gt;redis/redis.constants.js -->
<g id="edge34" class="edge">
<title>redis/common/redis.decorator.js&#45;&gt;redis/redis.constants.js</title>
<path fill="none" stroke="#757575" d="M1150.68,-143.35C1168,-143.35 1185.8,-143.35 1202.62,-143.35"/>
<polygon fill="#757575" stroke="#757575" points="1202.96,-146.85 1212.96,-143.35 1202.96,-139.85 1202.96,-146.85"/>
</g>
<!-- redis/redis&#45;core.module.js&#45;&gt;redis/common/index.js -->
<g id="edge35" class="edge">
<title>redis/redis&#45;core.module.js&#45;&gt;redis/common/index.js</title>
<path fill="none" stroke="#757575" d="M411.7,-188.67C436.59,-174.2 481.82,-150.13 524,-139.35 590.75,-122.31 668.86,-118.08 726.96,-117.82"/>
<polygon fill="#757575" stroke="#757575" points="727.2,-121.32 737.2,-117.82 727.2,-114.32 727.2,-121.32"/>
</g>
<!-- redis/redis&#45;core.module.js&#45;&gt;redis/redis.constants.js -->
<g id="edge36" class="edge">
<title>redis/redis&#45;core.module.js&#45;&gt;redis/redis.constants.js</title>
<path fill="none" stroke="#757575" d="M405.52,-188.73C427.9,-169.55 475.89,-131.76 524,-115.35 792.35,-23.86 884.67,-17.95 1161,-81.35 1198.72,-90.01 1238.24,-111.31 1263.21,-126.53"/>
<polygon fill="#757575" stroke="#757575" points="1261.38,-129.51 1271.72,-131.82 1265.08,-123.57 1261.38,-129.51"/>
</g>
<!-- redis/redis&#45;core.module.js&#45;&gt;redis/redis.health.js -->
<g id="edge37" class="edge">
<title>redis/redis&#45;core.module.js&#45;&gt;redis/redis.health.js</title>
<path fill="none" stroke="#757575" d="M454.83,-211.87C480.42,-216.6 510.21,-222.1 536.74,-227"/>
<polygon fill="#757575" stroke="#757575" points="536.27,-230.48 546.73,-228.85 537.54,-223.59 536.27,-230.48"/>
</g>
<!-- redis/redis&#45;core.module.js&#45;&gt;redis/redis.service.js -->
<g id="edge39" class="edge">
<title>redis/redis&#45;core.module.js&#45;&gt;redis/redis.service.js</title>
<path fill="none" stroke="#757575" d="M477.55,-202.29C538.58,-204.51 622.65,-209.25 696,-219.35 715.98,-222.11 737.64,-226.39 756.8,-230.64"/>
<polygon fill="#757575" stroke="#757575" points="756.05,-234.06 766.57,-232.85 757.59,-227.23 756.05,-234.06"/>
</g>
<!-- redis/redis.providers.js -->
<g id="node23" class="node">
<title>redis/redis.providers.js</title>
<path fill="none" stroke="#c6c5fe" d="M678.33,-171.85C678.33,-171.85 541.67,-171.85 541.67,-171.85 537.83,-171.85 534,-168.02 534,-164.19 534,-164.19 534,-156.52 534,-156.52 534,-152.69 537.83,-148.85 541.67,-148.85 541.67,-148.85 678.33,-148.85 678.33,-148.85 682.17,-148.85 686,-152.69 686,-156.52 686,-156.52 686,-164.19 686,-164.19 686,-168.02 682.17,-171.85 678.33,-171.85"/>
<text text-anchor="middle" x="610" y="-156.65" font-family="Arial" font-size="14.00" fill="#c6c5fe">redis/redis.providers.js</text>
</g>
<!-- redis/redis&#45;core.module.js&#45;&gt;redis/redis.providers.js -->
<g id="edge38" class="edge">
<title>redis/redis&#45;core.module.js&#45;&gt;redis/redis.providers.js</title>
<path fill="none" stroke="#757575" d="M454.83,-188.84C480.42,-184.11 510.21,-178.61 536.74,-173.7"/>
<polygon fill="#757575" stroke="#757575" points="537.54,-177.12 546.73,-171.86 536.27,-170.23 537.54,-177.12"/>
</g>
<!-- redis/redis.providers.js&#45;&gt;errors/index.js -->
<g id="edge42" class="edge">
<title>redis/redis.providers.js&#45;&gt;errors/index.js</title>
<path fill="none" stroke="#757575" d="M677.82,-171.89C735.9,-182.69 821.96,-200.58 895,-223.35 935.81,-236.08 981.05,-255.21 1011.07,-268.64"/>
<polygon fill="#757575" stroke="#757575" points="1009.7,-271.86 1020.26,-272.79 1012.58,-265.48 1009.7,-271.86"/>
</g>
<!-- redis/redis.providers.js&#45;&gt;redis/common/index.js -->
<g id="edge43" class="edge">
<title>redis/redis.providers.js&#45;&gt;redis/common/index.js</title>
<path fill="none" stroke="#757575" d="M669.01,-148.84C692.62,-144.15 720.06,-138.7 744.59,-133.83"/>
<polygon fill="#757575" stroke="#757575" points="745.42,-137.24 754.55,-131.86 744.06,-130.37 745.42,-137.24"/>
</g>
<!-- redis/redis.providers.js&#45;&gt;redis/redis.constants.js -->
<g id="edge44" class="edge">
<title>redis/redis.providers.js&#45;&gt;redis/redis.constants.js</title>
<path fill="none" stroke="#757575" d="M686.32,-164.71C792.39,-169.94 991.78,-176.49 1161,-163.35 1179.54,-161.91 1199.46,-159.32 1217.93,-156.46"/>
<polygon fill="#757575" stroke="#757575" points="1218.7,-159.88 1228.03,-154.86 1217.6,-152.97 1218.7,-159.88"/>
</g>
<!-- redis/redis.providers.js&#45;&gt;redis/redis.service.js -->
<g id="edge45" class="edge">
<title>redis/redis.providers.js&#45;&gt;redis/redis.service.js</title>
<path fill="none" stroke="#757575" d="M661.47,-171.89C673.21,-175.62 685.37,-180.38 696,-186.35 714.66,-196.84 713.42,-207.73 732,-218.35 739.42,-222.6 747.63,-226.26 755.89,-229.38"/>
<polygon fill="#757575" stroke="#757575" points="754.96,-232.76 765.55,-232.8 757.29,-226.16 754.96,-232.76"/>
</g>
</g>
</svg>
