<?xml version="1.0" encoding="UTF-8" standalone="no"?>
<!DOCTYPE svg PUBLIC "-//W3C//DTD SVG 1.1//EN"
 "http://www.w3.org/Graphics/SVG/1.1/DTD/svg11.dtd">
<!-- Generated by graphviz version 2.43.0 (0)
 -->
<!-- Title: G Pages: 1 -->
<svg width="1523pt" height="380pt"
 viewBox="0.00 0.00 1523.20 379.61" xmlns="http://www.w3.org/2000/svg" xmlns:xlink="http://www.w3.org/1999/xlink">
<g id="graph0" class="graph" transform="scale(1 1) rotate(0) translate(21.6 358.01)">
<title>G</title>
<polygon fill="#111111" stroke="transparent" points="-21.6,21.6 -21.6,-358.01 1501.6,-358.01 1501.6,21.6 -21.6,21.6"/>
<!-- errors/index.js -->
<g id="node1" class="node">
<title>errors/index.js</title>
<path fill="none" stroke="#c6c5fe" d="M1223.83,-296.41C1223.83,-296.41 1138.17,-296.41 1138.17,-296.41 1134.33,-296.41 1130.5,-292.58 1130.5,-288.74 1130.5,-288.74 1130.5,-281.08 1130.5,-281.08 1130.5,-277.24 1134.33,-273.41 1138.17,-273.41 1138.17,-273.41 1223.83,-273.41 1223.83,-273.41 1227.67,-273.41 1231.5,-277.24 1231.5,-281.08 1231.5,-281.08 1231.5,-288.74 1231.5,-288.74 1231.5,-292.58 1227.67,-296.41 1223.83,-296.41"/>
<text text-anchor="middle" x="1181" y="-281.21" font-family="Arial" font-size="14.00" fill="#c6c5fe">errors/index.js</text>
</g>
<!-- errors/messages.constant.js -->
<g id="node2" class="node">
<title>errors/messages.constant.js</title>
<path fill="none" stroke="#cfffac" d="M1472.33,-316.41C1472.33,-316.41 1301.67,-316.41 1301.67,-316.41 1297.83,-316.41 1294,-312.58 1294,-308.74 1294,-308.74 1294,-301.08 1294,-301.08 1294,-297.24 1297.83,-293.41 1301.67,-293.41 1301.67,-293.41 1472.33,-293.41 1472.33,-293.41 1476.17,-293.41 1480,-297.24 1480,-301.08 1480,-301.08 1480,-308.74 1480,-308.74 1480,-312.58 1476.17,-316.41 1472.33,-316.41"/>
<text text-anchor="middle" x="1387" y="-301.21" font-family="Arial" font-size="14.00" fill="#cfffac">errors/messages.constant.js</text>
</g>
<!-- errors/index.js&#45;&gt;errors/messages.constant.js -->
<g id="edge1" class="edge">
<title>errors/index.js&#45;&gt;errors/messages.constant.js</title>
<path fill="none" stroke="#757575" d="M1231.64,-289.78C1247.47,-291.33 1265.59,-293.1 1283.73,-294.88"/>
<polygon fill="#757575" stroke="#757575" points="1283.5,-298.38 1293.8,-295.87 1284.19,-291.41 1283.5,-298.38"/>
</g>
<!-- errors/redis.error.js -->
<g id="node3" class="node">
<title>errors/redis.error.js</title>
<path fill="none" stroke="#cfffac" d="M1444.33,-275.41C1444.33,-275.41 1329.67,-275.41 1329.67,-275.41 1325.83,-275.41 1322,-271.58 1322,-267.74 1322,-267.74 1322,-260.08 1322,-260.08 1322,-256.24 1325.83,-252.41 1329.67,-252.41 1329.67,-252.41 1444.33,-252.41 1444.33,-252.41 1448.17,-252.41 1452,-256.24 1452,-260.08 1452,-260.08 1452,-267.74 1452,-267.74 1452,-271.58 1448.17,-275.41 1444.33,-275.41"/>
<text text-anchor="middle" x="1387" y="-260.21" font-family="Arial" font-size="14.00" fill="#cfffac">errors/redis.error.js</text>
</g>
<!-- errors/index.js&#45;&gt;errors/redis.error.js -->
<g id="edge2" class="edge">
<title>errors/index.js&#45;&gt;errors/redis.error.js</title>
<path fill="none" stroke="#757575" d="M1231.64,-279.8C1255.7,-277.32 1285.08,-274.3 1311.73,-271.55"/>
<polygon fill="#757575" stroke="#757575" points="1312.2,-275.02 1321.79,-270.52 1311.49,-268.06 1312.2,-275.02"/>
</g>
<!-- index.js -->
<g id="node4" class="node">
<title>index.js</title>
<path fill="none" stroke="#c6c5fe" d="M54.33,-184.41C54.33,-184.41 7.67,-184.41 7.67,-184.41 3.83,-184.41 0,-180.58 0,-176.74 0,-176.74 0,-169.08 0,-169.08 0,-165.24 3.83,-161.41 7.67,-161.41 7.67,-161.41 54.33,-161.41 54.33,-161.41 58.17,-161.41 62,-165.24 62,-169.08 62,-169.08 62,-176.74 62,-176.74 62,-180.58 58.17,-184.41 54.33,-184.41"/>
<text text-anchor="middle" x="31" y="-169.21" font-family="Arial" font-size="14.00" fill="#c6c5fe">index.js</text>
</g>
<!-- redis/common/index.js -->
<g id="node5" class="node">
<title>redis/common/index.js</title>
<path fill="none" stroke="#c6c5fe" d="M815.33,-104.41C815.33,-104.41 678.67,-104.41 678.67,-104.41 674.83,-104.41 671,-100.58 671,-96.74 671,-96.74 671,-89.08 671,-89.08 671,-85.24 674.83,-81.41 678.67,-81.41 678.67,-81.41 815.33,-81.41 815.33,-81.41 819.17,-81.41 823,-85.24 823,-89.08 823,-89.08 823,-96.74 823,-96.74 823,-100.58 819.17,-104.41 815.33,-104.41"/>
<text text-anchor="middle" x="747" y="-89.21" font-family="Arial" font-size="14.00" fill="#c6c5fe">redis/common/index.js</text>
</g>
<!-- index.js&#45;&gt;redis/common/index.js -->
<g id="edge3" class="edge">
<title>index.js&#45;&gt;redis/common/index.js</title>
<path fill="none" stroke="#757575" d="M62.28,-162.18C73.41,-158.53 86.18,-154.68 98,-151.91 266.55,-112.43 310.39,-106.06 483,-92.91 542.22,-88.4 609.16,-88.47 660.69,-89.63"/>
<polygon fill="#757575" stroke="#757575" points="660.7,-93.14 670.78,-89.88 660.87,-86.14 660.7,-93.14"/>
</g>
<!-- redis/redis.constants.js -->
<g id="node6" class="node">
<title>redis/redis.constants.js</title>
<path fill="none" stroke="#cfffac" d="M1250.33,-144.41C1250.33,-144.41 1111.67,-144.41 1111.67,-144.41 1107.83,-144.41 1104,-140.58 1104,-136.74 1104,-136.74 1104,-129.08 1104,-129.08 1104,-125.24 1107.83,-121.41 1111.67,-121.41 1111.67,-121.41 1250.33,-121.41 1250.33,-121.41 1254.17,-121.41 1258,-125.24 1258,-129.08 1258,-129.08 1258,-136.74 1258,-136.74 1258,-140.58 1254.17,-144.41 1250.33,-144.41"/>
<text text-anchor="middle" x="1181" y="-129.21" font-family="Arial" font-size="14.00" fill="#cfffac">redis/redis.constants.js</text>
</g>
<!-- index.js&#45;&gt;redis/redis.constants.js -->
<g id="edge4" class="edge">
<title>index.js&#45;&gt;redis/redis.constants.js</title>
<path fill="none" stroke="#757575" d="M43.78,-161.13C56.35,-149.05 77.27,-130.32 98,-117.91 205.77,-53.37 234.39,-11.91 360,-11.91 360,-11.91 360,-11.91 748,-11.91 890.47,-11.91 936.72,24.44 1068,-30.91 1109.87,-48.56 1146.24,-88.85 1165.46,-113.18"/>
<polygon fill="#757575" stroke="#757575" points="1162.88,-115.55 1171.75,-121.35 1168.42,-111.29 1162.88,-115.55"/>
</g>
<!-- redis/redis.health.js -->
<g id="node7" class="node">
<title>redis/redis.health.js</title>
<path fill="none" stroke="#c6c5fe" d="M617.83,-302.41C617.83,-302.41 500.17,-302.41 500.17,-302.41 496.33,-302.41 492.5,-298.58 492.5,-294.74 492.5,-294.74 492.5,-287.08 492.5,-287.08 492.5,-283.24 496.33,-279.41 500.17,-279.41 500.17,-279.41 617.83,-279.41 617.83,-279.41 621.67,-279.41 625.5,-283.24 625.5,-287.08 625.5,-287.08 625.5,-294.74 625.5,-294.74 625.5,-298.58 621.67,-302.41 617.83,-302.41"/>
<text text-anchor="middle" x="559" y="-287.21" font-family="Arial" font-size="14.00" fill="#c6c5fe">redis/redis.health.js</text>
</g>
<!-- index.js&#45;&gt;redis/redis.health.js -->
<g id="edge5" class="edge">
<title>index.js&#45;&gt;redis/redis.health.js</title>
<path fill="none" stroke="#757575" d="M36.37,-184.51C44.77,-204.96 65.27,-246.92 98,-264.91 223.13,-333.67 397.4,-319.18 491.45,-304.11"/>
<polygon fill="#757575" stroke="#757575" points="492.11,-307.55 501.4,-302.46 490.97,-300.64 492.11,-307.55"/>
</g>
<!-- redis/redis.module.js -->
<g id="node8" class="node">
<title>redis/redis.module.js</title>
<path fill="none" stroke="#c6c5fe" d="M231.33,-184.41C231.33,-184.41 105.67,-184.41 105.67,-184.41 101.83,-184.41 98,-180.58 98,-176.74 98,-176.74 98,-169.08 98,-169.08 98,-165.24 101.83,-161.41 105.67,-161.41 105.67,-161.41 231.33,-161.41 231.33,-161.41 235.17,-161.41 239,-165.24 239,-169.08 239,-169.08 239,-176.74 239,-176.74 239,-180.58 235.17,-184.41 231.33,-184.41"/>
<text text-anchor="middle" x="168.5" y="-169.21" font-family="Arial" font-size="14.00" fill="#c6c5fe">redis/redis.module.js</text>
</g>
<!-- index.js&#45;&gt;redis/redis.module.js -->
<g id="edge6" class="edge">
<title>index.js&#45;&gt;redis/redis.module.js</title>
<path fill="none" stroke="#757575" d="M62.07,-172.91C69.83,-172.91 78.56,-172.91 87.59,-172.91"/>
<polygon fill="#757575" stroke="#757575" points="87.87,-176.41 97.87,-172.91 87.87,-169.41 87.87,-176.41"/>
</g>
<!-- redis/redis.service.js -->
<g id="node9" class="node">
<title>redis/redis.service.js</title>
<path fill="none" stroke="#c6c5fe" d="M808.83,-262.41C808.83,-262.41 685.17,-262.41 685.17,-262.41 681.33,-262.41 677.5,-258.58 677.5,-254.74 677.5,-254.74 677.5,-247.08 677.5,-247.08 677.5,-243.24 681.33,-239.41 685.17,-239.41 685.17,-239.41 808.83,-239.41 808.83,-239.41 812.67,-239.41 816.5,-243.24 816.5,-247.08 816.5,-247.08 816.5,-254.74 816.5,-254.74 816.5,-258.58 812.67,-262.41 808.83,-262.41"/>
<text text-anchor="middle" x="747" y="-247.21" font-family="Arial" font-size="14.00" fill="#c6c5fe">redis/redis.service.js</text>
</g>
<!-- index.js&#45;&gt;redis/redis.service.js -->
<g id="edge7" class="edge">
<title>index.js&#45;&gt;redis/redis.service.js</title>
<path fill="none" stroke="#757575" d="M62.19,-184.06C73.31,-187.75 86.09,-191.52 98,-193.91 300.48,-234.51 544.32,-246.19 667.12,-249.55"/>
<polygon fill="#757575" stroke="#757575" points="667.1,-253.05 677.19,-249.82 667.29,-246.05 667.1,-253.05"/>
</g>
<!-- redis/common/redis&#45;utils.js -->
<g id="node10" class="node">
<title>redis/common/redis&#45;utils.js</title>
<path fill="none" stroke="#cfffac" d="M1044.83,-63.41C1044.83,-63.41 882.17,-63.41 882.17,-63.41 878.33,-63.41 874.5,-59.58 874.5,-55.74 874.5,-55.74 874.5,-48.08 874.5,-48.08 874.5,-44.24 878.33,-40.41 882.17,-40.41 882.17,-40.41 1044.83,-40.41 1044.83,-40.41 1048.67,-40.41 1052.5,-44.24 1052.5,-48.08 1052.5,-48.08 1052.5,-55.74 1052.5,-55.74 1052.5,-59.58 1048.67,-63.41 1044.83,-63.41"/>
<text text-anchor="middle" x="963.5" y="-48.21" font-family="Arial" font-size="14.00" fill="#cfffac">redis/common/redis&#45;utils.js</text>
</g>
<!-- redis/common/index.js&#45;&gt;redis/common/redis&#45;utils.js -->
<g id="edge8" class="edge">
<title>redis/common/index.js&#45;&gt;redis/common/redis&#45;utils.js</title>
<path fill="none" stroke="#757575" d="M808.32,-81.38C834.48,-76.38 865.27,-70.49 892.43,-65.3"/>
<polygon fill="#757575" stroke="#757575" points="893.1,-68.74 902.26,-63.42 891.78,-61.86 893.1,-68.74"/>
</g>
<!-- redis/common/redis.decorator.js -->
<g id="node11" class="node">
<title>redis/common/redis.decorator.js</title>
<path fill="none" stroke="#c6c5fe" d="M1060.33,-104.41C1060.33,-104.41 866.67,-104.41 866.67,-104.41 862.83,-104.41 859,-100.58 859,-96.74 859,-96.74 859,-89.08 859,-89.08 859,-85.24 862.83,-81.41 866.67,-81.41 866.67,-81.41 1060.33,-81.41 1060.33,-81.41 1064.17,-81.41 1068,-85.24 1068,-89.08 1068,-89.08 1068,-96.74 1068,-96.74 1068,-100.58 1064.17,-104.41 1060.33,-104.41"/>
<text text-anchor="middle" x="963.5" y="-89.21" font-family="Arial" font-size="14.00" fill="#c6c5fe">redis/common/redis.decorator.js</text>
</g>
<!-- redis/common/index.js&#45;&gt;redis/common/redis.decorator.js -->
<g id="edge9" class="edge">
<title>redis/common/index.js&#45;&gt;redis/common/redis.decorator.js</title>
<path fill="none" stroke="#757575" d="M823.02,-92.91C831.36,-92.91 839.98,-92.91 848.66,-92.91"/>
<polygon fill="#757575" stroke="#757575" points="848.86,-96.41 858.86,-92.91 848.86,-89.41 848.86,-96.41"/>
</g>
<!-- redis/redis.health.js&#45;&gt;redis/redis.service.js -->
<g id="edge16" class="edge">
<title>redis/redis.health.js&#45;&gt;redis/redis.service.js</title>
<path fill="none" stroke="#757575" d="M613.8,-279.34C635.2,-274.74 659.99,-269.41 682.28,-264.61"/>
<polygon fill="#757575" stroke="#757575" points="683.28,-267.98 692.32,-262.45 681.81,-261.13 683.28,-267.98"/>
</g>
<!-- utils/index.js -->
<g id="node14" class="node">
<title>utils/index.js</title>
<path fill="none" stroke="#c6c5fe" d="M1000.83,-336.41C1000.83,-336.41 926.17,-336.41 926.17,-336.41 922.33,-336.41 918.5,-332.58 918.5,-328.74 918.5,-328.74 918.5,-321.08 918.5,-321.08 918.5,-317.24 922.33,-313.41 926.17,-313.41 926.17,-313.41 1000.83,-313.41 1000.83,-313.41 1004.67,-313.41 1008.5,-317.24 1008.5,-321.08 1008.5,-321.08 1008.5,-328.74 1008.5,-328.74 1008.5,-332.58 1004.67,-336.41 1000.83,-336.41"/>
<text text-anchor="middle" x="963.5" y="-321.21" font-family="Arial" font-size="14.00" fill="#c6c5fe">utils/index.js</text>
</g>
<!-- redis/redis.health.js&#45;&gt;utils/index.js -->
<g id="edge17" class="edge">
<title>redis/redis.health.js&#45;&gt;utils/index.js</title>
<path fill="none" stroke="#757575" d="M625.56,-296.45C704.23,-303.09 834.66,-314.11 908.03,-320.31"/>
<polygon fill="#757575" stroke="#757575" points="908.17,-323.83 918.43,-321.19 908.76,-316.86 908.17,-323.83"/>
</g>
<!-- redis/redis&#45;core.module.js -->
<g id="node12" class="node">
<title>redis/redis&#45;core.module.js</title>
<path fill="none" stroke="#c6c5fe" d="M439.33,-184.41C439.33,-184.41 282.67,-184.41 282.67,-184.41 278.83,-184.41 275,-180.58 275,-176.74 275,-176.74 275,-169.08 275,-169.08 275,-165.24 278.83,-161.41 282.67,-161.41 282.67,-161.41 439.33,-161.41 439.33,-161.41 443.17,-161.41 447,-165.24 447,-169.08 447,-169.08 447,-176.74 447,-176.74 447,-180.58 443.17,-184.41 439.33,-184.41"/>
<text text-anchor="middle" x="361" y="-169.21" font-family="Arial" font-size="14.00" fill="#c6c5fe">redis/redis&#45;core.module.js</text>
</g>
<!-- redis/redis.module.js&#45;&gt;redis/redis&#45;core.module.js -->
<g id="edge18" class="edge">
<title>redis/redis.module.js&#45;&gt;redis/redis&#45;core.module.js</title>
<path fill="none" stroke="#757575" d="M239.08,-172.91C247.41,-172.91 256.02,-172.91 264.63,-172.91"/>
<polygon fill="#757575" stroke="#757575" points="264.72,-176.41 274.72,-172.91 264.72,-169.41 264.72,-176.41"/>
</g>
<!-- redis/redis.service.js&#45;&gt;errors/index.js -->
<g id="edge23" class="edge">
<title>redis/redis.service.js&#45;&gt;errors/index.js</title>
<path fill="none" stroke="#757575" d="M816.67,-257.26C830.67,-258.51 845.31,-259.78 859,-260.91 950.2,-268.43 1056.05,-276.14 1120.51,-280.73"/>
<polygon fill="#757575" stroke="#757575" points="1120.27,-284.22 1130.49,-281.44 1120.76,-277.24 1120.27,-284.22"/>
</g>
<!-- redis/redis.service.js&#45;&gt;redis/redis.constants.js -->
<g id="edge24" class="edge">
<title>redis/redis.service.js&#45;&gt;redis/redis.constants.js</title>
<path fill="none" stroke="#757575" d="M816.62,-241.46C882.24,-231.34 983.44,-212.84 1068,-184.91 1096.68,-175.44 1127.71,-160.64 1149.82,-149.25"/>
<polygon fill="#757575" stroke="#757575" points="1151.47,-152.34 1158.72,-144.6 1148.23,-146.13 1151.47,-152.34"/>
</g>
<!-- redis/redis.service.js&#45;&gt;utils/index.js -->
<g id="edge25" class="edge">
<title>redis/redis.service.js&#45;&gt;utils/index.js</title>
<path fill="none" stroke="#757575" d="M771.81,-262.54C793.99,-273.06 828.18,-288.45 859,-298.91 874.91,-304.31 892.53,-309.14 908.66,-313.14"/>
<polygon fill="#757575" stroke="#757575" points="907.94,-316.56 918.48,-315.51 909.59,-309.76 907.94,-316.56"/>
</g>
<!-- redis/common/redis.decorator.js&#45;&gt;redis/redis.constants.js -->
<g id="edge10" class="edge">
<title>redis/common/redis.decorator.js&#45;&gt;redis/redis.constants.js</title>
<path fill="none" stroke="#757575" d="M1026.54,-104.42C1052.01,-109.15 1081.66,-114.66 1108.07,-119.56"/>
<polygon fill="#757575" stroke="#757575" points="1107.55,-123.02 1118.02,-121.4 1108.83,-116.14 1107.55,-123.02"/>
</g>
<!-- redis/redis&#45;core.module.js&#45;&gt;redis/common/index.js -->
<g id="edge11" class="edge">
<title>redis/redis&#45;core.module.js&#45;&gt;redis/common/index.js</title>
<path fill="none" stroke="#757575" d="M382.66,-161.21C406.17,-148.49 446.09,-128.69 483,-118.91 541.11,-103.5 608.62,-97.06 660.7,-94.43"/>
<polygon fill="#757575" stroke="#757575" points="661.07,-97.92 670.9,-93.96 660.75,-90.93 661.07,-97.92"/>
</g>
<!-- redis/redis&#45;core.module.js&#45;&gt;redis/redis.constants.js -->
<g id="edge12" class="edge">
<title>redis/redis&#45;core.module.js&#45;&gt;redis/redis.constants.js</title>
<path fill="none" stroke="#757575" d="M418.4,-161.38C438.68,-157.7 461.78,-154.03 483,-151.91 702.23,-130.01 962.05,-129.65 1093.92,-131.27"/>
<polygon fill="#757575" stroke="#757575" points="1093.92,-134.77 1103.97,-131.4 1094.01,-127.77 1093.92,-134.77"/>
</g>
<!-- redis/redis&#45;core.module.js&#45;&gt;redis/redis.health.js -->
<g id="edge13" class="edge">
<title>redis/redis&#45;core.module.js&#45;&gt;redis/redis.health.js</title>
<path fill="none" stroke="#757575" d="M381.15,-184.44C415.91,-205.37 489.53,-249.69 529.96,-274.03"/>
<polygon fill="#757575" stroke="#757575" points="528.4,-277.17 538.77,-279.33 532.01,-271.18 528.4,-277.17"/>
</g>
<!-- redis/redis&#45;core.module.js&#45;&gt;redis/redis.service.js -->
<g id="edge15" class="edge">
<title>redis/redis&#45;core.module.js&#45;&gt;redis/redis.service.js</title>
<path fill="none" stroke="#757575" d="M418.66,-184.42C488,-198.5 605.26,-222.32 679,-237.3"/>
<polygon fill="#757575" stroke="#757575" points="678.61,-240.79 689.11,-239.35 680,-233.93 678.61,-240.79"/>
</g>
<!-- redis/redis.providers.js -->
<g id="node13" class="node">
<title>redis/redis.providers.js</title>
<path fill="none" stroke="#c6c5fe" d="M627.33,-184.41C627.33,-184.41 490.67,-184.41 490.67,-184.41 486.83,-184.41 483,-180.58 483,-176.74 483,-176.74 483,-169.08 483,-169.08 483,-165.24 486.83,-161.41 490.67,-161.41 490.67,-161.41 627.33,-161.41 627.33,-161.41 631.17,-161.41 635,-165.24 635,-169.08 635,-169.08 635,-176.74 635,-176.74 635,-180.58 631.17,-184.41 627.33,-184.41"/>
<text text-anchor="middle" x="559" y="-169.21" font-family="Arial" font-size="14.00" fill="#c6c5fe">redis/redis.providers.js</text>
</g>
<!-- redis/redis&#45;core.module.js&#45;&gt;redis/redis.providers.js -->
<g id="edge14" class="edge">
<title>redis/redis&#45;core.module.js&#45;&gt;redis/redis.providers.js</title>
<path fill="none" stroke="#757575" d="M447.11,-172.91C455.56,-172.91 464.14,-172.91 472.59,-172.91"/>
<polygon fill="#757575" stroke="#757575" points="472.81,-176.41 482.81,-172.91 472.81,-169.41 472.81,-176.41"/>
</g>
<!-- redis/redis.providers.js&#45;&gt;errors/index.js -->
<g id="edge19" class="edge">
<title>redis/redis.providers.js&#45;&gt;errors/index.js</title>
<path fill="none" stroke="#757575" d="M635.24,-183.4C734.71,-197.72 915.26,-225.24 1068,-256.91 1087.55,-260.96 1108.84,-266.1 1127.56,-270.86"/>
<polygon fill="#757575" stroke="#757575" points="1126.82,-274.29 1137.37,-273.39 1128.56,-267.51 1126.82,-274.29"/>
</g>
<!-- redis/redis.providers.js&#45;&gt;redis/common/index.js -->
<g id="edge20" class="edge">
<title>redis/redis.providers.js&#45;&gt;redis/common/index.js</title>
<path fill="none" stroke="#757575" d="M587.05,-161.28C619.37,-147.37 673.6,-124.05 709.59,-108.57"/>
<polygon fill="#757575" stroke="#757575" points="711.42,-111.59 719.22,-104.43 708.65,-105.16 711.42,-111.59"/>
</g>
<!-- redis/redis.providers.js&#45;&gt;redis/redis.constants.js -->
<g id="edge21" class="edge">
<title>redis/redis.providers.js&#45;&gt;redis/redis.constants.js</title>
<path fill="none" stroke="#757575" d="M635,-170.79C734.22,-167.59 914.49,-160.41 1068,-146.91 1076.35,-146.17 1085.03,-145.29 1093.71,-144.34"/>
<polygon fill="#757575" stroke="#757575" points="1094.33,-147.79 1103.87,-143.19 1093.54,-140.84 1094.33,-147.79"/>
</g>
<!-- redis/redis.providers.js&#45;&gt;redis/redis.service.js -->
<g id="edge22" class="edge">
<title>redis/redis.providers.js&#45;&gt;redis/redis.service.js</title>
<path fill="none" stroke="#757575" d="M599.31,-184.44C611.04,-188.43 623.77,-193.33 635,-198.91 652.22,-207.46 653.88,-214.15 671,-222.91 680.19,-227.61 690.36,-231.93 700.16,-235.71"/>
<polygon fill="#757575" stroke="#757575" points="699.2,-239.09 709.8,-239.3 701.65,-232.53 699.2,-239.09"/>
</g>
<!-- utils/index.js&#45;&gt;errors/index.js -->
<g id="edge26" class="edge">
<title>utils/index.js&#45;&gt;errors/index.js</title>
<path fill="none" stroke="#757575" d="M1008.63,-316.72C1040.8,-310.75 1084.75,-302.59 1120.08,-296.03"/>
<polygon fill="#757575" stroke="#757575" points="1121.08,-299.4 1130.28,-294.14 1119.81,-292.52 1121.08,-299.4"/>
</g>
</g>
</svg>
