<?xml version="1.0" encoding="UTF-8" standalone="no"?>
<!DOCTYPE svg PUBLIC "-//W3C//DTD SVG 1.1//EN"
 "http://www.w3.org/Graphics/SVG/1.1/DTD/svg11.dtd">
<!-- Generated by graphviz version 2.43.0 (0)
 -->
<!-- Title: G Pages: 1 -->
<svg width="1636pt" height="732pt"
 viewBox="0.00 0.00 1636.20 732.07" xmlns="http://www.w3.org/2000/svg" xmlns:xlink="http://www.w3.org/1999/xlink">
<g id="graph0" class="graph" transform="scale(1 1) rotate(0) translate(21.6 710.47)">
<title>G</title>
<polygon fill="#111111" stroke="transparent" points="-21.6,21.6 -21.6,-710.47 1614.6,-710.47 1614.6,21.6 -21.6,21.6"/>
<!-- cluster/cluster&#45;core.module.js -->
<g id="node1" class="node">
<title>cluster/cluster&#45;core.module.js</title>
<path fill="none" stroke="#c6c5fe" d="M480.33,-458.93C480.33,-458.93 302.67,-458.93 302.67,-458.93 298.83,-458.93 295,-455.1 295,-451.27 295,-451.27 295,-443.6 295,-443.6 295,-439.77 298.83,-435.93 302.67,-435.93 302.67,-435.93 480.33,-435.93 480.33,-435.93 484.17,-435.93 488,-439.77 488,-443.6 488,-443.6 488,-451.27 488,-451.27 488,-455.1 484.17,-458.93 480.33,-458.93"/>
<text text-anchor="middle" x="391.5" y="-443.73" font-family="Arial" font-size="14.00" fill="#c6c5fe">cluster/cluster&#45;core.module.js</text>
</g>
<!-- cluster/cluster.constants.js -->
<g id="node2" class="node">
<title>cluster/cluster.constants.js</title>
<path fill="none" stroke="#cfffac" d="M1363.33,-566.93C1363.33,-566.93 1204.67,-566.93 1204.67,-566.93 1200.83,-566.93 1197,-563.1 1197,-559.27 1197,-559.27 1197,-551.6 1197,-551.6 1197,-547.77 1200.83,-543.93 1204.67,-543.93 1204.67,-543.93 1363.33,-543.93 1363.33,-543.93 1367.17,-543.93 1371,-547.77 1371,-551.6 1371,-551.6 1371,-559.27 1371,-559.27 1371,-563.1 1367.17,-566.93 1363.33,-566.93"/>
<text text-anchor="middle" x="1284" y="-551.73" font-family="Arial" font-size="14.00" fill="#cfffac">cluster/cluster.constants.js</text>
</g>
<!-- cluster/cluster&#45;core.module.js&#45;&gt;cluster/cluster.constants.js -->
<g id="edge1" class="edge">
<title>cluster/cluster&#45;core.module.js&#45;&gt;cluster/cluster.constants.js</title>
<path fill="none" stroke="#757575" d="M424.78,-458.99C451.15,-468.01 489.56,-480.18 524,-487.43 758.68,-536.85 1041.57,-550.38 1186.73,-554.07"/>
<polygon fill="#757575" stroke="#757575" points="1186.86,-557.57 1196.94,-554.31 1187.03,-550.57 1186.86,-557.57"/>
</g>
<!-- cluster/cluster.health.js -->
<g id="node3" class="node">
<title>cluster/cluster.health.js</title>
<path fill="none" stroke="#c6c5fe" d="M678.83,-359.93C678.83,-359.93 541.17,-359.93 541.17,-359.93 537.33,-359.93 533.5,-356.1 533.5,-352.27 533.5,-352.27 533.5,-344.6 533.5,-344.6 533.5,-340.77 537.33,-336.93 541.17,-336.93 541.17,-336.93 678.83,-336.93 678.83,-336.93 682.67,-336.93 686.5,-340.77 686.5,-344.6 686.5,-344.6 686.5,-352.27 686.5,-352.27 686.5,-356.1 682.67,-359.93 678.83,-359.93"/>
<text text-anchor="middle" x="610" y="-344.73" font-family="Arial" font-size="14.00" fill="#c6c5fe">cluster/cluster.health.js</text>
</g>
<!-- cluster/cluster&#45;core.module.js&#45;&gt;cluster/cluster.health.js -->
<g id="edge2" class="edge">
<title>cluster/cluster&#45;core.module.js&#45;&gt;cluster/cluster.health.js</title>
<path fill="none" stroke="#757575" d="M417.76,-435.88C456.52,-418.16 530.76,-384.21 574.47,-364.22"/>
<polygon fill="#757575" stroke="#757575" points="575.93,-367.4 583.57,-360.06 573.02,-361.04 575.93,-367.4"/>
</g>
<!-- cluster/cluster.providers.js -->
<g id="node4" class="node">
<title>cluster/cluster.providers.js</title>
<path fill="none" stroke="#c6c5fe" d="M688.33,-477.93C688.33,-477.93 531.67,-477.93 531.67,-477.93 527.83,-477.93 524,-474.1 524,-470.27 524,-470.27 524,-462.6 524,-462.6 524,-458.77 527.83,-454.93 531.67,-454.93 531.67,-454.93 688.33,-454.93 688.33,-454.93 692.17,-454.93 696,-458.77 696,-462.6 696,-462.6 696,-470.27 696,-470.27 696,-474.1 692.17,-477.93 688.33,-477.93"/>
<text text-anchor="middle" x="610" y="-462.73" font-family="Arial" font-size="14.00" fill="#c6c5fe">cluster/cluster.providers.js</text>
</g>
<!-- cluster/cluster&#45;core.module.js&#45;&gt;cluster/cluster.providers.js -->
<g id="edge3" class="edge">
<title>cluster/cluster&#45;core.module.js&#45;&gt;cluster/cluster.providers.js</title>
<path fill="none" stroke="#757575" d="M488.09,-455.82C496.64,-456.57 505.29,-457.33 513.84,-458.08"/>
<polygon fill="#757575" stroke="#757575" points="513.54,-461.57 523.81,-458.96 514.15,-454.6 513.54,-461.57"/>
</g>
<!-- cluster/cluster.service.js -->
<g id="node5" class="node">
<title>cluster/cluster.service.js</title>
<path fill="none" stroke="#c6c5fe" d="M885.33,-416.93C885.33,-416.93 741.67,-416.93 741.67,-416.93 737.83,-416.93 734,-413.1 734,-409.27 734,-409.27 734,-401.6 734,-401.6 734,-397.77 737.83,-393.93 741.67,-393.93 741.67,-393.93 885.33,-393.93 885.33,-393.93 889.17,-393.93 893,-397.77 893,-401.6 893,-401.6 893,-409.27 893,-409.27 893,-413.1 889.17,-416.93 885.33,-416.93"/>
<text text-anchor="middle" x="813.5" y="-401.73" font-family="Arial" font-size="14.00" fill="#c6c5fe">cluster/cluster.service.js</text>
</g>
<!-- cluster/cluster&#45;core.module.js&#45;&gt;cluster/cluster.service.js -->
<g id="edge4" class="edge">
<title>cluster/cluster&#45;core.module.js&#45;&gt;cluster/cluster.service.js</title>
<path fill="none" stroke="#757575" d="M488.07,-437.88C558.9,-430.79 654.73,-421.21 723.86,-414.3"/>
<polygon fill="#757575" stroke="#757575" points="724.26,-417.78 733.86,-413.3 723.56,-410.81 724.26,-417.78"/>
</g>
<!-- cluster/common/index.js -->
<g id="node6" class="node">
<title>cluster/common/index.js</title>
<path fill="none" stroke="#c6c5fe" d="M887.33,-606.93C887.33,-606.93 739.67,-606.93 739.67,-606.93 735.83,-606.93 732,-603.1 732,-599.27 732,-599.27 732,-591.6 732,-591.6 732,-587.77 735.83,-583.93 739.67,-583.93 739.67,-583.93 887.33,-583.93 887.33,-583.93 891.17,-583.93 895,-587.77 895,-591.6 895,-591.6 895,-599.27 895,-599.27 895,-603.1 891.17,-606.93 887.33,-606.93"/>
<text text-anchor="middle" x="813.5" y="-591.73" font-family="Arial" font-size="14.00" fill="#c6c5fe">cluster/common/index.js</text>
</g>
<!-- cluster/cluster&#45;core.module.js&#45;&gt;cluster/common/index.js -->
<g id="edge5" class="edge">
<title>cluster/cluster&#45;core.module.js&#45;&gt;cluster/common/index.js</title>
<path fill="none" stroke="#757575" d="M400.73,-459.14C419.33,-484.49 467.39,-544.22 524,-569.43 586.1,-597.09 663.06,-602.78 721.87,-602"/>
<polygon fill="#757575" stroke="#757575" points="721.96,-605.5 731.89,-601.81 721.82,-598.5 721.96,-605.5"/>
</g>
<!-- cluster/cluster.health.js&#45;&gt;cluster/cluster.service.js -->
<g id="edge6" class="edge">
<title>cluster/cluster.health.js&#45;&gt;cluster/cluster.service.js</title>
<path fill="none" stroke="#757575" d="M651.78,-359.97C683.59,-368.97 727.96,-381.52 762.02,-391.15"/>
<polygon fill="#757575" stroke="#757575" points="761.21,-394.56 771.78,-393.92 763.11,-387.83 761.21,-394.56"/>
</g>
<!-- errors/index.js -->
<g id="node7" class="node">
<title>errors/index.js</title>
<path fill="none" stroke="#c6c5fe" d="M1326.83,-356.93C1326.83,-356.93 1241.17,-356.93 1241.17,-356.93 1237.33,-356.93 1233.5,-353.1 1233.5,-349.27 1233.5,-349.27 1233.5,-341.6 1233.5,-341.6 1233.5,-337.77 1237.33,-333.93 1241.17,-333.93 1241.17,-333.93 1326.83,-333.93 1326.83,-333.93 1330.67,-333.93 1334.5,-337.77 1334.5,-341.6 1334.5,-341.6 1334.5,-349.27 1334.5,-349.27 1334.5,-353.1 1330.67,-356.93 1326.83,-356.93"/>
<text text-anchor="middle" x="1284" y="-341.73" font-family="Arial" font-size="14.00" fill="#c6c5fe">errors/index.js</text>
</g>
<!-- cluster/cluster.health.js&#45;&gt;errors/index.js -->
<g id="edge7" class="edge">
<title>cluster/cluster.health.js&#45;&gt;errors/index.js</title>
<path fill="none" stroke="#757575" d="M686.51,-350.59C701.58,-350.94 717.29,-351.25 732,-351.43 910.72,-353.65 1122.06,-349.43 1223.21,-347"/>
<polygon fill="#757575" stroke="#757575" points="1223.32,-350.49 1233.23,-346.75 1223.15,-343.5 1223.32,-350.49"/>
</g>
<!-- utils/index.js -->
<g id="node8" class="node">
<title>utils/index.js</title>
<path fill="none" stroke="#c6c5fe" d="M1083.33,-336.93C1083.33,-336.93 1008.67,-336.93 1008.67,-336.93 1004.83,-336.93 1001,-333.1 1001,-329.27 1001,-329.27 1001,-321.6 1001,-321.6 1001,-317.77 1004.83,-313.93 1008.67,-313.93 1008.67,-313.93 1083.33,-313.93 1083.33,-313.93 1087.17,-313.93 1091,-317.77 1091,-321.6 1091,-321.6 1091,-329.27 1091,-329.27 1091,-333.1 1087.17,-336.93 1083.33,-336.93"/>
<text text-anchor="middle" x="1046" y="-321.73" font-family="Arial" font-size="14.00" fill="#c6c5fe">utils/index.js</text>
</g>
<!-- cluster/cluster.health.js&#45;&gt;utils/index.js -->
<g id="edge8" class="edge">
<title>cluster/cluster.health.js&#45;&gt;utils/index.js</title>
<path fill="none" stroke="#757575" d="M686.6,-344.43C773.35,-339.83 913.5,-332.4 990.31,-328.33"/>
<polygon fill="#757575" stroke="#757575" points="990.92,-331.8 1000.72,-327.78 990.55,-324.81 990.92,-331.8"/>
</g>
<!-- cluster/cluster.providers.js&#45;&gt;cluster/cluster.constants.js -->
<g id="edge10" class="edge">
<title>cluster/cluster.providers.js&#45;&gt;cluster/cluster.constants.js</title>
<path fill="none" stroke="#757575" d="M696.11,-477.71C821.57,-494.32 1055.47,-525.3 1186.93,-542.71"/>
<polygon fill="#757575" stroke="#757575" points="1186.62,-546.2 1196.99,-544.04 1187.54,-539.26 1186.62,-546.2"/>
</g>
<!-- cluster/cluster.providers.js&#45;&gt;cluster/cluster.service.js -->
<g id="edge11" class="edge">
<title>cluster/cluster.providers.js&#45;&gt;cluster/cluster.service.js</title>
<path fill="none" stroke="#757575" d="M649.37,-454.82C682.15,-444.89 729.44,-430.58 764.67,-419.91"/>
<polygon fill="#757575" stroke="#757575" points="765.71,-423.25 774.27,-417.01 763.68,-416.55 765.71,-423.25"/>
</g>
<!-- cluster/cluster.providers.js&#45;&gt;cluster/common/index.js -->
<g id="edge12" class="edge">
<title>cluster/cluster.providers.js&#45;&gt;cluster/common/index.js</title>
<path fill="none" stroke="#757575" d="M629.24,-478.11C664.98,-500.99 744.36,-551.81 785.94,-578.43"/>
<polygon fill="#757575" stroke="#757575" points="784.14,-581.43 794.45,-583.88 787.91,-575.54 784.14,-581.43"/>
</g>
<!-- cluster/cluster.providers.js&#45;&gt;errors/index.js -->
<g id="edge13" class="edge">
<title>cluster/cluster.providers.js&#45;&gt;errors/index.js</title>
<path fill="none" stroke="#757575" d="M696.16,-466.04C805.8,-463.5 1001.21,-452.03 1161,-405.43 1195.21,-395.46 1231.49,-376.38 1255.51,-362.41"/>
<polygon fill="#757575" stroke="#757575" points="1257.58,-365.26 1264.4,-357.15 1254.01,-359.23 1257.58,-365.26"/>
</g>
<!-- cluster/cluster.service.js&#45;&gt;cluster/cluster.constants.js -->
<g id="edge14" class="edge">
<title>cluster/cluster.service.js&#45;&gt;cluster/cluster.constants.js</title>
<path fill="none" stroke="#757575" d="M862.46,-416.94C929.89,-433.58 1056.21,-466.45 1161,-503.43 1191.28,-514.12 1224.79,-528.6 1249.01,-539.56"/>
<polygon fill="#757575" stroke="#757575" points="1247.58,-542.76 1258.13,-543.73 1250.49,-536.39 1247.58,-542.76"/>
</g>
<!-- cluster/cluster.service.js&#45;&gt;errors/index.js -->
<g id="edge15" class="edge">
<title>cluster/cluster.service.js&#45;&gt;errors/index.js</title>
<path fill="none" stroke="#757575" d="M893.14,-403.94C963.73,-401.55 1069.94,-395.38 1161,-379.43 1187.22,-374.84 1215.93,-366.99 1238.91,-359.98"/>
<polygon fill="#757575" stroke="#757575" points="1240.19,-363.25 1248.71,-356.94 1238.12,-356.56 1240.19,-363.25"/>
</g>
<!-- cluster/cluster.service.js&#45;&gt;utils/index.js -->
<g id="edge16" class="edge">
<title>cluster/cluster.service.js&#45;&gt;utils/index.js</title>
<path fill="none" stroke="#757575" d="M848.02,-393.8C888.76,-379.66 957.59,-355.77 1002.15,-340.31"/>
<polygon fill="#757575" stroke="#757575" points="1003.52,-343.54 1011.82,-336.95 1001.22,-336.92 1003.52,-343.54"/>
</g>
<!-- cluster/common/cluster&#45;utils.js -->
<g id="node10" class="node">
<title>cluster/common/cluster&#45;utils.js</title>
<path fill="none" stroke="#cfffac" d="M1137.83,-606.93C1137.83,-606.93 954.17,-606.93 954.17,-606.93 950.33,-606.93 946.5,-603.1 946.5,-599.27 946.5,-599.27 946.5,-591.6 946.5,-591.6 946.5,-587.77 950.33,-583.93 954.17,-583.93 954.17,-583.93 1137.83,-583.93 1137.83,-583.93 1141.67,-583.93 1145.5,-587.77 1145.5,-591.6 1145.5,-591.6 1145.5,-599.27 1145.5,-599.27 1145.5,-603.1 1141.67,-606.93 1137.83,-606.93"/>
<text text-anchor="middle" x="1046" y="-591.73" font-family="Arial" font-size="14.00" fill="#cfffac">cluster/common/cluster&#45;utils.js</text>
</g>
<!-- cluster/common/index.js&#45;&gt;cluster/common/cluster&#45;utils.js -->
<g id="edge18" class="edge">
<title>cluster/common/index.js&#45;&gt;cluster/common/cluster&#45;utils.js</title>
<path fill="none" stroke="#757575" d="M895.12,-595.43C908.39,-595.43 922.33,-595.43 936.15,-595.43"/>
<polygon fill="#757575" stroke="#757575" points="936.18,-598.93 946.18,-595.43 936.18,-591.93 936.18,-598.93"/>
</g>
<!-- cluster/common/cluster.decorator.js -->
<g id="node11" class="node">
<title>cluster/common/cluster.decorator.js</title>
<path fill="none" stroke="#c6c5fe" d="M1153.33,-647.93C1153.33,-647.93 938.67,-647.93 938.67,-647.93 934.83,-647.93 931,-644.1 931,-640.27 931,-640.27 931,-632.6 931,-632.6 931,-628.77 934.83,-624.93 938.67,-624.93 938.67,-624.93 1153.33,-624.93 1153.33,-624.93 1157.17,-624.93 1161,-628.77 1161,-632.6 1161,-632.6 1161,-640.27 1161,-640.27 1161,-644.1 1157.17,-647.93 1153.33,-647.93"/>
<text text-anchor="middle" x="1046" y="-632.73" font-family="Arial" font-size="14.00" fill="#c6c5fe">cluster/common/cluster.decorator.js</text>
</g>
<!-- cluster/common/index.js&#45;&gt;cluster/common/cluster.decorator.js -->
<g id="edge19" class="edge">
<title>cluster/common/index.js&#45;&gt;cluster/common/cluster.decorator.js</title>
<path fill="none" stroke="#757575" d="M878.28,-606.99C895.4,-610.07 913.9,-613.39 931,-616.43 943.25,-618.61 956.25,-620.91 968.92,-623.14"/>
<polygon fill="#757575" stroke="#757575" points="968.53,-626.62 978.98,-624.9 969.74,-619.73 968.53,-626.62"/>
</g>
<!-- errors/messages.constant.js -->
<g id="node12" class="node">
<title>errors/messages.constant.js</title>
<path fill="none" stroke="#cfffac" d="M1585.33,-376.93C1585.33,-376.93 1414.67,-376.93 1414.67,-376.93 1410.83,-376.93 1407,-373.1 1407,-369.27 1407,-369.27 1407,-361.6 1407,-361.6 1407,-357.77 1410.83,-353.93 1414.67,-353.93 1414.67,-353.93 1585.33,-353.93 1585.33,-353.93 1589.17,-353.93 1593,-357.77 1593,-361.6 1593,-361.6 1593,-369.27 1593,-369.27 1593,-373.1 1589.17,-376.93 1585.33,-376.93"/>
<text text-anchor="middle" x="1500" y="-361.73" font-family="Arial" font-size="14.00" fill="#cfffac">errors/messages.constant.js</text>
</g>
<!-- errors/index.js&#45;&gt;errors/messages.constant.js -->
<g id="edge20" class="edge">
<title>errors/index.js&#45;&gt;errors/messages.constant.js</title>
<path fill="none" stroke="#757575" d="M1334.63,-350.07C1353.18,-351.81 1374.99,-353.84 1396.56,-355.86"/>
<polygon fill="#757575" stroke="#757575" points="1396.49,-359.37 1406.77,-356.81 1397.14,-352.4 1396.49,-359.37"/>
</g>
<!-- errors/redis.error.js -->
<g id="node13" class="node">
<title>errors/redis.error.js</title>
<path fill="none" stroke="#cfffac" d="M1557.33,-335.93C1557.33,-335.93 1442.67,-335.93 1442.67,-335.93 1438.83,-335.93 1435,-332.1 1435,-328.27 1435,-328.27 1435,-320.6 1435,-320.6 1435,-316.77 1438.83,-312.93 1442.67,-312.93 1442.67,-312.93 1557.33,-312.93 1557.33,-312.93 1561.17,-312.93 1565,-316.77 1565,-320.6 1565,-320.6 1565,-328.27 1565,-328.27 1565,-332.1 1561.17,-335.93 1557.33,-335.93"/>
<text text-anchor="middle" x="1500" y="-320.73" font-family="Arial" font-size="14.00" fill="#cfffac">errors/redis.error.js</text>
</g>
<!-- errors/index.js&#45;&gt;errors/redis.error.js -->
<g id="edge21" class="edge">
<title>errors/index.js&#45;&gt;errors/redis.error.js</title>
<path fill="none" stroke="#757575" d="M1334.63,-340.56C1361.25,-337.95 1394.6,-334.68 1424.28,-331.77"/>
<polygon fill="#757575" stroke="#757575" points="1425,-335.21 1434.61,-330.75 1424.32,-328.25 1425,-335.21"/>
</g>
<!-- utils/index.js&#45;&gt;errors/index.js -->
<g id="edge50" class="edge">
<title>utils/index.js&#45;&gt;errors/index.js</title>
<path fill="none" stroke="#757575" d="M1091.11,-329.17C1128.38,-332.33 1182.1,-336.88 1223.22,-340.37"/>
<polygon fill="#757575" stroke="#757575" points="1223.13,-343.87 1233.39,-341.23 1223.72,-336.9 1223.13,-343.87"/>
</g>
<!-- cluster/cluster.module.js -->
<g id="node9" class="node">
<title>cluster/cluster.module.js</title>
<path fill="none" stroke="#c6c5fe" d="M251.33,-449.93C251.33,-449.93 105.67,-449.93 105.67,-449.93 101.83,-449.93 98,-446.1 98,-442.27 98,-442.27 98,-434.6 98,-434.6 98,-430.77 101.83,-426.93 105.67,-426.93 105.67,-426.93 251.33,-426.93 251.33,-426.93 255.17,-426.93 259,-430.77 259,-434.6 259,-434.6 259,-442.27 259,-442.27 259,-446.1 255.17,-449.93 251.33,-449.93"/>
<text text-anchor="middle" x="178.5" y="-434.73" font-family="Arial" font-size="14.00" fill="#c6c5fe">cluster/cluster.module.js</text>
</g>
<!-- cluster/cluster.module.js&#45;&gt;cluster/cluster&#45;core.module.js -->
<g id="edge9" class="edge">
<title>cluster/cluster.module.js&#45;&gt;cluster/cluster&#45;core.module.js</title>
<path fill="none" stroke="#757575" d="M259.27,-441.84C267.57,-442.19 276.1,-442.55 284.64,-442.92"/>
<polygon fill="#757575" stroke="#757575" points="284.5,-446.42 294.64,-443.34 284.8,-439.42 284.5,-446.42"/>
</g>
<!-- cluster/common/cluster.decorator.js&#45;&gt;cluster/cluster.constants.js -->
<g id="edge17" class="edge">
<title>cluster/common/cluster.decorator.js&#45;&gt;cluster/cluster.constants.js</title>
<path fill="none" stroke="#757575" d="M1129.59,-624.88C1140.28,-622.53 1150.98,-619.74 1161,-616.43 1194.95,-605.23 1231.28,-586.03 1255.38,-572.16"/>
<polygon fill="#757575" stroke="#757575" points="1257.43,-575.01 1264.3,-566.95 1253.9,-568.97 1257.43,-575.01"/>
</g>
<!-- index.js -->
<g id="node14" class="node">
<title>index.js</title>
<path fill="none" stroke="#c6c5fe" d="M54.33,-327.93C54.33,-327.93 7.67,-327.93 7.67,-327.93 3.83,-327.93 0,-324.1 0,-320.27 0,-320.27 0,-312.6 0,-312.6 0,-308.77 3.83,-304.93 7.67,-304.93 7.67,-304.93 54.33,-304.93 54.33,-304.93 58.17,-304.93 62,-308.77 62,-312.6 62,-312.6 62,-320.27 62,-320.27 62,-324.1 58.17,-327.93 54.33,-327.93"/>
<text text-anchor="middle" x="31" y="-312.73" font-family="Arial" font-size="14.00" fill="#c6c5fe">index.js</text>
</g>
<!-- index.js&#45;&gt;cluster/cluster.constants.js -->
<g id="edge22" class="edge">
<title>index.js&#45;&gt;cluster/cluster.constants.js</title>
<path fill="none" stroke="#757575" d="M32.74,-328.08C35.46,-361.86 47.57,-461.25 98,-521.43 192.5,-634.2 243.38,-676.43 390.5,-676.43 390.5,-676.43 390.5,-676.43 814.5,-676.43 968.73,-676.43 1017.52,-714 1161,-657.43 1205.57,-639.86 1245.78,-599.24 1267.05,-574.89"/>
<polygon fill="#757575" stroke="#757575" points="1269.94,-576.91 1273.77,-567.03 1264.61,-572.36 1269.94,-576.91"/>
</g>
<!-- index.js&#45;&gt;cluster/cluster.health.js -->
<g id="edge23" class="edge">
<title>index.js&#45;&gt;cluster/cluster.health.js</title>
<path fill="none" stroke="#757575" d="M62.18,-320.57C73.41,-321.98 86.27,-323.45 98,-324.43 247.09,-336.95 421.25,-343.39 522.92,-346.33"/>
<polygon fill="#757575" stroke="#757575" points="523.04,-349.83 533.13,-346.62 523.23,-342.83 523.04,-349.83"/>
</g>
<!-- index.js&#45;&gt;cluster/cluster.service.js -->
<g id="edge25" class="edge">
<title>index.js&#45;&gt;cluster/cluster.service.js</title>
<path fill="none" stroke="#757575" d="M54.3,-327.98C66.81,-333.92 82.9,-340.69 98,-344.43 318.07,-399.04 586.65,-406.82 723.33,-406.77"/>
<polygon fill="#757575" stroke="#757575" points="723.75,-410.27 733.74,-406.75 723.73,-403.27 723.75,-410.27"/>
</g>
<!-- index.js&#45;&gt;cluster/common/index.js -->
<g id="edge26" class="edge">
<title>index.js&#45;&gt;cluster/common/index.js</title>
<path fill="none" stroke="#757575" d="M34.15,-328.34C39.68,-355.57 56.97,-422.87 98,-459.43 246.78,-592.03 327.21,-567.93 524,-599.43 589.56,-609.93 664.57,-608.48 721.67,-604.65"/>
<polygon fill="#757575" stroke="#757575" points="722.02,-608.13 731.75,-603.94 721.53,-601.15 722.02,-608.13"/>
</g>
<!-- index.js&#45;&gt;cluster/cluster.module.js -->
<g id="edge24" class="edge">
<title>index.js&#45;&gt;cluster/cluster.module.js</title>
<path fill="none" stroke="#757575" d="M38.46,-328.2C48.89,-346.28 71.02,-381.03 98,-402.43 108.4,-410.68 120.98,-417.5 133.05,-422.9"/>
<polygon fill="#757575" stroke="#757575" points="131.98,-426.25 142.56,-426.93 134.71,-419.81 131.98,-426.25"/>
</g>
<!-- redis/common/index.js -->
<g id="node15" class="node">
<title>redis/common/index.js</title>
<path fill="none" stroke="#c6c5fe" d="M881.83,-104.93C881.83,-104.93 745.17,-104.93 745.17,-104.93 741.33,-104.93 737.5,-101.1 737.5,-97.27 737.5,-97.27 737.5,-89.6 737.5,-89.6 737.5,-85.77 741.33,-81.93 745.17,-81.93 745.17,-81.93 881.83,-81.93 881.83,-81.93 885.67,-81.93 889.5,-85.77 889.5,-89.6 889.5,-89.6 889.5,-97.27 889.5,-97.27 889.5,-101.1 885.67,-104.93 881.83,-104.93"/>
<text text-anchor="middle" x="813.5" y="-89.73" font-family="Arial" font-size="14.00" fill="#c6c5fe">redis/common/index.js</text>
</g>
<!-- index.js&#45;&gt;redis/common/index.js -->
<g id="edge27" class="edge">
<title>index.js&#45;&gt;redis/common/index.js</title>
<path fill="none" stroke="#757575" d="M34.11,-304.89C39.57,-278.55 56.72,-213.77 98,-181.43 289.39,-31.54 602.42,-58.62 741.76,-80.28"/>
<polygon fill="#757575" stroke="#757575" points="741.46,-83.78 751.89,-81.89 742.56,-76.86 741.46,-83.78"/>
</g>
<!-- redis/redis.constants.js -->
<g id="node16" class="node">
<title>redis/redis.constants.js</title>
<path fill="none" stroke="#cfffac" d="M1353.33,-144.93C1353.33,-144.93 1214.67,-144.93 1214.67,-144.93 1210.83,-144.93 1207,-141.1 1207,-137.27 1207,-137.27 1207,-129.6 1207,-129.6 1207,-125.77 1210.83,-121.93 1214.67,-121.93 1214.67,-121.93 1353.33,-121.93 1353.33,-121.93 1357.17,-121.93 1361,-125.77 1361,-129.6 1361,-129.6 1361,-137.27 1361,-137.27 1361,-141.1 1357.17,-144.93 1353.33,-144.93"/>
<text text-anchor="middle" x="1284" y="-129.73" font-family="Arial" font-size="14.00" fill="#cfffac">redis/redis.constants.js</text>
</g>
<!-- index.js&#45;&gt;redis/redis.constants.js -->
<g id="edge28" class="edge">
<title>index.js&#45;&gt;redis/redis.constants.js</title>
<path fill="none" stroke="#757575" d="M31.85,-304.69C32.04,-268.26 37.73,-156 98,-96.43 194.2,-1.36 255.25,-12.43 390.5,-12.43 390.5,-12.43 390.5,-12.43 814.5,-12.43 968.73,-12.43 1017.52,25.14 1161,-31.43 1205.57,-49.01 1245.78,-89.63 1267.05,-113.97"/>
<polygon fill="#757575" stroke="#757575" points="1264.61,-116.5 1273.77,-121.84 1269.94,-111.96 1264.61,-116.5"/>
</g>
<!-- redis/redis.health.js -->
<g id="node17" class="node">
<title>redis/redis.health.js</title>
<path fill="none" stroke="#c6c5fe" d="M668.83,-302.93C668.83,-302.93 551.17,-302.93 551.17,-302.93 547.33,-302.93 543.5,-299.1 543.5,-295.27 543.5,-295.27 543.5,-287.6 543.5,-287.6 543.5,-283.77 547.33,-279.93 551.17,-279.93 551.17,-279.93 668.83,-279.93 668.83,-279.93 672.67,-279.93 676.5,-283.77 676.5,-287.6 676.5,-287.6 676.5,-295.27 676.5,-295.27 676.5,-299.1 672.67,-302.93 668.83,-302.93"/>
<text text-anchor="middle" x="610" y="-287.73" font-family="Arial" font-size="14.00" fill="#c6c5fe">redis/redis.health.js</text>
</g>
<!-- index.js&#45;&gt;redis/redis.health.js -->
<g id="edge29" class="edge">
<title>index.js&#45;&gt;redis/redis.health.js</title>
<path fill="none" stroke="#757575" d="M62.21,-315.12C149.58,-311.34 404.49,-300.29 533.03,-294.72"/>
<polygon fill="#757575" stroke="#757575" points="533.35,-298.21 543.19,-294.28 533.04,-291.22 533.35,-298.21"/>
</g>
<!-- redis/redis.module.js -->
<g id="node18" class="node">
<title>redis/redis.module.js</title>
<path fill="none" stroke="#c6c5fe" d="M241.33,-213.93C241.33,-213.93 115.67,-213.93 115.67,-213.93 111.83,-213.93 108,-210.1 108,-206.27 108,-206.27 108,-198.6 108,-198.6 108,-194.77 111.83,-190.93 115.67,-190.93 115.67,-190.93 241.33,-190.93 241.33,-190.93 245.17,-190.93 249,-194.77 249,-198.6 249,-198.6 249,-206.27 249,-206.27 249,-210.1 245.17,-213.93 241.33,-213.93"/>
<text text-anchor="middle" x="178.5" y="-198.73" font-family="Arial" font-size="14.00" fill="#c6c5fe">redis/redis.module.js</text>
</g>
<!-- index.js&#45;&gt;redis/redis.module.js -->
<g id="edge30" class="edge">
<title>index.js&#45;&gt;redis/redis.module.js</title>
<path fill="none" stroke="#757575" d="M39.2,-304.79C50.1,-287.97 72.29,-256.77 98,-237.43 108.37,-229.64 120.74,-223.13 132.6,-217.92"/>
<polygon fill="#757575" stroke="#757575" points="134.07,-221.1 141.96,-214.03 131.38,-214.64 134.07,-221.1"/>
</g>
<!-- redis/redis.service.js -->
<g id="node19" class="node">
<title>redis/redis.service.js</title>
<path fill="none" stroke="#c6c5fe" d="M875.33,-260.93C875.33,-260.93 751.67,-260.93 751.67,-260.93 747.83,-260.93 744,-257.1 744,-253.27 744,-253.27 744,-245.6 744,-245.6 744,-241.77 747.83,-237.93 751.67,-237.93 751.67,-237.93 875.33,-237.93 875.33,-237.93 879.17,-237.93 883,-241.77 883,-245.6 883,-245.6 883,-253.27 883,-253.27 883,-257.1 879.17,-260.93 875.33,-260.93"/>
<text text-anchor="middle" x="813.5" y="-245.73" font-family="Arial" font-size="14.00" fill="#c6c5fe">redis/redis.service.js</text>
</g>
<!-- index.js&#45;&gt;redis/redis.service.js -->
<g id="edge31" class="edge">
<title>index.js&#45;&gt;redis/redis.service.js</title>
<path fill="none" stroke="#757575" d="M62.1,-309.73C73.32,-307.44 86.2,-305.05 98,-303.43 327.88,-272 602.07,-257.7 733.97,-252.26"/>
<polygon fill="#757575" stroke="#757575" points="734.14,-255.76 743.98,-251.85 733.85,-248.76 734.14,-255.76"/>
</g>
<!-- redis/common/redis&#45;utils.js -->
<g id="node20" class="node">
<title>redis/common/redis&#45;utils.js</title>
<path fill="none" stroke="#cfffac" d="M1127.33,-63.93C1127.33,-63.93 964.67,-63.93 964.67,-63.93 960.83,-63.93 957,-60.1 957,-56.27 957,-56.27 957,-48.6 957,-48.6 957,-44.77 960.83,-40.93 964.67,-40.93 964.67,-40.93 1127.33,-40.93 1127.33,-40.93 1131.17,-40.93 1135,-44.77 1135,-48.6 1135,-48.6 1135,-56.27 1135,-56.27 1135,-60.1 1131.17,-63.93 1127.33,-63.93"/>
<text text-anchor="middle" x="1046" y="-48.73" font-family="Arial" font-size="14.00" fill="#cfffac">redis/common/redis&#45;utils.js</text>
</g>
<!-- redis/common/index.js&#45;&gt;redis/common/redis&#45;utils.js -->
<g id="edge32" class="edge">
<title>redis/common/index.js&#45;&gt;redis/common/redis&#45;utils.js</title>
<path fill="none" stroke="#757575" d="M878.28,-81.88C895.4,-78.8 913.9,-75.47 931,-72.43 943.25,-70.25 956.25,-67.96 968.92,-65.73"/>
<polygon fill="#757575" stroke="#757575" points="969.74,-69.14 978.98,-63.96 968.53,-62.25 969.74,-69.14"/>
</g>
<!-- redis/common/redis.decorator.js -->
<g id="node21" class="node">
<title>redis/common/redis.decorator.js</title>
<path fill="none" stroke="#c6c5fe" d="M1142.83,-104.93C1142.83,-104.93 949.17,-104.93 949.17,-104.93 945.33,-104.93 941.5,-101.1 941.5,-97.27 941.5,-97.27 941.5,-89.6 941.5,-89.6 941.5,-85.77 945.33,-81.93 949.17,-81.93 949.17,-81.93 1142.83,-81.93 1142.83,-81.93 1146.67,-81.93 1150.5,-85.77 1150.5,-89.6 1150.5,-89.6 1150.5,-97.27 1150.5,-97.27 1150.5,-101.1 1146.67,-104.93 1142.83,-104.93"/>
<text text-anchor="middle" x="1046" y="-89.73" font-family="Arial" font-size="14.00" fill="#c6c5fe">redis/common/redis.decorator.js</text>
</g>
<!-- redis/common/index.js&#45;&gt;redis/common/redis.decorator.js -->
<g id="edge33" class="edge">
<title>redis/common/index.js&#45;&gt;redis/common/redis.decorator.js</title>
<path fill="none" stroke="#757575" d="M889.66,-93.43C902.98,-93.43 917.11,-93.43 931.22,-93.43"/>
<polygon fill="#757575" stroke="#757575" points="931.47,-96.93 941.47,-93.43 931.47,-89.93 931.47,-96.93"/>
</g>
<!-- redis/redis.health.js&#45;&gt;utils/index.js -->
<g id="edge41" class="edge">
<title>redis/redis.health.js&#45;&gt;utils/index.js</title>
<path fill="none" stroke="#757575" d="M676.92,-296.6C762.7,-303.32 911.02,-314.94 990.68,-321.18"/>
<polygon fill="#757575" stroke="#757575" points="990.74,-324.69 1000.98,-321.98 991.28,-317.71 990.74,-324.69"/>
</g>
<!-- redis/redis.health.js&#45;&gt;redis/redis.service.js -->
<g id="edge40" class="edge">
<title>redis/redis.health.js&#45;&gt;redis/redis.service.js</title>
<path fill="none" stroke="#757575" d="M666.33,-279.9C691.43,-274.67 721.29,-268.44 747.46,-262.99"/>
<polygon fill="#757575" stroke="#757575" points="748.22,-266.41 757.3,-260.94 746.79,-259.55 748.22,-266.41"/>
</g>
<!-- redis/redis&#45;core.module.js -->
<g id="node22" class="node">
<title>redis/redis&#45;core.module.js</title>
<path fill="none" stroke="#c6c5fe" d="M469.83,-203.93C469.83,-203.93 313.17,-203.93 313.17,-203.93 309.33,-203.93 305.5,-200.1 305.5,-196.27 305.5,-196.27 305.5,-188.6 305.5,-188.6 305.5,-184.77 309.33,-180.93 313.17,-180.93 313.17,-180.93 469.83,-180.93 469.83,-180.93 473.67,-180.93 477.5,-184.77 477.5,-188.6 477.5,-188.6 477.5,-196.27 477.5,-196.27 477.5,-200.1 473.67,-203.93 469.83,-203.93"/>
<text text-anchor="middle" x="391.5" y="-188.73" font-family="Arial" font-size="14.00" fill="#c6c5fe">redis/redis&#45;core.module.js</text>
</g>
<!-- redis/redis.module.js&#45;&gt;redis/redis&#45;core.module.js -->
<g id="edge42" class="edge">
<title>redis/redis.module.js&#45;&gt;redis/redis&#45;core.module.js</title>
<path fill="none" stroke="#757575" d="M249.17,-199.13C263.94,-198.43 279.78,-197.68 295.31,-196.94"/>
<polygon fill="#757575" stroke="#757575" points="295.64,-200.43 305.46,-196.46 295.31,-193.44 295.64,-200.43"/>
</g>
<!-- redis/redis.service.js&#45;&gt;errors/index.js -->
<g id="edge47" class="edge">
<title>redis/redis.service.js&#45;&gt;errors/index.js</title>
<path fill="none" stroke="#757575" d="M883.22,-256.91C953.62,-265.37 1065.91,-281.08 1161,-304.43 1189.1,-311.33 1219.99,-321.74 1243.66,-330.35"/>
<polygon fill="#757575" stroke="#757575" points="1242.73,-333.74 1253.33,-333.91 1245.15,-327.17 1242.73,-333.74"/>
</g>
<!-- redis/redis.service.js&#45;&gt;utils/index.js -->
<g id="edge49" class="edge">
<title>redis/redis.service.js&#45;&gt;utils/index.js</title>
<path fill="none" stroke="#757575" d="M857.97,-261.06C870.22,-264.98 883.36,-269.81 895,-275.43 912.31,-283.8 913.33,-291.84 931,-299.43 949.82,-307.53 971.51,-313.28 990.9,-317.28"/>
<polygon fill="#757575" stroke="#757575" points="990.31,-320.73 1000.79,-319.21 991.65,-313.86 990.31,-320.73"/>
</g>
<!-- redis/redis.service.js&#45;&gt;redis/redis.constants.js -->
<g id="edge48" class="edge">
<title>redis/redis.service.js&#45;&gt;redis/redis.constants.js</title>
<path fill="none" stroke="#757575" d="M883.28,-241.28C953.96,-231.84 1066.7,-213.86 1161,-185.43 1192.53,-175.93 1226.9,-160.82 1251.11,-149.33"/>
<polygon fill="#757575" stroke="#757575" points="1252.68,-152.45 1260.18,-144.96 1249.65,-146.14 1252.68,-152.45"/>
</g>
<!-- redis/common/redis.decorator.js&#45;&gt;redis/redis.constants.js -->
<g id="edge34" class="edge">
<title>redis/common/redis.decorator.js&#45;&gt;redis/redis.constants.js</title>
<path fill="none" stroke="#757575" d="M1114.94,-104.95C1143.08,-109.72 1175.88,-115.28 1205,-120.21"/>
<polygon fill="#757575" stroke="#757575" points="1204.68,-123.71 1215.13,-121.93 1205.85,-116.81 1204.68,-123.71"/>
</g>
<!-- redis/redis&#45;core.module.js&#45;&gt;redis/common/index.js -->
<g id="edge35" class="edge">
<title>redis/redis&#45;core.module.js&#45;&gt;redis/common/index.js</title>
<path fill="none" stroke="#757575" d="M408.11,-180.88C431.79,-164.06 478.83,-133.32 524,-119.43 590.2,-99.07 668.68,-93.1 727.06,-91.92"/>
<polygon fill="#757575" stroke="#757575" points="727.41,-95.41 737.35,-91.76 727.3,-88.41 727.41,-95.41"/>
</g>
<!-- redis/redis&#45;core.module.js&#45;&gt;redis/redis.constants.js -->
<g id="edge36" class="edge">
<title>redis/redis&#45;core.module.js&#45;&gt;redis/redis.constants.js</title>
<path fill="none" stroke="#757575" d="M422.25,-180.86C448.55,-171.23 488.19,-158.22 524,-152.43 765.2,-113.47 1055.03,-120.97 1196.62,-128.07"/>
<polygon fill="#757575" stroke="#757575" points="1196.8,-131.59 1206.97,-128.61 1197.16,-124.6 1196.8,-131.59"/>
</g>
<!-- redis/redis&#45;core.module.js&#45;&gt;redis/redis.health.js -->
<g id="edge37" class="edge">
<title>redis/redis&#45;core.module.js&#45;&gt;redis/redis.health.js</title>
<path fill="none" stroke="#757575" d="M417.76,-203.98C456.52,-221.71 530.76,-255.66 574.47,-275.64"/>
<polygon fill="#757575" stroke="#757575" points="573.02,-278.83 583.57,-279.8 575.93,-272.46 573.02,-278.83"/>
</g>
<!-- redis/redis&#45;core.module.js&#45;&gt;redis/redis.service.js -->
<g id="edge39" class="edge">
<title>redis/redis&#45;core.module.js&#45;&gt;redis/redis.service.js</title>
<path fill="none" stroke="#757575" d="M477.24,-203.93C552.19,-214.11 660.69,-228.83 733.77,-238.75"/>
<polygon fill="#757575" stroke="#757575" points="733.46,-242.24 743.84,-240.12 734.4,-235.3 733.46,-242.24"/>
</g>
<!-- redis/redis.providers.js -->
<g id="node23" class="node">
<title>redis/redis.providers.js</title>
<path fill="none" stroke="#c6c5fe" d="M678.33,-184.93C678.33,-184.93 541.67,-184.93 541.67,-184.93 537.83,-184.93 534,-181.1 534,-177.27 534,-177.27 534,-169.6 534,-169.6 534,-165.77 537.83,-161.93 541.67,-161.93 541.67,-161.93 678.33,-161.93 678.33,-161.93 682.17,-161.93 686,-165.77 686,-169.6 686,-169.6 686,-177.27 686,-177.27 686,-181.1 682.17,-184.93 678.33,-184.93"/>
<text text-anchor="middle" x="610" y="-169.73" font-family="Arial" font-size="14.00" fill="#c6c5fe">redis/redis.providers.js</text>
</g>
<!-- redis/redis&#45;core.module.js&#45;&gt;redis/redis.providers.js -->
<g id="edge38" class="edge">
<title>redis/redis&#45;core.module.js&#45;&gt;redis/redis.providers.js</title>
<path fill="none" stroke="#757575" d="M477.76,-184.95C492.75,-183.63 508.37,-182.26 523.38,-180.95"/>
<polygon fill="#757575" stroke="#757575" points="524,-184.41 533.66,-180.05 523.39,-177.43 524,-184.41"/>
</g>
<!-- redis/redis.providers.js&#45;&gt;errors/index.js -->
<g id="edge43" class="edge">
<title>redis/redis.providers.js&#45;&gt;errors/index.js</title>
<path fill="none" stroke="#757575" d="M686.1,-181.3C815.78,-195.56 1076,-227.4 1161,-261.43 1200.33,-277.18 1239.57,-307.45 1262.55,-327.03"/>
<polygon fill="#757575" stroke="#757575" points="1260.4,-329.8 1270.24,-333.71 1264.99,-324.52 1260.4,-329.8"/>
</g>
<!-- redis/redis.providers.js&#45;&gt;redis/common/index.js -->
<g id="edge44" class="edge">
<title>redis/redis.providers.js&#45;&gt;redis/common/index.js</title>
<path fill="none" stroke="#757575" d="M640.3,-161.8C675.62,-147.78 735.07,-124.17 774.05,-108.7"/>
<polygon fill="#757575" stroke="#757575" points="775.49,-111.89 783.49,-104.95 772.91,-105.39 775.49,-111.89"/>
</g>
<!-- redis/redis.providers.js&#45;&gt;redis/redis.constants.js -->
<g id="edge45" class="edge">
<title>redis/redis.providers.js&#45;&gt;redis/redis.constants.js</title>
<path fill="none" stroke="#757575" d="M686.28,-171.47C792.31,-168.35 991.64,-161.14 1161,-147.43 1172.62,-146.49 1184.84,-145.32 1196.88,-144.04"/>
<polygon fill="#757575" stroke="#757575" points="1197.37,-147.51 1206.93,-142.96 1196.62,-140.55 1197.37,-147.51"/>
</g>
<!-- redis/redis.providers.js&#45;&gt;redis/redis.service.js -->
<g id="edge46" class="edge">
<title>redis/redis.providers.js&#45;&gt;redis/redis.service.js</title>
<path fill="none" stroke="#757575" d="M657.36,-184.95C670.16,-188.84 683.87,-193.69 696,-199.43 713.38,-207.67 714.69,-215.07 732,-223.43 740.64,-227.61 750.11,-231.34 759.42,-234.59"/>
<polygon fill="#757575" stroke="#757575" points="758.44,-237.96 769.03,-237.8 760.65,-231.32 758.44,-237.96"/>
</g>
</g>
</svg>
