<?xml version="1.0" encoding="UTF-8" standalone="no"?>
<!DOCTYPE svg PUBLIC "-//W3C//DTD SVG 1.1//EN"
 "http://www.w3.org/Graphics/SVG/1.1/DTD/svg11.dtd">
<!-- Generated by graphviz version 2.43.0 (0)
 -->
<!-- Title: G Pages: 1 -->
<svg width="660pt" height="148pt"
 viewBox="0.00 0.00 660.20 148.20" xmlns="http://www.w3.org/2000/svg" xmlns:xlink="http://www.w3.org/1999/xlink">
<g id="graph0" class="graph" transform="scale(1 1) rotate(0) translate(21.6 126.6)">
<title>G</title>
<polygon fill="#111111" stroke="transparent" points="-21.6,21.6 -21.6,-126.6 638.6,-126.6 638.6,21.6 -21.6,21.6"/>
<!-- index.js -->
<g id="node1" class="node">
<title>index.js</title>
<path fill="none" stroke="#c6c5fe" d="M54.33,-43C54.33,-43 7.67,-43 7.67,-43 3.83,-43 0,-39.17 0,-35.33 0,-35.33 0,-27.67 0,-27.67 0,-23.83 3.83,-20 7.67,-20 7.67,-20 54.33,-20 54.33,-20 58.17,-20 62,-23.83 62,-27.67 62,-27.67 62,-35.33 62,-35.33 62,-39.17 58.17,-43 54.33,-43"/>
<text text-anchor="middle" x="31" y="-27.8" font-family="Arial" font-size="14.00" fill="#c6c5fe">index.js</text>
</g>
<!-- redis/redis.module.js -->
<g id="node2" class="node">
<title>redis/redis.module.js</title>
<path fill="none" stroke="#c6c5fe" d="M231.33,-43C231.33,-43 105.67,-43 105.67,-43 101.83,-43 98,-39.17 98,-35.33 98,-35.33 98,-27.67 98,-27.67 98,-23.83 101.83,-20 105.67,-20 105.67,-20 231.33,-20 231.33,-20 235.17,-20 239,-23.83 239,-27.67 239,-27.67 239,-35.33 239,-35.33 239,-39.17 235.17,-43 231.33,-43"/>
<text text-anchor="middle" x="168.5" y="-27.8" font-family="Arial" font-size="14.00" fill="#c6c5fe">redis/redis.module.js</text>
</g>
<!-- index.js&#45;&gt;redis/redis.module.js -->
<g id="edge1" class="edge">
<title>index.js&#45;&gt;redis/redis.module.js</title>
<path fill="none" stroke="#757575" d="M62.07,-31.5C69.83,-31.5 78.56,-31.5 87.59,-31.5"/>
<polygon fill="#757575" stroke="#757575" points="87.87,-35 97.87,-31.5 87.87,-28 87.87,-35"/>
</g>
<!-- redis/redis.providers.js -->
<g id="node6" class="node">
<title>redis/redis.providers.js</title>
<path fill="none" stroke="#c6c5fe" d="M419.33,-64C419.33,-64 282.67,-64 282.67,-64 278.83,-64 275,-60.17 275,-56.33 275,-56.33 275,-48.67 275,-48.67 275,-44.83 278.83,-41 282.67,-41 282.67,-41 419.33,-41 419.33,-41 423.17,-41 427,-44.83 427,-48.67 427,-48.67 427,-56.33 427,-56.33 427,-60.17 423.17,-64 419.33,-64"/>
<text text-anchor="middle" x="351" y="-48.8" font-family="Arial" font-size="14.00" fill="#c6c5fe">redis/redis.providers.js</text>
</g>
<!-- redis/redis.module.js&#45;&gt;redis/redis.providers.js -->
<g id="edge2" class="edge">
<title>redis/redis.module.js&#45;&gt;redis/redis.providers.js</title>
<path fill="none" stroke="#757575" d="M239.03,-39.59C247.45,-40.57 256.13,-41.58 264.74,-42.58"/>
<polygon fill="#757575" stroke="#757575" points="264.48,-46.07 274.81,-43.75 265.28,-39.12 264.48,-46.07"/>
</g>
<!-- redis/redis.service.js -->
<g id="node7" class="node">
<title>redis/redis.service.js</title>
<path fill="none" stroke="#c6c5fe" d="M412.83,-23C412.83,-23 289.17,-23 289.17,-23 285.33,-23 281.5,-19.17 281.5,-15.33 281.5,-15.33 281.5,-7.67 281.5,-7.67 281.5,-3.83 285.33,0 289.17,0 289.17,0 412.83,0 412.83,0 416.67,0 420.5,-3.83 420.5,-7.67 420.5,-7.67 420.5,-15.33 420.5,-15.33 420.5,-19.17 416.67,-23 412.83,-23"/>
<text text-anchor="middle" x="351" y="-7.8" font-family="Arial" font-size="14.00" fill="#c6c5fe">redis/redis.service.js</text>
</g>
<!-- redis/redis.module.js&#45;&gt;redis/redis.service.js -->
<g id="edge3" class="edge">
<title>redis/redis.module.js&#45;&gt;redis/redis.service.js</title>
<path fill="none" stroke="#757575" d="M239.03,-23.8C249.56,-22.63 260.5,-21.42 271.21,-20.23"/>
<polygon fill="#757575" stroke="#757575" points="271.85,-23.68 281.4,-19.1 271.08,-16.72 271.85,-23.68"/>
</g>
<!-- redis/redis&#45;utils.js -->
<g id="node3" class="node">
<title>redis/redis&#45;utils.js</title>
<path fill="none" stroke="#cfffac" d="M592.83,-105C592.83,-105 487.17,-105 487.17,-105 483.33,-105 479.5,-101.17 479.5,-97.33 479.5,-97.33 479.5,-89.67 479.5,-89.67 479.5,-85.83 483.33,-82 487.17,-82 487.17,-82 592.83,-82 592.83,-82 596.67,-82 600.5,-85.83 600.5,-89.67 600.5,-89.67 600.5,-97.33 600.5,-97.33 600.5,-101.17 596.67,-105 592.83,-105"/>
<text text-anchor="middle" x="540" y="-89.8" font-family="Arial" font-size="14.00" fill="#cfffac">redis/redis&#45;utils.js</text>
</g>
<!-- redis/redis.constants.js -->
<g id="node4" class="node">
<title>redis/redis.constants.js</title>
<path fill="none" stroke="#cfffac" d="M609.33,-23C609.33,-23 470.67,-23 470.67,-23 466.83,-23 463,-19.17 463,-15.33 463,-15.33 463,-7.67 463,-7.67 463,-3.83 466.83,0 470.67,0 470.67,0 609.33,0 609.33,0 613.17,0 617,-3.83 617,-7.67 617,-7.67 617,-15.33 617,-15.33 617,-19.17 613.17,-23 609.33,-23"/>
<text text-anchor="middle" x="540" y="-7.8" font-family="Arial" font-size="14.00" fill="#cfffac">redis/redis.constants.js</text>
</g>
<!-- redis/redis.error.js -->
<g id="node5" class="node">
<title>redis/redis.error.js</title>
<path fill="none" stroke="#cfffac" d="M594.33,-64C594.33,-64 485.67,-64 485.67,-64 481.83,-64 478,-60.17 478,-56.33 478,-56.33 478,-48.67 478,-48.67 478,-44.83 481.83,-41 485.67,-41 485.67,-41 594.33,-41 594.33,-41 598.17,-41 602,-44.83 602,-48.67 602,-48.67 602,-56.33 602,-56.33 602,-60.17 598.17,-64 594.33,-64"/>
<text text-anchor="middle" x="540" y="-48.8" font-family="Arial" font-size="14.00" fill="#cfffac">redis/redis.error.js</text>
</g>
<!-- redis/redis.providers.js&#45;&gt;redis/redis&#45;utils.js -->
<g id="edge4" class="edge">
<title>redis/redis.providers.js&#45;&gt;redis/redis&#45;utils.js</title>
<path fill="none" stroke="#757575" d="M404.59,-64.03C426.99,-68.94 453.29,-74.71 476.67,-79.83"/>
<polygon fill="#757575" stroke="#757575" points="475.97,-83.26 486.48,-81.99 477.47,-76.43 475.97,-83.26"/>
</g>
<!-- redis/redis.providers.js&#45;&gt;redis/redis.constants.js -->
<g id="edge5" class="edge">
<title>redis/redis.providers.js&#45;&gt;redis/redis.constants.js</title>
<path fill="none" stroke="#757575" d="M404.59,-40.97C426.99,-36.06 453.29,-30.29 476.67,-25.17"/>
<polygon fill="#757575" stroke="#757575" points="477.47,-28.57 486.48,-23.01 475.97,-21.74 477.47,-28.57"/>
</g>
<!-- redis/redis.providers.js&#45;&gt;redis/redis.error.js -->
<g id="edge6" class="edge">
<title>redis/redis.providers.js&#45;&gt;redis/redis.error.js</title>
<path fill="none" stroke="#757575" d="M427.25,-52.5C440.68,-52.5 454.62,-52.5 467.93,-52.5"/>
<polygon fill="#757575" stroke="#757575" points="467.96,-56 477.96,-52.5 467.96,-49 467.96,-56"/>
</g>
<!-- redis/redis.service.js&#45;&gt;redis/redis.constants.js -->
<g id="edge7" class="edge">
<title>redis/redis.service.js&#45;&gt;redis/redis.constants.js</title>
<path fill="none" stroke="#757575" d="M420.57,-11.5C431,-11.5 441.87,-11.5 452.62,-11.5"/>
<polygon fill="#757575" stroke="#757575" points="452.86,-15 462.86,-11.5 452.86,-8 452.86,-15"/>
</g>
<!-- redis/redis.service.js&#45;&gt;redis/redis.error.js -->
<g id="edge8" class="edge">
<title>redis/redis.service.js&#45;&gt;redis/redis.error.js</title>
<path fill="none" stroke="#757575" d="M404.59,-23.03C426.99,-27.94 453.29,-33.71 476.67,-38.83"/>
<polygon fill="#757575" stroke="#757575" points="475.97,-42.26 486.48,-40.99 477.47,-35.43 475.97,-42.26"/>
</g>
</g>
</svg>
