<?xml version="1.0" encoding="UTF-8" standalone="no"?>
<!DOCTYPE svg PUBLIC "-//W3C//DTD SVG 1.1//EN"
 "http://www.w3.org/Graphics/SVG/1.1/DTD/svg11.dtd">
<!-- Generated by graphviz version 2.43.0 (0)
 -->
<!-- Title: G Pages: 1 -->
<svg width="1636pt" height="694pt"
 viewBox="0.00 0.00 1636.20 694.07" xmlns="http://www.w3.org/2000/svg" xmlns:xlink="http://www.w3.org/1999/xlink">
<g id="graph0" class="graph" transform="scale(1 1) rotate(0) translate(21.6 672.47)">
<title>G</title>
<polygon fill="#111111" stroke="transparent" points="-21.6,21.6 -21.6,-672.47 1614.6,-672.47 1614.6,21.6 -21.6,21.6"/>
<!-- cluster/cluster&#45;core.module.js -->
<g id="node1" class="node">
<title>cluster/cluster&#45;core.module.js</title>
<path fill="none" stroke="#c6c5fe" d="M480.33,-465.93C480.33,-465.93 302.67,-465.93 302.67,-465.93 298.83,-465.93 295,-462.1 295,-458.27 295,-458.27 295,-450.6 295,-450.6 295,-446.77 298.83,-442.93 302.67,-442.93 302.67,-442.93 480.33,-442.93 480.33,-442.93 484.17,-442.93 488,-446.77 488,-450.6 488,-450.6 488,-458.27 488,-458.27 488,-462.1 484.17,-465.93 480.33,-465.93"/>
<text text-anchor="middle" x="391.5" y="-450.73" font-family="Arial" font-size="14.00" fill="#c6c5fe">cluster/cluster&#45;core.module.js</text>
</g>
<!-- cluster/cluster.constants.js -->
<g id="node2" class="node">
<title>cluster/cluster.constants.js</title>
<path fill="none" stroke="#cfffac" d="M1363.33,-528.93C1363.33,-528.93 1204.67,-528.93 1204.67,-528.93 1200.83,-528.93 1197,-525.1 1197,-521.27 1197,-521.27 1197,-513.6 1197,-513.6 1197,-509.77 1200.83,-505.93 1204.67,-505.93 1204.67,-505.93 1363.33,-505.93 1363.33,-505.93 1367.17,-505.93 1371,-509.77 1371,-513.6 1371,-513.6 1371,-521.27 1371,-521.27 1371,-525.1 1367.17,-528.93 1363.33,-528.93"/>
<text text-anchor="middle" x="1284" y="-513.73" font-family="Arial" font-size="14.00" fill="#cfffac">cluster/cluster.constants.js</text>
</g>
<!-- cluster/cluster&#45;core.module.js&#45;&gt;cluster/cluster.constants.js -->
<g id="edge1" class="edge">
<title>cluster/cluster&#45;core.module.js&#45;&gt;cluster/cluster.constants.js</title>
<path fill="none" stroke="#757575" d="M434.2,-465.94C459.88,-472.53 493.61,-480.29 524,-484.43 760.58,-516.68 1042.11,-519.82 1186.72,-518.9"/>
<polygon fill="#757575" stroke="#757575" points="1186.91,-522.4 1196.89,-518.82 1186.86,-515.4 1186.91,-522.4"/>
</g>
<!-- cluster/cluster.health.js -->
<g id="node3" class="node">
<title>cluster/cluster.health.js</title>
<path fill="none" stroke="#c6c5fe" d="M678.83,-356.93C678.83,-356.93 541.17,-356.93 541.17,-356.93 537.33,-356.93 533.5,-353.1 533.5,-349.27 533.5,-349.27 533.5,-341.6 533.5,-341.6 533.5,-337.77 537.33,-333.93 541.17,-333.93 541.17,-333.93 678.83,-333.93 678.83,-333.93 682.67,-333.93 686.5,-337.77 686.5,-341.6 686.5,-341.6 686.5,-349.27 686.5,-349.27 686.5,-353.1 682.67,-356.93 678.83,-356.93"/>
<text text-anchor="middle" x="610" y="-341.73" font-family="Arial" font-size="14.00" fill="#c6c5fe">cluster/cluster.health.js</text>
</g>
<!-- cluster/cluster&#45;core.module.js&#45;&gt;cluster/cluster.health.js -->
<g id="edge2" class="edge">
<title>cluster/cluster&#45;core.module.js&#45;&gt;cluster/cluster.health.js</title>
<path fill="none" stroke="#757575" d="M415.67,-442.77C454.49,-423.22 532.75,-383.82 576.87,-361.61"/>
<polygon fill="#757575" stroke="#757575" points="578.64,-364.64 586,-357.01 575.49,-358.38 578.64,-364.64"/>
</g>
<!-- cluster/cluster.providers.js -->
<g id="node4" class="node">
<title>cluster/cluster.providers.js</title>
<path fill="none" stroke="#c6c5fe" d="M688.33,-474.93C688.33,-474.93 531.67,-474.93 531.67,-474.93 527.83,-474.93 524,-471.1 524,-467.27 524,-467.27 524,-459.6 524,-459.6 524,-455.77 527.83,-451.93 531.67,-451.93 531.67,-451.93 688.33,-451.93 688.33,-451.93 692.17,-451.93 696,-455.77 696,-459.6 696,-459.6 696,-467.27 696,-467.27 696,-471.1 692.17,-474.93 688.33,-474.93"/>
<text text-anchor="middle" x="610" y="-459.73" font-family="Arial" font-size="14.00" fill="#c6c5fe">cluster/cluster.providers.js</text>
</g>
<!-- cluster/cluster&#45;core.module.js&#45;&gt;cluster/cluster.providers.js -->
<g id="edge3" class="edge">
<title>cluster/cluster&#45;core.module.js&#45;&gt;cluster/cluster.providers.js</title>
<path fill="none" stroke="#757575" d="M488.09,-458.41C496.55,-458.76 505.11,-459.11 513.56,-459.47"/>
<polygon fill="#757575" stroke="#757575" points="513.67,-462.97 523.81,-459.89 513.96,-455.98 513.67,-462.97"/>
</g>
<!-- cluster/cluster.service.js -->
<g id="node5" class="node">
<title>cluster/cluster.service.js</title>
<path fill="none" stroke="#c6c5fe" d="M885.33,-395.93C885.33,-395.93 741.67,-395.93 741.67,-395.93 737.83,-395.93 734,-392.1 734,-388.27 734,-388.27 734,-380.6 734,-380.6 734,-376.77 737.83,-372.93 741.67,-372.93 741.67,-372.93 885.33,-372.93 885.33,-372.93 889.17,-372.93 893,-376.77 893,-380.6 893,-380.6 893,-388.27 893,-388.27 893,-392.1 889.17,-395.93 885.33,-395.93"/>
<text text-anchor="middle" x="813.5" y="-380.73" font-family="Arial" font-size="14.00" fill="#c6c5fe">cluster/cluster.service.js</text>
</g>
<!-- cluster/cluster&#45;core.module.js&#45;&gt;cluster/cluster.service.js -->
<g id="edge4" class="edge">
<title>cluster/cluster&#45;core.module.js&#45;&gt;cluster/cluster.service.js</title>
<path fill="none" stroke="#757575" d="M461.85,-442.87C536.44,-430.44 654.84,-410.71 733.1,-397.67"/>
<polygon fill="#757575" stroke="#757575" points="734.1,-401.05 743.39,-395.95 732.95,-394.14 734.1,-401.05"/>
</g>
<!-- cluster/common/index.js -->
<g id="node6" class="node">
<title>cluster/common/index.js</title>
<path fill="none" stroke="#c6c5fe" d="M887.33,-568.93C887.33,-568.93 739.67,-568.93 739.67,-568.93 735.83,-568.93 732,-565.1 732,-561.27 732,-561.27 732,-553.6 732,-553.6 732,-549.77 735.83,-545.93 739.67,-545.93 739.67,-545.93 887.33,-545.93 887.33,-545.93 891.17,-545.93 895,-549.77 895,-553.6 895,-553.6 895,-561.27 895,-561.27 895,-565.1 891.17,-568.93 887.33,-568.93"/>
<text text-anchor="middle" x="813.5" y="-553.73" font-family="Arial" font-size="14.00" fill="#c6c5fe">cluster/common/index.js</text>
</g>
<!-- cluster/cluster&#45;core.module.js&#45;&gt;cluster/common/index.js -->
<g id="edge5" class="edge">
<title>cluster/cluster&#45;core.module.js&#45;&gt;cluster/common/index.js</title>
<path fill="none" stroke="#757575" d="M407.23,-466.05C430.51,-483.67 477.89,-516.67 524,-531.43 588.05,-551.94 663.9,-558.11 721.75,-559.34"/>
<polygon fill="#757575" stroke="#757575" points="721.91,-562.84 731.97,-559.51 722.03,-555.84 721.91,-562.84"/>
</g>
<!-- cluster/cluster.health.js&#45;&gt;cluster/cluster.service.js -->
<g id="edge6" class="edge">
<title>cluster/cluster.health.js&#45;&gt;cluster/cluster.service.js</title>
<path fill="none" stroke="#757575" d="M670.64,-356.98C693.38,-361.38 719.5,-366.43 743.08,-371"/>
<polygon fill="#757575" stroke="#757575" points="742.53,-374.46 753.01,-372.92 743.86,-367.58 742.53,-374.46"/>
</g>
<!-- utils/index.js -->
<g id="node7" class="node">
<title>utils/index.js</title>
<path fill="none" stroke="#c6c5fe" d="M1083.33,-336.93C1083.33,-336.93 1008.67,-336.93 1008.67,-336.93 1004.83,-336.93 1001,-333.1 1001,-329.27 1001,-329.27 1001,-321.6 1001,-321.6 1001,-317.77 1004.83,-313.93 1008.67,-313.93 1008.67,-313.93 1083.33,-313.93 1083.33,-313.93 1087.17,-313.93 1091,-317.77 1091,-321.6 1091,-321.6 1091,-329.27 1091,-329.27 1091,-333.1 1087.17,-336.93 1083.33,-336.93"/>
<text text-anchor="middle" x="1046" y="-321.73" font-family="Arial" font-size="14.00" fill="#c6c5fe">utils/index.js</text>
</g>
<!-- cluster/cluster.health.js&#45;&gt;utils/index.js -->
<g id="edge7" class="edge">
<title>cluster/cluster.health.js&#45;&gt;utils/index.js</title>
<path fill="none" stroke="#757575" d="M686.6,-341.95C773.35,-337.95 913.5,-331.49 990.31,-327.95"/>
<polygon fill="#757575" stroke="#757575" points="990.89,-331.43 1000.72,-327.47 990.57,-324.44 990.89,-331.43"/>
</g>
<!-- cluster/cluster.providers.js&#45;&gt;cluster/cluster.constants.js -->
<g id="edge9" class="edge">
<title>cluster/cluster.providers.js&#45;&gt;cluster/cluster.constants.js</title>
<path fill="none" stroke="#757575" d="M696.36,-468.54C804.57,-475.26 996.81,-488.05 1161,-503.43 1169.31,-504.21 1177.94,-505.08 1186.59,-505.99"/>
<polygon fill="#757575" stroke="#757575" points="1186.42,-509.49 1196.74,-507.08 1187.17,-502.53 1186.42,-509.49"/>
</g>
<!-- cluster/cluster.providers.js&#45;&gt;cluster/cluster.service.js -->
<g id="edge10" class="edge">
<title>cluster/cluster.providers.js&#45;&gt;cluster/cluster.service.js</title>
<path fill="none" stroke="#757575" d="M659.34,-451.81C671.63,-448.01 684.58,-443.24 696,-437.43 713.83,-428.37 714.24,-419.63 732,-410.43 740.14,-406.22 749.1,-402.51 757.99,-399.32"/>
<polygon fill="#757575" stroke="#757575" points="759.23,-402.59 767.57,-396.05 756.97,-395.96 759.23,-402.59"/>
</g>
<!-- cluster/cluster.providers.js&#45;&gt;cluster/common/index.js -->
<g id="edge11" class="edge">
<title>cluster/cluster.providers.js&#45;&gt;cluster/common/index.js</title>
<path fill="none" stroke="#757575" d="M635.71,-474.96C671.51,-491.66 737.94,-522.65 778.39,-541.52"/>
<polygon fill="#757575" stroke="#757575" points="777.05,-544.76 787.59,-545.81 780.01,-538.41 777.05,-544.76"/>
</g>
<!-- errors/index.js -->
<g id="node9" class="node">
<title>errors/index.js</title>
<path fill="none" stroke="#c6c5fe" d="M1326.83,-336.93C1326.83,-336.93 1241.17,-336.93 1241.17,-336.93 1237.33,-336.93 1233.5,-333.1 1233.5,-329.27 1233.5,-329.27 1233.5,-321.6 1233.5,-321.6 1233.5,-317.77 1237.33,-313.93 1241.17,-313.93 1241.17,-313.93 1326.83,-313.93 1326.83,-313.93 1330.67,-313.93 1334.5,-317.77 1334.5,-321.6 1334.5,-321.6 1334.5,-329.27 1334.5,-329.27 1334.5,-333.1 1330.67,-336.93 1326.83,-336.93"/>
<text text-anchor="middle" x="1284" y="-321.73" font-family="Arial" font-size="14.00" fill="#c6c5fe">errors/index.js</text>
</g>
<!-- cluster/cluster.providers.js&#45;&gt;errors/index.js -->
<g id="edge12" class="edge">
<title>cluster/cluster.providers.js&#45;&gt;errors/index.js</title>
<path fill="none" stroke="#757575" d="M696.06,-455.19C805.17,-443.33 999.61,-417.84 1161,-373.43 1191.47,-365.05 1224.79,-351.64 1248.89,-341.12"/>
<polygon fill="#757575" stroke="#757575" points="1250.57,-344.2 1258.3,-336.96 1247.74,-337.8 1250.57,-344.2"/>
</g>
<!-- cluster/cluster.service.js&#45;&gt;cluster/cluster.constants.js -->
<g id="edge13" class="edge">
<title>cluster/cluster.service.js&#45;&gt;cluster/cluster.constants.js</title>
<path fill="none" stroke="#757575" d="M878.64,-395.97C948.89,-409.39 1064.42,-433.82 1161,-465.43 1191.91,-475.55 1225.85,-490.33 1250.07,-501.55"/>
<polygon fill="#757575" stroke="#757575" points="1248.63,-504.74 1259.17,-505.81 1251.6,-498.4 1248.63,-504.74"/>
</g>
<!-- cluster/cluster.service.js&#45;&gt;utils/index.js -->
<g id="edge15" class="edge">
<title>cluster/cluster.service.js&#45;&gt;utils/index.js</title>
<path fill="none" stroke="#757575" d="M853.2,-372.93C875.8,-366.34 904.93,-358.09 931,-351.43 950.42,-346.47 971.82,-341.47 990.79,-337.19"/>
<polygon fill="#757575" stroke="#757575" points="991.76,-340.56 1000.75,-334.97 990.23,-333.73 991.76,-340.56"/>
</g>
<!-- cluster/cluster.service.js&#45;&gt;errors/index.js -->
<g id="edge14" class="edge">
<title>cluster/cluster.service.js&#45;&gt;errors/index.js</title>
<path fill="none" stroke="#757575" d="M893.11,-377.2C963.45,-370.39 1069.31,-359.34 1161,-346.43 1181.3,-343.58 1203.41,-339.93 1223.16,-336.49"/>
<polygon fill="#757575" stroke="#757575" points="1224.01,-339.89 1233.25,-334.71 1222.79,-333 1224.01,-339.89"/>
</g>
<!-- cluster/common/cluster&#45;utils.js -->
<g id="node10" class="node">
<title>cluster/common/cluster&#45;utils.js</title>
<path fill="none" stroke="#cfffac" d="M1137.83,-609.93C1137.83,-609.93 954.17,-609.93 954.17,-609.93 950.33,-609.93 946.5,-606.1 946.5,-602.27 946.5,-602.27 946.5,-594.6 946.5,-594.6 946.5,-590.77 950.33,-586.93 954.17,-586.93 954.17,-586.93 1137.83,-586.93 1137.83,-586.93 1141.67,-586.93 1145.5,-590.77 1145.5,-594.6 1145.5,-594.6 1145.5,-602.27 1145.5,-602.27 1145.5,-606.1 1141.67,-609.93 1137.83,-609.93"/>
<text text-anchor="middle" x="1046" y="-594.73" font-family="Arial" font-size="14.00" fill="#cfffac">cluster/common/cluster&#45;utils.js</text>
</g>
<!-- cluster/common/index.js&#45;&gt;cluster/common/cluster&#45;utils.js -->
<g id="edge17" class="edge">
<title>cluster/common/index.js&#45;&gt;cluster/common/cluster&#45;utils.js</title>
<path fill="none" stroke="#757575" d="M878.28,-568.99C895.4,-572.07 913.9,-575.39 931,-578.43 943.25,-580.61 956.25,-582.91 968.92,-585.14"/>
<polygon fill="#757575" stroke="#757575" points="968.53,-588.62 978.98,-586.9 969.74,-581.73 968.53,-588.62"/>
</g>
<!-- cluster/common/cluster.decorator.js -->
<g id="node11" class="node">
<title>cluster/common/cluster.decorator.js</title>
<path fill="none" stroke="#c6c5fe" d="M1153.33,-568.93C1153.33,-568.93 938.67,-568.93 938.67,-568.93 934.83,-568.93 931,-565.1 931,-561.27 931,-561.27 931,-553.6 931,-553.6 931,-549.77 934.83,-545.93 938.67,-545.93 938.67,-545.93 1153.33,-545.93 1153.33,-545.93 1157.17,-545.93 1161,-549.77 1161,-553.6 1161,-553.6 1161,-561.27 1161,-561.27 1161,-565.1 1157.17,-568.93 1153.33,-568.93"/>
<text text-anchor="middle" x="1046" y="-553.73" font-family="Arial" font-size="14.00" fill="#c6c5fe">cluster/common/cluster.decorator.js</text>
</g>
<!-- cluster/common/index.js&#45;&gt;cluster/common/cluster.decorator.js -->
<g id="edge18" class="edge">
<title>cluster/common/index.js&#45;&gt;cluster/common/cluster.decorator.js</title>
<path fill="none" stroke="#757575" d="M895.12,-557.43C903.42,-557.43 911.99,-557.43 920.63,-557.43"/>
<polygon fill="#757575" stroke="#757575" points="920.79,-560.93 930.79,-557.43 920.79,-553.93 920.79,-560.93"/>
</g>
<!-- utils/index.js&#45;&gt;errors/index.js -->
<g id="edge49" class="edge">
<title>utils/index.js&#45;&gt;errors/index.js</title>
<path fill="none" stroke="#757575" d="M1091.11,-325.43C1128.38,-325.43 1182.1,-325.43 1223.22,-325.43"/>
<polygon fill="#757575" stroke="#757575" points="1223.39,-328.93 1233.39,-325.43 1223.39,-321.93 1223.39,-328.93"/>
</g>
<!-- cluster/cluster.module.js -->
<g id="node8" class="node">
<title>cluster/cluster.module.js</title>
<path fill="none" stroke="#c6c5fe" d="M251.33,-446.93C251.33,-446.93 105.67,-446.93 105.67,-446.93 101.83,-446.93 98,-443.1 98,-439.27 98,-439.27 98,-431.6 98,-431.6 98,-427.77 101.83,-423.93 105.67,-423.93 105.67,-423.93 251.33,-423.93 251.33,-423.93 255.17,-423.93 259,-427.77 259,-431.6 259,-431.6 259,-439.27 259,-439.27 259,-443.1 255.17,-446.93 251.33,-446.93"/>
<text text-anchor="middle" x="178.5" y="-431.73" font-family="Arial" font-size="14.00" fill="#c6c5fe">cluster/cluster.module.js</text>
</g>
<!-- cluster/cluster.module.js&#45;&gt;cluster/cluster&#45;core.module.js -->
<g id="edge8" class="edge">
<title>cluster/cluster.module.js&#45;&gt;cluster/cluster&#45;core.module.js</title>
<path fill="none" stroke="#757575" d="M259.27,-442.62C267.57,-443.36 276.1,-444.13 284.64,-444.9"/>
<polygon fill="#757575" stroke="#757575" points="284.37,-448.39 294.64,-445.8 285,-441.42 284.37,-448.39"/>
</g>
<!-- errors/messages.constant.js -->
<g id="node12" class="node">
<title>errors/messages.constant.js</title>
<path fill="none" stroke="#cfffac" d="M1585.33,-356.93C1585.33,-356.93 1414.67,-356.93 1414.67,-356.93 1410.83,-356.93 1407,-353.1 1407,-349.27 1407,-349.27 1407,-341.6 1407,-341.6 1407,-337.77 1410.83,-333.93 1414.67,-333.93 1414.67,-333.93 1585.33,-333.93 1585.33,-333.93 1589.17,-333.93 1593,-337.77 1593,-341.6 1593,-341.6 1593,-349.27 1593,-349.27 1593,-353.1 1589.17,-356.93 1585.33,-356.93"/>
<text text-anchor="middle" x="1500" y="-341.73" font-family="Arial" font-size="14.00" fill="#cfffac">errors/messages.constant.js</text>
</g>
<!-- errors/index.js&#45;&gt;errors/messages.constant.js -->
<g id="edge19" class="edge">
<title>errors/index.js&#45;&gt;errors/messages.constant.js</title>
<path fill="none" stroke="#757575" d="M1334.63,-330.07C1353.18,-331.81 1374.99,-333.84 1396.56,-335.86"/>
<polygon fill="#757575" stroke="#757575" points="1396.49,-339.37 1406.77,-336.81 1397.14,-332.4 1396.49,-339.37"/>
</g>
<!-- errors/redis.error.js -->
<g id="node13" class="node">
<title>errors/redis.error.js</title>
<path fill="none" stroke="#cfffac" d="M1557.33,-315.93C1557.33,-315.93 1442.67,-315.93 1442.67,-315.93 1438.83,-315.93 1435,-312.1 1435,-308.27 1435,-308.27 1435,-300.6 1435,-300.6 1435,-296.77 1438.83,-292.93 1442.67,-292.93 1442.67,-292.93 1557.33,-292.93 1557.33,-292.93 1561.17,-292.93 1565,-296.77 1565,-300.6 1565,-300.6 1565,-308.27 1565,-308.27 1565,-312.1 1561.17,-315.93 1557.33,-315.93"/>
<text text-anchor="middle" x="1500" y="-300.73" font-family="Arial" font-size="14.00" fill="#cfffac">errors/redis.error.js</text>
</g>
<!-- errors/index.js&#45;&gt;errors/redis.error.js -->
<g id="edge20" class="edge">
<title>errors/index.js&#45;&gt;errors/redis.error.js</title>
<path fill="none" stroke="#757575" d="M1334.63,-320.56C1361.25,-317.95 1394.6,-314.68 1424.28,-311.77"/>
<polygon fill="#757575" stroke="#757575" points="1425,-315.21 1434.61,-310.75 1424.32,-308.25 1425,-315.21"/>
</g>
<!-- cluster/common/cluster.decorator.js&#45;&gt;cluster/cluster.constants.js -->
<g id="edge16" class="edge">
<title>cluster/common/cluster.decorator.js&#45;&gt;cluster/cluster.constants.js</title>
<path fill="none" stroke="#757575" d="M1114.94,-545.92C1143.08,-541.15 1175.88,-535.59 1205,-530.65"/>
<polygon fill="#757575" stroke="#757575" points="1205.85,-534.06 1215.13,-528.94 1204.68,-527.16 1205.85,-534.06"/>
</g>
<!-- index.js -->
<g id="node14" class="node">
<title>index.js</title>
<path fill="none" stroke="#c6c5fe" d="M54.33,-335.93C54.33,-335.93 7.67,-335.93 7.67,-335.93 3.83,-335.93 0,-332.1 0,-328.27 0,-328.27 0,-320.6 0,-320.6 0,-316.77 3.83,-312.93 7.67,-312.93 7.67,-312.93 54.33,-312.93 54.33,-312.93 58.17,-312.93 62,-316.77 62,-320.6 62,-320.6 62,-328.27 62,-328.27 62,-332.1 58.17,-335.93 54.33,-335.93"/>
<text text-anchor="middle" x="31" y="-320.73" font-family="Arial" font-size="14.00" fill="#c6c5fe">index.js</text>
</g>
<!-- index.js&#45;&gt;cluster/cluster.constants.js -->
<g id="edge21" class="edge">
<title>index.js&#45;&gt;cluster/cluster.constants.js</title>
<path fill="none" stroke="#757575" d="M32.94,-336.17C36.12,-368.34 49.18,-459.05 98,-511.43 194.63,-615.11 248.78,-638.43 390.5,-638.43 390.5,-638.43 390.5,-638.43 814.5,-638.43 968.73,-638.43 1017.52,-676 1161,-619.43 1205.57,-601.86 1245.78,-561.24 1267.05,-536.89"/>
<polygon fill="#757575" stroke="#757575" points="1269.94,-538.91 1273.77,-529.03 1264.61,-534.36 1269.94,-538.91"/>
</g>
<!-- index.js&#45;&gt;cluster/cluster.health.js -->
<g id="edge22" class="edge">
<title>index.js&#45;&gt;cluster/cluster.health.js</title>
<path fill="none" stroke="#757575" d="M62.2,-327.57C73.43,-328.63 86.29,-329.73 98,-330.43 247.25,-339.4 421.35,-343.06 522.97,-344.52"/>
<polygon fill="#757575" stroke="#757575" points="523.13,-348.02 533.18,-344.66 523.23,-341.02 523.13,-348.02"/>
</g>
<!-- index.js&#45;&gt;cluster/cluster.service.js -->
<g id="edge24" class="edge">
<title>index.js&#45;&gt;cluster/cluster.service.js</title>
<path fill="none" stroke="#757575" d="M59.45,-335.96C71.13,-340.34 85.02,-344.89 98,-347.43 319.85,-390.91 587.41,-391.27 723.54,-387.84"/>
<polygon fill="#757575" stroke="#757575" points="724,-391.33 733.91,-387.57 723.82,-384.34 724,-391.33"/>
</g>
<!-- index.js&#45;&gt;cluster/common/index.js -->
<g id="edge25" class="edge">
<title>index.js&#45;&gt;cluster/common/index.js</title>
<path fill="none" stroke="#757575" d="M34.33,-336.04C40.16,-361.93 57.87,-424.57 98,-456.43 284.47,-604.5 587.9,-588.38 731.83,-570.25"/>
<polygon fill="#757575" stroke="#757575" points="732.45,-573.7 741.91,-568.94 731.55,-566.76 732.45,-573.7"/>
</g>
<!-- index.js&#45;&gt;cluster/cluster.module.js -->
<g id="edge23" class="edge">
<title>index.js&#45;&gt;cluster/cluster.module.js</title>
<path fill="none" stroke="#757575" d="M39.74,-335.96C50.97,-351.98 73.18,-381.07 98,-399.43 108.97,-407.55 122.05,-414.41 134.41,-419.89"/>
<polygon fill="#757575" stroke="#757575" points="133.1,-423.14 143.68,-423.82 135.83,-416.7 133.1,-423.14"/>
</g>
<!-- redis/common/index.js -->
<g id="node15" class="node">
<title>redis/common/index.js</title>
<path fill="none" stroke="#c6c5fe" d="M881.83,-104.93C881.83,-104.93 745.17,-104.93 745.17,-104.93 741.33,-104.93 737.5,-101.1 737.5,-97.27 737.5,-97.27 737.5,-89.6 737.5,-89.6 737.5,-85.77 741.33,-81.93 745.17,-81.93 745.17,-81.93 881.83,-81.93 881.83,-81.93 885.67,-81.93 889.5,-85.77 889.5,-89.6 889.5,-89.6 889.5,-97.27 889.5,-97.27 889.5,-101.1 885.67,-104.93 881.83,-104.93"/>
<text text-anchor="middle" x="813.5" y="-89.73" font-family="Arial" font-size="14.00" fill="#c6c5fe">redis/common/index.js</text>
</g>
<!-- index.js&#45;&gt;redis/common/index.js -->
<g id="edge26" class="edge">
<title>index.js&#45;&gt;redis/common/index.js</title>
<path fill="none" stroke="#757575" d="M34.37,-312.92C40.28,-287.26 58.13,-225.13 98,-193.43 284.81,-44.89 589.39,-62.08 732.91,-80.57"/>
<polygon fill="#757575" stroke="#757575" points="732.59,-84.06 742.96,-81.9 733.51,-77.12 732.59,-84.06"/>
</g>
<!-- redis/redis.constants.js -->
<g id="node16" class="node">
<title>redis/redis.constants.js</title>
<path fill="none" stroke="#cfffac" d="M1353.33,-144.93C1353.33,-144.93 1214.67,-144.93 1214.67,-144.93 1210.83,-144.93 1207,-141.1 1207,-137.27 1207,-137.27 1207,-129.6 1207,-129.6 1207,-125.77 1210.83,-121.93 1214.67,-121.93 1214.67,-121.93 1353.33,-121.93 1353.33,-121.93 1357.17,-121.93 1361,-125.77 1361,-129.6 1361,-129.6 1361,-137.27 1361,-137.27 1361,-141.1 1357.17,-144.93 1353.33,-144.93"/>
<text text-anchor="middle" x="1284" y="-129.73" font-family="Arial" font-size="14.00" fill="#cfffac">redis/redis.constants.js</text>
</g>
<!-- index.js&#45;&gt;redis/redis.constants.js -->
<g id="edge27" class="edge">
<title>index.js&#45;&gt;redis/redis.constants.js</title>
<path fill="none" stroke="#757575" d="M31.97,-312.62C32.53,-276.48 39.23,-166.21 98,-106.43 193.73,-9.06 253.95,-12.43 390.5,-12.43 390.5,-12.43 390.5,-12.43 814.5,-12.43 968.73,-12.43 1017.52,25.14 1161,-31.43 1205.57,-49.01 1245.78,-89.63 1267.05,-113.97"/>
<polygon fill="#757575" stroke="#757575" points="1264.61,-116.5 1273.77,-121.84 1269.94,-111.96 1264.61,-116.5"/>
</g>
<!-- redis/redis.health.js -->
<g id="node17" class="node">
<title>redis/redis.health.js</title>
<path fill="none" stroke="#c6c5fe" d="M668.83,-315.93C668.83,-315.93 551.17,-315.93 551.17,-315.93 547.33,-315.93 543.5,-312.1 543.5,-308.27 543.5,-308.27 543.5,-300.6 543.5,-300.6 543.5,-296.77 547.33,-292.93 551.17,-292.93 551.17,-292.93 668.83,-292.93 668.83,-292.93 672.67,-292.93 676.5,-296.77 676.5,-300.6 676.5,-300.6 676.5,-308.27 676.5,-308.27 676.5,-312.1 672.67,-315.93 668.83,-315.93"/>
<text text-anchor="middle" x="610" y="-300.73" font-family="Arial" font-size="14.00" fill="#c6c5fe">redis/redis.health.js</text>
</g>
<!-- index.js&#45;&gt;redis/redis.health.js -->
<g id="edge28" class="edge">
<title>index.js&#45;&gt;redis/redis.health.js</title>
<path fill="none" stroke="#757575" d="M62.21,-323.39C149.58,-320.36 404.49,-311.52 533.03,-307.07"/>
<polygon fill="#757575" stroke="#757575" points="533.31,-310.56 543.19,-306.71 533.07,-303.56 533.31,-310.56"/>
</g>
<!-- redis/redis.module.js -->
<g id="node18" class="node">
<title>redis/redis.module.js</title>
<path fill="none" stroke="#c6c5fe" d="M241.33,-225.93C241.33,-225.93 115.67,-225.93 115.67,-225.93 111.83,-225.93 108,-222.1 108,-218.27 108,-218.27 108,-210.6 108,-210.6 108,-206.77 111.83,-202.93 115.67,-202.93 115.67,-202.93 241.33,-202.93 241.33,-202.93 245.17,-202.93 249,-206.77 249,-210.6 249,-210.6 249,-218.27 249,-218.27 249,-222.1 245.17,-225.93 241.33,-225.93"/>
<text text-anchor="middle" x="178.5" y="-210.73" font-family="Arial" font-size="14.00" fill="#c6c5fe">redis/redis.module.js</text>
</g>
<!-- index.js&#45;&gt;redis/redis.module.js -->
<g id="edge29" class="edge">
<title>index.js&#45;&gt;redis/redis.module.js</title>
<path fill="none" stroke="#757575" d="M39.96,-312.8C51.3,-296.95 73.45,-268.48 98,-250.43 108.99,-242.35 122.09,-235.5 134.45,-230.02"/>
<polygon fill="#757575" stroke="#757575" points="135.87,-233.22 143.71,-226.09 133.14,-226.77 135.87,-233.22"/>
</g>
<!-- redis/redis.service.js -->
<g id="node19" class="node">
<title>redis/redis.service.js</title>
<path fill="none" stroke="#c6c5fe" d="M875.33,-277.93C875.33,-277.93 751.67,-277.93 751.67,-277.93 747.83,-277.93 744,-274.1 744,-270.27 744,-270.27 744,-262.6 744,-262.6 744,-258.77 747.83,-254.93 751.67,-254.93 751.67,-254.93 875.33,-254.93 875.33,-254.93 879.17,-254.93 883,-258.77 883,-262.6 883,-262.6 883,-270.27 883,-270.27 883,-274.1 879.17,-277.93 875.33,-277.93"/>
<text text-anchor="middle" x="813.5" y="-262.73" font-family="Arial" font-size="14.00" fill="#c6c5fe">redis/redis.service.js</text>
</g>
<!-- index.js&#45;&gt;redis/redis.service.js -->
<g id="edge30" class="edge">
<title>index.js&#45;&gt;redis/redis.service.js</title>
<path fill="none" stroke="#757575" d="M62.12,-318.21C73.34,-316.09 86.21,-313.89 98,-312.43 327.95,-284.07 601.82,-272.62 733.76,-268.49"/>
<polygon fill="#757575" stroke="#757575" points="733.89,-271.99 743.78,-268.19 733.67,-265 733.89,-271.99"/>
</g>
<!-- redis/common/redis&#45;utils.js -->
<g id="node20" class="node">
<title>redis/common/redis&#45;utils.js</title>
<path fill="none" stroke="#cfffac" d="M1127.33,-104.93C1127.33,-104.93 964.67,-104.93 964.67,-104.93 960.83,-104.93 957,-101.1 957,-97.27 957,-97.27 957,-89.6 957,-89.6 957,-85.77 960.83,-81.93 964.67,-81.93 964.67,-81.93 1127.33,-81.93 1127.33,-81.93 1131.17,-81.93 1135,-85.77 1135,-89.6 1135,-89.6 1135,-97.27 1135,-97.27 1135,-101.1 1131.17,-104.93 1127.33,-104.93"/>
<text text-anchor="middle" x="1046" y="-89.73" font-family="Arial" font-size="14.00" fill="#cfffac">redis/common/redis&#45;utils.js</text>
</g>
<!-- redis/common/index.js&#45;&gt;redis/common/redis&#45;utils.js -->
<g id="edge31" class="edge">
<title>redis/common/index.js&#45;&gt;redis/common/redis&#45;utils.js</title>
<path fill="none" stroke="#757575" d="M889.66,-93.43C907.81,-93.43 927.48,-93.43 946.52,-93.43"/>
<polygon fill="#757575" stroke="#757575" points="946.71,-96.93 956.71,-93.43 946.71,-89.93 946.71,-96.93"/>
</g>
<!-- redis/common/redis.decorator.js -->
<g id="node21" class="node">
<title>redis/common/redis.decorator.js</title>
<path fill="none" stroke="#c6c5fe" d="M1142.83,-63.93C1142.83,-63.93 949.17,-63.93 949.17,-63.93 945.33,-63.93 941.5,-60.1 941.5,-56.27 941.5,-56.27 941.5,-48.6 941.5,-48.6 941.5,-44.77 945.33,-40.93 949.17,-40.93 949.17,-40.93 1142.83,-40.93 1142.83,-40.93 1146.67,-40.93 1150.5,-44.77 1150.5,-48.6 1150.5,-48.6 1150.5,-56.27 1150.5,-56.27 1150.5,-60.1 1146.67,-63.93 1142.83,-63.93"/>
<text text-anchor="middle" x="1046" y="-48.73" font-family="Arial" font-size="14.00" fill="#c6c5fe">redis/common/redis.decorator.js</text>
</g>
<!-- redis/common/index.js&#45;&gt;redis/common/redis.decorator.js -->
<g id="edge32" class="edge">
<title>redis/common/index.js&#45;&gt;redis/common/redis.decorator.js</title>
<path fill="none" stroke="#757575" d="M878.28,-81.88C895.4,-78.8 913.9,-75.47 931,-72.43 943.25,-70.25 956.25,-67.96 968.92,-65.73"/>
<polygon fill="#757575" stroke="#757575" points="969.74,-69.14 978.98,-63.96 968.53,-62.25 969.74,-69.14"/>
</g>
<!-- redis/redis.health.js&#45;&gt;utils/index.js -->
<g id="edge40" class="edge">
<title>redis/redis.health.js&#45;&gt;utils/index.js</title>
<path fill="none" stroke="#757575" d="M676.92,-307.62C762.7,-311.77 911.02,-318.95 990.68,-322.8"/>
<polygon fill="#757575" stroke="#757575" points="990.82,-326.32 1000.98,-323.3 991.16,-319.32 990.82,-326.32"/>
</g>
<!-- redis/redis.health.js&#45;&gt;redis/redis.service.js -->
<g id="edge39" class="edge">
<title>redis/redis.health.js&#45;&gt;redis/redis.service.js</title>
<path fill="none" stroke="#757575" d="M672,-292.93C693.9,-288.8 718.78,-284.11 741.45,-279.83"/>
<polygon fill="#757575" stroke="#757575" points="742.18,-283.26 751.36,-277.96 740.88,-276.38 742.18,-283.26"/>
</g>
<!-- redis/redis&#45;core.module.js -->
<g id="node22" class="node">
<title>redis/redis&#45;core.module.js</title>
<path fill="none" stroke="#c6c5fe" d="M469.83,-206.93C469.83,-206.93 313.17,-206.93 313.17,-206.93 309.33,-206.93 305.5,-203.1 305.5,-199.27 305.5,-199.27 305.5,-191.6 305.5,-191.6 305.5,-187.77 309.33,-183.93 313.17,-183.93 313.17,-183.93 469.83,-183.93 469.83,-183.93 473.67,-183.93 477.5,-187.77 477.5,-191.6 477.5,-191.6 477.5,-199.27 477.5,-199.27 477.5,-203.1 473.67,-206.93 469.83,-206.93"/>
<text text-anchor="middle" x="391.5" y="-191.73" font-family="Arial" font-size="14.00" fill="#c6c5fe">redis/redis&#45;core.module.js</text>
</g>
<!-- redis/redis.module.js&#45;&gt;redis/redis&#45;core.module.js -->
<g id="edge41" class="edge">
<title>redis/redis.module.js&#45;&gt;redis/redis&#45;core.module.js</title>
<path fill="none" stroke="#757575" d="M249.17,-208.16C263.94,-206.83 279.78,-205.4 295.31,-204"/>
<polygon fill="#757575" stroke="#757575" points="295.81,-207.47 305.46,-203.09 295.19,-200.5 295.81,-207.47"/>
</g>
<!-- redis/redis.service.js&#45;&gt;utils/index.js -->
<g id="edge48" class="edge">
<title>redis/redis.service.js&#45;&gt;utils/index.js</title>
<path fill="none" stroke="#757575" d="M853.2,-277.94C875.8,-284.52 904.93,-292.77 931,-299.43 950.42,-304.4 971.82,-309.4 990.79,-313.67"/>
<polygon fill="#757575" stroke="#757575" points="990.23,-317.13 1000.75,-315.9 991.76,-310.3 990.23,-317.13"/>
</g>
<!-- redis/redis.service.js&#45;&gt;errors/index.js -->
<g id="edge46" class="edge">
<title>redis/redis.service.js&#45;&gt;errors/index.js</title>
<path fill="none" stroke="#757575" d="M883,-273.11C952.99,-280.18 1064.75,-292.14 1161,-305.43 1181.28,-308.23 1203.38,-311.72 1223.13,-315"/>
<polygon fill="#757575" stroke="#757575" points="1222.78,-318.49 1233.23,-316.69 1223.94,-311.59 1222.78,-318.49"/>
</g>
<!-- redis/redis.service.js&#45;&gt;redis/redis.constants.js -->
<g id="edge47" class="edge">
<title>redis/redis.service.js&#45;&gt;redis/redis.constants.js</title>
<path fill="none" stroke="#757575" d="M878.64,-254.9C948.89,-241.47 1064.42,-217.04 1161,-185.43 1191.91,-175.32 1225.85,-160.53 1250.07,-149.31"/>
<polygon fill="#757575" stroke="#757575" points="1251.6,-152.46 1259.17,-145.05 1248.63,-146.12 1251.6,-152.46"/>
</g>
<!-- redis/common/redis.decorator.js&#45;&gt;redis/redis.constants.js -->
<g id="edge33" class="edge">
<title>redis/common/redis.decorator.js&#45;&gt;redis/redis.constants.js</title>
<path fill="none" stroke="#757575" d="M1129.59,-63.99C1140.28,-66.34 1150.98,-69.13 1161,-72.43 1194.95,-83.63 1231.28,-102.84 1255.38,-116.71"/>
<polygon fill="#757575" stroke="#757575" points="1253.9,-119.9 1264.3,-121.92 1257.43,-113.85 1253.9,-119.9"/>
</g>
<!-- redis/redis&#45;core.module.js&#45;&gt;redis/common/index.js -->
<g id="edge34" class="edge">
<title>redis/redis&#45;core.module.js&#45;&gt;redis/common/index.js</title>
<path fill="none" stroke="#757575" d="M407.64,-183.69C431.09,-166.23 478.25,-133.93 524,-119.43 590.03,-98.5 668.51,-92.57 726.94,-91.55"/>
<polygon fill="#757575" stroke="#757575" points="727.29,-95.05 737.24,-91.42 727.2,-88.05 727.29,-95.05"/>
</g>
<!-- redis/redis&#45;core.module.js&#45;&gt;redis/redis.constants.js -->
<g id="edge35" class="edge">
<title>redis/redis&#45;core.module.js&#45;&gt;redis/redis.constants.js</title>
<path fill="none" stroke="#757575" d="M434.2,-183.9C459.88,-177.3 493.6,-169.54 524,-165.43 766.11,-132.73 1055.24,-130.6 1196.58,-131.92"/>
<polygon fill="#757575" stroke="#757575" points="1196.88,-135.42 1206.91,-132.03 1196.95,-128.42 1196.88,-135.42"/>
</g>
<!-- redis/redis&#45;core.module.js&#45;&gt;redis/redis.health.js -->
<g id="edge36" class="edge">
<title>redis/redis&#45;core.module.js&#45;&gt;redis/redis.health.js</title>
<path fill="none" stroke="#757575" d="M415.67,-207.1C454.49,-226.64 532.75,-266.04 576.87,-288.26"/>
<polygon fill="#757575" stroke="#757575" points="575.49,-291.48 586,-292.85 578.64,-285.23 575.49,-291.48"/>
</g>
<!-- redis/redis&#45;core.module.js&#45;&gt;redis/redis.service.js -->
<g id="edge38" class="edge">
<title>redis/redis&#45;core.module.js&#45;&gt;redis/redis.service.js</title>
<path fill="none" stroke="#757575" d="M460.92,-207C535.77,-219.65 655.56,-239.9 734.14,-253.19"/>
<polygon fill="#757575" stroke="#757575" points="734.02,-256.72 744.46,-254.93 735.19,-249.81 734.02,-256.72"/>
</g>
<!-- redis/redis.providers.js -->
<g id="node23" class="node">
<title>redis/redis.providers.js</title>
<path fill="none" stroke="#c6c5fe" d="M678.33,-197.93C678.33,-197.93 541.67,-197.93 541.67,-197.93 537.83,-197.93 534,-194.1 534,-190.27 534,-190.27 534,-182.6 534,-182.6 534,-178.77 537.83,-174.93 541.67,-174.93 541.67,-174.93 678.33,-174.93 678.33,-174.93 682.17,-174.93 686,-178.77 686,-182.6 686,-182.6 686,-190.27 686,-190.27 686,-194.1 682.17,-197.93 678.33,-197.93"/>
<text text-anchor="middle" x="610" y="-182.73" font-family="Arial" font-size="14.00" fill="#c6c5fe">redis/redis.providers.js</text>
</g>
<!-- redis/redis&#45;core.module.js&#45;&gt;redis/redis.providers.js -->
<g id="edge37" class="edge">
<title>redis/redis&#45;core.module.js&#45;&gt;redis/redis.providers.js</title>
<path fill="none" stroke="#757575" d="M477.76,-191.89C492.75,-191.27 508.37,-190.62 523.38,-189.99"/>
<polygon fill="#757575" stroke="#757575" points="523.81,-193.48 533.66,-189.57 523.52,-186.48 523.81,-193.48"/>
</g>
<!-- redis/redis.providers.js&#45;&gt;errors/index.js -->
<g id="edge42" class="edge">
<title>redis/redis.providers.js&#45;&gt;errors/index.js</title>
<path fill="none" stroke="#757575" d="M686.05,-192.75C793.08,-203.04 994.98,-227.18 1161,-274.43 1192.38,-283.37 1226.52,-298.1 1250.69,-309.44"/>
<polygon fill="#757575" stroke="#757575" points="1249.22,-312.62 1259.75,-313.76 1252.23,-306.3 1249.22,-312.62"/>
</g>
<!-- redis/redis.providers.js&#45;&gt;redis/common/index.js -->
<g id="edge43" class="edge">
<title>redis/redis.providers.js&#45;&gt;redis/common/index.js</title>
<path fill="none" stroke="#757575" d="M636.11,-174.84C671.96,-158.3 737.9,-127.86 778.22,-109.26"/>
<polygon fill="#757575" stroke="#757575" points="779.78,-112.39 787.39,-105.02 776.84,-106.04 779.78,-112.39"/>
</g>
<!-- redis/redis.providers.js&#45;&gt;redis/redis.constants.js -->
<g id="edge44" class="edge">
<title>redis/redis.providers.js&#45;&gt;redis/redis.constants.js</title>
<path fill="none" stroke="#757575" d="M686.26,-182.14C792.27,-175.85 991.58,-163.15 1161,-147.43 1172.61,-146.36 1184.83,-145.1 1196.86,-143.79"/>
<polygon fill="#757575" stroke="#757575" points="1197.35,-147.26 1206.91,-142.68 1196.59,-140.3 1197.35,-147.26"/>
</g>
<!-- redis/redis.providers.js&#45;&gt;redis/redis.service.js -->
<g id="edge45" class="edge">
<title>redis/redis.providers.js&#45;&gt;redis/redis.service.js</title>
<path fill="none" stroke="#757575" d="M659.86,-198.06C672.01,-201.84 684.77,-206.6 696,-212.43 713.99,-221.77 714.08,-230.95 732,-240.43 740.01,-244.67 748.83,-248.38 757.61,-251.56"/>
<polygon fill="#757575" stroke="#757575" points="756.49,-254.87 767.08,-254.81 758.76,-248.25 756.49,-254.87"/>
</g>
</g>
</svg>
