<?xml version="1.0" encoding="UTF-8" standalone="no"?>
<!DOCTYPE svg PUBLIC "-//W3C//DTD SVG 1.1//EN"
 "http://www.w3.org/Graphics/SVG/1.1/DTD/svg11.dtd">
<!-- Generated by graphviz version 2.43.0 (0)
 -->
<!-- Title: G Pages: 1 -->
<svg width="1846pt" height="903pt"
 viewBox="0.00 0.00 1846.20 902.65" xmlns="http://www.w3.org/2000/svg" xmlns:xlink="http://www.w3.org/1999/xlink">
<g id="graph0" class="graph" transform="scale(1 1) rotate(0) translate(21.6 881.05)">
<title>G</title>
<polygon fill="#111111" stroke="transparent" points="-21.6,21.6 -21.6,-881.05 1824.6,-881.05 1824.6,21.6 -21.6,21.6"/>
<!-- dist/cluster/cluster&#45;logger.js -->
<g id="node1" class="node">
<title>dist/cluster/cluster&#45;logger.js</title>
<path fill="none" stroke="#c6c5fe" d="M1330.83,-165.95C1330.83,-165.95 1167.17,-165.95 1167.17,-165.95 1163.33,-165.95 1159.5,-162.12 1159.5,-158.28 1159.5,-158.28 1159.5,-150.62 1159.5,-150.62 1159.5,-146.78 1163.33,-142.95 1167.17,-142.95 1167.17,-142.95 1330.83,-142.95 1330.83,-142.95 1334.67,-142.95 1338.5,-146.78 1338.5,-150.62 1338.5,-150.62 1338.5,-158.28 1338.5,-158.28 1338.5,-162.12 1334.67,-165.95 1330.83,-165.95"/>
<text text-anchor="middle" x="1249" y="-150.75" font-family="Arial" font-size="14.00" fill="#c6c5fe">dist/cluster/cluster&#45;logger.js</text>
</g>
<!-- dist/cluster/cluster.constants.js -->
<g id="node2" class="node">
<title>dist/cluster/cluster.constants.js</title>
<path fill="none" stroke="#cfffac" d="M1606.33,-165.95C1606.33,-165.95 1422.67,-165.95 1422.67,-165.95 1418.83,-165.95 1415,-162.12 1415,-158.28 1415,-158.28 1415,-150.62 1415,-150.62 1415,-146.78 1418.83,-142.95 1422.67,-142.95 1422.67,-142.95 1606.33,-142.95 1606.33,-142.95 1610.17,-142.95 1614,-146.78 1614,-150.62 1614,-150.62 1614,-158.28 1614,-158.28 1614,-162.12 1610.17,-165.95 1606.33,-165.95"/>
<text text-anchor="middle" x="1514.5" y="-150.75" font-family="Arial" font-size="14.00" fill="#cfffac">dist/cluster/cluster.constants.js</text>
</g>
<!-- dist/cluster/cluster&#45;logger.js&#45;&gt;dist/cluster/cluster.constants.js -->
<g id="edge1" class="edge">
<title>dist/cluster/cluster&#45;logger.js&#45;&gt;dist/cluster/cluster.constants.js</title>
<path fill="none" stroke="#757575" d="M1338.84,-154.45C1359.87,-154.45 1382.53,-154.45 1404.34,-154.45"/>
<polygon fill="#757575" stroke="#757575" points="1404.62,-157.95 1414.62,-154.45 1404.62,-150.95 1404.62,-157.95"/>
</g>
<!-- dist/cluster/cluster&#45;manager.js -->
<g id="node3" class="node">
<title>dist/cluster/cluster&#45;manager.js</title>
<path fill="none" stroke="#c6c5fe" d="M775.83,-285.95C775.83,-285.95 595.17,-285.95 595.17,-285.95 591.33,-285.95 587.5,-282.12 587.5,-278.28 587.5,-278.28 587.5,-270.62 587.5,-270.62 587.5,-266.78 591.33,-262.95 595.17,-262.95 595.17,-262.95 775.83,-262.95 775.83,-262.95 779.67,-262.95 783.5,-266.78 783.5,-270.62 783.5,-270.62 783.5,-278.28 783.5,-278.28 783.5,-282.12 779.67,-285.95 775.83,-285.95"/>
<text text-anchor="middle" x="685.5" y="-270.75" font-family="Arial" font-size="14.00" fill="#c6c5fe">dist/cluster/cluster&#45;manager.js</text>
</g>
<!-- dist/cluster/cluster&#45;manager.js&#45;&gt;dist/cluster/cluster.constants.js -->
<g id="edge2" class="edge">
<title>dist/cluster/cluster&#45;manager.js&#45;&gt;dist/cluster/cluster.constants.js</title>
<path fill="none" stroke="#757575" d="M783.59,-280.97C919.83,-287.15 1174.02,-287.74 1379,-225.45 1419.45,-213.16 1461.92,-188.47 1488.06,-171.69"/>
<polygon fill="#757575" stroke="#757575" points="1490.13,-174.52 1496.59,-166.13 1486.3,-168.66 1490.13,-174.52"/>
</g>
<!-- dist/errors/index.js -->
<g id="node4" class="node">
<title>dist/errors/index.js</title>
<path fill="none" stroke="#c6c5fe" d="M1011.33,-364.95C1011.33,-364.95 900.67,-364.95 900.67,-364.95 896.83,-364.95 893,-361.12 893,-357.28 893,-357.28 893,-349.62 893,-349.62 893,-345.78 896.83,-341.95 900.67,-341.95 900.67,-341.95 1011.33,-341.95 1011.33,-341.95 1015.17,-341.95 1019,-345.78 1019,-349.62 1019,-349.62 1019,-357.28 1019,-357.28 1019,-361.12 1015.17,-364.95 1011.33,-364.95"/>
<text text-anchor="middle" x="956" y="-349.75" font-family="Arial" font-size="14.00" fill="#c6c5fe">dist/errors/index.js</text>
</g>
<!-- dist/cluster/cluster&#45;manager.js&#45;&gt;dist/errors/index.js -->
<g id="edge3" class="edge">
<title>dist/cluster/cluster&#45;manager.js&#45;&gt;dist/errors/index.js</title>
<path fill="none" stroke="#757575" d="M751.86,-285.99C765.8,-289.66 780.18,-294.39 793,-300.45 811.08,-309 810.77,-319.23 829,-327.45 845.75,-335 864.75,-340.38 882.82,-344.21"/>
<polygon fill="#757575" stroke="#757575" points="882.25,-347.67 892.74,-346.18 883.61,-340.8 882.25,-347.67"/>
</g>
<!-- dist/utils/index.js -->
<g id="node5" class="node">
<title>dist/utils/index.js</title>
<path fill="none" stroke="#c6c5fe" d="M1298.83,-522.95C1298.83,-522.95 1199.17,-522.95 1199.17,-522.95 1195.33,-522.95 1191.5,-519.12 1191.5,-515.28 1191.5,-515.28 1191.5,-507.62 1191.5,-507.62 1191.5,-503.78 1195.33,-499.95 1199.17,-499.95 1199.17,-499.95 1298.83,-499.95 1298.83,-499.95 1302.67,-499.95 1306.5,-503.78 1306.5,-507.62 1306.5,-507.62 1306.5,-515.28 1306.5,-515.28 1306.5,-519.12 1302.67,-522.95 1298.83,-522.95"/>
<text text-anchor="middle" x="1249" y="-507.75" font-family="Arial" font-size="14.00" fill="#c6c5fe">dist/utils/index.js</text>
</g>
<!-- dist/cluster/cluster&#45;manager.js&#45;&gt;dist/utils/index.js -->
<g id="edge4" class="edge">
<title>dist/cluster/cluster&#45;manager.js&#45;&gt;dist/utils/index.js</title>
<path fill="none" stroke="#757575" d="M782.51,-285.99C896.3,-300.08 1072.01,-323.27 1083,-333.45 1135.83,-382.4 1066.32,-442.34 1119,-491.45 1135.6,-506.93 1158.96,-513.36 1181.25,-515.45"/>
<polygon fill="#757575" stroke="#757575" points="1181.17,-518.95 1191.38,-516.12 1181.64,-511.96 1181.17,-518.95"/>
</g>
<!-- dist/errors/client&#45;not&#45;found.error.js -->
<g id="node14" class="node">
<title>dist/errors/client&#45;not&#45;found.error.js</title>
<path fill="none" stroke="#cfffac" d="M1350.33,-401.95C1350.33,-401.95 1147.67,-401.95 1147.67,-401.95 1143.83,-401.95 1140,-398.12 1140,-394.28 1140,-394.28 1140,-386.62 1140,-386.62 1140,-382.78 1143.83,-378.95 1147.67,-378.95 1147.67,-378.95 1350.33,-378.95 1350.33,-378.95 1354.17,-378.95 1358,-382.78 1358,-386.62 1358,-386.62 1358,-394.28 1358,-394.28 1358,-398.12 1354.17,-401.95 1350.33,-401.95"/>
<text text-anchor="middle" x="1249" y="-386.75" font-family="Arial" font-size="14.00" fill="#cfffac">dist/errors/client&#45;not&#45;found.error.js</text>
</g>
<!-- dist/errors/index.js&#45;&gt;dist/errors/client&#45;not&#45;found.error.js -->
<g id="edge26" class="edge">
<title>dist/errors/index.js&#45;&gt;dist/errors/client&#45;not&#45;found.error.js</title>
<path fill="none" stroke="#757575" d="M1019.07,-361.34C1056.31,-366.08 1104.57,-372.21 1147.17,-377.63"/>
<polygon fill="#757575" stroke="#757575" points="1146.93,-381.13 1157.3,-378.92 1147.82,-374.18 1146.93,-381.13"/>
</g>
<!-- dist/errors/missing&#45;configurations.error.js -->
<g id="node15" class="node">
<title>dist/errors/missing&#45;configurations.error.js</title>
<path fill="none" stroke="#cfffac" d="M1371.33,-360.95C1371.33,-360.95 1126.67,-360.95 1126.67,-360.95 1122.83,-360.95 1119,-357.12 1119,-353.28 1119,-353.28 1119,-345.62 1119,-345.62 1119,-341.78 1122.83,-337.95 1126.67,-337.95 1126.67,-337.95 1371.33,-337.95 1371.33,-337.95 1375.17,-337.95 1379,-341.78 1379,-345.62 1379,-345.62 1379,-353.28 1379,-353.28 1379,-357.12 1375.17,-360.95 1371.33,-360.95"/>
<text text-anchor="middle" x="1249" y="-345.75" font-family="Arial" font-size="14.00" fill="#cfffac">dist/errors/missing&#45;configurations.error.js</text>
</g>
<!-- dist/errors/index.js&#45;&gt;dist/errors/missing&#45;configurations.error.js -->
<g id="edge27" class="edge">
<title>dist/errors/index.js&#45;&gt;dist/errors/missing&#45;configurations.error.js</title>
<path fill="none" stroke="#757575" d="M1019.07,-352.6C1045.43,-352.23 1077.3,-351.8 1108.79,-351.36"/>
<polygon fill="#757575" stroke="#757575" points="1109.04,-354.86 1118.99,-351.22 1108.94,-347.86 1109.04,-354.86"/>
</g>
<!-- dist/utils/is.js -->
<g id="node29" class="node">
<title>dist/utils/is.js</title>
<path fill="none" stroke="#cfffac" d="M1764.83,-580.95C1764.83,-580.95 1688.17,-580.95 1688.17,-580.95 1684.33,-580.95 1680.5,-577.12 1680.5,-573.28 1680.5,-573.28 1680.5,-565.62 1680.5,-565.62 1680.5,-561.78 1684.33,-557.95 1688.17,-557.95 1688.17,-557.95 1764.83,-557.95 1764.83,-557.95 1768.67,-557.95 1772.5,-561.78 1772.5,-565.62 1772.5,-565.62 1772.5,-573.28 1772.5,-573.28 1772.5,-577.12 1768.67,-580.95 1764.83,-580.95"/>
<text text-anchor="middle" x="1726.5" y="-565.75" font-family="Arial" font-size="14.00" fill="#cfffac">dist/utils/is.js</text>
</g>
<!-- dist/utils/index.js&#45;&gt;dist/utils/is.js -->
<g id="edge66" class="edge">
<title>dist/utils/index.js&#45;&gt;dist/utils/is.js</title>
<path fill="none" stroke="#757575" d="M1306.88,-518.8C1338.67,-522.88 1379.03,-528.02 1415,-532.45 1504.45,-543.47 1608.45,-555.76 1670.53,-563.03"/>
<polygon fill="#757575" stroke="#757575" points="1670.15,-566.51 1680.49,-564.2 1670.97,-559.56 1670.15,-566.51"/>
</g>
<!-- dist/utils/parsers.js -->
<g id="node30" class="node">
<title>dist/utils/parsers.js</title>
<path fill="none" stroke="#c6c5fe" d="M1570.83,-522.95C1570.83,-522.95 1458.17,-522.95 1458.17,-522.95 1454.33,-522.95 1450.5,-519.12 1450.5,-515.28 1450.5,-515.28 1450.5,-507.62 1450.5,-507.62 1450.5,-503.78 1454.33,-499.95 1458.17,-499.95 1458.17,-499.95 1570.83,-499.95 1570.83,-499.95 1574.67,-499.95 1578.5,-503.78 1578.5,-507.62 1578.5,-507.62 1578.5,-515.28 1578.5,-515.28 1578.5,-519.12 1574.67,-522.95 1570.83,-522.95"/>
<text text-anchor="middle" x="1514.5" y="-507.75" font-family="Arial" font-size="14.00" fill="#c6c5fe">dist/utils/parsers.js</text>
</g>
<!-- dist/utils/index.js&#45;&gt;dist/utils/parsers.js -->
<g id="edge67" class="edge">
<title>dist/utils/index.js&#45;&gt;dist/utils/parsers.js</title>
<path fill="none" stroke="#757575" d="M1306.53,-511.45C1345.5,-511.45 1397.69,-511.45 1439.91,-511.45"/>
<polygon fill="#757575" stroke="#757575" points="1440.14,-514.95 1450.14,-511.45 1440.14,-507.95 1440.14,-514.95"/>
</g>
<!-- dist/utils/promise&#45;timeout.js -->
<g id="node31" class="node">
<title>dist/utils/promise&#45;timeout.js</title>
<path fill="none" stroke="#c6c5fe" d="M1597.33,-481.95C1597.33,-481.95 1431.67,-481.95 1431.67,-481.95 1427.83,-481.95 1424,-478.12 1424,-474.28 1424,-474.28 1424,-466.62 1424,-466.62 1424,-462.78 1427.83,-458.95 1431.67,-458.95 1431.67,-458.95 1597.33,-458.95 1597.33,-458.95 1601.17,-458.95 1605,-462.78 1605,-466.62 1605,-466.62 1605,-474.28 1605,-474.28 1605,-478.12 1601.17,-481.95 1597.33,-481.95"/>
<text text-anchor="middle" x="1514.5" y="-466.75" font-family="Arial" font-size="14.00" fill="#c6c5fe">dist/utils/promise&#45;timeout.js</text>
</g>
<!-- dist/utils/index.js&#45;&gt;dist/utils/promise&#45;timeout.js -->
<g id="edge68" class="edge">
<title>dist/utils/index.js&#45;&gt;dist/utils/promise&#45;timeout.js</title>
<path fill="none" stroke="#757575" d="M1306.52,-502.7C1329.07,-499.21 1355.26,-495.14 1379,-491.45 1395.34,-488.91 1412.8,-486.19 1429.54,-483.57"/>
<polygon fill="#757575" stroke="#757575" points="1430.52,-486.96 1439.86,-481.96 1429.44,-480.05 1430.52,-486.96"/>
</g>
<!-- dist/cluster/cluster.module.js -->
<g id="node6" class="node">
<title>dist/cluster/cluster.module.js</title>
<path fill="none" stroke="#c6c5fe" d="M301.33,-205.95C301.33,-205.95 130.67,-205.95 130.67,-205.95 126.83,-205.95 123,-202.12 123,-198.28 123,-198.28 123,-190.62 123,-190.62 123,-186.78 126.83,-182.95 130.67,-182.95 130.67,-182.95 301.33,-182.95 301.33,-182.95 305.17,-182.95 309,-186.78 309,-190.62 309,-190.62 309,-198.28 309,-198.28 309,-202.12 305.17,-205.95 301.33,-205.95"/>
<text text-anchor="middle" x="216" y="-190.75" font-family="Arial" font-size="14.00" fill="#c6c5fe">dist/cluster/cluster.module.js</text>
</g>
<!-- dist/cluster/cluster.module.js&#45;&gt;dist/cluster/cluster&#45;logger.js -->
<g id="edge5" class="edge">
<title>dist/cluster/cluster.module.js&#45;&gt;dist/cluster/cluster&#45;logger.js</title>
<path fill="none" stroke="#757575" d="M234.71,-182.85C258.6,-167.97 302.98,-142.95 345,-133.45 647.77,-64.99 1022.22,-114.96 1176.47,-141.14"/>
<polygon fill="#757575" stroke="#757575" points="1176.3,-144.66 1186.75,-142.91 1177.49,-137.76 1176.3,-144.66"/>
</g>
<!-- dist/cluster/cluster.module.js&#45;&gt;dist/cluster/cluster.constants.js -->
<g id="edge7" class="edge">
<title>dist/cluster/cluster.module.js&#45;&gt;dist/cluster/cluster.constants.js</title>
<path fill="none" stroke="#757575" d="M228.36,-182.67C249.22,-161.93 295.99,-119.39 345,-101.45 487.08,-49.44 533.2,-76.45 684.5,-76.45 684.5,-76.45 684.5,-76.45 957,-76.45 1145.53,-76.45 1193.45,-86.06 1379,-119.45 1408.14,-124.69 1440.25,-132.95 1465.78,-140.13"/>
<polygon fill="#757575" stroke="#757575" points="1465.01,-143.55 1475.58,-142.92 1466.92,-136.82 1465.01,-143.55"/>
</g>
<!-- dist/cluster/cluster.module.js&#45;&gt;dist/cluster/cluster&#45;manager.js -->
<g id="edge6" class="edge">
<title>dist/cluster/cluster.module.js&#45;&gt;dist/cluster/cluster&#45;manager.js</title>
<path fill="none" stroke="#757575" d="M276.86,-205.95C298.33,-210.01 322.73,-214.53 345,-218.45 432.61,-233.89 533.19,-250.32 601.99,-261.36"/>
<polygon fill="#757575" stroke="#757575" points="601.48,-264.82 611.9,-262.95 602.58,-257.91 601.48,-264.82"/>
</g>
<!-- dist/cluster/cluster.module.js&#45;&gt;dist/errors/index.js -->
<g id="edge10" class="edge">
<title>dist/cluster/cluster.module.js&#45;&gt;dist/errors/index.js</title>
<path fill="none" stroke="#757575" d="M240.53,-206.06C265.81,-218.14 307.43,-236.86 345,-248.45 534.14,-306.78 766.89,-335.53 882.58,-347.07"/>
<polygon fill="#757575" stroke="#757575" points="882.44,-350.57 892.73,-348.07 883.13,-343.6 882.44,-350.57"/>
</g>
<!-- dist/cluster/cluster.module.js&#45;&gt;dist/utils/index.js -->
<g id="edge12" class="edge">
<title>dist/cluster/cluster.module.js&#45;&gt;dist/utils/index.js</title>
<path fill="none" stroke="#757575" d="M229.7,-206.26C251.52,-225.87 298.29,-265 345,-285.45 441.94,-327.89 474.26,-313.58 578,-334.45 606.01,-340.08 1059.59,-415.08 1083,-431.45 1108.49,-449.27 1093.2,-474.09 1119,-491.45 1137.18,-503.68 1160.03,-509.52 1181.43,-512.06"/>
<polygon fill="#757575" stroke="#757575" points="1181.17,-515.55 1191.46,-513.03 1181.84,-508.59 1181.17,-515.55"/>
</g>
<!-- dist/cluster/cluster.providers.js -->
<g id="node7" class="node">
<title>dist/cluster/cluster.providers.js</title>
<path fill="none" stroke="#c6c5fe" d="M534.33,-165.95C534.33,-165.95 352.67,-165.95 352.67,-165.95 348.83,-165.95 345,-162.12 345,-158.28 345,-158.28 345,-150.62 345,-150.62 345,-146.78 348.83,-142.95 352.67,-142.95 352.67,-142.95 534.33,-142.95 534.33,-142.95 538.17,-142.95 542,-146.78 542,-150.62 542,-150.62 542,-158.28 542,-158.28 542,-162.12 538.17,-165.95 534.33,-165.95"/>
<text text-anchor="middle" x="443.5" y="-150.75" font-family="Arial" font-size="14.00" fill="#c6c5fe">dist/cluster/cluster.providers.js</text>
</g>
<!-- dist/cluster/cluster.module.js&#45;&gt;dist/cluster/cluster.providers.js -->
<g id="edge8" class="edge">
<title>dist/cluster/cluster.module.js&#45;&gt;dist/cluster/cluster.providers.js</title>
<path fill="none" stroke="#757575" d="M281.92,-182.93C308.69,-178.19 339.87,-172.65 367.6,-167.74"/>
<polygon fill="#757575" stroke="#757575" points="368.41,-171.15 377.65,-165.95 367.19,-164.25 368.41,-171.15"/>
</g>
<!-- dist/cluster/common/index.js -->
<g id="node8" class="node">
<title>dist/cluster/common/index.js</title>
<path fill="none" stroke="#c6c5fe" d="M771.83,-244.95C771.83,-244.95 599.17,-244.95 599.17,-244.95 595.33,-244.95 591.5,-241.12 591.5,-237.28 591.5,-237.28 591.5,-229.62 591.5,-229.62 591.5,-225.78 595.33,-221.95 599.17,-221.95 599.17,-221.95 771.83,-221.95 771.83,-221.95 775.67,-221.95 779.5,-225.78 779.5,-229.62 779.5,-229.62 779.5,-237.28 779.5,-237.28 779.5,-241.12 775.67,-244.95 771.83,-244.95"/>
<text text-anchor="middle" x="685.5" y="-229.75" font-family="Arial" font-size="14.00" fill="#c6c5fe">dist/cluster/common/index.js</text>
</g>
<!-- dist/cluster/cluster.module.js&#45;&gt;dist/cluster/common/index.js -->
<g id="edge9" class="edge">
<title>dist/cluster/cluster.module.js&#45;&gt;dist/cluster/common/index.js</title>
<path fill="none" stroke="#757575" d="M309.17,-200.49C374.27,-204.94 463.53,-211.42 542,-218.45 554.74,-219.59 568.1,-220.88 581.33,-222.21"/>
<polygon fill="#757575" stroke="#757575" points="581.11,-225.7 591.41,-223.23 581.81,-218.74 581.11,-225.7"/>
</g>
<!-- dist/messages/index.js -->
<g id="node9" class="node">
<title>dist/messages/index.js</title>
<path fill="none" stroke="#cfffac" d="M1795.33,-461.95C1795.33,-461.95 1657.67,-461.95 1657.67,-461.95 1653.83,-461.95 1650,-458.12 1650,-454.28 1650,-454.28 1650,-446.62 1650,-446.62 1650,-442.78 1653.83,-438.95 1657.67,-438.95 1657.67,-438.95 1795.33,-438.95 1795.33,-438.95 1799.17,-438.95 1803,-442.78 1803,-446.62 1803,-446.62 1803,-454.28 1803,-454.28 1803,-458.12 1799.17,-461.95 1795.33,-461.95"/>
<text text-anchor="middle" x="1726.5" y="-446.75" font-family="Arial" font-size="14.00" fill="#cfffac">dist/messages/index.js</text>
</g>
<!-- dist/cluster/cluster.module.js&#45;&gt;dist/messages/index.js -->
<g id="edge11" class="edge">
<title>dist/cluster/cluster.module.js&#45;&gt;dist/messages/index.js</title>
<path fill="none" stroke="#757575" d="M224.7,-182.89C242.51,-157.16 289.3,-95.1 345,-65.45 480.61,6.75 530.87,-0.45 684.5,-0.45 684.5,-0.45 684.5,-0.45 1250,-0.45 1422.24,-0.45 1498.2,-5.95 1614,-133.45 1694.55,-222.13 1717.62,-372.52 1723.59,-428.55"/>
<polygon fill="#757575" stroke="#757575" points="1720.13,-429.13 1724.6,-438.74 1727.1,-428.44 1720.13,-429.13"/>
</g>
<!-- dist/cluster/cluster.providers.js&#45;&gt;dist/cluster/cluster.constants.js -->
<g id="edge14" class="edge">
<title>dist/cluster/cluster.providers.js&#45;&gt;dist/cluster/cluster.constants.js</title>
<path fill="none" stroke="#757575" d="M542.21,-145.85C712.46,-132.3 1074.42,-109.82 1379,-133.45 1399.86,-135.07 1422.37,-138.08 1442.9,-141.32"/>
<polygon fill="#757575" stroke="#757575" points="1442.37,-144.78 1452.81,-142.93 1443.5,-137.87 1442.37,-144.78"/>
</g>
<!-- dist/cluster/cluster.providers.js&#45;&gt;dist/cluster/cluster&#45;manager.js -->
<g id="edge13" class="edge">
<title>dist/cluster/cluster.providers.js&#45;&gt;dist/cluster/cluster&#45;manager.js</title>
<path fill="none" stroke="#757575" d="M464.75,-166.07C485.07,-178.11 516.87,-198 542,-218.45 559.55,-232.73 557.99,-243.89 578,-254.45 581.36,-256.22 584.85,-257.84 588.43,-259.31"/>
<polygon fill="#757575" stroke="#757575" points="587.5,-262.7 598.1,-262.9 589.94,-256.14 587.5,-262.7"/>
</g>
<!-- dist/cluster/cluster.providers.js&#45;&gt;dist/cluster/common/index.js -->
<g id="edge15" class="edge">
<title>dist/cluster/cluster.providers.js&#45;&gt;dist/cluster/common/index.js</title>
<path fill="none" stroke="#757575" d="M505.8,-165.97C518.21,-169.61 530.86,-174.35 542,-180.45 561.03,-190.88 558.59,-203.74 578,-213.45 581.74,-215.32 585.63,-217.02 589.62,-218.55"/>
<polygon fill="#757575" stroke="#757575" points="588.49,-221.87 599.08,-221.86 590.8,-215.26 588.49,-221.87"/>
</g>
<!-- dist/cluster/default&#45;options.js -->
<g id="node10" class="node">
<title>dist/cluster/default&#45;options.js</title>
<path fill="none" stroke="#cfffac" d="M771.33,-203.95C771.33,-203.95 599.67,-203.95 599.67,-203.95 595.83,-203.95 592,-200.12 592,-196.28 592,-196.28 592,-188.62 592,-188.62 592,-184.78 595.83,-180.95 599.67,-180.95 599.67,-180.95 771.33,-180.95 771.33,-180.95 775.17,-180.95 779,-184.78 779,-188.62 779,-188.62 779,-196.28 779,-196.28 779,-200.12 775.17,-203.95 771.33,-203.95"/>
<text text-anchor="middle" x="685.5" y="-188.75" font-family="Arial" font-size="14.00" fill="#cfffac">dist/cluster/default&#45;options.js</text>
</g>
<!-- dist/cluster/cluster.providers.js&#45;&gt;dist/cluster/default&#45;options.js -->
<g id="edge16" class="edge">
<title>dist/cluster/cluster.providers.js&#45;&gt;dist/cluster/default&#45;options.js</title>
<path fill="none" stroke="#757575" d="M517.16,-165.95C543.82,-170.18 574.2,-174.99 601.69,-179.34"/>
<polygon fill="#757575" stroke="#757575" points="601.25,-182.81 611.67,-180.92 602.34,-175.9 601.25,-182.81"/>
</g>
<!-- dist/cluster/common/cluster.decorator.js -->
<g id="node11" class="node">
<title>dist/cluster/common/cluster.decorator.js</title>
<path fill="none" stroke="#c6c5fe" d="M1075.33,-246.95C1075.33,-246.95 836.67,-246.95 836.67,-246.95 832.83,-246.95 829,-243.12 829,-239.28 829,-239.28 829,-231.62 829,-231.62 829,-227.78 832.83,-223.95 836.67,-223.95 836.67,-223.95 1075.33,-223.95 1075.33,-223.95 1079.17,-223.95 1083,-227.78 1083,-231.62 1083,-231.62 1083,-239.28 1083,-239.28 1083,-243.12 1079.17,-246.95 1075.33,-246.95"/>
<text text-anchor="middle" x="956" y="-231.75" font-family="Arial" font-size="14.00" fill="#c6c5fe">dist/cluster/common/cluster.decorator.js</text>
</g>
<!-- dist/cluster/common/index.js&#45;&gt;dist/cluster/common/cluster.decorator.js -->
<g id="edge24" class="edge">
<title>dist/cluster/common/index.js&#45;&gt;dist/cluster/common/cluster.decorator.js</title>
<path fill="none" stroke="#757575" d="M779.65,-234.14C792.33,-234.24 805.54,-234.34 818.78,-234.44"/>
<polygon fill="#757575" stroke="#757575" points="818.88,-237.94 828.9,-234.51 818.93,-230.94 818.88,-237.94"/>
</g>
<!-- dist/cluster/common/cluster.utils.js -->
<g id="node12" class="node">
<title>dist/cluster/common/cluster.utils.js</title>
<path fill="none" stroke="#c6c5fe" d="M1059.33,-205.95C1059.33,-205.95 852.67,-205.95 852.67,-205.95 848.83,-205.95 845,-202.12 845,-198.28 845,-198.28 845,-190.62 845,-190.62 845,-186.78 848.83,-182.95 852.67,-182.95 852.67,-182.95 1059.33,-182.95 1059.33,-182.95 1063.17,-182.95 1067,-186.78 1067,-190.62 1067,-190.62 1067,-198.28 1067,-198.28 1067,-202.12 1063.17,-205.95 1059.33,-205.95"/>
<text text-anchor="middle" x="956" y="-190.75" font-family="Arial" font-size="14.00" fill="#c6c5fe">dist/cluster/common/cluster.utils.js</text>
</g>
<!-- dist/cluster/common/index.js&#45;&gt;dist/cluster/common/cluster.utils.js -->
<g id="edge25" class="edge">
<title>dist/cluster/common/index.js&#45;&gt;dist/cluster/common/cluster.utils.js</title>
<path fill="none" stroke="#757575" d="M765.97,-221.91C797.23,-217.37 833.26,-212.13 865.44,-207.46"/>
<polygon fill="#757575" stroke="#757575" points="866.34,-210.86 875.73,-205.96 865.34,-203.94 866.34,-210.86"/>
</g>
<!-- dist/cluster/common/cluster.decorator.js&#45;&gt;dist/cluster/cluster.constants.js -->
<g id="edge17" class="edge">
<title>dist/cluster/common/cluster.decorator.js&#45;&gt;dist/cluster/cluster.constants.js</title>
<path fill="none" stroke="#757575" d="M1083.1,-230.74C1167.5,-225.89 1280.7,-216.11 1379,-196.45 1411.33,-189.98 1446.9,-178.68 1473.34,-169.43"/>
<polygon fill="#757575" stroke="#757575" points="1474.74,-172.65 1482.99,-166 1472.4,-166.05 1474.74,-172.65"/>
</g>
<!-- dist/cluster/common/cluster.decorator.js&#45;&gt;dist/utils/index.js -->
<g id="edge18" class="edge">
<title>dist/cluster/common/cluster.decorator.js&#45;&gt;dist/utils/index.js</title>
<path fill="none" stroke="#757575" d="M1001.22,-246.96C1028.93,-256.47 1063.06,-272.85 1083,-299.45 1135.06,-368.93 1056.65,-431.03 1119,-491.45 1135.37,-507.31 1158.8,-513.8 1181.2,-515.83"/>
<polygon fill="#757575" stroke="#757575" points="1181.2,-519.33 1191.4,-516.46 1181.63,-512.35 1181.2,-519.33"/>
</g>
<!-- dist/cluster/common/cluster.utils.js&#45;&gt;dist/cluster/cluster&#45;logger.js -->
<g id="edge19" class="edge">
<title>dist/cluster/common/cluster.utils.js&#45;&gt;dist/cluster/cluster&#45;logger.js</title>
<path fill="none" stroke="#757575" d="M1040.78,-182.93C1076.23,-178.06 1117.69,-172.36 1154.16,-167.35"/>
<polygon fill="#757575" stroke="#757575" points="1154.88,-170.78 1164.31,-165.95 1153.93,-163.85 1154.88,-170.78"/>
</g>
<!-- dist/cluster/common/cluster.utils.js&#45;&gt;dist/cluster/cluster.constants.js -->
<g id="edge20" class="edge">
<title>dist/cluster/common/cluster.utils.js&#45;&gt;dist/cluster/cluster.constants.js</title>
<path fill="none" stroke="#757575" d="M1067.4,-192.24C1152.66,-189.81 1273.52,-184.77 1379,-174.45 1397.24,-172.67 1416.78,-170.13 1435.16,-167.45"/>
<polygon fill="#757575" stroke="#757575" points="1435.86,-170.89 1445.24,-165.95 1434.83,-163.96 1435.86,-170.89"/>
</g>
<!-- dist/cluster/common/cluster.utils.js&#45;&gt;dist/utils/index.js -->
<g id="edge23" class="edge">
<title>dist/cluster/common/cluster.utils.js&#45;&gt;dist/utils/index.js</title>
<path fill="none" stroke="#757575" d="M1067.13,-203.3C1072.94,-206.58 1078.3,-210.58 1083,-215.45 1168.91,-304.46 1032.59,-402.93 1119,-491.45 1134.99,-507.83 1158.45,-514.4 1181,-516.35"/>
<polygon fill="#757575" stroke="#757575" points="1181.08,-519.86 1191.26,-516.94 1181.48,-512.87 1181.08,-519.86"/>
</g>
<!-- dist/cluster/common/cluster.utils.js&#45;&gt;dist/messages/index.js -->
<g id="edge22" class="edge">
<title>dist/cluster/common/cluster.utils.js&#45;&gt;dist/messages/index.js</title>
<path fill="none" stroke="#757575" d="M1039.82,-206C1054.31,-208.66 1069.17,-211.8 1083,-215.45 1320.88,-278.2 1594.45,-393.25 1690.21,-434.89"/>
<polygon fill="#757575" stroke="#757575" points="1688.88,-438.13 1699.44,-438.92 1691.67,-431.71 1688.88,-438.13"/>
</g>
<!-- dist/constants/index.js -->
<g id="node13" class="node">
<title>dist/constants/index.js</title>
<path fill="none" stroke="#cfffac" d="M1315.83,-481.95C1315.83,-481.95 1182.17,-481.95 1182.17,-481.95 1178.33,-481.95 1174.5,-478.12 1174.5,-474.28 1174.5,-474.28 1174.5,-466.62 1174.5,-466.62 1174.5,-462.78 1178.33,-458.95 1182.17,-458.95 1182.17,-458.95 1315.83,-458.95 1315.83,-458.95 1319.67,-458.95 1323.5,-462.78 1323.5,-466.62 1323.5,-466.62 1323.5,-474.28 1323.5,-474.28 1323.5,-478.12 1319.67,-481.95 1315.83,-481.95"/>
<text text-anchor="middle" x="1249" y="-466.75" font-family="Arial" font-size="14.00" fill="#cfffac">dist/constants/index.js</text>
</g>
<!-- dist/cluster/common/cluster.utils.js&#45;&gt;dist/constants/index.js -->
<g id="edge21" class="edge">
<title>dist/cluster/common/cluster.utils.js&#45;&gt;dist/constants/index.js</title>
<path fill="none" stroke="#757575" d="M1067.12,-203.74C1072.9,-206.92 1078.26,-210.78 1083,-215.45 1146.14,-277.56 1064.58,-341.58 1119,-411.45 1135.63,-432.8 1161.76,-446.7 1186.17,-455.6"/>
<polygon fill="#757575" stroke="#757575" points="1185.17,-458.96 1195.77,-458.89 1187.44,-452.34 1185.17,-458.96"/>
</g>
<!-- dist/health/index.js -->
<g id="node16" class="node">
<title>dist/health/index.js</title>
<path fill="none" stroke="#c6c5fe" d="M499.83,-476.95C499.83,-476.95 387.17,-476.95 387.17,-476.95 383.33,-476.95 379.5,-473.12 379.5,-469.28 379.5,-469.28 379.5,-461.62 379.5,-461.62 379.5,-457.78 383.33,-453.95 387.17,-453.95 387.17,-453.95 499.83,-453.95 499.83,-453.95 503.67,-453.95 507.5,-457.78 507.5,-461.62 507.5,-461.62 507.5,-469.28 507.5,-469.28 507.5,-473.12 503.67,-476.95 499.83,-476.95"/>
<text text-anchor="middle" x="443.5" y="-461.75" font-family="Arial" font-size="14.00" fill="#c6c5fe">dist/health/index.js</text>
</g>
<!-- dist/health/indicators/redis.health.js -->
<g id="node17" class="node">
<title>dist/health/indicators/redis.health.js</title>
<path fill="none" stroke="#c6c5fe" d="M1061.83,-462.95C1061.83,-462.95 850.17,-462.95 850.17,-462.95 846.33,-462.95 842.5,-459.12 842.5,-455.28 842.5,-455.28 842.5,-447.62 842.5,-447.62 842.5,-443.78 846.33,-439.95 850.17,-439.95 850.17,-439.95 1061.83,-439.95 1061.83,-439.95 1065.67,-439.95 1069.5,-443.78 1069.5,-447.62 1069.5,-447.62 1069.5,-455.28 1069.5,-455.28 1069.5,-459.12 1065.67,-462.95 1061.83,-462.95"/>
<text text-anchor="middle" x="956" y="-447.75" font-family="Arial" font-size="14.00" fill="#c6c5fe">dist/health/indicators/redis.health.js</text>
</g>
<!-- dist/health/index.js&#45;&gt;dist/health/indicators/redis.health.js -->
<g id="edge28" class="edge">
<title>dist/health/index.js&#45;&gt;dist/health/indicators/redis.health.js</title>
<path fill="none" stroke="#757575" d="M507.52,-456.33C529.74,-453.53 554.93,-450.83 578,-449.45 662.71,-444.39 758.31,-444.97 832.05,-446.77"/>
<polygon fill="#757575" stroke="#757575" points="832.22,-450.28 842.31,-447.03 832.4,-443.28 832.22,-450.28"/>
</g>
<!-- dist/health/redis&#45;health.module.js -->
<g id="node18" class="node">
<title>dist/health/redis&#45;health.module.js</title>
<path fill="none" stroke="#c6c5fe" d="M785.33,-480.95C785.33,-480.95 585.67,-480.95 585.67,-480.95 581.83,-480.95 578,-477.12 578,-473.28 578,-473.28 578,-465.62 578,-465.62 578,-461.78 581.83,-457.95 585.67,-457.95 585.67,-457.95 785.33,-457.95 785.33,-457.95 789.17,-457.95 793,-461.78 793,-465.62 793,-465.62 793,-473.28 793,-473.28 793,-477.12 789.17,-480.95 785.33,-480.95"/>
<text text-anchor="middle" x="685.5" y="-465.75" font-family="Arial" font-size="14.00" fill="#c6c5fe">dist/health/redis&#45;health.module.js</text>
</g>
<!-- dist/health/index.js&#45;&gt;dist/health/redis&#45;health.module.js -->
<g id="edge29" class="edge">
<title>dist/health/index.js&#45;&gt;dist/health/redis&#45;health.module.js</title>
<path fill="none" stroke="#757575" d="M507.56,-466.5C526.06,-466.81 546.91,-467.16 567.63,-467.5"/>
<polygon fill="#757575" stroke="#757575" points="567.73,-471 577.79,-467.67 567.85,-464.01 567.73,-471"/>
</g>
<!-- dist/health/indicators/redis.health.js&#45;&gt;dist/utils/index.js -->
<g id="edge31" class="edge">
<title>dist/health/indicators/redis.health.js&#45;&gt;dist/utils/index.js</title>
<path fill="none" stroke="#757575" d="M999.41,-463.01C1031.95,-471.62 1078.1,-483.25 1119,-491.45 1139.15,-495.49 1161.21,-499.18 1181.3,-502.26"/>
<polygon fill="#757575" stroke="#757575" points="1180.88,-505.73 1191.29,-503.76 1181.93,-498.81 1180.88,-505.73"/>
</g>
<!-- dist/health/indicators/redis.health.js&#45;&gt;dist/messages/index.js -->
<g id="edge30" class="edge">
<title>dist/health/indicators/redis.health.js&#45;&gt;dist/messages/index.js</title>
<path fill="none" stroke="#757575" d="M1069.86,-450.66C1086.34,-450.57 1103.11,-450.5 1119,-450.45 1304.7,-449.88 1522.38,-450.09 1639.85,-450.28"/>
<polygon fill="#757575" stroke="#757575" points="1639.85,-453.78 1649.86,-450.3 1639.86,-446.78 1639.85,-453.78"/>
</g>
<!-- dist/health/redis&#45;health.module.js&#45;&gt;dist/health/indicators/redis.health.js -->
<g id="edge32" class="edge">
<title>dist/health/redis&#45;health.module.js&#45;&gt;dist/health/indicators/redis.health.js</title>
<path fill="none" stroke="#757575" d="M793,-462.31C805.95,-461.44 819.27,-460.55 832.43,-459.67"/>
<polygon fill="#757575" stroke="#757575" points="832.71,-463.16 842.45,-458.99 832.24,-456.17 832.71,-463.16"/>
</g>
<!-- dist/index.js -->
<g id="node19" class="node">
<title>dist/index.js</title>
<path fill="none" stroke="#c6c5fe" d="M79.33,-456.95C79.33,-456.95 7.67,-456.95 7.67,-456.95 3.83,-456.95 0,-453.12 0,-449.28 0,-449.28 0,-441.62 0,-441.62 0,-437.78 3.83,-433.95 7.67,-433.95 7.67,-433.95 79.33,-433.95 79.33,-433.95 83.17,-433.95 87,-437.78 87,-441.62 87,-441.62 87,-449.28 87,-449.28 87,-453.12 83.17,-456.95 79.33,-456.95"/>
<text text-anchor="middle" x="43.5" y="-441.75" font-family="Arial" font-size="14.00" fill="#c6c5fe">dist/index.js</text>
</g>
<!-- dist/index.js&#45;&gt;dist/cluster/cluster.constants.js -->
<g id="edge34" class="edge">
<title>dist/index.js&#45;&gt;dist/cluster/cluster.constants.js</title>
<path fill="none" stroke="#757575" d="M44.64,-433.84C45.71,-393.11 54.49,-254.87 123,-173.45 222.25,-55.49 288.34,-38.45 442.5,-38.45 442.5,-38.45 442.5,-38.45 957,-38.45 1145.35,-38.45 1199.4,-20.7 1379,-77.45 1421,-90.72 1464.28,-118.5 1490.03,-136.81"/>
<polygon fill="#757575" stroke="#757575" points="1488.23,-139.83 1498.38,-142.86 1492.33,-134.16 1488.23,-139.83"/>
</g>
<!-- dist/index.js&#45;&gt;dist/cluster/cluster&#45;manager.js -->
<g id="edge33" class="edge">
<title>dist/index.js&#45;&gt;dist/cluster/cluster&#45;manager.js</title>
<path fill="none" stroke="#757575" d="M87.49,-433.96C200.75,-403.7 507.18,-321.83 631.26,-288.68"/>
<polygon fill="#757575" stroke="#757575" points="632.52,-291.96 641.28,-286 630.72,-285.2 632.52,-291.96"/>
</g>
<!-- dist/index.js&#45;&gt;dist/cluster/cluster.module.js -->
<g id="edge35" class="edge">
<title>dist/index.js&#45;&gt;dist/cluster/cluster.module.js</title>
<path fill="none" stroke="#757575" d="M46.91,-433.58C53.85,-401.81 76.43,-313.37 123,-256.45 138.72,-237.23 161.94,-221.65 181.11,-210.91"/>
<polygon fill="#757575" stroke="#757575" points="183.01,-213.86 190.15,-206.04 179.69,-207.7 183.01,-213.86"/>
</g>
<!-- dist/index.js&#45;&gt;dist/cluster/common/index.js -->
<g id="edge36" class="edge">
<title>dist/index.js&#45;&gt;dist/cluster/common/index.js</title>
<path fill="none" stroke="#757575" d="M53.92,-433.94C67.54,-418.04 94.26,-389.5 123,-373.45 269.49,-291.63 463.81,-256.98 581.22,-242.78"/>
<polygon fill="#757575" stroke="#757575" points="581.77,-246.24 591.29,-241.59 580.94,-239.29 581.77,-246.24"/>
</g>
<!-- dist/redis/common/index.js -->
<g id="node20" class="node">
<title>dist/redis/common/index.js</title>
<path fill="none" stroke="#c6c5fe" d="M766.33,-720.95C766.33,-720.95 604.67,-720.95 604.67,-720.95 600.83,-720.95 597,-717.12 597,-713.28 597,-713.28 597,-705.62 597,-705.62 597,-701.78 600.83,-697.95 604.67,-697.95 604.67,-697.95 766.33,-697.95 766.33,-697.95 770.17,-697.95 774,-701.78 774,-705.62 774,-705.62 774,-713.28 774,-713.28 774,-717.12 770.17,-720.95 766.33,-720.95"/>
<text text-anchor="middle" x="685.5" y="-705.75" font-family="Arial" font-size="14.00" fill="#c6c5fe">dist/redis/common/index.js</text>
</g>
<!-- dist/index.js&#45;&gt;dist/redis/common/index.js -->
<g id="edge37" class="edge">
<title>dist/index.js&#45;&gt;dist/redis/common/index.js</title>
<path fill="none" stroke="#757575" d="M45.67,-457.18C49.7,-491.1 66.03,-590.18 123,-642.45 261.87,-769.85 508.18,-743.86 622.73,-722.89"/>
<polygon fill="#757575" stroke="#757575" points="623.56,-726.29 632.74,-721.01 622.26,-719.41 623.56,-726.29"/>
</g>
<!-- dist/redis/redis&#45;manager.js -->
<g id="node21" class="node">
<title>dist/redis/redis&#45;manager.js</title>
<path fill="none" stroke="#c6c5fe" d="M765.33,-560.95C765.33,-560.95 605.67,-560.95 605.67,-560.95 601.83,-560.95 598,-557.12 598,-553.28 598,-553.28 598,-545.62 598,-545.62 598,-541.78 601.83,-537.95 605.67,-537.95 605.67,-537.95 765.33,-537.95 765.33,-537.95 769.17,-537.95 773,-541.78 773,-545.62 773,-545.62 773,-553.28 773,-553.28 773,-557.12 769.17,-560.95 765.33,-560.95"/>
<text text-anchor="middle" x="685.5" y="-545.75" font-family="Arial" font-size="14.00" fill="#c6c5fe">dist/redis/redis&#45;manager.js</text>
</g>
<!-- dist/index.js&#45;&gt;dist/redis/redis&#45;manager.js -->
<g id="edge38" class="edge">
<title>dist/index.js&#45;&gt;dist/redis/redis&#45;manager.js</title>
<path fill="none" stroke="#757575" d="M62.08,-457.06C77.47,-466.62 100.8,-479.67 123,-486.45 281,-534.72 474.13,-546.75 587.78,-549.32"/>
<polygon fill="#757575" stroke="#757575" points="587.78,-552.83 597.85,-549.53 587.93,-545.83 587.78,-552.83"/>
</g>
<!-- dist/redis/redis.constants.js -->
<g id="node22" class="node">
<title>dist/redis/redis.constants.js</title>
<path fill="none" stroke="#cfffac" d="M1596.33,-756.95C1596.33,-756.95 1432.67,-756.95 1432.67,-756.95 1428.83,-756.95 1425,-753.12 1425,-749.28 1425,-749.28 1425,-741.62 1425,-741.62 1425,-737.78 1428.83,-733.95 1432.67,-733.95 1432.67,-733.95 1596.33,-733.95 1596.33,-733.95 1600.17,-733.95 1604,-737.78 1604,-741.62 1604,-741.62 1604,-749.28 1604,-749.28 1604,-753.12 1600.17,-756.95 1596.33,-756.95"/>
<text text-anchor="middle" x="1514.5" y="-741.75" font-family="Arial" font-size="14.00" fill="#cfffac">dist/redis/redis.constants.js</text>
</g>
<!-- dist/index.js&#45;&gt;dist/redis/redis.constants.js -->
<g id="edge39" class="edge">
<title>dist/index.js&#45;&gt;dist/redis/redis.constants.js</title>
<path fill="none" stroke="#757575" d="M44.98,-457.03C47.17,-495.83 59.12,-622.98 123,-698.45 225.73,-819.82 283.49,-859.45 442.5,-859.45 442.5,-859.45 442.5,-859.45 957,-859.45 1146.03,-859.45 1197.09,-857.85 1379,-806.45 1416.8,-795.77 1457.52,-776.03 1484.13,-761.9"/>
<polygon fill="#757575" stroke="#757575" points="1486.13,-764.8 1493.27,-756.97 1482.8,-758.64 1486.13,-764.8"/>
</g>
<!-- dist/redis/redis.module.js -->
<g id="node23" class="node">
<title>dist/redis/redis.module.js</title>
<path fill="none" stroke="#c6c5fe" d="M291.33,-632.95C291.33,-632.95 140.67,-632.95 140.67,-632.95 136.83,-632.95 133,-629.12 133,-625.28 133,-625.28 133,-617.62 133,-617.62 133,-613.78 136.83,-609.95 140.67,-609.95 140.67,-609.95 291.33,-609.95 291.33,-609.95 295.17,-609.95 299,-613.78 299,-617.62 299,-617.62 299,-625.28 299,-625.28 299,-629.12 295.17,-632.95 291.33,-632.95"/>
<text text-anchor="middle" x="216" y="-617.75" font-family="Arial" font-size="14.00" fill="#c6c5fe">dist/redis/redis.module.js</text>
</g>
<!-- dist/index.js&#45;&gt;dist/redis/redis.module.js -->
<g id="edge40" class="edge">
<title>dist/index.js&#45;&gt;dist/redis/redis.module.js</title>
<path fill="none" stroke="#757575" d="M50.62,-457.18C62.45,-479.09 90.21,-526.99 123,-559.45 141.23,-577.5 165.4,-593.55 184.39,-604.8"/>
<polygon fill="#757575" stroke="#757575" points="182.84,-607.94 193.25,-609.92 186.34,-601.88 182.84,-607.94"/>
</g>
<!-- dist/redis/common/redis.decorator.js -->
<g id="node24" class="node">
<title>dist/redis/common/redis.decorator.js</title>
<path fill="none" stroke="#c6c5fe" d="M1065.33,-716.95C1065.33,-716.95 846.67,-716.95 846.67,-716.95 842.83,-716.95 839,-713.12 839,-709.28 839,-709.28 839,-701.62 839,-701.62 839,-697.78 842.83,-693.95 846.67,-693.95 846.67,-693.95 1065.33,-693.95 1065.33,-693.95 1069.17,-693.95 1073,-697.78 1073,-701.62 1073,-701.62 1073,-709.28 1073,-709.28 1073,-713.12 1069.17,-716.95 1065.33,-716.95"/>
<text text-anchor="middle" x="956" y="-701.75" font-family="Arial" font-size="14.00" fill="#c6c5fe">dist/redis/common/redis.decorator.js</text>
</g>
<!-- dist/redis/common/index.js&#45;&gt;dist/redis/common/redis.decorator.js -->
<g id="edge41" class="edge">
<title>dist/redis/common/index.js&#45;&gt;dist/redis/common/redis.decorator.js</title>
<path fill="none" stroke="#757575" d="M774.05,-708.15C791.48,-707.89 810.11,-707.61 828.54,-707.33"/>
<polygon fill="#757575" stroke="#757575" points="828.81,-710.83 838.76,-707.18 828.71,-703.83 828.81,-710.83"/>
</g>
<!-- dist/redis/common/redis.utils.js -->
<g id="node25" class="node">
<title>dist/redis/common/redis.utils.js</title>
<path fill="none" stroke="#c6c5fe" d="M1049.33,-636.95C1049.33,-636.95 862.67,-636.95 862.67,-636.95 858.83,-636.95 855,-633.12 855,-629.28 855,-629.28 855,-621.62 855,-621.62 855,-617.78 858.83,-613.95 862.67,-613.95 862.67,-613.95 1049.33,-613.95 1049.33,-613.95 1053.17,-613.95 1057,-617.78 1057,-621.62 1057,-621.62 1057,-629.28 1057,-629.28 1057,-633.12 1053.17,-636.95 1049.33,-636.95"/>
<text text-anchor="middle" x="956" y="-621.75" font-family="Arial" font-size="14.00" fill="#c6c5fe">dist/redis/common/redis.utils.js</text>
</g>
<!-- dist/redis/common/index.js&#45;&gt;dist/redis/common/redis.utils.js -->
<g id="edge42" class="edge">
<title>dist/redis/common/index.js&#45;&gt;dist/redis/common/redis.utils.js</title>
<path fill="none" stroke="#757575" d="M723.27,-697.95C771.31,-682.92 855.46,-656.59 908.05,-640.14"/>
<polygon fill="#757575" stroke="#757575" points="909.31,-643.41 917.81,-637.08 907.22,-636.73 909.31,-643.41"/>
</g>
<!-- dist/redis/redis&#45;manager.js&#45;&gt;dist/errors/index.js -->
<g id="edge51" class="edge">
<title>dist/redis/redis&#45;manager.js&#45;&gt;dist/errors/index.js</title>
<path fill="none" stroke="#757575" d="M716.73,-537.76C739.65,-527.77 770.88,-511.66 793,-490.45 815.17,-469.19 807.35,-453.24 829,-431.45 855.52,-404.76 892.86,-383.11 920.01,-369.45"/>
<polygon fill="#757575" stroke="#757575" points="921.72,-372.51 929.15,-364.95 918.63,-366.22 921.72,-372.51"/>
</g>
<!-- dist/redis/redis&#45;manager.js&#45;&gt;dist/utils/index.js -->
<g id="edge53" class="edge">
<title>dist/redis/redis&#45;manager.js&#45;&gt;dist/utils/index.js</title>
<path fill="none" stroke="#757575" d="M773.14,-543.95C853.48,-538.8 976.33,-530.83 1083,-523.45 1115.3,-521.22 1151.14,-518.62 1181.14,-516.42"/>
<polygon fill="#757575" stroke="#757575" points="1181.78,-519.88 1191.5,-515.66 1181.27,-512.9 1181.78,-519.88"/>
</g>
<!-- dist/redis/redis&#45;manager.js&#45;&gt;dist/redis/redis.constants.js -->
<g id="edge52" class="edge">
<title>dist/redis/redis&#45;manager.js&#45;&gt;dist/redis/redis.constants.js</title>
<path fill="none" stroke="#757575" d="M711.85,-561.15C734.26,-572.08 767.27,-589.64 793,-609.45 811.18,-623.45 808.19,-636.78 829,-646.45 940.12,-698.08 1260.14,-655.71 1379,-685.45 1417,-694.96 1457.68,-714.57 1484.23,-728.79"/>
<polygon fill="#757575" stroke="#757575" points="1482.88,-732.04 1493.34,-733.76 1486.23,-725.9 1482.88,-732.04"/>
</g>
<!-- dist/redis/redis.module.js&#45;&gt;dist/errors/index.js -->
<g id="edge54" class="edge">
<title>dist/redis/redis.module.js&#45;&gt;dist/errors/index.js</title>
<path fill="none" stroke="#757575" d="M224.64,-609.9C249.52,-572.42 327.68,-455.97 345,-445.45 515.77,-341.72 761.61,-340.32 882.4,-347.19"/>
<polygon fill="#757575" stroke="#757575" points="882.45,-350.7 892.64,-347.81 882.87,-343.71 882.45,-350.7"/>
</g>
<!-- dist/redis/redis.module.js&#45;&gt;dist/utils/index.js -->
<g id="edge61" class="edge">
<title>dist/redis/redis.module.js&#45;&gt;dist/utils/index.js</title>
<path fill="none" stroke="#757575" d="M240.48,-609.83C265.73,-597.79 307.31,-579.25 345,-568.45 647.41,-481.75 1029.31,-495.82 1181.25,-506.05"/>
<polygon fill="#757575" stroke="#757575" points="1181.14,-509.55 1191.36,-506.75 1181.62,-502.57 1181.14,-509.55"/>
</g>
<!-- dist/redis/redis.module.js&#45;&gt;dist/messages/index.js -->
<g id="edge55" class="edge">
<title>dist/redis/redis.module.js&#45;&gt;dist/messages/index.js</title>
<path fill="none" stroke="#757575" d="M299.14,-618.91C579.86,-609.87 1490.6,-577.34 1614,-532.45 1651.08,-518.96 1686.46,-489.04 1707.07,-469.32"/>
<polygon fill="#757575" stroke="#757575" points="1709.78,-471.56 1714.47,-462.06 1704.88,-466.57 1709.78,-471.56"/>
</g>
<!-- dist/redis/redis.module.js&#45;&gt;dist/redis/common/index.js -->
<g id="edge56" class="edge">
<title>dist/redis/redis.module.js&#45;&gt;dist/redis/common/index.js</title>
<path fill="none" stroke="#757575" d="M235.67,-633.05C259.87,-647.44 303.87,-671.42 345,-682.45 424.44,-703.76 517.8,-709.88 586.48,-711.03"/>
<polygon fill="#757575" stroke="#757575" points="586.81,-714.53 596.86,-711.17 586.91,-707.54 586.81,-714.53"/>
</g>
<!-- dist/redis/redis.module.js&#45;&gt;dist/redis/redis&#45;manager.js -->
<g id="edge58" class="edge">
<title>dist/redis/redis.module.js&#45;&gt;dist/redis/redis&#45;manager.js</title>
<path fill="none" stroke="#757575" d="M291.85,-609.92C375.8,-596.99 511.68,-576.07 599.55,-562.53"/>
<polygon fill="#757575" stroke="#757575" points="600.14,-565.98 609.49,-561 599.07,-559.07 600.14,-565.98"/>
</g>
<!-- dist/redis/redis.module.js&#45;&gt;dist/redis/redis.constants.js -->
<g id="edge59" class="edge">
<title>dist/redis/redis.module.js&#45;&gt;dist/redis/redis.constants.js</title>
<path fill="none" stroke="#757575" d="M225.43,-633.18C244,-658.09 291.09,-716.36 345,-745.45 481.07,-818.88 529.88,-821.45 684.5,-821.45 684.5,-821.45 684.5,-821.45 957,-821.45 1139.13,-821.45 1351.74,-780.99 1453.39,-759.11"/>
<polygon fill="#757575" stroke="#757575" points="1454.14,-762.53 1463.17,-756.99 1452.66,-755.69 1454.14,-762.53"/>
</g>
<!-- dist/redis/redis&#45;logger.js -->
<g id="node26" class="node">
<title>dist/redis/redis&#45;logger.js</title>
<path fill="none" stroke="#c6c5fe" d="M1320.33,-716.95C1320.33,-716.95 1177.67,-716.95 1177.67,-716.95 1173.83,-716.95 1170,-713.12 1170,-709.28 1170,-709.28 1170,-701.62 1170,-701.62 1170,-697.78 1173.83,-693.95 1177.67,-693.95 1177.67,-693.95 1320.33,-693.95 1320.33,-693.95 1324.17,-693.95 1328,-697.78 1328,-701.62 1328,-701.62 1328,-709.28 1328,-709.28 1328,-713.12 1324.17,-716.95 1320.33,-716.95"/>
<text text-anchor="middle" x="1249" y="-701.75" font-family="Arial" font-size="14.00" fill="#c6c5fe">dist/redis/redis&#45;logger.js</text>
</g>
<!-- dist/redis/redis.module.js&#45;&gt;dist/redis/redis&#45;logger.js -->
<g id="edge57" class="edge">
<title>dist/redis/redis.module.js&#45;&gt;dist/redis/redis&#45;logger.js</title>
<path fill="none" stroke="#757575" d="M229.2,-633.14C250.63,-652.85 297.31,-692.25 345,-709.45 646,-817.99 1041.03,-750.92 1188.82,-719.26"/>
<polygon fill="#757575" stroke="#757575" points="1190,-722.58 1199.03,-717.04 1188.52,-715.74 1190,-722.58"/>
</g>
<!-- dist/redis/redis.providers.js -->
<g id="node28" class="node">
<title>dist/redis/redis.providers.js</title>
<path fill="none" stroke="#c6c5fe" d="M523.83,-672.95C523.83,-672.95 363.17,-672.95 363.17,-672.95 359.33,-672.95 355.5,-669.12 355.5,-665.28 355.5,-665.28 355.5,-657.62 355.5,-657.62 355.5,-653.78 359.33,-649.95 363.17,-649.95 363.17,-649.95 523.83,-649.95 523.83,-649.95 527.67,-649.95 531.5,-653.78 531.5,-657.62 531.5,-657.62 531.5,-665.28 531.5,-665.28 531.5,-669.12 527.67,-672.95 523.83,-672.95"/>
<text text-anchor="middle" x="443.5" y="-657.75" font-family="Arial" font-size="14.00" fill="#c6c5fe">dist/redis/redis.providers.js</text>
</g>
<!-- dist/redis/redis.module.js&#45;&gt;dist/redis/redis.providers.js -->
<g id="edge60" class="edge">
<title>dist/redis/redis.module.js&#45;&gt;dist/redis/redis.providers.js</title>
<path fill="none" stroke="#757575" d="M281.92,-632.97C308.69,-637.71 339.87,-643.25 367.6,-648.16"/>
<polygon fill="#757575" stroke="#757575" points="367.19,-651.65 377.65,-649.95 368.41,-644.75 367.19,-651.65"/>
</g>
<!-- dist/redis/common/redis.decorator.js&#45;&gt;dist/utils/index.js -->
<g id="edge44" class="edge">
<title>dist/redis/common/redis.decorator.js&#45;&gt;dist/utils/index.js</title>
<path fill="none" stroke="#757575" d="M986.85,-693.94C1013.08,-683.25 1051.83,-666.07 1083,-646.45 1139.69,-610.76 1198.69,-558.06 1228.4,-530.24"/>
<polygon fill="#757575" stroke="#757575" points="1231.11,-532.5 1235.98,-523.09 1226.31,-527.41 1231.11,-532.5"/>
</g>
<!-- dist/redis/common/redis.decorator.js&#45;&gt;dist/redis/redis.constants.js -->
<g id="edge43" class="edge">
<title>dist/redis/common/redis.decorator.js&#45;&gt;dist/redis/redis.constants.js</title>
<path fill="none" stroke="#757575" d="M1035.96,-716.98C1062.32,-720.49 1091.88,-724.04 1119,-726.45 1219.54,-735.37 1334.9,-740.32 1414.78,-742.91"/>
<polygon fill="#757575" stroke="#757575" points="1414.73,-746.41 1424.84,-743.23 1414.95,-739.41 1414.73,-746.41"/>
</g>
<!-- dist/redis/common/redis.utils.js&#45;&gt;dist/utils/index.js -->
<g id="edge49" class="edge">
<title>dist/redis/common/redis.utils.js&#45;&gt;dist/utils/index.js</title>
<path fill="none" stroke="#757575" d="M986.5,-613.89C1039.34,-593.19 1150.07,-549.81 1209.07,-526.7"/>
<polygon fill="#757575" stroke="#757575" points="1210.38,-529.95 1218.42,-523.04 1207.83,-523.43 1210.38,-529.95"/>
</g>
<!-- dist/redis/common/redis.utils.js&#45;&gt;dist/messages/index.js -->
<g id="edge46" class="edge">
<title>dist/redis/common/redis.utils.js&#45;&gt;dist/messages/index.js</title>
<path fill="none" stroke="#757575" d="M1057.24,-616.14C1077.68,-614.25 1099.03,-612.28 1119,-610.45 1228.99,-600.36 1514.34,-613.07 1614,-565.45 1658.22,-544.32 1694.39,-497.79 1712.65,-470.84"/>
<polygon fill="#757575" stroke="#757575" points="1715.76,-472.47 1718.34,-462.2 1709.92,-468.62 1715.76,-472.47"/>
</g>
<!-- dist/redis/common/redis.utils.js&#45;&gt;dist/constants/index.js -->
<g id="edge45" class="edge">
<title>dist/redis/common/redis.utils.js&#45;&gt;dist/constants/index.js</title>
<path fill="none" stroke="#757575" d="M966.97,-613.75C990.43,-587.09 1052.2,-521.78 1119,-491.45 1133.07,-485.06 1148.78,-480.59 1164.26,-477.46"/>
<polygon fill="#757575" stroke="#757575" points="1165.18,-480.85 1174.38,-475.59 1163.91,-473.96 1165.18,-480.85"/>
</g>
<!-- dist/redis/common/redis.utils.js&#45;&gt;dist/redis/redis.constants.js -->
<g id="edge48" class="edge">
<title>dist/redis/common/redis.utils.js&#45;&gt;dist/redis/redis.constants.js</title>
<path fill="none" stroke="#757575" d="M1057.19,-616.64C1144.64,-612.42 1273.66,-614.69 1379,-651.45 1425.16,-667.56 1469.87,-704.31 1494.33,-726.79"/>
<polygon fill="#757575" stroke="#757575" points="1492.14,-729.53 1501.83,-733.81 1496.93,-724.42 1492.14,-729.53"/>
</g>
<!-- dist/redis/common/redis.utils.js&#45;&gt;dist/redis/redis&#45;logger.js -->
<g id="edge47" class="edge">
<title>dist/redis/common/redis.utils.js&#45;&gt;dist/redis/redis&#45;logger.js</title>
<path fill="none" stroke="#757575" d="M999,-637C1051.12,-651.32 1139.97,-675.75 1196.24,-691.22"/>
<polygon fill="#757575" stroke="#757575" points="1195.44,-694.63 1206.01,-693.91 1197.3,-687.88 1195.44,-694.63"/>
</g>
<!-- dist/redis/redis&#45;logger.js&#45;&gt;dist/redis/redis.constants.js -->
<g id="edge50" class="edge">
<title>dist/redis/redis&#45;logger.js&#45;&gt;dist/redis/redis.constants.js</title>
<path fill="none" stroke="#757575" d="M1325.86,-716.97C1357.69,-721.8 1394.86,-727.44 1427.68,-732.42"/>
<polygon fill="#757575" stroke="#757575" points="1427.31,-735.91 1437.72,-733.95 1428.36,-728.98 1427.31,-735.91"/>
</g>
<!-- dist/redis/default&#45;options.js -->
<g id="node27" class="node">
<title>dist/redis/default&#45;options.js</title>
<path fill="none" stroke="#cfffac" d="M765.83,-640.95C765.83,-640.95 605.17,-640.95 605.17,-640.95 601.33,-640.95 597.5,-637.12 597.5,-633.28 597.5,-633.28 597.5,-625.62 597.5,-625.62 597.5,-621.78 601.33,-617.95 605.17,-617.95 605.17,-617.95 765.83,-617.95 765.83,-617.95 769.67,-617.95 773.5,-621.78 773.5,-625.62 773.5,-625.62 773.5,-633.28 773.5,-633.28 773.5,-637.12 769.67,-640.95 765.83,-640.95"/>
<text text-anchor="middle" x="685.5" y="-625.75" font-family="Arial" font-size="14.00" fill="#cfffac">dist/redis/default&#45;options.js</text>
</g>
<!-- dist/redis/redis.providers.js&#45;&gt;dist/redis/common/index.js -->
<g id="edge62" class="edge">
<title>dist/redis/redis.providers.js&#45;&gt;dist/redis/common/index.js</title>
<path fill="none" stroke="#757575" d="M502.29,-673.01C536.78,-679.91 580.74,-688.7 616.84,-695.92"/>
<polygon fill="#757575" stroke="#757575" points="616.3,-699.38 626.79,-697.91 617.68,-692.52 616.3,-699.38"/>
</g>
<!-- dist/redis/redis.providers.js&#45;&gt;dist/redis/redis&#45;manager.js -->
<g id="edge64" class="edge">
<title>dist/redis/redis.providers.js&#45;&gt;dist/redis/redis&#45;manager.js</title>
<path fill="none" stroke="#757575" d="M469.28,-649.89C512.51,-629.71 601.74,-588.07 650.64,-565.25"/>
<polygon fill="#757575" stroke="#757575" points="652.27,-568.35 659.85,-560.95 649.31,-562.01 652.27,-568.35"/>
</g>
<!-- dist/redis/redis.providers.js&#45;&gt;dist/redis/redis.constants.js -->
<g id="edge65" class="edge">
<title>dist/redis/redis.providers.js&#45;&gt;dist/redis/redis.constants.js</title>
<path fill="none" stroke="#757575" d="M531.53,-651.97C604.77,-647.74 710.47,-650.63 793,-689.45 813.76,-699.21 808.2,-716.77 829,-726.45 1050.77,-829.69 1134.38,-749.27 1379,-747.45 1390.59,-747.36 1402.73,-747.24 1414.79,-747.09"/>
<polygon fill="#757575" stroke="#757575" points="1414.92,-750.58 1424.88,-746.95 1414.83,-743.58 1414.92,-750.58"/>
</g>
<!-- dist/redis/redis.providers.js&#45;&gt;dist/redis/default&#45;options.js -->
<g id="edge63" class="edge">
<title>dist/redis/redis.providers.js&#45;&gt;dist/redis/default&#45;options.js</title>
<path fill="none" stroke="#757575" d="M530.81,-649.94C549.37,-647.47 569.11,-644.83 588.04,-642.31"/>
<polygon fill="#757575" stroke="#757575" points="588.7,-645.75 598.15,-640.96 587.78,-638.82 588.7,-645.75"/>
</g>
<!-- dist/utils/parsers.js&#45;&gt;dist/utils/is.js -->
<g id="edge69" class="edge">
<title>dist/utils/parsers.js&#45;&gt;dist/utils/is.js</title>
<path fill="none" stroke="#757575" d="M1557.24,-522.98C1590.81,-532.25 1638.12,-545.32 1674.03,-555.24"/>
<polygon fill="#757575" stroke="#757575" points="1673.27,-558.65 1683.84,-557.94 1675.13,-551.91 1673.27,-558.65"/>
</g>
<!-- dist/utils/promise&#45;timeout.js&#45;&gt;dist/messages/index.js -->
<g id="edge70" class="edge">
<title>dist/utils/promise&#45;timeout.js&#45;&gt;dist/messages/index.js</title>
<path fill="none" stroke="#757575" d="M1605.17,-461.91C1616.52,-460.83 1628.12,-459.72 1639.41,-458.65"/>
<polygon fill="#757575" stroke="#757575" points="1640.06,-462.1 1649.68,-457.67 1639.39,-455.13 1640.06,-462.1"/>
</g>
<!-- health/index.js -->
<g id="node32" class="node">
<title>health/index.js</title>
<path fill="none" stroke="#c6c5fe" d="M259.83,-476.95C259.83,-476.95 172.17,-476.95 172.17,-476.95 168.33,-476.95 164.5,-473.12 164.5,-469.28 164.5,-469.28 164.5,-461.62 164.5,-461.62 164.5,-457.78 168.33,-453.95 172.17,-453.95 172.17,-453.95 259.83,-453.95 259.83,-453.95 263.67,-453.95 267.5,-457.78 267.5,-461.62 267.5,-461.62 267.5,-469.28 267.5,-469.28 267.5,-473.12 263.67,-476.95 259.83,-476.95"/>
<text text-anchor="middle" x="216" y="-461.75" font-family="Arial" font-size="14.00" fill="#c6c5fe">health/index.js</text>
</g>
<!-- health/index.js&#45;&gt;dist/health/index.js -->
<g id="edge71" class="edge">
<title>health/index.js&#45;&gt;dist/health/index.js</title>
<path fill="none" stroke="#757575" d="M267.61,-465.45C297.5,-465.45 335.86,-465.45 369.04,-465.45"/>
<polygon fill="#757575" stroke="#757575" points="369.15,-468.95 379.15,-465.45 369.15,-461.95 369.15,-468.95"/>
</g>
</g>
</svg>
