<?xml version="1.0" encoding="UTF-8" standalone="no"?>
<!DOCTYPE svg PUBLIC "-//W3C//DTD SVG 1.1//EN"
 "http://www.w3.org/Graphics/SVG/1.1/DTD/svg11.dtd">
<!-- Generated by graphviz version 2.43.0 (0)
 -->
<!-- Title: G Pages: 1 -->
<svg width="1361pt" height="791pt"
 viewBox="0.00 0.00 1361.20 791.39" xmlns="http://www.w3.org/2000/svg" xmlns:xlink="http://www.w3.org/1999/xlink">
<g id="graph0" class="graph" transform="scale(1 1) rotate(0) translate(21.6 769.79)">
<title>G</title>
<polygon fill="#111111" stroke="transparent" points="-21.6,21.6 -21.6,-769.79 1339.6,-769.79 1339.6,21.6 -21.6,21.6"/>
<!-- dist/cluster/cluster&#45;manager.js -->
<g id="node1" class="node">
<title>dist/cluster/cluster&#45;manager.js</title>
<path fill="none" stroke="#c6c5fe" d="M1046.33,-286.69C1046.33,-286.69 865.67,-286.69 865.67,-286.69 861.83,-286.69 858,-282.86 858,-279.03 858,-279.03 858,-271.36 858,-271.36 858,-267.53 861.83,-263.69 865.67,-263.69 865.67,-263.69 1046.33,-263.69 1046.33,-263.69 1050.17,-263.69 1054,-267.53 1054,-271.36 1054,-271.36 1054,-279.03 1054,-279.03 1054,-282.86 1050.17,-286.69 1046.33,-286.69"/>
<text text-anchor="middle" x="956" y="-271.49" font-family="Arial" font-size="14.00" fill="#c6c5fe">dist/cluster/cluster&#45;manager.js</text>
</g>
<!-- dist/cluster/cluster.constants.js -->
<g id="node2" class="node">
<title>dist/cluster/cluster.constants.js</title>
<path fill="none" stroke="#cfffac" d="M1310.33,-145.69C1310.33,-145.69 1126.67,-145.69 1126.67,-145.69 1122.83,-145.69 1119,-141.86 1119,-138.03 1119,-138.03 1119,-130.36 1119,-130.36 1119,-126.53 1122.83,-122.69 1126.67,-122.69 1126.67,-122.69 1310.33,-122.69 1310.33,-122.69 1314.17,-122.69 1318,-126.53 1318,-130.36 1318,-130.36 1318,-138.03 1318,-138.03 1318,-141.86 1314.17,-145.69 1310.33,-145.69"/>
<text text-anchor="middle" x="1218.5" y="-130.49" font-family="Arial" font-size="14.00" fill="#cfffac">dist/cluster/cluster.constants.js</text>
</g>
<!-- dist/cluster/cluster&#45;manager.js&#45;&gt;dist/cluster/cluster.constants.js -->
<g id="edge1" class="edge">
<title>dist/cluster/cluster&#45;manager.js&#45;&gt;dist/cluster/cluster.constants.js</title>
<path fill="none" stroke="#757575" d="M983.43,-263.52C1009.19,-251.93 1049.28,-233.32 1083,-215.19 1121.4,-194.55 1164.31,-168.09 1191.11,-151.14"/>
<polygon fill="#757575" stroke="#757575" points="1192.99,-154.09 1199.55,-145.77 1189.23,-148.18 1192.99,-154.09"/>
</g>
<!-- dist/messages/index.js -->
<g id="node3" class="node">
<title>dist/messages/index.js</title>
<path fill="none" stroke="#cfffac" d="M1287.33,-404.69C1287.33,-404.69 1149.67,-404.69 1149.67,-404.69 1145.83,-404.69 1142,-400.86 1142,-397.03 1142,-397.03 1142,-389.36 1142,-389.36 1142,-385.53 1145.83,-381.69 1149.67,-381.69 1149.67,-381.69 1287.33,-381.69 1287.33,-381.69 1291.17,-381.69 1295,-385.53 1295,-389.36 1295,-389.36 1295,-397.03 1295,-397.03 1295,-400.86 1291.17,-404.69 1287.33,-404.69"/>
<text text-anchor="middle" x="1218.5" y="-389.49" font-family="Arial" font-size="14.00" fill="#cfffac">dist/messages/index.js</text>
</g>
<!-- dist/cluster/cluster&#45;manager.js&#45;&gt;dist/messages/index.js -->
<g id="edge2" class="edge">
<title>dist/cluster/cluster&#45;manager.js&#45;&gt;dist/messages/index.js</title>
<path fill="none" stroke="#757575" d="M1043.42,-286.75C1057.07,-290.33 1070.72,-295.03 1083,-301.19 1102.13,-310.8 1101.79,-320.46 1119,-333.19 1140.82,-349.33 1167.14,-365.2 1187.09,-376.56"/>
<polygon fill="#757575" stroke="#757575" points="1185.61,-379.75 1196.04,-381.6 1189.04,-373.65 1185.61,-379.75"/>
</g>
<!-- dist/utils/index.js -->
<g id="node4" class="node">
<title>dist/utils/index.js</title>
<path fill="none" stroke="#cfffac" d="M1268.33,-324.69C1268.33,-324.69 1168.67,-324.69 1168.67,-324.69 1164.83,-324.69 1161,-320.86 1161,-317.03 1161,-317.03 1161,-309.36 1161,-309.36 1161,-305.53 1164.83,-301.69 1168.67,-301.69 1168.67,-301.69 1268.33,-301.69 1268.33,-301.69 1272.17,-301.69 1276,-305.53 1276,-309.36 1276,-309.36 1276,-317.03 1276,-317.03 1276,-320.86 1272.17,-324.69 1268.33,-324.69"/>
<text text-anchor="middle" x="1218.5" y="-309.49" font-family="Arial" font-size="14.00" fill="#cfffac">dist/utils/index.js</text>
</g>
<!-- dist/cluster/cluster&#45;manager.js&#45;&gt;dist/utils/index.js -->
<g id="edge3" class="edge">
<title>dist/cluster/cluster&#45;manager.js&#45;&gt;dist/utils/index.js</title>
<path fill="none" stroke="#757575" d="M1035.87,-286.7C1072.53,-292.05 1115.66,-298.34 1150.69,-303.45"/>
<polygon fill="#757575" stroke="#757575" points="1150.42,-306.95 1160.82,-304.93 1151.43,-300.02 1150.42,-306.95"/>
</g>
<!-- dist/cluster/cluster.module.js -->
<g id="node5" class="node">
<title>dist/cluster/cluster.module.js</title>
<path fill="none" stroke="#c6c5fe" d="M301.33,-212.69C301.33,-212.69 130.67,-212.69 130.67,-212.69 126.83,-212.69 123,-208.86 123,-205.03 123,-205.03 123,-197.36 123,-197.36 123,-193.53 126.83,-189.69 130.67,-189.69 130.67,-189.69 301.33,-189.69 301.33,-189.69 305.17,-189.69 309,-193.53 309,-197.36 309,-197.36 309,-205.03 309,-205.03 309,-208.86 305.17,-212.69 301.33,-212.69"/>
<text text-anchor="middle" x="216" y="-197.49" font-family="Arial" font-size="14.00" fill="#c6c5fe">dist/cluster/cluster.module.js</text>
</g>
<!-- dist/cluster/cluster.module.js&#45;&gt;dist/cluster/cluster&#45;manager.js -->
<g id="edge4" class="edge">
<title>dist/cluster/cluster.module.js&#45;&gt;dist/cluster/cluster&#45;manager.js</title>
<path fill="none" stroke="#757575" d="M309.28,-211.41C321.29,-212.7 333.44,-213.99 345,-215.19 521.04,-233.48 725.83,-253.33 847.69,-265"/>
<polygon fill="#757575" stroke="#757575" points="847.48,-268.49 857.77,-265.96 848.15,-261.52 847.48,-268.49"/>
</g>
<!-- dist/cluster/cluster.module.js&#45;&gt;dist/cluster/cluster.constants.js -->
<g id="edge5" class="edge">
<title>dist/cluster/cluster.module.js&#45;&gt;dist/cluster/cluster.constants.js</title>
<path fill="none" stroke="#757575" d="M226.86,-189.44C246.65,-166.76 293.71,-117.14 345,-94.19 440.53,-51.47 473.62,-67.77 578,-60.19 673.3,-53.28 697.8,-51.96 793,-60.19 924.47,-71.57 1076.3,-102.4 1158.02,-120.48"/>
<polygon fill="#757575" stroke="#757575" points="1157.35,-123.91 1167.87,-122.67 1158.87,-117.08 1157.35,-123.91"/>
</g>
<!-- dist/cluster/cluster.module.js&#45;&gt;dist/messages/index.js -->
<g id="edge8" class="edge">
<title>dist/cluster/cluster.module.js&#45;&gt;dist/messages/index.js</title>
<path fill="none" stroke="#757575" d="M252.02,-212.77C277.59,-220.93 313.19,-231.69 345,-239.19 495.77,-274.76 949.41,-349.69 1135.99,-380.03"/>
<polygon fill="#757575" stroke="#757575" points="1135.58,-383.51 1146.01,-381.66 1136.7,-376.6 1135.58,-383.51"/>
</g>
<!-- dist/cluster/cluster.module.js&#45;&gt;dist/utils/index.js -->
<g id="edge9" class="edge">
<title>dist/cluster/cluster.module.js&#45;&gt;dist/utils/index.js</title>
<path fill="none" stroke="#757575" d="M309.01,-202.63C501.02,-206.3 938.52,-218.43 1083,-254.19 1120.7,-263.53 1161.14,-282.64 1187.73,-296.59"/>
<polygon fill="#757575" stroke="#757575" points="1186.39,-299.84 1196.86,-301.47 1189.69,-293.67 1186.39,-299.84"/>
</g>
<!-- dist/cluster/cluster.providers.js -->
<g id="node6" class="node">
<title>dist/cluster/cluster.providers.js</title>
<path fill="none" stroke="#c6c5fe" d="M534.33,-172.69C534.33,-172.69 352.67,-172.69 352.67,-172.69 348.83,-172.69 345,-168.86 345,-165.03 345,-165.03 345,-157.36 345,-157.36 345,-153.53 348.83,-149.69 352.67,-149.69 352.67,-149.69 534.33,-149.69 534.33,-149.69 538.17,-149.69 542,-153.53 542,-157.36 542,-157.36 542,-165.03 542,-165.03 542,-168.86 538.17,-172.69 534.33,-172.69"/>
<text text-anchor="middle" x="443.5" y="-157.49" font-family="Arial" font-size="14.00" fill="#c6c5fe">dist/cluster/cluster.providers.js</text>
</g>
<!-- dist/cluster/cluster.module.js&#45;&gt;dist/cluster/cluster.providers.js -->
<g id="edge6" class="edge">
<title>dist/cluster/cluster.module.js&#45;&gt;dist/cluster/cluster.providers.js</title>
<path fill="none" stroke="#757575" d="M281.92,-189.68C308.69,-184.93 339.87,-179.4 367.6,-174.48"/>
<polygon fill="#757575" stroke="#757575" points="368.41,-177.89 377.65,-172.7 367.19,-171 368.41,-177.89"/>
</g>
<!-- dist/cluster/common/index.js -->
<g id="node7" class="node">
<title>dist/cluster/common/index.js</title>
<path fill="none" stroke="#c6c5fe" d="M771.83,-92.69C771.83,-92.69 599.17,-92.69 599.17,-92.69 595.33,-92.69 591.5,-88.86 591.5,-85.03 591.5,-85.03 591.5,-77.36 591.5,-77.36 591.5,-73.53 595.33,-69.69 599.17,-69.69 599.17,-69.69 771.83,-69.69 771.83,-69.69 775.67,-69.69 779.5,-73.53 779.5,-77.36 779.5,-77.36 779.5,-85.03 779.5,-85.03 779.5,-88.86 775.67,-92.69 771.83,-92.69"/>
<text text-anchor="middle" x="685.5" y="-77.49" font-family="Arial" font-size="14.00" fill="#c6c5fe">dist/cluster/common/index.js</text>
</g>
<!-- dist/cluster/cluster.module.js&#45;&gt;dist/cluster/common/index.js -->
<g id="edge7" class="edge">
<title>dist/cluster/cluster.module.js&#45;&gt;dist/cluster/common/index.js</title>
<path fill="none" stroke="#757575" d="M237.13,-189.47C261.76,-175.63 305.13,-152.9 345,-140.19 422.26,-115.58 512.88,-100.49 581.05,-91.74"/>
<polygon fill="#757575" stroke="#757575" points="581.89,-95.17 591.37,-90.44 581.01,-88.22 581.89,-95.17"/>
</g>
<!-- dist/cluster/cluster.providers.js&#45;&gt;dist/cluster/cluster&#45;manager.js -->
<g id="edge10" class="edge">
<title>dist/cluster/cluster.providers.js&#45;&gt;dist/cluster/cluster&#45;manager.js</title>
<path fill="none" stroke="#757575" d="M496.26,-172.75C591.07,-193.93 792.19,-238.84 893.68,-261.5"/>
<polygon fill="#757575" stroke="#757575" points="892.96,-264.93 903.48,-263.69 894.49,-258.1 892.96,-264.93"/>
</g>
<!-- dist/cluster/cluster.providers.js&#45;&gt;dist/cluster/cluster.constants.js -->
<g id="edge11" class="edge">
<title>dist/cluster/cluster.providers.js&#45;&gt;dist/cluster/cluster.constants.js</title>
<path fill="none" stroke="#757575" d="M507.11,-149.65C529.41,-145.99 554.75,-142.34 578,-140.19 763.82,-123.06 981.3,-125.84 1108.76,-129.77"/>
<polygon fill="#757575" stroke="#757575" points="1108.81,-133.27 1118.92,-130.09 1109.04,-126.27 1108.81,-133.27"/>
</g>
<!-- dist/cluster/cluster.providers.js&#45;&gt;dist/cluster/common/index.js -->
<g id="edge12" class="edge">
<title>dist/cluster/cluster.providers.js&#45;&gt;dist/cluster/common/index.js</title>
<path fill="none" stroke="#757575" d="M503.12,-149.63C516.28,-145.94 529.92,-141.19 542,-135.19 560.16,-126.18 559.75,-116.02 578,-107.19 587.64,-102.53 598.19,-98.67 608.78,-95.47"/>
<polygon fill="#757575" stroke="#757575" points="609.83,-98.81 618.5,-92.71 607.92,-92.07 609.83,-98.81"/>
</g>
<!-- dist/cluster/default&#45;options.js -->
<g id="node8" class="node">
<title>dist/cluster/default&#45;options.js</title>
<path fill="none" stroke="#cfffac" d="M771.33,-172.69C771.33,-172.69 599.67,-172.69 599.67,-172.69 595.83,-172.69 592,-168.86 592,-165.03 592,-165.03 592,-157.36 592,-157.36 592,-153.53 595.83,-149.69 599.67,-149.69 599.67,-149.69 771.33,-149.69 771.33,-149.69 775.17,-149.69 779,-153.53 779,-157.36 779,-157.36 779,-165.03 779,-165.03 779,-168.86 775.17,-172.69 771.33,-172.69"/>
<text text-anchor="middle" x="685.5" y="-157.49" font-family="Arial" font-size="14.00" fill="#cfffac">dist/cluster/default&#45;options.js</text>
</g>
<!-- dist/cluster/cluster.providers.js&#45;&gt;dist/cluster/default&#45;options.js -->
<g id="edge13" class="edge">
<title>dist/cluster/cluster.providers.js&#45;&gt;dist/cluster/default&#45;options.js</title>
<path fill="none" stroke="#757575" d="M542.12,-161.19C555.02,-161.19 568.28,-161.19 581.27,-161.19"/>
<polygon fill="#757575" stroke="#757575" points="581.62,-164.69 591.62,-161.19 581.62,-157.69 581.62,-164.69"/>
</g>
<!-- dist/cluster/common/cluster.decorator.js -->
<g id="node9" class="node">
<title>dist/cluster/common/cluster.decorator.js</title>
<path fill="none" stroke="#c6c5fe" d="M1075.33,-165.69C1075.33,-165.69 836.67,-165.69 836.67,-165.69 832.83,-165.69 829,-161.86 829,-158.03 829,-158.03 829,-150.36 829,-150.36 829,-146.53 832.83,-142.69 836.67,-142.69 836.67,-142.69 1075.33,-142.69 1075.33,-142.69 1079.17,-142.69 1083,-146.53 1083,-150.36 1083,-150.36 1083,-158.03 1083,-158.03 1083,-161.86 1079.17,-165.69 1075.33,-165.69"/>
<text text-anchor="middle" x="956" y="-150.49" font-family="Arial" font-size="14.00" fill="#c6c5fe">dist/cluster/common/cluster.decorator.js</text>
</g>
<!-- dist/cluster/common/index.js&#45;&gt;dist/cluster/common/cluster.decorator.js -->
<g id="edge19" class="edge">
<title>dist/cluster/common/index.js&#45;&gt;dist/cluster/common/cluster.decorator.js</title>
<path fill="none" stroke="#757575" d="M729.04,-92.76C776.18,-105.58 852.2,-126.25 902.87,-140.02"/>
<polygon fill="#757575" stroke="#757575" points="902.09,-143.44 912.65,-142.68 903.92,-136.68 902.09,-143.44"/>
</g>
<!-- dist/cluster/common/cluster.utils.js -->
<g id="node10" class="node">
<title>dist/cluster/common/cluster.utils.js</title>
<path fill="none" stroke="#c6c5fe" d="M1059.33,-206.69C1059.33,-206.69 852.67,-206.69 852.67,-206.69 848.83,-206.69 845,-202.86 845,-199.03 845,-199.03 845,-191.36 845,-191.36 845,-187.53 848.83,-183.69 852.67,-183.69 852.67,-183.69 1059.33,-183.69 1059.33,-183.69 1063.17,-183.69 1067,-187.53 1067,-191.36 1067,-191.36 1067,-199.03 1067,-199.03 1067,-202.86 1063.17,-206.69 1059.33,-206.69"/>
<text text-anchor="middle" x="956" y="-191.49" font-family="Arial" font-size="14.00" fill="#c6c5fe">dist/cluster/common/cluster.utils.js</text>
</g>
<!-- dist/cluster/common/index.js&#45;&gt;dist/cluster/common/cluster.utils.js -->
<g id="edge20" class="edge">
<title>dist/cluster/common/index.js&#45;&gt;dist/cluster/common/cluster.utils.js</title>
<path fill="none" stroke="#757575" d="M711.67,-92.89C733.95,-103.76 766.89,-121.11 793,-140.19 810.77,-153.18 809.29,-164.4 829,-174.19 833.6,-176.48 838.4,-178.52 843.32,-180.35"/>
<polygon fill="#757575" stroke="#757575" points="842.33,-183.71 852.92,-183.6 844.57,-177.08 842.33,-183.71"/>
</g>
<!-- dist/cluster/common/cluster.decorator.js&#45;&gt;dist/cluster/cluster.constants.js -->
<g id="edge14" class="edge">
<title>dist/cluster/common/cluster.decorator.js&#45;&gt;dist/cluster/cluster.constants.js</title>
<path fill="none" stroke="#757575" d="M1083.05,-144.52C1091.55,-143.86 1100.07,-143.21 1108.46,-142.57"/>
<polygon fill="#757575" stroke="#757575" points="1108.93,-146.04 1118.64,-141.79 1108.4,-139.06 1108.93,-146.04"/>
</g>
<!-- dist/cluster/common/cluster.decorator.js&#45;&gt;dist/utils/index.js -->
<g id="edge15" class="edge">
<title>dist/cluster/common/cluster.decorator.js&#45;&gt;dist/utils/index.js</title>
<path fill="none" stroke="#757575" d="M1062.82,-165.71C1069.82,-168.07 1076.61,-170.87 1083,-174.19 1137.77,-202.68 1183.24,-261.94 1204.52,-293.08"/>
<polygon fill="#757575" stroke="#757575" points="1201.63,-295.06 1210.1,-301.43 1207.45,-291.17 1201.63,-295.06"/>
</g>
<!-- dist/cluster/common/cluster.utils.js&#45;&gt;dist/cluster/cluster.constants.js -->
<g id="edge16" class="edge">
<title>dist/cluster/common/cluster.utils.js&#45;&gt;dist/cluster/cluster.constants.js</title>
<path fill="none" stroke="#757575" d="M1035.6,-183.64C1051.37,-180.89 1067.77,-177.72 1083,-174.19 1113.52,-167.14 1147.31,-157.08 1173.39,-148.82"/>
<polygon fill="#757575" stroke="#757575" points="1174.52,-152.13 1182.98,-145.75 1172.39,-145.46 1174.52,-152.13"/>
</g>
<!-- dist/cluster/common/cluster.utils.js&#45;&gt;dist/messages/index.js -->
<g id="edge17" class="edge">
<title>dist/cluster/common/cluster.utils.js&#45;&gt;dist/messages/index.js</title>
<path fill="none" stroke="#757575" d="M999.46,-206.74C1026.28,-215.88 1060.06,-231.02 1083,-254.19 1110.14,-281.62 1093.39,-304.33 1119,-333.19 1135.75,-352.07 1159.88,-366.91 1180.07,-377.1"/>
<polygon fill="#757575" stroke="#757575" points="1178.79,-380.37 1189.32,-381.59 1181.85,-374.08 1178.79,-380.37"/>
</g>
<!-- dist/cluster/common/cluster.utils.js&#45;&gt;dist/utils/index.js -->
<g id="edge18" class="edge">
<title>dist/cluster/common/cluster.utils.js&#45;&gt;dist/utils/index.js</title>
<path fill="none" stroke="#757575" d="M1037.1,-206.74C1052.67,-210.37 1068.61,-215.08 1083,-221.19 1126.98,-239.88 1171.48,-273.96 1196.66,-294.98"/>
<polygon fill="#757575" stroke="#757575" points="1194.54,-297.77 1204.43,-301.57 1199.07,-292.44 1194.54,-297.77"/>
</g>
<!-- dist/health/index.js -->
<g id="node11" class="node">
<title>dist/health/index.js</title>
<path fill="none" stroke="#c6c5fe" d="M499.83,-443.69C499.83,-443.69 387.17,-443.69 387.17,-443.69 383.33,-443.69 379.5,-439.86 379.5,-436.03 379.5,-436.03 379.5,-428.36 379.5,-428.36 379.5,-424.53 383.33,-420.69 387.17,-420.69 387.17,-420.69 499.83,-420.69 499.83,-420.69 503.67,-420.69 507.5,-424.53 507.5,-428.36 507.5,-428.36 507.5,-436.03 507.5,-436.03 507.5,-439.86 503.67,-443.69 499.83,-443.69"/>
<text text-anchor="middle" x="443.5" y="-428.49" font-family="Arial" font-size="14.00" fill="#c6c5fe">dist/health/index.js</text>
</g>
<!-- dist/health/indicators/redis.health.js -->
<g id="node12" class="node">
<title>dist/health/indicators/redis.health.js</title>
<path fill="none" stroke="#c6c5fe" d="M1061.83,-404.69C1061.83,-404.69 850.17,-404.69 850.17,-404.69 846.33,-404.69 842.5,-400.86 842.5,-397.03 842.5,-397.03 842.5,-389.36 842.5,-389.36 842.5,-385.53 846.33,-381.69 850.17,-381.69 850.17,-381.69 1061.83,-381.69 1061.83,-381.69 1065.67,-381.69 1069.5,-385.53 1069.5,-389.36 1069.5,-389.36 1069.5,-397.03 1069.5,-397.03 1069.5,-400.86 1065.67,-404.69 1061.83,-404.69"/>
<text text-anchor="middle" x="956" y="-389.49" font-family="Arial" font-size="14.00" fill="#c6c5fe">dist/health/indicators/redis.health.js</text>
</g>
<!-- dist/health/index.js&#45;&gt;dist/health/indicators/redis.health.js -->
<g id="edge21" class="edge">
<title>dist/health/index.js&#45;&gt;dist/health/indicators/redis.health.js</title>
<path fill="none" stroke="#757575" d="M507.61,-427.37C588.29,-421.21 729.75,-410.4 832.04,-402.59"/>
<polygon fill="#757575" stroke="#757575" points="832.42,-406.07 842.13,-401.82 831.89,-399.09 832.42,-406.07"/>
</g>
<!-- dist/health/redis&#45;health.module.js -->
<g id="node13" class="node">
<title>dist/health/redis&#45;health.module.js</title>
<path fill="none" stroke="#c6c5fe" d="M785.33,-480.69C785.33,-480.69 585.67,-480.69 585.67,-480.69 581.83,-480.69 578,-476.86 578,-473.03 578,-473.03 578,-465.36 578,-465.36 578,-461.53 581.83,-457.69 585.67,-457.69 585.67,-457.69 785.33,-457.69 785.33,-457.69 789.17,-457.69 793,-461.53 793,-465.36 793,-465.36 793,-473.03 793,-473.03 793,-476.86 789.17,-480.69 785.33,-480.69"/>
<text text-anchor="middle" x="685.5" y="-465.49" font-family="Arial" font-size="14.00" fill="#c6c5fe">dist/health/redis&#45;health.module.js</text>
</g>
<!-- dist/health/index.js&#45;&gt;dist/health/redis&#45;health.module.js -->
<g id="edge22" class="edge">
<title>dist/health/index.js&#45;&gt;dist/health/redis&#45;health.module.js</title>
<path fill="none" stroke="#757575" d="M507.56,-441.92C535.63,-446.24 569.12,-451.41 599.37,-456.07"/>
<polygon fill="#757575" stroke="#757575" points="599.08,-459.57 609.49,-457.63 600.14,-452.65 599.08,-459.57"/>
</g>
<!-- dist/health/indicators/redis.health.js&#45;&gt;dist/messages/index.js -->
<g id="edge23" class="edge">
<title>dist/health/indicators/redis.health.js&#45;&gt;dist/messages/index.js</title>
<path fill="none" stroke="#757575" d="M1069.74,-393.19C1090.47,-393.19 1111.8,-393.19 1131.58,-393.19"/>
<polygon fill="#757575" stroke="#757575" points="1131.77,-396.69 1141.77,-393.19 1131.77,-389.69 1131.77,-396.69"/>
</g>
<!-- dist/health/redis&#45;health.module.js&#45;&gt;dist/health/indicators/redis.health.js -->
<g id="edge24" class="edge">
<title>dist/health/redis&#45;health.module.js&#45;&gt;dist/health/indicators/redis.health.js</title>
<path fill="none" stroke="#757575" d="M749.37,-457.69C764.02,-453.97 779.32,-449.2 793,-443.19 810.61,-435.46 811.26,-426.61 829,-419.19 840.55,-414.37 853.07,-410.41 865.6,-407.17"/>
<polygon fill="#757575" stroke="#757575" points="866.74,-410.5 875.62,-404.73 865.08,-403.7 866.74,-410.5"/>
</g>
<!-- dist/index.js -->
<g id="node14" class="node">
<title>dist/index.js</title>
<path fill="none" stroke="#c6c5fe" d="M79.33,-423.69C79.33,-423.69 7.67,-423.69 7.67,-423.69 3.83,-423.69 0,-419.86 0,-416.03 0,-416.03 0,-408.36 0,-408.36 0,-404.53 3.83,-400.69 7.67,-400.69 7.67,-400.69 79.33,-400.69 79.33,-400.69 83.17,-400.69 87,-404.53 87,-408.36 87,-408.36 87,-416.03 87,-416.03 87,-419.86 83.17,-423.69 79.33,-423.69"/>
<text text-anchor="middle" x="43.5" y="-408.49" font-family="Arial" font-size="14.00" fill="#c6c5fe">dist/index.js</text>
</g>
<!-- dist/index.js&#45;&gt;dist/cluster/cluster&#45;manager.js -->
<g id="edge25" class="edge">
<title>dist/index.js&#45;&gt;dist/cluster/cluster&#45;manager.js</title>
<path fill="none" stroke="#757575" d="M87.19,-405.77C227.77,-384.62 678.04,-316.87 868.56,-288.2"/>
<polygon fill="#757575" stroke="#757575" points="869.16,-291.65 878.53,-286.7 868.12,-284.73 869.16,-291.65"/>
</g>
<!-- dist/index.js&#45;&gt;dist/cluster/cluster.constants.js -->
<g id="edge26" class="edge">
<title>dist/index.js&#45;&gt;dist/cluster/cluster.constants.js</title>
<path fill="none" stroke="#757575" d="M45.64,-400.49C51.09,-347.11 76.09,-127.31 123,-80.19 226.06,23.31 296.43,-3.19 442.5,-3.19 442.5,-3.19 442.5,-3.19 686.5,-3.19 864.53,-3.19 914.17,-3.7 1083,-60.19 1123.7,-73.81 1166.41,-99.57 1192.5,-116.82"/>
<polygon fill="#757575" stroke="#757575" points="1190.75,-119.86 1201,-122.53 1194.65,-114.05 1190.75,-119.86"/>
</g>
<!-- dist/index.js&#45;&gt;dist/cluster/cluster.module.js -->
<g id="edge27" class="edge">
<title>dist/index.js&#45;&gt;dist/cluster/cluster.module.js</title>
<path fill="none" stroke="#757575" d="M53.91,-400.55C81.8,-366.04 164.23,-264.02 199.12,-220.85"/>
<polygon fill="#757575" stroke="#757575" points="202.06,-222.78 205.62,-212.8 196.61,-218.38 202.06,-222.78"/>
</g>
<!-- dist/index.js&#45;&gt;dist/cluster/common/index.js -->
<g id="edge28" class="edge">
<title>dist/index.js&#45;&gt;dist/cluster/common/index.js</title>
<path fill="none" stroke="#757575" d="M45.06,-400.54C47.47,-363.25 59.96,-245.52 123,-180.19 247.36,-51.34 476.38,-55.17 600.02,-68.49"/>
<polygon fill="#757575" stroke="#757575" points="599.86,-72 610.19,-69.64 600.65,-65.04 599.86,-72"/>
</g>
<!-- dist/redis/common/index.js -->
<g id="node15" class="node">
<title>dist/redis/common/index.js</title>
<path fill="none" stroke="#c6c5fe" d="M766.33,-521.69C766.33,-521.69 604.67,-521.69 604.67,-521.69 600.83,-521.69 597,-517.86 597,-514.03 597,-514.03 597,-506.36 597,-506.36 597,-502.53 600.83,-498.69 604.67,-498.69 604.67,-498.69 766.33,-498.69 766.33,-498.69 770.17,-498.69 774,-502.53 774,-506.36 774,-506.36 774,-514.03 774,-514.03 774,-517.86 770.17,-521.69 766.33,-521.69"/>
<text text-anchor="middle" x="685.5" y="-506.49" font-family="Arial" font-size="14.00" fill="#c6c5fe">dist/redis/common/index.js</text>
</g>
<!-- dist/index.js&#45;&gt;dist/redis/common/index.js -->
<g id="edge29" class="edge">
<title>dist/index.js&#45;&gt;dist/redis/common/index.js</title>
<path fill="none" stroke="#757575" d="M62.41,-423.75C77.83,-433.08 101,-445.7 123,-452.19 280.84,-498.8 473.22,-509.22 586.9,-510.87"/>
<polygon fill="#757575" stroke="#757575" points="586.94,-514.37 596.98,-511 587.02,-507.37 586.94,-514.37"/>
</g>
<!-- dist/redis/redis&#45;manager.js -->
<g id="node16" class="node">
<title>dist/redis/redis&#45;manager.js</title>
<path fill="none" stroke="#c6c5fe" d="M765.33,-681.69C765.33,-681.69 605.67,-681.69 605.67,-681.69 601.83,-681.69 598,-677.86 598,-674.03 598,-674.03 598,-666.36 598,-666.36 598,-662.53 601.83,-658.69 605.67,-658.69 605.67,-658.69 765.33,-658.69 765.33,-658.69 769.17,-658.69 773,-662.53 773,-666.36 773,-666.36 773,-674.03 773,-674.03 773,-677.86 769.17,-681.69 765.33,-681.69"/>
<text text-anchor="middle" x="685.5" y="-666.49" font-family="Arial" font-size="14.00" fill="#c6c5fe">dist/redis/redis&#45;manager.js</text>
</g>
<!-- dist/index.js&#45;&gt;dist/redis/redis&#45;manager.js -->
<g id="edge30" class="edge">
<title>dist/index.js&#45;&gt;dist/redis/redis&#45;manager.js</title>
<path fill="none" stroke="#757575" d="M47.07,-424.02C54.03,-453.17 75.93,-529.1 123,-570.19 252.5,-683.26 464.61,-688.96 587.72,-680.92"/>
<polygon fill="#757575" stroke="#757575" points="588.15,-684.4 597.88,-680.21 587.66,-677.41 588.15,-684.4"/>
</g>
<!-- dist/redis/redis.constants.js -->
<g id="node17" class="node">
<title>dist/redis/redis.constants.js</title>
<path fill="none" stroke="#cfffac" d="M1300.33,-660.69C1300.33,-660.69 1136.67,-660.69 1136.67,-660.69 1132.83,-660.69 1129,-656.86 1129,-653.03 1129,-653.03 1129,-645.36 1129,-645.36 1129,-641.53 1132.83,-637.69 1136.67,-637.69 1136.67,-637.69 1300.33,-637.69 1300.33,-637.69 1304.17,-637.69 1308,-641.53 1308,-645.36 1308,-645.36 1308,-653.03 1308,-653.03 1308,-656.86 1304.17,-660.69 1300.33,-660.69"/>
<text text-anchor="middle" x="1218.5" y="-645.49" font-family="Arial" font-size="14.00" fill="#cfffac">dist/redis/redis.constants.js</text>
</g>
<!-- dist/index.js&#45;&gt;dist/redis/redis.constants.js -->
<g id="edge31" class="edge">
<title>dist/index.js&#45;&gt;dist/redis/redis.constants.js</title>
<path fill="none" stroke="#757575" d="M45.34,-423.94C48.52,-459.88 62.94,-569.65 123,-630.19 229.6,-737.67 291.12,-748.19 442.5,-748.19 442.5,-748.19 442.5,-748.19 686.5,-748.19 864.01,-748.19 910.64,-742.64 1083,-700.19 1117.99,-691.58 1156.26,-676.48 1183,-664.93"/>
<polygon fill="#757575" stroke="#757575" points="1184.55,-668.08 1192.3,-660.86 1181.74,-661.66 1184.55,-668.08"/>
</g>
<!-- dist/redis/redis.module.js -->
<g id="node18" class="node">
<title>dist/redis/redis.module.js</title>
<path fill="none" stroke="#c6c5fe" d="M291.33,-561.69C291.33,-561.69 140.67,-561.69 140.67,-561.69 136.83,-561.69 133,-557.86 133,-554.03 133,-554.03 133,-546.36 133,-546.36 133,-542.53 136.83,-538.69 140.67,-538.69 140.67,-538.69 291.33,-538.69 291.33,-538.69 295.17,-538.69 299,-542.53 299,-546.36 299,-546.36 299,-554.03 299,-554.03 299,-557.86 295.17,-561.69 291.33,-561.69"/>
<text text-anchor="middle" x="216" y="-546.49" font-family="Arial" font-size="14.00" fill="#c6c5fe">dist/redis/redis.module.js</text>
</g>
<!-- dist/index.js&#45;&gt;dist/redis/redis.module.js -->
<g id="edge32" class="edge">
<title>dist/index.js&#45;&gt;dist/redis/redis.module.js</title>
<path fill="none" stroke="#757575" d="M55.41,-423.73C70.11,-439 97.38,-466.41 123,-487.19 143.67,-503.96 168.68,-520.89 187.4,-532.97"/>
<polygon fill="#757575" stroke="#757575" points="185.73,-536.06 196.04,-538.49 189.5,-530.16 185.73,-536.06"/>
</g>
<!-- dist/redis/common/redis.decorator.js -->
<g id="node19" class="node">
<title>dist/redis/common/redis.decorator.js</title>
<path fill="none" stroke="#c6c5fe" d="M1065.33,-525.69C1065.33,-525.69 846.67,-525.69 846.67,-525.69 842.83,-525.69 839,-521.86 839,-518.03 839,-518.03 839,-510.36 839,-510.36 839,-506.53 842.83,-502.69 846.67,-502.69 846.67,-502.69 1065.33,-502.69 1065.33,-502.69 1069.17,-502.69 1073,-506.53 1073,-510.36 1073,-510.36 1073,-518.03 1073,-518.03 1073,-521.86 1069.17,-525.69 1065.33,-525.69"/>
<text text-anchor="middle" x="956" y="-510.49" font-family="Arial" font-size="14.00" fill="#c6c5fe">dist/redis/common/redis.decorator.js</text>
</g>
<!-- dist/redis/common/index.js&#45;&gt;dist/redis/common/redis.decorator.js -->
<g id="edge33" class="edge">
<title>dist/redis/common/index.js&#45;&gt;dist/redis/common/redis.decorator.js</title>
<path fill="none" stroke="#757575" d="M774.05,-511.5C791.48,-511.76 810.11,-512.04 828.54,-512.31"/>
<polygon fill="#757575" stroke="#757575" points="828.71,-515.81 838.76,-512.46 828.81,-508.81 828.71,-515.81"/>
</g>
<!-- dist/redis/common/redis.utils.js -->
<g id="node20" class="node">
<title>dist/redis/common/redis.utils.js</title>
<path fill="none" stroke="#c6c5fe" d="M1049.33,-484.69C1049.33,-484.69 862.67,-484.69 862.67,-484.69 858.83,-484.69 855,-480.86 855,-477.03 855,-477.03 855,-469.36 855,-469.36 855,-465.53 858.83,-461.69 862.67,-461.69 862.67,-461.69 1049.33,-461.69 1049.33,-461.69 1053.17,-461.69 1057,-465.53 1057,-469.36 1057,-469.36 1057,-477.03 1057,-477.03 1057,-480.86 1053.17,-484.69 1049.33,-484.69"/>
<text text-anchor="middle" x="956" y="-469.49" font-family="Arial" font-size="14.00" fill="#c6c5fe">dist/redis/common/redis.utils.js</text>
</g>
<!-- dist/redis/common/index.js&#45;&gt;dist/redis/common/redis.utils.js -->
<g id="edge34" class="edge">
<title>dist/redis/common/index.js&#45;&gt;dist/redis/common/redis.utils.js</title>
<path fill="none" stroke="#757575" d="M769.98,-498.69C798.89,-494.71 831.48,-490.22 861.16,-486.13"/>
<polygon fill="#757575" stroke="#757575" points="861.68,-489.59 871.11,-484.76 860.72,-482.65 861.68,-489.59"/>
</g>
<!-- dist/redis/redis&#45;manager.js&#45;&gt;dist/messages/index.js -->
<g id="edge40" class="edge">
<title>dist/redis/redis&#45;manager.js&#45;&gt;dist/messages/index.js</title>
<path fill="none" stroke="#757575" d="M752.4,-658.64C850.42,-640.56 1028.88,-603.94 1083,-568.19 1143.79,-528.05 1188.47,-451.01 1207.44,-414.02"/>
<polygon fill="#757575" stroke="#757575" points="1210.75,-415.22 1212.1,-404.71 1204.5,-412.09 1210.75,-415.22"/>
</g>
<!-- dist/redis/redis&#45;manager.js&#45;&gt;dist/utils/index.js -->
<g id="edge42" class="edge">
<title>dist/redis/redis&#45;manager.js&#45;&gt;dist/utils/index.js</title>
<path fill="none" stroke="#757575" d="M722.36,-658.67C745.91,-649.27 775.49,-633.67 793,-610.19 836.06,-552.46 776.28,-501.26 829,-452.19 912.6,-374.38 982.84,-468.08 1083,-413.19 1104.27,-401.54 1100.37,-387.72 1119,-372.19 1139.09,-355.45 1164.46,-340.37 1184.43,-329.64"/>
<polygon fill="#757575" stroke="#757575" points="1186.24,-332.64 1193.46,-324.89 1182.98,-326.45 1186.24,-332.64"/>
</g>
<!-- dist/redis/redis&#45;manager.js&#45;&gt;dist/redis/redis.constants.js -->
<g id="edge41" class="edge">
<title>dist/redis/redis&#45;manager.js&#45;&gt;dist/redis/redis.constants.js</title>
<path fill="none" stroke="#757575" d="M773.29,-666.76C868.1,-663.01 1019.66,-657.02 1118.9,-653.09"/>
<polygon fill="#757575" stroke="#757575" points="1119.08,-656.59 1128.93,-652.7 1118.8,-649.6 1119.08,-656.59"/>
</g>
<!-- dist/redis/redis.module.js&#45;&gt;dist/messages/index.js -->
<g id="edge43" class="edge">
<title>dist/redis/redis.module.js&#45;&gt;dist/messages/index.js</title>
<path fill="none" stroke="#757575" d="M299.12,-552.26C501.44,-556.83 1012.57,-565.12 1083,-534.19 1140.51,-508.94 1185.35,-446.15 1205.65,-413.55"/>
<polygon fill="#757575" stroke="#757575" points="1208.73,-415.21 1210.93,-404.85 1202.75,-411.58 1208.73,-415.21"/>
</g>
<!-- dist/redis/redis.module.js&#45;&gt;dist/utils/index.js -->
<g id="edge48" class="edge">
<title>dist/redis/redis.module.js&#45;&gt;dist/utils/index.js</title>
<path fill="none" stroke="#757575" d="M228.17,-538.55C245.62,-520.3 280.29,-483.81 309,-452.19 325.3,-434.24 323.5,-422.42 345,-411.19 416.03,-374.12 958.94,-331.84 1150.69,-317.91"/>
<polygon fill="#757575" stroke="#757575" points="1151.19,-321.39 1160.91,-317.17 1150.68,-314.4 1151.19,-321.39"/>
</g>
<!-- dist/redis/redis.module.js&#45;&gt;dist/redis/common/index.js -->
<g id="edge44" class="edge">
<title>dist/redis/redis.module.js&#45;&gt;dist/redis/common/index.js</title>
<path fill="none" stroke="#757575" d="M299.24,-540.8C314.45,-539.18 330.2,-537.57 345,-536.19 426.32,-528.64 518.75,-521.66 586.61,-516.85"/>
<polygon fill="#757575" stroke="#757575" points="587.13,-520.32 596.86,-516.12 586.64,-513.33 587.13,-520.32"/>
</g>
<!-- dist/redis/redis.module.js&#45;&gt;dist/redis/redis&#45;manager.js -->
<g id="edge45" class="edge">
<title>dist/redis/redis.module.js&#45;&gt;dist/redis/redis&#45;manager.js</title>
<path fill="none" stroke="#757575" d="M237.16,-561.7C261.83,-575.27 305.22,-597.6 345,-610.19 424.95,-635.51 519.08,-651.09 587.92,-660"/>
<polygon fill="#757575" stroke="#757575" points="587.53,-663.48 597.89,-661.27 588.41,-656.54 587.53,-663.48"/>
</g>
<!-- dist/redis/redis.module.js&#45;&gt;dist/redis/redis.constants.js -->
<g id="edge46" class="edge">
<title>dist/redis/redis.module.js&#45;&gt;dist/redis/redis.constants.js</title>
<path fill="none" stroke="#757575" d="M228.89,-561.96C250.2,-582.33 297.17,-624.03 345,-645.19 441.52,-687.92 472.95,-680.92 578,-691.19 801.52,-713.05 860.01,-699.92 1083,-673.19 1105.26,-670.53 1129.42,-666.56 1151.04,-662.61"/>
<polygon fill="#757575" stroke="#757575" points="1151.91,-666.01 1161.11,-660.74 1150.64,-659.13 1151.91,-666.01"/>
</g>
<!-- dist/redis/redis.providers.js -->
<g id="node22" class="node">
<title>dist/redis/redis.providers.js</title>
<path fill="none" stroke="#c6c5fe" d="M523.83,-601.69C523.83,-601.69 363.17,-601.69 363.17,-601.69 359.33,-601.69 355.5,-597.86 355.5,-594.03 355.5,-594.03 355.5,-586.36 355.5,-586.36 355.5,-582.53 359.33,-578.69 363.17,-578.69 363.17,-578.69 523.83,-578.69 523.83,-578.69 527.67,-578.69 531.5,-582.53 531.5,-586.36 531.5,-586.36 531.5,-594.03 531.5,-594.03 531.5,-597.86 527.67,-601.69 523.83,-601.69"/>
<text text-anchor="middle" x="443.5" y="-586.49" font-family="Arial" font-size="14.00" fill="#c6c5fe">dist/redis/redis.providers.js</text>
</g>
<!-- dist/redis/redis.module.js&#45;&gt;dist/redis/redis.providers.js -->
<g id="edge47" class="edge">
<title>dist/redis/redis.module.js&#45;&gt;dist/redis/redis.providers.js</title>
<path fill="none" stroke="#757575" d="M281.92,-561.71C308.69,-566.46 339.87,-571.99 367.6,-576.91"/>
<polygon fill="#757575" stroke="#757575" points="367.19,-580.39 377.65,-578.69 368.41,-573.5 367.19,-580.39"/>
</g>
<!-- dist/redis/common/redis.decorator.js&#45;&gt;dist/utils/index.js -->
<g id="edge36" class="edge">
<title>dist/redis/common/redis.decorator.js&#45;&gt;dist/utils/index.js</title>
<path fill="none" stroke="#757575" d="M1069.77,-502.56C1074.48,-499.89 1078.93,-496.79 1083,-493.19 1125.06,-456.06 1084.59,-416.51 1119,-372.19 1133.88,-353.03 1156.88,-338.75 1176.91,-329.04"/>
<polygon fill="#757575" stroke="#757575" points="1178.55,-332.14 1186.16,-324.78 1175.62,-325.79 1178.55,-332.14"/>
</g>
<!-- dist/redis/common/redis.decorator.js&#45;&gt;dist/redis/redis.constants.js -->
<g id="edge35" class="edge">
<title>dist/redis/common/redis.decorator.js&#45;&gt;dist/redis/redis.constants.js</title>
<path fill="none" stroke="#757575" d="M979.21,-525.7C1025.52,-549.71 1132.53,-605.16 1185.96,-632.85"/>
<polygon fill="#757575" stroke="#757575" points="1184.49,-636.03 1194.98,-637.52 1187.71,-629.81 1184.49,-636.03"/>
</g>
<!-- dist/redis/common/redis.utils.js&#45;&gt;dist/messages/index.js -->
<g id="edge37" class="edge">
<title>dist/redis/common/redis.utils.js&#45;&gt;dist/messages/index.js</title>
<path fill="none" stroke="#757575" d="M1023.93,-461.69C1043.17,-457.76 1064.07,-452.9 1083,-447.19 1117.98,-436.66 1156.54,-420.71 1183.37,-408.87"/>
<polygon fill="#757575" stroke="#757575" points="1184.98,-411.98 1192.69,-404.71 1182.14,-405.59 1184.98,-411.98"/>
</g>
<!-- dist/redis/common/redis.utils.js&#45;&gt;dist/utils/index.js -->
<g id="edge39" class="edge">
<title>dist/redis/common/redis.utils.js&#45;&gt;dist/utils/index.js</title>
<path fill="none" stroke="#757575" d="M1057.18,-461.69C1066.45,-457.99 1075.26,-453.25 1083,-447.19 1112.13,-424.43 1094.09,-399.52 1119,-372.19 1135.81,-353.76 1159.73,-339.24 1179.79,-329.23"/>
<polygon fill="#757575" stroke="#757575" points="1181.49,-332.29 1188.99,-324.81 1178.46,-325.98 1181.49,-332.29"/>
</g>
<!-- dist/redis/common/redis.utils.js&#45;&gt;dist/redis/redis.constants.js -->
<g id="edge38" class="edge">
<title>dist/redis/common/redis.utils.js&#45;&gt;dist/redis/redis.constants.js</title>
<path fill="none" stroke="#757575" d="M1057.23,-482.37C1066.23,-485.17 1074.97,-488.72 1083,-493.19 1141.53,-525.81 1186.44,-594.26 1206.31,-628.61"/>
<polygon fill="#757575" stroke="#757575" points="1203.27,-630.35 1211.24,-637.34 1209.37,-626.91 1203.27,-630.35"/>
</g>
<!-- dist/redis/default&#45;options.js -->
<g id="node21" class="node">
<title>dist/redis/default&#45;options.js</title>
<path fill="none" stroke="#cfffac" d="M765.83,-601.69C765.83,-601.69 605.17,-601.69 605.17,-601.69 601.33,-601.69 597.5,-597.86 597.5,-594.03 597.5,-594.03 597.5,-586.36 597.5,-586.36 597.5,-582.53 601.33,-578.69 605.17,-578.69 605.17,-578.69 765.83,-578.69 765.83,-578.69 769.67,-578.69 773.5,-582.53 773.5,-586.36 773.5,-586.36 773.5,-594.03 773.5,-594.03 773.5,-597.86 769.67,-601.69 765.83,-601.69"/>
<text text-anchor="middle" x="685.5" y="-586.49" font-family="Arial" font-size="14.00" fill="#cfffac">dist/redis/default&#45;options.js</text>
</g>
<!-- dist/redis/redis.providers.js&#45;&gt;dist/redis/common/index.js -->
<g id="edge49" class="edge">
<title>dist/redis/redis.providers.js&#45;&gt;dist/redis/common/index.js</title>
<path fill="none" stroke="#757575" d="M479.14,-578.65C521.68,-564.47 593.89,-540.4 640.36,-524.91"/>
<polygon fill="#757575" stroke="#757575" points="641.49,-528.22 649.87,-521.74 639.28,-521.58 641.49,-528.22"/>
</g>
<!-- dist/redis/redis.providers.js&#45;&gt;dist/redis/redis&#45;manager.js -->
<g id="edge51" class="edge">
<title>dist/redis/redis.providers.js&#45;&gt;dist/redis/redis&#45;manager.js</title>
<path fill="none" stroke="#757575" d="M499.97,-601.71C514.07,-605.67 528.92,-610.76 542,-617.19 559.95,-626.02 559.92,-635.65 578,-644.19 587.82,-648.83 598.54,-652.7 609.29,-655.9"/>
<polygon fill="#757575" stroke="#757575" points="608.57,-659.33 619.14,-658.65 610.45,-652.59 608.57,-659.33"/>
</g>
<!-- dist/redis/redis.providers.js&#45;&gt;dist/redis/redis.constants.js -->
<g id="edge52" class="edge">
<title>dist/redis/redis.providers.js&#45;&gt;dist/redis/redis.constants.js</title>
<path fill="none" stroke="#757575" d="M513.64,-601.73C534.3,-604.86 557.02,-607.99 578,-610.19 768.9,-630.28 993.04,-641.01 1118.85,-645.87"/>
<polygon fill="#757575" stroke="#757575" points="1118.72,-649.36 1128.85,-646.25 1118.99,-642.37 1118.72,-649.36"/>
</g>
<!-- dist/redis/redis.providers.js&#45;&gt;dist/redis/default&#45;options.js -->
<g id="edge50" class="edge">
<title>dist/redis/redis.providers.js&#45;&gt;dist/redis/default&#45;options.js</title>
<path fill="none" stroke="#757575" d="M531.82,-590.19C549.81,-590.19 568.85,-590.19 587.15,-590.19"/>
<polygon fill="#757575" stroke="#757575" points="587.24,-593.69 597.24,-590.19 587.24,-586.69 587.24,-593.69"/>
</g>
<!-- health/index.js -->
<g id="node23" class="node">
<title>health/index.js</title>
<path fill="none" stroke="#c6c5fe" d="M259.83,-443.69C259.83,-443.69 172.17,-443.69 172.17,-443.69 168.33,-443.69 164.5,-439.86 164.5,-436.03 164.5,-436.03 164.5,-428.36 164.5,-428.36 164.5,-424.53 168.33,-420.69 172.17,-420.69 172.17,-420.69 259.83,-420.69 259.83,-420.69 263.67,-420.69 267.5,-424.53 267.5,-428.36 267.5,-428.36 267.5,-436.03 267.5,-436.03 267.5,-439.86 263.67,-443.69 259.83,-443.69"/>
<text text-anchor="middle" x="216" y="-428.49" font-family="Arial" font-size="14.00" fill="#c6c5fe">health/index.js</text>
</g>
<!-- health/index.js&#45;&gt;dist/health/index.js -->
<g id="edge53" class="edge">
<title>health/index.js&#45;&gt;dist/health/index.js</title>
<path fill="none" stroke="#757575" d="M267.61,-432.19C297.5,-432.19 335.86,-432.19 369.04,-432.19"/>
<polygon fill="#757575" stroke="#757575" points="369.15,-435.69 379.15,-432.19 369.15,-428.69 369.15,-435.69"/>
</g>
</g>
</svg>
