<?xml version="1.0" encoding="UTF-8" standalone="no"?>
<!DOCTYPE svg PUBLIC "-//W3C//DTD SVG 1.1//EN"
 "http://www.w3.org/Graphics/SVG/1.1/DTD/svg11.dtd">
<!-- Generated by graphviz version 2.43.0 (0)
 -->
<!-- Title: G Pages: 1 -->
<svg width="969pt" height="170pt"
 viewBox="0.00 0.00 969.20 169.94" xmlns="http://www.w3.org/2000/svg" xmlns:xlink="http://www.w3.org/1999/xlink">
<g id="graph0" class="graph" transform="scale(1 1) rotate(0) translate(21.6 148.34)">
<title>G</title>
<polygon fill="#111111" stroke="transparent" points="-21.6,21.6 -21.6,-148.34 947.6,-148.34 947.6,21.6 -21.6,21.6"/>
<!-- index.js -->
<g id="node1" class="node">
<title>index.js</title>
<path fill="none" stroke="#c6c5fe" d="M54.33,-105C54.33,-105 7.67,-105 7.67,-105 3.83,-105 0,-101.17 0,-97.33 0,-97.33 0,-89.67 0,-89.67 0,-85.83 3.83,-82 7.67,-82 7.67,-82 54.33,-82 54.33,-82 58.17,-82 62,-85.83 62,-89.67 62,-89.67 62,-97.33 62,-97.33 62,-101.17 58.17,-105 54.33,-105"/>
<text text-anchor="middle" x="31" y="-89.8" font-family="Arial" font-size="14.00" fill="#c6c5fe">index.js</text>
</g>
<!-- indicators/redis.health.js -->
<g id="node2" class="node">
<title>indicators/redis.health.js</title>
<path fill="none" stroke="#c6c5fe" d="M436.33,-105C436.33,-105 290.67,-105 290.67,-105 286.83,-105 283,-101.17 283,-97.33 283,-97.33 283,-89.67 283,-89.67 283,-85.83 286.83,-82 290.67,-82 290.67,-82 436.33,-82 436.33,-82 440.17,-82 444,-85.83 444,-89.67 444,-89.67 444,-97.33 444,-97.33 444,-101.17 440.17,-105 436.33,-105"/>
<text text-anchor="middle" x="363.5" y="-89.8" font-family="Arial" font-size="14.00" fill="#c6c5fe">indicators/redis.health.js</text>
</g>
<!-- index.js&#45;&gt;indicators/redis.health.js -->
<g id="edge1" class="edge">
<title>index.js&#45;&gt;indicators/redis.health.js</title>
<path fill="none" stroke="#757575" d="M62.21,-93.5C109.44,-93.5 202.64,-93.5 272.74,-93.5"/>
<polygon fill="#757575" stroke="#757575" points="272.91,-97 282.91,-93.5 272.91,-90 272.91,-97"/>
</g>
<!-- redis&#45;health.module.js -->
<g id="node3" class="node">
<title>redis&#45;health.module.js</title>
<path fill="none" stroke="#c6c5fe" d="M239.33,-85C239.33,-85 105.67,-85 105.67,-85 101.83,-85 98,-81.17 98,-77.33 98,-77.33 98,-69.67 98,-69.67 98,-65.83 101.83,-62 105.67,-62 105.67,-62 239.33,-62 239.33,-62 243.17,-62 247,-65.83 247,-69.67 247,-69.67 247,-77.33 247,-77.33 247,-81.17 243.17,-85 239.33,-85"/>
<text text-anchor="middle" x="172.5" y="-69.8" font-family="Arial" font-size="14.00" fill="#c6c5fe">redis&#45;health.module.js</text>
</g>
<!-- index.js&#45;&gt;redis&#45;health.module.js -->
<g id="edge2" class="edge">
<title>index.js&#45;&gt;redis&#45;health.module.js</title>
<path fill="none" stroke="#757575" d="M62.27,-89.16C70.04,-88.05 78.78,-86.79 87.85,-85.49"/>
<polygon fill="#757575" stroke="#757575" points="88.38,-88.95 97.79,-84.07 87.39,-82.02 88.38,-88.95"/>
</g>
<!-- messages/index.js -->
<g id="node4" class="node">
<title>messages/index.js</title>
<path fill="none" stroke="#cfffac" d="M918.33,-84C918.33,-84 805.67,-84 805.67,-84 801.83,-84 798,-80.17 798,-76.33 798,-76.33 798,-68.67 798,-68.67 798,-64.83 801.83,-61 805.67,-61 805.67,-61 918.33,-61 918.33,-61 922.17,-61 926,-64.83 926,-68.67 926,-68.67 926,-76.33 926,-76.33 926,-80.17 922.17,-84 918.33,-84"/>
<text text-anchor="middle" x="862" y="-68.8" font-family="Arial" font-size="14.00" fill="#cfffac">messages/index.js</text>
</g>
<!-- indicators/redis.health.js&#45;&gt;messages/index.js -->
<g id="edge3" class="edge">
<title>indicators/redis.health.js&#45;&gt;messages/index.js</title>
<path fill="none" stroke="#757575" d="M419.47,-105.05C496.78,-119.34 641.63,-138.98 762,-114.5 786.42,-109.53 812.28,-98.33 831.45,-88.75"/>
<polygon fill="#757575" stroke="#757575" points="833.26,-91.75 840.55,-84.06 830.06,-85.53 833.26,-91.75"/>
</g>
<!-- utils/index.js -->
<g id="node5" class="node">
<title>utils/index.js</title>
<path fill="none" stroke="#c6c5fe" d="M562.33,-85C562.33,-85 487.67,-85 487.67,-85 483.83,-85 480,-81.17 480,-77.33 480,-77.33 480,-69.67 480,-69.67 480,-65.83 483.83,-62 487.67,-62 487.67,-62 562.33,-62 562.33,-62 566.17,-62 570,-65.83 570,-69.67 570,-69.67 570,-77.33 570,-77.33 570,-81.17 566.17,-85 562.33,-85"/>
<text text-anchor="middle" x="525" y="-69.8" font-family="Arial" font-size="14.00" fill="#c6c5fe">utils/index.js</text>
</g>
<!-- indicators/redis.health.js&#45;&gt;utils/index.js -->
<g id="edge4" class="edge">
<title>indicators/redis.health.js&#45;&gt;utils/index.js</title>
<path fill="none" stroke="#757575" d="M444.25,-83.5C452.9,-82.42 461.55,-81.33 469.8,-80.3"/>
<polygon fill="#757575" stroke="#757575" points="470.51,-83.74 479.99,-79.02 469.64,-76.79 470.51,-83.74"/>
</g>
<!-- redis&#45;health.module.js&#45;&gt;indicators/redis.health.js -->
<g id="edge5" class="edge">
<title>redis&#45;health.module.js&#45;&gt;indicators/redis.health.js</title>
<path fill="none" stroke="#757575" d="M247.11,-81.29C255.53,-82.18 264.18,-83.1 272.78,-84.01"/>
<polygon fill="#757575" stroke="#757575" points="272.52,-87.5 282.83,-85.07 273.26,-80.54 272.52,-87.5"/>
</g>
<!-- utils/is.js -->
<g id="node6" class="node">
<title>utils/is.js</title>
<path fill="none" stroke="#cfffac" d="M710.33,-105C710.33,-105 657.67,-105 657.67,-105 653.83,-105 650,-101.17 650,-97.33 650,-97.33 650,-89.67 650,-89.67 650,-85.83 653.83,-82 657.67,-82 657.67,-82 710.33,-82 710.33,-82 714.17,-82 718,-85.83 718,-89.67 718,-89.67 718,-97.33 718,-97.33 718,-101.17 714.17,-105 710.33,-105"/>
<text text-anchor="middle" x="684" y="-89.8" font-family="Arial" font-size="14.00" fill="#cfffac">utils/is.js</text>
</g>
<!-- utils/index.js&#45;&gt;utils/is.js -->
<g id="edge6" class="edge">
<title>utils/index.js&#45;&gt;utils/is.js</title>
<path fill="none" stroke="#757575" d="M570.15,-79.12C592,-81.91 618.26,-85.25 639.95,-88.02"/>
<polygon fill="#757575" stroke="#757575" points="639.52,-91.49 649.88,-89.28 640.4,-84.55 639.52,-91.49"/>
</g>
<!-- utils/parsers.js -->
<g id="node7" class="node">
<title>utils/parsers.js</title>
<path fill="none" stroke="#cfffac" d="M727.83,-64C727.83,-64 640.17,-64 640.17,-64 636.33,-64 632.5,-60.17 632.5,-56.33 632.5,-56.33 632.5,-48.67 632.5,-48.67 632.5,-44.83 636.33,-41 640.17,-41 640.17,-41 727.83,-41 727.83,-41 731.67,-41 735.5,-44.83 735.5,-48.67 735.5,-48.67 735.5,-56.33 735.5,-56.33 735.5,-60.17 731.67,-64 727.83,-64"/>
<text text-anchor="middle" x="684" y="-48.8" font-family="Arial" font-size="14.00" fill="#cfffac">utils/parsers.js</text>
</g>
<!-- utils/index.js&#45;&gt;utils/parsers.js -->
<g id="edge7" class="edge">
<title>utils/index.js&#45;&gt;utils/parsers.js</title>
<path fill="none" stroke="#757575" d="M570.15,-67.59C586.3,-65.43 604.86,-62.95 622.21,-60.63"/>
<polygon fill="#757575" stroke="#757575" points="622.81,-64.08 632.26,-59.29 621.88,-57.14 622.81,-64.08"/>
</g>
<!-- utils/promise&#45;timeout.js -->
<g id="node8" class="node">
<title>utils/promise&#45;timeout.js</title>
<path fill="none" stroke="#c6c5fe" d="M754.33,-23C754.33,-23 613.67,-23 613.67,-23 609.83,-23 606,-19.17 606,-15.33 606,-15.33 606,-7.67 606,-7.67 606,-3.83 609.83,0 613.67,0 613.67,0 754.33,0 754.33,0 758.17,0 762,-3.83 762,-7.67 762,-7.67 762,-15.33 762,-15.33 762,-19.17 758.17,-23 754.33,-23"/>
<text text-anchor="middle" x="684" y="-7.8" font-family="Arial" font-size="14.00" fill="#c6c5fe">utils/promise&#45;timeout.js</text>
</g>
<!-- utils/index.js&#45;&gt;utils/promise&#45;timeout.js -->
<g id="edge8" class="edge">
<title>utils/index.js&#45;&gt;utils/promise&#45;timeout.js</title>
<path fill="none" stroke="#757575" d="M545.14,-61.85C560.99,-52.6 584.34,-39.87 606,-31.5 611.07,-29.54 616.41,-27.71 621.8,-26.01"/>
<polygon fill="#757575" stroke="#757575" points="622.95,-29.32 631.53,-23.11 620.95,-22.62 622.95,-29.32"/>
</g>
<!-- utils/promise&#45;timeout.js&#45;&gt;messages/index.js -->
<g id="edge9" class="edge">
<title>utils/promise&#45;timeout.js&#45;&gt;messages/index.js</title>
<path fill="none" stroke="#757575" d="M733.77,-23.08C743.21,-25.62 752.96,-28.47 762,-31.5 783.78,-38.8 807.58,-48.6 826.39,-56.78"/>
<polygon fill="#757575" stroke="#757575" points="825.17,-60.07 835.73,-60.89 827.99,-53.66 825.17,-60.07"/>
</g>
</g>
</svg>
