<?xml version="1.0" encoding="UTF-8" standalone="no"?>
<!DOCTYPE svg PUBLIC "-//W3C//DTD SVG 1.1//EN"
 "http://www.w3.org/Graphics/SVG/1.1/DTD/svg11.dtd">
<!-- Generated by graphviz version 6.0.1 (20220911.1526)
 -->
<!-- Title: G Pages: 1 -->
<svg width="1001pt" height="170pt"
 viewBox="0.00 0.00 1001.20 169.94" xmlns="http://www.w3.org/2000/svg" xmlns:xlink="http://www.w3.org/1999/xlink">
<g id="graph0" class="graph" transform="scale(1 1) rotate(0) translate(21.6 148.34)">
<title>G</title>
<polygon fill="#111111" stroke="none" points="-21.6,21.6 -21.6,-148.34 979.6,-148.34 979.6,21.6 -21.6,21.6"/>
<!-- index.js -->
<g id="node1" class="node">
<title>index.js</title>
<path fill="none" stroke="#c6c5fe" d="M57.33,-105C57.33,-105 7.67,-105 7.67,-105 3.83,-105 0,-101.17 0,-97.33 0,-97.33 0,-89.67 0,-89.67 0,-85.83 3.83,-82 7.67,-82 7.67,-82 57.33,-82 57.33,-82 61.17,-82 65,-85.83 65,-89.67 65,-89.67 65,-97.33 65,-97.33 65,-101.17 61.17,-105 57.33,-105"/>
<text text-anchor="middle" x="32.5" y="-89.8" font-family="Arial" font-size="14.00" fill="#c6c5fe">index.js</text>
</g>
<!-- indicators/redis.health.js -->
<g id="node2" class="node">
<title>indicators/redis.health.js</title>
<path fill="none" stroke="#c6c5fe" d="M452.33,-105C452.33,-105 299.67,-105 299.67,-105 295.83,-105 292,-101.17 292,-97.33 292,-97.33 292,-89.67 292,-89.67 292,-85.83 295.83,-82 299.67,-82 299.67,-82 452.33,-82 452.33,-82 456.17,-82 460,-85.83 460,-89.67 460,-89.67 460,-97.33 460,-97.33 460,-101.17 456.17,-105 452.33,-105"/>
<text text-anchor="middle" x="376" y="-89.8" font-family="Arial" font-size="14.00" fill="#c6c5fe">indicators/redis.health.js</text>
</g>
<!-- index.js&#45;&gt;indicators/redis.health.js -->
<g id="edge1" class="edge">
<title>index.js&#45;&gt;indicators/redis.health.js</title>
<path fill="none" stroke="#757575" d="M65.02,-93.5C113.82,-93.5 209.6,-93.5 281.84,-93.5"/>
<polygon fill="#757575" stroke="#757575" points="281.87,-97 291.87,-93.5 281.87,-90 281.87,-97"/>
</g>
<!-- redis&#45;health.module.js -->
<g id="node3" class="node">
<title>redis&#45;health.module.js</title>
<path fill="none" stroke="#c6c5fe" d="M248.33,-85C248.33,-85 108.67,-85 108.67,-85 104.83,-85 101,-81.17 101,-77.33 101,-77.33 101,-69.67 101,-69.67 101,-65.83 104.83,-62 108.67,-62 108.67,-62 248.33,-62 248.33,-62 252.17,-62 256,-65.83 256,-69.67 256,-69.67 256,-77.33 256,-77.33 256,-81.17 252.17,-85 248.33,-85"/>
<text text-anchor="middle" x="178.5" y="-69.8" font-family="Arial" font-size="14.00" fill="#c6c5fe">redis&#45;health.module.js</text>
</g>
<!-- index.js&#45;&gt;redis&#45;health.module.js -->
<g id="edge2" class="edge">
<title>index.js&#45;&gt;redis&#45;health.module.js</title>
<path fill="none" stroke="#757575" d="M65.1,-89.11C72.94,-88.02 81.73,-86.8 90.85,-85.53"/>
<polygon fill="#757575" stroke="#757575" points="91.42,-88.99 100.84,-84.15 90.45,-82.06 91.42,-88.99"/>
</g>
<!-- messages/index.js -->
<g id="node4" class="node">
<title>messages/index.js</title>
<path fill="none" stroke="#cfffac" d="M950.33,-84C950.33,-84 830.67,-84 830.67,-84 826.83,-84 823,-80.17 823,-76.33 823,-76.33 823,-68.67 823,-68.67 823,-64.83 826.83,-61 830.67,-61 830.67,-61 950.33,-61 950.33,-61 954.17,-61 958,-64.83 958,-68.67 958,-68.67 958,-76.33 958,-76.33 958,-80.17 954.17,-84 950.33,-84"/>
<text text-anchor="middle" x="890.5" y="-68.8" font-family="Arial" font-size="14.00" fill="#cfffac">messages/index.js</text>
</g>
<!-- indicators/redis.health.js&#45;&gt;messages/index.js -->
<g id="edge3" class="edge">
<title>indicators/redis.health.js&#45;&gt;messages/index.js</title>
<path fill="none" stroke="#757575" d="M433.66,-105.05C513.35,-119.34 662.7,-138.98 787,-114.5 812.3,-109.52 839.21,-98.24 859.11,-88.62"/>
<polygon fill="#757575" stroke="#757575" points="860.87,-91.65 868.27,-84.07 857.76,-85.38 860.87,-91.65"/>
</g>
<!-- utils/index.js -->
<g id="node5" class="node">
<title>utils/index.js</title>
<path fill="none" stroke="#c6c5fe" d="M581.33,-85C581.33,-85 503.67,-85 503.67,-85 499.83,-85 496,-81.17 496,-77.33 496,-77.33 496,-69.67 496,-69.67 496,-65.83 499.83,-62 503.67,-62 503.67,-62 581.33,-62 581.33,-62 585.17,-62 589,-65.83 589,-69.67 589,-69.67 589,-77.33 589,-77.33 589,-81.17 585.17,-85 581.33,-85"/>
<text text-anchor="middle" x="542.5" y="-69.8" font-family="Arial" font-size="14.00" fill="#c6c5fe">utils/index.js</text>
</g>
<!-- indicators/redis.health.js&#45;&gt;utils/index.js -->
<g id="edge4" class="edge">
<title>indicators/redis.health.js&#45;&gt;utils/index.js</title>
<path fill="none" stroke="#757575" d="M460.21,-83.38C468.84,-82.33 477.46,-81.29 485.68,-80.29"/>
<polygon fill="#757575" stroke="#757575" points="486.35,-83.73 495.85,-79.05 485.5,-76.78 486.35,-83.73"/>
</g>
<!-- redis&#45;health.module.js&#45;&gt;indicators/redis.health.js -->
<g id="edge5" class="edge">
<title>redis&#45;health.module.js&#45;&gt;indicators/redis.health.js</title>
<path fill="none" stroke="#757575" d="M256.21,-81.35C264.59,-82.2 273.18,-83.08 281.74,-83.96"/>
<polygon fill="#757575" stroke="#757575" points="281.43,-87.45 291.74,-84.98 282.15,-80.48 281.43,-87.45"/>
</g>
<!-- utils/is.js -->
<g id="node6" class="node">
<title>utils/is.js</title>
<path fill="none" stroke="#cfffac" d="M733.33,-105C733.33,-105 678.67,-105 678.67,-105 674.83,-105 671,-101.17 671,-97.33 671,-97.33 671,-89.67 671,-89.67 671,-85.83 674.83,-82 678.67,-82 678.67,-82 733.33,-82 733.33,-82 737.17,-82 741,-85.83 741,-89.67 741,-89.67 741,-97.33 741,-97.33 741,-101.17 737.17,-105 733.33,-105"/>
<text text-anchor="middle" x="706" y="-89.8" font-family="Arial" font-size="14.00" fill="#cfffac">utils/is.js</text>
</g>
<!-- utils/index.js&#45;&gt;utils/is.js -->
<g id="edge6" class="edge">
<title>utils/index.js&#45;&gt;utils/is.js</title>
<path fill="none" stroke="#757575" d="M589.35,-79.18C611.73,-81.95 638.54,-85.27 660.71,-88.01"/>
<polygon fill="#757575" stroke="#757575" points="660.5,-91.52 670.85,-89.27 661.36,-84.57 660.5,-91.52"/>
</g>
<!-- utils/parsers.js -->
<g id="node7" class="node">
<title>utils/parsers.js</title>
<path fill="none" stroke="#cfffac" d="M751.83,-64C751.83,-64 660.17,-64 660.17,-64 656.33,-64 652.5,-60.17 652.5,-56.33 652.5,-56.33 652.5,-48.67 652.5,-48.67 652.5,-44.83 656.33,-41 660.17,-41 660.17,-41 751.83,-41 751.83,-41 755.67,-41 759.5,-44.83 759.5,-48.67 759.5,-48.67 759.5,-56.33 759.5,-56.33 759.5,-60.17 755.67,-64 751.83,-64"/>
<text text-anchor="middle" x="706" y="-48.8" font-family="Arial" font-size="14.00" fill="#cfffac">utils/parsers.js</text>
</g>
<!-- utils/index.js&#45;&gt;utils/parsers.js -->
<g id="edge7" class="edge">
<title>utils/index.js&#45;&gt;utils/parsers.js</title>
<path fill="none" stroke="#757575" d="M589.35,-67.54C605.8,-65.4 624.64,-62.95 642.27,-60.66"/>
<polygon fill="#757575" stroke="#757575" points="643.02,-64.09 652.49,-59.33 642.12,-57.15 643.02,-64.09"/>
</g>
<!-- utils/promise&#45;timeout.js -->
<g id="node8" class="node">
<title>utils/promise&#45;timeout.js</title>
<path fill="none" stroke="#c6c5fe" d="M779.33,-23C779.33,-23 632.67,-23 632.67,-23 628.83,-23 625,-19.17 625,-15.33 625,-15.33 625,-7.67 625,-7.67 625,-3.83 628.83,0 632.67,0 632.67,0 779.33,0 779.33,0 783.17,0 787,-3.83 787,-7.67 787,-7.67 787,-15.33 787,-15.33 787,-19.17 783.17,-23 779.33,-23"/>
<text text-anchor="middle" x="706" y="-7.8" font-family="Arial" font-size="14.00" fill="#c6c5fe">utils/promise&#45;timeout.js</text>
</g>
<!-- utils/index.js&#45;&gt;utils/promise&#45;timeout.js -->
<g id="edge8" class="edge">
<title>utils/index.js&#45;&gt;utils/promise&#45;timeout.js</title>
<path fill="none" stroke="#757575" d="M563.01,-61.82C579.16,-52.55 602.96,-39.81 625,-31.5 630.41,-29.46 636.1,-27.57 641.85,-25.83"/>
<polygon fill="#757575" stroke="#757575" points="642.9,-29.17 651.54,-23.04 640.96,-22.44 642.9,-29.17"/>
</g>
<!-- utils/promise&#45;timeout.js&#45;&gt;messages/index.js -->
<g id="edge9" class="edge">
<title>utils/promise&#45;timeout.js&#45;&gt;messages/index.js</title>
<path fill="none" stroke="#757575" d="M757.65,-23.06C767.46,-25.61 777.6,-28.46 787,-31.5 809.62,-38.81 834.39,-48.67 853.91,-56.88"/>
<polygon fill="#757575" stroke="#757575" points="852.74,-60.19 863.31,-60.88 855.48,-53.75 852.74,-60.19"/>
</g>
</g>
</svg>
