<?xml version="1.0" encoding="UTF-8" standalone="no"?>
<!DOCTYPE svg PUBLIC "-//W3C//DTD SVG 1.1//EN"
 "http://www.w3.org/Graphics/SVG/1.1/DTD/svg11.dtd">
<!-- Generated by graphviz version 2.43.0 (0)
 -->
<!-- Title: G Pages: 1 -->
<svg width="1840pt" height="939pt"
 viewBox="0.00 0.00 1840.20 939.23" xmlns="http://www.w3.org/2000/svg" xmlns:xlink="http://www.w3.org/1999/xlink">
<g id="graph0" class="graph" transform="scale(1 1) rotate(0) translate(21.6 917.63)">
<title>G</title>
<polygon fill="#111111" stroke="transparent" points="-21.6,21.6 -21.6,-917.63 1818.6,-917.63 1818.6,21.6 -21.6,21.6"/>
<!-- dist/cluster/cluster&#45;logger.js -->
<g id="node1" class="node">
<title>dist/cluster/cluster&#45;logger.js</title>
<path fill="none" stroke="#c6c5fe" d="M1327.83,-791.53C1327.83,-791.53 1164.17,-791.53 1164.17,-791.53 1160.33,-791.53 1156.5,-787.7 1156.5,-783.86 1156.5,-783.86 1156.5,-776.2 1156.5,-776.2 1156.5,-772.36 1160.33,-768.53 1164.17,-768.53 1164.17,-768.53 1327.83,-768.53 1327.83,-768.53 1331.67,-768.53 1335.5,-772.36 1335.5,-776.2 1335.5,-776.2 1335.5,-783.86 1335.5,-783.86 1335.5,-787.7 1331.67,-791.53 1327.83,-791.53"/>
<text text-anchor="middle" x="1246" y="-776.33" font-family="Arial" font-size="14.00" fill="#c6c5fe">dist/cluster/cluster&#45;logger.js</text>
</g>
<!-- dist/cluster/cluster.constants.js -->
<g id="node2" class="node">
<title>dist/cluster/cluster.constants.js</title>
<path fill="none" stroke="#cfffac" d="M1600.33,-771.53C1600.33,-771.53 1416.67,-771.53 1416.67,-771.53 1412.83,-771.53 1409,-767.7 1409,-763.86 1409,-763.86 1409,-756.2 1409,-756.2 1409,-752.36 1412.83,-748.53 1416.67,-748.53 1416.67,-748.53 1600.33,-748.53 1600.33,-748.53 1604.17,-748.53 1608,-752.36 1608,-756.2 1608,-756.2 1608,-763.86 1608,-763.86 1608,-767.7 1604.17,-771.53 1600.33,-771.53"/>
<text text-anchor="middle" x="1508.5" y="-756.33" font-family="Arial" font-size="14.00" fill="#cfffac">dist/cluster/cluster.constants.js</text>
</g>
<!-- dist/cluster/cluster&#45;logger.js&#45;&gt;dist/cluster/cluster.constants.js -->
<g id="edge1" class="edge">
<title>dist/cluster/cluster&#45;logger.js&#45;&gt;dist/cluster/cluster.constants.js</title>
<path fill="none" stroke="#757575" d="M1335.56,-773.23C1355.84,-771.67 1377.63,-770 1398.65,-768.39"/>
<polygon fill="#757575" stroke="#757575" points="1399.2,-771.86 1408.9,-767.6 1398.66,-764.88 1399.2,-771.86"/>
</g>
<!-- dist/cluster/cluster&#45;manager.js -->
<g id="node3" class="node">
<title>dist/cluster/cluster&#45;manager.js</title>
<path fill="none" stroke="#c6c5fe" d="M775.83,-632.53C775.83,-632.53 595.17,-632.53 595.17,-632.53 591.33,-632.53 587.5,-628.7 587.5,-624.86 587.5,-624.86 587.5,-617.2 587.5,-617.2 587.5,-613.36 591.33,-609.53 595.17,-609.53 595.17,-609.53 775.83,-609.53 775.83,-609.53 779.67,-609.53 783.5,-613.36 783.5,-617.2 783.5,-617.2 783.5,-624.86 783.5,-624.86 783.5,-628.7 779.67,-632.53 775.83,-632.53"/>
<text text-anchor="middle" x="685.5" y="-617.33" font-family="Arial" font-size="14.00" fill="#c6c5fe">dist/cluster/cluster&#45;manager.js</text>
</g>
<!-- dist/cluster/cluster&#45;manager.js&#45;&gt;dist/cluster/cluster.constants.js -->
<g id="edge2" class="edge">
<title>dist/cluster/cluster&#45;manager.js&#45;&gt;dist/cluster/cluster.constants.js</title>
<path fill="none" stroke="#757575" d="M783.82,-632.27C798.94,-633.93 814.39,-635.57 829,-637.03 1070.51,-661.24 1141,-613.69 1373,-685.03 1414.6,-697.82 1457.69,-724.68 1483.54,-742.54"/>
<polygon fill="#757575" stroke="#757575" points="1481.75,-745.55 1491.94,-748.44 1485.77,-739.82 1481.75,-745.55"/>
</g>
<!-- dist/errors/index.js -->
<g id="node4" class="node">
<title>dist/errors/index.js</title>
<path fill="none" stroke="#c6c5fe" d="M1011.33,-518.53C1011.33,-518.53 900.67,-518.53 900.67,-518.53 896.83,-518.53 893,-514.7 893,-510.86 893,-510.86 893,-503.2 893,-503.2 893,-499.36 896.83,-495.53 900.67,-495.53 900.67,-495.53 1011.33,-495.53 1011.33,-495.53 1015.17,-495.53 1019,-499.36 1019,-503.2 1019,-503.2 1019,-510.86 1019,-510.86 1019,-514.7 1015.17,-518.53 1011.33,-518.53"/>
<text text-anchor="middle" x="956" y="-503.33" font-family="Arial" font-size="14.00" fill="#c6c5fe">dist/errors/index.js</text>
</g>
<!-- dist/cluster/cluster&#45;manager.js&#45;&gt;dist/errors/index.js -->
<g id="edge3" class="edge">
<title>dist/cluster/cluster&#45;manager.js&#45;&gt;dist/errors/index.js</title>
<path fill="none" stroke="#757575" d="M706.3,-609.51C727.81,-596.9 763.11,-575.96 793,-557.03 809.25,-546.74 811.26,-540.44 829,-533.03 845.87,-525.98 864.83,-520.78 882.82,-516.97"/>
<polygon fill="#757575" stroke="#757575" points="883.58,-520.39 892.7,-514.99 882.2,-513.53 883.58,-520.39"/>
</g>
<!-- dist/messages/index.js -->
<g id="node5" class="node">
<title>dist/messages/index.js</title>
<path fill="none" stroke="#cfffac" d="M1789.33,-456.53C1789.33,-456.53 1651.67,-456.53 1651.67,-456.53 1647.83,-456.53 1644,-452.7 1644,-448.86 1644,-448.86 1644,-441.2 1644,-441.2 1644,-437.36 1647.83,-433.53 1651.67,-433.53 1651.67,-433.53 1789.33,-433.53 1789.33,-433.53 1793.17,-433.53 1797,-437.36 1797,-441.2 1797,-441.2 1797,-448.86 1797,-448.86 1797,-452.7 1793.17,-456.53 1789.33,-456.53"/>
<text text-anchor="middle" x="1720.5" y="-441.33" font-family="Arial" font-size="14.00" fill="#cfffac">dist/messages/index.js</text>
</g>
<!-- dist/cluster/cluster&#45;manager.js&#45;&gt;dist/messages/index.js -->
<g id="edge4" class="edge">
<title>dist/cluster/cluster&#45;manager.js&#45;&gt;dist/messages/index.js</title>
<path fill="none" stroke="#757575" d="M783.9,-623.55C1006.05,-628.62 1536.6,-636.57 1608,-599.03 1662.54,-570.36 1696.83,-501.61 1711.4,-466.48"/>
<polygon fill="#757575" stroke="#757575" points="1714.83,-467.32 1715.29,-456.74 1708.33,-464.73 1714.83,-467.32"/>
</g>
<!-- dist/utils/index.js -->
<g id="node6" class="node">
<title>dist/utils/index.js</title>
<path fill="none" stroke="#c6c5fe" d="M1295.83,-341.53C1295.83,-341.53 1196.17,-341.53 1196.17,-341.53 1192.33,-341.53 1188.5,-337.7 1188.5,-333.86 1188.5,-333.86 1188.5,-326.2 1188.5,-326.2 1188.5,-322.36 1192.33,-318.53 1196.17,-318.53 1196.17,-318.53 1295.83,-318.53 1295.83,-318.53 1299.67,-318.53 1303.5,-322.36 1303.5,-326.2 1303.5,-326.2 1303.5,-333.86 1303.5,-333.86 1303.5,-337.7 1299.67,-341.53 1295.83,-341.53"/>
<text text-anchor="middle" x="1246" y="-326.33" font-family="Arial" font-size="14.00" fill="#c6c5fe">dist/utils/index.js</text>
</g>
<!-- dist/cluster/cluster&#45;manager.js&#45;&gt;dist/utils/index.js -->
<g id="edge5" class="edge">
<title>dist/cluster/cluster&#45;manager.js&#45;&gt;dist/utils/index.js</title>
<path fill="none" stroke="#757575" d="M759.63,-609.47C858.78,-592.82 1029.62,-560.42 1083,-527.03 1104.42,-513.63 1102.97,-502.56 1119,-483.03 1158.54,-434.86 1205.2,-378.26 1229.12,-349.28"/>
<polygon fill="#757575" stroke="#757575" points="1231.84,-351.48 1235.5,-341.54 1226.44,-347.02 1231.84,-351.48"/>
</g>
<!-- dist/errors/client&#45;not&#45;found.error.js -->
<g id="node13" class="node">
<title>dist/errors/client&#45;not&#45;found.error.js</title>
<path fill="none" stroke="#cfffac" d="M1347.33,-556.53C1347.33,-556.53 1144.67,-556.53 1144.67,-556.53 1140.83,-556.53 1137,-552.7 1137,-548.86 1137,-548.86 1137,-541.2 1137,-541.2 1137,-537.36 1140.83,-533.53 1144.67,-533.53 1144.67,-533.53 1347.33,-533.53 1347.33,-533.53 1351.17,-533.53 1355,-537.36 1355,-541.2 1355,-541.2 1355,-548.86 1355,-548.86 1355,-552.7 1351.17,-556.53 1347.33,-556.53"/>
<text text-anchor="middle" x="1246" y="-541.33" font-family="Arial" font-size="14.00" fill="#cfffac">dist/errors/client&#45;not&#45;found.error.js</text>
</g>
<!-- dist/errors/index.js&#45;&gt;dist/errors/client&#45;not&#45;found.error.js -->
<g id="edge25" class="edge">
<title>dist/errors/index.js&#45;&gt;dist/errors/client&#45;not&#45;found.error.js</title>
<path fill="none" stroke="#757575" d="M1019.14,-515.23C1056.57,-520.17 1105.05,-526.56 1147.49,-532.16"/>
<polygon fill="#757575" stroke="#757575" points="1147.2,-535.66 1157.57,-533.49 1148.12,-528.72 1147.2,-535.66"/>
</g>
<!-- dist/errors/missing&#45;configuration.error.js -->
<g id="node14" class="node">
<title>dist/errors/missing&#45;configuration.error.js</title>
<path fill="none" stroke="#cfffac" d="M1365.33,-515.53C1365.33,-515.53 1126.67,-515.53 1126.67,-515.53 1122.83,-515.53 1119,-511.7 1119,-507.86 1119,-507.86 1119,-500.2 1119,-500.2 1119,-496.36 1122.83,-492.53 1126.67,-492.53 1126.67,-492.53 1365.33,-492.53 1365.33,-492.53 1369.17,-492.53 1373,-496.36 1373,-500.2 1373,-500.2 1373,-507.86 1373,-507.86 1373,-511.7 1369.17,-515.53 1365.33,-515.53"/>
<text text-anchor="middle" x="1246" y="-500.33" font-family="Arial" font-size="14.00" fill="#cfffac">dist/errors/missing&#45;configuration.error.js</text>
</g>
<!-- dist/errors/index.js&#45;&gt;dist/errors/missing&#45;configuration.error.js -->
<g id="edge26" class="edge">
<title>dist/errors/index.js&#45;&gt;dist/errors/missing&#45;configuration.error.js</title>
<path fill="none" stroke="#757575" d="M1019.14,-506.38C1045.47,-506.11 1077.28,-505.78 1108.6,-505.45"/>
<polygon fill="#757575" stroke="#757575" points="1108.79,-508.95 1118.75,-505.35 1108.71,-501.95 1108.79,-508.95"/>
</g>
<!-- dist/utils/is.js -->
<g id="node28" class="node">
<title>dist/utils/is.js</title>
<path fill="none" stroke="#cfffac" d="M1758.83,-151.53C1758.83,-151.53 1682.17,-151.53 1682.17,-151.53 1678.33,-151.53 1674.5,-147.7 1674.5,-143.86 1674.5,-143.86 1674.5,-136.2 1674.5,-136.2 1674.5,-132.36 1678.33,-128.53 1682.17,-128.53 1682.17,-128.53 1758.83,-128.53 1758.83,-128.53 1762.67,-128.53 1766.5,-132.36 1766.5,-136.2 1766.5,-136.2 1766.5,-143.86 1766.5,-143.86 1766.5,-147.7 1762.67,-151.53 1758.83,-151.53"/>
<text text-anchor="middle" x="1720.5" y="-136.33" font-family="Arial" font-size="14.00" fill="#cfffac">dist/utils/is.js</text>
</g>
<!-- dist/utils/index.js&#45;&gt;dist/utils/is.js -->
<g id="edge64" class="edge">
<title>dist/utils/index.js&#45;&gt;dist/utils/is.js</title>
<path fill="none" stroke="#757575" d="M1283.09,-318.48C1308.42,-310.19 1342.99,-298.5 1373,-287.03 1488.59,-242.85 1622.77,-183.6 1684.79,-155.74"/>
<polygon fill="#757575" stroke="#757575" points="1686.43,-158.84 1694.11,-151.55 1683.56,-152.46 1686.43,-158.84"/>
</g>
<!-- dist/utils/parsers.js -->
<g id="node29" class="node">
<title>dist/utils/parsers.js</title>
<path fill="none" stroke="#c6c5fe" d="M1564.83,-131.53C1564.83,-131.53 1452.17,-131.53 1452.17,-131.53 1448.33,-131.53 1444.5,-127.7 1444.5,-123.86 1444.5,-123.86 1444.5,-116.2 1444.5,-116.2 1444.5,-112.36 1448.33,-108.53 1452.17,-108.53 1452.17,-108.53 1564.83,-108.53 1564.83,-108.53 1568.67,-108.53 1572.5,-112.36 1572.5,-116.2 1572.5,-116.2 1572.5,-123.86 1572.5,-123.86 1572.5,-127.7 1568.67,-131.53 1564.83,-131.53"/>
<text text-anchor="middle" x="1508.5" y="-116.33" font-family="Arial" font-size="14.00" fill="#c6c5fe">dist/utils/parsers.js</text>
</g>
<!-- dist/utils/index.js&#45;&gt;dist/utils/parsers.js -->
<g id="edge65" class="edge">
<title>dist/utils/index.js&#45;&gt;dist/utils/parsers.js</title>
<path fill="none" stroke="#757575" d="M1303.79,-322.88C1328.18,-317.03 1355.12,-306.38 1373,-287.03 1416.89,-239.53 1363.45,-191.95 1409,-146.03 1416.19,-138.78 1425.15,-133.48 1434.72,-129.61"/>
<polygon fill="#757575" stroke="#757575" points="1436.16,-132.82 1444.44,-126.21 1433.85,-126.21 1436.16,-132.82"/>
</g>
<!-- dist/utils/promise&#45;timeout.js -->
<g id="node30" class="node">
<title>dist/utils/promise&#45;timeout.js</title>
<path fill="none" stroke="#c6c5fe" d="M1591.33,-350.53C1591.33,-350.53 1425.67,-350.53 1425.67,-350.53 1421.83,-350.53 1418,-346.7 1418,-342.86 1418,-342.86 1418,-335.2 1418,-335.2 1418,-331.36 1421.83,-327.53 1425.67,-327.53 1425.67,-327.53 1591.33,-327.53 1591.33,-327.53 1595.17,-327.53 1599,-331.36 1599,-335.2 1599,-335.2 1599,-342.86 1599,-342.86 1599,-346.7 1595.17,-350.53 1591.33,-350.53"/>
<text text-anchor="middle" x="1508.5" y="-335.33" font-family="Arial" font-size="14.00" fill="#c6c5fe">dist/utils/promise&#45;timeout.js</text>
</g>
<!-- dist/utils/index.js&#45;&gt;dist/utils/promise&#45;timeout.js -->
<g id="edge66" class="edge">
<title>dist/utils/index.js&#45;&gt;dist/utils/promise&#45;timeout.js</title>
<path fill="none" stroke="#757575" d="M1303.52,-331.98C1333.9,-333.03 1372.24,-334.36 1407.47,-335.57"/>
<polygon fill="#757575" stroke="#757575" points="1407.68,-339.08 1417.8,-335.93 1407.92,-332.09 1407.68,-339.08"/>
</g>
<!-- dist/cluster/cluster.module.js -->
<g id="node7" class="node">
<title>dist/cluster/cluster.module.js</title>
<path fill="none" stroke="#c6c5fe" d="M301.33,-670.53C301.33,-670.53 130.67,-670.53 130.67,-670.53 126.83,-670.53 123,-666.7 123,-662.86 123,-662.86 123,-655.2 123,-655.2 123,-651.36 126.83,-647.53 130.67,-647.53 130.67,-647.53 301.33,-647.53 301.33,-647.53 305.17,-647.53 309,-651.36 309,-655.2 309,-655.2 309,-662.86 309,-662.86 309,-666.7 305.17,-670.53 301.33,-670.53"/>
<text text-anchor="middle" x="216" y="-655.33" font-family="Arial" font-size="14.00" fill="#c6c5fe">dist/cluster/cluster.module.js</text>
</g>
<!-- dist/cluster/cluster.module.js&#45;&gt;dist/cluster/cluster&#45;logger.js -->
<g id="edge6" class="edge">
<title>dist/cluster/cluster.module.js&#45;&gt;dist/cluster/cluster&#45;logger.js</title>
<path fill="none" stroke="#757575" d="M230.03,-670.79C251.96,-689.81 298.42,-726.94 345,-744.03 630.32,-848.73 1001.16,-815.2 1163.21,-792.99"/>
<polygon fill="#757575" stroke="#757575" points="1164.16,-796.39 1173.58,-791.54 1163.19,-789.45 1164.16,-796.39"/>
</g>
<!-- dist/cluster/cluster.module.js&#45;&gt;dist/cluster/cluster.constants.js -->
<g id="edge8" class="edge">
<title>dist/cluster/cluster.module.js&#45;&gt;dist/cluster/cluster.constants.js</title>
<path fill="none" stroke="#757575" d="M225.35,-670.87C243.75,-695.98 290.53,-754.52 345,-782.03 438.78,-829.4 473.33,-812.9 578,-822.03 930.12,-852.74 1025.63,-866.33 1373,-801.03 1405.23,-794.97 1440.67,-783.98 1467.08,-774.9"/>
<polygon fill="#757575" stroke="#757575" points="1468.44,-778.13 1476.73,-771.53 1466.14,-771.53 1468.44,-778.13"/>
</g>
<!-- dist/cluster/cluster.module.js&#45;&gt;dist/cluster/cluster&#45;manager.js -->
<g id="edge7" class="edge">
<title>dist/cluster/cluster.module.js&#45;&gt;dist/cluster/cluster&#45;manager.js</title>
<path fill="none" stroke="#757575" d="M309.12,-651.76C374.19,-646.61 463.44,-639.48 542,-633.03 553.29,-632.1 565.09,-631.13 576.84,-630.14"/>
<polygon fill="#757575" stroke="#757575" points="577.48,-633.6 587.15,-629.28 576.9,-626.63 577.48,-633.6"/>
</g>
<!-- dist/cluster/cluster.module.js&#45;&gt;dist/errors/index.js -->
<g id="edge11" class="edge">
<title>dist/cluster/cluster.module.js&#45;&gt;dist/errors/index.js</title>
<path fill="none" stroke="#757575" d="M228.44,-647.5C249.41,-627.17 296.35,-585.38 345,-567.03 369.84,-557.66 726.83,-526.42 882.88,-513.12"/>
<polygon fill="#757575" stroke="#757575" points="883.2,-516.6 892.86,-512.27 882.6,-509.63 883.2,-516.6"/>
</g>
<!-- dist/cluster/cluster.module.js&#45;&gt;dist/messages/index.js -->
<g id="edge12" class="edge">
<title>dist/cluster/cluster.module.js&#45;&gt;dist/messages/index.js</title>
<path fill="none" stroke="#757575" d="M260.89,-647.52C285.49,-641.38 316.8,-634.07 345,-629.03 447.72,-610.65 474.01,-608.78 578,-600.03 930.43,-570.39 1025.6,-631.37 1373,-565.03 1491.12,-542.47 1623.58,-487.87 1684.9,-460.79"/>
<polygon fill="#757575" stroke="#757575" points="1686.41,-463.96 1694.12,-456.69 1683.56,-457.56 1686.41,-463.96"/>
</g>
<!-- dist/cluster/cluster.module.js&#45;&gt;dist/utils/index.js -->
<g id="edge13" class="edge">
<title>dist/cluster/cluster.module.js&#45;&gt;dist/utils/index.js</title>
<path fill="none" stroke="#757575" d="M221.27,-647.22C238.08,-601.38 300.95,-436.11 345,-404.03 411.92,-355.29 981.09,-336.6 1178.17,-331.56"/>
<polygon fill="#757575" stroke="#757575" points="1178.47,-335.05 1188.38,-331.3 1178.3,-328.05 1178.47,-335.05"/>
</g>
<!-- dist/cluster/cluster.providers.js -->
<g id="node8" class="node">
<title>dist/cluster/cluster.providers.js</title>
<path fill="none" stroke="#c6c5fe" d="M534.33,-708.53C534.33,-708.53 352.67,-708.53 352.67,-708.53 348.83,-708.53 345,-704.7 345,-700.86 345,-700.86 345,-693.2 345,-693.2 345,-689.36 348.83,-685.53 352.67,-685.53 352.67,-685.53 534.33,-685.53 534.33,-685.53 538.17,-685.53 542,-689.36 542,-693.2 542,-693.2 542,-700.86 542,-700.86 542,-704.7 538.17,-708.53 534.33,-708.53"/>
<text text-anchor="middle" x="443.5" y="-693.33" font-family="Arial" font-size="14.00" fill="#c6c5fe">dist/cluster/cluster.providers.js</text>
</g>
<!-- dist/cluster/cluster.module.js&#45;&gt;dist/cluster/cluster.providers.js -->
<g id="edge9" class="edge">
<title>dist/cluster/cluster.module.js&#45;&gt;dist/cluster/cluster.providers.js</title>
<path fill="none" stroke="#757575" d="M285.27,-670.53C310.1,-674.72 338.36,-679.48 364.01,-683.8"/>
<polygon fill="#757575" stroke="#757575" points="363.63,-687.29 374.07,-685.5 364.79,-680.39 363.63,-687.29"/>
</g>
<!-- dist/cluster/common/index.js -->
<g id="node9" class="node">
<title>dist/cluster/common/index.js</title>
<path fill="none" stroke="#c6c5fe" d="M771.83,-753.53C771.83,-753.53 599.17,-753.53 599.17,-753.53 595.33,-753.53 591.5,-749.7 591.5,-745.86 591.5,-745.86 591.5,-738.2 591.5,-738.2 591.5,-734.36 595.33,-730.53 599.17,-730.53 599.17,-730.53 771.83,-730.53 771.83,-730.53 775.67,-730.53 779.5,-734.36 779.5,-738.2 779.5,-738.2 779.5,-745.86 779.5,-745.86 779.5,-749.7 775.67,-753.53 771.83,-753.53"/>
<text text-anchor="middle" x="685.5" y="-738.33" font-family="Arial" font-size="14.00" fill="#c6c5fe">dist/cluster/common/index.js</text>
</g>
<!-- dist/cluster/cluster.module.js&#45;&gt;dist/cluster/common/index.js -->
<g id="edge10" class="edge">
<title>dist/cluster/cluster.module.js&#45;&gt;dist/cluster/common/index.js</title>
<path fill="none" stroke="#757575" d="M236.13,-670.54C260.47,-684.53 304.23,-707.57 345,-718.03 422.44,-737.91 512.86,-743.48 580.9,-744.31"/>
<polygon fill="#757575" stroke="#757575" points="581.17,-747.81 591.2,-744.4 581.23,-740.81 581.17,-747.81"/>
</g>
<!-- dist/cluster/cluster.providers.js&#45;&gt;dist/cluster/cluster.constants.js -->
<g id="edge15" class="edge">
<title>dist/cluster/cluster.providers.js&#45;&gt;dist/cluster/cluster.constants.js</title>
<path fill="none" stroke="#757575" d="M542.05,-697.77C711.54,-699.91 1071.18,-708.3 1373,-741.03 1388.92,-742.76 1405.86,-744.9 1422.15,-747.13"/>
<polygon fill="#757575" stroke="#757575" points="1421.82,-750.61 1432.2,-748.52 1422.78,-743.68 1421.82,-750.61"/>
</g>
<!-- dist/cluster/cluster.providers.js&#45;&gt;dist/cluster/cluster&#45;manager.js -->
<g id="edge14" class="edge">
<title>dist/cluster/cluster.providers.js&#45;&gt;dist/cluster/cluster&#45;manager.js</title>
<path fill="none" stroke="#757575" d="M503.71,-685.48C516.71,-681.79 530.13,-677.05 542,-671.03 560.32,-661.74 559.38,-650.71 578,-642.03 583.07,-639.67 588.4,-637.57 593.85,-635.7"/>
<polygon fill="#757575" stroke="#757575" points="595.28,-638.92 603.78,-632.6 593.19,-632.24 595.28,-638.92"/>
</g>
<!-- dist/cluster/cluster.providers.js&#45;&gt;dist/cluster/common/index.js -->
<g id="edge16" class="edge">
<title>dist/cluster/cluster.providers.js&#45;&gt;dist/cluster/common/index.js</title>
<path fill="none" stroke="#757575" d="M505.99,-708.56C538.73,-714.7 579.17,-722.28 613.27,-728.67"/>
<polygon fill="#757575" stroke="#757575" points="612.69,-732.13 623.17,-730.53 613.98,-725.25 612.69,-732.13"/>
</g>
<!-- dist/cluster/default&#45;options.js -->
<g id="node10" class="node">
<title>dist/cluster/default&#45;options.js</title>
<path fill="none" stroke="#cfffac" d="M771.33,-673.53C771.33,-673.53 599.67,-673.53 599.67,-673.53 595.83,-673.53 592,-669.7 592,-665.86 592,-665.86 592,-658.2 592,-658.2 592,-654.36 595.83,-650.53 599.67,-650.53 599.67,-650.53 771.33,-650.53 771.33,-650.53 775.17,-650.53 779,-654.36 779,-658.2 779,-658.2 779,-665.86 779,-665.86 779,-669.7 775.17,-673.53 771.33,-673.53"/>
<text text-anchor="middle" x="685.5" y="-658.33" font-family="Arial" font-size="14.00" fill="#cfffac">dist/cluster/default&#45;options.js</text>
</g>
<!-- dist/cluster/cluster.providers.js&#45;&gt;dist/cluster/default&#45;options.js -->
<g id="edge17" class="edge">
<title>dist/cluster/cluster.providers.js&#45;&gt;dist/cluster/default&#45;options.js</title>
<path fill="none" stroke="#757575" d="M523.42,-685.52C546.49,-682.16 571.87,-678.46 595.52,-675.01"/>
<polygon fill="#757575" stroke="#757575" points="596.14,-678.45 605.54,-673.55 595.13,-671.53 596.14,-678.45"/>
</g>
<!-- dist/cluster/common/cluster.decorator.js -->
<g id="node11" class="node">
<title>dist/cluster/common/cluster.decorator.js</title>
<path fill="none" stroke="#c6c5fe" d="M1075.33,-750.53C1075.33,-750.53 836.67,-750.53 836.67,-750.53 832.83,-750.53 829,-746.7 829,-742.86 829,-742.86 829,-735.2 829,-735.2 829,-731.36 832.83,-727.53 836.67,-727.53 836.67,-727.53 1075.33,-727.53 1075.33,-727.53 1079.17,-727.53 1083,-731.36 1083,-735.2 1083,-735.2 1083,-742.86 1083,-742.86 1083,-746.7 1079.17,-750.53 1075.33,-750.53"/>
<text text-anchor="middle" x="956" y="-735.33" font-family="Arial" font-size="14.00" fill="#c6c5fe">dist/cluster/common/cluster.decorator.js</text>
</g>
<!-- dist/cluster/common/index.js&#45;&gt;dist/cluster/common/cluster.decorator.js -->
<g id="edge23" class="edge">
<title>dist/cluster/common/index.js&#45;&gt;dist/cluster/common/cluster.decorator.js</title>
<path fill="none" stroke="#757575" d="M779.65,-740.99C792.33,-740.85 805.54,-740.7 818.78,-740.55"/>
<polygon fill="#757575" stroke="#757575" points="818.94,-744.05 828.9,-740.44 818.86,-737.05 818.94,-744.05"/>
</g>
<!-- dist/cluster/common/cluster.utils.js -->
<g id="node12" class="node">
<title>dist/cluster/common/cluster.utils.js</title>
<path fill="none" stroke="#c6c5fe" d="M1059.33,-791.53C1059.33,-791.53 852.67,-791.53 852.67,-791.53 848.83,-791.53 845,-787.7 845,-783.86 845,-783.86 845,-776.2 845,-776.2 845,-772.36 848.83,-768.53 852.67,-768.53 852.67,-768.53 1059.33,-768.53 1059.33,-768.53 1063.17,-768.53 1067,-772.36 1067,-776.2 1067,-776.2 1067,-783.86 1067,-783.86 1067,-787.7 1063.17,-791.53 1059.33,-791.53"/>
<text text-anchor="middle" x="956" y="-776.33" font-family="Arial" font-size="14.00" fill="#c6c5fe">dist/cluster/common/cluster.utils.js</text>
</g>
<!-- dist/cluster/common/index.js&#45;&gt;dist/cluster/common/cluster.utils.js -->
<g id="edge24" class="edge">
<title>dist/cluster/common/index.js&#45;&gt;dist/cluster/common/cluster.utils.js</title>
<path fill="none" stroke="#757575" d="M767.79,-753.53C798.01,-757.81 832.5,-762.69 863.57,-767.09"/>
<polygon fill="#757575" stroke="#757575" points="863.13,-770.56 873.53,-768.5 864.11,-763.63 863.13,-770.56"/>
</g>
<!-- dist/cluster/common/cluster.decorator.js&#45;&gt;dist/cluster/cluster.constants.js -->
<g id="edge18" class="edge">
<title>dist/cluster/common/cluster.decorator.js&#45;&gt;dist/cluster/cluster.constants.js</title>
<path fill="none" stroke="#757575" d="M1083.3,-743.85C1178.6,-747.48 1308.01,-752.42 1398.74,-755.88"/>
<polygon fill="#757575" stroke="#757575" points="1398.66,-759.38 1408.78,-756.26 1398.92,-752.39 1398.66,-759.38"/>
</g>
<!-- dist/cluster/common/cluster.decorator.js&#45;&gt;dist/utils/index.js -->
<g id="edge19" class="edge">
<title>dist/cluster/common/cluster.decorator.js&#45;&gt;dist/utils/index.js</title>
<path fill="none" stroke="#757575" d="M966.34,-727.45C988.4,-699.79 1044.72,-627.24 1083,-561.03 1102.11,-527.98 1098.7,-515.37 1119,-483.03 1151.64,-431.04 1199.97,-377.21 1226.28,-349.36"/>
<polygon fill="#757575" stroke="#757575" points="1229.03,-351.55 1233.39,-341.89 1223.96,-346.72 1229.03,-351.55"/>
</g>
<!-- dist/cluster/common/cluster.utils.js&#45;&gt;dist/cluster/cluster&#45;logger.js -->
<g id="edge20" class="edge">
<title>dist/cluster/common/cluster.utils.js&#45;&gt;dist/cluster/cluster&#45;logger.js</title>
<path fill="none" stroke="#757575" d="M1067.11,-780.03C1093.19,-780.03 1120.83,-780.03 1146.36,-780.03"/>
<polygon fill="#757575" stroke="#757575" points="1146.41,-783.53 1156.41,-780.03 1146.41,-776.53 1146.41,-783.53"/>
</g>
<!-- dist/cluster/common/cluster.utils.js&#45;&gt;dist/messages/index.js -->
<g id="edge21" class="edge">
<title>dist/cluster/common/cluster.utils.js&#45;&gt;dist/messages/index.js</title>
<path fill="none" stroke="#757575" d="M986.71,-791.55C1086.94,-828.28 1416.96,-931.65 1608,-781.03 1708.87,-701.5 1719.36,-527.89 1719.81,-466.81"/>
<polygon fill="#757575" stroke="#757575" points="1723.31,-466.76 1719.79,-456.77 1716.31,-466.77 1723.31,-466.76"/>
</g>
<!-- dist/cluster/common/cluster.utils.js&#45;&gt;dist/utils/index.js -->
<g id="edge22" class="edge">
<title>dist/cluster/common/cluster.utils.js&#45;&gt;dist/utils/index.js</title>
<path fill="none" stroke="#757575" d="M1067.1,-772.09C1072.92,-768.85 1078.29,-764.87 1083,-760.03 1126.27,-715.52 1094.31,-539.98 1119,-483.03 1143.27,-427.05 1194.37,-375.21 1223.49,-348.64"/>
<polygon fill="#757575" stroke="#757575" points="1225.97,-351.11 1231.08,-341.83 1221.3,-345.9 1225.97,-351.11"/>
</g>
<!-- dist/health/index.js -->
<g id="node15" class="node">
<title>dist/health/index.js</title>
<path fill="none" stroke="#c6c5fe" d="M499.83,-436.53C499.83,-436.53 387.17,-436.53 387.17,-436.53 383.33,-436.53 379.5,-432.7 379.5,-428.86 379.5,-428.86 379.5,-421.2 379.5,-421.2 379.5,-417.36 383.33,-413.53 387.17,-413.53 387.17,-413.53 499.83,-413.53 499.83,-413.53 503.67,-413.53 507.5,-417.36 507.5,-421.2 507.5,-421.2 507.5,-428.86 507.5,-428.86 507.5,-432.7 503.67,-436.53 499.83,-436.53"/>
<text text-anchor="middle" x="443.5" y="-421.33" font-family="Arial" font-size="14.00" fill="#c6c5fe">dist/health/index.js</text>
</g>
<!-- dist/health/indicators/redis.health.js -->
<g id="node16" class="node">
<title>dist/health/indicators/redis.health.js</title>
<path fill="none" stroke="#c6c5fe" d="M1061.83,-438.53C1061.83,-438.53 850.17,-438.53 850.17,-438.53 846.33,-438.53 842.5,-434.7 842.5,-430.86 842.5,-430.86 842.5,-423.2 842.5,-423.2 842.5,-419.36 846.33,-415.53 850.17,-415.53 850.17,-415.53 1061.83,-415.53 1061.83,-415.53 1065.67,-415.53 1069.5,-419.36 1069.5,-423.2 1069.5,-423.2 1069.5,-430.86 1069.5,-430.86 1069.5,-434.7 1065.67,-438.53 1061.83,-438.53"/>
<text text-anchor="middle" x="956" y="-423.33" font-family="Arial" font-size="14.00" fill="#c6c5fe">dist/health/indicators/redis.health.js</text>
</g>
<!-- dist/health/index.js&#45;&gt;dist/health/indicators/redis.health.js -->
<g id="edge27" class="edge">
<title>dist/health/index.js&#45;&gt;dist/health/indicators/redis.health.js</title>
<path fill="none" stroke="#757575" d="M507.61,-425.28C588.29,-425.59 729.75,-426.15 832.04,-426.55"/>
<polygon fill="#757575" stroke="#757575" points="832.11,-430.05 842.13,-426.59 832.14,-423.05 832.11,-430.05"/>
</g>
<!-- dist/health/redis&#45;health.module.js -->
<g id="node17" class="node">
<title>dist/health/redis&#45;health.module.js</title>
<path fill="none" stroke="#c6c5fe" d="M785.33,-400.53C785.33,-400.53 585.67,-400.53 585.67,-400.53 581.83,-400.53 578,-396.7 578,-392.86 578,-392.86 578,-385.2 578,-385.2 578,-381.36 581.83,-377.53 585.67,-377.53 585.67,-377.53 785.33,-377.53 785.33,-377.53 789.17,-377.53 793,-381.36 793,-385.2 793,-385.2 793,-392.86 793,-392.86 793,-396.7 789.17,-400.53 785.33,-400.53"/>
<text text-anchor="middle" x="685.5" y="-385.33" font-family="Arial" font-size="14.00" fill="#c6c5fe">dist/health/redis&#45;health.module.js</text>
</g>
<!-- dist/health/index.js&#45;&gt;dist/health/redis&#45;health.module.js -->
<g id="edge28" class="edge">
<title>dist/health/index.js&#45;&gt;dist/health/redis&#45;health.module.js</title>
<path fill="none" stroke="#757575" d="M507.56,-415.57C535.13,-411.44 567.93,-406.52 597.75,-402.04"/>
<polygon fill="#757575" stroke="#757575" points="598.37,-405.49 607.74,-400.54 597.33,-398.57 598.37,-405.49"/>
</g>
<!-- dist/health/indicators/redis.health.js&#45;&gt;dist/messages/index.js -->
<g id="edge29" class="edge">
<title>dist/health/indicators/redis.health.js&#45;&gt;dist/messages/index.js</title>
<path fill="none" stroke="#757575" d="M1069.51,-429.69C1223.19,-433.31 1495.39,-439.74 1633.7,-443"/>
<polygon fill="#757575" stroke="#757575" points="1633.74,-446.51 1643.82,-443.24 1633.91,-439.51 1633.74,-446.51"/>
</g>
<!-- dist/health/indicators/redis.health.js&#45;&gt;dist/utils/index.js -->
<g id="edge30" class="edge">
<title>dist/health/indicators/redis.health.js&#45;&gt;dist/utils/index.js</title>
<path fill="none" stroke="#757575" d="M991.17,-415.52C1043.42,-397.92 1143.19,-364.32 1200.86,-344.9"/>
<polygon fill="#757575" stroke="#757575" points="1202.07,-348.18 1210.43,-341.67 1199.83,-341.55 1202.07,-348.18"/>
</g>
<!-- dist/health/redis&#45;health.module.js&#45;&gt;dist/health/indicators/redis.health.js -->
<g id="edge31" class="edge">
<title>dist/health/redis&#45;health.module.js&#45;&gt;dist/health/indicators/redis.health.js</title>
<path fill="none" stroke="#757575" d="M767.79,-400.53C798.01,-404.81 832.5,-409.69 863.57,-414.09"/>
<polygon fill="#757575" stroke="#757575" points="863.13,-417.56 873.53,-415.5 864.11,-410.63 863.13,-417.56"/>
</g>
<!-- dist/index.js -->
<g id="node18" class="node">
<title>dist/index.js</title>
<path fill="none" stroke="#c6c5fe" d="M79.33,-493.53C79.33,-493.53 7.67,-493.53 7.67,-493.53 3.83,-493.53 0,-489.7 0,-485.86 0,-485.86 0,-478.2 0,-478.2 0,-474.36 3.83,-470.53 7.67,-470.53 7.67,-470.53 79.33,-470.53 79.33,-470.53 83.17,-470.53 87,-474.36 87,-478.2 87,-478.2 87,-485.86 87,-485.86 87,-489.7 83.17,-493.53 79.33,-493.53"/>
<text text-anchor="middle" x="43.5" y="-478.33" font-family="Arial" font-size="14.00" fill="#c6c5fe">dist/index.js</text>
</g>
<!-- dist/index.js&#45;&gt;dist/cluster/cluster.constants.js -->
<g id="edge33" class="edge">
<title>dist/index.js&#45;&gt;dist/cluster/cluster.constants.js</title>
<path fill="none" stroke="#757575" d="M44.96,-493.66C47.08,-532.63 58.83,-660.33 123,-736.03 225.69,-857.17 283.69,-896.03 442.5,-896.03 442.5,-896.03 442.5,-896.03 957,-896.03 1143.93,-896.03 1195.88,-893.8 1373,-834.03 1413.66,-820.31 1456.38,-794.57 1482.48,-777.37"/>
<polygon fill="#757575" stroke="#757575" points="1484.63,-780.14 1490.99,-771.67 1480.74,-774.32 1484.63,-780.14"/>
</g>
<!-- dist/index.js&#45;&gt;dist/cluster/cluster&#45;manager.js -->
<g id="edge32" class="edge">
<title>dist/index.js&#45;&gt;dist/cluster/cluster&#45;manager.js</title>
<path fill="none" stroke="#757575" d="M87.49,-491.37C197.84,-515.33 491.54,-579.12 621.33,-607.31"/>
<polygon fill="#757575" stroke="#757575" points="620.61,-610.74 631.13,-609.44 622.1,-603.9 620.61,-610.74"/>
</g>
<!-- dist/index.js&#45;&gt;dist/cluster/cluster.module.js -->
<g id="edge34" class="edge">
<title>dist/index.js&#45;&gt;dist/cluster/cluster.module.js</title>
<path fill="none" stroke="#757575" d="M47.22,-493.9C54.38,-522.4 76.49,-595.16 123,-633.03 127.98,-637.09 133.56,-640.51 139.45,-643.4"/>
<polygon fill="#757575" stroke="#757575" points="138.33,-646.74 148.9,-647.52 141.13,-640.32 138.33,-646.74"/>
</g>
<!-- dist/index.js&#45;&gt;dist/cluster/common/index.js -->
<g id="edge35" class="edge">
<title>dist/index.js&#45;&gt;dist/cluster/common/index.js</title>
<path fill="none" stroke="#757575" d="M45.62,-493.86C49.51,-528.04 65.5,-627.84 123,-680.03 263.46,-807.52 512.19,-777.76 625.41,-755.58"/>
<polygon fill="#757575" stroke="#757575" points="626.17,-759 635.29,-753.6 624.79,-752.14 626.17,-759"/>
</g>
<!-- dist/redis/common/index.js -->
<g id="node19" class="node">
<title>dist/redis/common/index.js</title>
<path fill="none" stroke="#c6c5fe" d="M766.33,-160.53C766.33,-160.53 604.67,-160.53 604.67,-160.53 600.83,-160.53 597,-156.7 597,-152.86 597,-152.86 597,-145.2 597,-145.2 597,-141.36 600.83,-137.53 604.67,-137.53 604.67,-137.53 766.33,-137.53 766.33,-137.53 770.17,-137.53 774,-141.36 774,-145.2 774,-145.2 774,-152.86 774,-152.86 774,-156.7 770.17,-160.53 766.33,-160.53"/>
<text text-anchor="middle" x="685.5" y="-145.33" font-family="Arial" font-size="14.00" fill="#c6c5fe">dist/redis/common/index.js</text>
</g>
<!-- dist/index.js&#45;&gt;dist/redis/common/index.js -->
<g id="edge36" class="edge">
<title>dist/index.js&#45;&gt;dist/redis/common/index.js</title>
<path fill="none" stroke="#757575" d="M45.04,-470.28C47.38,-432.71 59.68,-314.06 123,-248.03 247.28,-118.42 477.36,-122.79 600.91,-136.33"/>
<polygon fill="#757575" stroke="#757575" points="600.73,-139.84 611.07,-137.5 601.53,-132.88 600.73,-139.84"/>
</g>
<!-- dist/redis/redis&#45;manager.js -->
<g id="node20" class="node">
<title>dist/redis/redis&#45;manager.js</title>
<path fill="none" stroke="#c6c5fe" d="M765.33,-320.53C765.33,-320.53 605.67,-320.53 605.67,-320.53 601.83,-320.53 598,-316.7 598,-312.86 598,-312.86 598,-305.2 598,-305.2 598,-301.36 601.83,-297.53 605.67,-297.53 605.67,-297.53 765.33,-297.53 765.33,-297.53 769.17,-297.53 773,-301.36 773,-305.2 773,-305.2 773,-312.86 773,-312.86 773,-316.7 769.17,-320.53 765.33,-320.53"/>
<text text-anchor="middle" x="685.5" y="-305.33" font-family="Arial" font-size="14.00" fill="#c6c5fe">dist/redis/redis&#45;manager.js</text>
</g>
<!-- dist/index.js&#45;&gt;dist/redis/redis&#45;manager.js -->
<g id="edge37" class="edge">
<title>dist/index.js&#45;&gt;dist/redis/redis&#45;manager.js</title>
<path fill="none" stroke="#757575" d="M52.59,-470.25C65.35,-452.7 91.9,-420.02 123,-404.03 272.36,-327.23 470.74,-310.53 587.32,-307.98"/>
<polygon fill="#757575" stroke="#757575" points="587.71,-311.47 597.65,-307.78 587.58,-304.47 587.71,-311.47"/>
</g>
<!-- dist/redis/redis.constants.js -->
<g id="node21" class="node">
<title>dist/redis/redis.constants.js</title>
<path fill="none" stroke="#cfffac" d="M1590.33,-90.53C1590.33,-90.53 1426.67,-90.53 1426.67,-90.53 1422.83,-90.53 1419,-86.7 1419,-82.86 1419,-82.86 1419,-75.2 1419,-75.2 1419,-71.36 1422.83,-67.53 1426.67,-67.53 1426.67,-67.53 1590.33,-67.53 1590.33,-67.53 1594.17,-67.53 1598,-71.36 1598,-75.2 1598,-75.2 1598,-82.86 1598,-82.86 1598,-86.7 1594.17,-90.53 1590.33,-90.53"/>
<text text-anchor="middle" x="1508.5" y="-75.33" font-family="Arial" font-size="14.00" fill="#cfffac">dist/redis/redis.constants.js</text>
</g>
<!-- dist/index.js&#45;&gt;dist/redis/redis.constants.js -->
<g id="edge38" class="edge">
<title>dist/index.js&#45;&gt;dist/redis/redis.constants.js</title>
<path fill="none" stroke="#757575" d="M43.96,-470.22C42.48,-423.85 42.83,-251.69 123,-148.03 218.74,-24.24 286,-0.03 442.5,-0.03 442.5,-0.03 442.5,-0.03 957,-0.03 1142.58,-0.03 1191.04,0.45 1373,-36.03 1405.82,-42.61 1441.9,-54.41 1468.42,-63.98"/>
<polygon fill="#757575" stroke="#757575" points="1467.49,-67.37 1478.09,-67.53 1469.9,-60.8 1467.49,-67.37"/>
</g>
<!-- dist/redis/redis.module.js -->
<g id="node22" class="node">
<title>dist/redis/redis.module.js</title>
<path fill="none" stroke="#c6c5fe" d="M291.33,-280.53C291.33,-280.53 140.67,-280.53 140.67,-280.53 136.83,-280.53 133,-276.7 133,-272.86 133,-272.86 133,-265.2 133,-265.2 133,-261.36 136.83,-257.53 140.67,-257.53 140.67,-257.53 291.33,-257.53 291.33,-257.53 295.17,-257.53 299,-261.36 299,-265.2 299,-265.2 299,-272.86 299,-272.86 299,-276.7 295.17,-280.53 291.33,-280.53"/>
<text text-anchor="middle" x="216" y="-265.33" font-family="Arial" font-size="14.00" fill="#c6c5fe">dist/redis/redis.module.js</text>
</g>
<!-- dist/index.js&#45;&gt;dist/redis/redis.module.js -->
<g id="edge39" class="edge">
<title>dist/index.js&#45;&gt;dist/redis/redis.module.js</title>
<path fill="none" stroke="#757575" d="M48.34,-470.25C57.62,-443.16 83.46,-375.34 123,-331.03 139.75,-312.26 163.36,-296.5 182.47,-285.57"/>
<polygon fill="#757575" stroke="#757575" points="184.39,-288.51 191.44,-280.6 180.99,-282.39 184.39,-288.51"/>
</g>
<!-- dist/redis/common/redis.decorator.js -->
<g id="node23" class="node">
<title>dist/redis/common/redis.decorator.js</title>
<path fill="none" stroke="#c6c5fe" d="M1065.33,-168.53C1065.33,-168.53 846.67,-168.53 846.67,-168.53 842.83,-168.53 839,-164.7 839,-160.86 839,-160.86 839,-153.2 839,-153.2 839,-149.36 842.83,-145.53 846.67,-145.53 846.67,-145.53 1065.33,-145.53 1065.33,-145.53 1069.17,-145.53 1073,-149.36 1073,-153.2 1073,-153.2 1073,-160.86 1073,-160.86 1073,-164.7 1069.17,-168.53 1065.33,-168.53"/>
<text text-anchor="middle" x="956" y="-153.33" font-family="Arial" font-size="14.00" fill="#c6c5fe">dist/redis/common/redis.decorator.js</text>
</g>
<!-- dist/redis/common/index.js&#45;&gt;dist/redis/common/redis.decorator.js -->
<g id="edge40" class="edge">
<title>dist/redis/common/index.js&#45;&gt;dist/redis/common/redis.decorator.js</title>
<path fill="none" stroke="#757575" d="M774.05,-151.64C791.48,-152.16 810.11,-152.71 828.54,-153.26"/>
<polygon fill="#757575" stroke="#757575" points="828.66,-156.77 838.76,-153.57 828.86,-149.77 828.66,-156.77"/>
</g>
<!-- dist/redis/common/redis.utils.js -->
<g id="node24" class="node">
<title>dist/redis/common/redis.utils.js</title>
<path fill="none" stroke="#c6c5fe" d="M1049.33,-127.53C1049.33,-127.53 862.67,-127.53 862.67,-127.53 858.83,-127.53 855,-123.7 855,-119.86 855,-119.86 855,-112.2 855,-112.2 855,-108.36 858.83,-104.53 862.67,-104.53 862.67,-104.53 1049.33,-104.53 1049.33,-104.53 1053.17,-104.53 1057,-108.36 1057,-112.2 1057,-112.2 1057,-119.86 1057,-119.86 1057,-123.7 1053.17,-127.53 1049.33,-127.53"/>
<text text-anchor="middle" x="956" y="-112.33" font-family="Arial" font-size="14.00" fill="#c6c5fe">dist/redis/common/redis.utils.js</text>
</g>
<!-- dist/redis/common/index.js&#45;&gt;dist/redis/common/redis.utils.js -->
<g id="edge41" class="edge">
<title>dist/redis/common/index.js&#45;&gt;dist/redis/common/redis.utils.js</title>
<path fill="none" stroke="#757575" d="M774.05,-138.27C798.63,-135.25 825.61,-131.93 851.05,-128.81"/>
<polygon fill="#757575" stroke="#757575" points="851.6,-132.27 861.1,-127.57 850.74,-125.32 851.6,-132.27"/>
</g>
<!-- dist/redis/redis&#45;manager.js&#45;&gt;dist/errors/index.js -->
<g id="edge48" class="edge">
<title>dist/redis/redis&#45;manager.js&#45;&gt;dist/errors/index.js</title>
<path fill="none" stroke="#757575" d="M718.93,-320.6C742.08,-330.25 772.62,-345.99 793,-368.03 819.19,-396.36 801.95,-419.52 829,-447.03 849.56,-467.94 878.85,-482.49 904.01,-492.02"/>
<polygon fill="#757575" stroke="#757575" points="902.83,-495.32 913.42,-495.43 905.21,-488.73 902.83,-495.32"/>
</g>
<!-- dist/redis/redis&#45;manager.js&#45;&gt;dist/messages/index.js -->
<g id="edge49" class="edge">
<title>dist/redis/redis&#45;manager.js&#45;&gt;dist/messages/index.js</title>
<path fill="none" stroke="#757575" d="M748.47,-320.59C773.44,-325.07 802.55,-330.06 829,-334.03 1123.56,-378.2 1474.79,-418.3 1633.78,-435.78"/>
<polygon fill="#757575" stroke="#757575" points="1633.65,-439.29 1643.98,-436.9 1634.42,-432.33 1633.65,-439.29"/>
</g>
<!-- dist/redis/redis&#45;manager.js&#45;&gt;dist/utils/index.js -->
<g id="edge51" class="edge">
<title>dist/redis/redis&#45;manager.js&#45;&gt;dist/utils/index.js</title>
<path fill="none" stroke="#757575" d="M773.15,-312.29C884.98,-316.49 1077.13,-323.72 1178.28,-327.52"/>
<polygon fill="#757575" stroke="#757575" points="1178.24,-331.02 1188.37,-327.9 1178.51,-324.03 1178.24,-331.02"/>
</g>
<!-- dist/redis/redis&#45;manager.js&#45;&gt;dist/redis/redis.constants.js -->
<g id="edge50" class="edge">
<title>dist/redis/redis&#45;manager.js&#45;&gt;dist/redis/redis.constants.js</title>
<path fill="none" stroke="#757575" d="M773.04,-307.8C936.87,-303.72 1283.91,-286.19 1373,-211.03 1412.96,-177.31 1370.04,-133.9 1409,-99.03 1410.14,-98.01 1411.31,-97.04 1412.52,-96.11"/>
<polygon fill="#757575" stroke="#757575" points="1414.48,-99.01 1420.94,-90.61 1410.65,-93.15 1414.48,-99.01"/>
</g>
<!-- dist/redis/redis.module.js&#45;&gt;dist/errors/index.js -->
<g id="edge52" class="edge">
<title>dist/redis/redis.module.js&#45;&gt;dist/errors/index.js</title>
<path fill="none" stroke="#757575" d="M225.78,-280.54C242.98,-303.34 281.77,-356.22 309,-404.03 327.7,-436.86 313.57,-460.07 345,-481.03 388.73,-510.18 730.78,-509.77 882.71,-508.11"/>
<polygon fill="#757575" stroke="#757575" points="882.91,-511.6 892.87,-507.99 882.83,-504.6 882.91,-511.6"/>
</g>
<!-- dist/redis/redis.module.js&#45;&gt;dist/messages/index.js -->
<g id="edge53" class="edge">
<title>dist/redis/redis.module.js&#45;&gt;dist/messages/index.js</title>
<path fill="none" stroke="#757575" d="M224.58,-280.68C249.29,-318.47 326.97,-435.79 345,-445.03 459.14,-503.49 1350.79,-463.77 1633.69,-449.54"/>
<polygon fill="#757575" stroke="#757575" points="1634.08,-453.02 1643.89,-449.02 1633.73,-446.03 1634.08,-453.02"/>
</g>
<!-- dist/redis/redis.module.js&#45;&gt;dist/utils/index.js -->
<g id="edge59" class="edge">
<title>dist/redis/redis.module.js&#45;&gt;dist/utils/index.js</title>
<path fill="none" stroke="#757575" d="M299.08,-270.55C410.86,-272.88 617.18,-278.16 793,-288.03 922.09,-295.27 954.33,-298.39 1083,-311.03 1114.39,-314.11 1149.12,-318.11 1178.36,-321.64"/>
<polygon fill="#757575" stroke="#757575" points="1178.1,-325.14 1188.45,-322.87 1178.95,-318.19 1178.1,-325.14"/>
</g>
<!-- dist/redis/redis.module.js&#45;&gt;dist/redis/common/index.js -->
<g id="edge54" class="edge">
<title>dist/redis/redis.module.js&#45;&gt;dist/redis/common/index.js</title>
<path fill="none" stroke="#757575" d="M237.13,-257.3C261.76,-243.46 305.13,-220.73 345,-208.03 424.46,-182.72 518.04,-167.48 586.81,-158.85"/>
<polygon fill="#757575" stroke="#757575" points="587.28,-162.32 596.77,-157.62 586.42,-155.37 587.28,-162.32"/>
</g>
<!-- dist/redis/redis.module.js&#45;&gt;dist/redis/redis&#45;manager.js -->
<g id="edge56" class="edge">
<title>dist/redis/redis.module.js&#45;&gt;dist/redis/redis&#45;manager.js</title>
<path fill="none" stroke="#757575" d="M299.24,-278.43C314.45,-280.05 330.2,-281.65 345,-283.03 426.74,-290.63 519.7,-297.63 587.66,-302.45"/>
<polygon fill="#757575" stroke="#757575" points="587.7,-305.97 597.92,-303.18 588.19,-298.98 587.7,-305.97"/>
</g>
<!-- dist/redis/redis.module.js&#45;&gt;dist/redis/redis.constants.js -->
<g id="edge57" class="edge">
<title>dist/redis/redis.module.js&#45;&gt;dist/redis/redis.constants.js</title>
<path fill="none" stroke="#757575" d="M221.81,-257.28C235.58,-225.22 278.56,-135.9 345,-95.03 475.32,-14.87 531.5,-38.03 684.5,-38.03 684.5,-38.03 684.5,-38.03 957,-38.03 1142.1,-38.03 1188.85,-39.28 1373,-58.03 1392.42,-60.01 1413.31,-62.9 1432.7,-65.9"/>
<polygon fill="#757575" stroke="#757575" points="1432.27,-69.37 1442.69,-67.48 1433.36,-62.46 1432.27,-69.37"/>
</g>
<!-- dist/redis/redis&#45;logger.js -->
<g id="node25" class="node">
<title>dist/redis/redis&#45;logger.js</title>
<path fill="none" stroke="#c6c5fe" d="M1317.33,-90.53C1317.33,-90.53 1174.67,-90.53 1174.67,-90.53 1170.83,-90.53 1167,-86.7 1167,-82.86 1167,-82.86 1167,-75.2 1167,-75.2 1167,-71.36 1170.83,-67.53 1174.67,-67.53 1174.67,-67.53 1317.33,-67.53 1317.33,-67.53 1321.17,-67.53 1325,-71.36 1325,-75.2 1325,-75.2 1325,-82.86 1325,-82.86 1325,-86.7 1321.17,-90.53 1317.33,-90.53"/>
<text text-anchor="middle" x="1246" y="-75.33" font-family="Arial" font-size="14.00" fill="#c6c5fe">dist/redis/redis&#45;logger.js</text>
</g>
<!-- dist/redis/redis.module.js&#45;&gt;dist/redis/redis&#45;logger.js -->
<g id="edge55" class="edge">
<title>dist/redis/redis.module.js&#45;&gt;dist/redis/redis&#45;logger.js</title>
<path fill="none" stroke="#757575" d="M226.86,-257.28C246.65,-234.59 293.71,-184.97 345,-162.03 620.34,-38.88 989.62,-53.87 1156.53,-68.99"/>
<polygon fill="#757575" stroke="#757575" points="1156.46,-72.5 1166.74,-69.94 1157.11,-65.53 1156.46,-72.5"/>
</g>
<!-- dist/redis/redis.providers.js -->
<g id="node27" class="node">
<title>dist/redis/redis.providers.js</title>
<path fill="none" stroke="#c6c5fe" d="M523.83,-240.53C523.83,-240.53 363.17,-240.53 363.17,-240.53 359.33,-240.53 355.5,-236.7 355.5,-232.86 355.5,-232.86 355.5,-225.2 355.5,-225.2 355.5,-221.36 359.33,-217.53 363.17,-217.53 363.17,-217.53 523.83,-217.53 523.83,-217.53 527.67,-217.53 531.5,-221.36 531.5,-225.2 531.5,-225.2 531.5,-232.86 531.5,-232.86 531.5,-236.7 527.67,-240.53 523.83,-240.53"/>
<text text-anchor="middle" x="443.5" y="-225.33" font-family="Arial" font-size="14.00" fill="#c6c5fe">dist/redis/redis.providers.js</text>
</g>
<!-- dist/redis/redis.module.js&#45;&gt;dist/redis/redis.providers.js -->
<g id="edge58" class="edge">
<title>dist/redis/redis.module.js&#45;&gt;dist/redis/redis.providers.js</title>
<path fill="none" stroke="#757575" d="M281.92,-257.51C308.69,-252.77 339.87,-247.23 367.6,-242.32"/>
<polygon fill="#757575" stroke="#757575" points="368.41,-245.73 377.65,-240.53 367.19,-238.83 368.41,-245.73"/>
</g>
<!-- dist/redis/common/redis.decorator.js&#45;&gt;dist/utils/index.js -->
<g id="edge43" class="edge">
<title>dist/redis/common/redis.decorator.js&#45;&gt;dist/utils/index.js</title>
<path fill="none" stroke="#757575" d="M982.11,-168.66C1007.89,-180.87 1048.94,-201.02 1083,-221.03 1133.28,-250.57 1189.13,-289.62 1220.37,-312.07"/>
<polygon fill="#757575" stroke="#757575" points="1218.71,-315.19 1228.87,-318.21 1222.81,-309.52 1218.71,-315.19"/>
</g>
<!-- dist/redis/common/redis.decorator.js&#45;&gt;dist/redis/redis.constants.js -->
<g id="edge42" class="edge">
<title>dist/redis/common/redis.decorator.js&#45;&gt;dist/redis/redis.constants.js</title>
<path fill="none" stroke="#757575" d="M1041.49,-145.48C1125.56,-133.93 1258.24,-115.56 1373,-99.03 1388.33,-96.82 1404.65,-94.43 1420.42,-92.1"/>
<polygon fill="#757575" stroke="#757575" points="1421.32,-95.5 1430.7,-90.57 1420.3,-88.58 1421.32,-95.5"/>
</g>
<!-- dist/redis/common/redis.utils.js&#45;&gt;dist/messages/index.js -->
<g id="edge44" class="edge">
<title>dist/redis/common/redis.utils.js&#45;&gt;dist/messages/index.js</title>
<path fill="none" stroke="#757575" d="M1049.16,-127.57C1182.25,-147.81 1431.61,-199.42 1608,-318.03 1651.31,-347.16 1688.27,-397.13 1706.79,-424.91"/>
<polygon fill="#757575" stroke="#757575" points="1703.95,-426.96 1712.35,-433.42 1709.81,-423.13 1703.95,-426.96"/>
</g>
<!-- dist/redis/common/redis.utils.js&#45;&gt;dist/utils/index.js -->
<g id="edge46" class="edge">
<title>dist/redis/common/redis.utils.js&#45;&gt;dist/utils/index.js</title>
<path fill="none" stroke="#757575" d="M1057.3,-125.07C1066.29,-127.9 1075.01,-131.49 1083,-136.03 1092.76,-141.57 1190.5,-262.3 1229.27,-310.46"/>
<polygon fill="#757575" stroke="#757575" points="1226.59,-312.71 1235.59,-318.3 1232.05,-308.32 1226.59,-312.71"/>
</g>
<!-- dist/redis/common/redis.utils.js&#45;&gt;dist/redis/redis&#45;logger.js -->
<g id="edge45" class="edge">
<title>dist/redis/common/redis.utils.js&#45;&gt;dist/redis/redis&#45;logger.js</title>
<path fill="none" stroke="#757575" d="M1046.55,-104.53C1081.56,-100.03 1121.62,-94.88 1156.53,-90.4"/>
<polygon fill="#757575" stroke="#757575" points="1157.24,-93.83 1166.71,-89.09 1156.35,-86.89 1157.24,-93.83"/>
</g>
<!-- dist/redis/redis&#45;logger.js&#45;&gt;dist/redis/redis.constants.js -->
<g id="edge47" class="edge">
<title>dist/redis/redis&#45;logger.js&#45;&gt;dist/redis/redis.constants.js</title>
<path fill="none" stroke="#757575" d="M1325.16,-79.03C1351.45,-79.03 1381.14,-79.03 1408.8,-79.03"/>
<polygon fill="#757575" stroke="#757575" points="1408.89,-82.53 1418.89,-79.03 1408.89,-75.53 1408.89,-82.53"/>
</g>
<!-- dist/redis/default&#45;options.js -->
<g id="node26" class="node">
<title>dist/redis/default&#45;options.js</title>
<path fill="none" stroke="#cfffac" d="M765.83,-240.53C765.83,-240.53 605.17,-240.53 605.17,-240.53 601.33,-240.53 597.5,-236.7 597.5,-232.86 597.5,-232.86 597.5,-225.2 597.5,-225.2 597.5,-221.36 601.33,-217.53 605.17,-217.53 605.17,-217.53 765.83,-217.53 765.83,-217.53 769.67,-217.53 773.5,-221.36 773.5,-225.2 773.5,-225.2 773.5,-232.86 773.5,-232.86 773.5,-236.7 769.67,-240.53 765.83,-240.53"/>
<text text-anchor="middle" x="685.5" y="-225.33" font-family="Arial" font-size="14.00" fill="#cfffac">dist/redis/default&#45;options.js</text>
</g>
<!-- dist/redis/redis.providers.js&#45;&gt;dist/redis/common/index.js -->
<g id="edge60" class="edge">
<title>dist/redis/redis.providers.js&#45;&gt;dist/redis/common/index.js</title>
<path fill="none" stroke="#757575" d="M499.97,-217.51C514.07,-213.56 528.92,-208.46 542,-202.03 559.95,-193.21 559.92,-183.58 578,-175.03 587.82,-170.39 598.54,-166.53 609.29,-163.33"/>
<polygon fill="#757575" stroke="#757575" points="610.45,-166.64 619.14,-160.57 608.57,-159.9 610.45,-166.64"/>
</g>
<!-- dist/redis/redis.providers.js&#45;&gt;dist/redis/redis&#45;manager.js -->
<g id="edge62" class="edge">
<title>dist/redis/redis.providers.js&#45;&gt;dist/redis/redis&#45;manager.js</title>
<path fill="none" stroke="#757575" d="M479.14,-240.58C521.68,-254.76 593.89,-278.83 640.36,-294.32"/>
<polygon fill="#757575" stroke="#757575" points="639.28,-297.64 649.87,-297.49 641.49,-291 639.28,-297.64"/>
</g>
<!-- dist/redis/redis.providers.js&#45;&gt;dist/redis/redis.constants.js -->
<g id="edge63" class="edge">
<title>dist/redis/redis.providers.js&#45;&gt;dist/redis/redis.constants.js</title>
<path fill="none" stroke="#757575" d="M509.86,-217.48C531.49,-214 555.73,-210.46 578,-208.03 930.89,-169.53 1052.12,-282.87 1373,-131.03 1392.35,-121.87 1389.85,-108.6 1409,-99.03 1412.78,-97.14 1416.72,-95.43 1420.76,-93.89"/>
<polygon fill="#757575" stroke="#757575" points="1422.04,-97.15 1430.34,-90.56 1419.75,-90.53 1422.04,-97.15"/>
</g>
<!-- dist/redis/redis.providers.js&#45;&gt;dist/redis/default&#45;options.js -->
<g id="edge61" class="edge">
<title>dist/redis/redis.providers.js&#45;&gt;dist/redis/default&#45;options.js</title>
<path fill="none" stroke="#757575" d="M531.82,-229.03C549.81,-229.03 568.85,-229.03 587.15,-229.03"/>
<polygon fill="#757575" stroke="#757575" points="587.24,-232.53 597.24,-229.03 587.24,-225.53 587.24,-232.53"/>
</g>
<!-- dist/utils/parsers.js&#45;&gt;dist/utils/is.js -->
<g id="edge67" class="edge">
<title>dist/utils/parsers.js&#45;&gt;dist/utils/is.js</title>
<path fill="none" stroke="#757575" d="M1572.51,-126.03C1601.67,-128.81 1636,-132.08 1664.15,-134.76"/>
<polygon fill="#757575" stroke="#757575" points="1663.93,-138.25 1674.22,-135.72 1664.59,-131.29 1663.93,-138.25"/>
</g>
<!-- dist/utils/promise&#45;timeout.js&#45;&gt;dist/messages/index.js -->
<g id="edge68" class="edge">
<title>dist/utils/promise&#45;timeout.js&#45;&gt;dist/messages/index.js</title>
<path fill="none" stroke="#757575" d="M1550.16,-350.63C1568.27,-356.41 1589.62,-364.09 1608,-373.03 1640.05,-388.63 1674.08,-411.66 1695.99,-427.45"/>
<polygon fill="#757575" stroke="#757575" points="1694.18,-430.46 1704.32,-433.53 1698.31,-424.81 1694.18,-430.46"/>
</g>
<!-- health/index.js -->
<g id="node31" class="node">
<title>health/index.js</title>
<path fill="none" stroke="#c6c5fe" d="M259.83,-436.53C259.83,-436.53 172.17,-436.53 172.17,-436.53 168.33,-436.53 164.5,-432.7 164.5,-428.86 164.5,-428.86 164.5,-421.2 164.5,-421.2 164.5,-417.36 168.33,-413.53 172.17,-413.53 172.17,-413.53 259.83,-413.53 259.83,-413.53 263.67,-413.53 267.5,-417.36 267.5,-421.2 267.5,-421.2 267.5,-428.86 267.5,-428.86 267.5,-432.7 263.67,-436.53 259.83,-436.53"/>
<text text-anchor="middle" x="216" y="-421.33" font-family="Arial" font-size="14.00" fill="#c6c5fe">health/index.js</text>
</g>
<!-- health/index.js&#45;&gt;dist/health/index.js -->
<g id="edge69" class="edge">
<title>health/index.js&#45;&gt;dist/health/index.js</title>
<path fill="none" stroke="#757575" d="M267.61,-425.03C297.5,-425.03 335.86,-425.03 369.04,-425.03"/>
<polygon fill="#757575" stroke="#757575" points="369.15,-428.53 379.15,-425.03 369.15,-421.53 369.15,-428.53"/>
</g>
</g>
</svg>
