<?xml version="1.0" encoding="UTF-8" standalone="no"?>
<!DOCTYPE svg PUBLIC "-//W3C//DTD SVG 1.1//EN"
 "http://www.w3.org/Graphics/SVG/1.1/DTD/svg11.dtd">
<!-- Generated by graphviz version 6.0.1 (20220911.1526)
 -->
<!-- Title: G Pages: 1 -->
<svg width="1634pt" height="876pt"
 viewBox="0.00 0.00 1634.20 875.89" xmlns="http://www.w3.org/2000/svg" xmlns:xlink="http://www.w3.org/1999/xlink">
<g id="graph0" class="graph" transform="scale(1 1) rotate(0) translate(21.6 854.29)">
<title>G</title>
<polygon fill="#111111" stroke="none" points="-21.6,21.6 -21.6,-854.29 1612.6,-854.29 1612.6,21.6 -21.6,21.6"/>
<!-- cluster/cluster&#45;logger.js -->
<g id="node1" class="node">
<title>cluster/cluster&#45;logger.js</title>
<path fill="none" stroke="#c6c5fe" d="M1216.33,-602.11C1216.33,-602.11 1067.67,-602.11 1067.67,-602.11 1063.83,-602.11 1060,-598.27 1060,-594.44 1060,-594.44 1060,-586.77 1060,-586.77 1060,-582.94 1063.83,-579.11 1067.67,-579.11 1067.67,-579.11 1216.33,-579.11 1216.33,-579.11 1220.17,-579.11 1224,-582.94 1224,-586.77 1224,-586.77 1224,-594.44 1224,-594.44 1224,-598.27 1220.17,-602.11 1216.33,-602.11"/>
<text text-anchor="middle" x="1142" y="-586.91" font-family="Arial" font-size="14.00" fill="#c6c5fe">cluster/cluster&#45;logger.js</text>
</g>
<!-- cluster/cluster.constants.js -->
<g id="node2" class="node">
<title>cluster/cluster.constants.js</title>
<path fill="none" stroke="#cfffac" d="M1477.33,-724.11C1477.33,-724.11 1309.67,-724.11 1309.67,-724.11 1305.83,-724.11 1302,-720.27 1302,-716.44 1302,-716.44 1302,-708.77 1302,-708.77 1302,-704.94 1305.83,-701.11 1309.67,-701.11 1309.67,-701.11 1477.33,-701.11 1477.33,-701.11 1481.17,-701.11 1485,-704.94 1485,-708.77 1485,-708.77 1485,-716.44 1485,-716.44 1485,-720.27 1481.17,-724.11 1477.33,-724.11"/>
<text text-anchor="middle" x="1393.5" y="-708.91" font-family="Arial" font-size="14.00" fill="#cfffac">cluster/cluster.constants.js</text>
</g>
<!-- cluster/cluster&#45;logger.js&#45;&gt;cluster/cluster.constants.js -->
<g id="edge1" class="edge">
<title>cluster/cluster&#45;logger.js&#45;&gt;cluster/cluster.constants.js</title>
<path fill="none" stroke="#757575" d="M1224.14,-597.68C1238.47,-600.64 1252.96,-604.79 1266,-610.61 1310.44,-630.45 1352.43,-669.86 1375.09,-693.46"/>
<polygon fill="#757575" stroke="#757575" points="1372.6,-695.93 1382.01,-700.81 1377.7,-691.13 1372.6,-695.93"/>
</g>
<!-- cluster/cluster&#45;manager.js -->
<g id="node3" class="node">
<title>cluster/cluster&#45;manager.js</title>
<path fill="none" stroke="#c6c5fe" d="M696.33,-722.11C696.33,-722.11 532.67,-722.11 532.67,-722.11 528.83,-722.11 525,-718.27 525,-714.44 525,-714.44 525,-706.77 525,-706.77 525,-702.94 528.83,-699.11 532.67,-699.11 532.67,-699.11 696.33,-699.11 696.33,-699.11 700.17,-699.11 704,-702.94 704,-706.77 704,-706.77 704,-714.44 704,-714.44 704,-718.27 700.17,-722.11 696.33,-722.11"/>
<text text-anchor="middle" x="614.5" y="-706.91" font-family="Arial" font-size="14.00" fill="#c6c5fe">cluster/cluster&#45;manager.js</text>
</g>
<!-- cluster/cluster&#45;manager.js&#45;&gt;cluster/cluster.constants.js -->
<g id="edge2" class="edge">
<title>cluster/cluster&#45;manager.js&#45;&gt;cluster/cluster.constants.js</title>
<path fill="none" stroke="#757575" d="M704.25,-710.83C849.83,-711.21 1138.43,-711.95 1291.57,-712.35"/>
<polygon fill="#757575" stroke="#757575" points="1291.9,-715.85 1301.91,-712.37 1291.92,-708.85 1291.9,-715.85"/>
</g>
<!-- errors/index.js -->
<g id="node4" class="node">
<title>errors/index.js</title>
<path fill="none" stroke="#c6c5fe" d="M906.33,-644.11C906.33,-644.11 815.67,-644.11 815.67,-644.11 811.83,-644.11 808,-640.27 808,-636.44 808,-636.44 808,-628.77 808,-628.77 808,-624.94 811.83,-621.11 815.67,-621.11 815.67,-621.11 906.33,-621.11 906.33,-621.11 910.17,-621.11 914,-624.94 914,-628.77 914,-628.77 914,-636.44 914,-636.44 914,-640.27 910.17,-644.11 906.33,-644.11"/>
<text text-anchor="middle" x="861" y="-628.91" font-family="Arial" font-size="14.00" fill="#c6c5fe">errors/index.js</text>
</g>
<!-- cluster/cluster&#45;manager.js&#45;&gt;errors/index.js -->
<g id="edge3" class="edge">
<title>cluster/cluster&#45;manager.js&#45;&gt;errors/index.js</title>
<path fill="none" stroke="#757575" d="M679.54,-699.02C687.98,-696.46 696.34,-693.36 704,-689.61 722.45,-680.57 721.53,-669.61 740,-660.61 757.93,-651.86 778.72,-645.78 797.91,-641.57"/>
<polygon fill="#757575" stroke="#757575" points="798.68,-644.98 807.77,-639.53 797.27,-638.12 798.68,-644.98"/>
</g>
<!-- utils/index.js -->
<g id="node5" class="node">
<title>utils/index.js</title>
<path fill="none" stroke="#c6c5fe" d="M1180.83,-484.11C1180.83,-484.11 1103.17,-484.11 1103.17,-484.11 1099.33,-484.11 1095.5,-480.27 1095.5,-476.44 1095.5,-476.44 1095.5,-468.77 1095.5,-468.77 1095.5,-464.94 1099.33,-461.11 1103.17,-461.11 1103.17,-461.11 1180.83,-461.11 1180.83,-461.11 1184.67,-461.11 1188.5,-464.94 1188.5,-468.77 1188.5,-468.77 1188.5,-476.44 1188.5,-476.44 1188.5,-480.27 1184.67,-484.11 1180.83,-484.11"/>
<text text-anchor="middle" x="1142" y="-468.91" font-family="Arial" font-size="14.00" fill="#c6c5fe">utils/index.js</text>
</g>
<!-- cluster/cluster&#45;manager.js&#45;&gt;utils/index.js -->
<g id="edge4" class="edge">
<title>cluster/cluster&#45;manager.js&#45;&gt;utils/index.js</title>
<path fill="none" stroke="#757575" d="M704.02,-701.1C805.39,-689.51 960.33,-669.4 982,-652.61 1013.78,-627.98 993.47,-601.47 1018,-569.61 1044.09,-535.73 1084.52,-506.87 1111.85,-489.65"/>
<polygon fill="#757575" stroke="#757575" points="1113.9,-492.5 1120.57,-484.27 1110.22,-486.54 1113.9,-492.5"/>
</g>
<!-- errors/client&#45;not&#45;found.error.js -->
<g id="node14" class="node">
<title>errors/client&#45;not&#45;found.error.js</title>
<path fill="none" stroke="#cfffac" d="M1235.83,-643.11C1235.83,-643.11 1048.17,-643.11 1048.17,-643.11 1044.33,-643.11 1040.5,-639.27 1040.5,-635.44 1040.5,-635.44 1040.5,-627.77 1040.5,-627.77 1040.5,-623.94 1044.33,-620.11 1048.17,-620.11 1048.17,-620.11 1235.83,-620.11 1235.83,-620.11 1239.67,-620.11 1243.5,-623.94 1243.5,-627.77 1243.5,-627.77 1243.5,-635.44 1243.5,-635.44 1243.5,-639.27 1239.67,-643.11 1235.83,-643.11"/>
<text text-anchor="middle" x="1142" y="-627.91" font-family="Arial" font-size="14.00" fill="#cfffac">errors/client&#45;not&#45;found.error.js</text>
</g>
<!-- errors/index.js&#45;&gt;errors/client&#45;not&#45;found.error.js -->
<g id="edge26" class="edge">
<title>errors/index.js&#45;&gt;errors/client&#45;not&#45;found.error.js</title>
<path fill="none" stroke="#757575" d="M914.15,-632.42C946.79,-632.3 990.11,-632.15 1030.14,-632"/>
<polygon fill="#757575" stroke="#757575" points="1030.25,-635.5 1040.24,-631.97 1030.23,-628.5 1030.25,-635.5"/>
</g>
<!-- errors/missing&#45;configurations.error.js -->
<g id="node15" class="node">
<title>errors/missing&#45;configurations.error.js</title>
<path fill="none" stroke="#cfffac" d="M1258.33,-684.11C1258.33,-684.11 1025.67,-684.11 1025.67,-684.11 1021.83,-684.11 1018,-680.27 1018,-676.44 1018,-676.44 1018,-668.77 1018,-668.77 1018,-664.94 1021.83,-661.11 1025.67,-661.11 1025.67,-661.11 1258.33,-661.11 1258.33,-661.11 1262.17,-661.11 1266,-664.94 1266,-668.77 1266,-668.77 1266,-676.44 1266,-676.44 1266,-680.27 1262.17,-684.11 1258.33,-684.11"/>
<text text-anchor="middle" x="1142" y="-668.91" font-family="Arial" font-size="14.00" fill="#cfffac">errors/missing&#45;configurations.error.js</text>
</g>
<!-- errors/index.js&#45;&gt;errors/missing&#45;configurations.error.js -->
<g id="edge27" class="edge">
<title>errors/index.js&#45;&gt;errors/missing&#45;configurations.error.js</title>
<path fill="none" stroke="#757575" d="M914.15,-640.08C952.42,-645.57 1005.37,-653.16 1050.48,-659.63"/>
<polygon fill="#757575" stroke="#757575" points="1050.18,-663.12 1060.58,-661.08 1051.18,-656.19 1050.18,-663.12"/>
</g>
<!-- utils/is.js -->
<g id="node26" class="node">
<title>utils/is.js</title>
<path fill="none" stroke="#cfffac" d="M1583.33,-484.11C1583.33,-484.11 1528.67,-484.11 1528.67,-484.11 1524.83,-484.11 1521,-480.27 1521,-476.44 1521,-476.44 1521,-468.77 1521,-468.77 1521,-464.94 1524.83,-461.11 1528.67,-461.11 1528.67,-461.11 1583.33,-461.11 1583.33,-461.11 1587.17,-461.11 1591,-464.94 1591,-468.77 1591,-468.77 1591,-476.44 1591,-476.44 1591,-480.27 1587.17,-484.11 1583.33,-484.11"/>
<text text-anchor="middle" x="1556" y="-468.91" font-family="Arial" font-size="14.00" fill="#cfffac">utils/is.js</text>
</g>
<!-- utils/index.js&#45;&gt;utils/is.js -->
<g id="edge61" class="edge">
<title>utils/index.js&#45;&gt;utils/is.js</title>
<path fill="none" stroke="#757575" d="M1188.67,-472.61C1268.37,-472.61 1431.87,-472.61 1510.64,-472.61"/>
<polygon fill="#757575" stroke="#757575" points="1510.73,-476.11 1520.73,-472.61 1510.73,-469.11 1510.73,-476.11"/>
</g>
<!-- utils/parsers.js -->
<g id="node27" class="node">
<title>utils/parsers.js</title>
<path fill="none" stroke="#c6c5fe" d="M1439.33,-464.11C1439.33,-464.11 1347.67,-464.11 1347.67,-464.11 1343.83,-464.11 1340,-460.27 1340,-456.44 1340,-456.44 1340,-448.77 1340,-448.77 1340,-444.94 1343.83,-441.11 1347.67,-441.11 1347.67,-441.11 1439.33,-441.11 1439.33,-441.11 1443.17,-441.11 1447,-444.94 1447,-448.77 1447,-448.77 1447,-456.44 1447,-456.44 1447,-460.27 1443.17,-464.11 1439.33,-464.11"/>
<text text-anchor="middle" x="1393.5" y="-448.91" font-family="Arial" font-size="14.00" fill="#c6c5fe">utils/parsers.js</text>
</g>
<!-- utils/index.js&#45;&gt;utils/parsers.js -->
<g id="edge62" class="edge">
<title>utils/index.js&#45;&gt;utils/parsers.js</title>
<path fill="none" stroke="#757575" d="M1188.76,-468.94C1228.31,-465.77 1285.84,-461.16 1329.69,-457.64"/>
<polygon fill="#757575" stroke="#757575" points="1329.99,-461.13 1339.68,-456.84 1329.43,-454.15 1329.99,-461.13"/>
</g>
<!-- cluster/cluster.module.js -->
<g id="node6" class="node">
<title>cluster/cluster.module.js</title>
<path fill="none" stroke="#c6c5fe" d="M263.33,-603.11C263.33,-603.11 108.67,-603.11 108.67,-603.11 104.83,-603.11 101,-599.27 101,-595.44 101,-595.44 101,-587.77 101,-587.77 101,-583.94 104.83,-580.11 108.67,-580.11 108.67,-580.11 263.33,-580.11 263.33,-580.11 267.17,-580.11 271,-583.94 271,-587.77 271,-587.77 271,-595.44 271,-595.44 271,-599.27 267.17,-603.11 263.33,-603.11"/>
<text text-anchor="middle" x="186" y="-587.91" font-family="Arial" font-size="14.00" fill="#c6c5fe">cluster/cluster.module.js</text>
</g>
<!-- cluster/cluster.module.js&#45;&gt;cluster/cluster&#45;logger.js -->
<g id="edge5" class="edge">
<title>cluster/cluster.module.js&#45;&gt;cluster/cluster&#45;logger.js</title>
<path fill="none" stroke="#757575" d="M271.24,-591.52C449.78,-591.33 864.93,-590.9 1049.6,-590.7"/>
<polygon fill="#757575" stroke="#757575" points="1049.83,-594.2 1059.83,-590.69 1049.82,-587.2 1049.83,-594.2"/>
</g>
<!-- cluster/cluster.module.js&#45;&gt;cluster/cluster.constants.js -->
<g id="edge7" class="edge">
<title>cluster/cluster.module.js&#45;&gt;cluster/cluster.constants.js</title>
<path fill="none" stroke="#757575" d="M194.31,-603.41C210.87,-629.03 253.96,-689.79 307,-718.61 393.56,-765.63 427.3,-746.04 525,-758.61 851.65,-800.61 943.74,-829.5 1266,-761.61 1299.16,-754.62 1335.01,-740.01 1360.05,-728.55"/>
<polygon fill="#757575" stroke="#757575" points="1361.84,-731.57 1369.42,-724.17 1358.88,-725.23 1361.84,-731.57"/>
</g>
<!-- cluster/cluster.module.js&#45;&gt;cluster/cluster&#45;manager.js -->
<g id="edge6" class="edge">
<title>cluster/cluster.module.js&#45;&gt;cluster/cluster&#45;manager.js</title>
<path fill="none" stroke="#757575" d="M196.75,-603.36C215.49,-624.98 258.98,-670.61 307,-689.61 372.89,-715.67 452.94,-720.33 514.71,-718.79"/>
<polygon fill="#757575" stroke="#757575" points="514.96,-722.29 524.85,-718.48 514.74,-715.29 514.96,-722.29"/>
</g>
<!-- cluster/cluster.module.js&#45;&gt;errors/index.js -->
<g id="edge10" class="edge">
<title>cluster/cluster.module.js&#45;&gt;errors/index.js</title>
<path fill="none" stroke="#757575" d="M271.18,-602.15C283.19,-603.45 295.4,-604.65 307,-605.61 484.59,-620.28 694.97,-627.86 797.52,-630.93"/>
<polygon fill="#757575" stroke="#757575" points="797.6,-634.43 807.7,-631.23 797.8,-627.43 797.6,-634.43"/>
</g>
<!-- cluster/cluster.module.js&#45;&gt;utils/index.js -->
<g id="edge12" class="edge">
<title>cluster/cluster.module.js&#45;&gt;utils/index.js</title>
<path fill="none" stroke="#757575" d="M206.23,-579.88C229.35,-566.29 269.69,-544.17 307,-531.61 586.54,-437.49 947.78,-455.61 1084.89,-467.09"/>
<polygon fill="#757575" stroke="#757575" points="1084.88,-470.6 1095.14,-467.97 1085.48,-463.63 1084.88,-470.6"/>
</g>
<!-- cluster/cluster.providers.js -->
<g id="node7" class="node">
<title>cluster/cluster.providers.js</title>
<path fill="none" stroke="#c6c5fe" d="M481.33,-681.11C481.33,-681.11 314.67,-681.11 314.67,-681.11 310.83,-681.11 307,-677.27 307,-673.44 307,-673.44 307,-665.77 307,-665.77 307,-661.94 310.83,-658.11 314.67,-658.11 314.67,-658.11 481.33,-658.11 481.33,-658.11 485.17,-658.11 489,-661.94 489,-665.77 489,-665.77 489,-673.44 489,-673.44 489,-677.27 485.17,-681.11 481.33,-681.11"/>
<text text-anchor="middle" x="398" y="-665.91" font-family="Arial" font-size="14.00" fill="#c6c5fe">cluster/cluster.providers.js</text>
</g>
<!-- cluster/cluster.module.js&#45;&gt;cluster/cluster.providers.js -->
<g id="edge8" class="edge">
<title>cluster/cluster.module.js&#45;&gt;cluster/cluster.providers.js</title>
<path fill="none" stroke="#757575" d="M211.45,-603.3C235.44,-614.51 273.24,-631.47 307,-643.61 318.48,-647.73 330.96,-651.67 342.86,-655.18"/>
<polygon fill="#757575" stroke="#757575" points="342.12,-658.61 352.69,-658.02 344.06,-651.88 342.12,-658.61"/>
</g>
<!-- cluster/common/index.js -->
<g id="node8" class="node">
<title>cluster/common/index.js</title>
<path fill="none" stroke="#c6c5fe" d="M691.83,-523.11C691.83,-523.11 537.17,-523.11 537.17,-523.11 533.33,-523.11 529.5,-519.27 529.5,-515.44 529.5,-515.44 529.5,-507.77 529.5,-507.77 529.5,-503.94 533.33,-500.11 537.17,-500.11 537.17,-500.11 691.83,-500.11 691.83,-500.11 695.67,-500.11 699.5,-503.94 699.5,-507.77 699.5,-507.77 699.5,-515.44 699.5,-515.44 699.5,-519.27 695.67,-523.11 691.83,-523.11"/>
<text text-anchor="middle" x="614.5" y="-507.91" font-family="Arial" font-size="14.00" fill="#c6c5fe">cluster/common/index.js</text>
</g>
<!-- cluster/cluster.module.js&#45;&gt;cluster/common/index.js -->
<g id="edge9" class="edge">
<title>cluster/cluster.module.js&#45;&gt;cluster/common/index.js</title>
<path fill="none" stroke="#757575" d="M248.56,-580.06C326.29,-565.48 459.76,-540.44 541.95,-525.03"/>
<polygon fill="#757575" stroke="#757575" points="542.77,-528.43 551.96,-523.15 541.48,-521.55 542.77,-528.43"/>
</g>
<!-- messages/index.js -->
<g id="node9" class="node">
<title>messages/index.js</title>
<path fill="none" stroke="#cfffac" d="M1201.83,-251.11C1201.83,-251.11 1082.17,-251.11 1082.17,-251.11 1078.33,-251.11 1074.5,-247.27 1074.5,-243.44 1074.5,-243.44 1074.5,-235.77 1074.5,-235.77 1074.5,-231.94 1078.33,-228.11 1082.17,-228.11 1082.17,-228.11 1201.83,-228.11 1201.83,-228.11 1205.67,-228.11 1209.5,-231.94 1209.5,-235.77 1209.5,-235.77 1209.5,-243.44 1209.5,-243.44 1209.5,-247.27 1205.67,-251.11 1201.83,-251.11"/>
<text text-anchor="middle" x="1142" y="-235.91" font-family="Arial" font-size="14.00" fill="#cfffac">messages/index.js</text>
</g>
<!-- cluster/cluster.module.js&#45;&gt;messages/index.js -->
<g id="edge11" class="edge">
<title>cluster/cluster.module.js&#45;&gt;messages/index.js</title>
<path fill="none" stroke="#757575" d="M189.41,-580.06C200.86,-526.43 251.5,-302.59 307,-262.61 367.44,-219.07 869.18,-230.65 1064.04,-236.88"/>
<polygon fill="#757575" stroke="#757575" points="1064.1,-240.38 1074.21,-237.21 1064.32,-233.39 1064.1,-240.38"/>
</g>
<!-- cluster/cluster.providers.js&#45;&gt;cluster/cluster.constants.js -->
<g id="edge14" class="edge">
<title>cluster/cluster.providers.js&#45;&gt;cluster/cluster.constants.js</title>
<path fill="none" stroke="#757575" d="M416.41,-681.21C439.89,-696.08 483.54,-721.1 525,-730.61 813.5,-796.77 1170.17,-750.77 1320.42,-725.8"/>
<polygon fill="#757575" stroke="#757575" points="1321.17,-729.22 1330.45,-724.11 1320,-722.32 1321.17,-729.22"/>
</g>
<!-- cluster/cluster.providers.js&#45;&gt;cluster/cluster&#45;manager.js -->
<g id="edge13" class="edge">
<title>cluster/cluster.providers.js&#45;&gt;cluster/cluster&#45;manager.js</title>
<path fill="none" stroke="#757575" d="M459.32,-681.14C485.48,-686.14 516.27,-692.02 543.43,-697.21"/>
<polygon fill="#757575" stroke="#757575" points="542.78,-700.65 553.26,-699.09 544.1,-693.78 542.78,-700.65"/>
</g>
<!-- cluster/cluster.providers.js&#45;&gt;cluster/common/index.js -->
<g id="edge15" class="edge">
<title>cluster/cluster.providers.js&#45;&gt;cluster/common/index.js</title>
<path fill="none" stroke="#757575" d="M414.77,-657.99C451.96,-630.6 545.31,-561.83 589.54,-529.25"/>
<polygon fill="#757575" stroke="#757575" points="591.73,-531.99 597.7,-523.24 587.58,-526.35 591.73,-531.99"/>
</g>
<!-- cluster/default&#45;options.js -->
<g id="node10" class="node">
<title>cluster/default&#45;options.js</title>
<path fill="none" stroke="#cfffac" d="M691.83,-681.11C691.83,-681.11 537.17,-681.11 537.17,-681.11 533.33,-681.11 529.5,-677.27 529.5,-673.44 529.5,-673.44 529.5,-665.77 529.5,-665.77 529.5,-661.94 533.33,-658.11 537.17,-658.11 537.17,-658.11 691.83,-658.11 691.83,-658.11 695.67,-658.11 699.5,-661.94 699.5,-665.77 699.5,-665.77 699.5,-673.44 699.5,-673.44 699.5,-677.27 695.67,-681.11 691.83,-681.11"/>
<text text-anchor="middle" x="614.5" y="-665.91" font-family="Arial" font-size="14.00" fill="#cfffac">cluster/default&#45;options.js</text>
</g>
<!-- cluster/cluster.providers.js&#45;&gt;cluster/default&#45;options.js -->
<g id="edge16" class="edge">
<title>cluster/cluster.providers.js&#45;&gt;cluster/default&#45;options.js</title>
<path fill="none" stroke="#757575" d="M489.03,-669.61C498.91,-669.61 508.98,-669.61 518.9,-669.61"/>
<polygon fill="#757575" stroke="#757575" points="519.17,-673.11 529.17,-669.61 519.17,-666.11 519.17,-673.11"/>
</g>
<!-- cluster/common/cluster.decorator.js -->
<g id="node11" class="node">
<title>cluster/common/cluster.decorator.js</title>
<path fill="none" stroke="#c6c5fe" d="M974.33,-564.11C974.33,-564.11 747.67,-564.11 747.67,-564.11 743.83,-564.11 740,-560.27 740,-556.44 740,-556.44 740,-548.77 740,-548.77 740,-544.94 743.83,-541.11 747.67,-541.11 747.67,-541.11 974.33,-541.11 974.33,-541.11 978.17,-541.11 982,-544.94 982,-548.77 982,-548.77 982,-556.44 982,-556.44 982,-560.27 978.17,-564.11 974.33,-564.11"/>
<text text-anchor="middle" x="861" y="-548.91" font-family="Arial" font-size="14.00" fill="#c6c5fe">cluster/common/cluster.decorator.js</text>
</g>
<!-- cluster/common/index.js&#45;&gt;cluster/common/cluster.decorator.js -->
<g id="edge24" class="edge">
<title>cluster/common/index.js&#45;&gt;cluster/common/cluster.decorator.js</title>
<path fill="none" stroke="#757575" d="M684.26,-523.14C714.46,-528.2 750.1,-534.18 781.35,-539.42"/>
<polygon fill="#757575" stroke="#757575" points="780.89,-542.89 791.34,-541.09 782.05,-535.99 780.89,-542.89"/>
</g>
<!-- cluster/common/cluster.utils.js -->
<g id="node12" class="node">
<title>cluster/common/cluster.utils.js</title>
<path fill="none" stroke="#c6c5fe" d="M956.33,-523.11C956.33,-523.11 765.67,-523.11 765.67,-523.11 761.83,-523.11 758,-519.27 758,-515.44 758,-515.44 758,-507.77 758,-507.77 758,-503.94 761.83,-500.11 765.67,-500.11 765.67,-500.11 956.33,-500.11 956.33,-500.11 960.17,-500.11 964,-503.94 964,-507.77 964,-507.77 964,-515.44 964,-515.44 964,-519.27 960.17,-523.11 956.33,-523.11"/>
<text text-anchor="middle" x="861" y="-507.91" font-family="Arial" font-size="14.00" fill="#c6c5fe">cluster/common/cluster.utils.js</text>
</g>
<!-- cluster/common/index.js&#45;&gt;cluster/common/cluster.utils.js -->
<g id="edge25" class="edge">
<title>cluster/common/index.js&#45;&gt;cluster/common/cluster.utils.js</title>
<path fill="none" stroke="#757575" d="M699.64,-511.61C715.2,-511.61 731.67,-511.61 747.9,-511.61"/>
<polygon fill="#757575" stroke="#757575" points="747.97,-515.11 757.97,-511.61 747.97,-508.11 747.97,-515.11"/>
</g>
<!-- cluster/common/cluster.decorator.js&#45;&gt;cluster/cluster.constants.js -->
<g id="edge17" class="edge">
<title>cluster/common/cluster.decorator.js&#45;&gt;cluster/cluster.constants.js</title>
<path fill="none" stroke="#757575" d="M922.32,-541.1C1004.48,-528.45 1154.13,-516.35 1266,-569.61 1321.33,-595.95 1362.72,-658.82 1381.44,-691.72"/>
<polygon fill="#757575" stroke="#757575" points="1378.62,-693.84 1386.52,-700.9 1384.74,-690.46 1378.62,-693.84"/>
</g>
<!-- cluster/common/cluster.decorator.js&#45;&gt;utils/index.js -->
<g id="edge18" class="edge">
<title>cluster/common/cluster.decorator.js&#45;&gt;utils/index.js</title>
<path fill="none" stroke="#757575" d="M939.92,-541.1C954.02,-538.41 968.53,-535.25 982,-531.61 1025.27,-519.9 1073.31,-501.25 1105.14,-488.05"/>
<polygon fill="#757575" stroke="#757575" points="1106.6,-491.24 1114.48,-484.15 1103.9,-484.78 1106.6,-491.24"/>
</g>
<!-- cluster/common/cluster.utils.js&#45;&gt;cluster/cluster&#45;logger.js -->
<g id="edge19" class="edge">
<title>cluster/common/cluster.utils.js&#45;&gt;cluster/cluster&#45;logger.js</title>
<path fill="none" stroke="#757575" d="M944.1,-523.15C956.88,-525.56 969.86,-528.37 982,-531.61 1025.32,-543.14 1073.35,-561.82 1105.17,-575.07"/>
<polygon fill="#757575" stroke="#757575" points="1103.92,-578.35 1114.5,-579 1106.64,-571.89 1103.92,-578.35"/>
</g>
<!-- cluster/common/cluster.utils.js&#45;&gt;cluster/cluster.constants.js -->
<g id="edge20" class="edge">
<title>cluster/common/cluster.utils.js&#45;&gt;cluster/cluster.constants.js</title>
<path fill="none" stroke="#757575" d="M964.34,-505.1C1066.77,-500.4 1216.1,-499 1266,-526.61 1332.19,-563.22 1370.63,-650.91 1385.43,-691.42"/>
<polygon fill="#757575" stroke="#757575" points="1382.21,-692.81 1388.83,-701.08 1388.81,-690.49 1382.21,-692.81"/>
</g>
<!-- cluster/common/cluster.utils.js&#45;&gt;utils/index.js -->
<g id="edge23" class="edge">
<title>cluster/common/cluster.utils.js&#45;&gt;utils/index.js</title>
<path fill="none" stroke="#757575" d="M944.58,-500.06C990.05,-493.71 1045.27,-485.99 1085.57,-480.36"/>
<polygon fill="#757575" stroke="#757575" points="1086.05,-483.82 1095.47,-478.97 1085.08,-476.89 1086.05,-483.82"/>
</g>
<!-- cluster/common/cluster.utils.js&#45;&gt;messages/index.js -->
<g id="edge22" class="edge">
<title>cluster/common/cluster.utils.js&#45;&gt;messages/index.js</title>
<path fill="none" stroke="#757575" d="M873.99,-499.92C917.63,-457.37 1068.27,-310.51 1121.88,-258.25"/>
<polygon fill="#757575" stroke="#757575" points="1124.34,-260.74 1129.06,-251.25 1119.45,-255.72 1124.34,-260.74"/>
</g>
<!-- constants/index.js -->
<g id="node13" class="node">
<title>constants/index.js</title>
<path fill="none" stroke="#cfffac" d="M1198.83,-443.11C1198.83,-443.11 1085.17,-443.11 1085.17,-443.11 1081.33,-443.11 1077.5,-439.27 1077.5,-435.44 1077.5,-435.44 1077.5,-427.77 1077.5,-427.77 1077.5,-423.94 1081.33,-420.11 1085.17,-420.11 1085.17,-420.11 1198.83,-420.11 1198.83,-420.11 1202.67,-420.11 1206.5,-423.94 1206.5,-427.77 1206.5,-427.77 1206.5,-435.44 1206.5,-435.44 1206.5,-439.27 1202.67,-443.11 1198.83,-443.11"/>
<text text-anchor="middle" x="1142" y="-427.91" font-family="Arial" font-size="14.00" fill="#cfffac">constants/index.js</text>
</g>
<!-- cluster/common/cluster.utils.js&#45;&gt;constants/index.js -->
<g id="edge21" class="edge">
<title>cluster/common/cluster.utils.js&#45;&gt;constants/index.js</title>
<path fill="none" stroke="#757575" d="M887.13,-500.08C917.53,-486.59 970.52,-464.45 1018,-451.61 1033.74,-447.35 1050.87,-443.87 1067.21,-441.07"/>
<polygon fill="#757575" stroke="#757575" points="1067.96,-444.49 1077.26,-439.41 1066.83,-437.58 1067.96,-444.49"/>
</g>
<!-- index.js -->
<g id="node16" class="node">
<title>index.js</title>
<path fill="none" stroke="#c6c5fe" d="M57.33,-432.11C57.33,-432.11 7.67,-432.11 7.67,-432.11 3.83,-432.11 0,-428.27 0,-424.44 0,-424.44 0,-416.77 0,-416.77 0,-412.94 3.83,-409.11 7.67,-409.11 7.67,-409.11 57.33,-409.11 57.33,-409.11 61.17,-409.11 65,-412.94 65,-416.77 65,-416.77 65,-424.44 65,-424.44 65,-428.27 61.17,-432.11 57.33,-432.11"/>
<text text-anchor="middle" x="32.5" y="-416.91" font-family="Arial" font-size="14.00" fill="#c6c5fe">index.js</text>
</g>
<!-- index.js&#45;&gt;cluster/cluster.constants.js -->
<g id="edge29" class="edge">
<title>index.js&#45;&gt;cluster/cluster.constants.js</title>
<path fill="none" stroke="#757575" d="M33.4,-432.19C33.68,-470.98 39.46,-598.21 101,-674.61 193.77,-789.78 249.11,-826.61 397,-826.61 397,-826.61 397,-826.61 862,-826.61 1042.12,-826.61 1095.43,-852.48 1266,-794.61 1307.06,-780.68 1347.95,-750.44 1371.7,-730.83"/>
<polygon fill="#757575" stroke="#757575" points="1374.25,-733.26 1379.64,-724.14 1369.74,-727.91 1374.25,-733.26"/>
</g>
<!-- index.js&#45;&gt;cluster/cluster&#45;manager.js -->
<g id="edge28" class="edge">
<title>index.js&#45;&gt;cluster/cluster&#45;manager.js</title>
<path fill="none" stroke="#757575" d="M34.67,-432.41C38.44,-464.82 53,-556.4 101,-611.61 168.7,-689.46 206.78,-694.13 307,-718.61 384.03,-737.42 475.19,-731.63 537.95,-723.5"/>
<polygon fill="#757575" stroke="#757575" points="538.72,-726.93 548.16,-722.12 537.79,-719.99 538.72,-726.93"/>
</g>
<!-- index.js&#45;&gt;cluster/cluster.module.js -->
<g id="edge30" class="edge">
<title>index.js&#45;&gt;cluster/cluster.module.js</title>
<path fill="none" stroke="#757575" d="M43.91,-432.36C69.54,-461.28 135.86,-536.14 167.59,-571.95"/>
<polygon fill="#757575" stroke="#757575" points="165.26,-574.61 174.51,-579.77 170.5,-569.96 165.26,-574.61"/>
</g>
<!-- index.js&#45;&gt;cluster/common/index.js -->
<g id="edge31" class="edge">
<title>index.js&#45;&gt;cluster/common/index.js</title>
<path fill="none" stroke="#757575" d="M65.1,-425.56C152.47,-439.27 399.5,-478.03 530.13,-498.53"/>
<polygon fill="#757575" stroke="#757575" points="529.68,-502 540.1,-500.09 530.76,-495.08 529.68,-502"/>
</g>
<!-- redis/common/index.js -->
<g id="node17" class="node">
<title>redis/common/index.js</title>
<path fill="none" stroke="#c6c5fe" d="M686.33,-211.11C686.33,-211.11 542.67,-211.11 542.67,-211.11 538.83,-211.11 535,-207.27 535,-203.44 535,-203.44 535,-195.77 535,-195.77 535,-191.94 538.83,-188.11 542.67,-188.11 542.67,-188.11 686.33,-188.11 686.33,-188.11 690.17,-188.11 694,-191.94 694,-195.77 694,-195.77 694,-203.44 694,-203.44 694,-207.27 690.17,-211.11 686.33,-211.11"/>
<text text-anchor="middle" x="614.5" y="-195.91" font-family="Arial" font-size="14.00" fill="#c6c5fe">redis/common/index.js</text>
</g>
<!-- index.js&#45;&gt;redis/common/index.js -->
<g id="edge32" class="edge">
<title>index.js&#45;&gt;redis/common/index.js</title>
<path fill="none" stroke="#757575" d="M35.15,-408.77C39.86,-379.58 56,-303.57 101,-262.61 225.1,-149.62 441.77,-168.2 549.25,-186.33"/>
<polygon fill="#757575" stroke="#757575" points="548.86,-189.82 559.31,-188.08 550.06,-182.92 548.86,-189.82"/>
</g>
<!-- redis/redis&#45;manager.js -->
<g id="node18" class="node">
<title>redis/redis&#45;manager.js</title>
<path fill="none" stroke="#c6c5fe" d="M685.83,-412.11C685.83,-412.11 543.17,-412.11 543.17,-412.11 539.33,-412.11 535.5,-408.27 535.5,-404.44 535.5,-404.44 535.5,-396.77 535.5,-396.77 535.5,-392.94 539.33,-389.11 543.17,-389.11 543.17,-389.11 685.83,-389.11 685.83,-389.11 689.67,-389.11 693.5,-392.94 693.5,-396.77 693.5,-396.77 693.5,-404.44 693.5,-404.44 693.5,-408.27 689.67,-412.11 685.83,-412.11"/>
<text text-anchor="middle" x="614.5" y="-396.91" font-family="Arial" font-size="14.00" fill="#c6c5fe">redis/redis&#45;manager.js</text>
</g>
<!-- index.js&#45;&gt;redis/redis&#45;manager.js -->
<g id="edge33" class="edge">
<title>index.js&#45;&gt;redis/redis&#45;manager.js</title>
<path fill="none" stroke="#757575" d="M65.1,-419.52C151.38,-416.54 393.34,-408.2 525.17,-403.65"/>
<polygon fill="#757575" stroke="#757575" points="525.37,-407.15 535.24,-403.3 525.13,-400.15 525.37,-407.15"/>
</g>
<!-- redis/redis.constants.js -->
<g id="node19" class="node">
<title>redis/redis.constants.js</title>
<path fill="none" stroke="#cfffac" d="M1466.83,-211.11C1466.83,-211.11 1320.17,-211.11 1320.17,-211.11 1316.33,-211.11 1312.5,-207.27 1312.5,-203.44 1312.5,-203.44 1312.5,-195.77 1312.5,-195.77 1312.5,-191.94 1316.33,-188.11 1320.17,-188.11 1320.17,-188.11 1466.83,-188.11 1466.83,-188.11 1470.67,-188.11 1474.5,-191.94 1474.5,-195.77 1474.5,-195.77 1474.5,-203.44 1474.5,-203.44 1474.5,-207.27 1470.67,-211.11 1466.83,-211.11"/>
<text text-anchor="middle" x="1393.5" y="-195.91" font-family="Arial" font-size="14.00" fill="#cfffac">redis/redis.constants.js</text>
</g>
<!-- index.js&#45;&gt;redis/redis.constants.js -->
<g id="edge34" class="edge">
<title>index.js&#45;&gt;redis/redis.constants.js</title>
<path fill="none" stroke="#757575" d="M33.98,-408.88C36.05,-371.8 46.76,-255.15 101,-180.61 190.52,-57.58 244.85,-8.61 397,-8.61 397,-8.61 397,-8.61 862,-8.61 1042.77,-8.61 1105.9,28.33 1266,-55.61 1320.48,-84.17 1362.25,-146.58 1381.25,-179.05"/>
<polygon fill="#757575" stroke="#757575" points="1378.41,-181.14 1386.4,-188.1 1384.49,-177.68 1378.41,-181.14"/>
</g>
<!-- redis/redis.module.js -->
<g id="node20" class="node">
<title>redis/redis.module.js</title>
<path fill="none" stroke="#c6c5fe" d="M252.83,-295.11C252.83,-295.11 119.17,-295.11 119.17,-295.11 115.33,-295.11 111.5,-291.27 111.5,-287.44 111.5,-287.44 111.5,-279.77 111.5,-279.77 111.5,-275.94 115.33,-272.11 119.17,-272.11 119.17,-272.11 252.83,-272.11 252.83,-272.11 256.67,-272.11 260.5,-275.94 260.5,-279.77 260.5,-279.77 260.5,-287.44 260.5,-287.44 260.5,-291.27 256.67,-295.11 252.83,-295.11"/>
<text text-anchor="middle" x="186" y="-279.91" font-family="Arial" font-size="14.00" fill="#c6c5fe">redis/redis.module.js</text>
</g>
<!-- index.js&#45;&gt;redis/redis.module.js -->
<g id="edge35" class="edge">
<title>index.js&#45;&gt;redis/redis.module.js</title>
<path fill="none" stroke="#757575" d="M46.42,-408.93C72.69,-385.17 132.56,-331.03 164.32,-302.31"/>
<polygon fill="#757575" stroke="#757575" points="167.05,-304.56 172.12,-295.26 162.35,-299.37 167.05,-304.56"/>
</g>
<!-- redis/common/redis.decorator.js -->
<g id="node21" class="node">
<title>redis/common/redis.decorator.js</title>
<path fill="none" stroke="#c6c5fe" d="M963.83,-291.11C963.83,-291.11 758.17,-291.11 758.17,-291.11 754.33,-291.11 750.5,-287.27 750.5,-283.44 750.5,-283.44 750.5,-275.77 750.5,-275.77 750.5,-271.94 754.33,-268.11 758.17,-268.11 758.17,-268.11 963.83,-268.11 963.83,-268.11 967.67,-268.11 971.5,-271.94 971.5,-275.77 971.5,-275.77 971.5,-283.44 971.5,-283.44 971.5,-287.27 967.67,-291.11 963.83,-291.11"/>
<text text-anchor="middle" x="861" y="-275.91" font-family="Arial" font-size="14.00" fill="#c6c5fe">redis/common/redis.decorator.js</text>
</g>
<!-- redis/common/index.js&#45;&gt;redis/common/redis.decorator.js -->
<g id="edge36" class="edge">
<title>redis/common/index.js&#45;&gt;redis/common/redis.decorator.js</title>
<path fill="none" stroke="#757575" d="M650.79,-211.15C694.13,-225.33 767.69,-249.4 815.03,-264.89"/>
<polygon fill="#757575" stroke="#757575" points="814.13,-268.28 824.72,-268.06 816.3,-261.63 814.13,-268.28"/>
</g>
<!-- redis/common/redis.utils.js -->
<g id="node22" class="node">
<title>redis/common/redis.utils.js</title>
<path fill="none" stroke="#c6c5fe" d="M945.83,-211.11C945.83,-211.11 776.17,-211.11 776.17,-211.11 772.33,-211.11 768.5,-207.27 768.5,-203.44 768.5,-203.44 768.5,-195.77 768.5,-195.77 768.5,-191.94 772.33,-188.11 776.17,-188.11 776.17,-188.11 945.83,-188.11 945.83,-188.11 949.67,-188.11 953.5,-191.94 953.5,-195.77 953.5,-195.77 953.5,-203.44 953.5,-203.44 953.5,-207.27 949.67,-211.11 945.83,-211.11"/>
<text text-anchor="middle" x="861" y="-195.91" font-family="Arial" font-size="14.00" fill="#c6c5fe">redis/common/redis.utils.js</text>
</g>
<!-- redis/common/index.js&#45;&gt;redis/common/redis.utils.js -->
<g id="edge37" class="edge">
<title>redis/common/index.js&#45;&gt;redis/common/redis.utils.js</title>
<path fill="none" stroke="#757575" d="M694.21,-199.61C714.57,-199.61 736.8,-199.61 758.16,-199.61"/>
<polygon fill="#757575" stroke="#757575" points="758.24,-203.11 768.24,-199.61 758.24,-196.11 758.24,-203.11"/>
</g>
<!-- redis/redis&#45;manager.js&#45;&gt;errors/index.js -->
<g id="edge46" class="edge">
<title>redis/redis&#45;manager.js&#45;&gt;errors/index.js</title>
<path fill="none" stroke="#757575" d="M629.69,-412.13C648.65,-428.11 682.37,-458.67 704,-490.61 726.32,-523.56 712.57,-543.77 740,-572.61 759.63,-593.24 787.88,-607.85 812.04,-617.49"/>
<polygon fill="#757575" stroke="#757575" points="810.83,-620.77 821.42,-621.06 813.32,-614.23 810.83,-620.77"/>
</g>
<!-- redis/redis&#45;manager.js&#45;&gt;utils/index.js -->
<g id="edge48" class="edge">
<title>redis/redis&#45;manager.js&#45;&gt;utils/index.js</title>
<path fill="none" stroke="#757575" d="M693.61,-411.31C800.81,-426 990.93,-452.04 1085.03,-464.94"/>
<polygon fill="#757575" stroke="#757575" points="1084.82,-468.44 1095.2,-466.33 1085.77,-461.51 1084.82,-468.44"/>
</g>
<!-- redis/redis&#45;manager.js&#45;&gt;redis/redis.constants.js -->
<g id="edge47" class="edge">
<title>redis/redis&#45;manager.js&#45;&gt;redis/redis.constants.js</title>
<path fill="none" stroke="#757575" d="M693.53,-399.31C843.76,-395.72 1167.12,-382.4 1266,-333.61 1318.52,-307.69 1360.61,-250.32 1380.34,-219.73"/>
<polygon fill="#757575" stroke="#757575" points="1383.36,-221.49 1385.72,-211.16 1377.44,-217.76 1383.36,-221.49"/>
</g>
<!-- redis/redis.module.js&#45;&gt;errors/index.js -->
<g id="edge49" class="edge">
<title>redis/redis.module.js&#45;&gt;errors/index.js</title>
<path fill="none" stroke="#757575" d="M202.03,-295.39C224.64,-313.04 268.82,-347.32 307,-375.61 402.73,-446.53 418.08,-479.04 525,-531.61 615.28,-575.99 728.94,-605.22 797.96,-620.32"/>
<polygon fill="#757575" stroke="#757575" points="797.3,-623.76 807.81,-622.45 798.77,-616.92 797.3,-623.76"/>
</g>
<!-- redis/redis.module.js&#45;&gt;utils/index.js -->
<g id="edge56" class="edge">
<title>redis/redis.module.js&#45;&gt;utils/index.js</title>
<path fill="none" stroke="#757575" d="M255.85,-295.11C272.59,-297.9 290.43,-300.86 307,-303.61 606.95,-353.26 712.47,-273.93 982,-414.61 1002.34,-425.22 997.69,-440.93 1018,-451.61 1038.44,-462.36 1063.19,-467.79 1085.11,-470.48"/>
<polygon fill="#757575" stroke="#757575" points="1084.98,-473.99 1095.29,-471.56 1085.71,-467.02 1084.98,-473.99"/>
</g>
<!-- redis/redis.module.js&#45;&gt;messages/index.js -->
<g id="edge50" class="edge">
<title>redis/redis.module.js&#45;&gt;messages/index.js</title>
<path fill="none" stroke="#757575" d="M198.3,-272.01C218.18,-252.46 261.64,-213.41 307,-196.61 431.89,-150.33 919.29,-166.99 982,-178.61 1028.11,-187.15 1078.11,-208.52 1109.48,-223.54"/>
<polygon fill="#757575" stroke="#757575" points="1108.08,-226.75 1118.6,-227.98 1111.14,-220.46 1108.08,-226.75"/>
</g>
<!-- redis/redis.module.js&#45;&gt;redis/common/index.js -->
<g id="edge51" class="edge">
<title>redis/redis.module.js&#45;&gt;redis/common/index.js</title>
<path fill="none" stroke="#757575" d="M205.68,-271.89C228.59,-258.17 269.06,-236 307,-225.61 378.6,-205.99 462.81,-200.01 524.83,-198.64"/>
<polygon fill="#757575" stroke="#757575" points="525.04,-202.14 534.98,-198.46 524.92,-195.14 525.04,-202.14"/>
</g>
<!-- redis/redis.module.js&#45;&gt;redis/redis&#45;manager.js -->
<g id="edge53" class="edge">
<title>redis/redis.module.js&#45;&gt;redis/redis&#45;manager.js</title>
<path fill="none" stroke="#757575" d="M208.04,-295.33C231.52,-307.95 270.95,-327.8 307,-339.61 378.8,-363.12 463.17,-379.1 525.2,-388.79"/>
<polygon fill="#757575" stroke="#757575" points="524.93,-392.29 535.34,-390.35 525.99,-385.37 524.93,-392.29"/>
</g>
<!-- redis/redis.module.js&#45;&gt;redis/redis.constants.js -->
<g id="edge54" class="edge">
<title>redis/redis.module.js&#45;&gt;redis/redis.constants.js</title>
<path fill="none" stroke="#757575" d="M191.66,-271.85C204.68,-240.58 244.68,-154.94 307,-113.61 423.2,-36.53 474.06,-46.61 613.5,-46.61 613.5,-46.61 613.5,-46.61 862,-46.61 1046.15,-46.61 1092.18,-77.78 1266,-138.61 1300.49,-150.67 1337.95,-169.52 1363.08,-183.07"/>
<polygon fill="#757575" stroke="#757575" points="1361.62,-186.26 1372.08,-187.98 1364.97,-180.11 1361.62,-186.26"/>
</g>
<!-- redis/redis&#45;logger.js -->
<g id="node23" class="node">
<title>redis/redis&#45;logger.js</title>
<path fill="none" stroke="#c6c5fe" d="M1205.83,-171.11C1205.83,-171.11 1078.17,-171.11 1078.17,-171.11 1074.33,-171.11 1070.5,-167.27 1070.5,-163.44 1070.5,-163.44 1070.5,-155.77 1070.5,-155.77 1070.5,-151.94 1074.33,-148.11 1078.17,-148.11 1078.17,-148.11 1205.83,-148.11 1205.83,-148.11 1209.67,-148.11 1213.5,-151.94 1213.5,-155.77 1213.5,-155.77 1213.5,-163.44 1213.5,-163.44 1213.5,-167.27 1209.67,-171.11 1205.83,-171.11"/>
<text text-anchor="middle" x="1142" y="-155.91" font-family="Arial" font-size="14.00" fill="#c6c5fe">redis/redis&#45;logger.js</text>
</g>
<!-- redis/redis.module.js&#45;&gt;redis/redis&#45;logger.js -->
<g id="edge52" class="edge">
<title>redis/redis.module.js&#45;&gt;redis/redis&#45;logger.js</title>
<path fill="none" stroke="#757575" d="M194.54,-271.85C211.23,-247.02 254.06,-189.72 307,-167.61 578.12,-54.35 943.44,-115.62 1083.28,-145.89"/>
<polygon fill="#757575" stroke="#757575" points="1082.83,-149.37 1093.34,-148.1 1084.33,-142.54 1082.83,-149.37"/>
</g>
<!-- redis/redis.providers.js -->
<g id="node25" class="node">
<title>redis/redis.providers.js</title>
<path fill="none" stroke="#c6c5fe" d="M470.83,-295.11C470.83,-295.11 325.17,-295.11 325.17,-295.11 321.33,-295.11 317.5,-291.27 317.5,-287.44 317.5,-287.44 317.5,-279.77 317.5,-279.77 317.5,-275.94 321.33,-272.11 325.17,-272.11 325.17,-272.11 470.83,-272.11 470.83,-272.11 474.67,-272.11 478.5,-275.94 478.5,-279.77 478.5,-279.77 478.5,-287.44 478.5,-287.44 478.5,-291.27 474.67,-295.11 470.83,-295.11"/>
<text text-anchor="middle" x="398" y="-279.91" font-family="Arial" font-size="14.00" fill="#c6c5fe">redis/redis.providers.js</text>
</g>
<!-- redis/redis.module.js&#45;&gt;redis/redis.providers.js -->
<g id="edge55" class="edge">
<title>redis/redis.module.js&#45;&gt;redis/redis.providers.js</title>
<path fill="none" stroke="#757575" d="M260.74,-283.61C275.77,-283.61 291.74,-283.61 307.25,-283.61"/>
<polygon fill="#757575" stroke="#757575" points="307.36,-287.11 317.36,-283.61 307.36,-280.11 307.36,-287.11"/>
</g>
<!-- redis/common/redis.decorator.js&#45;&gt;utils/index.js -->
<g id="edge39" class="edge">
<title>redis/common/redis.decorator.js&#45;&gt;utils/index.js</title>
<path fill="none" stroke="#757575" d="M899.33,-291.14C925.81,-301.1 960.37,-317.99 982,-343.61 1014.65,-382.26 979.6,-418.66 1018,-451.61 1036.33,-467.33 1062.03,-473.35 1085.2,-475.12"/>
<polygon fill="#757575" stroke="#757575" points="1085.11,-478.62 1095.28,-475.65 1085.48,-471.63 1085.11,-478.62"/>
</g>
<!-- redis/common/redis.decorator.js&#45;&gt;redis/redis.constants.js -->
<g id="edge38" class="edge">
<title>redis/common/redis.decorator.js&#45;&gt;redis/redis.constants.js</title>
<path fill="none" stroke="#757575" d="M971.73,-285.66C1053.96,-287.45 1168.61,-284.08 1266,-259.61 1302.16,-250.52 1340.41,-230.78 1365.26,-216.41"/>
<polygon fill="#757575" stroke="#757575" points="1367.25,-219.3 1374.09,-211.21 1363.7,-213.27 1367.25,-219.3"/>
</g>
<!-- redis/common/redis.utils.js&#45;&gt;utils/index.js -->
<g id="edge44" class="edge">
<title>redis/common/redis.utils.js&#45;&gt;utils/index.js</title>
<path fill="none" stroke="#757575" d="M907.93,-211.15C933.57,-219.95 963.9,-234.75 982,-258.61 1034.75,-328.12 955.83,-390.38 1018,-451.61 1035.41,-468.75 1061.36,-474.87 1084.94,-476.34"/>
<polygon fill="#757575" stroke="#757575" points="1085.1,-479.85 1095.22,-476.71 1085.36,-472.85 1085.1,-479.85"/>
</g>
<!-- redis/common/redis.utils.js&#45;&gt;messages/index.js -->
<g id="edge41" class="edge">
<title>redis/common/redis.utils.js&#45;&gt;messages/index.js</title>
<path fill="none" stroke="#757575" d="M942.32,-211.12C980.75,-216.63 1026.52,-223.19 1064.44,-228.63"/>
<polygon fill="#757575" stroke="#757575" points="1064.01,-232.1 1074.41,-230.06 1065.01,-225.18 1064.01,-232.1"/>
</g>
<!-- redis/common/redis.utils.js&#45;&gt;constants/index.js -->
<g id="edge40" class="edge">
<title>redis/common/redis.utils.js&#45;&gt;constants/index.js</title>
<path fill="none" stroke="#757575" d="M893.11,-211.16C918.44,-221.41 954.39,-237.96 982,-258.61 1043.47,-304.59 1100.49,-376.45 1126.38,-411.3"/>
<polygon fill="#757575" stroke="#757575" points="1123.82,-413.72 1132.56,-419.71 1129.46,-409.58 1123.82,-413.72"/>
</g>
<!-- redis/common/redis.utils.js&#45;&gt;redis/redis.constants.js -->
<g id="edge43" class="edge">
<title>redis/common/redis.utils.js&#45;&gt;redis/redis.constants.js</title>
<path fill="none" stroke="#757575" d="M953.8,-199.61C1051.47,-199.61 1205.01,-199.61 1302.13,-199.61"/>
<polygon fill="#757575" stroke="#757575" points="1302.22,-203.11 1312.22,-199.61 1302.22,-196.11 1302.22,-203.11"/>
</g>
<!-- redis/common/redis.utils.js&#45;&gt;redis/redis&#45;logger.js -->
<g id="edge42" class="edge">
<title>redis/common/redis.utils.js&#45;&gt;redis/redis&#45;logger.js</title>
<path fill="none" stroke="#757575" d="M942.32,-188.09C979.26,-182.8 1022.98,-176.53 1060,-171.22"/>
<polygon fill="#757575" stroke="#757575" points="1060.85,-174.63 1070.25,-169.75 1059.86,-167.7 1060.85,-174.63"/>
</g>
<!-- redis/redis&#45;logger.js&#45;&gt;redis/redis.constants.js -->
<g id="edge45" class="edge">
<title>redis/redis&#45;logger.js&#45;&gt;redis/redis.constants.js</title>
<path fill="none" stroke="#757575" d="M1213.83,-170.96C1243.99,-175.8 1279.36,-181.47 1310.63,-186.48"/>
<polygon fill="#757575" stroke="#757575" points="1310.2,-189.96 1320.63,-188.08 1311.31,-183.04 1310.2,-189.96"/>
</g>
<!-- redis/default&#45;options.js -->
<g id="node24" class="node">
<title>redis/default&#45;options.js</title>
<path fill="none" stroke="#cfffac" d="M686.83,-291.11C686.83,-291.11 542.17,-291.11 542.17,-291.11 538.33,-291.11 534.5,-287.27 534.5,-283.44 534.5,-283.44 534.5,-275.77 534.5,-275.77 534.5,-271.94 538.33,-268.11 542.17,-268.11 542.17,-268.11 686.83,-268.11 686.83,-268.11 690.67,-268.11 694.5,-271.94 694.5,-275.77 694.5,-275.77 694.5,-283.44 694.5,-283.44 694.5,-287.27 690.67,-291.11 686.83,-291.11"/>
<text text-anchor="middle" x="614.5" y="-275.91" font-family="Arial" font-size="14.00" fill="#cfffac">redis/default&#45;options.js</text>
</g>
<!-- redis/redis.providers.js&#45;&gt;redis/common/index.js -->
<g id="edge57" class="edge">
<title>redis/redis.providers.js&#45;&gt;redis/common/index.js</title>
<path fill="none" stroke="#757575" d="M428.38,-272.1C466.27,-257.26 532.31,-231.4 574.41,-214.91"/>
<polygon fill="#757575" stroke="#757575" points="575.76,-218.15 583.79,-211.24 573.2,-211.63 575.76,-218.15"/>
</g>
<!-- redis/redis.providers.js&#45;&gt;redis/redis&#45;manager.js -->
<g id="edge59" class="edge">
<title>redis/redis.providers.js&#45;&gt;redis/redis&#45;manager.js</title>
<path fill="none" stroke="#757575" d="M420.35,-295.25C458.74,-316.19 539.49,-360.24 583.44,-384.21"/>
<polygon fill="#757575" stroke="#757575" points="581.78,-387.29 592.24,-389.01 585.13,-381.15 581.78,-387.29"/>
</g>
<!-- redis/redis.providers.js&#45;&gt;redis/redis.constants.js -->
<g id="edge60" class="edge">
<title>redis/redis.providers.js&#45;&gt;redis/redis.constants.js</title>
<path fill="none" stroke="#757575" d="M477.49,-295.13C493.19,-296.99 509.6,-298.63 525,-299.61 689.36,-310 1109.93,-340.2 1266,-287.61 1308.86,-273.16 1350.28,-239.42 1373.47,-218.16"/>
<polygon fill="#757575" stroke="#757575" points="1375.98,-220.61 1380.89,-211.22 1371.2,-215.5 1375.98,-220.61"/>
</g>
<!-- redis/redis.providers.js&#45;&gt;redis/default&#45;options.js -->
<g id="edge58" class="edge">
<title>redis/redis.providers.js&#45;&gt;redis/default&#45;options.js</title>
<path fill="none" stroke="#757575" d="M478.57,-282.12C493.39,-281.85 508.97,-281.56 524.06,-281.27"/>
<polygon fill="#757575" stroke="#757575" points="524.49,-284.77 534.42,-281.08 524.36,-277.77 524.49,-284.77"/>
</g>
<!-- utils/parsers.js&#45;&gt;utils/is.js -->
<g id="edge63" class="edge">
<title>utils/parsers.js&#45;&gt;utils/is.js</title>
<path fill="none" stroke="#757575" d="M1447.05,-459.16C1467.61,-461.72 1490.92,-464.62 1510.61,-467.08"/>
<polygon fill="#757575" stroke="#757575" points="1510.19,-470.55 1520.54,-468.31 1511.05,-463.6 1510.19,-470.55"/>
</g>
</g>
</svg>
