<?xml version="1.0" encoding="UTF-8" standalone="no"?>
<!DOCTYPE svg PUBLIC "-//W3C//DTD SVG 1.1//EN"
 "http://www.w3.org/Graphics/SVG/1.1/DTD/svg11.dtd">
<!-- Generated by graphviz version 2.43.0 (0)
 -->
<!-- Title: G Pages: 1 -->
<svg width="1486pt" height="867pt"
 viewBox="0.00 0.00 1486.20 866.59" xmlns="http://www.w3.org/2000/svg" xmlns:xlink="http://www.w3.org/1999/xlink">
<g id="graph0" class="graph" transform="scale(1 1) rotate(0) translate(21.6 844.99)">
<title>G</title>
<polygon fill="#111111" stroke="transparent" points="-21.6,21.6 -21.6,-844.99 1464.6,-844.99 1464.6,21.6 -21.6,21.6"/>
<!-- cluster/cluster&#45;logger.js -->
<g id="node1" class="node">
<title>cluster/cluster&#45;logger.js</title>
<path fill="none" stroke="#c6c5fe" d="M1121.33,-676.89C1121.33,-676.89 981.67,-676.89 981.67,-676.89 977.83,-676.89 974,-673.06 974,-669.22 974,-669.22 974,-661.56 974,-661.56 974,-657.72 977.83,-653.89 981.67,-653.89 981.67,-653.89 1121.33,-653.89 1121.33,-653.89 1125.17,-653.89 1129,-657.72 1129,-661.56 1129,-661.56 1129,-669.22 1129,-669.22 1129,-673.06 1125.17,-676.89 1121.33,-676.89"/>
<text text-anchor="middle" x="1051.5" y="-661.69" font-family="Arial" font-size="14.00" fill="#c6c5fe">cluster/cluster&#45;logger.js</text>
</g>
<!-- cluster/cluster.constants.js -->
<g id="node2" class="node">
<title>cluster/cluster.constants.js</title>
<path fill="none" stroke="#cfffac" d="M1331.33,-696.89C1331.33,-696.89 1172.67,-696.89 1172.67,-696.89 1168.83,-696.89 1165,-693.06 1165,-689.22 1165,-689.22 1165,-681.56 1165,-681.56 1165,-677.72 1168.83,-673.89 1172.67,-673.89 1172.67,-673.89 1331.33,-673.89 1331.33,-673.89 1335.17,-673.89 1339,-677.72 1339,-681.56 1339,-681.56 1339,-689.22 1339,-689.22 1339,-693.06 1335.17,-696.89 1331.33,-696.89"/>
<text text-anchor="middle" x="1252" y="-681.69" font-family="Arial" font-size="14.00" fill="#cfffac">cluster/cluster.constants.js</text>
</g>
<!-- cluster/cluster&#45;logger.js&#45;&gt;cluster/cluster.constants.js -->
<g id="edge1" class="edge">
<title>cluster/cluster&#45;logger.js&#45;&gt;cluster/cluster.constants.js</title>
<path fill="none" stroke="#757575" d="M1129.25,-673.12C1137.64,-673.97 1146.25,-674.84 1154.84,-675.7"/>
<polygon fill="#757575" stroke="#757575" points="1154.59,-679.19 1164.89,-676.71 1155.29,-672.23 1154.59,-679.19"/>
</g>
<!-- cluster/cluster.module.js -->
<g id="node3" class="node">
<title>cluster/cluster.module.js</title>
<path fill="none" stroke="#c6c5fe" d="M251.33,-558.89C251.33,-558.89 105.67,-558.89 105.67,-558.89 101.83,-558.89 98,-555.06 98,-551.22 98,-551.22 98,-543.56 98,-543.56 98,-539.72 101.83,-535.89 105.67,-535.89 105.67,-535.89 251.33,-535.89 251.33,-535.89 255.17,-535.89 259,-539.72 259,-543.56 259,-543.56 259,-551.22 259,-551.22 259,-555.06 255.17,-558.89 251.33,-558.89"/>
<text text-anchor="middle" x="178.5" y="-543.69" font-family="Arial" font-size="14.00" fill="#c6c5fe">cluster/cluster.module.js</text>
</g>
<!-- cluster/cluster.module.js&#45;&gt;cluster/cluster&#45;logger.js -->
<g id="edge2" class="edge">
<title>cluster/cluster.module.js&#45;&gt;cluster/cluster&#45;logger.js</title>
<path fill="none" stroke="#757575" d="M240.04,-558.94C257.75,-562.31 277.15,-566 295,-569.39 475.87,-603.72 519.24,-624.22 702,-646.39 790.72,-657.15 892.9,-661.82 963.57,-663.84"/>
<polygon fill="#757575" stroke="#757575" points="963.67,-667.35 973.76,-664.12 963.86,-660.35 963.67,-667.35"/>
</g>
<!-- cluster/cluster.module.js&#45;&gt;cluster/cluster.constants.js -->
<g id="edge3" class="edge">
<title>cluster/cluster.module.js&#45;&gt;cluster/cluster.constants.js</title>
<path fill="none" stroke="#757575" d="M184.61,-559.02C198.12,-588.43 237.74,-666.22 295,-706.39 403.84,-782.73 450.56,-785.39 583.5,-785.39 583.5,-785.39 583.5,-785.39 821,-785.39 968.99,-785.39 1138.35,-728.5 1212.66,-700.54"/>
<polygon fill="#757575" stroke="#757575" points="1213.98,-703.79 1222.09,-696.96 1211.49,-697.24 1213.98,-703.79"/>
</g>
<!-- cluster/cluster.providers.js -->
<g id="node4" class="node">
<title>cluster/cluster.providers.js</title>
<path fill="none" stroke="#c6c5fe" d="M459.33,-696.89C459.33,-696.89 302.67,-696.89 302.67,-696.89 298.83,-696.89 295,-693.06 295,-689.22 295,-689.22 295,-681.56 295,-681.56 295,-677.72 298.83,-673.89 302.67,-673.89 302.67,-673.89 459.33,-673.89 459.33,-673.89 463.17,-673.89 467,-677.72 467,-681.56 467,-681.56 467,-689.22 467,-689.22 467,-693.06 463.17,-696.89 459.33,-696.89"/>
<text text-anchor="middle" x="381" y="-681.69" font-family="Arial" font-size="14.00" fill="#c6c5fe">cluster/cluster.providers.js</text>
</g>
<!-- cluster/cluster.module.js&#45;&gt;cluster/cluster.providers.js -->
<g id="edge4" class="edge">
<title>cluster/cluster.module.js&#45;&gt;cluster/cluster.providers.js</title>
<path fill="none" stroke="#757575" d="M192.43,-558.95C213.2,-577.23 255.66,-613.37 295,-639.39 311.5,-650.3 330.82,-660.92 346.87,-669.19"/>
<polygon fill="#757575" stroke="#757575" points="345.4,-672.37 355.9,-673.78 348.57,-666.13 345.4,-672.37"/>
</g>
<!-- cluster/cluster.service.js -->
<g id="node5" class="node">
<title>cluster/cluster.service.js</title>
<path fill="none" stroke="#c6c5fe" d="M452.83,-480.89C452.83,-480.89 309.17,-480.89 309.17,-480.89 305.33,-480.89 301.5,-477.06 301.5,-473.22 301.5,-473.22 301.5,-465.56 301.5,-465.56 301.5,-461.72 305.33,-457.89 309.17,-457.89 309.17,-457.89 452.83,-457.89 452.83,-457.89 456.67,-457.89 460.5,-461.72 460.5,-465.56 460.5,-465.56 460.5,-473.22 460.5,-473.22 460.5,-477.06 456.67,-480.89 452.83,-480.89"/>
<text text-anchor="middle" x="381" y="-465.69" font-family="Arial" font-size="14.00" fill="#c6c5fe">cluster/cluster.service.js</text>
</g>
<!-- cluster/cluster.module.js&#45;&gt;cluster/cluster.service.js -->
<g id="edge5" class="edge">
<title>cluster/cluster.module.js&#45;&gt;cluster/cluster.service.js</title>
<path fill="none" stroke="#757575" d="M203.02,-535.74C226.11,-524.57 262.48,-507.63 295,-495.39 305.84,-491.31 317.62,-487.39 328.87,-483.89"/>
<polygon fill="#757575" stroke="#757575" points="330.04,-487.19 338.58,-480.92 327.99,-480.49 330.04,-487.19"/>
</g>
<!-- errors/index.js -->
<g id="node6" class="node">
<title>errors/index.js</title>
<path fill="none" stroke="#c6c5fe" d="M627.33,-420.89C627.33,-420.89 541.67,-420.89 541.67,-420.89 537.83,-420.89 534,-417.06 534,-413.22 534,-413.22 534,-405.56 534,-405.56 534,-401.72 537.83,-397.89 541.67,-397.89 541.67,-397.89 627.33,-397.89 627.33,-397.89 631.17,-397.89 635,-401.72 635,-405.56 635,-405.56 635,-413.22 635,-413.22 635,-417.06 631.17,-420.89 627.33,-420.89"/>
<text text-anchor="middle" x="584.5" y="-405.69" font-family="Arial" font-size="14.00" fill="#c6c5fe">errors/index.js</text>
</g>
<!-- cluster/cluster.module.js&#45;&gt;errors/index.js -->
<g id="edge6" class="edge">
<title>cluster/cluster.module.js&#45;&gt;errors/index.js</title>
<path fill="none" stroke="#757575" d="M189.19,-535.61C207.42,-514.36 249.15,-469.9 295,-449.39 368.96,-416.3 463.36,-408.96 523.63,-408.1"/>
<polygon fill="#757575" stroke="#757575" points="523.77,-411.6 533.74,-408.02 523.71,-404.6 523.77,-411.6"/>
</g>
<!-- messages/index.js -->
<g id="node7" class="node">
<title>messages/index.js</title>
<path fill="none" stroke="#cfffac" d="M1107.83,-596.89C1107.83,-596.89 995.17,-596.89 995.17,-596.89 991.33,-596.89 987.5,-593.06 987.5,-589.22 987.5,-589.22 987.5,-581.56 987.5,-581.56 987.5,-577.72 991.33,-573.89 995.17,-573.89 995.17,-573.89 1107.83,-573.89 1107.83,-573.89 1111.67,-573.89 1115.5,-577.72 1115.5,-581.56 1115.5,-581.56 1115.5,-589.22 1115.5,-589.22 1115.5,-593.06 1111.67,-596.89 1107.83,-596.89"/>
<text text-anchor="middle" x="1051.5" y="-581.69" font-family="Arial" font-size="14.00" fill="#cfffac">messages/index.js</text>
</g>
<!-- cluster/cluster.module.js&#45;&gt;messages/index.js -->
<g id="edge7" class="edge">
<title>cluster/cluster.module.js&#45;&gt;messages/index.js</title>
<path fill="none" stroke="#757575" d="M259.1,-550.86C426.87,-558.18 814.61,-575.1 976.94,-582.18"/>
<polygon fill="#757575" stroke="#757575" points="977.16,-585.69 987.3,-582.63 977.46,-578.7 977.16,-585.69"/>
</g>
<!-- utils/index.js -->
<g id="node8" class="node">
<title>utils/index.js</title>
<path fill="none" stroke="#c6c5fe" d="M1088.83,-402.89C1088.83,-402.89 1014.17,-402.89 1014.17,-402.89 1010.33,-402.89 1006.5,-399.06 1006.5,-395.22 1006.5,-395.22 1006.5,-387.56 1006.5,-387.56 1006.5,-383.72 1010.33,-379.89 1014.17,-379.89 1014.17,-379.89 1088.83,-379.89 1088.83,-379.89 1092.67,-379.89 1096.5,-383.72 1096.5,-387.56 1096.5,-387.56 1096.5,-395.22 1096.5,-395.22 1096.5,-399.06 1092.67,-402.89 1088.83,-402.89"/>
<text text-anchor="middle" x="1051.5" y="-387.69" font-family="Arial" font-size="14.00" fill="#c6c5fe">utils/index.js</text>
</g>
<!-- cluster/cluster.module.js&#45;&gt;utils/index.js -->
<g id="edge8" class="edge">
<title>cluster/cluster.module.js&#45;&gt;utils/index.js</title>
<path fill="none" stroke="#757575" d="M259.01,-546.44C427.8,-543.47 816.4,-531.36 938,-482.39 977.05,-466.66 1013.19,-432.53 1033.49,-410.83"/>
<polygon fill="#757575" stroke="#757575" points="1036.31,-412.93 1040.47,-403.18 1031.14,-408.21 1036.31,-412.93"/>
</g>
<!-- cluster/cluster.providers.js&#45;&gt;cluster/cluster.constants.js -->
<g id="edge9" class="edge">
<title>cluster/cluster.providers.js&#45;&gt;cluster/cluster.constants.js</title>
<path fill="none" stroke="#757575" d="M467.28,-686.18C479.27,-686.27 491.45,-686.34 503,-686.39 781.22,-687.54 850.78,-687.53 1129,-686.39 1137.3,-686.36 1145.91,-686.31 1154.55,-686.25"/>
<polygon fill="#757575" stroke="#757575" points="1154.71,-689.75 1164.69,-686.19 1154.67,-682.75 1154.71,-689.75"/>
</g>
<!-- cluster/common/index.js -->
<g id="node9" class="node">
<title>cluster/common/index.js</title>
<path fill="none" stroke="#c6c5fe" d="M658.33,-676.89C658.33,-676.89 510.67,-676.89 510.67,-676.89 506.83,-676.89 503,-673.06 503,-669.22 503,-669.22 503,-661.56 503,-661.56 503,-657.72 506.83,-653.89 510.67,-653.89 510.67,-653.89 658.33,-653.89 658.33,-653.89 662.17,-653.89 666,-657.72 666,-661.56 666,-661.56 666,-669.22 666,-669.22 666,-673.06 662.17,-676.89 658.33,-676.89"/>
<text text-anchor="middle" x="584.5" y="-661.69" font-family="Arial" font-size="14.00" fill="#c6c5fe">cluster/common/index.js</text>
</g>
<!-- cluster/cluster.providers.js&#45;&gt;cluster/common/index.js -->
<g id="edge10" class="edge">
<title>cluster/cluster.providers.js&#45;&gt;cluster/common/index.js</title>
<path fill="none" stroke="#757575" d="M467.16,-676.94C475.65,-676.09 484.3,-675.24 492.84,-674.39"/>
<polygon fill="#757575" stroke="#757575" points="493.21,-677.87 502.82,-673.4 492.52,-670.9 493.21,-677.87"/>
</g>
<!-- cluster/default&#45;options.js -->
<g id="node10" class="node">
<title>cluster/default&#45;options.js</title>
<path fill="none" stroke="#cfffac" d="M657.83,-756.89C657.83,-756.89 511.17,-756.89 511.17,-756.89 507.33,-756.89 503.5,-753.06 503.5,-749.22 503.5,-749.22 503.5,-741.56 503.5,-741.56 503.5,-737.72 507.33,-733.89 511.17,-733.89 511.17,-733.89 657.83,-733.89 657.83,-733.89 661.67,-733.89 665.5,-737.72 665.5,-741.56 665.5,-741.56 665.5,-749.22 665.5,-749.22 665.5,-753.06 661.67,-756.89 657.83,-756.89"/>
<text text-anchor="middle" x="584.5" y="-741.69" font-family="Arial" font-size="14.00" fill="#cfffac">cluster/default&#45;options.js</text>
</g>
<!-- cluster/cluster.providers.js&#45;&gt;cluster/default&#45;options.js -->
<g id="edge11" class="edge">
<title>cluster/cluster.providers.js&#45;&gt;cluster/default&#45;options.js</title>
<path fill="none" stroke="#757575" d="M420.85,-696.96C453.33,-706.63 499.81,-720.47 534.78,-730.88"/>
<polygon fill="#757575" stroke="#757575" points="534.19,-734.36 544.77,-733.86 536.18,-727.65 534.19,-734.36"/>
</g>
<!-- cluster/cluster.service.js&#45;&gt;cluster/cluster.constants.js -->
<g id="edge12" class="edge">
<title>cluster/cluster.service.js&#45;&gt;cluster/cluster.constants.js</title>
<path fill="none" stroke="#757575" d="M426,-480.9C448.84,-486.54 477.28,-493.03 503,-497.39 778.93,-544.13 876.12,-445.51 1129,-565.39 1176.96,-588.13 1217.4,-637.58 1237.46,-665.38"/>
<polygon fill="#757575" stroke="#757575" points="1234.62,-667.42 1243.24,-673.58 1240.34,-663.39 1234.62,-667.42"/>
</g>
<!-- cluster/cluster.service.js&#45;&gt;errors/index.js -->
<g id="edge13" class="edge">
<title>cluster/cluster.service.js&#45;&gt;errors/index.js</title>
<path fill="none" stroke="#757575" d="M420.85,-457.82C453.33,-448.15 499.81,-434.31 534.78,-423.9"/>
<polygon fill="#757575" stroke="#757575" points="536.18,-427.13 544.77,-420.92 534.19,-420.42 536.18,-427.13"/>
</g>
<!-- cluster/cluster.service.js&#45;&gt;utils/index.js -->
<g id="edge14" class="edge">
<title>cluster/cluster.service.js&#45;&gt;utils/index.js</title>
<path fill="none" stroke="#757575" d="M460.56,-478.22C569.78,-487.99 772.74,-497.01 938,-452.39 970.8,-443.53 1004.56,-423.49 1026.43,-408.79"/>
<polygon fill="#757575" stroke="#757575" points="1028.5,-411.61 1034.75,-403.05 1024.53,-405.84 1028.5,-411.61"/>
</g>
<!-- errors/client&#45;not&#45;found.error.js -->
<g id="node12" class="node">
<title>errors/client&#45;not&#45;found.error.js</title>
<path fill="none" stroke="#cfffac" d="M909.33,-442.89C909.33,-442.89 730.67,-442.89 730.67,-442.89 726.83,-442.89 723,-439.06 723,-435.22 723,-435.22 723,-427.56 723,-427.56 723,-423.72 726.83,-419.89 730.67,-419.89 730.67,-419.89 909.33,-419.89 909.33,-419.89 913.17,-419.89 917,-423.72 917,-427.56 917,-427.56 917,-435.22 917,-435.22 917,-439.06 913.17,-442.89 909.33,-442.89"/>
<text text-anchor="middle" x="820" y="-427.69" font-family="Arial" font-size="14.00" fill="#cfffac">errors/client&#45;not&#45;found.error.js</text>
</g>
<!-- errors/index.js&#45;&gt;errors/client&#45;not&#45;found.error.js -->
<g id="edge20" class="edge">
<title>errors/index.js&#45;&gt;errors/client&#45;not&#45;found.error.js</title>
<path fill="none" stroke="#757575" d="M635.02,-414.06C657.79,-416.2 685.74,-418.83 712.91,-421.39"/>
<polygon fill="#757575" stroke="#757575" points="712.59,-424.88 722.88,-422.33 713.25,-417.91 712.59,-424.88"/>
</g>
<!-- errors/missing&#45;configurations.error.js -->
<g id="node13" class="node">
<title>errors/missing&#45;configurations.error.js</title>
<path fill="none" stroke="#cfffac" d="M930.33,-401.89C930.33,-401.89 709.67,-401.89 709.67,-401.89 705.83,-401.89 702,-398.06 702,-394.22 702,-394.22 702,-386.56 702,-386.56 702,-382.72 705.83,-378.89 709.67,-378.89 709.67,-378.89 930.33,-378.89 930.33,-378.89 934.17,-378.89 938,-382.72 938,-386.56 938,-386.56 938,-394.22 938,-394.22 938,-398.06 934.17,-401.89 930.33,-401.89"/>
<text text-anchor="middle" x="820" y="-386.69" font-family="Arial" font-size="14.00" fill="#cfffac">errors/missing&#45;configurations.error.js</text>
</g>
<!-- errors/index.js&#45;&gt;errors/missing&#45;configurations.error.js -->
<g id="edge21" class="edge">
<title>errors/index.js&#45;&gt;errors/missing&#45;configurations.error.js</title>
<path fill="none" stroke="#757575" d="M635.02,-405.36C651.85,-403.99 671.52,-402.39 691.61,-400.76"/>
<polygon fill="#757575" stroke="#757575" points="692.13,-404.23 701.81,-399.93 691.56,-397.25 692.13,-404.23"/>
</g>
<!-- utils/is.js -->
<g id="node23" class="node">
<title>utils/is.js</title>
<path fill="none" stroke="#cfffac" d="M1435.33,-422.89C1435.33,-422.89 1382.67,-422.89 1382.67,-422.89 1378.83,-422.89 1375,-419.06 1375,-415.22 1375,-415.22 1375,-407.56 1375,-407.56 1375,-403.72 1378.83,-399.89 1382.67,-399.89 1382.67,-399.89 1435.33,-399.89 1435.33,-399.89 1439.17,-399.89 1443,-403.72 1443,-407.56 1443,-407.56 1443,-415.22 1443,-415.22 1443,-419.06 1439.17,-422.89 1435.33,-422.89"/>
<text text-anchor="middle" x="1409" y="-407.69" font-family="Arial" font-size="14.00" fill="#cfffac">utils/is.js</text>
</g>
<!-- utils/index.js&#45;&gt;utils/is.js -->
<g id="edge47" class="edge">
<title>utils/index.js&#45;&gt;utils/is.js</title>
<path fill="none" stroke="#757575" d="M1096.81,-393.88C1165.36,-397.74 1296.31,-405.11 1364.42,-408.94"/>
<polygon fill="#757575" stroke="#757575" points="1364.61,-412.45 1374.79,-409.52 1365,-405.47 1364.61,-412.45"/>
</g>
<!-- utils/parsers.js -->
<g id="node24" class="node">
<title>utils/parsers.js</title>
<path fill="none" stroke="#c6c5fe" d="M1295.83,-442.89C1295.83,-442.89 1208.17,-442.89 1208.17,-442.89 1204.33,-442.89 1200.5,-439.06 1200.5,-435.22 1200.5,-435.22 1200.5,-427.56 1200.5,-427.56 1200.5,-423.72 1204.33,-419.89 1208.17,-419.89 1208.17,-419.89 1295.83,-419.89 1295.83,-419.89 1299.67,-419.89 1303.5,-423.72 1303.5,-427.56 1303.5,-427.56 1303.5,-435.22 1303.5,-435.22 1303.5,-439.06 1299.67,-442.89 1295.83,-442.89"/>
<text text-anchor="middle" x="1252" y="-427.69" font-family="Arial" font-size="14.00" fill="#c6c5fe">utils/parsers.js</text>
</g>
<!-- utils/index.js&#45;&gt;utils/parsers.js -->
<g id="edge48" class="edge">
<title>utils/index.js&#45;&gt;utils/parsers.js</title>
<path fill="none" stroke="#757575" d="M1096.55,-400.27C1124.16,-405.83 1160.11,-413.08 1190.39,-419.18"/>
<polygon fill="#757575" stroke="#757575" points="1189.92,-422.65 1200.42,-421.2 1191.31,-415.79 1189.92,-422.65"/>
</g>
<!-- utils/reflect.js -->
<g id="node25" class="node">
<title>utils/reflect.js</title>
<path fill="none" stroke="#cfffac" d="M1291.83,-362.89C1291.83,-362.89 1212.17,-362.89 1212.17,-362.89 1208.33,-362.89 1204.5,-359.06 1204.5,-355.22 1204.5,-355.22 1204.5,-347.56 1204.5,-347.56 1204.5,-343.72 1208.33,-339.89 1212.17,-339.89 1212.17,-339.89 1291.83,-339.89 1291.83,-339.89 1295.67,-339.89 1299.5,-343.72 1299.5,-347.56 1299.5,-347.56 1299.5,-355.22 1299.5,-355.22 1299.5,-359.06 1295.67,-362.89 1291.83,-362.89"/>
<text text-anchor="middle" x="1252" y="-347.69" font-family="Arial" font-size="14.00" fill="#cfffac">utils/reflect.js</text>
</g>
<!-- utils/index.js&#45;&gt;utils/reflect.js -->
<g id="edge49" class="edge">
<title>utils/index.js&#45;&gt;utils/reflect.js</title>
<path fill="none" stroke="#757575" d="M1096.55,-382.51C1125.41,-376.7 1163.4,-369.04 1194.48,-362.78"/>
<polygon fill="#757575" stroke="#757575" points="1195.19,-366.21 1204.3,-360.8 1193.81,-359.34 1195.19,-366.21"/>
</g>
<!-- cluster/common/cluster.utils.js -->
<g id="node11" class="node">
<title>cluster/common/cluster.utils.js</title>
<path fill="none" stroke="#c6c5fe" d="M910.83,-636.89C910.83,-636.89 729.17,-636.89 729.17,-636.89 725.33,-636.89 721.5,-633.06 721.5,-629.22 721.5,-629.22 721.5,-621.56 721.5,-621.56 721.5,-617.72 725.33,-613.89 729.17,-613.89 729.17,-613.89 910.83,-613.89 910.83,-613.89 914.67,-613.89 918.5,-617.72 918.5,-621.56 918.5,-621.56 918.5,-629.22 918.5,-629.22 918.5,-633.06 914.67,-636.89 910.83,-636.89"/>
<text text-anchor="middle" x="820" y="-621.69" font-family="Arial" font-size="14.00" fill="#c6c5fe">cluster/common/cluster.utils.js</text>
</g>
<!-- cluster/common/index.js&#45;&gt;cluster/common/cluster.utils.js -->
<g id="edge19" class="edge">
<title>cluster/common/index.js&#45;&gt;cluster/common/cluster.utils.js</title>
<path fill="none" stroke="#757575" d="M652.72,-653.87C680.56,-649.11 713.02,-643.55 741.82,-638.61"/>
<polygon fill="#757575" stroke="#757575" points="742.58,-642.03 751.85,-636.89 741.4,-635.13 742.58,-642.03"/>
</g>
<!-- cluster/common/cluster.utils.js&#45;&gt;cluster/cluster&#45;logger.js -->
<g id="edge15" class="edge">
<title>cluster/common/cluster.utils.js&#45;&gt;cluster/cluster&#45;logger.js</title>
<path fill="none" stroke="#757575" d="M887.07,-636.91C914.44,-641.68 946.33,-647.23 974.64,-652.17"/>
<polygon fill="#757575" stroke="#757575" points="974.04,-655.62 984.5,-653.89 975.25,-648.72 974.04,-655.62"/>
</g>
<!-- cluster/common/cluster.utils.js&#45;&gt;cluster/cluster.constants.js -->
<g id="edge16" class="edge">
<title>cluster/common/cluster.utils.js&#45;&gt;cluster/cluster.constants.js</title>
<path fill="none" stroke="#757575" d="M918.56,-625.47C979.53,-627.06 1059.42,-631.95 1129,-645.39 1157.72,-650.94 1189.06,-661.31 1212.79,-670.1"/>
<polygon fill="#757575" stroke="#757575" points="1211.86,-673.5 1222.46,-673.76 1214.34,-666.95 1211.86,-673.5"/>
</g>
<!-- cluster/common/cluster.utils.js&#45;&gt;messages/index.js -->
<g id="edge17" class="edge">
<title>cluster/common/cluster.utils.js&#45;&gt;messages/index.js</title>
<path fill="none" stroke="#757575" d="M887.07,-613.87C915.26,-608.96 948.27,-603.21 977.21,-598.16"/>
<polygon fill="#757575" stroke="#757575" points="978.01,-601.58 987.26,-596.41 976.81,-594.68 978.01,-601.58"/>
</g>
<!-- cluster/common/cluster.utils.js&#45;&gt;utils/index.js -->
<g id="edge18" class="edge">
<title>cluster/common/cluster.utils.js&#45;&gt;utils/index.js</title>
<path fill="none" stroke="#757575" d="M835.66,-613.79C858.44,-595.51 903.33,-558.46 938,-523.39 975.09,-485.88 1014.1,-437.89 1035.04,-411.33"/>
<polygon fill="#757575" stroke="#757575" points="1038,-413.22 1041.41,-403.19 1032.49,-408.9 1038,-413.22"/>
</g>
<!-- index.js -->
<g id="node14" class="node">
<title>index.js</title>
<path fill="none" stroke="#c6c5fe" d="M54.33,-450.89C54.33,-450.89 7.67,-450.89 7.67,-450.89 3.83,-450.89 0,-447.06 0,-443.22 0,-443.22 0,-435.56 0,-435.56 0,-431.72 3.83,-427.89 7.67,-427.89 7.67,-427.89 54.33,-427.89 54.33,-427.89 58.17,-427.89 62,-431.72 62,-435.56 62,-435.56 62,-443.22 62,-443.22 62,-447.06 58.17,-450.89 54.33,-450.89"/>
<text text-anchor="middle" x="31" y="-435.69" font-family="Arial" font-size="14.00" fill="#c6c5fe">index.js</text>
</g>
<!-- index.js&#45;&gt;cluster/cluster.constants.js -->
<g id="edge22" class="edge">
<title>index.js&#45;&gt;cluster/cluster.constants.js</title>
<path fill="none" stroke="#757575" d="M35.92,-451.3C58.08,-516.12 173.97,-823.39 380,-823.39 380,-823.39 380,-823.39 821,-823.39 960.38,-823.39 999.67,-816.34 1129,-764.39 1166.95,-749.14 1205.76,-721.53 1229.12,-703.33"/>
<polygon fill="#757575" stroke="#757575" points="1231.33,-706.04 1236.99,-697.09 1226.98,-700.55 1231.33,-706.04"/>
</g>
<!-- index.js&#45;&gt;cluster/cluster.module.js -->
<g id="edge23" class="edge">
<title>index.js&#45;&gt;cluster/cluster.module.js</title>
<path fill="none" stroke="#757575" d="M47.57,-450.95C72.93,-469.77 123.31,-507.17 153.35,-529.46"/>
<polygon fill="#757575" stroke="#757575" points="151.48,-532.44 161.6,-535.59 155.66,-526.82 151.48,-532.44"/>
</g>
<!-- index.js&#45;&gt;cluster/cluster.service.js -->
<g id="edge24" class="edge">
<title>index.js&#45;&gt;cluster/cluster.service.js</title>
<path fill="none" stroke="#757575" d="M62.27,-442C112.73,-446.35 215.9,-455.24 291.03,-461.72"/>
<polygon fill="#757575" stroke="#757575" points="291.17,-465.25 301.44,-462.62 291.78,-458.27 291.17,-465.25"/>
</g>
<!-- redis/redis.constants.js -->
<g id="node15" class="node">
<title>redis/redis.constants.js</title>
<path fill="none" stroke="#cfffac" d="M1321.33,-109.89C1321.33,-109.89 1182.67,-109.89 1182.67,-109.89 1178.83,-109.89 1175,-106.06 1175,-102.22 1175,-102.22 1175,-94.56 1175,-94.56 1175,-90.72 1178.83,-86.89 1182.67,-86.89 1182.67,-86.89 1321.33,-86.89 1321.33,-86.89 1325.17,-86.89 1329,-90.72 1329,-94.56 1329,-94.56 1329,-102.22 1329,-102.22 1329,-106.06 1325.17,-109.89 1321.33,-109.89"/>
<text text-anchor="middle" x="1252" y="-94.69" font-family="Arial" font-size="14.00" fill="#cfffac">redis/redis.constants.js</text>
</g>
<!-- index.js&#45;&gt;redis/redis.constants.js -->
<g id="edge25" class="edge">
<title>index.js&#45;&gt;redis/redis.constants.js</title>
<path fill="none" stroke="#757575" d="M34.88,-427.65C52.77,-357.83 155.34,-0.39 380,-0.39 380,-0.39 380,-0.39 821,-0.39 958.72,-0.39 997.29,5.85 1129,-34.39 1164.29,-45.17 1201.36,-66.21 1225.24,-81.22"/>
<polygon fill="#757575" stroke="#757575" points="1223.41,-84.2 1233.72,-86.64 1227.18,-78.3 1223.41,-84.2"/>
</g>
<!-- redis/redis.module.js -->
<g id="node16" class="node">
<title>redis/redis.module.js</title>
<path fill="none" stroke="#c6c5fe" d="M241.33,-293.89C241.33,-293.89 115.67,-293.89 115.67,-293.89 111.83,-293.89 108,-290.06 108,-286.22 108,-286.22 108,-278.56 108,-278.56 108,-274.72 111.83,-270.89 115.67,-270.89 115.67,-270.89 241.33,-270.89 241.33,-270.89 245.17,-270.89 249,-274.72 249,-278.56 249,-278.56 249,-286.22 249,-286.22 249,-290.06 245.17,-293.89 241.33,-293.89"/>
<text text-anchor="middle" x="178.5" y="-278.69" font-family="Arial" font-size="14.00" fill="#c6c5fe">redis/redis.module.js</text>
</g>
<!-- index.js&#45;&gt;redis/redis.module.js -->
<g id="edge26" class="edge">
<title>index.js&#45;&gt;redis/redis.module.js</title>
<path fill="none" stroke="#757575" d="M39.03,-427.61C50.23,-409.36 73.38,-373.62 98,-347.39 114.73,-329.57 136.34,-312.19 152.81,-299.9"/>
<polygon fill="#757575" stroke="#757575" points="154.91,-302.7 160.9,-293.95 150.77,-297.06 154.91,-302.7"/>
</g>
<!-- redis/redis.service.js -->
<g id="node17" class="node">
<title>redis/redis.service.js</title>
<path fill="none" stroke="#c6c5fe" d="M442.83,-323.89C442.83,-323.89 319.17,-323.89 319.17,-323.89 315.33,-323.89 311.5,-320.06 311.5,-316.22 311.5,-316.22 311.5,-308.56 311.5,-308.56 311.5,-304.72 315.33,-300.89 319.17,-300.89 319.17,-300.89 442.83,-300.89 442.83,-300.89 446.67,-300.89 450.5,-304.72 450.5,-308.56 450.5,-308.56 450.5,-316.22 450.5,-316.22 450.5,-320.06 446.67,-323.89 442.83,-323.89"/>
<text text-anchor="middle" x="381" y="-308.69" font-family="Arial" font-size="14.00" fill="#c6c5fe">redis/redis.service.js</text>
</g>
<!-- index.js&#45;&gt;redis/redis.service.js -->
<g id="edge27" class="edge">
<title>index.js&#45;&gt;redis/redis.service.js</title>
<path fill="none" stroke="#757575" d="M62.27,-428.34C124.74,-405.55 267.97,-353.27 338.8,-327.43"/>
<polygon fill="#757575" stroke="#757575" points="340.1,-330.68 348.29,-323.96 337.7,-324.1 340.1,-330.68"/>
</g>
<!-- redis/redis.module.js&#45;&gt;errors/index.js -->
<g id="edge34" class="edge">
<title>redis/redis.module.js&#45;&gt;errors/index.js</title>
<path fill="none" stroke="#757575" d="M191.43,-294.18C211.13,-312.89 252.55,-349.02 295,-366.39 369.99,-397.07 463.93,-406.2 523.85,-408.73"/>
<polygon fill="#757575" stroke="#757575" points="523.77,-412.23 533.89,-409.1 524.03,-405.23 523.77,-412.23"/>
</g>
<!-- redis/redis.module.js&#45;&gt;messages/index.js -->
<g id="edge35" class="edge">
<title>redis/redis.module.js&#45;&gt;messages/index.js</title>
<path fill="none" stroke="#757575" d="M199.58,-293.93C222.02,-306.18 259.84,-324.91 295,-333.39 434.14,-366.94 817.74,-292.78 938,-370.39 973.85,-393.53 1023.42,-514.69 1042.53,-564.24"/>
<polygon fill="#757575" stroke="#757575" points="1039.3,-565.57 1046.14,-573.67 1045.84,-563.08 1039.3,-565.57"/>
</g>
<!-- redis/redis.module.js&#45;&gt;utils/index.js -->
<g id="edge40" class="edge">
<title>redis/redis.module.js&#45;&gt;utils/index.js</title>
<path fill="none" stroke="#757575" d="M239.99,-270.86C371.8,-248.46 692.75,-208.77 938,-299.39 978.26,-314.27 1014.69,-349.99 1034.6,-372.29"/>
<polygon fill="#757575" stroke="#757575" points="1031.96,-374.59 1041.17,-379.84 1037.24,-370 1031.96,-374.59"/>
</g>
<!-- redis/redis.module.js&#45;&gt;redis/redis.constants.js -->
<g id="edge37" class="edge">
<title>redis/redis.module.js&#45;&gt;redis/redis.constants.js</title>
<path fill="none" stroke="#757575" d="M182.46,-270.83C192.02,-236.07 225.55,-131.94 295,-84.39 402.13,-11.03 453.66,-38.39 583.5,-38.39 583.5,-38.39 583.5,-38.39 821,-38.39 958.15,-38.39 994.39,-31.1 1129,-57.39 1158.3,-63.11 1190.24,-74.03 1214.09,-83.16"/>
<polygon fill="#757575" stroke="#757575" points="1212.87,-86.44 1223.46,-86.81 1215.41,-79.92 1212.87,-86.44"/>
</g>
<!-- redis/redis.module.js&#45;&gt;redis/redis.service.js -->
<g id="edge39" class="edge">
<title>redis/redis.module.js&#45;&gt;redis/redis.service.js</title>
<path fill="none" stroke="#757575" d="M249.06,-292.8C265.89,-295.32 284,-298.03 301.22,-300.6"/>
<polygon fill="#757575" stroke="#757575" points="300.83,-304.08 311.24,-302.1 301.87,-297.16 300.83,-304.08"/>
</g>
<!-- redis/redis&#45;logger.js -->
<g id="node20" class="node">
<title>redis/redis&#45;logger.js</title>
<path fill="none" stroke="#c6c5fe" d="M1110.83,-89.89C1110.83,-89.89 992.17,-89.89 992.17,-89.89 988.33,-89.89 984.5,-86.06 984.5,-82.22 984.5,-82.22 984.5,-74.56 984.5,-74.56 984.5,-70.72 988.33,-66.89 992.17,-66.89 992.17,-66.89 1110.83,-66.89 1110.83,-66.89 1114.67,-66.89 1118.5,-70.72 1118.5,-74.56 1118.5,-74.56 1118.5,-82.22 1118.5,-82.22 1118.5,-86.06 1114.67,-89.89 1110.83,-89.89"/>
<text text-anchor="middle" x="1051.5" y="-74.69" font-family="Arial" font-size="14.00" fill="#c6c5fe">redis/redis&#45;logger.js</text>
</g>
<!-- redis/redis.module.js&#45;&gt;redis/redis&#45;logger.js -->
<g id="edge36" class="edge">
<title>redis/redis.module.js&#45;&gt;redis/redis&#45;logger.js</title>
<path fill="none" stroke="#757575" d="M186.42,-270.55C202.13,-244.82 243.18,-183.76 295,-154.39 515.49,-29.41 830.92,-49.29 974.32,-66.94"/>
<polygon fill="#757575" stroke="#757575" points="973.99,-70.42 984.35,-68.2 974.86,-63.48 973.99,-70.42"/>
</g>
<!-- redis/redis.providers.js -->
<g id="node22" class="node">
<title>redis/redis.providers.js</title>
<path fill="none" stroke="#c6c5fe" d="M449.33,-186.89C449.33,-186.89 312.67,-186.89 312.67,-186.89 308.83,-186.89 305,-183.06 305,-179.22 305,-179.22 305,-171.56 305,-171.56 305,-167.72 308.83,-163.89 312.67,-163.89 312.67,-163.89 449.33,-163.89 449.33,-163.89 453.17,-163.89 457,-167.72 457,-171.56 457,-171.56 457,-179.22 457,-179.22 457,-183.06 453.17,-186.89 449.33,-186.89"/>
<text text-anchor="middle" x="381" y="-171.69" font-family="Arial" font-size="14.00" fill="#c6c5fe">redis/redis.providers.js</text>
</g>
<!-- redis/redis.module.js&#45;&gt;redis/redis.providers.js -->
<g id="edge38" class="edge">
<title>redis/redis.module.js&#45;&gt;redis/redis.providers.js</title>
<path fill="none" stroke="#757575" d="M201.34,-270.74C237.12,-251.64 308.33,-213.64 349.22,-191.82"/>
<polygon fill="#757575" stroke="#757575" points="351.01,-194.83 358.19,-187.03 347.72,-188.65 351.01,-194.83"/>
</g>
<!-- redis/redis.service.js&#45;&gt;errors/index.js -->
<g id="edge44" class="edge">
<title>redis/redis.service.js&#45;&gt;errors/index.js</title>
<path fill="none" stroke="#757575" d="M405.91,-323.9C441.71,-341.13 509.4,-373.72 550.08,-393.3"/>
<polygon fill="#757575" stroke="#757575" points="548.78,-396.56 559.31,-397.75 551.82,-390.26 548.78,-396.56"/>
</g>
<!-- redis/redis.service.js&#45;&gt;utils/index.js -->
<g id="edge46" class="edge">
<title>redis/redis.service.js&#45;&gt;utils/index.js</title>
<path fill="none" stroke="#757575" d="M450.92,-306.45C557.3,-299.25 767.11,-292.95 938,-336.39 969.16,-344.31 1001.86,-361.43 1023.92,-374.48"/>
<polygon fill="#757575" stroke="#757575" points="1022.32,-377.61 1032.69,-379.79 1025.95,-371.62 1022.32,-377.61"/>
</g>
<!-- redis/redis.service.js&#45;&gt;redis/redis.constants.js -->
<g id="edge45" class="edge">
<title>redis/redis.service.js&#45;&gt;redis/redis.constants.js</title>
<path fill="none" stroke="#757575" d="M450.5,-303.08C555.91,-288.22 763.92,-256.75 938,-217.39 1024.04,-197.93 1047.16,-196.32 1129,-163.39 1162.76,-149.81 1199.33,-129.51 1223.53,-115.22"/>
<polygon fill="#757575" stroke="#757575" points="1225.38,-118.19 1232.17,-110.06 1221.79,-112.18 1225.38,-118.19"/>
</g>
<!-- redis/common/index.js -->
<g id="node18" class="node">
<title>redis/common/index.js</title>
<path fill="none" stroke="#c6c5fe" d="M652.83,-207.89C652.83,-207.89 516.17,-207.89 516.17,-207.89 512.33,-207.89 508.5,-204.06 508.5,-200.22 508.5,-200.22 508.5,-192.56 508.5,-192.56 508.5,-188.72 512.33,-184.89 516.17,-184.89 516.17,-184.89 652.83,-184.89 652.83,-184.89 656.67,-184.89 660.5,-188.72 660.5,-192.56 660.5,-192.56 660.5,-200.22 660.5,-200.22 660.5,-204.06 656.67,-207.89 652.83,-207.89"/>
<text text-anchor="middle" x="584.5" y="-192.69" font-family="Arial" font-size="14.00" fill="#c6c5fe">redis/common/index.js</text>
</g>
<!-- redis/common/redis.utils.js -->
<g id="node19" class="node">
<title>redis/common/redis.utils.js</title>
<path fill="none" stroke="#c6c5fe" d="M900.83,-207.89C900.83,-207.89 739.17,-207.89 739.17,-207.89 735.33,-207.89 731.5,-204.06 731.5,-200.22 731.5,-200.22 731.5,-192.56 731.5,-192.56 731.5,-188.72 735.33,-184.89 739.17,-184.89 739.17,-184.89 900.83,-184.89 900.83,-184.89 904.67,-184.89 908.5,-188.72 908.5,-192.56 908.5,-192.56 908.5,-200.22 908.5,-200.22 908.5,-204.06 904.67,-207.89 900.83,-207.89"/>
<text text-anchor="middle" x="820" y="-192.69" font-family="Arial" font-size="14.00" fill="#c6c5fe">redis/common/redis.utils.js</text>
</g>
<!-- redis/common/index.js&#45;&gt;redis/common/redis.utils.js -->
<g id="edge28" class="edge">
<title>redis/common/index.js&#45;&gt;redis/common/redis.utils.js</title>
<path fill="none" stroke="#757575" d="M660.67,-196.39C679.94,-196.39 700.95,-196.39 721.19,-196.39"/>
<polygon fill="#757575" stroke="#757575" points="721.37,-199.89 731.37,-196.39 721.37,-192.89 721.37,-199.89"/>
</g>
<!-- redis/common/redis.utils.js&#45;&gt;messages/index.js -->
<g id="edge29" class="edge">
<title>redis/common/redis.utils.js&#45;&gt;messages/index.js</title>
<path fill="none" stroke="#757575" d="M832.87,-208.24C855.51,-231.33 905.51,-284.6 938,-336.39 944.58,-346.89 1015.37,-506.14 1041.17,-564.32"/>
<polygon fill="#757575" stroke="#757575" points="1038.05,-565.92 1045.3,-573.65 1044.45,-563.09 1038.05,-565.92"/>
</g>
<!-- redis/common/redis.utils.js&#45;&gt;utils/index.js -->
<g id="edge32" class="edge">
<title>redis/common/redis.utils.js&#45;&gt;utils/index.js</title>
<path fill="none" stroke="#757575" d="M848.73,-208.08C873.58,-219.34 910.3,-237.95 938,-260.39 979.23,-293.79 1017.22,-343.62 1036.75,-371.2"/>
<polygon fill="#757575" stroke="#757575" points="1034.05,-373.45 1042.64,-379.65 1039.79,-369.44 1034.05,-373.45"/>
</g>
<!-- redis/common/redis.utils.js&#45;&gt;redis/redis.constants.js -->
<g id="edge31" class="edge">
<title>redis/common/redis.utils.js&#45;&gt;redis/redis.constants.js</title>
<path fill="none" stroke="#757575" d="M882.63,-184.84C945,-172.86 1044.09,-153.02 1129,-132.39 1153.27,-126.49 1180.03,-119.13 1202.28,-112.77"/>
<polygon fill="#757575" stroke="#757575" points="1203.52,-116.06 1212.16,-109.93 1201.59,-109.33 1203.52,-116.06"/>
</g>
<!-- redis/common/redis.utils.js&#45;&gt;redis/redis&#45;logger.js -->
<g id="edge30" class="edge">
<title>redis/common/redis.utils.js&#45;&gt;redis/redis&#45;logger.js</title>
<path fill="none" stroke="#757575" d="M843.42,-184.86C884.47,-163.76 971.79,-118.86 1018.86,-94.66"/>
<polygon fill="#757575" stroke="#757575" points="1020.69,-97.65 1027.99,-89.97 1017.49,-91.43 1020.69,-97.65"/>
</g>
<!-- redis/redis&#45;logger.js&#45;&gt;redis/redis.constants.js -->
<g id="edge33" class="edge">
<title>redis/redis&#45;logger.js&#45;&gt;redis/redis.constants.js</title>
<path fill="none" stroke="#757575" d="M1118.6,-85.05C1133.4,-86.54 1149.31,-88.14 1164.8,-89.7"/>
<polygon fill="#757575" stroke="#757575" points="1164.59,-93.2 1174.89,-90.72 1165.29,-86.24 1164.59,-93.2"/>
</g>
<!-- redis/default&#45;options.js -->
<g id="node21" class="node">
<title>redis/default&#45;options.js</title>
<path fill="none" stroke="#cfffac" d="M652.83,-166.89C652.83,-166.89 516.17,-166.89 516.17,-166.89 512.33,-166.89 508.5,-163.06 508.5,-159.22 508.5,-159.22 508.5,-151.56 508.5,-151.56 508.5,-147.72 512.33,-143.89 516.17,-143.89 516.17,-143.89 652.83,-143.89 652.83,-143.89 656.67,-143.89 660.5,-147.72 660.5,-151.56 660.5,-151.56 660.5,-159.22 660.5,-159.22 660.5,-163.06 656.67,-166.89 652.83,-166.89"/>
<text text-anchor="middle" x="584.5" y="-151.69" font-family="Arial" font-size="14.00" fill="#cfffac">redis/default&#45;options.js</text>
</g>
<!-- redis/redis.providers.js&#45;&gt;redis/redis.constants.js -->
<g id="edge43" class="edge">
<title>redis/redis.providers.js&#45;&gt;redis/redis.constants.js</title>
<path fill="none" stroke="#757575" d="M408.81,-163.89C432.95,-154.12 469.66,-140.71 503,-134.39 627.47,-110.79 995.95,-102.26 1164.77,-99.53"/>
<polygon fill="#757575" stroke="#757575" points="1164.92,-103.03 1174.86,-99.37 1164.81,-96.03 1164.92,-103.03"/>
</g>
<!-- redis/redis.providers.js&#45;&gt;redis/common/index.js -->
<g id="edge41" class="edge">
<title>redis/redis.providers.js&#45;&gt;redis/common/index.js</title>
<path fill="none" stroke="#757575" d="M457.03,-183.21C470.41,-184.6 484.43,-186.07 498.07,-187.49"/>
<polygon fill="#757575" stroke="#757575" points="498.1,-191.01 508.41,-188.56 498.82,-184.05 498.1,-191.01"/>
</g>
<!-- redis/redis.providers.js&#45;&gt;redis/default&#45;options.js -->
<g id="edge42" class="edge">
<title>redis/redis.providers.js&#45;&gt;redis/default&#45;options.js</title>
<path fill="none" stroke="#757575" d="M457.03,-167.94C470.41,-166.62 484.43,-165.22 498.07,-163.87"/>
<polygon fill="#757575" stroke="#757575" points="498.8,-167.31 508.41,-162.84 498.11,-160.35 498.8,-167.31"/>
</g>
<!-- utils/parsers.js&#45;&gt;utils/is.js -->
<g id="edge50" class="edge">
<title>utils/parsers.js&#45;&gt;utils/is.js</title>
<path fill="none" stroke="#757575" d="M1303.75,-424.84C1323.42,-422.3 1345.71,-419.43 1364.61,-416.99"/>
<polygon fill="#757575" stroke="#757575" points="1365.25,-420.43 1374.72,-415.68 1364.36,-413.49 1365.25,-420.43"/>
</g>
</g>
</svg>
