<?xml version="1.0" encoding="UTF-8" standalone="no"?>
<!DOCTYPE svg PUBLIC "-//W3C//DTD SVG 1.1//EN"
 "http://www.w3.org/Graphics/SVG/1.1/DTD/svg11.dtd">
<!-- Generated by graphviz version 2.43.0 (0)
 -->
<!-- Title: G Pages: 1 -->
<svg width="1569pt" height="875pt"
 viewBox="0.00 0.00 1569.20 875.01" xmlns="http://www.w3.org/2000/svg" xmlns:xlink="http://www.w3.org/1999/xlink">
<g id="graph0" class="graph" transform="scale(1 1) rotate(0) translate(21.6 853.41)">
<title>G</title>
<polygon fill="#111111" stroke="transparent" points="-21.6,21.6 -21.6,-853.41 1547.6,-853.41 1547.6,21.6 -21.6,21.6"/>
<!-- cluster/cluster&#45;logger.js -->
<g id="node1" class="node">
<title>cluster/cluster&#45;logger.js</title>
<path fill="none" stroke="#c6c5fe" d="M1163.83,-601.51C1163.83,-601.51 1024.17,-601.51 1024.17,-601.51 1020.33,-601.51 1016.5,-597.67 1016.5,-593.84 1016.5,-593.84 1016.5,-586.17 1016.5,-586.17 1016.5,-582.34 1020.33,-578.51 1024.17,-578.51 1024.17,-578.51 1163.83,-578.51 1163.83,-578.51 1167.67,-578.51 1171.5,-582.34 1171.5,-586.17 1171.5,-586.17 1171.5,-593.84 1171.5,-593.84 1171.5,-597.67 1167.67,-601.51 1163.83,-601.51"/>
<text text-anchor="middle" x="1094" y="-586.31" font-family="Arial" font-size="14.00" fill="#c6c5fe">cluster/cluster&#45;logger.js</text>
</g>
<!-- cluster/cluster.constants.js -->
<g id="node2" class="node">
<title>cluster/cluster.constants.js</title>
<path fill="none" stroke="#cfffac" d="M1414.33,-723.51C1414.33,-723.51 1255.67,-723.51 1255.67,-723.51 1251.83,-723.51 1248,-719.67 1248,-715.84 1248,-715.84 1248,-708.17 1248,-708.17 1248,-704.34 1251.83,-700.51 1255.67,-700.51 1255.67,-700.51 1414.33,-700.51 1414.33,-700.51 1418.17,-700.51 1422,-704.34 1422,-708.17 1422,-708.17 1422,-715.84 1422,-715.84 1422,-719.67 1418.17,-723.51 1414.33,-723.51"/>
<text text-anchor="middle" x="1335" y="-708.31" font-family="Arial" font-size="14.00" fill="#cfffac">cluster/cluster.constants.js</text>
</g>
<!-- cluster/cluster&#45;logger.js&#45;&gt;cluster/cluster.constants.js -->
<g id="edge1" class="edge">
<title>cluster/cluster&#45;logger.js&#45;&gt;cluster/cluster.constants.js</title>
<path fill="none" stroke="#757575" d="M1171.66,-597.15C1185.48,-600.09 1199.47,-604.22 1212,-610.01 1255.04,-629.9 1295.24,-669.01 1317.04,-692.6"/>
<polygon fill="#757575" stroke="#757575" points="1314.65,-695.18 1323.96,-700.24 1319.84,-690.48 1314.65,-695.18"/>
</g>
<!-- cluster/cluster&#45;manager.js -->
<g id="node3" class="node">
<title>cluster/cluster&#45;manager.js</title>
<path fill="none" stroke="#c6c5fe" d="M666.33,-721.51C666.33,-721.51 510.67,-721.51 510.67,-721.51 506.83,-721.51 503,-717.67 503,-713.84 503,-713.84 503,-706.17 503,-706.17 503,-702.34 506.83,-698.51 510.67,-698.51 510.67,-698.51 666.33,-698.51 666.33,-698.51 670.17,-698.51 674,-702.34 674,-706.17 674,-706.17 674,-713.84 674,-713.84 674,-717.67 670.17,-721.51 666.33,-721.51"/>
<text text-anchor="middle" x="588.5" y="-706.31" font-family="Arial" font-size="14.00" fill="#c6c5fe">cluster/cluster&#45;manager.js</text>
</g>
<!-- cluster/cluster&#45;manager.js&#45;&gt;cluster/cluster.constants.js -->
<g id="edge2" class="edge">
<title>cluster/cluster&#45;manager.js&#45;&gt;cluster/cluster.constants.js</title>
<path fill="none" stroke="#757575" d="M674.18,-710.24C813.66,-710.61 1090.85,-711.36 1237.63,-711.75"/>
<polygon fill="#757575" stroke="#757575" points="1237.96,-715.25 1247.97,-711.78 1237.98,-708.25 1237.96,-715.25"/>
</g>
<!-- errors/index.js -->
<g id="node4" class="node">
<title>errors/index.js</title>
<path fill="none" stroke="#c6c5fe" d="M867.83,-643.51C867.83,-643.51 782.17,-643.51 782.17,-643.51 778.33,-643.51 774.5,-639.67 774.5,-635.84 774.5,-635.84 774.5,-628.17 774.5,-628.17 774.5,-624.34 778.33,-620.51 782.17,-620.51 782.17,-620.51 867.83,-620.51 867.83,-620.51 871.67,-620.51 875.5,-624.34 875.5,-628.17 875.5,-628.17 875.5,-635.84 875.5,-635.84 875.5,-639.67 871.67,-643.51 867.83,-643.51"/>
<text text-anchor="middle" x="825" y="-628.31" font-family="Arial" font-size="14.00" fill="#c6c5fe">errors/index.js</text>
</g>
<!-- cluster/cluster&#45;manager.js&#45;&gt;errors/index.js -->
<g id="edge3" class="edge">
<title>cluster/cluster&#45;manager.js&#45;&gt;errors/index.js</title>
<path fill="none" stroke="#757575" d="M649.76,-698.48C658.11,-695.9 666.42,-692.77 674,-689.01 692.4,-679.87 691.59,-669.12 710,-660.01 726.88,-651.66 746.42,-645.69 764.51,-641.47"/>
<polygon fill="#757575" stroke="#757575" points="765.36,-644.86 774.38,-639.3 763.86,-638.03 765.36,-644.86"/>
</g>
<!-- utils/index.js -->
<g id="node5" class="node">
<title>utils/index.js</title>
<path fill="none" stroke="#c6c5fe" d="M1131.33,-483.51C1131.33,-483.51 1056.67,-483.51 1056.67,-483.51 1052.83,-483.51 1049,-479.67 1049,-475.84 1049,-475.84 1049,-468.17 1049,-468.17 1049,-464.34 1052.83,-460.51 1056.67,-460.51 1056.67,-460.51 1131.33,-460.51 1131.33,-460.51 1135.17,-460.51 1139,-464.34 1139,-468.17 1139,-468.17 1139,-475.84 1139,-475.84 1139,-479.67 1135.17,-483.51 1131.33,-483.51"/>
<text text-anchor="middle" x="1094" y="-468.31" font-family="Arial" font-size="14.00" fill="#c6c5fe">utils/index.js</text>
</g>
<!-- cluster/cluster&#45;manager.js&#45;&gt;utils/index.js -->
<g id="edge4" class="edge">
<title>cluster/cluster&#45;manager.js&#45;&gt;utils/index.js</title>
<path fill="none" stroke="#757575" d="M674.17,-700.28C771.12,-688.48 919.31,-668.16 940,-652.01 971.7,-627.27 951.86,-601.17 976,-569.01 1000.94,-535.79 1039.45,-506.74 1065.41,-489.3"/>
<polygon fill="#757575" stroke="#757575" points="1067.6,-492.05 1074.03,-483.63 1063.75,-486.2 1067.6,-492.05"/>
</g>
<!-- errors/client&#45;not&#45;found.error.js -->
<g id="node14" class="node">
<title>errors/client&#45;not&#45;found.error.js</title>
<path fill="none" stroke="#cfffac" d="M1183.33,-642.51C1183.33,-642.51 1004.67,-642.51 1004.67,-642.51 1000.83,-642.51 997,-638.67 997,-634.84 997,-634.84 997,-627.17 997,-627.17 997,-623.34 1000.83,-619.51 1004.67,-619.51 1004.67,-619.51 1183.33,-619.51 1183.33,-619.51 1187.17,-619.51 1191,-623.34 1191,-627.17 1191,-627.17 1191,-634.84 1191,-634.84 1191,-638.67 1187.17,-642.51 1183.33,-642.51"/>
<text text-anchor="middle" x="1094" y="-627.31" font-family="Arial" font-size="14.00" fill="#cfffac">errors/client&#45;not&#45;found.error.js</text>
</g>
<!-- errors/index.js&#45;&gt;errors/client&#45;not&#45;found.error.js -->
<g id="edge26" class="edge">
<title>errors/index.js&#45;&gt;errors/client&#45;not&#45;found.error.js</title>
<path fill="none" stroke="#757575" d="M875.59,-631.82C906.81,-631.71 948.32,-631.55 986.7,-631.41"/>
<polygon fill="#757575" stroke="#757575" points="986.92,-634.91 996.91,-631.37 986.9,-627.91 986.92,-634.91"/>
</g>
<!-- errors/missing&#45;configurations.error.js -->
<g id="node15" class="node">
<title>errors/missing&#45;configurations.error.js</title>
<path fill="none" stroke="#cfffac" d="M1204.33,-683.51C1204.33,-683.51 983.67,-683.51 983.67,-683.51 979.83,-683.51 976,-679.67 976,-675.84 976,-675.84 976,-668.17 976,-668.17 976,-664.34 979.83,-660.51 983.67,-660.51 983.67,-660.51 1204.33,-660.51 1204.33,-660.51 1208.17,-660.51 1212,-664.34 1212,-668.17 1212,-668.17 1212,-675.84 1212,-675.84 1212,-679.67 1208.17,-683.51 1204.33,-683.51"/>
<text text-anchor="middle" x="1094" y="-668.31" font-family="Arial" font-size="14.00" fill="#cfffac">errors/missing&#45;configurations.error.js</text>
</g>
<!-- errors/index.js&#45;&gt;errors/missing&#45;configurations.error.js -->
<g id="edge27" class="edge">
<title>errors/index.js&#45;&gt;errors/missing&#45;configurations.error.js</title>
<path fill="none" stroke="#757575" d="M875.59,-639.44C912.18,-644.92 962.91,-652.52 1006.16,-659"/>
<polygon fill="#757575" stroke="#757575" points="1005.71,-662.47 1016.12,-660.49 1006.75,-655.55 1005.71,-662.47"/>
</g>
<!-- utils/is.js -->
<g id="node26" class="node">
<title>utils/is.js</title>
<path fill="none" stroke="#cfffac" d="M1518.33,-483.51C1518.33,-483.51 1465.67,-483.51 1465.67,-483.51 1461.83,-483.51 1458,-479.67 1458,-475.84 1458,-475.84 1458,-468.17 1458,-468.17 1458,-464.34 1461.83,-460.51 1465.67,-460.51 1465.67,-460.51 1518.33,-460.51 1518.33,-460.51 1522.17,-460.51 1526,-464.34 1526,-468.17 1526,-468.17 1526,-475.84 1526,-475.84 1526,-479.67 1522.17,-483.51 1518.33,-483.51"/>
<text text-anchor="middle" x="1492" y="-468.31" font-family="Arial" font-size="14.00" fill="#cfffac">utils/is.js</text>
</g>
<!-- utils/index.js&#45;&gt;utils/is.js -->
<g id="edge61" class="edge">
<title>utils/index.js&#45;&gt;utils/is.js</title>
<path fill="none" stroke="#757575" d="M1139.27,-472.01C1215.8,-472.01 1371.88,-472.01 1447.71,-472.01"/>
<polygon fill="#757575" stroke="#757575" points="1447.86,-475.51 1457.86,-472.01 1447.86,-468.51 1447.86,-475.51"/>
</g>
<!-- utils/parsers.js -->
<g id="node27" class="node">
<title>utils/parsers.js</title>
<path fill="none" stroke="#c6c5fe" d="M1378.83,-463.51C1378.83,-463.51 1291.17,-463.51 1291.17,-463.51 1287.33,-463.51 1283.5,-459.67 1283.5,-455.84 1283.5,-455.84 1283.5,-448.17 1283.5,-448.17 1283.5,-444.34 1287.33,-440.51 1291.17,-440.51 1291.17,-440.51 1378.83,-440.51 1378.83,-440.51 1382.67,-440.51 1386.5,-444.34 1386.5,-448.17 1386.5,-448.17 1386.5,-455.84 1386.5,-455.84 1386.5,-459.67 1382.67,-463.51 1378.83,-463.51"/>
<text text-anchor="middle" x="1335" y="-448.31" font-family="Arial" font-size="14.00" fill="#c6c5fe">utils/parsers.js</text>
</g>
<!-- utils/index.js&#45;&gt;utils/parsers.js -->
<g id="edge62" class="edge">
<title>utils/index.js&#45;&gt;utils/parsers.js</title>
<path fill="none" stroke="#757575" d="M1139.11,-468.32C1176.75,-465.17 1231.23,-460.61 1273.03,-457.11"/>
<polygon fill="#757575" stroke="#757575" points="1273.42,-460.59 1283.1,-456.27 1272.84,-453.61 1273.42,-460.59"/>
</g>
<!-- cluster/cluster.module.js -->
<g id="node6" class="node">
<title>cluster/cluster.module.js</title>
<path fill="none" stroke="#c6c5fe" d="M251.33,-602.51C251.33,-602.51 105.67,-602.51 105.67,-602.51 101.83,-602.51 98,-598.67 98,-594.84 98,-594.84 98,-587.17 98,-587.17 98,-583.34 101.83,-579.51 105.67,-579.51 105.67,-579.51 251.33,-579.51 251.33,-579.51 255.17,-579.51 259,-583.34 259,-587.17 259,-587.17 259,-594.84 259,-594.84 259,-598.67 255.17,-602.51 251.33,-602.51"/>
<text text-anchor="middle" x="178.5" y="-587.31" font-family="Arial" font-size="14.00" fill="#c6c5fe">cluster/cluster.module.js</text>
</g>
<!-- cluster/cluster.module.js&#45;&gt;cluster/cluster&#45;logger.js -->
<g id="edge5" class="edge">
<title>cluster/cluster.module.js&#45;&gt;cluster/cluster&#45;logger.js</title>
<path fill="none" stroke="#757575" d="M259.37,-590.92C430.16,-590.73 829.68,-590.3 1006.35,-590.1"/>
<polygon fill="#757575" stroke="#757575" points="1006.39,-593.6 1016.39,-590.09 1006.38,-586.6 1006.39,-593.6"/>
</g>
<!-- cluster/cluster.module.js&#45;&gt;cluster/cluster.constants.js -->
<g id="edge7" class="edge">
<title>cluster/cluster.module.js&#45;&gt;cluster/cluster.constants.js</title>
<path fill="none" stroke="#757575" d="M186.44,-602.78C202.18,-628.34 243.28,-688.98 295,-718.01 377.09,-764.08 409.7,-745.47 503,-758.01 815.31,-799.97 904.13,-828.19 1212,-761.01 1244.09,-754.01 1278.65,-739.39 1302.77,-727.94"/>
<polygon fill="#757575" stroke="#757575" points="1304.31,-731.08 1311.79,-723.57 1301.26,-724.78 1304.31,-731.08"/>
</g>
<!-- cluster/cluster.module.js&#45;&gt;cluster/cluster&#45;manager.js -->
<g id="edge6" class="edge">
<title>cluster/cluster.module.js&#45;&gt;cluster/cluster&#45;manager.js</title>
<path fill="none" stroke="#757575" d="M188.78,-602.74C206.66,-624.34 248.26,-669.92 295,-689.01 357.49,-714.52 433.71,-719.24 492.67,-717.86"/>
<polygon fill="#757575" stroke="#757575" points="492.83,-721.36 502.72,-717.57 492.63,-714.36 492.83,-721.36"/>
</g>
<!-- cluster/cluster.module.js&#45;&gt;errors/index.js -->
<g id="edge10" class="edge">
<title>cluster/cluster.module.js&#45;&gt;errors/index.js</title>
<path fill="none" stroke="#757575" d="M259.27,-601.41C271.23,-602.76 283.43,-604.01 295,-605.01 464.9,-619.62 666.23,-627.23 764.31,-630.32"/>
<polygon fill="#757575" stroke="#757575" points="764.22,-633.82 774.33,-630.63 764.44,-626.82 764.22,-633.82"/>
</g>
<!-- cluster/cluster.module.js&#45;&gt;utils/index.js -->
<g id="edge12" class="edge">
<title>cluster/cluster.module.js&#45;&gt;utils/index.js</title>
<path fill="none" stroke="#757575" d="M197.96,-579.3C220.17,-565.74 258.96,-543.63 295,-531.01 560.84,-437.91 906.17,-455.27 1038.3,-466.52"/>
<polygon fill="#757575" stroke="#757575" points="1038.3,-470.03 1048.57,-467.42 1038.91,-463.06 1038.3,-470.03"/>
</g>
<!-- cluster/cluster.providers.js -->
<g id="node7" class="node">
<title>cluster/cluster.providers.js</title>
<path fill="none" stroke="#c6c5fe" d="M459.33,-680.51C459.33,-680.51 302.67,-680.51 302.67,-680.51 298.83,-680.51 295,-676.67 295,-672.84 295,-672.84 295,-665.17 295,-665.17 295,-661.34 298.83,-657.51 302.67,-657.51 302.67,-657.51 459.33,-657.51 459.33,-657.51 463.17,-657.51 467,-661.34 467,-665.17 467,-665.17 467,-672.84 467,-672.84 467,-676.67 463.17,-680.51 459.33,-680.51"/>
<text text-anchor="middle" x="381" y="-665.31" font-family="Arial" font-size="14.00" fill="#c6c5fe">cluster/cluster.providers.js</text>
</g>
<!-- cluster/cluster.module.js&#45;&gt;cluster/cluster.providers.js -->
<g id="edge8" class="edge">
<title>cluster/cluster.module.js&#45;&gt;cluster/cluster.providers.js</title>
<path fill="none" stroke="#757575" d="M203.02,-602.65C226.11,-613.83 262.48,-630.77 295,-643.01 305.84,-647.09 317.62,-651.01 328.87,-654.51"/>
<polygon fill="#757575" stroke="#757575" points="327.99,-657.9 338.58,-657.48 330.04,-651.21 327.99,-657.9"/>
</g>
<!-- cluster/common/index.js -->
<g id="node8" class="node">
<title>cluster/common/index.js</title>
<path fill="none" stroke="#c6c5fe" d="M662.33,-522.51C662.33,-522.51 514.67,-522.51 514.67,-522.51 510.83,-522.51 507,-518.67 507,-514.84 507,-514.84 507,-507.17 507,-507.17 507,-503.34 510.83,-499.51 514.67,-499.51 514.67,-499.51 662.33,-499.51 662.33,-499.51 666.17,-499.51 670,-503.34 670,-507.17 670,-507.17 670,-514.84 670,-514.84 670,-518.67 666.17,-522.51 662.33,-522.51"/>
<text text-anchor="middle" x="588.5" y="-507.31" font-family="Arial" font-size="14.00" fill="#c6c5fe">cluster/common/index.js</text>
</g>
<!-- cluster/cluster.module.js&#45;&gt;cluster/common/index.js -->
<g id="edge9" class="edge">
<title>cluster/cluster.module.js&#45;&gt;cluster/common/index.js</title>
<path fill="none" stroke="#757575" d="M238.39,-579.46C312.67,-564.9 440.17,-539.9 518.81,-524.48"/>
<polygon fill="#757575" stroke="#757575" points="519.49,-527.91 528.63,-522.55 518.14,-521.04 519.49,-527.91"/>
</g>
<!-- messages/index.js -->
<g id="node9" class="node">
<title>messages/index.js</title>
<path fill="none" stroke="#cfffac" d="M1150.33,-250.51C1150.33,-250.51 1037.67,-250.51 1037.67,-250.51 1033.83,-250.51 1030,-246.67 1030,-242.84 1030,-242.84 1030,-235.17 1030,-235.17 1030,-231.34 1033.83,-227.51 1037.67,-227.51 1037.67,-227.51 1150.33,-227.51 1150.33,-227.51 1154.17,-227.51 1158,-231.34 1158,-235.17 1158,-235.17 1158,-242.84 1158,-242.84 1158,-246.67 1154.17,-250.51 1150.33,-250.51"/>
<text text-anchor="middle" x="1094" y="-235.31" font-family="Arial" font-size="14.00" fill="#cfffac">messages/index.js</text>
</g>
<!-- cluster/cluster.module.js&#45;&gt;messages/index.js -->
<g id="edge11" class="edge">
<title>cluster/cluster.module.js&#45;&gt;messages/index.js</title>
<path fill="none" stroke="#757575" d="M181.75,-579.47C192.46,-525.88 240.01,-302.19 295,-262.01 352.56,-219.95 833,-230.64 1019.45,-236.46"/>
<polygon fill="#757575" stroke="#757575" points="1019.59,-239.96 1029.7,-236.78 1019.82,-232.97 1019.59,-239.96"/>
</g>
<!-- cluster/cluster.providers.js&#45;&gt;cluster/cluster.constants.js -->
<g id="edge14" class="edge">
<title>cluster/cluster.providers.js&#45;&gt;cluster/cluster.constants.js</title>
<path fill="none" stroke="#757575" d="M398.65,-680.6C421.11,-695.48 462.95,-720.48 503,-730.01 778.23,-795.46 1119.26,-750.11 1263.9,-725.28"/>
<polygon fill="#757575" stroke="#757575" points="1264.72,-728.69 1273.97,-723.53 1263.52,-721.79 1264.72,-728.69"/>
</g>
<!-- cluster/cluster.providers.js&#45;&gt;cluster/cluster&#45;manager.js -->
<g id="edge13" class="edge">
<title>cluster/cluster.providers.js&#45;&gt;cluster/cluster&#45;manager.js</title>
<path fill="none" stroke="#757575" d="M439.79,-680.54C464.63,-685.49 493.83,-691.32 519.69,-696.48"/>
<polygon fill="#757575" stroke="#757575" points="519.3,-699.97 529.79,-698.49 520.67,-693.1 519.3,-699.97"/>
</g>
<!-- cluster/cluster.providers.js&#45;&gt;cluster/common/index.js -->
<g id="edge15" class="edge">
<title>cluster/cluster.providers.js&#45;&gt;cluster/common/index.js</title>
<path fill="none" stroke="#757575" d="M397.11,-657.39C432.66,-630.05 521.8,-561.52 564.28,-528.86"/>
<polygon fill="#757575" stroke="#757575" points="566.57,-531.51 572.37,-522.64 562.31,-525.96 566.57,-531.51"/>
</g>
<!-- cluster/default&#45;options.js -->
<g id="node10" class="node">
<title>cluster/default&#45;options.js</title>
<path fill="none" stroke="#cfffac" d="M661.83,-680.51C661.83,-680.51 515.17,-680.51 515.17,-680.51 511.33,-680.51 507.5,-676.67 507.5,-672.84 507.5,-672.84 507.5,-665.17 507.5,-665.17 507.5,-661.34 511.33,-657.51 515.17,-657.51 515.17,-657.51 661.83,-657.51 661.83,-657.51 665.67,-657.51 669.5,-661.34 669.5,-665.17 669.5,-665.17 669.5,-672.84 669.5,-672.84 669.5,-676.67 665.67,-680.51 661.83,-680.51"/>
<text text-anchor="middle" x="588.5" y="-665.31" font-family="Arial" font-size="14.00" fill="#cfffac">cluster/default&#45;options.js</text>
</g>
<!-- cluster/cluster.providers.js&#45;&gt;cluster/default&#45;options.js -->
<g id="edge16" class="edge">
<title>cluster/cluster.providers.js&#45;&gt;cluster/default&#45;options.js</title>
<path fill="none" stroke="#757575" d="M467.07,-669.01C477.09,-669.01 487.34,-669.01 497.43,-669.01"/>
<polygon fill="#757575" stroke="#757575" points="497.44,-672.51 507.44,-669.01 497.44,-665.51 497.44,-672.51"/>
</g>
<!-- cluster/common/cluster.decorator.js -->
<g id="node11" class="node">
<title>cluster/common/cluster.decorator.js</title>
<path fill="none" stroke="#c6c5fe" d="M932.33,-563.51C932.33,-563.51 717.67,-563.51 717.67,-563.51 713.83,-563.51 710,-559.67 710,-555.84 710,-555.84 710,-548.17 710,-548.17 710,-544.34 713.83,-540.51 717.67,-540.51 717.67,-540.51 932.33,-540.51 932.33,-540.51 936.17,-540.51 940,-544.34 940,-548.17 940,-548.17 940,-555.84 940,-555.84 940,-559.67 936.17,-563.51 932.33,-563.51"/>
<text text-anchor="middle" x="825" y="-548.31" font-family="Arial" font-size="14.00" fill="#c6c5fe">cluster/common/cluster.decorator.js</text>
</g>
<!-- cluster/common/index.js&#45;&gt;cluster/common/cluster.decorator.js -->
<g id="edge24" class="edge">
<title>cluster/common/index.js&#45;&gt;cluster/common/cluster.decorator.js</title>
<path fill="none" stroke="#757575" d="M655.45,-522.54C684.29,-527.58 718.3,-533.53 748.18,-538.75"/>
<polygon fill="#757575" stroke="#757575" points="747.69,-542.22 758.14,-540.49 748.9,-535.32 747.69,-542.22"/>
</g>
<!-- cluster/common/cluster.utils.js -->
<g id="node12" class="node">
<title>cluster/common/cluster.utils.js</title>
<path fill="none" stroke="#c6c5fe" d="M915.83,-522.51C915.83,-522.51 734.17,-522.51 734.17,-522.51 730.33,-522.51 726.5,-518.67 726.5,-514.84 726.5,-514.84 726.5,-507.17 726.5,-507.17 726.5,-503.34 730.33,-499.51 734.17,-499.51 734.17,-499.51 915.83,-499.51 915.83,-499.51 919.67,-499.51 923.5,-503.34 923.5,-507.17 923.5,-507.17 923.5,-514.84 923.5,-514.84 923.5,-518.67 919.67,-522.51 915.83,-522.51"/>
<text text-anchor="middle" x="825" y="-507.31" font-family="Arial" font-size="14.00" fill="#c6c5fe">cluster/common/cluster.utils.js</text>
</g>
<!-- cluster/common/index.js&#45;&gt;cluster/common/cluster.utils.js -->
<g id="edge25" class="edge">
<title>cluster/common/index.js&#45;&gt;cluster/common/cluster.utils.js</title>
<path fill="none" stroke="#757575" d="M670.2,-511.01C684.98,-511.01 700.62,-511.01 716.05,-511.01"/>
<polygon fill="#757575" stroke="#757575" points="716.14,-514.51 726.14,-511.01 716.14,-507.51 716.14,-514.51"/>
</g>
<!-- cluster/common/cluster.decorator.js&#45;&gt;cluster/cluster.constants.js -->
<g id="edge17" class="edge">
<title>cluster/common/cluster.decorator.js&#45;&gt;cluster/cluster.constants.js</title>
<path fill="none" stroke="#757575" d="M886.48,-540.46C965.68,-528.41 1106.82,-517.65 1212,-569.01 1266.21,-595.48 1305.75,-658.3 1323.54,-691.16"/>
<polygon fill="#757575" stroke="#757575" points="1320.6,-693.1 1328.35,-700.32 1326.8,-689.84 1320.6,-693.1"/>
</g>
<!-- cluster/common/cluster.decorator.js&#45;&gt;utils/index.js -->
<g id="edge18" class="edge">
<title>cluster/common/cluster.decorator.js&#45;&gt;utils/index.js</title>
<path fill="none" stroke="#757575" d="M899.75,-540.5C913.24,-537.81 927.12,-534.64 940,-531.01 981.53,-519.28 1027.53,-500.76 1058.14,-487.59"/>
<polygon fill="#757575" stroke="#757575" points="1059.73,-490.72 1067.51,-483.52 1056.94,-484.3 1059.73,-490.72"/>
</g>
<!-- cluster/common/cluster.utils.js&#45;&gt;cluster/cluster&#45;logger.js -->
<g id="edge19" class="edge">
<title>cluster/common/cluster.utils.js&#45;&gt;cluster/cluster&#45;logger.js</title>
<path fill="none" stroke="#757575" d="M903.72,-522.55C915.95,-524.97 928.38,-527.78 940,-531.01 981.58,-542.56 1027.57,-561.12 1058.16,-574.33"/>
<polygon fill="#757575" stroke="#757575" points="1056.96,-577.63 1067.53,-578.42 1059.76,-571.21 1056.96,-577.63"/>
</g>
<!-- cluster/common/cluster.utils.js&#45;&gt;cluster/cluster.constants.js -->
<g id="edge20" class="edge">
<title>cluster/common/cluster.utils.js&#45;&gt;cluster/cluster.constants.js</title>
<path fill="none" stroke="#757575" d="M923.88,-505.12C1021.82,-500.97 1164.56,-500.19 1212,-527.01 1276.56,-563.51 1313.07,-649.94 1327.16,-690.41"/>
<polygon fill="#757575" stroke="#757575" points="1323.91,-691.72 1330.41,-700.09 1330.55,-689.49 1323.91,-691.72"/>
</g>
<!-- cluster/common/cluster.utils.js&#45;&gt;utils/index.js -->
<g id="edge23" class="edge">
<title>cluster/common/cluster.utils.js&#45;&gt;utils/index.js</title>
<path fill="none" stroke="#757575" d="M905.03,-499.47C948.08,-493.18 1000.26,-485.56 1038.7,-479.94"/>
<polygon fill="#757575" stroke="#757575" points="1039.28,-483.39 1048.67,-478.48 1038.27,-476.47 1039.28,-483.39"/>
</g>
<!-- cluster/common/cluster.utils.js&#45;&gt;messages/index.js -->
<g id="edge22" class="edge">
<title>cluster/common/cluster.utils.js&#45;&gt;messages/index.js</title>
<path fill="none" stroke="#757575" d="M837.47,-499.32C879.15,-456.86 1022.81,-310.52 1074.38,-257.98"/>
<polygon fill="#757575" stroke="#757575" points="1077.06,-260.24 1081.57,-250.65 1072.07,-255.34 1077.06,-260.24"/>
</g>
<!-- constants/index.js -->
<g id="node13" class="node">
<title>constants/index.js</title>
<path fill="none" stroke="#cfffac" d="M1148.33,-442.51C1148.33,-442.51 1039.67,-442.51 1039.67,-442.51 1035.83,-442.51 1032,-438.67 1032,-434.84 1032,-434.84 1032,-427.17 1032,-427.17 1032,-423.34 1035.83,-419.51 1039.67,-419.51 1039.67,-419.51 1148.33,-419.51 1148.33,-419.51 1152.17,-419.51 1156,-423.34 1156,-427.17 1156,-427.17 1156,-434.84 1156,-434.84 1156,-438.67 1152.17,-442.51 1148.33,-442.51"/>
<text text-anchor="middle" x="1094" y="-427.31" font-family="Arial" font-size="14.00" fill="#cfffac">constants/index.js</text>
</g>
<!-- cluster/common/cluster.utils.js&#45;&gt;constants/index.js -->
<g id="edge21" class="edge">
<title>cluster/common/cluster.utils.js&#45;&gt;constants/index.js</title>
<path fill="none" stroke="#757575" d="M850.13,-499.51C879.32,-486.03 930.24,-463.91 976,-451.01 990.64,-446.88 1006.57,-443.47 1021.82,-440.7"/>
<polygon fill="#757575" stroke="#757575" points="1022.48,-444.14 1031.73,-438.98 1021.28,-437.25 1022.48,-444.14"/>
</g>
<!-- index.js -->
<g id="node16" class="node">
<title>index.js</title>
<path fill="none" stroke="#c6c5fe" d="M54.33,-431.51C54.33,-431.51 7.67,-431.51 7.67,-431.51 3.83,-431.51 0,-427.67 0,-423.84 0,-423.84 0,-416.17 0,-416.17 0,-412.34 3.83,-408.51 7.67,-408.51 7.67,-408.51 54.33,-408.51 54.33,-408.51 58.17,-408.51 62,-412.34 62,-416.17 62,-416.17 62,-423.84 62,-423.84 62,-427.67 58.17,-431.51 54.33,-431.51"/>
<text text-anchor="middle" x="31" y="-416.31" font-family="Arial" font-size="14.00" fill="#c6c5fe">index.js</text>
</g>
<!-- index.js&#45;&gt;cluster/cluster.constants.js -->
<g id="edge29" class="edge">
<title>index.js&#45;&gt;cluster/cluster.constants.js</title>
<path fill="none" stroke="#757575" d="M31.88,-431.54C32.08,-470.17 37.53,-596.94 98,-674.01 185.89,-786.02 237.62,-826.01 380,-826.01 380,-826.01 380,-826.01 826,-826.01 998.14,-826.01 1049.55,-850.97 1212,-794.01 1251.89,-780.02 1291.24,-749.8 1314.05,-730.21"/>
<polygon fill="#757575" stroke="#757575" points="1316.46,-732.75 1321.67,-723.53 1311.84,-727.49 1316.46,-732.75"/>
</g>
<!-- index.js&#45;&gt;cluster/cluster&#45;manager.js -->
<g id="edge28" class="edge">
<title>index.js&#45;&gt;cluster/cluster&#45;manager.js</title>
<path fill="none" stroke="#757575" d="M33.12,-431.76C36.74,-464.04 50.82,-555.33 98,-611.01 162.41,-687.02 198.43,-693.48 295,-718.01 367.96,-736.54 454.45,-730.94 514.37,-722.93"/>
<polygon fill="#757575" stroke="#757575" points="515.07,-726.37 524.5,-721.52 514.11,-719.44 515.07,-726.37"/>
</g>
<!-- index.js&#45;&gt;cluster/cluster.module.js -->
<g id="edge30" class="edge">
<title>index.js&#45;&gt;cluster/cluster.module.js</title>
<path fill="none" stroke="#757575" d="M42,-431.76C66.61,-460.68 130.3,-535.54 160.78,-571.36"/>
<polygon fill="#757575" stroke="#757575" points="158.28,-573.82 167.43,-579.17 163.61,-569.29 158.28,-573.82"/>
</g>
<!-- index.js&#45;&gt;cluster/common/index.js -->
<g id="edge31" class="edge">
<title>index.js&#45;&gt;cluster/common/index.js</title>
<path fill="none" stroke="#757575" d="M62.26,-424.97C145.81,-438.65 381.75,-477.3 507.03,-497.83"/>
<polygon fill="#757575" stroke="#757575" points="506.52,-501.29 516.96,-499.45 507.65,-494.38 506.52,-501.29"/>
</g>
<!-- redis/common/index.js -->
<g id="node17" class="node">
<title>redis/common/index.js</title>
<path fill="none" stroke="#c6c5fe" d="M656.83,-210.51C656.83,-210.51 520.17,-210.51 520.17,-210.51 516.33,-210.51 512.5,-206.67 512.5,-202.84 512.5,-202.84 512.5,-195.17 512.5,-195.17 512.5,-191.34 516.33,-187.51 520.17,-187.51 520.17,-187.51 656.83,-187.51 656.83,-187.51 660.67,-187.51 664.5,-191.34 664.5,-195.17 664.5,-195.17 664.5,-202.84 664.5,-202.84 664.5,-206.67 660.67,-210.51 656.83,-210.51"/>
<text text-anchor="middle" x="588.5" y="-195.31" font-family="Arial" font-size="14.00" fill="#c6c5fe">redis/common/index.js</text>
</g>
<!-- index.js&#45;&gt;redis/common/index.js -->
<g id="edge32" class="edge">
<title>index.js&#45;&gt;redis/common/index.js</title>
<path fill="none" stroke="#757575" d="M33.57,-408.21C38.05,-379.12 53.59,-303.31 98,-262.01 213.82,-154.28 417.14,-169.16 521.54,-185.84"/>
<polygon fill="#757575" stroke="#757575" points="521.2,-189.33 531.63,-187.51 522.34,-182.42 521.2,-189.33"/>
</g>
<!-- redis/redis&#45;manager.js -->
<g id="node18" class="node">
<title>redis/redis&#45;manager.js</title>
<path fill="none" stroke="#c6c5fe" d="M655.83,-411.51C655.83,-411.51 521.17,-411.51 521.17,-411.51 517.33,-411.51 513.5,-407.67 513.5,-403.84 513.5,-403.84 513.5,-396.17 513.5,-396.17 513.5,-392.34 517.33,-388.51 521.17,-388.51 521.17,-388.51 655.83,-388.51 655.83,-388.51 659.67,-388.51 663.5,-392.34 663.5,-396.17 663.5,-396.17 663.5,-403.84 663.5,-403.84 663.5,-407.67 659.67,-411.51 655.83,-411.51"/>
<text text-anchor="middle" x="588.5" y="-396.31" font-family="Arial" font-size="14.00" fill="#c6c5fe">redis/redis&#45;manager.js</text>
</g>
<!-- index.js&#45;&gt;redis/redis&#45;manager.js -->
<g id="edge33" class="edge">
<title>index.js&#45;&gt;redis/redis&#45;manager.js</title>
<path fill="none" stroke="#757575" d="M62.26,-418.92C144.92,-415.94 376.79,-407.59 503.02,-403.05"/>
<polygon fill="#757575" stroke="#757575" points="503.18,-406.55 513.04,-402.69 502.92,-399.55 503.18,-406.55"/>
</g>
<!-- redis/redis.constants.js -->
<g id="node19" class="node">
<title>redis/redis.constants.js</title>
<path fill="none" stroke="#cfffac" d="M1404.33,-210.51C1404.33,-210.51 1265.67,-210.51 1265.67,-210.51 1261.83,-210.51 1258,-206.67 1258,-202.84 1258,-202.84 1258,-195.17 1258,-195.17 1258,-191.34 1261.83,-187.51 1265.67,-187.51 1265.67,-187.51 1404.33,-187.51 1404.33,-187.51 1408.17,-187.51 1412,-191.34 1412,-195.17 1412,-195.17 1412,-202.84 1412,-202.84 1412,-206.67 1408.17,-210.51 1404.33,-210.51"/>
<text text-anchor="middle" x="1335" y="-195.31" font-family="Arial" font-size="14.00" fill="#cfffac">redis/redis.constants.js</text>
</g>
<!-- index.js&#45;&gt;redis/redis.constants.js -->
<g id="edge34" class="edge">
<title>index.js&#45;&gt;redis/redis.constants.js</title>
<path fill="none" stroke="#757575" d="M32.51,-408.48C34.66,-372.03 45.46,-257.28 98,-183.01 183.18,-62.59 232.49,-8.01 380,-8.01 380,-8.01 380,-8.01 826,-8.01 998.82,-8.01 1059.88,27.02 1212,-55.01 1265.06,-83.62 1304.86,-145.47 1323.06,-178.02"/>
<polygon fill="#757575" stroke="#757575" points="1320.15,-180 1328.01,-187.11 1326.3,-176.65 1320.15,-180"/>
</g>
<!-- redis/redis.module.js -->
<g id="node20" class="node">
<title>redis/redis.module.js</title>
<path fill="none" stroke="#c6c5fe" d="M241.33,-294.51C241.33,-294.51 115.67,-294.51 115.67,-294.51 111.83,-294.51 108,-290.67 108,-286.84 108,-286.84 108,-279.17 108,-279.17 108,-275.34 111.83,-271.51 115.67,-271.51 115.67,-271.51 241.33,-271.51 241.33,-271.51 245.17,-271.51 249,-275.34 249,-279.17 249,-279.17 249,-286.84 249,-286.84 249,-290.67 245.17,-294.51 241.33,-294.51"/>
<text text-anchor="middle" x="178.5" y="-279.31" font-family="Arial" font-size="14.00" fill="#c6c5fe">redis/redis.module.js</text>
</g>
<!-- index.js&#45;&gt;redis/redis.module.js -->
<g id="edge35" class="edge">
<title>index.js&#45;&gt;redis/redis.module.js</title>
<path fill="none" stroke="#757575" d="M44.41,-408.33C69.64,-384.57 127.13,-330.43 157.64,-301.71"/>
<polygon fill="#757575" stroke="#757575" points="160.24,-304.06 165.13,-294.66 155.45,-298.97 160.24,-304.06"/>
</g>
<!-- redis/common/redis.decorator.js -->
<g id="node21" class="node">
<title>redis/common/redis.decorator.js</title>
<path fill="none" stroke="#c6c5fe" d="M921.83,-290.51C921.83,-290.51 728.17,-290.51 728.17,-290.51 724.33,-290.51 720.5,-286.67 720.5,-282.84 720.5,-282.84 720.5,-275.17 720.5,-275.17 720.5,-271.34 724.33,-267.51 728.17,-267.51 728.17,-267.51 921.83,-267.51 921.83,-267.51 925.67,-267.51 929.5,-271.34 929.5,-275.17 929.5,-275.17 929.5,-282.84 929.5,-282.84 929.5,-286.67 925.67,-290.51 921.83,-290.51"/>
<text text-anchor="middle" x="825" y="-275.31" font-family="Arial" font-size="14.00" fill="#c6c5fe">redis/common/redis.decorator.js</text>
</g>
<!-- redis/common/index.js&#45;&gt;redis/common/redis.decorator.js -->
<g id="edge36" class="edge">
<title>redis/common/index.js&#45;&gt;redis/common/redis.decorator.js</title>
<path fill="none" stroke="#757575" d="M623.35,-210.56C664.82,-224.71 735.17,-248.7 780.59,-264.2"/>
<polygon fill="#757575" stroke="#757575" points="779.57,-267.55 790.16,-267.46 781.83,-260.92 779.57,-267.55"/>
</g>
<!-- redis/common/redis.utils.js -->
<g id="node22" class="node">
<title>redis/common/redis.utils.js</title>
<path fill="none" stroke="#c6c5fe" d="M905.83,-210.51C905.83,-210.51 744.17,-210.51 744.17,-210.51 740.33,-210.51 736.5,-206.67 736.5,-202.84 736.5,-202.84 736.5,-195.17 736.5,-195.17 736.5,-191.34 740.33,-187.51 744.17,-187.51 744.17,-187.51 905.83,-187.51 905.83,-187.51 909.67,-187.51 913.5,-191.34 913.5,-195.17 913.5,-195.17 913.5,-202.84 913.5,-202.84 913.5,-206.67 909.67,-210.51 905.83,-210.51"/>
<text text-anchor="middle" x="825" y="-195.31" font-family="Arial" font-size="14.00" fill="#c6c5fe">redis/common/redis.utils.js</text>
</g>
<!-- redis/common/index.js&#45;&gt;redis/common/redis.utils.js -->
<g id="edge37" class="edge">
<title>redis/common/index.js&#45;&gt;redis/common/redis.utils.js</title>
<path fill="none" stroke="#757575" d="M664.66,-199.01C684.24,-199.01 705.61,-199.01 726.17,-199.01"/>
<polygon fill="#757575" stroke="#757575" points="726.18,-202.51 736.18,-199.01 726.18,-195.51 726.18,-202.51"/>
</g>
<!-- redis/redis&#45;manager.js&#45;&gt;errors/index.js -->
<g id="edge46" class="edge">
<title>redis/redis&#45;manager.js&#45;&gt;errors/index.js</title>
<path fill="none" stroke="#757575" d="M603.01,-411.66C621.07,-427.8 653.21,-458.53 674,-490.01 695.94,-523.22 682.87,-542.89 710,-572.01 728.83,-592.22 756.02,-606.89 779.12,-616.67"/>
<polygon fill="#757575" stroke="#757575" points="777.82,-619.92 788.4,-620.43 780.45,-613.43 777.82,-619.92"/>
</g>
<!-- redis/redis&#45;manager.js&#45;&gt;utils/index.js -->
<g id="edge48" class="edge">
<title>redis/redis&#45;manager.js&#45;&gt;utils/index.js</title>
<path fill="none" stroke="#757575" d="M663.52,-410.59C765.91,-425.23 948.34,-451.32 1038.91,-464.27"/>
<polygon fill="#757575" stroke="#757575" points="1038.57,-467.76 1048.96,-465.71 1039.56,-460.83 1038.57,-467.76"/>
</g>
<!-- redis/redis&#45;manager.js&#45;&gt;redis/redis.constants.js -->
<g id="edge47" class="edge">
<title>redis/redis&#45;manager.js&#45;&gt;redis/redis.constants.js</title>
<path fill="none" stroke="#757575" d="M663.73,-408.29C785.46,-418.44 1031.96,-424.4 1212,-333.01 1263.13,-307.05 1303.3,-250.13 1322.2,-219.49"/>
<polygon fill="#757575" stroke="#757575" points="1325.42,-220.91 1327.57,-210.54 1319.42,-217.31 1325.42,-220.91"/>
</g>
<!-- redis/redis.module.js&#45;&gt;errors/index.js -->
<g id="edge49" class="edge">
<title>redis/redis.module.js&#45;&gt;errors/index.js</title>
<path fill="none" stroke="#757575" d="M194.01,-294.6C215.82,-311.98 258.41,-345.79 295,-374.01 386.72,-444.74 400.04,-477.97 503,-531.01 589.08,-575.35 698.25,-604.61 764.53,-619.73"/>
<polygon fill="#757575" stroke="#757575" points="763.87,-623.17 774.39,-621.95 765.4,-616.34 763.87,-623.17"/>
</g>
<!-- redis/redis.module.js&#45;&gt;utils/index.js -->
<g id="edge56" class="edge">
<title>redis/redis.module.js&#45;&gt;utils/index.js</title>
<path fill="none" stroke="#757575" d="M246.07,-294.55C262.09,-297.32 279.16,-300.27 295,-303.01 581.64,-352.49 682.63,-278.46 940,-414.01 960.3,-424.7 955.74,-440.24 976,-451.01 995.1,-461.15 1018.17,-466.51 1038.75,-469.3"/>
<polygon fill="#757575" stroke="#757575" points="1038.6,-472.81 1048.95,-470.51 1039.43,-465.86 1038.6,-472.81"/>
</g>
<!-- redis/redis.module.js&#45;&gt;messages/index.js -->
<g id="edge50" class="edge">
<title>redis/redis.module.js&#45;&gt;messages/index.js</title>
<path fill="none" stroke="#757575" d="M190.29,-271.43C209.3,-251.9 250.93,-212.9 295,-196.01 415.28,-149.92 881.7,-166.82 940,-178.01 984.35,-186.52 1032.2,-207.74 1062.36,-222.75"/>
<polygon fill="#757575" stroke="#757575" points="1061,-225.99 1071.5,-227.39 1064.16,-219.74 1061,-225.99"/>
</g>
<!-- redis/redis.module.js&#45;&gt;redis/common/index.js -->
<g id="edge51" class="edge">
<title>redis/redis.module.js&#45;&gt;redis/common/index.js</title>
<path fill="none" stroke="#757575" d="M197.42,-271.3C219.42,-257.59 258.31,-235.44 295,-225.01 363.03,-205.67 443.22,-199.65 502.42,-198.2"/>
<polygon fill="#757575" stroke="#757575" points="502.55,-201.7 512.47,-197.99 502.4,-194.7 502.55,-201.7"/>
</g>
<!-- redis/redis.module.js&#45;&gt;redis/redis&#45;manager.js -->
<g id="edge53" class="edge">
<title>redis/redis.module.js&#45;&gt;redis/redis&#45;manager.js</title>
<path fill="none" stroke="#757575" d="M199.71,-294.71C222.28,-307.31 260.2,-327.14 295,-339.01 363.46,-362.35 444.12,-378.36 503.38,-388.1"/>
<polygon fill="#757575" stroke="#757575" points="503.01,-391.59 513.44,-389.73 504.13,-384.68 503.01,-391.59"/>
</g>
<!-- redis/redis.module.js&#45;&gt;redis/redis.constants.js -->
<g id="edge54" class="edge">
<title>redis/redis.module.js&#45;&gt;redis/redis.constants.js</title>
<path fill="none" stroke="#757575" d="M184.14,-271.08C196.8,-240.17 235.08,-157.03 295,-116.01 405.3,-40.5 453.83,-46.01 587.5,-46.01 587.5,-46.01 587.5,-46.01 826,-46.01 1002.36,-46.01 1046.26,-77.73 1212,-138.01 1245.2,-150.08 1281.14,-168.8 1305.35,-182.32"/>
<polygon fill="#757575" stroke="#757575" points="1303.91,-185.53 1314.34,-187.4 1307.35,-179.43 1303.91,-185.53"/>
</g>
<!-- redis/redis&#45;logger.js -->
<g id="node23" class="node">
<title>redis/redis&#45;logger.js</title>
<path fill="none" stroke="#c6c5fe" d="M1153.33,-170.51C1153.33,-170.51 1034.67,-170.51 1034.67,-170.51 1030.83,-170.51 1027,-166.67 1027,-162.84 1027,-162.84 1027,-155.17 1027,-155.17 1027,-151.34 1030.83,-147.51 1034.67,-147.51 1034.67,-147.51 1153.33,-147.51 1153.33,-147.51 1157.17,-147.51 1161,-151.34 1161,-155.17 1161,-155.17 1161,-162.84 1161,-162.84 1161,-166.67 1157.17,-170.51 1153.33,-170.51"/>
<text text-anchor="middle" x="1094" y="-155.31" font-family="Arial" font-size="14.00" fill="#c6c5fe">redis/redis&#45;logger.js</text>
</g>
<!-- redis/redis.module.js&#45;&gt;redis/redis&#45;logger.js -->
<g id="edge52" class="edge">
<title>redis/redis.module.js&#45;&gt;redis/redis&#45;logger.js</title>
<path fill="none" stroke="#757575" d="M186.64,-271.26C202.48,-246.47 243.3,-189.22 295,-167.01 552.12,-56.54 900.29,-115.41 1035.76,-145.17"/>
<polygon fill="#757575" stroke="#757575" points="1035.39,-148.68 1045.91,-147.44 1036.91,-141.84 1035.39,-148.68"/>
</g>
<!-- redis/redis.providers.js -->
<g id="node25" class="node">
<title>redis/redis.providers.js</title>
<path fill="none" stroke="#c6c5fe" d="M449.33,-294.51C449.33,-294.51 312.67,-294.51 312.67,-294.51 308.83,-294.51 305,-290.67 305,-286.84 305,-286.84 305,-279.17 305,-279.17 305,-275.34 308.83,-271.51 312.67,-271.51 312.67,-271.51 449.33,-271.51 449.33,-271.51 453.17,-271.51 457,-275.34 457,-279.17 457,-279.17 457,-286.84 457,-286.84 457,-290.67 453.17,-294.51 449.33,-294.51"/>
<text text-anchor="middle" x="381" y="-279.31" font-family="Arial" font-size="14.00" fill="#c6c5fe">redis/redis.providers.js</text>
</g>
<!-- redis/redis.module.js&#45;&gt;redis/redis.providers.js -->
<g id="edge55" class="edge">
<title>redis/redis.module.js&#45;&gt;redis/redis.providers.js</title>
<path fill="none" stroke="#757575" d="M249.06,-283.01C263.67,-283.01 279.25,-283.01 294.37,-283.01"/>
<polygon fill="#757575" stroke="#757575" points="294.75,-286.51 304.75,-283.01 294.75,-279.51 294.75,-286.51"/>
</g>
<!-- redis/common/redis.decorator.js&#45;&gt;utils/index.js -->
<g id="edge39" class="edge">
<title>redis/common/redis.decorator.js&#45;&gt;utils/index.js</title>
<path fill="none" stroke="#757575" d="M860.41,-290.57C885.71,-300.71 919.18,-317.81 940,-343.01 972.23,-382.01 937.74,-417.9 976,-451.01 993.11,-465.81 1017.02,-471.79 1038.78,-473.78"/>
<polygon fill="#757575" stroke="#757575" points="1038.7,-477.29 1048.91,-474.45 1039.16,-470.3 1038.7,-477.29"/>
</g>
<!-- redis/common/redis.decorator.js&#45;&gt;redis/redis.constants.js -->
<g id="edge38" class="edge">
<title>redis/common/redis.decorator.js&#45;&gt;redis/redis.constants.js</title>
<path fill="none" stroke="#757575" d="M929.71,-284.85C1008.42,-286.6 1118.64,-283.29 1212,-259.01 1246.89,-249.94 1283.57,-230.33 1307.49,-215.99"/>
<polygon fill="#757575" stroke="#757575" points="1309.6,-218.8 1316.31,-210.6 1305.95,-212.83 1309.6,-218.8"/>
</g>
<!-- redis/common/redis.utils.js&#45;&gt;utils/index.js -->
<g id="edge44" class="edge">
<title>redis/common/redis.utils.js&#45;&gt;utils/index.js</title>
<path fill="none" stroke="#757575" d="M868.26,-210.61C892.92,-219.56 922.53,-234.48 940,-258.01 992.03,-328.06 914.09,-389.52 976,-451.01 992.32,-467.21 1016.6,-473.29 1038.82,-474.99"/>
<polygon fill="#757575" stroke="#757575" points="1038.68,-478.48 1048.84,-475.48 1039.03,-471.49 1038.68,-478.48"/>
</g>
<!-- redis/common/redis.utils.js&#45;&gt;messages/index.js -->
<g id="edge41" class="edge">
<title>redis/common/redis.utils.js&#45;&gt;messages/index.js</title>
<path fill="none" stroke="#757575" d="M902.87,-210.52C939.62,-216.03 983.41,-222.59 1019.69,-228.03"/>
<polygon fill="#757575" stroke="#757575" points="1019.3,-231.51 1029.71,-229.53 1020.34,-224.58 1019.3,-231.51"/>
</g>
<!-- redis/common/redis.utils.js&#45;&gt;constants/index.js -->
<g id="edge40" class="edge">
<title>redis/common/redis.utils.js&#45;&gt;constants/index.js</title>
<path fill="none" stroke="#757575" d="M855.37,-210.61C879.49,-220.96 913.81,-237.59 940,-258.01 999.51,-304.4 1054.2,-376.07 1079.01,-410.79"/>
<polygon fill="#757575" stroke="#757575" points="1076.29,-413.01 1084.92,-419.16 1082.01,-408.97 1076.29,-413.01"/>
</g>
<!-- redis/common/redis.utils.js&#45;&gt;redis/redis.constants.js -->
<g id="edge43" class="edge">
<title>redis/common/redis.utils.js&#45;&gt;redis/redis.constants.js</title>
<path fill="none" stroke="#757575" d="M913.62,-199.01C1007.18,-199.01 1154.52,-199.01 1247.61,-199.01"/>
<polygon fill="#757575" stroke="#757575" points="1247.85,-202.51 1257.85,-199.01 1247.85,-195.51 1247.85,-202.51"/>
</g>
<!-- redis/common/redis.utils.js&#45;&gt;redis/redis&#45;logger.js -->
<g id="edge42" class="edge">
<title>redis/common/redis.utils.js&#45;&gt;redis/redis&#45;logger.js</title>
<path fill="none" stroke="#757575" d="M902.87,-187.49C938.48,-182.16 980.7,-175.83 1016.29,-170.5"/>
<polygon fill="#757575" stroke="#757575" points="1017.26,-173.89 1026.63,-168.95 1016.22,-166.97 1017.26,-173.89"/>
</g>
<!-- redis/redis&#45;logger.js&#45;&gt;redis/redis.constants.js -->
<g id="edge45" class="edge">
<title>redis/redis&#45;logger.js&#45;&gt;redis/redis.constants.js</title>
<path fill="none" stroke="#757575" d="M1161.26,-170.1C1190.3,-174.96 1224.62,-180.7 1254.98,-185.78"/>
<polygon fill="#757575" stroke="#757575" points="1254.67,-189.28 1265.11,-187.48 1255.83,-182.38 1254.67,-189.28"/>
</g>
<!-- redis/default&#45;options.js -->
<g id="node24" class="node">
<title>redis/default&#45;options.js</title>
<path fill="none" stroke="#cfffac" d="M656.83,-290.51C656.83,-290.51 520.17,-290.51 520.17,-290.51 516.33,-290.51 512.5,-286.67 512.5,-282.84 512.5,-282.84 512.5,-275.17 512.5,-275.17 512.5,-271.34 516.33,-267.51 520.17,-267.51 520.17,-267.51 656.83,-267.51 656.83,-267.51 660.67,-267.51 664.5,-271.34 664.5,-275.17 664.5,-275.17 664.5,-282.84 664.5,-282.84 664.5,-286.67 660.67,-290.51 656.83,-290.51"/>
<text text-anchor="middle" x="588.5" y="-275.31" font-family="Arial" font-size="14.00" fill="#cfffac">redis/default&#45;options.js</text>
</g>
<!-- redis/redis.providers.js&#45;&gt;redis/common/index.js -->
<g id="edge57" class="edge">
<title>redis/redis.providers.js&#45;&gt;redis/common/index.js</title>
<path fill="none" stroke="#757575" d="M410.14,-271.5C446.3,-256.73 509.18,-231.02 549.54,-214.52"/>
<polygon fill="#757575" stroke="#757575" points="551.11,-217.67 559.04,-210.64 548.46,-211.19 551.11,-217.67"/>
</g>
<!-- redis/redis.providers.js&#45;&gt;redis/redis&#45;manager.js -->
<g id="edge59" class="edge">
<title>redis/redis.providers.js&#45;&gt;redis/redis&#45;manager.js</title>
<path fill="none" stroke="#757575" d="M402.46,-294.65C439.08,-315.5 515.94,-359.27 558.17,-383.31"/>
<polygon fill="#757575" stroke="#757575" points="556.71,-386.5 567.13,-388.41 560.17,-380.42 556.71,-386.5"/>
</g>
<!-- redis/redis.providers.js&#45;&gt;redis/redis.constants.js -->
<g id="edge60" class="edge">
<title>redis/redis.providers.js&#45;&gt;redis/redis.constants.js</title>
<path fill="none" stroke="#757575" d="M457.04,-294.49C472.22,-296.37 488.09,-298.03 503,-299.01 660.24,-309.36 1063.16,-338.74 1212,-287.01 1253.52,-272.58 1293.19,-239.08 1315.48,-217.82"/>
<polygon fill="#757575" stroke="#757575" points="1318.17,-220.09 1322.88,-210.61 1313.28,-215.08 1318.17,-220.09"/>
</g>
<!-- redis/redis.providers.js&#45;&gt;redis/default&#45;options.js -->
<g id="edge58" class="edge">
<title>redis/redis.providers.js&#45;&gt;redis/default&#45;options.js</title>
<path fill="none" stroke="#757575" d="M457.06,-281.55C471.69,-281.26 487.12,-280.96 502.06,-280.67"/>
<polygon fill="#757575" stroke="#757575" points="502.37,-284.17 512.3,-280.47 502.23,-277.17 502.37,-284.17"/>
</g>
<!-- utils/parsers.js&#45;&gt;utils/is.js -->
<g id="edge63" class="edge">
<title>utils/parsers.js&#45;&gt;utils/is.js</title>
<path fill="none" stroke="#757575" d="M1386.75,-458.56C1406.42,-461.09 1428.71,-463.97 1447.61,-466.41"/>
<polygon fill="#757575" stroke="#757575" points="1447.36,-469.91 1457.72,-467.71 1448.25,-462.96 1447.36,-469.91"/>
</g>
</g>
</svg>
