<?xml version="1.0" encoding="UTF-8" standalone="no"?>
<!DOCTYPE svg PUBLIC "-//W3C//DTD SVG 1.1//EN"
 "http://www.w3.org/Graphics/SVG/1.1/DTD/svg11.dtd">
<!-- Generated by graphviz version 2.43.0 (0)
 -->
<!-- Title: G Pages: 1 -->
<svg width="1426pt" height="574pt"
 viewBox="0.00 0.00 1426.20 574.37" xmlns="http://www.w3.org/2000/svg" xmlns:xlink="http://www.w3.org/1999/xlink">
<g id="graph0" class="graph" transform="scale(1 1) rotate(0) translate(21.6 552.77)">
<title>G</title>
<polygon fill="#111111" stroke="transparent" points="-21.6,21.6 -21.6,-552.77 1404.6,-552.77 1404.6,21.6 -21.6,21.6"/>
<!-- cluster/cluster&#45;core.module.js -->
<g id="node1" class="node">
<title>cluster/cluster&#45;core.module.js</title>
<path fill="none" stroke="#c6c5fe" d="M480.33,-369.97C480.33,-369.97 302.67,-369.97 302.67,-369.97 298.83,-369.97 295,-366.13 295,-362.3 295,-362.3 295,-354.63 295,-354.63 295,-350.8 298.83,-346.97 302.67,-346.97 302.67,-346.97 480.33,-346.97 480.33,-346.97 484.17,-346.97 488,-350.8 488,-354.63 488,-354.63 488,-362.3 488,-362.3 488,-366.13 484.17,-369.97 480.33,-369.97"/>
<text text-anchor="middle" x="391.5" y="-354.77" font-family="Arial" font-size="14.00" fill="#c6c5fe">cluster/cluster&#45;core.module.js</text>
</g>
<!-- cluster/cluster.constants.js -->
<g id="node2" class="node">
<title>cluster/cluster.constants.js</title>
<path fill="none" stroke="#cfffac" d="M1369.33,-409.97C1369.33,-409.97 1210.67,-409.97 1210.67,-409.97 1206.83,-409.97 1203,-406.13 1203,-402.3 1203,-402.3 1203,-394.63 1203,-394.63 1203,-390.8 1206.83,-386.97 1210.67,-386.97 1210.67,-386.97 1369.33,-386.97 1369.33,-386.97 1373.17,-386.97 1377,-390.8 1377,-394.63 1377,-394.63 1377,-402.3 1377,-402.3 1377,-406.13 1373.17,-409.97 1369.33,-409.97"/>
<text text-anchor="middle" x="1290" y="-394.77" font-family="Arial" font-size="14.00" fill="#cfffac">cluster/cluster.constants.js</text>
</g>
<!-- cluster/cluster&#45;core.module.js&#45;&gt;cluster/cluster.constants.js -->
<g id="edge1" class="edge">
<title>cluster/cluster&#45;core.module.js&#45;&gt;cluster/cluster.constants.js</title>
<path fill="none" stroke="#757575" d="M453.83,-370C475.88,-373.69 500.98,-377.35 524,-379.47 763.66,-401.48 1047.2,-401.85 1192.52,-400.19"/>
<polygon fill="#757575" stroke="#757575" points="1192.78,-403.69 1202.74,-400.07 1192.7,-396.69 1192.78,-403.69"/>
</g>
<!-- cluster/cluster.providers.js -->
<g id="node3" class="node">
<title>cluster/cluster.providers.js</title>
<path fill="none" stroke="#c6c5fe" d="M688.33,-369.97C688.33,-369.97 531.67,-369.97 531.67,-369.97 527.83,-369.97 524,-366.13 524,-362.3 524,-362.3 524,-354.63 524,-354.63 524,-350.8 527.83,-346.97 531.67,-346.97 531.67,-346.97 688.33,-346.97 688.33,-346.97 692.17,-346.97 696,-350.8 696,-354.63 696,-354.63 696,-362.3 696,-362.3 696,-366.13 692.17,-369.97 688.33,-369.97"/>
<text text-anchor="middle" x="610" y="-354.77" font-family="Arial" font-size="14.00" fill="#c6c5fe">cluster/cluster.providers.js</text>
</g>
<!-- cluster/cluster&#45;core.module.js&#45;&gt;cluster/cluster.providers.js -->
<g id="edge2" class="edge">
<title>cluster/cluster&#45;core.module.js&#45;&gt;cluster/cluster.providers.js</title>
<path fill="none" stroke="#757575" d="M488.09,-358.47C496.55,-358.47 505.11,-358.47 513.56,-358.47"/>
<polygon fill="#757575" stroke="#757575" points="513.81,-361.97 523.81,-358.47 513.81,-354.97 513.81,-361.97"/>
</g>
<!-- cluster/cluster.service.js -->
<g id="node4" class="node">
<title>cluster/cluster.service.js</title>
<path fill="none" stroke="#c6c5fe" d="M885.33,-293.97C885.33,-293.97 741.67,-293.97 741.67,-293.97 737.83,-293.97 734,-290.13 734,-286.3 734,-286.3 734,-278.63 734,-278.63 734,-274.8 737.83,-270.97 741.67,-270.97 741.67,-270.97 885.33,-270.97 885.33,-270.97 889.17,-270.97 893,-274.8 893,-278.63 893,-278.63 893,-286.3 893,-286.3 893,-290.13 889.17,-293.97 885.33,-293.97"/>
<text text-anchor="middle" x="813.5" y="-278.77" font-family="Arial" font-size="14.00" fill="#c6c5fe">cluster/cluster.service.js</text>
</g>
<!-- cluster/cluster&#45;core.module.js&#45;&gt;cluster/cluster.service.js -->
<g id="edge3" class="edge">
<title>cluster/cluster&#45;core.module.js&#45;&gt;cluster/cluster.service.js</title>
<path fill="none" stroke="#757575" d="M456.29,-346.92C532.21,-333.19 658.75,-310.29 738.79,-295.8"/>
<polygon fill="#757575" stroke="#757575" points="739.58,-299.22 748.8,-293.99 738.34,-292.33 739.58,-299.22"/>
</g>
<!-- cluster/common/index.js -->
<g id="node5" class="node">
<title>cluster/common/index.js</title>
<path fill="none" stroke="#c6c5fe" d="M887.33,-449.97C887.33,-449.97 739.67,-449.97 739.67,-449.97 735.83,-449.97 732,-446.13 732,-442.3 732,-442.3 732,-434.63 732,-434.63 732,-430.8 735.83,-426.97 739.67,-426.97 739.67,-426.97 887.33,-426.97 887.33,-426.97 891.17,-426.97 895,-430.8 895,-434.63 895,-434.63 895,-442.3 895,-442.3 895,-446.13 891.17,-449.97 887.33,-449.97"/>
<text text-anchor="middle" x="813.5" y="-434.77" font-family="Arial" font-size="14.00" fill="#c6c5fe">cluster/common/index.js</text>
</g>
<!-- cluster/cluster&#45;core.module.js&#45;&gt;cluster/common/index.js -->
<g id="edge4" class="edge">
<title>cluster/cluster&#45;core.module.js&#45;&gt;cluster/common/index.js</title>
<path fill="none" stroke="#757575" d="M415.07,-370.19C440.73,-382.92 484.2,-402.74 524,-412.47 588.98,-428.35 664.32,-434.75 721.71,-437.23"/>
<polygon fill="#757575" stroke="#757575" points="721.72,-440.73 731.85,-437.64 722,-433.74 721.72,-440.73"/>
</g>
<!-- cluster/cluster.providers.js&#45;&gt;cluster/cluster.constants.js -->
<g id="edge6" class="edge">
<title>cluster/cluster.providers.js&#45;&gt;cluster/cluster.constants.js</title>
<path fill="none" stroke="#757575" d="M696.37,-360.87C804.59,-364.29 996.84,-371.62 1161,-384.47 1171.22,-385.27 1181.88,-386.23 1192.5,-387.27"/>
<polygon fill="#757575" stroke="#757575" points="1192.36,-390.77 1202.66,-388.29 1193.06,-383.81 1192.36,-390.77"/>
</g>
<!-- cluster/cluster.providers.js&#45;&gt;cluster/cluster.service.js -->
<g id="edge7" class="edge">
<title>cluster/cluster.providers.js&#45;&gt;cluster/cluster.service.js</title>
<path fill="none" stroke="#757575" d="M657.36,-346.95C670.16,-343.06 683.87,-338.22 696,-332.47 713.38,-324.23 714.69,-316.84 732,-308.47 740.64,-304.29 750.11,-300.56 759.42,-297.31"/>
<polygon fill="#757575" stroke="#757575" points="760.65,-300.58 769.03,-294.1 758.44,-293.94 760.65,-300.58"/>
</g>
<!-- cluster/cluster.providers.js&#45;&gt;cluster/common/index.js -->
<g id="edge8" class="edge">
<title>cluster/cluster.providers.js&#45;&gt;cluster/common/index.js</title>
<path fill="none" stroke="#757575" d="M640.3,-370.1C675.62,-384.12 735.07,-407.73 774.05,-423.2"/>
<polygon fill="#757575" stroke="#757575" points="772.91,-426.51 783.49,-426.95 775.49,-420.01 772.91,-426.51"/>
</g>
<!-- errors/index.js -->
<g id="node7" class="node">
<title>errors/index.js</title>
<path fill="none" stroke="#c6c5fe" d="M1088.83,-293.97C1088.83,-293.97 1003.17,-293.97 1003.17,-293.97 999.33,-293.97 995.5,-290.13 995.5,-286.3 995.5,-286.3 995.5,-278.63 995.5,-278.63 995.5,-274.8 999.33,-270.97 1003.17,-270.97 1003.17,-270.97 1088.83,-270.97 1088.83,-270.97 1092.67,-270.97 1096.5,-274.8 1096.5,-278.63 1096.5,-278.63 1096.5,-286.3 1096.5,-286.3 1096.5,-290.13 1092.67,-293.97 1088.83,-293.97"/>
<text text-anchor="middle" x="1046" y="-278.77" font-family="Arial" font-size="14.00" fill="#c6c5fe">errors/index.js</text>
</g>
<!-- cluster/cluster.providers.js&#45;&gt;errors/index.js -->
<g id="edge9" class="edge">
<title>cluster/cluster.providers.js&#45;&gt;errors/index.js</title>
<path fill="none" stroke="#757575" d="M676.92,-346.92C760.83,-332.23 904.57,-307.06 985.37,-292.91"/>
<polygon fill="#757575" stroke="#757575" points="986.13,-296.33 995.38,-291.16 984.92,-289.43 986.13,-296.33"/>
</g>
<!-- cluster/cluster.service.js&#45;&gt;cluster/cluster.constants.js -->
<g id="edge10" class="edge">
<title>cluster/cluster.service.js&#45;&gt;cluster/cluster.constants.js</title>
<path fill="none" stroke="#757575" d="M877.71,-293.98C975.8,-311.86 1154.2,-344.48 1161,-346.47 1193.87,-356.07 1229.88,-371.13 1255.32,-382.58"/>
<polygon fill="#757575" stroke="#757575" points="1253.96,-385.81 1264.52,-386.77 1256.87,-379.44 1253.96,-385.81"/>
</g>
<!-- cluster/cluster.service.js&#45;&gt;errors/index.js -->
<g id="edge11" class="edge">
<title>cluster/cluster.service.js&#45;&gt;errors/index.js</title>
<path fill="none" stroke="#757575" d="M893.18,-282.47C923.26,-282.47 957.06,-282.47 985.11,-282.47"/>
<polygon fill="#757575" stroke="#757575" points="985.17,-285.97 995.17,-282.47 985.17,-278.97 985.17,-285.97"/>
</g>
<!-- utils/index.js -->
<g id="node8" class="node">
<title>utils/index.js</title>
<path fill="none" stroke="#cfffac" d="M1083.33,-252.97C1083.33,-252.97 1008.67,-252.97 1008.67,-252.97 1004.83,-252.97 1001,-249.13 1001,-245.3 1001,-245.3 1001,-237.63 1001,-237.63 1001,-233.8 1004.83,-229.97 1008.67,-229.97 1008.67,-229.97 1083.33,-229.97 1083.33,-229.97 1087.17,-229.97 1091,-233.8 1091,-237.63 1091,-237.63 1091,-245.3 1091,-245.3 1091,-249.13 1087.17,-252.97 1083.33,-252.97"/>
<text text-anchor="middle" x="1046" y="-237.77" font-family="Arial" font-size="14.00" fill="#cfffac">utils/index.js</text>
</g>
<!-- cluster/cluster.service.js&#45;&gt;utils/index.js -->
<g id="edge12" class="edge">
<title>cluster/cluster.service.js&#45;&gt;utils/index.js</title>
<path fill="none" stroke="#757575" d="M879.32,-270.94C914.44,-264.69 957.33,-257.06 990.68,-251.13"/>
<polygon fill="#757575" stroke="#757575" points="991.47,-254.54 1000.7,-249.35 990.24,-247.65 991.47,-254.54"/>
</g>
<!-- cluster/common/cluster.decorator.js -->
<g id="node9" class="node">
<title>cluster/common/cluster.decorator.js</title>
<path fill="none" stroke="#c6c5fe" d="M1153.33,-490.97C1153.33,-490.97 938.67,-490.97 938.67,-490.97 934.83,-490.97 931,-487.13 931,-483.3 931,-483.3 931,-475.63 931,-475.63 931,-471.8 934.83,-467.97 938.67,-467.97 938.67,-467.97 1153.33,-467.97 1153.33,-467.97 1157.17,-467.97 1161,-471.8 1161,-475.63 1161,-475.63 1161,-483.3 1161,-483.3 1161,-487.13 1157.17,-490.97 1153.33,-490.97"/>
<text text-anchor="middle" x="1046" y="-475.77" font-family="Arial" font-size="14.00" fill="#c6c5fe">cluster/common/cluster.decorator.js</text>
</g>
<!-- cluster/common/index.js&#45;&gt;cluster/common/cluster.decorator.js -->
<g id="edge14" class="edge">
<title>cluster/common/index.js&#45;&gt;cluster/common/cluster.decorator.js</title>
<path fill="none" stroke="#757575" d="M878.28,-450.02C895.4,-453.11 913.9,-456.43 931,-459.47 943.25,-461.65 956.25,-463.94 968.92,-466.17"/>
<polygon fill="#757575" stroke="#757575" points="968.53,-469.66 978.98,-467.94 969.74,-462.76 968.53,-469.66"/>
</g>
<!-- cluster/common/cluster.utils.js -->
<g id="node10" class="node">
<title>cluster/common/cluster.utils.js</title>
<path fill="none" stroke="#cfffac" d="M1136.83,-449.97C1136.83,-449.97 955.17,-449.97 955.17,-449.97 951.33,-449.97 947.5,-446.13 947.5,-442.3 947.5,-442.3 947.5,-434.63 947.5,-434.63 947.5,-430.8 951.33,-426.97 955.17,-426.97 955.17,-426.97 1136.83,-426.97 1136.83,-426.97 1140.67,-426.97 1144.5,-430.8 1144.5,-434.63 1144.5,-434.63 1144.5,-442.3 1144.5,-442.3 1144.5,-446.13 1140.67,-449.97 1136.83,-449.97"/>
<text text-anchor="middle" x="1046" y="-434.77" font-family="Arial" font-size="14.00" fill="#cfffac">cluster/common/cluster.utils.js</text>
</g>
<!-- cluster/common/index.js&#45;&gt;cluster/common/cluster.utils.js -->
<g id="edge15" class="edge">
<title>cluster/common/index.js&#45;&gt;cluster/common/cluster.utils.js</title>
<path fill="none" stroke="#757575" d="M895.12,-438.47C908.7,-438.47 922.99,-438.47 937.13,-438.47"/>
<polygon fill="#757575" stroke="#757575" points="937.38,-441.97 947.38,-438.47 937.38,-434.97 937.38,-441.97"/>
</g>
<!-- cluster/cluster.module.js -->
<g id="node6" class="node">
<title>cluster/cluster.module.js</title>
<path fill="none" stroke="#c6c5fe" d="M251.33,-350.97C251.33,-350.97 105.67,-350.97 105.67,-350.97 101.83,-350.97 98,-347.13 98,-343.3 98,-343.3 98,-335.63 98,-335.63 98,-331.8 101.83,-327.97 105.67,-327.97 105.67,-327.97 251.33,-327.97 251.33,-327.97 255.17,-327.97 259,-331.8 259,-335.63 259,-335.63 259,-343.3 259,-343.3 259,-347.13 255.17,-350.97 251.33,-350.97"/>
<text text-anchor="middle" x="178.5" y="-335.77" font-family="Arial" font-size="14.00" fill="#c6c5fe">cluster/cluster.module.js</text>
</g>
<!-- cluster/cluster.module.js&#45;&gt;cluster/cluster&#45;core.module.js -->
<g id="edge5" class="edge">
<title>cluster/cluster.module.js&#45;&gt;cluster/cluster&#45;core.module.js</title>
<path fill="none" stroke="#757575" d="M259.27,-346.65C267.57,-347.4 276.1,-348.17 284.64,-348.93"/>
<polygon fill="#757575" stroke="#757575" points="284.37,-352.42 294.64,-349.84 285,-345.45 284.37,-352.42"/>
</g>
<!-- errors/messages.constant.js -->
<g id="node11" class="node">
<title>errors/messages.constant.js</title>
<path fill="none" stroke="#cfffac" d="M1375.33,-313.97C1375.33,-313.97 1204.67,-313.97 1204.67,-313.97 1200.83,-313.97 1197,-310.13 1197,-306.3 1197,-306.3 1197,-298.63 1197,-298.63 1197,-294.8 1200.83,-290.97 1204.67,-290.97 1204.67,-290.97 1375.33,-290.97 1375.33,-290.97 1379.17,-290.97 1383,-294.8 1383,-298.63 1383,-298.63 1383,-306.3 1383,-306.3 1383,-310.13 1379.17,-313.97 1375.33,-313.97"/>
<text text-anchor="middle" x="1290" y="-298.77" font-family="Arial" font-size="14.00" fill="#cfffac">errors/messages.constant.js</text>
</g>
<!-- errors/index.js&#45;&gt;errors/messages.constant.js -->
<g id="edge16" class="edge">
<title>errors/index.js&#45;&gt;errors/messages.constant.js</title>
<path fill="none" stroke="#757575" d="M1096.56,-286.56C1122.63,-288.72 1155.61,-291.44 1186.87,-294.03"/>
<polygon fill="#757575" stroke="#757575" points="1186.69,-297.52 1196.94,-294.86 1187.26,-290.55 1186.69,-297.52"/>
</g>
<!-- errors/redis.error.js -->
<g id="node12" class="node">
<title>errors/redis.error.js</title>
<path fill="none" stroke="#cfffac" d="M1347.33,-272.97C1347.33,-272.97 1232.67,-272.97 1232.67,-272.97 1228.83,-272.97 1225,-269.13 1225,-265.3 1225,-265.3 1225,-257.63 1225,-257.63 1225,-253.8 1228.83,-249.97 1232.67,-249.97 1232.67,-249.97 1347.33,-249.97 1347.33,-249.97 1351.17,-249.97 1355,-253.8 1355,-257.63 1355,-257.63 1355,-265.3 1355,-265.3 1355,-269.13 1351.17,-272.97 1347.33,-272.97"/>
<text text-anchor="middle" x="1290" y="-257.77" font-family="Arial" font-size="14.00" fill="#cfffac">errors/redis.error.js</text>
</g>
<!-- errors/index.js&#45;&gt;errors/redis.error.js -->
<g id="edge17" class="edge">
<title>errors/index.js&#45;&gt;errors/redis.error.js</title>
<path fill="none" stroke="#757575" d="M1096.56,-278.17C1130.58,-275.22 1176.33,-271.24 1214.7,-267.92"/>
<polygon fill="#757575" stroke="#757575" points="1215.13,-271.39 1224.79,-267.04 1214.52,-264.42 1215.13,-271.39"/>
</g>
<!-- cluster/common/cluster.decorator.js&#45;&gt;cluster/cluster.constants.js -->
<g id="edge13" class="edge">
<title>cluster/common/cluster.decorator.js&#45;&gt;cluster/cluster.constants.js</title>
<path fill="none" stroke="#757575" d="M1128.62,-467.93C1139.62,-465.57 1150.66,-462.77 1161,-459.47 1196.35,-448.18 1234.45,-429.03 1259.8,-415.2"/>
<polygon fill="#757575" stroke="#757575" points="1261.81,-418.09 1268.87,-410.18 1258.42,-411.96 1261.81,-418.09"/>
</g>
<!-- index.js -->
<g id="node13" class="node">
<title>index.js</title>
<path fill="none" stroke="#c6c5fe" d="M54.33,-272.97C54.33,-272.97 7.67,-272.97 7.67,-272.97 3.83,-272.97 0,-269.13 0,-265.3 0,-265.3 0,-257.63 0,-257.63 0,-253.8 3.83,-249.97 7.67,-249.97 7.67,-249.97 54.33,-249.97 54.33,-249.97 58.17,-249.97 62,-253.8 62,-257.63 62,-257.63 62,-265.3 62,-265.3 62,-269.13 58.17,-272.97 54.33,-272.97"/>
<text text-anchor="middle" x="31" y="-257.77" font-family="Arial" font-size="14.00" fill="#c6c5fe">index.js</text>
</g>
<!-- index.js&#45;&gt;cluster/cluster.constants.js -->
<g id="edge18" class="edge">
<title>index.js&#45;&gt;cluster/cluster.constants.js</title>
<path fill="none" stroke="#757575" d="M34.08,-273.16C39.56,-300.59 56.87,-369.71 98,-408.47 199.19,-503.83 251.45,-519.47 390.5,-519.47 390.5,-519.47 390.5,-519.47 814.5,-519.47 968.73,-519.47 1016.86,-555.35 1161,-500.47 1207.28,-482.84 1249.88,-441.94 1272.35,-417.62"/>
<polygon fill="#757575" stroke="#757575" points="1275.07,-419.83 1279.18,-410.07 1269.88,-415.14 1275.07,-419.83"/>
</g>
<!-- index.js&#45;&gt;cluster/cluster.service.js -->
<g id="edge20" class="edge">
<title>index.js&#45;&gt;cluster/cluster.service.js</title>
<path fill="none" stroke="#757575" d="M62.12,-262.28C171.37,-265.22 549.53,-275.39 723.57,-280.07"/>
<polygon fill="#757575" stroke="#757575" points="723.64,-283.58 733.73,-280.35 723.83,-276.58 723.64,-283.58"/>
</g>
<!-- index.js&#45;&gt;cluster/common/index.js -->
<g id="edge21" class="edge">
<title>index.js&#45;&gt;cluster/common/index.js</title>
<path fill="none" stroke="#757575" d="M36.22,-273.19C44.51,-294.37 65.02,-338.82 98,-360.47 296.59,-490.8 594.91,-470.43 734.84,-451.42"/>
<polygon fill="#757575" stroke="#757575" points="735.62,-454.84 745.04,-450 734.65,-447.91 735.62,-454.84"/>
</g>
<!-- index.js&#45;&gt;cluster/cluster.module.js -->
<g id="edge19" class="edge">
<title>index.js&#45;&gt;cluster/cluster.module.js</title>
<path fill="none" stroke="#757575" d="M53.47,-272.98C78.18,-286.23 118.97,-308.09 146.98,-323.1"/>
<polygon fill="#757575" stroke="#757575" points="145.48,-326.27 155.94,-327.91 148.78,-320.1 145.48,-326.27"/>
</g>
<!-- redis/common/index.js -->
<g id="node14" class="node">
<title>redis/common/index.js</title>
<path fill="none" stroke="#c6c5fe" d="M881.83,-133.97C881.83,-133.97 745.17,-133.97 745.17,-133.97 741.33,-133.97 737.5,-130.13 737.5,-126.3 737.5,-126.3 737.5,-118.63 737.5,-118.63 737.5,-114.8 741.33,-110.97 745.17,-110.97 745.17,-110.97 881.83,-110.97 881.83,-110.97 885.67,-110.97 889.5,-114.8 889.5,-118.63 889.5,-118.63 889.5,-126.3 889.5,-126.3 889.5,-130.13 885.67,-133.97 881.83,-133.97"/>
<text text-anchor="middle" x="813.5" y="-118.77" font-family="Arial" font-size="14.00" fill="#c6c5fe">redis/common/index.js</text>
</g>
<!-- index.js&#45;&gt;redis/common/index.js -->
<g id="edge22" class="edge">
<title>index.js&#45;&gt;redis/common/index.js</title>
<path fill="none" stroke="#757575" d="M35.74,-249.93C43.46,-228.17 63.41,-181.39 98,-160.47 310.66,-31.82 627.35,-81.05 755.56,-108.7"/>
<polygon fill="#757575" stroke="#757575" points="755.04,-112.17 765.56,-110.89 756.54,-105.33 755.04,-112.17"/>
</g>
<!-- redis/redis.constants.js -->
<g id="node15" class="node">
<title>redis/redis.constants.js</title>
<path fill="none" stroke="#cfffac" d="M1359.33,-133.97C1359.33,-133.97 1220.67,-133.97 1220.67,-133.97 1216.83,-133.97 1213,-130.13 1213,-126.3 1213,-126.3 1213,-118.63 1213,-118.63 1213,-114.8 1216.83,-110.97 1220.67,-110.97 1220.67,-110.97 1359.33,-110.97 1359.33,-110.97 1363.17,-110.97 1367,-114.8 1367,-118.63 1367,-118.63 1367,-126.3 1367,-126.3 1367,-130.13 1363.17,-133.97 1359.33,-133.97"/>
<text text-anchor="middle" x="1290" y="-118.77" font-family="Arial" font-size="14.00" fill="#cfffac">redis/redis.constants.js</text>
</g>
<!-- index.js&#45;&gt;redis/redis.constants.js -->
<g id="edge23" class="edge">
<title>index.js&#45;&gt;redis/redis.constants.js</title>
<path fill="none" stroke="#757575" d="M33.18,-249.84C36.87,-219.67 50.92,-138.15 98,-94.47 197.8,-1.86 254.35,-3.47 390.5,-3.47 390.5,-3.47 390.5,-3.47 814.5,-3.47 969.24,-3.47 1015.22,14.43 1161,-37.47 1203.04,-52.43 1244.79,-84.13 1268.68,-104.31"/>
<polygon fill="#757575" stroke="#757575" points="1266.5,-107.05 1276.36,-110.92 1271.06,-101.74 1266.5,-107.05"/>
</g>
<!-- redis/redis.module.js -->
<g id="node16" class="node">
<title>redis/redis.module.js</title>
<path fill="none" stroke="#c6c5fe" d="M241.33,-192.97C241.33,-192.97 115.67,-192.97 115.67,-192.97 111.83,-192.97 108,-189.13 108,-185.3 108,-185.3 108,-177.63 108,-177.63 108,-173.8 111.83,-169.97 115.67,-169.97 115.67,-169.97 241.33,-169.97 241.33,-169.97 245.17,-169.97 249,-173.8 249,-177.63 249,-177.63 249,-185.3 249,-185.3 249,-189.13 245.17,-192.97 241.33,-192.97"/>
<text text-anchor="middle" x="178.5" y="-177.77" font-family="Arial" font-size="14.00" fill="#c6c5fe">redis/redis.module.js</text>
</g>
<!-- index.js&#45;&gt;redis/redis.module.js -->
<g id="edge24" class="edge">
<title>index.js&#45;&gt;redis/redis.module.js</title>
<path fill="none" stroke="#757575" d="M53.16,-249.83C77.94,-236.21 119.18,-213.53 147.32,-198.06"/>
<polygon fill="#757575" stroke="#757575" points="149.24,-201 156.32,-193.11 145.87,-194.87 149.24,-201"/>
</g>
<!-- redis/redis.service.js -->
<g id="node17" class="node">
<title>redis/redis.service.js</title>
<path fill="none" stroke="#c6c5fe" d="M875.33,-213.97C875.33,-213.97 751.67,-213.97 751.67,-213.97 747.83,-213.97 744,-210.13 744,-206.3 744,-206.3 744,-198.63 744,-198.63 744,-194.8 747.83,-190.97 751.67,-190.97 751.67,-190.97 875.33,-190.97 875.33,-190.97 879.17,-190.97 883,-194.8 883,-198.63 883,-198.63 883,-206.3 883,-206.3 883,-210.13 879.17,-213.97 875.33,-213.97"/>
<text text-anchor="middle" x="813.5" y="-198.77" font-family="Arial" font-size="14.00" fill="#c6c5fe">redis/redis.service.js</text>
</g>
<!-- index.js&#45;&gt;redis/redis.service.js -->
<g id="edge25" class="edge">
<title>index.js&#45;&gt;redis/redis.service.js</title>
<path fill="none" stroke="#757575" d="M62.12,-259.19C173.58,-250.76 564.95,-221.18 733.88,-208.41"/>
<polygon fill="#757575" stroke="#757575" points="734.25,-211.89 743.95,-207.65 733.72,-204.91 734.25,-211.89"/>
</g>
<!-- redis/common/redis.decorator.js -->
<g id="node18" class="node">
<title>redis/common/redis.decorator.js</title>
<path fill="none" stroke="#c6c5fe" d="M1142.83,-133.97C1142.83,-133.97 949.17,-133.97 949.17,-133.97 945.33,-133.97 941.5,-130.13 941.5,-126.3 941.5,-126.3 941.5,-118.63 941.5,-118.63 941.5,-114.8 945.33,-110.97 949.17,-110.97 949.17,-110.97 1142.83,-110.97 1142.83,-110.97 1146.67,-110.97 1150.5,-114.8 1150.5,-118.63 1150.5,-118.63 1150.5,-126.3 1150.5,-126.3 1150.5,-130.13 1146.67,-133.97 1142.83,-133.97"/>
<text text-anchor="middle" x="1046" y="-118.77" font-family="Arial" font-size="14.00" fill="#c6c5fe">redis/common/redis.decorator.js</text>
</g>
<!-- redis/common/index.js&#45;&gt;redis/common/redis.decorator.js -->
<g id="edge26" class="edge">
<title>redis/common/index.js&#45;&gt;redis/common/redis.decorator.js</title>
<path fill="none" stroke="#757575" d="M889.66,-122.47C902.98,-122.47 917.11,-122.47 931.22,-122.47"/>
<polygon fill="#757575" stroke="#757575" points="931.47,-125.97 941.47,-122.47 931.47,-118.97 931.47,-125.97"/>
</g>
<!-- redis/common/redis.utils.js -->
<g id="node19" class="node">
<title>redis/common/redis.utils.js</title>
<path fill="none" stroke="#cfffac" d="M1126.83,-92.97C1126.83,-92.97 965.17,-92.97 965.17,-92.97 961.33,-92.97 957.5,-89.13 957.5,-85.3 957.5,-85.3 957.5,-77.63 957.5,-77.63 957.5,-73.8 961.33,-69.97 965.17,-69.97 965.17,-69.97 1126.83,-69.97 1126.83,-69.97 1130.67,-69.97 1134.5,-73.8 1134.5,-77.63 1134.5,-77.63 1134.5,-85.3 1134.5,-85.3 1134.5,-89.13 1130.67,-92.97 1126.83,-92.97"/>
<text text-anchor="middle" x="1046" y="-77.77" font-family="Arial" font-size="14.00" fill="#cfffac">redis/common/redis.utils.js</text>
</g>
<!-- redis/common/index.js&#45;&gt;redis/common/redis.utils.js -->
<g id="edge27" class="edge">
<title>redis/common/index.js&#45;&gt;redis/common/redis.utils.js</title>
<path fill="none" stroke="#757575" d="M878.28,-110.92C895.4,-107.83 913.9,-104.51 931,-101.47 943.25,-99.29 956.25,-96.99 968.92,-94.76"/>
<polygon fill="#757575" stroke="#757575" points="969.74,-98.17 978.98,-93 968.53,-91.28 969.74,-98.17"/>
</g>
<!-- redis/redis&#45;core.module.js -->
<g id="node20" class="node">
<title>redis/redis&#45;core.module.js</title>
<path fill="none" stroke="#c6c5fe" d="M469.83,-173.97C469.83,-173.97 313.17,-173.97 313.17,-173.97 309.33,-173.97 305.5,-170.13 305.5,-166.3 305.5,-166.3 305.5,-158.63 305.5,-158.63 305.5,-154.8 309.33,-150.97 313.17,-150.97 313.17,-150.97 469.83,-150.97 469.83,-150.97 473.67,-150.97 477.5,-154.8 477.5,-158.63 477.5,-158.63 477.5,-166.3 477.5,-166.3 477.5,-170.13 473.67,-173.97 469.83,-173.97"/>
<text text-anchor="middle" x="391.5" y="-158.77" font-family="Arial" font-size="14.00" fill="#c6c5fe">redis/redis&#45;core.module.js</text>
</g>
<!-- redis/redis.module.js&#45;&gt;redis/redis&#45;core.module.js -->
<g id="edge33" class="edge">
<title>redis/redis.module.js&#45;&gt;redis/redis&#45;core.module.js</title>
<path fill="none" stroke="#757575" d="M249.17,-175.19C263.94,-173.86 279.78,-172.44 295.31,-171.04"/>
<polygon fill="#757575" stroke="#757575" points="295.81,-174.51 305.46,-170.13 295.19,-167.54 295.81,-174.51"/>
</g>
<!-- redis/redis.service.js&#45;&gt;errors/index.js -->
<g id="edge38" class="edge">
<title>redis/redis.service.js&#45;&gt;errors/index.js</title>
<path fill="none" stroke="#757575" d="M862.42,-214.09C873.53,-217.82 885.02,-222.56 895,-228.47 913.94,-239.68 911.33,-252.59 931,-262.47 947.67,-270.83 967.23,-275.76 985.41,-278.65"/>
<polygon fill="#757575" stroke="#757575" points="984.94,-282.12 995.33,-280.05 985.92,-275.19 984.94,-282.12"/>
</g>
<!-- redis/redis.service.js&#45;&gt;utils/index.js -->
<g id="edge40" class="edge">
<title>redis/redis.service.js&#45;&gt;utils/index.js</title>
<path fill="none" stroke="#757575" d="M882.72,-214.01C917.22,-219.85 958.51,-226.83 990.8,-232.3"/>
<polygon fill="#757575" stroke="#757575" points="990.51,-235.8 1000.95,-234.01 991.67,-228.89 990.51,-235.8"/>
</g>
<!-- redis/redis.service.js&#45;&gt;redis/redis.constants.js -->
<g id="edge39" class="edge">
<title>redis/redis.service.js&#45;&gt;redis/redis.constants.js</title>
<path fill="none" stroke="#757575" d="M883.23,-203.81C953.88,-203.68 1066.59,-199.28 1161,-176.47 1195.72,-168.08 1233.1,-151.33 1258.45,-138.69"/>
<polygon fill="#757575" stroke="#757575" points="1260.21,-141.73 1267.54,-134.08 1257.04,-135.48 1260.21,-141.73"/>
</g>
<!-- redis/common/redis.decorator.js&#45;&gt;redis/redis.constants.js -->
<g id="edge28" class="edge">
<title>redis/common/redis.decorator.js&#45;&gt;redis/redis.constants.js</title>
<path fill="none" stroke="#757575" d="M1150.68,-122.47C1168,-122.47 1185.8,-122.47 1202.62,-122.47"/>
<polygon fill="#757575" stroke="#757575" points="1202.96,-125.97 1212.96,-122.47 1202.96,-118.97 1202.96,-125.97"/>
</g>
<!-- redis/redis&#45;core.module.js&#45;&gt;redis/common/index.js -->
<g id="edge29" class="edge">
<title>redis/redis&#45;core.module.js&#45;&gt;redis/common/index.js</title>
<path fill="none" stroke="#757575" d="M456.88,-150.97C478.19,-147.49 502.06,-143.94 524,-141.47 592.11,-133.8 669.65,-128.91 727.17,-126.01"/>
<polygon fill="#757575" stroke="#757575" points="727.49,-129.5 737.31,-125.51 727.15,-122.51 727.49,-129.5"/>
</g>
<!-- redis/redis&#45;core.module.js&#45;&gt;redis/redis.constants.js -->
<g id="edge30" class="edge">
<title>redis/redis&#45;core.module.js&#45;&gt;redis/redis.constants.js</title>
<path fill="none" stroke="#757575" d="M422.53,-150.88C526.16,-112.5 877.98,4.47 1161,-60.47 1198.72,-69.12 1238.24,-90.42 1263.21,-105.64"/>
<polygon fill="#757575" stroke="#757575" points="1261.38,-108.62 1271.72,-110.93 1265.08,-102.68 1261.38,-108.62"/>
</g>
<!-- redis/redis&#45;core.module.js&#45;&gt;redis/redis.service.js -->
<g id="edge32" class="edge">
<title>redis/redis&#45;core.module.js&#45;&gt;redis/redis.service.js</title>
<path fill="none" stroke="#757575" d="M461.29,-174.01C481.45,-177.1 503.57,-180.21 524,-182.47 594.73,-190.28 675.58,-195.58 733.66,-198.74"/>
<polygon fill="#757575" stroke="#757575" points="733.69,-202.25 743.87,-199.29 734.07,-195.26 733.69,-202.25"/>
</g>
<!-- redis/redis.providers.js -->
<g id="node21" class="node">
<title>redis/redis.providers.js</title>
<path fill="none" stroke="#c6c5fe" d="M678.33,-173.97C678.33,-173.97 541.67,-173.97 541.67,-173.97 537.83,-173.97 534,-170.13 534,-166.3 534,-166.3 534,-158.63 534,-158.63 534,-154.8 537.83,-150.97 541.67,-150.97 541.67,-150.97 678.33,-150.97 678.33,-150.97 682.17,-150.97 686,-154.8 686,-158.63 686,-158.63 686,-166.3 686,-166.3 686,-170.13 682.17,-173.97 678.33,-173.97"/>
<text text-anchor="middle" x="610" y="-158.77" font-family="Arial" font-size="14.00" fill="#c6c5fe">redis/redis.providers.js</text>
</g>
<!-- redis/redis&#45;core.module.js&#45;&gt;redis/redis.providers.js -->
<g id="edge31" class="edge">
<title>redis/redis&#45;core.module.js&#45;&gt;redis/redis.providers.js</title>
<path fill="none" stroke="#757575" d="M477.76,-162.47C492.75,-162.47 508.37,-162.47 523.38,-162.47"/>
<polygon fill="#757575" stroke="#757575" points="523.66,-165.97 533.66,-162.47 523.66,-158.97 523.66,-165.97"/>
</g>
<!-- redis/redis.providers.js&#45;&gt;errors/index.js -->
<g id="edge34" class="edge">
<title>redis/redis.providers.js&#45;&gt;errors/index.js</title>
<path fill="none" stroke="#757575" d="M629.98,-174.1C653.22,-187.85 694.17,-210.5 732,-223.47 777.93,-239.21 908.14,-261.12 985.38,-273.33"/>
<polygon fill="#757575" stroke="#757575" points="985.03,-276.81 995.46,-274.91 986.12,-269.9 985.03,-276.81"/>
</g>
<!-- redis/redis.providers.js&#45;&gt;redis/common/index.js -->
<g id="edge35" class="edge">
<title>redis/redis.providers.js&#45;&gt;redis/common/index.js</title>
<path fill="none" stroke="#757575" d="M669.01,-150.95C692.62,-146.27 720.06,-140.82 744.59,-135.95"/>
<polygon fill="#757575" stroke="#757575" points="745.42,-139.35 754.55,-133.97 744.06,-132.49 745.42,-139.35"/>
</g>
<!-- redis/redis.providers.js&#45;&gt;redis/redis.constants.js -->
<g id="edge36" class="edge">
<title>redis/redis.providers.js&#45;&gt;redis/redis.constants.js</title>
<path fill="none" stroke="#757575" d="M686.36,-162.55C792.49,-162.03 991.94,-158.69 1161,-142.47 1178.5,-140.79 1197.24,-138.27 1214.84,-135.58"/>
<polygon fill="#757575" stroke="#757575" points="1215.72,-138.99 1225.06,-133.98 1214.64,-132.07 1215.72,-138.99"/>
</g>
<!-- redis/redis.providers.js&#45;&gt;redis/redis.service.js -->
<g id="edge37" class="edge">
<title>redis/redis.providers.js&#45;&gt;redis/redis.service.js</title>
<path fill="none" stroke="#757575" d="M669.01,-173.98C692.62,-178.67 720.06,-184.12 744.59,-188.99"/>
<polygon fill="#757575" stroke="#757575" points="744.06,-192.45 754.55,-190.96 745.42,-185.58 744.06,-192.45"/>
</g>
</g>
</svg>
