<?xml version="1.0" encoding="UTF-8" standalone="no"?>
<!DOCTYPE svg PUBLIC "-//W3C//DTD SVG 1.1//EN"
 "http://www.w3.org/Graphics/SVG/1.1/DTD/svg11.dtd">
<!-- Generated by graphviz version 2.43.0 (0)
 -->
<!-- Title: G Pages: 1 -->
<svg width="1657pt" height="708pt"
 viewBox="0.00 0.00 1657.20 708.30" xmlns="http://www.w3.org/2000/svg" xmlns:xlink="http://www.w3.org/1999/xlink">
<g id="graph0" class="graph" transform="scale(1 1) rotate(0) translate(21.6 686.7)">
<title>G</title>
<polygon fill="#111111" stroke="transparent" points="-21.6,21.6 -21.6,-686.7 1635.6,-686.7 1635.6,21.6 -21.6,21.6"/>
<!-- dist/cluster/cluster&#45;core.module.js -->
<g id="node1" class="node">
<title>dist/cluster/cluster&#45;core.module.js</title>
<path fill="none" stroke="#c6c5fe" d="M555.33,-512.12C555.33,-512.12 352.67,-512.12 352.67,-512.12 348.83,-512.12 345,-508.29 345,-504.46 345,-504.46 345,-496.79 345,-496.79 345,-492.96 348.83,-489.12 352.67,-489.12 352.67,-489.12 555.33,-489.12 555.33,-489.12 559.17,-489.12 563,-492.96 563,-496.79 563,-496.79 563,-504.46 563,-504.46 563,-508.29 559.17,-512.12 555.33,-512.12"/>
<text text-anchor="middle" x="454" y="-496.92" font-family="Arial" font-size="14.00" fill="#c6c5fe">dist/cluster/cluster&#45;core.module.js</text>
</g>
<!-- dist/cluster/cluster.constants.js -->
<g id="node2" class="node">
<title>dist/cluster/cluster.constants.js</title>
<path fill="none" stroke="#cfffac" d="M1600.33,-571.12C1600.33,-571.12 1416.67,-571.12 1416.67,-571.12 1412.83,-571.12 1409,-567.29 1409,-563.46 1409,-563.46 1409,-555.79 1409,-555.79 1409,-551.96 1412.83,-548.12 1416.67,-548.12 1416.67,-548.12 1600.33,-548.12 1600.33,-548.12 1604.17,-548.12 1608,-551.96 1608,-555.79 1608,-555.79 1608,-563.46 1608,-563.46 1608,-567.29 1604.17,-571.12 1600.33,-571.12"/>
<text text-anchor="middle" x="1508.5" y="-555.92" font-family="Arial" font-size="14.00" fill="#cfffac">dist/cluster/cluster.constants.js</text>
</g>
<!-- dist/cluster/cluster&#45;core.module.js&#45;&gt;dist/cluster/cluster.constants.js -->
<g id="edge1" class="edge">
<title>dist/cluster/cluster&#45;core.module.js&#45;&gt;dist/cluster/cluster.constants.js</title>
<path fill="none" stroke="#757575" d="M480.69,-512.13C509.04,-524.31 556.34,-543.05 599,-552.62 932.72,-627.53 1028.57,-651.12 1367,-601.62 1402,-596.5 1440.39,-584.57 1468.19,-574.73"/>
<polygon fill="#757575" stroke="#757575" points="1469.71,-577.9 1477.92,-571.21 1467.33,-571.31 1469.71,-577.9"/>
</g>
<!-- dist/cluster/cluster.providers.js -->
<g id="node3" class="node">
<title>dist/cluster/cluster.providers.js</title>
<path fill="none" stroke="#c6c5fe" d="M797.33,-521.12C797.33,-521.12 615.67,-521.12 615.67,-521.12 611.83,-521.12 608,-517.29 608,-513.46 608,-513.46 608,-505.79 608,-505.79 608,-501.96 611.83,-498.12 615.67,-498.12 615.67,-498.12 797.33,-498.12 797.33,-498.12 801.17,-498.12 805,-501.96 805,-505.79 805,-505.79 805,-513.46 805,-513.46 805,-517.29 801.17,-521.12 797.33,-521.12"/>
<text text-anchor="middle" x="706.5" y="-505.92" font-family="Arial" font-size="14.00" fill="#c6c5fe">dist/cluster/cluster.providers.js</text>
</g>
<!-- dist/cluster/cluster&#45;core.module.js&#45;&gt;dist/cluster/cluster.providers.js -->
<g id="edge2" class="edge">
<title>dist/cluster/cluster&#45;core.module.js&#45;&gt;dist/cluster/cluster.providers.js</title>
<path fill="none" stroke="#757575" d="M563.05,-504.5C574.52,-504.92 586.19,-505.34 597.66,-505.75"/>
<polygon fill="#757575" stroke="#757575" points="597.56,-509.25 607.67,-506.11 597.81,-502.25 597.56,-509.25"/>
</g>
<!-- dist/cluster/cluster.service.js -->
<g id="node4" class="node">
<title>dist/cluster/cluster.service.js</title>
<path fill="none" stroke="#c6c5fe" d="M1047.83,-456.12C1047.83,-456.12 879.17,-456.12 879.17,-456.12 875.33,-456.12 871.5,-452.29 871.5,-448.46 871.5,-448.46 871.5,-440.79 871.5,-440.79 871.5,-436.96 875.33,-433.12 879.17,-433.12 879.17,-433.12 1047.83,-433.12 1047.83,-433.12 1051.67,-433.12 1055.5,-436.96 1055.5,-440.79 1055.5,-440.79 1055.5,-448.46 1055.5,-448.46 1055.5,-452.29 1051.67,-456.12 1047.83,-456.12"/>
<text text-anchor="middle" x="963.5" y="-440.92" font-family="Arial" font-size="14.00" fill="#c6c5fe">dist/cluster/cluster.service.js</text>
</g>
<!-- dist/cluster/cluster&#45;core.module.js&#45;&gt;dist/cluster/cluster.service.js -->
<g id="edge3" class="edge">
<title>dist/cluster/cluster&#45;core.module.js&#45;&gt;dist/cluster/cluster.service.js</title>
<path fill="none" stroke="#757575" d="M559.23,-489.12C647.63,-479.37 773.67,-465.46 861.22,-455.8"/>
<polygon fill="#757575" stroke="#757575" points="861.61,-459.28 871.17,-454.7 860.85,-452.32 861.61,-459.28"/>
</g>
<!-- dist/cluster/common/index.js -->
<g id="node5" class="node">
<title>dist/cluster/common/index.js</title>
<path fill="none" stroke="#c6c5fe" d="M1049.83,-561.12C1049.83,-561.12 877.17,-561.12 877.17,-561.12 873.33,-561.12 869.5,-557.29 869.5,-553.46 869.5,-553.46 869.5,-545.79 869.5,-545.79 869.5,-541.96 873.33,-538.12 877.17,-538.12 877.17,-538.12 1049.83,-538.12 1049.83,-538.12 1053.67,-538.12 1057.5,-541.96 1057.5,-545.79 1057.5,-545.79 1057.5,-553.46 1057.5,-553.46 1057.5,-557.29 1053.67,-561.12 1049.83,-561.12"/>
<text text-anchor="middle" x="963.5" y="-545.92" font-family="Arial" font-size="14.00" fill="#c6c5fe">dist/cluster/common/index.js</text>
</g>
<!-- dist/cluster/cluster&#45;core.module.js&#45;&gt;dist/cluster/common/index.js -->
<g id="edge4" class="edge">
<title>dist/cluster/cluster&#45;core.module.js&#45;&gt;dist/cluster/common/index.js</title>
<path fill="none" stroke="#757575" d="M501.39,-512.17C529.46,-518.69 566.08,-526.36 599,-530.62 686.24,-541.92 786.08,-546.55 859.03,-548.42"/>
<polygon fill="#757575" stroke="#757575" points="859.05,-551.92 869.14,-548.67 859.23,-544.93 859.05,-551.92"/>
</g>
<!-- dist/errors/index.js -->
<g id="node6" class="node">
<title>dist/errors/index.js</title>
<path fill="none" stroke="#c6c5fe" d="M1295.33,-360.12C1295.33,-360.12 1184.67,-360.12 1184.67,-360.12 1180.83,-360.12 1177,-356.29 1177,-352.46 1177,-352.46 1177,-344.79 1177,-344.79 1177,-340.96 1180.83,-337.12 1184.67,-337.12 1184.67,-337.12 1295.33,-337.12 1295.33,-337.12 1299.17,-337.12 1303,-340.96 1303,-344.79 1303,-344.79 1303,-352.46 1303,-352.46 1303,-356.29 1299.17,-360.12 1295.33,-360.12"/>
<text text-anchor="middle" x="1240" y="-344.92" font-family="Arial" font-size="14.00" fill="#c6c5fe">dist/errors/index.js</text>
</g>
<!-- dist/cluster/cluster&#45;core.module.js&#45;&gt;dist/errors/index.js -->
<g id="edge5" class="edge">
<title>dist/cluster/cluster&#45;core.module.js&#45;&gt;dist/errors/index.js</title>
<path fill="none" stroke="#757575" d="M488.72,-489.05C517.7,-479.41 560.75,-465.82 599,-456.62 802.34,-407.75 1047.22,-372.98 1166.54,-357.55"/>
<polygon fill="#757575" stroke="#757575" points="1167.17,-360.99 1176.65,-356.25 1166.28,-354.05 1167.17,-360.99"/>
</g>
<!-- dist/cluster/cluster.providers.js&#45;&gt;dist/cluster/cluster.constants.js -->
<g id="edge7" class="edge">
<title>dist/cluster/cluster.providers.js&#45;&gt;dist/cluster/cluster.constants.js</title>
<path fill="none" stroke="#757575" d="M805.08,-503.18C934.37,-496.44 1169.17,-490.48 1367,-519.62 1401.08,-524.64 1438.54,-535.59 1466.21,-544.77"/>
<polygon fill="#757575" stroke="#757575" points="1465.34,-548.17 1475.94,-548.06 1467.58,-541.54 1465.34,-548.17"/>
</g>
<!-- dist/cluster/cluster.providers.js&#45;&gt;dist/cluster/cluster.service.js -->
<g id="edge8" class="edge">
<title>dist/cluster/cluster.providers.js&#45;&gt;dist/cluster/cluster.service.js</title>
<path fill="none" stroke="#757575" d="M755.52,-498.09C773.84,-493.64 794.9,-488.46 814,-483.62 845.78,-475.57 881.3,-466.25 909.64,-458.74"/>
<polygon fill="#757575" stroke="#757575" points="910.57,-462.12 919.34,-456.17 908.78,-455.35 910.57,-462.12"/>
</g>
<!-- dist/cluster/cluster.providers.js&#45;&gt;dist/cluster/common/index.js -->
<g id="edge9" class="edge">
<title>dist/cluster/cluster.providers.js&#45;&gt;dist/cluster/common/index.js</title>
<path fill="none" stroke="#757575" d="M780.91,-521.14C811.58,-525.95 847.38,-531.56 879.04,-536.53"/>
<polygon fill="#757575" stroke="#757575" points="878.74,-540.03 889.16,-538.12 879.83,-533.11 878.74,-540.03"/>
</g>
<!-- dist/cluster/cluster.service.js&#45;&gt;dist/cluster/cluster.constants.js -->
<g id="edge10" class="edge">
<title>dist/cluster/cluster.service.js&#45;&gt;dist/cluster/cluster.constants.js</title>
<path fill="none" stroke="#757575" d="M1055.55,-444.07C1138.42,-445.85 1263.28,-454.31 1367,-485.62 1409.92,-498.58 1455,-524.93 1482.19,-542.44"/>
<polygon fill="#757575" stroke="#757575" points="1480.4,-545.45 1490.69,-548 1484.24,-539.6 1480.4,-545.45"/>
</g>
<!-- dist/cluster/cluster.service.js&#45;&gt;dist/errors/index.js -->
<g id="edge11" class="edge">
<title>dist/cluster/cluster.service.js&#45;&gt;dist/errors/index.js</title>
<path fill="none" stroke="#757575" d="M1007.95,-433.11C1029.25,-426.77 1054.99,-418.07 1077,-407.62 1094.15,-399.48 1095.69,-392.42 1113,-384.62 1132.79,-375.71 1155.32,-368.44 1175.81,-362.82"/>
<polygon fill="#757575" stroke="#757575" points="1176.91,-366.15 1185.68,-360.2 1175.12,-359.38 1176.91,-366.15"/>
</g>
<!-- dist/utils/index.js -->
<g id="node8" class="node">
<title>dist/utils/index.js</title>
<path fill="none" stroke="#cfffac" d="M1558.33,-286.12C1558.33,-286.12 1458.67,-286.12 1458.67,-286.12 1454.83,-286.12 1451,-282.29 1451,-278.46 1451,-278.46 1451,-270.79 1451,-270.79 1451,-266.96 1454.83,-263.12 1458.67,-263.12 1458.67,-263.12 1558.33,-263.12 1558.33,-263.12 1562.17,-263.12 1566,-266.96 1566,-270.79 1566,-270.79 1566,-278.46 1566,-278.46 1566,-282.29 1562.17,-286.12 1558.33,-286.12"/>
<text text-anchor="middle" x="1508.5" y="-270.92" font-family="Arial" font-size="14.00" fill="#cfffac">dist/utils/index.js</text>
</g>
<!-- dist/cluster/cluster.service.js&#45;&gt;dist/utils/index.js -->
<g id="edge12" class="edge">
<title>dist/cluster/cluster.service.js&#45;&gt;dist/utils/index.js</title>
<path fill="none" stroke="#757575" d="M1055.77,-436.41C1158.62,-425.66 1317.87,-404.03 1367,-369.62 1392.79,-351.56 1378.44,-328.32 1403,-308.62 1414.08,-299.74 1427.55,-293.14 1441.08,-288.26"/>
<polygon fill="#757575" stroke="#757575" points="1442.53,-291.47 1450.92,-285 1440.32,-284.82 1442.53,-291.47"/>
</g>
<!-- dist/cluster/common/cluster.decorator.js -->
<g id="node9" class="node">
<title>dist/cluster/common/cluster.decorator.js</title>
<path fill="none" stroke="#c6c5fe" d="M1359.33,-592.12C1359.33,-592.12 1120.67,-592.12 1120.67,-592.12 1116.83,-592.12 1113,-588.29 1113,-584.46 1113,-584.46 1113,-576.79 1113,-576.79 1113,-572.96 1116.83,-569.12 1120.67,-569.12 1120.67,-569.12 1359.33,-569.12 1359.33,-569.12 1363.17,-569.12 1367,-572.96 1367,-576.79 1367,-576.79 1367,-584.46 1367,-584.46 1367,-588.29 1363.17,-592.12 1359.33,-592.12"/>
<text text-anchor="middle" x="1240" y="-576.92" font-family="Arial" font-size="14.00" fill="#c6c5fe">dist/cluster/common/cluster.decorator.js</text>
</g>
<!-- dist/cluster/common/index.js&#45;&gt;dist/cluster/common/cluster.decorator.js -->
<g id="edge17" class="edge">
<title>dist/cluster/common/index.js&#45;&gt;dist/cluster/common/cluster.decorator.js</title>
<path fill="none" stroke="#757575" d="M1057.82,-560.16C1080.02,-562.67 1103.94,-565.37 1126.89,-567.96"/>
<polygon fill="#757575" stroke="#757575" points="1126.67,-571.46 1137,-569.1 1127.46,-564.5 1126.67,-571.46"/>
</g>
<!-- dist/cluster/common/cluster.utils.js -->
<g id="node10" class="node">
<title>dist/cluster/common/cluster.utils.js</title>
<path fill="none" stroke="#c6c5fe" d="M1343.33,-551.12C1343.33,-551.12 1136.67,-551.12 1136.67,-551.12 1132.83,-551.12 1129,-547.29 1129,-543.46 1129,-543.46 1129,-535.79 1129,-535.79 1129,-531.96 1132.83,-528.12 1136.67,-528.12 1136.67,-528.12 1343.33,-528.12 1343.33,-528.12 1347.17,-528.12 1351,-531.96 1351,-535.79 1351,-535.79 1351,-543.46 1351,-543.46 1351,-547.29 1347.17,-551.12 1343.33,-551.12"/>
<text text-anchor="middle" x="1240" y="-535.92" font-family="Arial" font-size="14.00" fill="#c6c5fe">dist/cluster/common/cluster.utils.js</text>
</g>
<!-- dist/cluster/common/index.js&#45;&gt;dist/cluster/common/cluster.utils.js -->
<g id="edge18" class="edge">
<title>dist/cluster/common/index.js&#45;&gt;dist/cluster/common/cluster.utils.js</title>
<path fill="none" stroke="#757575" d="M1057.82,-546.22C1077.45,-545.51 1098.43,-544.74 1118.89,-544"/>
<polygon fill="#757575" stroke="#757575" points="1119.01,-547.5 1128.88,-543.63 1118.76,-540.5 1119.01,-547.5"/>
</g>
<!-- dist/errors/messages.constant.js -->
<g id="node11" class="node">
<title>dist/errors/messages.constant.js</title>
<path fill="none" stroke="#cfffac" d="M1606.33,-340.12C1606.33,-340.12 1410.67,-340.12 1410.67,-340.12 1406.83,-340.12 1403,-336.29 1403,-332.46 1403,-332.46 1403,-324.79 1403,-324.79 1403,-320.96 1406.83,-317.12 1410.67,-317.12 1410.67,-317.12 1606.33,-317.12 1606.33,-317.12 1610.17,-317.12 1614,-320.96 1614,-324.79 1614,-324.79 1614,-332.46 1614,-332.46 1614,-336.29 1610.17,-340.12 1606.33,-340.12"/>
<text text-anchor="middle" x="1508.5" y="-324.92" font-family="Arial" font-size="14.00" fill="#cfffac">dist/errors/messages.constant.js</text>
</g>
<!-- dist/errors/index.js&#45;&gt;dist/errors/messages.constant.js -->
<g id="edge19" class="edge">
<title>dist/errors/index.js&#45;&gt;dist/errors/messages.constant.js</title>
<path fill="none" stroke="#757575" d="M1303.15,-343.96C1329.82,-341.96 1361.86,-339.55 1392.58,-337.25"/>
<polygon fill="#757575" stroke="#757575" points="1393.23,-340.71 1402.94,-336.47 1392.7,-333.73 1393.23,-340.71"/>
</g>
<!-- dist/errors/redis.error.js -->
<g id="node12" class="node">
<title>dist/errors/redis.error.js</title>
<path fill="none" stroke="#cfffac" d="M1578.33,-381.12C1578.33,-381.12 1438.67,-381.12 1438.67,-381.12 1434.83,-381.12 1431,-377.29 1431,-373.46 1431,-373.46 1431,-365.79 1431,-365.79 1431,-361.96 1434.83,-358.12 1438.67,-358.12 1438.67,-358.12 1578.33,-358.12 1578.33,-358.12 1582.17,-358.12 1586,-361.96 1586,-365.79 1586,-365.79 1586,-373.46 1586,-373.46 1586,-377.29 1582.17,-381.12 1578.33,-381.12"/>
<text text-anchor="middle" x="1508.5" y="-365.92" font-family="Arial" font-size="14.00" fill="#cfffac">dist/errors/redis.error.js</text>
</g>
<!-- dist/errors/index.js&#45;&gt;dist/errors/redis.error.js -->
<g id="edge20" class="edge">
<title>dist/errors/index.js&#45;&gt;dist/errors/redis.error.js</title>
<path fill="none" stroke="#757575" d="M1303.15,-353.52C1338.16,-356.28 1382.44,-359.77 1420.82,-362.79"/>
<polygon fill="#757575" stroke="#757575" points="1420.71,-366.29 1430.96,-363.59 1421.26,-359.32 1420.71,-366.29"/>
</g>
<!-- dist/cluster/cluster.module.js -->
<g id="node7" class="node">
<title>dist/cluster/cluster.module.js</title>
<path fill="none" stroke="#c6c5fe" d="M301.33,-493.12C301.33,-493.12 130.67,-493.12 130.67,-493.12 126.83,-493.12 123,-489.29 123,-485.46 123,-485.46 123,-477.79 123,-477.79 123,-473.96 126.83,-470.12 130.67,-470.12 130.67,-470.12 301.33,-470.12 301.33,-470.12 305.17,-470.12 309,-473.96 309,-477.79 309,-477.79 309,-485.46 309,-485.46 309,-489.29 305.17,-493.12 301.33,-493.12"/>
<text text-anchor="middle" x="216" y="-477.92" font-family="Arial" font-size="14.00" fill="#c6c5fe">dist/cluster/cluster.module.js</text>
</g>
<!-- dist/cluster/cluster.module.js&#45;&gt;dist/cluster/cluster&#45;core.module.js -->
<g id="edge6" class="edge">
<title>dist/cluster/cluster.module.js&#45;&gt;dist/cluster/cluster&#45;core.module.js</title>
<path fill="none" stroke="#757575" d="M309.26,-489.05C317.62,-489.72 326.16,-490.41 334.71,-491.1"/>
<polygon fill="#757575" stroke="#757575" points="334.48,-494.59 344.73,-491.91 335.05,-487.61 334.48,-494.59"/>
</g>
<!-- dist/cluster/common/cluster.decorator.js&#45;&gt;dist/cluster/cluster.constants.js -->
<g id="edge13" class="edge">
<title>dist/cluster/common/cluster.decorator.js&#45;&gt;dist/cluster/cluster.constants.js</title>
<path fill="none" stroke="#757575" d="M1367.23,-570.68C1377.72,-569.85 1388.27,-569.02 1398.62,-568.2"/>
<polygon fill="#757575" stroke="#757575" points="1399.2,-571.67 1408.89,-567.39 1398.65,-564.69 1399.2,-571.67"/>
</g>
<!-- dist/cluster/common/cluster.decorator.js&#45;&gt;dist/utils/index.js -->
<g id="edge14" class="edge">
<title>dist/cluster/common/cluster.decorator.js&#45;&gt;dist/utils/index.js</title>
<path fill="none" stroke="#757575" d="M1356.89,-569.02C1360.5,-566.56 1363.89,-563.78 1367,-560.62 1446.38,-480 1330.2,-395.22 1403,-308.62 1412.87,-296.88 1426.85,-289.16 1441.38,-284.1"/>
<polygon fill="#757575" stroke="#757575" points="1442.44,-287.43 1450.97,-281.13 1440.38,-280.74 1442.44,-287.43"/>
</g>
<!-- dist/cluster/common/cluster.utils.js&#45;&gt;dist/cluster/cluster.constants.js -->
<g id="edge15" class="edge">
<title>dist/cluster/common/cluster.utils.js&#45;&gt;dist/cluster/cluster.constants.js</title>
<path fill="none" stroke="#757575" d="M1351.32,-547.9C1366.94,-549.07 1383,-550.28 1398.59,-551.45"/>
<polygon fill="#757575" stroke="#757575" points="1398.53,-554.95 1408.77,-552.21 1399.06,-547.97 1398.53,-554.95"/>
</g>
<!-- dist/cluster/common/cluster.utils.js&#45;&gt;dist/utils/index.js -->
<g id="edge16" class="edge">
<title>dist/cluster/common/cluster.utils.js&#45;&gt;dist/utils/index.js</title>
<path fill="none" stroke="#757575" d="M1256.41,-527.99C1282.64,-507.44 1336.12,-462.18 1367,-412.62 1392.87,-371.11 1368.09,-342.88 1403,-308.62 1413.51,-298.31 1427.18,-291.12 1441.15,-286.12"/>
<polygon fill="#757575" stroke="#757575" points="1442.4,-289.39 1450.84,-282.99 1440.25,-282.73 1442.4,-289.39"/>
</g>
<!-- dist/health/index.js -->
<g id="node13" class="node">
<title>dist/health/index.js</title>
<path fill="none" stroke="#c6c5fe" d="M510.33,-345.12C510.33,-345.12 397.67,-345.12 397.67,-345.12 393.83,-345.12 390,-341.29 390,-337.46 390,-337.46 390,-329.79 390,-329.79 390,-325.96 393.83,-322.12 397.67,-322.12 397.67,-322.12 510.33,-322.12 510.33,-322.12 514.17,-322.12 518,-325.96 518,-329.79 518,-329.79 518,-337.46 518,-337.46 518,-341.29 514.17,-345.12 510.33,-345.12"/>
<text text-anchor="middle" x="454" y="-329.92" font-family="Arial" font-size="14.00" fill="#c6c5fe">dist/health/index.js</text>
</g>
<!-- dist/health/indicators/redis.health.js -->
<g id="node14" class="node">
<title>dist/health/indicators/redis.health.js</title>
<path fill="none" stroke="#c6c5fe" d="M1069.33,-360.12C1069.33,-360.12 857.67,-360.12 857.67,-360.12 853.83,-360.12 850,-356.29 850,-352.46 850,-352.46 850,-344.79 850,-344.79 850,-340.96 853.83,-337.12 857.67,-337.12 857.67,-337.12 1069.33,-337.12 1069.33,-337.12 1073.17,-337.12 1077,-340.96 1077,-344.79 1077,-344.79 1077,-352.46 1077,-352.46 1077,-356.29 1073.17,-360.12 1069.33,-360.12"/>
<text text-anchor="middle" x="963.5" y="-344.92" font-family="Arial" font-size="14.00" fill="#c6c5fe">dist/health/indicators/redis.health.js</text>
</g>
<!-- dist/health/index.js&#45;&gt;dist/health/indicators/redis.health.js -->
<g id="edge21" class="edge">
<title>dist/health/index.js&#45;&gt;dist/health/indicators/redis.health.js</title>
<path fill="none" stroke="#757575" d="M518.28,-331.7C590.03,-329.97 710.51,-328.41 814,-333.62 826.35,-334.24 839.27,-335.16 852.1,-336.23"/>
<polygon fill="#757575" stroke="#757575" points="852.09,-339.74 862.36,-337.12 852.7,-332.77 852.09,-339.74"/>
</g>
<!-- dist/health/redis&#45;health.module.js -->
<g id="node15" class="node">
<title>dist/health/redis&#45;health.module.js</title>
<path fill="none" stroke="#c6c5fe" d="M806.33,-365.12C806.33,-365.12 606.67,-365.12 606.67,-365.12 602.83,-365.12 599,-361.29 599,-357.46 599,-357.46 599,-349.79 599,-349.79 599,-345.96 602.83,-342.12 606.67,-342.12 606.67,-342.12 806.33,-342.12 806.33,-342.12 810.17,-342.12 814,-345.96 814,-349.79 814,-349.79 814,-357.46 814,-357.46 814,-361.29 810.17,-365.12 806.33,-365.12"/>
<text text-anchor="middle" x="706.5" y="-349.92" font-family="Arial" font-size="14.00" fill="#c6c5fe">dist/health/redis&#45;health.module.js</text>
</g>
<!-- dist/health/index.js&#45;&gt;dist/health/redis&#45;health.module.js -->
<g id="edge22" class="edge">
<title>dist/health/index.js&#45;&gt;dist/health/redis&#45;health.module.js</title>
<path fill="none" stroke="#757575" d="M518.21,-338.67C539.74,-340.39 564.54,-342.37 588.9,-344.31"/>
<polygon fill="#757575" stroke="#757575" points="588.69,-347.81 598.94,-345.11 589.25,-340.83 588.69,-347.81"/>
</g>
<!-- dist/health/indicators/redis.health.js&#45;&gt;dist/errors/index.js -->
<g id="edge23" class="edge">
<title>dist/health/indicators/redis.health.js&#45;&gt;dist/errors/index.js</title>
<path fill="none" stroke="#757575" d="M1077.34,-348.62C1107.5,-348.62 1139.28,-348.62 1166.61,-348.62"/>
<polygon fill="#757575" stroke="#757575" points="1166.85,-352.12 1176.85,-348.62 1166.85,-345.12 1166.85,-352.12"/>
</g>
<!-- dist/health/redis&#45;health.module.js&#45;&gt;dist/health/indicators/redis.health.js -->
<g id="edge24" class="edge">
<title>dist/health/redis&#45;health.module.js&#45;&gt;dist/health/indicators/redis.health.js</title>
<path fill="none" stroke="#757575" d="M814.17,-351.53C822.51,-351.37 830.98,-351.2 839.42,-351.04"/>
<polygon fill="#757575" stroke="#757575" points="839.76,-354.53 849.69,-350.83 839.62,-347.53 839.76,-354.53"/>
</g>
<!-- dist/index.js -->
<g id="node16" class="node">
<title>dist/index.js</title>
<path fill="none" stroke="#c6c5fe" d="M79.33,-346.12C79.33,-346.12 7.67,-346.12 7.67,-346.12 3.83,-346.12 0,-342.29 0,-338.46 0,-338.46 0,-330.79 0,-330.79 0,-326.96 3.83,-323.12 7.67,-323.12 7.67,-323.12 79.33,-323.12 79.33,-323.12 83.17,-323.12 87,-326.96 87,-330.79 87,-330.79 87,-338.46 87,-338.46 87,-342.29 83.17,-346.12 79.33,-346.12"/>
<text text-anchor="middle" x="43.5" y="-330.92" font-family="Arial" font-size="14.00" fill="#c6c5fe">dist/index.js</text>
</g>
<!-- dist/index.js&#45;&gt;dist/cluster/cluster.constants.js -->
<g id="edge25" class="edge">
<title>dist/index.js&#45;&gt;dist/cluster/cluster.constants.js</title>
<path fill="none" stroke="#757575" d="M45.1,-346.22C47.6,-382.77 60.33,-496.67 123,-557.62 233.42,-665.03 298.95,-663.62 453,-663.62 453,-663.62 453,-663.62 964.5,-663.62 1144.1,-663.62 1193.9,-675.52 1367,-627.62 1408.77,-616.06 1453.18,-592.41 1480.63,-576.28"/>
<polygon fill="#757575" stroke="#757575" points="1482.47,-579.26 1489.27,-571.13 1478.89,-573.25 1482.47,-579.26"/>
</g>
<!-- dist/index.js&#45;&gt;dist/cluster/cluster.service.js -->
<g id="edge27" class="edge">
<title>dist/index.js&#45;&gt;dist/cluster/cluster.service.js</title>
<path fill="none" stroke="#757575" d="M85.41,-346.22C97.44,-349.31 110.68,-352.4 123,-354.62 386.97,-402.15 702.49,-427.71 861,-438.43"/>
<polygon fill="#757575" stroke="#757575" points="861,-441.94 871.21,-439.12 861.46,-434.96 861,-441.94"/>
</g>
<!-- dist/index.js&#45;&gt;dist/cluster/common/index.js -->
<g id="edge28" class="edge">
<title>dist/index.js&#45;&gt;dist/cluster/common/index.js</title>
<path fill="none" stroke="#757575" d="M46.06,-346.48C50.9,-377.97 68.73,-463.95 123,-502.62 370.31,-678.87 770.09,-599.7 911.19,-563.85"/>
<polygon fill="#757575" stroke="#757575" points="912.49,-567.13 921.29,-561.24 910.74,-560.35 912.49,-567.13"/>
</g>
<!-- dist/index.js&#45;&gt;dist/cluster/cluster.module.js -->
<g id="edge26" class="edge">
<title>dist/index.js&#45;&gt;dist/cluster/cluster.module.js</title>
<path fill="none" stroke="#757575" d="M49.91,-346.38C60.73,-368.71 87.13,-417.54 123,-445.62 134.19,-454.38 147.78,-461.25 161.04,-466.52"/>
<polygon fill="#757575" stroke="#757575" points="160.01,-469.87 170.6,-470.08 162.45,-463.31 160.01,-469.87"/>
</g>
<!-- dist/redis/common/index.js -->
<g id="node17" class="node">
<title>dist/redis/common/index.js</title>
<path fill="none" stroke="#c6c5fe" d="M1044.33,-131.12C1044.33,-131.12 882.67,-131.12 882.67,-131.12 878.83,-131.12 875,-127.29 875,-123.46 875,-123.46 875,-115.79 875,-115.79 875,-111.96 878.83,-108.12 882.67,-108.12 882.67,-108.12 1044.33,-108.12 1044.33,-108.12 1048.17,-108.12 1052,-111.96 1052,-115.79 1052,-115.79 1052,-123.46 1052,-123.46 1052,-127.29 1048.17,-131.12 1044.33,-131.12"/>
<text text-anchor="middle" x="963.5" y="-115.92" font-family="Arial" font-size="14.00" fill="#c6c5fe">dist/redis/common/index.js</text>
</g>
<!-- dist/index.js&#45;&gt;dist/redis/common/index.js -->
<g id="edge29" class="edge">
<title>dist/index.js&#45;&gt;dist/redis/common/index.js</title>
<path fill="none" stroke="#757575" d="M45.67,-323.03C49.65,-290.53 65.72,-198.3 123,-157.62 371.92,19.16 774.84,-67.68 913.66,-105.28"/>
<polygon fill="#757575" stroke="#757575" points="913.01,-108.73 923.58,-108.01 914.87,-101.98 913.01,-108.73"/>
</g>
<!-- dist/redis/redis.constants.js -->
<g id="node18" class="node">
<title>dist/redis/redis.constants.js</title>
<path fill="none" stroke="#cfffac" d="M1590.33,-124.12C1590.33,-124.12 1426.67,-124.12 1426.67,-124.12 1422.83,-124.12 1419,-120.29 1419,-116.46 1419,-116.46 1419,-108.79 1419,-108.79 1419,-104.96 1422.83,-101.12 1426.67,-101.12 1426.67,-101.12 1590.33,-101.12 1590.33,-101.12 1594.17,-101.12 1598,-104.96 1598,-108.79 1598,-108.79 1598,-116.46 1598,-116.46 1598,-120.29 1594.17,-124.12 1590.33,-124.12"/>
<text text-anchor="middle" x="1508.5" y="-108.92" font-family="Arial" font-size="14.00" fill="#cfffac">dist/redis/redis.constants.js</text>
</g>
<!-- dist/index.js&#45;&gt;dist/redis/redis.constants.js -->
<g id="edge30" class="edge">
<title>dist/index.js&#45;&gt;dist/redis/redis.constants.js</title>
<path fill="none" stroke="#757575" d="M44.11,-323.07C43.41,-282.04 46.91,-142.1 123,-72.62 233.52,28.29 303.34,-5.62 453,-5.62 453,-5.62 453,-5.62 964.5,-5.62 1144.1,-5.62 1194.32,7.76 1367,-41.62 1409.26,-53.71 1453.87,-78.63 1481.2,-95.49"/>
<polygon fill="#757575" stroke="#757575" points="1479.45,-98.52 1489.78,-100.87 1483.17,-92.59 1479.45,-98.52"/>
</g>
<!-- dist/redis/redis.module.js -->
<g id="node19" class="node">
<title>dist/redis/redis.module.js</title>
<path fill="none" stroke="#c6c5fe" d="M291.33,-190.12C291.33,-190.12 140.67,-190.12 140.67,-190.12 136.83,-190.12 133,-186.29 133,-182.46 133,-182.46 133,-174.79 133,-174.79 133,-170.96 136.83,-167.12 140.67,-167.12 140.67,-167.12 291.33,-167.12 291.33,-167.12 295.17,-167.12 299,-170.96 299,-174.79 299,-174.79 299,-182.46 299,-182.46 299,-186.29 295.17,-190.12 291.33,-190.12"/>
<text text-anchor="middle" x="216" y="-174.92" font-family="Arial" font-size="14.00" fill="#c6c5fe">dist/redis/redis.module.js</text>
</g>
<!-- dist/index.js&#45;&gt;dist/redis/redis.module.js -->
<g id="edge31" class="edge">
<title>dist/index.js&#45;&gt;dist/redis/redis.module.js</title>
<path fill="none" stroke="#757575" d="M50.29,-322.79C61.59,-300.74 88.49,-252.99 123,-223.62 137.38,-211.39 155.65,-201.56 172.12,-194.25"/>
<polygon fill="#757575" stroke="#757575" points="173.73,-197.37 181.56,-190.24 170.99,-190.93 173.73,-197.37"/>
</g>
<!-- dist/redis/redis.service.js -->
<g id="node20" class="node">
<title>dist/redis/redis.service.js</title>
<path fill="none" stroke="#c6c5fe" d="M1037.83,-239.12C1037.83,-239.12 889.17,-239.12 889.17,-239.12 885.33,-239.12 881.5,-235.29 881.5,-231.46 881.5,-231.46 881.5,-223.79 881.5,-223.79 881.5,-219.96 885.33,-216.12 889.17,-216.12 889.17,-216.12 1037.83,-216.12 1037.83,-216.12 1041.67,-216.12 1045.5,-219.96 1045.5,-223.79 1045.5,-223.79 1045.5,-231.46 1045.5,-231.46 1045.5,-235.29 1041.67,-239.12 1037.83,-239.12"/>
<text text-anchor="middle" x="963.5" y="-223.92" font-family="Arial" font-size="14.00" fill="#c6c5fe">dist/redis/redis.service.js</text>
</g>
<!-- dist/index.js&#45;&gt;dist/redis/redis.service.js -->
<g id="edge32" class="edge">
<title>dist/index.js&#45;&gt;dist/redis/redis.service.js</title>
<path fill="none" stroke="#757575" d="M82.95,-323.03C95.61,-319.56 109.82,-316.04 123,-313.62 392.39,-264.12 716.04,-241.05 871.03,-232.21"/>
<polygon fill="#757575" stroke="#757575" points="871.65,-235.68 881.44,-231.62 871.26,-228.69 871.65,-235.68"/>
</g>
<!-- dist/redis/common/redis.decorator.js -->
<g id="node21" class="node">
<title>dist/redis/common/redis.decorator.js</title>
<path fill="none" stroke="#c6c5fe" d="M1349.33,-144.12C1349.33,-144.12 1130.67,-144.12 1130.67,-144.12 1126.83,-144.12 1123,-140.29 1123,-136.46 1123,-136.46 1123,-128.79 1123,-128.79 1123,-124.96 1126.83,-121.12 1130.67,-121.12 1130.67,-121.12 1349.33,-121.12 1349.33,-121.12 1353.17,-121.12 1357,-124.96 1357,-128.79 1357,-128.79 1357,-136.46 1357,-136.46 1357,-140.29 1353.17,-144.12 1349.33,-144.12"/>
<text text-anchor="middle" x="1240" y="-128.92" font-family="Arial" font-size="14.00" fill="#c6c5fe">dist/redis/common/redis.decorator.js</text>
</g>
<!-- dist/redis/common/index.js&#45;&gt;dist/redis/common/redis.decorator.js -->
<g id="edge33" class="edge">
<title>dist/redis/common/index.js&#45;&gt;dist/redis/common/redis.decorator.js</title>
<path fill="none" stroke="#757575" d="M1052.11,-123.77C1071.39,-124.68 1092.18,-125.67 1112.65,-126.64"/>
<polygon fill="#757575" stroke="#757575" points="1112.51,-130.14 1122.66,-127.11 1112.84,-123.14 1112.51,-130.14"/>
</g>
<!-- dist/redis/common/redis.utils.js -->
<g id="node22" class="node">
<title>dist/redis/common/redis.utils.js</title>
<path fill="none" stroke="#c6c5fe" d="M1333.33,-103.12C1333.33,-103.12 1146.67,-103.12 1146.67,-103.12 1142.83,-103.12 1139,-99.29 1139,-95.46 1139,-95.46 1139,-87.79 1139,-87.79 1139,-83.96 1142.83,-80.12 1146.67,-80.12 1146.67,-80.12 1333.33,-80.12 1333.33,-80.12 1337.17,-80.12 1341,-83.96 1341,-87.79 1341,-87.79 1341,-95.46 1341,-95.46 1341,-99.29 1337.17,-103.12 1333.33,-103.12"/>
<text text-anchor="middle" x="1240" y="-87.92" font-family="Arial" font-size="14.00" fill="#c6c5fe">dist/redis/common/redis.utils.js</text>
</g>
<!-- dist/redis/common/index.js&#45;&gt;dist/redis/common/redis.utils.js -->
<g id="edge34" class="edge">
<title>dist/redis/common/index.js&#45;&gt;dist/redis/common/redis.utils.js</title>
<path fill="none" stroke="#757575" d="M1052.11,-110.69C1076.49,-108.2 1103.28,-105.47 1128.78,-102.86"/>
<polygon fill="#757575" stroke="#757575" points="1129.26,-106.33 1138.86,-101.84 1128.55,-99.37 1129.26,-106.33"/>
</g>
<!-- dist/redis/redis&#45;core.module.js -->
<g id="node23" class="node">
<title>dist/redis/redis&#45;core.module.js</title>
<path fill="none" stroke="#c6c5fe" d="M544.83,-181.12C544.83,-181.12 363.17,-181.12 363.17,-181.12 359.33,-181.12 355.5,-177.29 355.5,-173.46 355.5,-173.46 355.5,-165.79 355.5,-165.79 355.5,-161.96 359.33,-158.12 363.17,-158.12 363.17,-158.12 544.83,-158.12 544.83,-158.12 548.67,-158.12 552.5,-161.96 552.5,-165.79 552.5,-165.79 552.5,-173.46 552.5,-173.46 552.5,-177.29 548.67,-181.12 544.83,-181.12"/>
<text text-anchor="middle" x="454" y="-165.92" font-family="Arial" font-size="14.00" fill="#c6c5fe">dist/redis/redis&#45;core.module.js</text>
</g>
<!-- dist/redis/redis.module.js&#45;&gt;dist/redis/redis&#45;core.module.js -->
<g id="edge44" class="edge">
<title>dist/redis/redis.module.js&#45;&gt;dist/redis/redis&#45;core.module.js</title>
<path fill="none" stroke="#757575" d="M299.21,-175.49C314.05,-174.92 329.73,-174.32 345.17,-173.73"/>
<polygon fill="#757575" stroke="#757575" points="345.41,-177.23 355.27,-173.35 345.14,-170.23 345.41,-177.23"/>
</g>
<!-- dist/redis/redis.service.js&#45;&gt;dist/errors/index.js -->
<g id="edge48" class="edge">
<title>dist/redis/redis.service.js&#45;&gt;dist/errors/index.js</title>
<path fill="none" stroke="#757575" d="M1010.11,-239.17C1030.86,-244.99 1055.51,-252.71 1077,-261.62 1126.12,-281.99 1179.9,-312.68 1211.48,-331.64"/>
<polygon fill="#757575" stroke="#757575" points="1209.79,-334.71 1220.16,-336.89 1213.41,-328.72 1209.79,-334.71"/>
</g>
<!-- dist/redis/redis.service.js&#45;&gt;dist/utils/index.js -->
<g id="edge50" class="edge">
<title>dist/redis/redis.service.js&#45;&gt;dist/utils/index.js</title>
<path fill="none" stroke="#757575" d="M1045.79,-234.66C1153.23,-243.96 1340.53,-260.17 1440.36,-268.81"/>
<polygon fill="#757575" stroke="#757575" points="1440.36,-272.32 1450.62,-269.7 1440.96,-265.35 1440.36,-272.32"/>
</g>
<!-- dist/redis/redis.service.js&#45;&gt;dist/redis/redis.constants.js -->
<g id="edge49" class="edge">
<title>dist/redis/redis.service.js&#45;&gt;dist/redis/redis.constants.js</title>
<path fill="none" stroke="#757575" d="M1045.69,-228.36C1128.27,-227.04 1259.07,-219.2 1367,-186.62 1409.92,-173.67 1455,-147.31 1482.19,-129.81"/>
<polygon fill="#757575" stroke="#757575" points="1484.24,-132.65 1490.69,-124.24 1480.4,-126.79 1484.24,-132.65"/>
</g>
<!-- dist/redis/common/redis.decorator.js&#45;&gt;dist/utils/index.js -->
<g id="edge36" class="edge">
<title>dist/redis/common/redis.decorator.js&#45;&gt;dist/utils/index.js</title>
<path fill="none" stroke="#757575" d="M1262.81,-144.24C1310.17,-169.48 1422.52,-229.34 1476.93,-258.33"/>
<polygon fill="#757575" stroke="#757575" points="1475.29,-261.43 1485.76,-263.04 1478.58,-255.25 1475.29,-261.43"/>
</g>
<!-- dist/redis/common/redis.decorator.js&#45;&gt;dist/redis/redis.constants.js -->
<g id="edge35" class="edge">
<title>dist/redis/common/redis.decorator.js&#45;&gt;dist/redis/redis.constants.js</title>
<path fill="none" stroke="#757575" d="M1357.12,-123.91C1374.19,-122.63 1391.65,-121.32 1408.34,-120.06"/>
<polygon fill="#757575" stroke="#757575" points="1408.91,-123.53 1418.62,-119.29 1408.39,-116.55 1408.91,-123.53"/>
</g>
<!-- dist/redis/common/redis.utils.js&#45;&gt;dist/utils/index.js -->
<g id="edge38" class="edge">
<title>dist/redis/common/redis.utils.js&#45;&gt;dist/utils/index.js</title>
<path fill="none" stroke="#757575" d="M1341.23,-100.79C1350.23,-103.6 1358.97,-107.15 1367,-111.62 1428.45,-145.87 1475.52,-217.92 1496.11,-253.64"/>
<polygon fill="#757575" stroke="#757575" points="1493.25,-255.69 1501.21,-262.68 1499.35,-252.25 1493.25,-255.69"/>
</g>
<!-- dist/redis/common/redis.utils.js&#45;&gt;dist/redis/redis.constants.js -->
<g id="edge37" class="edge">
<title>dist/redis/common/redis.utils.js&#45;&gt;dist/redis/redis.constants.js</title>
<path fill="none" stroke="#757575" d="M1341.37,-99.53C1363.38,-101.27 1386.66,-103.1 1408.61,-104.83"/>
<polygon fill="#757575" stroke="#757575" points="1408.35,-108.32 1418.59,-105.62 1408.9,-101.34 1408.35,-108.32"/>
</g>
<!-- dist/redis/redis&#45;core.module.js&#45;&gt;dist/errors/index.js -->
<g id="edge39" class="edge">
<title>dist/redis/redis&#45;core.module.js&#45;&gt;dist/errors/index.js</title>
<path fill="none" stroke="#757575" d="M490.87,-181.21C519.87,-190.37 561.84,-203.14 599,-212.62 803.27,-264.73 1047.73,-312.77 1166.75,-335.24"/>
<polygon fill="#757575" stroke="#757575" points="1166.36,-338.73 1176.83,-337.14 1167.65,-331.85 1166.36,-338.73"/>
</g>
<!-- dist/redis/redis&#45;core.module.js&#45;&gt;dist/redis/common/index.js -->
<g id="edge40" class="edge">
<title>dist/redis/redis&#45;core.module.js&#45;&gt;dist/redis/common/index.js</title>
<path fill="none" stroke="#757575" d="M499.75,-158.06C528.02,-151.23 565.41,-143.09 599,-138.62 688.44,-126.73 791.19,-122.2 864.58,-120.51"/>
<polygon fill="#757575" stroke="#757575" points="864.81,-124 874.74,-120.29 864.66,-117.01 864.81,-124"/>
</g>
<!-- dist/redis/redis&#45;core.module.js&#45;&gt;dist/redis/redis.constants.js -->
<g id="edge41" class="edge">
<title>dist/redis/redis&#45;core.module.js&#45;&gt;dist/redis/redis.constants.js</title>
<path fill="none" stroke="#757575" d="M481.23,-158.11C509.66,-146.16 556.65,-127.95 599,-118.62 933,-45.07 1028.6,-21.12 1367,-70.62 1402,-75.74 1440.39,-87.67 1468.19,-97.52"/>
<polygon fill="#757575" stroke="#757575" points="1467.33,-100.93 1477.92,-101.03 1469.71,-94.35 1467.33,-100.93"/>
</g>
<!-- dist/redis/redis&#45;core.module.js&#45;&gt;dist/redis/redis.service.js -->
<g id="edge43" class="edge">
<title>dist/redis/redis&#45;core.module.js&#45;&gt;dist/redis/redis.service.js</title>
<path fill="none" stroke="#757575" d="M552.55,-180.77C644.46,-191.27 781.1,-206.89 870.98,-217.16"/>
<polygon fill="#757575" stroke="#757575" points="870.83,-220.67 881.16,-218.33 871.62,-213.71 870.83,-220.67"/>
</g>
<!-- dist/redis/redis.providers.js -->
<g id="node24" class="node">
<title>dist/redis/redis.providers.js</title>
<path fill="none" stroke="#c6c5fe" d="M786.83,-171.12C786.83,-171.12 626.17,-171.12 626.17,-171.12 622.33,-171.12 618.5,-167.29 618.5,-163.46 618.5,-163.46 618.5,-155.79 618.5,-155.79 618.5,-151.96 622.33,-148.12 626.17,-148.12 626.17,-148.12 786.83,-148.12 786.83,-148.12 790.67,-148.12 794.5,-151.96 794.5,-155.79 794.5,-155.79 794.5,-163.46 794.5,-163.46 794.5,-167.29 790.67,-171.12 786.83,-171.12"/>
<text text-anchor="middle" x="706.5" y="-155.92" font-family="Arial" font-size="14.00" fill="#c6c5fe">dist/redis/redis.providers.js</text>
</g>
<!-- dist/redis/redis&#45;core.module.js&#45;&gt;dist/redis/redis.providers.js -->
<g id="edge42" class="edge">
<title>dist/redis/redis&#45;core.module.js&#45;&gt;dist/redis/redis.providers.js</title>
<path fill="none" stroke="#757575" d="M552.57,-165.73C570.88,-165 590.03,-164.23 608.33,-163.5"/>
<polygon fill="#757575" stroke="#757575" points="608.55,-167 618.4,-163.1 608.27,-160 608.55,-167"/>
</g>
<!-- dist/redis/redis.providers.js&#45;&gt;dist/redis/common/index.js -->
<g id="edge45" class="edge">
<title>dist/redis/redis.providers.js&#45;&gt;dist/redis/common/index.js</title>
<path fill="none" stroke="#757575" d="M780.91,-148.11C811.58,-143.3 847.38,-137.68 879.04,-132.71"/>
<polygon fill="#757575" stroke="#757575" points="879.83,-136.13 889.16,-131.13 878.74,-129.22 879.83,-136.13"/>
</g>
<!-- dist/redis/redis.providers.js&#45;&gt;dist/redis/redis.constants.js -->
<g id="edge46" class="edge">
<title>dist/redis/redis.providers.js&#45;&gt;dist/redis/redis.constants.js</title>
<path fill="none" stroke="#757575" d="M794.75,-166.04C921.53,-173.7 1163.74,-182.09 1367,-152.62 1401.2,-147.66 1438.8,-136.65 1466.49,-127.43"/>
<polygon fill="#757575" stroke="#757575" points="1467.87,-130.66 1476.22,-124.13 1465.62,-124.03 1467.87,-130.66"/>
</g>
<!-- dist/redis/redis.providers.js&#45;&gt;dist/redis/redis.service.js -->
<g id="edge47" class="edge">
<title>dist/redis/redis.providers.js&#45;&gt;dist/redis/redis.service.js</title>
<path fill="none" stroke="#757575" d="M756.37,-171.16C774.51,-175.55 795.23,-180.68 814,-185.62 847.26,-194.38 884.5,-204.92 913.37,-213.24"/>
<polygon fill="#757575" stroke="#757575" points="912.63,-216.67 923.21,-216.09 914.58,-209.95 912.63,-216.67"/>
</g>
<!-- health/index.js -->
<g id="node25" class="node">
<title>health/index.js</title>
<path fill="none" stroke="#c6c5fe" d="M259.83,-345.12C259.83,-345.12 172.17,-345.12 172.17,-345.12 168.33,-345.12 164.5,-341.29 164.5,-337.46 164.5,-337.46 164.5,-329.79 164.5,-329.79 164.5,-325.96 168.33,-322.12 172.17,-322.12 172.17,-322.12 259.83,-322.12 259.83,-322.12 263.67,-322.12 267.5,-325.96 267.5,-329.79 267.5,-329.79 267.5,-337.46 267.5,-337.46 267.5,-341.29 263.67,-345.12 259.83,-345.12"/>
<text text-anchor="middle" x="216" y="-329.92" font-family="Arial" font-size="14.00" fill="#c6c5fe">health/index.js</text>
</g>
<!-- health/index.js&#45;&gt;dist/health/index.js -->
<g id="edge51" class="edge">
<title>health/index.js&#45;&gt;dist/health/index.js</title>
<path fill="none" stroke="#757575" d="M267.63,-333.62C300.31,-333.62 343.36,-333.62 379.75,-333.62"/>
<polygon fill="#757575" stroke="#757575" points="379.82,-337.12 389.82,-333.62 379.82,-330.12 379.82,-337.12"/>
</g>
</g>
</svg>
