<?xml version="1.0" encoding="UTF-8" standalone="no"?>
<!DOCTYPE svg PUBLIC "-//W3C//DTD SVG 1.1//EN"
 "http://www.w3.org/Graphics/SVG/1.1/DTD/svg11.dtd">
<!-- Generated by graphviz version 2.43.0 (0)
 -->
<!-- Title: G Pages: 1 -->
<svg width="1657pt" height="701pt"
 viewBox="0.00 0.00 1657.20 701.20" xmlns="http://www.w3.org/2000/svg" xmlns:xlink="http://www.w3.org/1999/xlink">
<g id="graph0" class="graph" transform="scale(1 1) rotate(0) translate(21.6 679.6)">
<title>G</title>
<polygon fill="#111111" stroke="transparent" points="-21.6,21.6 -21.6,-679.6 1635.6,-679.6 1635.6,21.6 -21.6,21.6"/>
<!-- dist/cluster/cluster&#45;core.module.js -->
<g id="node1" class="node">
<title>dist/cluster/cluster&#45;core.module.js</title>
<path fill="none" stroke="#c6c5fe" d="M555.33,-146.5C555.33,-146.5 352.67,-146.5 352.67,-146.5 348.83,-146.5 345,-142.67 345,-138.83 345,-138.83 345,-131.17 345,-131.17 345,-127.33 348.83,-123.5 352.67,-123.5 352.67,-123.5 555.33,-123.5 555.33,-123.5 559.17,-123.5 563,-127.33 563,-131.17 563,-131.17 563,-138.83 563,-138.83 563,-142.67 559.17,-146.5 555.33,-146.5"/>
<text text-anchor="middle" x="454" y="-131.3" font-family="Arial" font-size="14.00" fill="#c6c5fe">dist/cluster/cluster&#45;core.module.js</text>
</g>
<!-- dist/cluster/cluster&#45;manager.js -->
<g id="node2" class="node">
<title>dist/cluster/cluster&#45;manager.js</title>
<path fill="none" stroke="#c6c5fe" d="M1053.83,-203.5C1053.83,-203.5 873.17,-203.5 873.17,-203.5 869.33,-203.5 865.5,-199.67 865.5,-195.83 865.5,-195.83 865.5,-188.17 865.5,-188.17 865.5,-184.33 869.33,-180.5 873.17,-180.5 873.17,-180.5 1053.83,-180.5 1053.83,-180.5 1057.67,-180.5 1061.5,-184.33 1061.5,-188.17 1061.5,-188.17 1061.5,-195.83 1061.5,-195.83 1061.5,-199.67 1057.67,-203.5 1053.83,-203.5"/>
<text text-anchor="middle" x="963.5" y="-188.3" font-family="Arial" font-size="14.00" fill="#c6c5fe">dist/cluster/cluster&#45;manager.js</text>
</g>
<!-- dist/cluster/cluster&#45;core.module.js&#45;&gt;dist/cluster/cluster&#45;manager.js -->
<g id="edge1" class="edge">
<title>dist/cluster/cluster&#45;core.module.js&#45;&gt;dist/cluster/cluster&#45;manager.js</title>
<path fill="none" stroke="#757575" d="M557.39,-146.5C643.96,-156.22 767.56,-170.11 855.43,-179.97"/>
<polygon fill="#757575" stroke="#757575" points="855.1,-183.46 865.43,-181.1 855.88,-176.5 855.1,-183.46"/>
</g>
<!-- dist/cluster/cluster.constants.js -->
<g id="node3" class="node">
<title>dist/cluster/cluster.constants.js</title>
<path fill="none" stroke="#cfffac" d="M1600.33,-107.5C1600.33,-107.5 1416.67,-107.5 1416.67,-107.5 1412.83,-107.5 1409,-103.67 1409,-99.83 1409,-99.83 1409,-92.17 1409,-92.17 1409,-88.33 1412.83,-84.5 1416.67,-84.5 1416.67,-84.5 1600.33,-84.5 1600.33,-84.5 1604.17,-84.5 1608,-88.33 1608,-92.17 1608,-92.17 1608,-99.83 1608,-99.83 1608,-103.67 1604.17,-107.5 1600.33,-107.5"/>
<text text-anchor="middle" x="1508.5" y="-92.3" font-family="Arial" font-size="14.00" fill="#cfffac">dist/cluster/cluster.constants.js</text>
</g>
<!-- dist/cluster/cluster&#45;core.module.js&#45;&gt;dist/cluster/cluster.constants.js -->
<g id="edge2" class="edge">
<title>dist/cluster/cluster&#45;core.module.js&#45;&gt;dist/cluster/cluster.constants.js</title>
<path fill="none" stroke="#757575" d="M480.08,-123.47C508.3,-111.17 555.84,-92.46 599,-85 890.7,-34.6 1242.95,-64.01 1410.21,-83.29"/>
<polygon fill="#757575" stroke="#757575" points="1409.89,-86.78 1420.23,-84.46 1410.7,-79.83 1409.89,-86.78"/>
</g>
<!-- dist/cluster/cluster.providers.js -->
<g id="node4" class="node">
<title>dist/cluster/cluster.providers.js</title>
<path fill="none" stroke="#c6c5fe" d="M797.33,-127.5C797.33,-127.5 615.67,-127.5 615.67,-127.5 611.83,-127.5 608,-123.67 608,-119.83 608,-119.83 608,-112.17 608,-112.17 608,-108.33 611.83,-104.5 615.67,-104.5 615.67,-104.5 797.33,-104.5 797.33,-104.5 801.17,-104.5 805,-108.33 805,-112.17 805,-112.17 805,-119.83 805,-119.83 805,-123.67 801.17,-127.5 797.33,-127.5"/>
<text text-anchor="middle" x="706.5" y="-112.3" font-family="Arial" font-size="14.00" fill="#c6c5fe">dist/cluster/cluster.providers.js</text>
</g>
<!-- dist/cluster/cluster&#45;core.module.js&#45;&gt;dist/cluster/cluster.providers.js -->
<g id="edge3" class="edge">
<title>dist/cluster/cluster&#45;core.module.js&#45;&gt;dist/cluster/cluster.providers.js</title>
<path fill="none" stroke="#757575" d="M563.05,-126.8C574.52,-125.93 586.19,-125.05 597.66,-124.18"/>
<polygon fill="#757575" stroke="#757575" points="597.97,-127.67 607.67,-123.42 597.44,-120.69 597.97,-127.67"/>
</g>
<!-- dist/cluster/common/index.js -->
<g id="node5" class="node">
<title>dist/cluster/common/index.js</title>
<path fill="none" stroke="#c6c5fe" d="M1049.83,-127.5C1049.83,-127.5 877.17,-127.5 877.17,-127.5 873.33,-127.5 869.5,-123.67 869.5,-119.83 869.5,-119.83 869.5,-112.17 869.5,-112.17 869.5,-108.33 873.33,-104.5 877.17,-104.5 877.17,-104.5 1049.83,-104.5 1049.83,-104.5 1053.67,-104.5 1057.5,-108.33 1057.5,-112.17 1057.5,-112.17 1057.5,-119.83 1057.5,-119.83 1057.5,-123.67 1053.67,-127.5 1049.83,-127.5"/>
<text text-anchor="middle" x="963.5" y="-112.3" font-family="Arial" font-size="14.00" fill="#c6c5fe">dist/cluster/common/index.js</text>
</g>
<!-- dist/cluster/cluster&#45;core.module.js&#45;&gt;dist/cluster/common/index.js -->
<g id="edge4" class="edge">
<title>dist/cluster/cluster&#45;core.module.js&#45;&gt;dist/cluster/common/index.js</title>
<path fill="none" stroke="#757575" d="M486.79,-123.48C515.63,-113.69 559.54,-100.38 599,-95 697.4,-81.59 811.93,-92.55 885.73,-103.02"/>
<polygon fill="#757575" stroke="#757575" points="885.47,-106.51 895.87,-104.49 886.48,-99.59 885.47,-106.51"/>
</g>
<!-- dist/errors/index.js -->
<g id="node6" class="node">
<title>dist/errors/index.js</title>
<path fill="none" stroke="#c6c5fe" d="M1295.33,-328.5C1295.33,-328.5 1184.67,-328.5 1184.67,-328.5 1180.83,-328.5 1177,-324.67 1177,-320.83 1177,-320.83 1177,-313.17 1177,-313.17 1177,-309.33 1180.83,-305.5 1184.67,-305.5 1184.67,-305.5 1295.33,-305.5 1295.33,-305.5 1299.17,-305.5 1303,-309.33 1303,-313.17 1303,-313.17 1303,-320.83 1303,-320.83 1303,-324.67 1299.17,-328.5 1295.33,-328.5"/>
<text text-anchor="middle" x="1240" y="-313.3" font-family="Arial" font-size="14.00" fill="#c6c5fe">dist/errors/index.js</text>
</g>
<!-- dist/cluster/cluster&#45;core.module.js&#45;&gt;dist/errors/index.js -->
<g id="edge5" class="edge">
<title>dist/cluster/cluster&#45;core.module.js&#45;&gt;dist/errors/index.js</title>
<path fill="none" stroke="#757575" d="M490.89,-146.55C519.89,-155.68 561.86,-168.44 599,-178 804.42,-230.9 1050.34,-280.52 1168.63,-303.54"/>
<polygon fill="#757575" stroke="#757575" points="1168.16,-307.02 1178.64,-305.49 1169.49,-300.15 1168.16,-307.02"/>
</g>
<!-- dist/cluster/cluster&#45;manager.js&#45;&gt;dist/cluster/cluster.constants.js -->
<g id="edge6" class="edge">
<title>dist/cluster/cluster&#45;manager.js&#45;&gt;dist/cluster/cluster.constants.js</title>
<path fill="none" stroke="#757575" d="M1061.7,-201.28C1144.53,-206.16 1265.86,-206.09 1367,-177 1412.22,-163.99 1458.27,-133.45 1484.8,-113.81"/>
<polygon fill="#757575" stroke="#757575" points="1487.14,-116.43 1493.02,-107.61 1482.93,-110.84 1487.14,-116.43"/>
</g>
<!-- dist/cluster/cluster&#45;manager.js&#45;&gt;dist/errors/index.js -->
<g id="edge7" class="edge">
<title>dist/cluster/cluster&#45;manager.js&#45;&gt;dist/errors/index.js</title>
<path fill="none" stroke="#757575" d="M1041.45,-203.57C1053.79,-207.15 1066.08,-211.85 1077,-218 1096.99,-229.26 1094.44,-241.52 1113,-255 1139.59,-274.31 1173.1,-290.47 1198.88,-301.45"/>
<polygon fill="#757575" stroke="#757575" points="1197.78,-304.78 1208.36,-305.4 1200.47,-298.32 1197.78,-304.78"/>
</g>
<!-- dist/utils/index.js -->
<g id="node7" class="node">
<title>dist/utils/index.js</title>
<path fill="none" stroke="#cfffac" d="M1558.33,-262.5C1558.33,-262.5 1458.67,-262.5 1458.67,-262.5 1454.83,-262.5 1451,-258.67 1451,-254.83 1451,-254.83 1451,-247.17 1451,-247.17 1451,-243.33 1454.83,-239.5 1458.67,-239.5 1458.67,-239.5 1558.33,-239.5 1558.33,-239.5 1562.17,-239.5 1566,-243.33 1566,-247.17 1566,-247.17 1566,-254.83 1566,-254.83 1566,-258.67 1562.17,-262.5 1558.33,-262.5"/>
<text text-anchor="middle" x="1508.5" y="-247.3" font-family="Arial" font-size="14.00" fill="#cfffac">dist/utils/index.js</text>
</g>
<!-- dist/cluster/cluster&#45;manager.js&#45;&gt;dist/utils/index.js -->
<g id="edge8" class="edge">
<title>dist/cluster/cluster&#45;manager.js&#45;&gt;dist/utils/index.js</title>
<path fill="none" stroke="#757575" d="M1051.61,-203.53C1071.76,-206.09 1093.12,-208.72 1113,-211 1228.04,-224.19 1362.21,-237.31 1440.71,-244.77"/>
<polygon fill="#757575" stroke="#757575" points="1440.66,-248.28 1450.94,-245.73 1441.32,-241.31 1440.66,-248.28"/>
</g>
<!-- dist/cluster/cluster.providers.js&#45;&gt;dist/cluster/cluster&#45;manager.js -->
<g id="edge10" class="edge">
<title>dist/cluster/cluster.providers.js&#45;&gt;dist/cluster/cluster&#45;manager.js</title>
<path fill="none" stroke="#757575" d="M758.66,-127.55C776.28,-131.78 796.09,-136.81 814,-142 850.62,-152.61 891.65,-166.59 921.29,-177.07"/>
<polygon fill="#757575" stroke="#757575" points="920.29,-180.43 930.88,-180.48 922.63,-173.83 920.29,-180.43"/>
</g>
<!-- dist/cluster/cluster.providers.js&#45;&gt;dist/cluster/cluster.constants.js -->
<g id="edge11" class="edge">
<title>dist/cluster/cluster.providers.js&#45;&gt;dist/cluster/cluster.constants.js</title>
<path fill="none" stroke="#757575" d="M771.83,-104.48C796.23,-100.65 824.31,-96.88 850,-95 1042.78,-80.87 1268.21,-85.87 1398.75,-90.88"/>
<polygon fill="#757575" stroke="#757575" points="1398.63,-94.37 1408.75,-91.27 1398.9,-87.38 1398.63,-94.37"/>
</g>
<!-- dist/cluster/cluster.providers.js&#45;&gt;dist/cluster/common/index.js -->
<g id="edge12" class="edge">
<title>dist/cluster/cluster.providers.js&#45;&gt;dist/cluster/common/index.js</title>
<path fill="none" stroke="#757575" d="M805.36,-116C822.85,-116 841.14,-116 858.79,-116"/>
<polygon fill="#757575" stroke="#757575" points="859.1,-119.5 869.1,-116 859.1,-112.5 859.1,-119.5"/>
</g>
<!-- dist/cluster/common/cluster.decorator.js -->
<g id="node9" class="node">
<title>dist/cluster/common/cluster.decorator.js</title>
<path fill="none" stroke="#c6c5fe" d="M1359.33,-127.5C1359.33,-127.5 1120.67,-127.5 1120.67,-127.5 1116.83,-127.5 1113,-123.67 1113,-119.83 1113,-119.83 1113,-112.17 1113,-112.17 1113,-108.33 1116.83,-104.5 1120.67,-104.5 1120.67,-104.5 1359.33,-104.5 1359.33,-104.5 1363.17,-104.5 1367,-108.33 1367,-112.17 1367,-112.17 1367,-119.83 1367,-119.83 1367,-123.67 1363.17,-127.5 1359.33,-127.5"/>
<text text-anchor="middle" x="1240" y="-112.3" font-family="Arial" font-size="14.00" fill="#c6c5fe">dist/cluster/common/cluster.decorator.js</text>
</g>
<!-- dist/cluster/common/index.js&#45;&gt;dist/cluster/common/cluster.decorator.js -->
<g id="edge17" class="edge">
<title>dist/cluster/common/index.js&#45;&gt;dist/cluster/common/cluster.decorator.js</title>
<path fill="none" stroke="#757575" d="M1057.82,-116C1072.35,-116 1087.62,-116 1102.87,-116"/>
<polygon fill="#757575" stroke="#757575" points="1102.88,-119.5 1112.88,-116 1102.88,-112.5 1102.88,-119.5"/>
</g>
<!-- dist/cluster/common/cluster.utils.js -->
<g id="node10" class="node">
<title>dist/cluster/common/cluster.utils.js</title>
<path fill="none" stroke="#c6c5fe" d="M1343.33,-168.5C1343.33,-168.5 1136.67,-168.5 1136.67,-168.5 1132.83,-168.5 1129,-164.67 1129,-160.83 1129,-160.83 1129,-153.17 1129,-153.17 1129,-149.33 1132.83,-145.5 1136.67,-145.5 1136.67,-145.5 1343.33,-145.5 1343.33,-145.5 1347.17,-145.5 1351,-149.33 1351,-153.17 1351,-153.17 1351,-160.83 1351,-160.83 1351,-164.67 1347.17,-168.5 1343.33,-168.5"/>
<text text-anchor="middle" x="1240" y="-153.3" font-family="Arial" font-size="14.00" fill="#c6c5fe">dist/cluster/common/cluster.utils.js</text>
</g>
<!-- dist/cluster/common/index.js&#45;&gt;dist/cluster/common/cluster.utils.js -->
<g id="edge18" class="edge">
<title>dist/cluster/common/index.js&#45;&gt;dist/cluster/common/cluster.utils.js</title>
<path fill="none" stroke="#757575" d="M1041.69,-127.53C1075.9,-132.64 1116.3,-138.67 1151.61,-143.95"/>
<polygon fill="#757575" stroke="#757575" points="1151.5,-147.47 1161.91,-145.49 1152.54,-140.55 1151.5,-147.47"/>
</g>
<!-- dist/errors/messages.constant.js -->
<g id="node11" class="node">
<title>dist/errors/messages.constant.js</title>
<path fill="none" stroke="#cfffac" d="M1606.33,-323.5C1606.33,-323.5 1410.67,-323.5 1410.67,-323.5 1406.83,-323.5 1403,-319.67 1403,-315.83 1403,-315.83 1403,-308.17 1403,-308.17 1403,-304.33 1406.83,-300.5 1410.67,-300.5 1410.67,-300.5 1606.33,-300.5 1606.33,-300.5 1610.17,-300.5 1614,-304.33 1614,-308.17 1614,-308.17 1614,-315.83 1614,-315.83 1614,-319.67 1610.17,-323.5 1606.33,-323.5"/>
<text text-anchor="middle" x="1508.5" y="-308.3" font-family="Arial" font-size="14.00" fill="#cfffac">dist/errors/messages.constant.js</text>
</g>
<!-- dist/errors/index.js&#45;&gt;dist/errors/messages.constant.js -->
<g id="edge19" class="edge">
<title>dist/errors/index.js&#45;&gt;dist/errors/messages.constant.js</title>
<path fill="none" stroke="#757575" d="M1303.15,-315.83C1329.82,-315.33 1361.86,-314.73 1392.58,-314.16"/>
<polygon fill="#757575" stroke="#757575" points="1393,-317.65 1402.94,-313.96 1392.87,-310.65 1393,-317.65"/>
</g>
<!-- dist/errors/redis.error.js -->
<g id="node12" class="node">
<title>dist/errors/redis.error.js</title>
<path fill="none" stroke="#cfffac" d="M1578.33,-364.5C1578.33,-364.5 1438.67,-364.5 1438.67,-364.5 1434.83,-364.5 1431,-360.67 1431,-356.83 1431,-356.83 1431,-349.17 1431,-349.17 1431,-345.33 1434.83,-341.5 1438.67,-341.5 1438.67,-341.5 1578.33,-341.5 1578.33,-341.5 1582.17,-341.5 1586,-345.33 1586,-349.17 1586,-349.17 1586,-356.83 1586,-356.83 1586,-360.67 1582.17,-364.5 1578.33,-364.5"/>
<text text-anchor="middle" x="1508.5" y="-349.3" font-family="Arial" font-size="14.00" fill="#cfffac">dist/errors/redis.error.js</text>
</g>
<!-- dist/errors/index.js&#45;&gt;dist/errors/redis.error.js -->
<g id="edge20" class="edge">
<title>dist/errors/index.js&#45;&gt;dist/errors/redis.error.js</title>
<path fill="none" stroke="#757575" d="M1303.15,-325.39C1338.16,-330.12 1382.44,-336.11 1420.82,-341.29"/>
<polygon fill="#757575" stroke="#757575" points="1420.58,-344.79 1430.96,-342.66 1421.52,-337.85 1420.58,-344.79"/>
</g>
<!-- dist/cluster/cluster.module.js -->
<g id="node8" class="node">
<title>dist/cluster/cluster.module.js</title>
<path fill="none" stroke="#c6c5fe" d="M301.33,-165.5C301.33,-165.5 130.67,-165.5 130.67,-165.5 126.83,-165.5 123,-161.67 123,-157.83 123,-157.83 123,-150.17 123,-150.17 123,-146.33 126.83,-142.5 130.67,-142.5 130.67,-142.5 301.33,-142.5 301.33,-142.5 305.17,-142.5 309,-146.33 309,-150.17 309,-150.17 309,-157.83 309,-157.83 309,-161.67 305.17,-165.5 301.33,-165.5"/>
<text text-anchor="middle" x="216" y="-150.3" font-family="Arial" font-size="14.00" fill="#c6c5fe">dist/cluster/cluster.module.js</text>
</g>
<!-- dist/cluster/cluster.module.js&#45;&gt;dist/cluster/cluster&#45;core.module.js -->
<g id="edge9" class="edge">
<title>dist/cluster/cluster.module.js&#45;&gt;dist/cluster/cluster&#45;core.module.js</title>
<path fill="none" stroke="#757575" d="M309.26,-146.57C317.62,-145.9 326.16,-145.21 334.71,-144.52"/>
<polygon fill="#757575" stroke="#757575" points="335.05,-148.01 344.73,-143.72 334.48,-141.03 335.05,-148.01"/>
</g>
<!-- dist/cluster/common/cluster.decorator.js&#45;&gt;dist/cluster/cluster.constants.js -->
<g id="edge13" class="edge">
<title>dist/cluster/common/cluster.decorator.js&#45;&gt;dist/cluster/cluster.constants.js</title>
<path fill="none" stroke="#757575" d="M1367.23,-106.53C1377.72,-105.74 1388.27,-104.95 1398.62,-104.17"/>
<polygon fill="#757575" stroke="#757575" points="1399.18,-107.64 1408.89,-103.4 1398.66,-100.66 1399.18,-107.64"/>
</g>
<!-- dist/cluster/common/cluster.decorator.js&#45;&gt;dist/utils/index.js -->
<g id="edge14" class="edge">
<title>dist/cluster/common/cluster.decorator.js&#45;&gt;dist/utils/index.js</title>
<path fill="none" stroke="#757575" d="M1343.45,-127.5C1351.57,-129.84 1359.52,-132.65 1367,-136 1418.09,-158.92 1465.92,-205.4 1490.42,-231.71"/>
<polygon fill="#757575" stroke="#757575" points="1487.92,-234.16 1497.25,-239.18 1493.09,-229.44 1487.92,-234.16"/>
</g>
<!-- dist/cluster/common/cluster.utils.js&#45;&gt;dist/cluster/cluster.constants.js -->
<g id="edge15" class="edge">
<title>dist/cluster/common/cluster.utils.js&#45;&gt;dist/cluster/cluster.constants.js</title>
<path fill="none" stroke="#757575" d="M1318.56,-145.48C1334.64,-142.7 1351.42,-139.5 1367,-136 1398.84,-128.84 1434.18,-118.77 1461.45,-110.52"/>
<polygon fill="#757575" stroke="#757575" points="1462.56,-113.84 1471.11,-107.58 1460.52,-107.15 1462.56,-113.84"/>
</g>
<!-- dist/cluster/common/cluster.utils.js&#45;&gt;dist/utils/index.js -->
<g id="edge16" class="edge">
<title>dist/cluster/common/cluster.utils.js&#45;&gt;dist/utils/index.js</title>
<path fill="none" stroke="#757575" d="M1273.68,-168.53C1321.83,-185.51 1411.87,-217.27 1465.07,-236.03"/>
<polygon fill="#757575" stroke="#757575" points="1463.96,-239.35 1474.55,-239.38 1466.29,-232.75 1463.96,-239.35"/>
</g>
<!-- dist/health/index.js -->
<g id="node13" class="node">
<title>dist/health/index.js</title>
<path fill="none" stroke="#c6c5fe" d="M510.33,-340.5C510.33,-340.5 397.67,-340.5 397.67,-340.5 393.83,-340.5 390,-336.67 390,-332.83 390,-332.83 390,-325.17 390,-325.17 390,-321.33 393.83,-317.5 397.67,-317.5 397.67,-317.5 510.33,-317.5 510.33,-317.5 514.17,-317.5 518,-321.33 518,-325.17 518,-325.17 518,-332.83 518,-332.83 518,-336.67 514.17,-340.5 510.33,-340.5"/>
<text text-anchor="middle" x="454" y="-325.3" font-family="Arial" font-size="14.00" fill="#c6c5fe">dist/health/index.js</text>
</g>
<!-- dist/health/indicators/redis.health.js -->
<g id="node14" class="node">
<title>dist/health/indicators/redis.health.js</title>
<path fill="none" stroke="#c6c5fe" d="M1069.33,-328.5C1069.33,-328.5 857.67,-328.5 857.67,-328.5 853.83,-328.5 850,-324.67 850,-320.83 850,-320.83 850,-313.17 850,-313.17 850,-309.33 853.83,-305.5 857.67,-305.5 857.67,-305.5 1069.33,-305.5 1069.33,-305.5 1073.17,-305.5 1077,-309.33 1077,-313.17 1077,-313.17 1077,-320.83 1077,-320.83 1077,-324.67 1073.17,-328.5 1069.33,-328.5"/>
<text text-anchor="middle" x="963.5" y="-313.3" font-family="Arial" font-size="14.00" fill="#c6c5fe">dist/health/indicators/redis.health.js</text>
</g>
<!-- dist/health/index.js&#45;&gt;dist/health/indicators/redis.health.js -->
<g id="edge21" class="edge">
<title>dist/health/index.js&#45;&gt;dist/health/indicators/redis.health.js</title>
<path fill="none" stroke="#757575" d="M518.25,-327.5C598.35,-325.61 738.14,-322.31 839.56,-319.91"/>
<polygon fill="#757575" stroke="#757575" points="839.64,-323.41 849.56,-319.67 839.48,-316.41 839.64,-323.41"/>
</g>
<!-- dist/health/redis&#45;health.module.js -->
<g id="node15" class="node">
<title>dist/health/redis&#45;health.module.js</title>
<path fill="none" stroke="#c6c5fe" d="M806.33,-359.5C806.33,-359.5 606.67,-359.5 606.67,-359.5 602.83,-359.5 599,-355.67 599,-351.83 599,-351.83 599,-344.17 599,-344.17 599,-340.33 602.83,-336.5 606.67,-336.5 606.67,-336.5 806.33,-336.5 806.33,-336.5 810.17,-336.5 814,-340.33 814,-344.17 814,-344.17 814,-351.83 814,-351.83 814,-355.67 810.17,-359.5 806.33,-359.5"/>
<text text-anchor="middle" x="706.5" y="-344.3" font-family="Arial" font-size="14.00" fill="#c6c5fe">dist/health/redis&#45;health.module.js</text>
</g>
<!-- dist/health/index.js&#45;&gt;dist/health/redis&#45;health.module.js -->
<g id="edge22" class="edge">
<title>dist/health/index.js&#45;&gt;dist/health/redis&#45;health.module.js</title>
<path fill="none" stroke="#757575" d="M518.21,-333.79C539.74,-335.43 564.54,-337.31 588.9,-339.16"/>
<polygon fill="#757575" stroke="#757575" points="588.7,-342.65 598.94,-339.92 589.23,-335.67 588.7,-342.65"/>
</g>
<!-- dist/health/indicators/redis.health.js&#45;&gt;dist/errors/index.js -->
<g id="edge23" class="edge">
<title>dist/health/indicators/redis.health.js&#45;&gt;dist/errors/index.js</title>
<path fill="none" stroke="#757575" d="M1077.34,-317C1107.5,-317 1139.28,-317 1166.61,-317"/>
<polygon fill="#757575" stroke="#757575" points="1166.85,-320.5 1176.85,-317 1166.85,-313.5 1166.85,-320.5"/>
</g>
<!-- dist/health/redis&#45;health.module.js&#45;&gt;dist/health/indicators/redis.health.js -->
<g id="edge24" class="edge">
<title>dist/health/redis&#45;health.module.js&#45;&gt;dist/health/indicators/redis.health.js</title>
<path fill="none" stroke="#757575" d="M802.45,-336.46C820.49,-334.26 839.47,-331.96 857.79,-329.73"/>
<polygon fill="#757575" stroke="#757575" points="858.39,-333.18 867.89,-328.5 857.54,-326.23 858.39,-333.18"/>
</g>
<!-- dist/index.js -->
<g id="node16" class="node">
<title>dist/index.js</title>
<path fill="none" stroke="#c6c5fe" d="M79.33,-340.5C79.33,-340.5 7.67,-340.5 7.67,-340.5 3.83,-340.5 0,-336.67 0,-332.83 0,-332.83 0,-325.17 0,-325.17 0,-321.33 3.83,-317.5 7.67,-317.5 7.67,-317.5 79.33,-317.5 79.33,-317.5 83.17,-317.5 87,-321.33 87,-325.17 87,-325.17 87,-332.83 87,-332.83 87,-336.67 83.17,-340.5 79.33,-340.5"/>
<text text-anchor="middle" x="43.5" y="-325.3" font-family="Arial" font-size="14.00" fill="#c6c5fe">dist/index.js</text>
</g>
<!-- dist/index.js&#45;&gt;dist/cluster/cluster&#45;manager.js -->
<g id="edge25" class="edge">
<title>dist/index.js&#45;&gt;dist/cluster/cluster&#45;manager.js</title>
<path fill="none" stroke="#757575" d="M83.81,-317.46C96.26,-314.08 110.14,-310.6 123,-308 261.67,-279.98 665.74,-228.6 858.22,-204.77"/>
<polygon fill="#757575" stroke="#757575" points="858.85,-208.21 868.34,-203.51 857.99,-201.27 858.85,-208.21"/>
</g>
<!-- dist/index.js&#45;&gt;dist/cluster/cluster.constants.js -->
<g id="edge26" class="edge">
<title>dist/index.js&#45;&gt;dist/cluster/cluster.constants.js</title>
<path fill="none" stroke="#757575" d="M45.99,-317.09C50.81,-283.55 68.89,-187.23 123,-133 234.69,-21.06 294.87,0 453,0 453,0 453,0 964.5,0 1145.17,0 1190.14,-20.09 1367,-57 1398.78,-63.63 1433.98,-73.41 1461.2,-81.51"/>
<polygon fill="#757575" stroke="#757575" points="1460.26,-84.88 1470.84,-84.41 1462.28,-78.18 1460.26,-84.88"/>
</g>
<!-- dist/index.js&#45;&gt;dist/cluster/common/index.js -->
<g id="edge28" class="edge">
<title>dist/index.js&#45;&gt;dist/cluster/common/index.js</title>
<path fill="none" stroke="#757575" d="M57.66,-317.36C72.48,-304.9 97.81,-285.5 123,-275 257.1,-219.11 677.44,-155.67 867.51,-128.95"/>
<polygon fill="#757575" stroke="#757575" points="868.07,-132.4 877.49,-127.55 867.1,-125.47 868.07,-132.4"/>
</g>
<!-- dist/index.js&#45;&gt;dist/cluster/cluster.module.js -->
<g id="edge27" class="edge">
<title>dist/index.js&#45;&gt;dist/cluster/cluster.module.js</title>
<path fill="none" stroke="#757575" d="M47.27,-317.29C54.54,-289.16 76.87,-217.35 123,-180 127.99,-175.96 133.58,-172.54 139.47,-169.66"/>
<polygon fill="#757575" stroke="#757575" points="141.15,-172.74 148.93,-165.55 138.36,-166.32 141.15,-172.74"/>
</g>
<!-- dist/redis/common/index.js -->
<g id="node17" class="node">
<title>dist/redis/common/index.js</title>
<path fill="none" stroke="#c6c5fe" d="M1044.33,-515.5C1044.33,-515.5 882.67,-515.5 882.67,-515.5 878.83,-515.5 875,-511.67 875,-507.83 875,-507.83 875,-500.17 875,-500.17 875,-496.33 878.83,-492.5 882.67,-492.5 882.67,-492.5 1044.33,-492.5 1044.33,-492.5 1048.17,-492.5 1052,-496.33 1052,-500.17 1052,-500.17 1052,-507.83 1052,-507.83 1052,-511.67 1048.17,-515.5 1044.33,-515.5"/>
<text text-anchor="middle" x="963.5" y="-500.3" font-family="Arial" font-size="14.00" fill="#c6c5fe">dist/redis/common/index.js</text>
</g>
<!-- dist/index.js&#45;&gt;dist/redis/common/index.js -->
<g id="edge29" class="edge">
<title>dist/index.js&#45;&gt;dist/redis/common/index.js</title>
<path fill="none" stroke="#757575" d="M47.45,-340.56C55,-367.6 77.66,-435.16 123,-468 297.71,-594.54 384.32,-541.79 599,-563 694.09,-572.4 720.15,-580.96 814,-563 856.35,-554.9 902.02,-534.88 931.36,-520.41"/>
<polygon fill="#757575" stroke="#757575" points="933.29,-523.36 940.66,-515.74 930.15,-517.1 933.29,-523.36"/>
</g>
<!-- dist/redis/redis&#45;manager.js -->
<g id="node18" class="node">
<title>dist/redis/redis&#45;manager.js</title>
<path fill="none" stroke="#c6c5fe" d="M1043.33,-474.5C1043.33,-474.5 883.67,-474.5 883.67,-474.5 879.83,-474.5 876,-470.67 876,-466.83 876,-466.83 876,-459.17 876,-459.17 876,-455.33 879.83,-451.5 883.67,-451.5 883.67,-451.5 1043.33,-451.5 1043.33,-451.5 1047.17,-451.5 1051,-455.33 1051,-459.17 1051,-459.17 1051,-466.83 1051,-466.83 1051,-470.67 1047.17,-474.5 1043.33,-474.5"/>
<text text-anchor="middle" x="963.5" y="-459.3" font-family="Arial" font-size="14.00" fill="#c6c5fe">dist/redis/redis&#45;manager.js</text>
</g>
<!-- dist/index.js&#45;&gt;dist/redis/redis&#45;manager.js -->
<g id="edge30" class="edge">
<title>dist/index.js&#45;&gt;dist/redis/redis&#45;manager.js</title>
<path fill="none" stroke="#757575" d="M83.8,-340.57C96.26,-343.95 110.14,-347.42 123,-350 389.5,-403.36 708.76,-438.57 865.69,-454.02"/>
<polygon fill="#757575" stroke="#757575" points="865.5,-457.52 875.79,-455.01 866.18,-450.56 865.5,-457.52"/>
</g>
<!-- dist/redis/redis.constants.js -->
<g id="node19" class="node">
<title>dist/redis/redis.constants.js</title>
<path fill="none" stroke="#cfffac" d="M1590.33,-535.5C1590.33,-535.5 1426.67,-535.5 1426.67,-535.5 1422.83,-535.5 1419,-531.67 1419,-527.83 1419,-527.83 1419,-520.17 1419,-520.17 1419,-516.33 1422.83,-512.5 1426.67,-512.5 1426.67,-512.5 1590.33,-512.5 1590.33,-512.5 1594.17,-512.5 1598,-516.33 1598,-520.17 1598,-520.17 1598,-527.83 1598,-527.83 1598,-531.67 1594.17,-535.5 1590.33,-535.5"/>
<text text-anchor="middle" x="1508.5" y="-520.3" font-family="Arial" font-size="14.00" fill="#cfffac">dist/redis/redis.constants.js</text>
</g>
<!-- dist/index.js&#45;&gt;dist/redis/redis.constants.js -->
<g id="edge31" class="edge">
<title>dist/index.js&#45;&gt;dist/redis/redis.constants.js</title>
<path fill="none" stroke="#757575" d="M46.05,-340.78C51,-373.94 69.41,-469.2 123,-523 234.84,-635.27 294.54,-658 453,-658 453,-658 453,-658 964.5,-658 1146.15,-658 1193.36,-640.34 1367,-587 1406.32,-574.92 1449.12,-554.6 1477.03,-540.32"/>
<polygon fill="#757575" stroke="#757575" points="1478.98,-543.25 1486.24,-535.54 1475.75,-537.03 1478.98,-543.25"/>
</g>
<!-- dist/redis/redis.module.js -->
<g id="node20" class="node">
<title>dist/redis/redis.module.js</title>
<path fill="none" stroke="#c6c5fe" d="M291.33,-458.5C291.33,-458.5 140.67,-458.5 140.67,-458.5 136.83,-458.5 133,-454.67 133,-450.83 133,-450.83 133,-443.17 133,-443.17 133,-439.33 136.83,-435.5 140.67,-435.5 140.67,-435.5 291.33,-435.5 291.33,-435.5 295.17,-435.5 299,-439.33 299,-443.17 299,-443.17 299,-450.83 299,-450.83 299,-454.67 295.17,-458.5 291.33,-458.5"/>
<text text-anchor="middle" x="216" y="-443.3" font-family="Arial" font-size="14.00" fill="#c6c5fe">dist/redis/redis.module.js</text>
</g>
<!-- dist/index.js&#45;&gt;dist/redis/redis.module.js -->
<g id="edge32" class="edge">
<title>dist/index.js&#45;&gt;dist/redis/redis.module.js</title>
<path fill="none" stroke="#757575" d="M55.04,-340.76C69.33,-356.22 96.16,-383.56 123,-402 139.69,-413.47 159.74,-423.64 176.86,-431.4"/>
<polygon fill="#757575" stroke="#757575" points="175.47,-434.61 186.03,-435.45 178.3,-428.21 175.47,-434.61"/>
</g>
<!-- dist/redis/common/redis.decorator.js -->
<g id="node21" class="node">
<title>dist/redis/common/redis.decorator.js</title>
<path fill="none" stroke="#c6c5fe" d="M1349.33,-435.5C1349.33,-435.5 1130.67,-435.5 1130.67,-435.5 1126.83,-435.5 1123,-431.67 1123,-427.83 1123,-427.83 1123,-420.17 1123,-420.17 1123,-416.33 1126.83,-412.5 1130.67,-412.5 1130.67,-412.5 1349.33,-412.5 1349.33,-412.5 1353.17,-412.5 1357,-416.33 1357,-420.17 1357,-420.17 1357,-427.83 1357,-427.83 1357,-431.67 1353.17,-435.5 1349.33,-435.5"/>
<text text-anchor="middle" x="1240" y="-420.3" font-family="Arial" font-size="14.00" fill="#c6c5fe">dist/redis/common/redis.decorator.js</text>
</g>
<!-- dist/redis/common/index.js&#45;&gt;dist/redis/common/redis.decorator.js -->
<g id="edge33" class="edge">
<title>dist/redis/common/index.js&#45;&gt;dist/redis/common/redis.decorator.js</title>
<path fill="none" stroke="#757575" d="M1040.25,-492.45C1052.62,-490.02 1065.23,-487.2 1077,-484 1121.2,-471.99 1170.31,-452.96 1202.74,-439.56"/>
<polygon fill="#757575" stroke="#757575" points="1204.37,-442.67 1212.25,-435.59 1201.68,-436.21 1204.37,-442.67"/>
</g>
<!-- dist/redis/common/redis.utils.js -->
<g id="node22" class="node">
<title>dist/redis/common/redis.utils.js</title>
<path fill="none" stroke="#c6c5fe" d="M1333.33,-515.5C1333.33,-515.5 1146.67,-515.5 1146.67,-515.5 1142.83,-515.5 1139,-511.67 1139,-507.83 1139,-507.83 1139,-500.17 1139,-500.17 1139,-496.33 1142.83,-492.5 1146.67,-492.5 1146.67,-492.5 1333.33,-492.5 1333.33,-492.5 1337.17,-492.5 1341,-496.33 1341,-500.17 1341,-500.17 1341,-507.83 1341,-507.83 1341,-511.67 1337.17,-515.5 1333.33,-515.5"/>
<text text-anchor="middle" x="1240" y="-500.3" font-family="Arial" font-size="14.00" fill="#c6c5fe">dist/redis/common/redis.utils.js</text>
</g>
<!-- dist/redis/common/index.js&#45;&gt;dist/redis/common/redis.utils.js -->
<g id="edge34" class="edge">
<title>dist/redis/common/index.js&#45;&gt;dist/redis/common/redis.utils.js</title>
<path fill="none" stroke="#757575" d="M1052.11,-504C1076.49,-504 1103.28,-504 1128.78,-504"/>
<polygon fill="#757575" stroke="#757575" points="1128.86,-507.5 1138.86,-504 1128.86,-500.5 1128.86,-507.5"/>
</g>
<!-- dist/redis/redis&#45;manager.js&#45;&gt;dist/errors/index.js -->
<g id="edge44" class="edge">
<title>dist/redis/redis&#45;manager.js&#45;&gt;dist/errors/index.js</title>
<path fill="none" stroke="#757575" d="M1051.2,-451.57C1060.5,-447.91 1069.35,-443.16 1077,-437 1106.11,-413.56 1085.2,-385.99 1113,-361 1128.18,-347.35 1147.84,-337.89 1167.1,-331.34"/>
<polygon fill="#757575" stroke="#757575" points="1168.32,-334.62 1176.8,-328.27 1166.21,-327.95 1168.32,-334.62"/>
</g>
<!-- dist/redis/redis&#45;manager.js&#45;&gt;dist/utils/index.js -->
<g id="edge46" class="edge">
<title>dist/redis/redis&#45;manager.js&#45;&gt;dist/utils/index.js</title>
<path fill="none" stroke="#757575" d="M1039.08,-451.48C1052.14,-447.88 1065.29,-443.16 1077,-437 1096.21,-426.89 1093.93,-414.37 1113,-404 1215.47,-348.28 1269.8,-402.47 1367,-338 1388.93,-323.46 1381.92,-306.74 1403,-291 1417.44,-280.22 1435.15,-271.99 1451.85,-265.89"/>
<polygon fill="#757575" stroke="#757575" points="1453.22,-269.12 1461.53,-262.54 1450.94,-262.51 1453.22,-269.12"/>
</g>
<!-- dist/redis/redis&#45;manager.js&#45;&gt;dist/redis/redis.constants.js -->
<g id="edge45" class="edge">
<title>dist/redis/redis&#45;manager.js&#45;&gt;dist/redis/redis.constants.js</title>
<path fill="none" stroke="#757575" d="M1051.08,-461.91C1133.01,-462.2 1259.15,-466.07 1367,-484 1400.53,-489.58 1437.47,-500.28 1465.05,-509.21"/>
<polygon fill="#757575" stroke="#757575" points="1464.17,-512.61 1474.77,-512.41 1466.36,-505.96 1464.17,-512.61"/>
</g>
<!-- dist/redis/redis&#45;core.module.js -->
<g id="node23" class="node">
<title>dist/redis/redis&#45;core.module.js</title>
<path fill="none" stroke="#c6c5fe" d="M544.83,-495.5C544.83,-495.5 363.17,-495.5 363.17,-495.5 359.33,-495.5 355.5,-491.67 355.5,-487.83 355.5,-487.83 355.5,-480.17 355.5,-480.17 355.5,-476.33 359.33,-472.5 363.17,-472.5 363.17,-472.5 544.83,-472.5 544.83,-472.5 548.67,-472.5 552.5,-476.33 552.5,-480.17 552.5,-480.17 552.5,-487.83 552.5,-487.83 552.5,-491.67 548.67,-495.5 544.83,-495.5"/>
<text text-anchor="middle" x="454" y="-480.3" font-family="Arial" font-size="14.00" fill="#c6c5fe">dist/redis/redis&#45;core.module.js</text>
</g>
<!-- dist/redis/redis.module.js&#45;&gt;dist/redis/redis&#45;core.module.js -->
<g id="edge47" class="edge">
<title>dist/redis/redis.module.js&#45;&gt;dist/redis/redis&#45;core.module.js</title>
<path fill="none" stroke="#757575" d="M290.38,-458.5C315.34,-462.42 343.43,-466.82 369.16,-470.85"/>
<polygon fill="#757575" stroke="#757575" points="368.84,-474.35 379.26,-472.44 369.92,-467.43 368.84,-474.35"/>
</g>
<!-- dist/redis/common/redis.decorator.js&#45;&gt;dist/utils/index.js -->
<g id="edge36" class="edge">
<title>dist/redis/common/redis.decorator.js&#45;&gt;dist/utils/index.js</title>
<path fill="none" stroke="#757575" d="M1325.39,-412.48C1340.6,-407.27 1355.32,-399.77 1367,-389 1401.11,-357.55 1370.41,-324.03 1403,-291 1413.91,-279.94 1428.21,-271.89 1442.7,-266.04"/>
<polygon fill="#757575" stroke="#757575" points="1444.07,-269.27 1452.23,-262.51 1441.63,-262.7 1444.07,-269.27"/>
</g>
<!-- dist/redis/common/redis.decorator.js&#45;&gt;dist/redis/redis.constants.js -->
<g id="edge35" class="edge">
<title>dist/redis/common/redis.decorator.js&#45;&gt;dist/redis/redis.constants.js</title>
<path fill="none" stroke="#757575" d="M1314.59,-435.56C1332.03,-439.29 1350.39,-444.05 1367,-450 1408.74,-464.96 1453.48,-490.33 1480.98,-507.12"/>
<polygon fill="#757575" stroke="#757575" points="1479.28,-510.18 1489.62,-512.46 1482.96,-504.23 1479.28,-510.18"/>
</g>
<!-- dist/redis/common/redis.utils.js&#45;&gt;dist/utils/index.js -->
<g id="edge38" class="edge">
<title>dist/redis/common/redis.utils.js&#45;&gt;dist/utils/index.js</title>
<path fill="none" stroke="#757575" d="M1289.71,-492.41C1316.27,-483.65 1347.61,-468.92 1367,-445 1411.27,-390.4 1356.79,-343.96 1403,-291 1413.16,-279.35 1427.1,-271.08 1441.49,-265.21"/>
<polygon fill="#757575" stroke="#757575" points="1442.82,-268.45 1450.98,-261.69 1440.38,-261.89 1442.82,-268.45"/>
</g>
<!-- dist/redis/common/redis.utils.js&#45;&gt;dist/redis/redis.constants.js -->
<g id="edge37" class="edge">
<title>dist/redis/common/redis.utils.js&#45;&gt;dist/redis/redis.constants.js</title>
<path fill="none" stroke="#757575" d="M1341.37,-511.53C1363.38,-513.18 1386.66,-514.93 1408.61,-516.58"/>
<polygon fill="#757575" stroke="#757575" points="1408.36,-520.07 1418.59,-517.33 1408.88,-513.09 1408.36,-520.07"/>
</g>
<!-- dist/redis/redis&#45;core.module.js&#45;&gt;dist/errors/index.js -->
<g id="edge39" class="edge">
<title>dist/redis/redis&#45;core.module.js&#45;&gt;dist/errors/index.js</title>
<path fill="none" stroke="#757575" d="M499.39,-472.42C605.07,-445.18 880.11,-376.17 1113,-334 1130.34,-330.86 1149.12,-328.03 1166.75,-325.61"/>
<polygon fill="#757575" stroke="#757575" points="1167.54,-329.04 1176.98,-324.24 1166.6,-322.1 1167.54,-329.04"/>
</g>
<!-- dist/redis/redis&#45;core.module.js&#45;&gt;dist/redis/common/index.js -->
<g id="edge40" class="edge">
<title>dist/redis/redis&#45;core.module.js&#45;&gt;dist/redis/common/index.js</title>
<path fill="none" stroke="#757575" d="M552.55,-487.84C642.24,-491.38 774.53,-496.59 864.4,-500.13"/>
<polygon fill="#757575" stroke="#757575" points="864.46,-503.64 874.59,-500.54 864.74,-496.64 864.46,-503.64"/>
</g>
<!-- dist/redis/redis&#45;core.module.js&#45;&gt;dist/redis/redis&#45;manager.js -->
<g id="edge41" class="edge">
<title>dist/redis/redis&#45;core.module.js&#45;&gt;dist/redis/redis&#45;manager.js</title>
<path fill="none" stroke="#757575" d="M552.55,-479.96C642.65,-476.24 775.76,-470.73 865.64,-467.01"/>
<polygon fill="#757575" stroke="#757575" points="865.99,-470.5 875.84,-466.59 865.7,-463.5 865.99,-470.5"/>
</g>
<!-- dist/redis/redis&#45;core.module.js&#45;&gt;dist/redis/redis.constants.js -->
<g id="edge42" class="edge">
<title>dist/redis/redis&#45;core.module.js&#45;&gt;dist/redis/redis.constants.js</title>
<path fill="none" stroke="#757575" d="M469.89,-495.54C494.89,-514.1 547.62,-549.83 599,-563 911.88,-643.19 1304.91,-570.3 1450.15,-537.79"/>
<polygon fill="#757575" stroke="#757575" points="1451.2,-541.14 1460.18,-535.52 1449.65,-534.31 1451.2,-541.14"/>
</g>
<!-- dist/redis/redis.providers.js -->
<g id="node24" class="node">
<title>dist/redis/redis.providers.js</title>
<path fill="none" stroke="#c6c5fe" d="M786.83,-553.5C786.83,-553.5 626.17,-553.5 626.17,-553.5 622.33,-553.5 618.5,-549.67 618.5,-545.83 618.5,-545.83 618.5,-538.17 618.5,-538.17 618.5,-534.33 622.33,-530.5 626.17,-530.5 626.17,-530.5 786.83,-530.5 786.83,-530.5 790.67,-530.5 794.5,-534.33 794.5,-538.17 794.5,-538.17 794.5,-545.83 794.5,-545.83 794.5,-549.67 790.67,-553.5 786.83,-553.5"/>
<text text-anchor="middle" x="706.5" y="-538.3" font-family="Arial" font-size="14.00" fill="#c6c5fe">dist/redis/redis.providers.js</text>
</g>
<!-- dist/redis/redis&#45;core.module.js&#45;&gt;dist/redis/redis.providers.js -->
<g id="edge43" class="edge">
<title>dist/redis/redis&#45;core.module.js&#45;&gt;dist/redis/redis.providers.js</title>
<path fill="none" stroke="#757575" d="M504.79,-495.53C545.43,-504.94 602.96,-518.26 646.02,-528.23"/>
<polygon fill="#757575" stroke="#757575" points="645.27,-531.65 655.8,-530.49 646.85,-524.83 645.27,-531.65"/>
</g>
<!-- dist/redis/redis.providers.js&#45;&gt;dist/redis/common/index.js -->
<g id="edge48" class="edge">
<title>dist/redis/redis.providers.js&#45;&gt;dist/redis/common/index.js</title>
<path fill="none" stroke="#757575" d="M784.7,-530.5C813.16,-526.26 845.59,-521.42 874.9,-517.05"/>
<polygon fill="#757575" stroke="#757575" points="875.75,-520.47 885.12,-515.53 874.72,-513.54 875.75,-520.47"/>
</g>
<!-- dist/redis/redis.providers.js&#45;&gt;dist/redis/redis&#45;manager.js -->
<g id="edge49" class="edge">
<title>dist/redis/redis.providers.js&#45;&gt;dist/redis/redis&#45;manager.js</title>
<path fill="none" stroke="#757575" d="M731.68,-530.4C759.6,-517.42 807.2,-496.56 850,-484 859.29,-481.27 869.13,-478.82 878.96,-476.64"/>
<polygon fill="#757575" stroke="#757575" points="879.72,-480.06 888.77,-474.55 878.26,-473.21 879.72,-480.06"/>
</g>
<!-- dist/redis/redis.providers.js&#45;&gt;dist/redis/redis.constants.js -->
<g id="edge50" class="edge">
<title>dist/redis/redis.providers.js&#45;&gt;dist/redis/redis.constants.js</title>
<path fill="none" stroke="#757575" d="M794.64,-540.04C944.72,-536.66 1251.04,-529.77 1408.78,-526.22"/>
<polygon fill="#757575" stroke="#757575" points="1409.03,-529.72 1418.95,-525.99 1408.87,-522.72 1409.03,-529.72"/>
</g>
<!-- health/index.js -->
<g id="node25" class="node">
<title>health/index.js</title>
<path fill="none" stroke="#c6c5fe" d="M259.83,-340.5C259.83,-340.5 172.17,-340.5 172.17,-340.5 168.33,-340.5 164.5,-336.67 164.5,-332.83 164.5,-332.83 164.5,-325.17 164.5,-325.17 164.5,-321.33 168.33,-317.5 172.17,-317.5 172.17,-317.5 259.83,-317.5 259.83,-317.5 263.67,-317.5 267.5,-321.33 267.5,-325.17 267.5,-325.17 267.5,-332.83 267.5,-332.83 267.5,-336.67 263.67,-340.5 259.83,-340.5"/>
<text text-anchor="middle" x="216" y="-325.3" font-family="Arial" font-size="14.00" fill="#c6c5fe">health/index.js</text>
</g>
<!-- health/index.js&#45;&gt;dist/health/index.js -->
<g id="edge51" class="edge">
<title>health/index.js&#45;&gt;dist/health/index.js</title>
<path fill="none" stroke="#757575" d="M267.63,-329C300.31,-329 343.36,-329 379.75,-329"/>
<polygon fill="#757575" stroke="#757575" points="379.82,-332.5 389.82,-329 379.82,-325.5 379.82,-332.5"/>
</g>
</g>
</svg>
