<?xml version="1.0" encoding="UTF-8" standalone="no"?>
<!DOCTYPE svg PUBLIC "-//W3C//DTD SVG 1.1//EN"
 "http://www.w3.org/Graphics/SVG/1.1/DTD/svg11.dtd">
<!-- Generated by graphviz version 2.43.0 (0)
 -->
<!-- Title: G Pages: 1 -->
<svg width="1361pt" height="786pt"
 viewBox="0.00 0.00 1361.20 786.20" xmlns="http://www.w3.org/2000/svg" xmlns:xlink="http://www.w3.org/1999/xlink">
<g id="graph0" class="graph" transform="scale(1 1) rotate(0) translate(21.6 764.6)">
<title>G</title>
<polygon fill="#111111" stroke="transparent" points="-21.6,21.6 -21.6,-764.6 1339.6,-764.6 1339.6,21.6 -21.6,21.6"/>
<!-- dist/cluster/cluster&#45;manager.js -->
<g id="node1" class="node">
<title>dist/cluster/cluster&#45;manager.js</title>
<path fill="none" stroke="#c6c5fe" d="M1046.33,-582.5C1046.33,-582.5 865.67,-582.5 865.67,-582.5 861.83,-582.5 858,-578.67 858,-574.83 858,-574.83 858,-567.17 858,-567.17 858,-563.33 861.83,-559.5 865.67,-559.5 865.67,-559.5 1046.33,-559.5 1046.33,-559.5 1050.17,-559.5 1054,-563.33 1054,-567.17 1054,-567.17 1054,-574.83 1054,-574.83 1054,-578.67 1050.17,-582.5 1046.33,-582.5"/>
<text text-anchor="middle" x="956" y="-567.3" font-family="Arial" font-size="14.00" fill="#c6c5fe">dist/cluster/cluster&#45;manager.js</text>
</g>
<!-- dist/cluster/cluster.constants.js -->
<g id="node2" class="node">
<title>dist/cluster/cluster.constants.js</title>
<path fill="none" stroke="#cfffac" d="M1310.33,-620.5C1310.33,-620.5 1126.67,-620.5 1126.67,-620.5 1122.83,-620.5 1119,-616.67 1119,-612.83 1119,-612.83 1119,-605.17 1119,-605.17 1119,-601.33 1122.83,-597.5 1126.67,-597.5 1126.67,-597.5 1310.33,-597.5 1310.33,-597.5 1314.17,-597.5 1318,-601.33 1318,-605.17 1318,-605.17 1318,-612.83 1318,-612.83 1318,-616.67 1314.17,-620.5 1310.33,-620.5"/>
<text text-anchor="middle" x="1218.5" y="-605.3" font-family="Arial" font-size="14.00" fill="#cfffac">dist/cluster/cluster.constants.js</text>
</g>
<!-- dist/cluster/cluster&#45;manager.js&#45;&gt;dist/cluster/cluster.constants.js -->
<g id="edge1" class="edge">
<title>dist/cluster/cluster&#45;manager.js&#45;&gt;dist/cluster/cluster.constants.js</title>
<path fill="none" stroke="#757575" d="M1035.87,-582.5C1065.06,-586.76 1098.36,-591.62 1128.4,-596"/>
<polygon fill="#757575" stroke="#757575" points="1128.05,-599.49 1138.45,-597.47 1129.06,-592.56 1128.05,-599.49"/>
</g>
<!-- dist/messages/index.js -->
<g id="node3" class="node">
<title>dist/messages/index.js</title>
<path fill="none" stroke="#cfffac" d="M1287.33,-363.5C1287.33,-363.5 1149.67,-363.5 1149.67,-363.5 1145.83,-363.5 1142,-359.67 1142,-355.83 1142,-355.83 1142,-348.17 1142,-348.17 1142,-344.33 1145.83,-340.5 1149.67,-340.5 1149.67,-340.5 1287.33,-340.5 1287.33,-340.5 1291.17,-340.5 1295,-344.33 1295,-348.17 1295,-348.17 1295,-355.83 1295,-355.83 1295,-359.67 1291.17,-363.5 1287.33,-363.5"/>
<text text-anchor="middle" x="1218.5" y="-348.3" font-family="Arial" font-size="14.00" fill="#cfffac">dist/messages/index.js</text>
</g>
<!-- dist/cluster/cluster&#45;manager.js&#45;&gt;dist/messages/index.js -->
<g id="edge2" class="edge">
<title>dist/cluster/cluster&#45;manager.js&#45;&gt;dist/messages/index.js</title>
<path fill="none" stroke="#757575" d="M977.54,-559.28C1003.26,-544.21 1048.16,-516.56 1083,-488 1128.85,-450.41 1176.16,-399.11 1200.6,-371.5"/>
<polygon fill="#757575" stroke="#757575" points="1203.45,-373.56 1207.42,-363.73 1198.19,-368.94 1203.45,-373.56"/>
</g>
<!-- dist/utils/index.js -->
<g id="node4" class="node">
<title>dist/utils/index.js</title>
<path fill="none" stroke="#cfffac" d="M1268.33,-284.5C1268.33,-284.5 1168.67,-284.5 1168.67,-284.5 1164.83,-284.5 1161,-280.67 1161,-276.83 1161,-276.83 1161,-269.17 1161,-269.17 1161,-265.33 1164.83,-261.5 1168.67,-261.5 1168.67,-261.5 1268.33,-261.5 1268.33,-261.5 1272.17,-261.5 1276,-265.33 1276,-269.17 1276,-269.17 1276,-276.83 1276,-276.83 1276,-280.67 1272.17,-284.5 1268.33,-284.5"/>
<text text-anchor="middle" x="1218.5" y="-269.3" font-family="Arial" font-size="14.00" fill="#cfffac">dist/utils/index.js</text>
</g>
<!-- dist/cluster/cluster&#45;manager.js&#45;&gt;dist/utils/index.js -->
<g id="edge3" class="edge">
<title>dist/cluster/cluster&#45;manager.js&#45;&gt;dist/utils/index.js</title>
<path fill="none" stroke="#757575" d="M974.89,-559.22C1002.23,-540.29 1054.28,-500.47 1083,-454 1112.95,-405.55 1084,-375.94 1119,-331 1133.63,-312.21 1156.19,-298.29 1176.03,-288.81"/>
<polygon fill="#757575" stroke="#757575" points="1177.55,-291.96 1185.2,-284.63 1174.65,-285.59 1177.55,-291.96"/>
</g>
<!-- dist/cluster/cluster.module.js -->
<g id="node5" class="node">
<title>dist/cluster/cluster.module.js</title>
<path fill="none" stroke="#c6c5fe" d="M301.33,-535.5C301.33,-535.5 130.67,-535.5 130.67,-535.5 126.83,-535.5 123,-531.67 123,-527.83 123,-527.83 123,-520.17 123,-520.17 123,-516.33 126.83,-512.5 130.67,-512.5 130.67,-512.5 301.33,-512.5 301.33,-512.5 305.17,-512.5 309,-516.33 309,-520.17 309,-520.17 309,-527.83 309,-527.83 309,-531.67 305.17,-535.5 301.33,-535.5"/>
<text text-anchor="middle" x="216" y="-520.3" font-family="Arial" font-size="14.00" fill="#c6c5fe">dist/cluster/cluster.module.js</text>
</g>
<!-- dist/cluster/cluster.module.js&#45;&gt;dist/cluster/cluster&#45;manager.js -->
<g id="edge4" class="edge">
<title>dist/cluster/cluster.module.js&#45;&gt;dist/cluster/cluster&#45;manager.js</title>
<path fill="none" stroke="#757575" d="M244.89,-535.52C270.44,-545.44 309.56,-559.07 345,-565 519.12,-594.12 725.11,-587.86 847.65,-579.95"/>
<polygon fill="#757575" stroke="#757575" points="848.03,-583.43 857.78,-579.28 847.57,-576.45 848.03,-583.43"/>
</g>
<!-- dist/cluster/cluster.module.js&#45;&gt;dist/cluster/cluster.constants.js -->
<g id="edge5" class="edge">
<title>dist/cluster/cluster.module.js&#45;&gt;dist/cluster/cluster.constants.js</title>
<path fill="none" stroke="#757575" d="M234.31,-535.55C258.09,-550.73 302.74,-576.77 345,-588 616.27,-660.07 951.81,-638.84 1116.56,-621.59"/>
<polygon fill="#757575" stroke="#757575" points="1117.11,-625.05 1126.68,-620.51 1116.37,-618.09 1117.11,-625.05"/>
</g>
<!-- dist/cluster/cluster.module.js&#45;&gt;dist/messages/index.js -->
<g id="edge8" class="edge">
<title>dist/cluster/cluster.module.js&#45;&gt;dist/messages/index.js</title>
<path fill="none" stroke="#757575" d="M309.34,-515.47C382.26,-508.82 486.6,-499.49 578,-492 690.16,-482.81 977.75,-493.85 1083,-454 1130.98,-435.83 1176.23,-394.82 1200.05,-370.7"/>
<polygon fill="#757575" stroke="#757575" points="1202.57,-373.13 1207.01,-363.51 1197.54,-368.26 1202.57,-373.13"/>
</g>
<!-- dist/cluster/cluster.providers.js -->
<g id="node6" class="node">
<title>dist/cluster/cluster.providers.js</title>
<path fill="none" stroke="#c6c5fe" d="M534.33,-555.5C534.33,-555.5 352.67,-555.5 352.67,-555.5 348.83,-555.5 345,-551.67 345,-547.83 345,-547.83 345,-540.17 345,-540.17 345,-536.33 348.83,-532.5 352.67,-532.5 352.67,-532.5 534.33,-532.5 534.33,-532.5 538.17,-532.5 542,-536.33 542,-540.17 542,-540.17 542,-547.83 542,-547.83 542,-551.67 538.17,-555.5 534.33,-555.5"/>
<text text-anchor="middle" x="443.5" y="-540.3" font-family="Arial" font-size="14.00" fill="#c6c5fe">dist/cluster/cluster.providers.js</text>
</g>
<!-- dist/cluster/cluster.module.js&#45;&gt;dist/cluster/cluster.providers.js -->
<g id="edge6" class="edge">
<title>dist/cluster/cluster.module.js&#45;&gt;dist/cluster/cluster.providers.js</title>
<path fill="none" stroke="#757575" d="M309.04,-532.16C317.54,-532.92 326.19,-533.68 334.8,-534.45"/>
<polygon fill="#757575" stroke="#757575" points="334.61,-537.94 344.88,-535.34 335.23,-530.97 334.61,-537.94"/>
</g>
<!-- dist/cluster/common/index.js -->
<g id="node7" class="node">
<title>dist/cluster/common/index.js</title>
<path fill="none" stroke="#c6c5fe" d="M771.83,-444.5C771.83,-444.5 599.17,-444.5 599.17,-444.5 595.33,-444.5 591.5,-440.67 591.5,-436.83 591.5,-436.83 591.5,-429.17 591.5,-429.17 591.5,-425.33 595.33,-421.5 599.17,-421.5 599.17,-421.5 771.83,-421.5 771.83,-421.5 775.67,-421.5 779.5,-425.33 779.5,-429.17 779.5,-429.17 779.5,-436.83 779.5,-436.83 779.5,-440.67 775.67,-444.5 771.83,-444.5"/>
<text text-anchor="middle" x="685.5" y="-429.3" font-family="Arial" font-size="14.00" fill="#c6c5fe">dist/cluster/common/index.js</text>
</g>
<!-- dist/cluster/cluster.module.js&#45;&gt;dist/cluster/common/index.js -->
<g id="edge7" class="edge">
<title>dist/cluster/cluster.module.js&#45;&gt;dist/cluster/common/index.js</title>
<path fill="none" stroke="#757575" d="M256.55,-512.47C281.73,-505.39 315.11,-496.46 345,-490 428.38,-471.97 524.32,-456.32 592.89,-446.01"/>
<polygon fill="#757575" stroke="#757575" points="593.43,-449.47 602.81,-444.53 592.4,-442.55 593.43,-449.47"/>
</g>
<!-- dist/cluster/cluster.providers.js&#45;&gt;dist/cluster/cluster&#45;manager.js -->
<g id="edge9" class="edge">
<title>dist/cluster/cluster.providers.js&#45;&gt;dist/cluster/cluster&#45;manager.js</title>
<path fill="none" stroke="#757575" d="M542.02,-549.16C629.47,-553.78 757.55,-560.56 847.83,-565.33"/>
<polygon fill="#757575" stroke="#757575" points="847.65,-568.83 857.82,-565.86 848.02,-561.84 847.65,-568.83"/>
</g>
<!-- dist/cluster/cluster.providers.js&#45;&gt;dist/cluster/cluster.constants.js -->
<g id="edge10" class="edge">
<title>dist/cluster/cluster.providers.js&#45;&gt;dist/cluster/cluster.constants.js</title>
<path fill="none" stroke="#757575" d="M496.91,-555.53C521.44,-560.58 551.11,-566.21 578,-570 763.26,-596.09 981.13,-604.73 1108.79,-607.59"/>
<polygon fill="#757575" stroke="#757575" points="1108.89,-611.09 1118.97,-607.81 1109.04,-604.09 1108.89,-611.09"/>
</g>
<!-- dist/cluster/cluster.providers.js&#45;&gt;dist/cluster/common/index.js -->
<g id="edge11" class="edge">
<title>dist/cluster/cluster.providers.js&#45;&gt;dist/cluster/common/index.js</title>
<path fill="none" stroke="#757575" d="M469.73,-532.33C513.06,-512.29 601.63,-471.33 650.41,-448.77"/>
<polygon fill="#757575" stroke="#757575" points="652,-451.89 659.61,-444.51 649.06,-445.53 652,-451.89"/>
</g>
<!-- dist/cluster/default&#45;options.js -->
<g id="node8" class="node">
<title>dist/cluster/default&#45;options.js</title>
<path fill="none" stroke="#cfffac" d="M771.33,-524.5C771.33,-524.5 599.67,-524.5 599.67,-524.5 595.83,-524.5 592,-520.67 592,-516.83 592,-516.83 592,-509.17 592,-509.17 592,-505.33 595.83,-501.5 599.67,-501.5 599.67,-501.5 771.33,-501.5 771.33,-501.5 775.17,-501.5 779,-505.33 779,-509.17 779,-509.17 779,-516.83 779,-516.83 779,-520.67 775.17,-524.5 771.33,-524.5"/>
<text text-anchor="middle" x="685.5" y="-509.3" font-family="Arial" font-size="14.00" fill="#cfffac">dist/cluster/default&#45;options.js</text>
</g>
<!-- dist/cluster/cluster.providers.js&#45;&gt;dist/cluster/default&#45;options.js -->
<g id="edge12" class="edge">
<title>dist/cluster/cluster.providers.js&#45;&gt;dist/cluster/default&#45;options.js</title>
<path fill="none" stroke="#757575" d="M533.87,-532.46C550.69,-530.28 568.37,-528 585.47,-525.79"/>
<polygon fill="#757575" stroke="#757575" points="585.99,-529.25 595.46,-524.5 585.09,-522.31 585.99,-529.25"/>
</g>
<!-- dist/cluster/common/cluster.decorator.js -->
<g id="node9" class="node">
<title>dist/cluster/common/cluster.decorator.js</title>
<path fill="none" stroke="#c6c5fe" d="M1075.33,-445.5C1075.33,-445.5 836.67,-445.5 836.67,-445.5 832.83,-445.5 829,-441.67 829,-437.83 829,-437.83 829,-430.17 829,-430.17 829,-426.33 832.83,-422.5 836.67,-422.5 836.67,-422.5 1075.33,-422.5 1075.33,-422.5 1079.17,-422.5 1083,-426.33 1083,-430.17 1083,-430.17 1083,-437.83 1083,-437.83 1083,-441.67 1079.17,-445.5 1075.33,-445.5"/>
<text text-anchor="middle" x="956" y="-430.3" font-family="Arial" font-size="14.00" fill="#c6c5fe">dist/cluster/common/cluster.decorator.js</text>
</g>
<!-- dist/cluster/common/index.js&#45;&gt;dist/cluster/common/cluster.decorator.js -->
<g id="edge18" class="edge">
<title>dist/cluster/common/index.js&#45;&gt;dist/cluster/common/cluster.decorator.js</title>
<path fill="none" stroke="#757575" d="M779.65,-433.35C792.33,-433.39 805.54,-433.44 818.78,-433.49"/>
<polygon fill="#757575" stroke="#757575" points="818.89,-436.99 828.9,-433.53 818.92,-429.99 818.89,-436.99"/>
</g>
<!-- dist/cluster/common/cluster.utils.js -->
<g id="node10" class="node">
<title>dist/cluster/common/cluster.utils.js</title>
<path fill="none" stroke="#c6c5fe" d="M1059.33,-404.5C1059.33,-404.5 852.67,-404.5 852.67,-404.5 848.83,-404.5 845,-400.67 845,-396.83 845,-396.83 845,-389.17 845,-389.17 845,-385.33 848.83,-381.5 852.67,-381.5 852.67,-381.5 1059.33,-381.5 1059.33,-381.5 1063.17,-381.5 1067,-385.33 1067,-389.17 1067,-389.17 1067,-396.83 1067,-396.83 1067,-400.67 1063.17,-404.5 1059.33,-404.5"/>
<text text-anchor="middle" x="956" y="-389.3" font-family="Arial" font-size="14.00" fill="#c6c5fe">dist/cluster/common/cluster.utils.js</text>
</g>
<!-- dist/cluster/common/index.js&#45;&gt;dist/cluster/common/cluster.utils.js -->
<g id="edge19" class="edge">
<title>dist/cluster/common/index.js&#45;&gt;dist/cluster/common/cluster.utils.js</title>
<path fill="none" stroke="#757575" d="M763.8,-421.48C796.23,-416.65 834.11,-411.01 867.55,-406.03"/>
<polygon fill="#757575" stroke="#757575" points="868.4,-409.44 877.78,-404.5 867.37,-402.52 868.4,-409.44"/>
</g>
<!-- dist/cluster/common/cluster.decorator.js&#45;&gt;dist/cluster/cluster.constants.js -->
<g id="edge13" class="edge">
<title>dist/cluster/common/cluster.decorator.js&#45;&gt;dist/cluster/cluster.constants.js</title>
<path fill="none" stroke="#757575" d="M974.5,-445.75C1019.36,-475.89 1138.66,-556.04 1191.59,-591.59"/>
<polygon fill="#757575" stroke="#757575" points="1189.83,-594.63 1200.08,-597.3 1193.73,-588.82 1189.83,-594.63"/>
</g>
<!-- dist/cluster/common/cluster.decorator.js&#45;&gt;dist/utils/index.js -->
<g id="edge14" class="edge">
<title>dist/cluster/common/cluster.decorator.js&#45;&gt;dist/utils/index.js</title>
<path fill="none" stroke="#757575" d="M1067.75,-422.48C1073.14,-419.81 1078.27,-416.68 1083,-413 1114.42,-388.56 1092.57,-360.76 1119,-331 1135.27,-312.68 1158.75,-298.54 1178.71,-288.81"/>
<polygon fill="#757575" stroke="#757575" points="1180.31,-291.93 1187.88,-284.52 1177.34,-285.59 1180.31,-291.93"/>
</g>
<!-- dist/cluster/common/cluster.utils.js&#45;&gt;dist/cluster/cluster.constants.js -->
<g id="edge15" class="edge">
<title>dist/cluster/common/cluster.utils.js&#45;&gt;dist/cluster/cluster.constants.js</title>
<path fill="none" stroke="#757575" d="M1066.64,-404.58C1072.35,-406.96 1077.85,-409.75 1083,-413 1150.87,-455.87 1193.25,-546.75 1209.7,-587.93"/>
<polygon fill="#757575" stroke="#757575" points="1206.44,-589.21 1213.32,-597.27 1212.97,-586.68 1206.44,-589.21"/>
</g>
<!-- dist/cluster/common/cluster.utils.js&#45;&gt;dist/messages/index.js -->
<g id="edge16" class="edge">
<title>dist/cluster/common/cluster.utils.js&#45;&gt;dist/messages/index.js</title>
<path fill="none" stroke="#757575" d="M1030.26,-381.47C1062.58,-376.38 1100.73,-370.38 1134.14,-365.12"/>
<polygon fill="#757575" stroke="#757575" points="1135.01,-368.53 1144.34,-363.51 1133.92,-361.61 1135.01,-368.53"/>
</g>
<!-- dist/cluster/common/cluster.utils.js&#45;&gt;dist/utils/index.js -->
<g id="edge17" class="edge">
<title>dist/cluster/common/cluster.utils.js&#45;&gt;dist/utils/index.js</title>
<path fill="none" stroke="#757575" d="M1061.74,-381.4C1069.14,-378.82 1076.31,-375.72 1083,-372 1104.19,-360.21 1100.32,-346.46 1119,-331 1138.93,-314.51 1164.1,-299.77 1184.01,-289.28"/>
<polygon fill="#757575" stroke="#757575" points="1185.75,-292.32 1193.03,-284.63 1182.54,-286.1 1185.75,-292.32"/>
</g>
<!-- dist/health/index.js -->
<g id="node11" class="node">
<title>dist/health/index.js</title>
<path fill="none" stroke="#c6c5fe" d="M499.83,-399.5C499.83,-399.5 387.17,-399.5 387.17,-399.5 383.33,-399.5 379.5,-395.67 379.5,-391.83 379.5,-391.83 379.5,-384.17 379.5,-384.17 379.5,-380.33 383.33,-376.5 387.17,-376.5 387.17,-376.5 499.83,-376.5 499.83,-376.5 503.67,-376.5 507.5,-380.33 507.5,-384.17 507.5,-384.17 507.5,-391.83 507.5,-391.83 507.5,-395.67 503.67,-399.5 499.83,-399.5"/>
<text text-anchor="middle" x="443.5" y="-384.3" font-family="Arial" font-size="14.00" fill="#c6c5fe">dist/health/index.js</text>
</g>
<!-- dist/health/indicators/redis.health.js -->
<g id="node12" class="node">
<title>dist/health/indicators/redis.health.js</title>
<path fill="none" stroke="#c6c5fe" d="M1061.83,-363.5C1061.83,-363.5 850.17,-363.5 850.17,-363.5 846.33,-363.5 842.5,-359.67 842.5,-355.83 842.5,-355.83 842.5,-348.17 842.5,-348.17 842.5,-344.33 846.33,-340.5 850.17,-340.5 850.17,-340.5 1061.83,-340.5 1061.83,-340.5 1065.67,-340.5 1069.5,-344.33 1069.5,-348.17 1069.5,-348.17 1069.5,-355.83 1069.5,-355.83 1069.5,-359.67 1065.67,-363.5 1061.83,-363.5"/>
<text text-anchor="middle" x="956" y="-348.3" font-family="Arial" font-size="14.00" fill="#c6c5fe">dist/health/indicators/redis.health.js</text>
</g>
<!-- dist/health/index.js&#45;&gt;dist/health/indicators/redis.health.js -->
<g id="edge20" class="edge">
<title>dist/health/index.js&#45;&gt;dist/health/indicators/redis.health.js</title>
<path fill="none" stroke="#757575" d="M507.53,-378.36C529.75,-375.27 554.94,-372.1 578,-370 662.61,-362.29 758.21,-357.77 831.98,-355.19"/>
<polygon fill="#757575" stroke="#757575" points="832.36,-358.68 842.24,-354.84 832.12,-351.69 832.36,-358.68"/>
</g>
<!-- dist/health/redis&#45;health.module.js -->
<g id="node13" class="node">
<title>dist/health/redis&#45;health.module.js</title>
<path fill="none" stroke="#c6c5fe" d="M785.33,-402.5C785.33,-402.5 585.67,-402.5 585.67,-402.5 581.83,-402.5 578,-398.67 578,-394.83 578,-394.83 578,-387.17 578,-387.17 578,-383.33 581.83,-379.5 585.67,-379.5 585.67,-379.5 785.33,-379.5 785.33,-379.5 789.17,-379.5 793,-383.33 793,-387.17 793,-387.17 793,-394.83 793,-394.83 793,-398.67 789.17,-402.5 785.33,-402.5"/>
<text text-anchor="middle" x="685.5" y="-387.3" font-family="Arial" font-size="14.00" fill="#c6c5fe">dist/health/redis&#45;health.module.js</text>
</g>
<!-- dist/health/index.js&#45;&gt;dist/health/redis&#45;health.module.js -->
<g id="edge21" class="edge">
<title>dist/health/index.js&#45;&gt;dist/health/redis&#45;health.module.js</title>
<path fill="none" stroke="#757575" d="M507.56,-388.79C526.06,-389.02 546.91,-389.28 567.63,-389.54"/>
<polygon fill="#757575" stroke="#757575" points="567.74,-393.04 577.79,-389.67 567.83,-386.04 567.74,-393.04"/>
</g>
<!-- dist/health/indicators/redis.health.js&#45;&gt;dist/messages/index.js -->
<g id="edge22" class="edge">
<title>dist/health/indicators/redis.health.js&#45;&gt;dist/messages/index.js</title>
<path fill="none" stroke="#757575" d="M1069.74,-352C1090.47,-352 1111.8,-352 1131.58,-352"/>
<polygon fill="#757575" stroke="#757575" points="1131.77,-355.5 1141.77,-352 1131.77,-348.5 1131.77,-355.5"/>
</g>
<!-- dist/health/redis&#45;health.module.js&#45;&gt;dist/health/indicators/redis.health.js -->
<g id="edge23" class="edge">
<title>dist/health/redis&#45;health.module.js&#45;&gt;dist/health/indicators/redis.health.js</title>
<path fill="none" stroke="#757575" d="M765.97,-379.46C797.23,-374.92 833.26,-369.68 865.44,-365.01"/>
<polygon fill="#757575" stroke="#757575" points="866.34,-368.41 875.73,-363.51 865.34,-361.49 866.34,-368.41"/>
</g>
<!-- dist/index.js -->
<g id="node14" class="node">
<title>dist/index.js</title>
<path fill="none" stroke="#c6c5fe" d="M79.33,-399.5C79.33,-399.5 7.67,-399.5 7.67,-399.5 3.83,-399.5 0,-395.67 0,-391.83 0,-391.83 0,-384.17 0,-384.17 0,-380.33 3.83,-376.5 7.67,-376.5 7.67,-376.5 79.33,-376.5 79.33,-376.5 83.17,-376.5 87,-380.33 87,-384.17 87,-384.17 87,-391.83 87,-391.83 87,-395.67 83.17,-399.5 79.33,-399.5"/>
<text text-anchor="middle" x="43.5" y="-384.3" font-family="Arial" font-size="14.00" fill="#c6c5fe">dist/index.js</text>
</g>
<!-- dist/index.js&#45;&gt;dist/cluster/cluster&#45;manager.js -->
<g id="edge24" class="edge">
<title>dist/index.js&#45;&gt;dist/cluster/cluster&#45;manager.js</title>
<path fill="none" stroke="#757575" d="M46.71,-399.63C52.95,-428.98 73.52,-506.38 123,-544 366.54,-729.19 776.26,-626.55 910.76,-585.49"/>
<polygon fill="#757575" stroke="#757575" points="911.82,-588.83 920.34,-582.53 909.75,-582.14 911.82,-588.83"/>
</g>
<!-- dist/index.js&#45;&gt;dist/cluster/cluster.constants.js -->
<g id="edge25" class="edge">
<title>dist/index.js&#45;&gt;dist/cluster/cluster.constants.js</title>
<path fill="none" stroke="#757575" d="M45.7,-399.68C49.87,-434.48 66.68,-538.76 123,-599 229.37,-712.78 286.74,-743 442.5,-743 442.5,-743 442.5,-743 686.5,-743 878.33,-743 1097.62,-659.77 1181.93,-624.5"/>
<polygon fill="#757575" stroke="#757575" points="1183.44,-627.65 1191.3,-620.54 1180.72,-621.21 1183.44,-627.65"/>
</g>
<!-- dist/index.js&#45;&gt;dist/cluster/cluster.module.js -->
<g id="edge26" class="edge">
<title>dist/index.js&#45;&gt;dist/cluster/cluster.module.js</title>
<path fill="none" stroke="#757575" d="M59.04,-399.6C88.86,-423.38 157.13,-477.84 192.63,-506.16"/>
<polygon fill="#757575" stroke="#757575" points="190.5,-508.93 200.5,-512.43 194.86,-503.46 190.5,-508.93"/>
</g>
<!-- dist/index.js&#45;&gt;dist/cluster/common/index.js -->
<g id="edge27" class="edge">
<title>dist/index.js&#45;&gt;dist/cluster/common/index.js</title>
<path fill="none" stroke="#757575" d="M83.31,-399.56C95.86,-402.85 109.92,-406.06 123,-408 281.59,-431.48 467.88,-435.12 581.01,-434.71"/>
<polygon fill="#757575" stroke="#757575" points="581.06,-438.21 591.05,-434.67 581.03,-431.21 581.06,-438.21"/>
</g>
<!-- dist/redis/common/index.js -->
<g id="node15" class="node">
<title>dist/redis/common/index.js</title>
<path fill="none" stroke="#c6c5fe" d="M766.33,-206.5C766.33,-206.5 604.67,-206.5 604.67,-206.5 600.83,-206.5 597,-202.67 597,-198.83 597,-198.83 597,-191.17 597,-191.17 597,-187.33 600.83,-183.5 604.67,-183.5 604.67,-183.5 766.33,-183.5 766.33,-183.5 770.17,-183.5 774,-187.33 774,-191.17 774,-191.17 774,-198.83 774,-198.83 774,-202.67 770.17,-206.5 766.33,-206.5"/>
<text text-anchor="middle" x="685.5" y="-191.3" font-family="Arial" font-size="14.00" fill="#c6c5fe">dist/redis/common/index.js</text>
</g>
<!-- dist/index.js&#45;&gt;dist/redis/common/index.js -->
<g id="edge28" class="edge">
<title>dist/index.js&#45;&gt;dist/redis/common/index.js</title>
<path fill="none" stroke="#757575" d="M56.53,-376.49C71.11,-363.14 96.99,-341.4 123,-329 209.51,-287.74 480.19,-233.33 611.54,-208.46"/>
<polygon fill="#757575" stroke="#757575" points="612.34,-211.87 621.52,-206.57 611.05,-204.99 612.34,-211.87"/>
</g>
<!-- dist/redis/redis&#45;manager.js -->
<g id="node16" class="node">
<title>dist/redis/redis&#45;manager.js</title>
<path fill="none" stroke="#c6c5fe" d="M765.33,-247.5C765.33,-247.5 605.67,-247.5 605.67,-247.5 601.83,-247.5 598,-243.67 598,-239.83 598,-239.83 598,-232.17 598,-232.17 598,-228.33 601.83,-224.5 605.67,-224.5 605.67,-224.5 765.33,-224.5 765.33,-224.5 769.17,-224.5 773,-228.33 773,-232.17 773,-232.17 773,-239.83 773,-239.83 773,-243.67 769.17,-247.5 765.33,-247.5"/>
<text text-anchor="middle" x="685.5" y="-232.3" font-family="Arial" font-size="14.00" fill="#c6c5fe">dist/redis/redis&#45;manager.js</text>
</g>
<!-- dist/index.js&#45;&gt;dist/redis/redis&#45;manager.js -->
<g id="edge29" class="edge">
<title>dist/index.js&#45;&gt;dist/redis/redis&#45;manager.js</title>
<path fill="none" stroke="#757575" d="M85.51,-376.44C97.55,-373.21 110.76,-369.82 123,-367 307.84,-324.47 358.91,-335.53 542,-286 577.88,-276.29 617.73,-262 646.14,-251.18"/>
<polygon fill="#757575" stroke="#757575" points="647.61,-254.37 655.69,-247.51 645.1,-247.83 647.61,-254.37"/>
</g>
<!-- dist/redis/redis.constants.js -->
<g id="node17" class="node">
<title>dist/redis/redis.constants.js</title>
<path fill="none" stroke="#cfffac" d="M1300.33,-107.5C1300.33,-107.5 1136.67,-107.5 1136.67,-107.5 1132.83,-107.5 1129,-103.67 1129,-99.83 1129,-99.83 1129,-92.17 1129,-92.17 1129,-88.33 1132.83,-84.5 1136.67,-84.5 1136.67,-84.5 1300.33,-84.5 1300.33,-84.5 1304.17,-84.5 1308,-88.33 1308,-92.17 1308,-92.17 1308,-99.83 1308,-99.83 1308,-103.67 1304.17,-107.5 1300.33,-107.5"/>
<text text-anchor="middle" x="1218.5" y="-92.3" font-family="Arial" font-size="14.00" fill="#cfffac">dist/redis/redis.constants.js</text>
</g>
<!-- dist/index.js&#45;&gt;dist/redis/redis.constants.js -->
<g id="edge30" class="edge">
<title>dist/index.js&#45;&gt;dist/redis/redis.constants.js</title>
<path fill="none" stroke="#757575" d="M46.56,-376.1C52.73,-343.41 73.81,-250.81 123,-193 230.51,-66.66 276.6,0 442.5,0 442.5,0 442.5,0 686.5,0 867.55,0 1077.85,-54.71 1170.07,-81.53"/>
<polygon fill="#757575" stroke="#757575" points="1169.35,-84.96 1179.93,-84.42 1171.32,-78.25 1169.35,-84.96"/>
</g>
<!-- dist/redis/redis.module.js -->
<g id="node18" class="node">
<title>dist/redis/redis.module.js</title>
<path fill="none" stroke="#c6c5fe" d="M291.33,-225.5C291.33,-225.5 140.67,-225.5 140.67,-225.5 136.83,-225.5 133,-221.67 133,-217.83 133,-217.83 133,-210.17 133,-210.17 133,-206.33 136.83,-202.5 140.67,-202.5 140.67,-202.5 291.33,-202.5 291.33,-202.5 295.17,-202.5 299,-206.33 299,-210.17 299,-210.17 299,-217.83 299,-217.83 299,-221.67 295.17,-225.5 291.33,-225.5"/>
<text text-anchor="middle" x="216" y="-210.3" font-family="Arial" font-size="14.00" fill="#c6c5fe">dist/redis/redis.module.js</text>
</g>
<!-- dist/index.js&#45;&gt;dist/redis/redis.module.js -->
<g id="edge31" class="edge">
<title>dist/index.js&#45;&gt;dist/redis/redis.module.js</title>
<path fill="none" stroke="#757575" d="M48.81,-376.41C58.52,-351.66 84.34,-293.08 123,-258 136.25,-245.98 153.37,-236.6 169.24,-229.64"/>
<polygon fill="#757575" stroke="#757575" points="171.03,-232.69 178.92,-225.62 168.34,-226.22 171.03,-232.69"/>
</g>
<!-- dist/redis/common/redis.decorator.js -->
<g id="node19" class="node">
<title>dist/redis/common/redis.decorator.js</title>
<path fill="none" stroke="#c6c5fe" d="M1065.33,-127.5C1065.33,-127.5 846.67,-127.5 846.67,-127.5 842.83,-127.5 839,-123.67 839,-119.83 839,-119.83 839,-112.17 839,-112.17 839,-108.33 842.83,-104.5 846.67,-104.5 846.67,-104.5 1065.33,-104.5 1065.33,-104.5 1069.17,-104.5 1073,-108.33 1073,-112.17 1073,-112.17 1073,-119.83 1073,-119.83 1073,-123.67 1069.17,-127.5 1065.33,-127.5"/>
<text text-anchor="middle" x="956" y="-112.3" font-family="Arial" font-size="14.00" fill="#c6c5fe">dist/redis/common/redis.decorator.js</text>
</g>
<!-- dist/redis/common/index.js&#45;&gt;dist/redis/common/redis.decorator.js -->
<g id="edge32" class="edge">
<title>dist/redis/common/index.js&#45;&gt;dist/redis/common/redis.decorator.js</title>
<path fill="none" stroke="#757575" d="M768.52,-183.49C777,-180.93 785.32,-177.81 793,-174 812.18,-164.48 809.87,-151.6 829,-142 838.3,-137.33 848.4,-133.5 858.68,-130.36"/>
<polygon fill="#757575" stroke="#757575" points="859.92,-133.65 868.58,-127.55 858.01,-126.91 859.92,-133.65"/>
</g>
<!-- dist/redis/common/redis.utils.js -->
<g id="node20" class="node">
<title>dist/redis/common/redis.utils.js</title>
<path fill="none" stroke="#c6c5fe" d="M1049.33,-207.5C1049.33,-207.5 862.67,-207.5 862.67,-207.5 858.83,-207.5 855,-203.67 855,-199.83 855,-199.83 855,-192.17 855,-192.17 855,-188.33 858.83,-184.5 862.67,-184.5 862.67,-184.5 1049.33,-184.5 1049.33,-184.5 1053.17,-184.5 1057,-188.33 1057,-192.17 1057,-192.17 1057,-199.83 1057,-199.83 1057,-203.67 1053.17,-207.5 1049.33,-207.5"/>
<text text-anchor="middle" x="956" y="-192.3" font-family="Arial" font-size="14.00" fill="#c6c5fe">dist/redis/common/redis.utils.js</text>
</g>
<!-- dist/redis/common/index.js&#45;&gt;dist/redis/common/redis.utils.js -->
<g id="edge33" class="edge">
<title>dist/redis/common/index.js&#45;&gt;dist/redis/common/redis.utils.js</title>
<path fill="none" stroke="#757575" d="M774.05,-195.33C796.68,-195.41 821.33,-195.5 844.95,-195.59"/>
<polygon fill="#757575" stroke="#757575" points="844.98,-199.09 855,-195.63 845.01,-192.09 844.98,-199.09"/>
</g>
<!-- dist/redis/redis&#45;manager.js&#45;&gt;dist/messages/index.js -->
<g id="edge39" class="edge">
<title>dist/redis/redis&#45;manager.js&#45;&gt;dist/messages/index.js</title>
<path fill="none" stroke="#757575" d="M753.51,-247.55C777.33,-251.58 804.35,-256.08 829,-260 941.73,-277.92 972.84,-268.09 1083,-298 1118.47,-307.63 1157.25,-323.85 1184.01,-336.01"/>
<polygon fill="#757575" stroke="#757575" points="1182.76,-339.28 1193.3,-340.28 1185.68,-332.92 1182.76,-339.28"/>
</g>
<!-- dist/redis/redis&#45;manager.js&#45;&gt;dist/utils/index.js -->
<g id="edge41" class="edge">
<title>dist/redis/redis&#45;manager.js&#45;&gt;dist/utils/index.js</title>
<path fill="none" stroke="#757575" d="M773.19,-240.35C853.56,-244.6 976.44,-251.63 1083,-260 1105.11,-261.74 1129.23,-263.96 1150.86,-266.08"/>
<polygon fill="#757575" stroke="#757575" points="1150.64,-269.58 1160.93,-267.08 1151.32,-262.61 1150.64,-269.58"/>
</g>
<!-- dist/redis/redis&#45;manager.js&#45;&gt;dist/redis/redis.constants.js -->
<g id="edge40" class="edge">
<title>dist/redis/redis&#45;manager.js&#45;&gt;dist/redis/redis.constants.js</title>
<path fill="none" stroke="#757575" d="M771.74,-224.42C779.16,-221.87 786.36,-218.77 793,-215 813.8,-203.19 807.96,-186.37 829,-175 929.49,-120.73 971.56,-161 1083,-136 1113.67,-129.12 1147.59,-119.01 1173.69,-110.68"/>
<polygon fill="#757575" stroke="#757575" points="1174.84,-113.99 1183.29,-107.59 1172.7,-107.33 1174.84,-113.99"/>
</g>
<!-- dist/redis/redis.module.js&#45;&gt;dist/messages/index.js -->
<g id="edge42" class="edge">
<title>dist/redis/redis.module.js&#45;&gt;dist/messages/index.js</title>
<path fill="none" stroke="#757575" d="M271.67,-225.54C294.3,-230.09 320.85,-235.14 345,-239 671.4,-291.16 755.67,-285.05 1083,-331 1100.22,-333.42 1118.64,-336.18 1136.17,-338.89"/>
<polygon fill="#757575" stroke="#757575" points="1135.94,-342.39 1146.36,-340.47 1137.02,-335.48 1135.94,-342.39"/>
</g>
<!-- dist/redis/redis.module.js&#45;&gt;dist/redis/common/index.js -->
<g id="edge43" class="edge">
<title>dist/redis/redis.module.js&#45;&gt;dist/redis/common/index.js</title>
<path fill="none" stroke="#757575" d="M299.24,-210.66C379.42,-207.4 501.41,-202.44 586.57,-198.98"/>
<polygon fill="#757575" stroke="#757575" points="586.92,-202.47 596.77,-198.57 586.63,-195.47 586.92,-202.47"/>
</g>
<!-- dist/redis/redis.module.js&#45;&gt;dist/redis/redis&#45;manager.js -->
<g id="edge44" class="edge">
<title>dist/redis/redis.module.js&#45;&gt;dist/redis/redis&#45;manager.js</title>
<path fill="none" stroke="#757575" d="M299.24,-217.87C379.8,-221.66 502.56,-227.44 587.77,-231.45"/>
<polygon fill="#757575" stroke="#757575" points="587.82,-234.95 597.97,-231.93 588.15,-227.96 587.82,-234.95"/>
</g>
<!-- dist/redis/redis.module.js&#45;&gt;dist/redis/redis.constants.js -->
<g id="edge45" class="edge">
<title>dist/redis/redis.module.js&#45;&gt;dist/redis/redis.constants.js</title>
<path fill="none" stroke="#757575" d="M231.76,-202.23C254.6,-184.65 300.54,-151.81 345,-135 618.57,-31.56 975.22,-61.86 1134.45,-83.08"/>
<polygon fill="#757575" stroke="#757575" points="1134.27,-86.59 1144.65,-84.47 1135.21,-79.65 1134.27,-86.59"/>
</g>
<!-- dist/redis/redis.providers.js -->
<g id="node22" class="node">
<title>dist/redis/redis.providers.js</title>
<path fill="none" stroke="#c6c5fe" d="M523.83,-167.5C523.83,-167.5 363.17,-167.5 363.17,-167.5 359.33,-167.5 355.5,-163.67 355.5,-159.83 355.5,-159.83 355.5,-152.17 355.5,-152.17 355.5,-148.33 359.33,-144.5 363.17,-144.5 363.17,-144.5 523.83,-144.5 523.83,-144.5 527.67,-144.5 531.5,-148.33 531.5,-152.17 531.5,-152.17 531.5,-159.83 531.5,-159.83 531.5,-163.67 527.67,-167.5 523.83,-167.5"/>
<text text-anchor="middle" x="443.5" y="-152.3" font-family="Arial" font-size="14.00" fill="#c6c5fe">dist/redis/redis.providers.js</text>
</g>
<!-- dist/redis/redis.module.js&#45;&gt;dist/redis/redis.providers.js -->
<g id="edge46" class="edge">
<title>dist/redis/redis.module.js&#45;&gt;dist/redis/redis.providers.js</title>
<path fill="none" stroke="#757575" d="M261.82,-202.47C298.02,-193.16 349.11,-180.02 387.73,-170.09"/>
<polygon fill="#757575" stroke="#757575" points="388.95,-173.39 397.76,-167.51 387.21,-166.61 388.95,-173.39"/>
</g>
<!-- dist/redis/common/redis.decorator.js&#45;&gt;dist/utils/index.js -->
<g id="edge35" class="edge">
<title>dist/redis/common/redis.decorator.js&#45;&gt;dist/utils/index.js</title>
<path fill="none" stroke="#757575" d="M985.56,-127.51C1011.63,-138.45 1050.87,-156.01 1083,-175 1124.79,-199.7 1169.66,-234.19 1195.56,-254.98"/>
<polygon fill="#757575" stroke="#757575" points="1193.61,-257.9 1203.59,-261.47 1198.02,-252.46 1193.61,-257.9"/>
</g>
<!-- dist/redis/common/redis.decorator.js&#45;&gt;dist/redis/redis.constants.js -->
<g id="edge34" class="edge">
<title>dist/redis/common/redis.decorator.js&#45;&gt;dist/redis/redis.constants.js</title>
<path fill="none" stroke="#757575" d="M1073.16,-107.08C1088.37,-105.91 1103.84,-104.73 1118.73,-103.58"/>
<polygon fill="#757575" stroke="#757575" points="1119.23,-107.06 1128.93,-102.8 1118.69,-100.08 1119.23,-107.06"/>
</g>
<!-- dist/redis/common/redis.utils.js&#45;&gt;dist/messages/index.js -->
<g id="edge36" class="edge">
<title>dist/redis/common/redis.utils.js&#45;&gt;dist/messages/index.js</title>
<path fill="none" stroke="#757575" d="M985,-207.58C1011.38,-219.08 1051.44,-238.13 1083,-260 1100.84,-272.36 1101.6,-280.02 1119,-293 1140.38,-308.95 1166.32,-324.34 1186.21,-335.41"/>
<polygon fill="#757575" stroke="#757575" points="1184.72,-338.58 1195.17,-340.32 1188.09,-332.44 1184.72,-338.58"/>
</g>
<!-- dist/redis/common/redis.utils.js&#45;&gt;dist/utils/index.js -->
<g id="edge38" class="edge">
<title>dist/redis/common/redis.utils.js&#45;&gt;dist/utils/index.js</title>
<path fill="none" stroke="#757575" d="M1022.88,-207.54C1042.39,-211.51 1063.7,-216.39 1083,-222 1117.06,-231.9 1154.74,-246.52 1181.53,-257.57"/>
<polygon fill="#757575" stroke="#757575" points="1180.3,-260.85 1190.88,-261.46 1182.99,-254.39 1180.3,-260.85"/>
</g>
<!-- dist/redis/common/redis.utils.js&#45;&gt;dist/redis/redis.constants.js -->
<g id="edge37" class="edge">
<title>dist/redis/common/redis.utils.js&#45;&gt;dist/redis/redis.constants.js</title>
<path fill="none" stroke="#757575" d="M1031.66,-184.44C1048.8,-180.73 1066.76,-175.99 1083,-170 1123.04,-155.24 1165.61,-129.99 1191.88,-113.15"/>
<polygon fill="#757575" stroke="#757575" points="1193.98,-115.96 1200.46,-107.58 1190.17,-110.09 1193.98,-115.96"/>
</g>
<!-- dist/redis/default&#45;options.js -->
<g id="node21" class="node">
<title>dist/redis/default&#45;options.js</title>
<path fill="none" stroke="#cfffac" d="M765.83,-165.5C765.83,-165.5 605.17,-165.5 605.17,-165.5 601.33,-165.5 597.5,-161.67 597.5,-157.83 597.5,-157.83 597.5,-150.17 597.5,-150.17 597.5,-146.33 601.33,-142.5 605.17,-142.5 605.17,-142.5 765.83,-142.5 765.83,-142.5 769.67,-142.5 773.5,-146.33 773.5,-150.17 773.5,-150.17 773.5,-157.83 773.5,-157.83 773.5,-161.67 769.67,-165.5 765.83,-165.5"/>
<text text-anchor="middle" x="685.5" y="-150.3" font-family="Arial" font-size="14.00" fill="#cfffac">dist/redis/default&#45;options.js</text>
</g>
<!-- dist/redis/redis.providers.js&#45;&gt;dist/redis/common/index.js -->
<g id="edge47" class="edge">
<title>dist/redis/redis.providers.js&#45;&gt;dist/redis/common/index.js</title>
<path fill="none" stroke="#757575" d="M515.53,-167.54C543.23,-172.04 575.13,-177.23 603.69,-181.87"/>
<polygon fill="#757575" stroke="#757575" points="603.22,-185.34 613.65,-183.49 604.34,-178.43 603.22,-185.34"/>
</g>
<!-- dist/redis/redis.providers.js&#45;&gt;dist/redis/redis&#45;manager.js -->
<g id="edge49" class="edge">
<title>dist/redis/redis.providers.js&#45;&gt;dist/redis/redis&#45;manager.js</title>
<path fill="none" stroke="#757575" d="M466.59,-167.58C492.59,-180.79 537.4,-202.2 578,-215 586.51,-217.68 595.52,-220.09 604.55,-222.24"/>
<polygon fill="#757575" stroke="#757575" points="603.81,-225.66 614.34,-224.46 605.36,-218.83 603.81,-225.66"/>
</g>
<!-- dist/redis/redis.providers.js&#45;&gt;dist/redis/redis.constants.js -->
<g id="edge50" class="edge">
<title>dist/redis/redis.providers.js&#45;&gt;dist/redis/redis.constants.js</title>
<path fill="none" stroke="#757575" d="M509.98,-144.45C531.62,-140.7 555.83,-136.59 578,-133 689.38,-114.98 716.49,-103.47 829,-95 941.57,-86.53 970.11,-94.58 1083,-95 1094.58,-95.04 1106.73,-95.11 1118.78,-95.18"/>
<polygon fill="#757575" stroke="#757575" points="1118.85,-98.68 1128.87,-95.25 1118.9,-91.68 1118.85,-98.68"/>
</g>
<!-- dist/redis/redis.providers.js&#45;&gt;dist/redis/default&#45;options.js -->
<g id="edge48" class="edge">
<title>dist/redis/redis.providers.js&#45;&gt;dist/redis/default&#45;options.js</title>
<path fill="none" stroke="#757575" d="M531.82,-155.27C549.81,-155.12 568.85,-154.96 587.15,-154.81"/>
<polygon fill="#757575" stroke="#757575" points="587.27,-158.31 597.24,-154.73 587.21,-151.31 587.27,-158.31"/>
</g>
<!-- health/index.js -->
<g id="node23" class="node">
<title>health/index.js</title>
<path fill="none" stroke="#c6c5fe" d="M259.83,-399.5C259.83,-399.5 172.17,-399.5 172.17,-399.5 168.33,-399.5 164.5,-395.67 164.5,-391.83 164.5,-391.83 164.5,-384.17 164.5,-384.17 164.5,-380.33 168.33,-376.5 172.17,-376.5 172.17,-376.5 259.83,-376.5 259.83,-376.5 263.67,-376.5 267.5,-380.33 267.5,-384.17 267.5,-384.17 267.5,-391.83 267.5,-391.83 267.5,-395.67 263.67,-399.5 259.83,-399.5"/>
<text text-anchor="middle" x="216" y="-384.3" font-family="Arial" font-size="14.00" fill="#c6c5fe">health/index.js</text>
</g>
<!-- health/index.js&#45;&gt;dist/health/index.js -->
<g id="edge51" class="edge">
<title>health/index.js&#45;&gt;dist/health/index.js</title>
<path fill="none" stroke="#757575" d="M267.61,-388C297.5,-388 335.86,-388 369.04,-388"/>
<polygon fill="#757575" stroke="#757575" points="369.15,-391.5 379.15,-388 369.15,-384.5 369.15,-391.5"/>
</g>
</g>
</svg>
