<?xml version="1.0" encoding="UTF-8" standalone="no"?>
<!DOCTYPE svg PUBLIC "-//W3C//DTD SVG 1.1//EN"
 "http://www.w3.org/Graphics/SVG/1.1/DTD/svg11.dtd">
<!-- Generated by graphviz version 2.43.0 (0)
 -->
<!-- Title: G Pages: 1 -->
<svg width="1657pt" height="653pt"
 viewBox="0.00 0.00 1657.20 652.73" xmlns="http://www.w3.org/2000/svg" xmlns:xlink="http://www.w3.org/1999/xlink">
<g id="graph0" class="graph" transform="scale(1 1) rotate(0) translate(21.6 631.13)">
<title>G</title>
<polygon fill="#111111" stroke="transparent" points="-21.6,21.6 -21.6,-631.13 1635.6,-631.13 1635.6,21.6 -21.6,21.6"/>
<!-- dist/cluster/cluster&#45;core.module.js -->
<g id="node1" class="node">
<title>dist/cluster/cluster&#45;core.module.js</title>
<path fill="none" stroke="#c6c5fe" d="M555.33,-447.42C555.33,-447.42 352.67,-447.42 352.67,-447.42 348.83,-447.42 345,-443.58 345,-439.75 345,-439.75 345,-432.08 345,-432.08 345,-428.25 348.83,-424.42 352.67,-424.42 352.67,-424.42 555.33,-424.42 555.33,-424.42 559.17,-424.42 563,-428.25 563,-432.08 563,-432.08 563,-439.75 563,-439.75 563,-443.58 559.17,-447.42 555.33,-447.42"/>
<text text-anchor="middle" x="454" y="-432.22" font-family="Arial" font-size="14.00" fill="#c6c5fe">dist/cluster/cluster&#45;core.module.js</text>
</g>
<!-- dist/cluster/cluster.constants.js -->
<g id="node2" class="node">
<title>dist/cluster/cluster.constants.js</title>
<path fill="none" stroke="#cfffac" d="M1600.33,-486.42C1600.33,-486.42 1416.67,-486.42 1416.67,-486.42 1412.83,-486.42 1409,-482.58 1409,-478.75 1409,-478.75 1409,-471.08 1409,-471.08 1409,-467.25 1412.83,-463.42 1416.67,-463.42 1416.67,-463.42 1600.33,-463.42 1600.33,-463.42 1604.17,-463.42 1608,-467.25 1608,-471.08 1608,-471.08 1608,-478.75 1608,-478.75 1608,-482.58 1604.17,-486.42 1600.33,-486.42"/>
<text text-anchor="middle" x="1508.5" y="-471.22" font-family="Arial" font-size="14.00" fill="#cfffac">dist/cluster/cluster.constants.js</text>
</g>
<!-- dist/cluster/cluster&#45;core.module.js&#45;&gt;dist/cluster/cluster.constants.js -->
<g id="edge1" class="edge">
<title>dist/cluster/cluster&#45;core.module.js&#45;&gt;dist/cluster/cluster.constants.js</title>
<path fill="none" stroke="#757575" d="M521.84,-447.44C546.07,-451.14 573.7,-454.83 599,-456.92 886.93,-480.67 1227.83,-479.65 1398.57,-477.15"/>
<polygon fill="#757575" stroke="#757575" points="1398.87,-480.64 1408.82,-476.99 1398.77,-473.64 1398.87,-480.64"/>
</g>
<!-- dist/cluster/cluster.providers.js -->
<g id="node3" class="node">
<title>dist/cluster/cluster.providers.js</title>
<path fill="none" stroke="#c6c5fe" d="M797.33,-447.42C797.33,-447.42 615.67,-447.42 615.67,-447.42 611.83,-447.42 608,-443.58 608,-439.75 608,-439.75 608,-432.08 608,-432.08 608,-428.25 611.83,-424.42 615.67,-424.42 615.67,-424.42 797.33,-424.42 797.33,-424.42 801.17,-424.42 805,-428.25 805,-432.08 805,-432.08 805,-439.75 805,-439.75 805,-443.58 801.17,-447.42 797.33,-447.42"/>
<text text-anchor="middle" x="706.5" y="-432.22" font-family="Arial" font-size="14.00" fill="#c6c5fe">dist/cluster/cluster.providers.js</text>
</g>
<!-- dist/cluster/cluster&#45;core.module.js&#45;&gt;dist/cluster/cluster.providers.js -->
<g id="edge2" class="edge">
<title>dist/cluster/cluster&#45;core.module.js&#45;&gt;dist/cluster/cluster.providers.js</title>
<path fill="none" stroke="#757575" d="M563.05,-435.92C574.52,-435.92 586.19,-435.92 597.66,-435.92"/>
<polygon fill="#757575" stroke="#757575" points="597.67,-439.42 607.67,-435.92 597.67,-432.42 597.67,-439.42"/>
</g>
<!-- dist/cluster/cluster.service.js -->
<g id="node4" class="node">
<title>dist/cluster/cluster.service.js</title>
<path fill="none" stroke="#c6c5fe" d="M1047.83,-393.42C1047.83,-393.42 879.17,-393.42 879.17,-393.42 875.33,-393.42 871.5,-389.58 871.5,-385.75 871.5,-385.75 871.5,-378.08 871.5,-378.08 871.5,-374.25 875.33,-370.42 879.17,-370.42 879.17,-370.42 1047.83,-370.42 1047.83,-370.42 1051.67,-370.42 1055.5,-374.25 1055.5,-378.08 1055.5,-378.08 1055.5,-385.75 1055.5,-385.75 1055.5,-389.58 1051.67,-393.42 1047.83,-393.42"/>
<text text-anchor="middle" x="963.5" y="-378.22" font-family="Arial" font-size="14.00" fill="#c6c5fe">dist/cluster/cluster.service.js</text>
</g>
<!-- dist/cluster/cluster&#45;core.module.js&#45;&gt;dist/cluster/cluster.service.js -->
<g id="edge3" class="edge">
<title>dist/cluster/cluster&#45;core.module.js&#45;&gt;dist/cluster/cluster.service.js</title>
<path fill="none" stroke="#757575" d="M533.39,-424.38C554.65,-421.43 577.69,-418.39 599,-415.92 687.39,-405.65 788.16,-396.42 861.15,-390.17"/>
<polygon fill="#757575" stroke="#757575" points="861.59,-393.65 871.26,-389.31 861,-386.67 861.59,-393.65"/>
</g>
<!-- dist/cluster/common/index.js -->
<g id="node5" class="node">
<title>dist/cluster/common/index.js</title>
<path fill="none" stroke="#c6c5fe" d="M1049.83,-526.42C1049.83,-526.42 877.17,-526.42 877.17,-526.42 873.33,-526.42 869.5,-522.58 869.5,-518.75 869.5,-518.75 869.5,-511.08 869.5,-511.08 869.5,-507.25 873.33,-503.42 877.17,-503.42 877.17,-503.42 1049.83,-503.42 1049.83,-503.42 1053.67,-503.42 1057.5,-507.25 1057.5,-511.08 1057.5,-511.08 1057.5,-518.75 1057.5,-518.75 1057.5,-522.58 1053.67,-526.42 1049.83,-526.42"/>
<text text-anchor="middle" x="963.5" y="-511.22" font-family="Arial" font-size="14.00" fill="#c6c5fe">dist/cluster/common/index.js</text>
</g>
<!-- dist/cluster/cluster&#45;core.module.js&#45;&gt;dist/cluster/common/index.js -->
<g id="edge4" class="edge">
<title>dist/cluster/cluster&#45;core.module.js&#45;&gt;dist/cluster/common/index.js</title>
<path fill="none" stroke="#757575" d="M479.31,-447.53C507.42,-460.36 555.43,-480.46 599,-489.92 685.35,-508.66 785.68,-514.39 859.04,-515.73"/>
<polygon fill="#757575" stroke="#757575" points="859.15,-519.23 869.21,-515.89 859.26,-512.23 859.15,-519.23"/>
</g>
<!-- dist/cluster/cluster.providers.js&#45;&gt;dist/cluster/cluster.constants.js -->
<g id="edge6" class="edge">
<title>dist/cluster/cluster.providers.js&#45;&gt;dist/cluster/cluster.constants.js</title>
<path fill="none" stroke="#757575" d="M805.09,-437.74C933.9,-440.58 1167.67,-447.22 1367,-460.92 1377.29,-461.62 1387.98,-462.48 1398.68,-463.41"/>
<polygon fill="#757575" stroke="#757575" points="1398.65,-466.92 1408.92,-464.32 1399.28,-459.95 1398.65,-466.92"/>
</g>
<!-- dist/cluster/cluster.providers.js&#45;&gt;dist/cluster/cluster.service.js -->
<g id="edge7" class="edge">
<title>dist/cluster/cluster.providers.js&#45;&gt;dist/cluster/cluster.service.js</title>
<path fill="none" stroke="#757575" d="M761.89,-424.4C801.84,-415.94 856.25,-404.42 898.32,-395.51"/>
<polygon fill="#757575" stroke="#757575" points="899.13,-398.91 908.19,-393.42 897.68,-392.07 899.13,-398.91"/>
</g>
<!-- dist/cluster/cluster.providers.js&#45;&gt;dist/cluster/common/index.js -->
<g id="edge8" class="edge">
<title>dist/cluster/cluster.providers.js&#45;&gt;dist/cluster/common/index.js</title>
<path fill="none" stroke="#757575" d="M744.85,-447.49C790.02,-461.48 866.09,-485.05 915.28,-500.29"/>
<polygon fill="#757575" stroke="#757575" points="914.46,-503.7 925.05,-503.31 916.53,-497.01 914.46,-503.7"/>
</g>
<!-- dist/errors/index.js -->
<g id="node7" class="node">
<title>dist/errors/index.js</title>
<path fill="none" stroke="#c6c5fe" d="M1295.33,-306.42C1295.33,-306.42 1184.67,-306.42 1184.67,-306.42 1180.83,-306.42 1177,-302.58 1177,-298.75 1177,-298.75 1177,-291.08 1177,-291.08 1177,-287.25 1180.83,-283.42 1184.67,-283.42 1184.67,-283.42 1295.33,-283.42 1295.33,-283.42 1299.17,-283.42 1303,-287.25 1303,-291.08 1303,-291.08 1303,-298.75 1303,-298.75 1303,-302.58 1299.17,-306.42 1295.33,-306.42"/>
<text text-anchor="middle" x="1240" y="-291.22" font-family="Arial" font-size="14.00" fill="#c6c5fe">dist/errors/index.js</text>
</g>
<!-- dist/cluster/cluster.providers.js&#45;&gt;dist/errors/index.js -->
<g id="edge9" class="edge">
<title>dist/cluster/cluster.providers.js&#45;&gt;dist/errors/index.js</title>
<path fill="none" stroke="#757575" d="M725.59,-424.18C751.88,-407.67 802.71,-377.84 850,-361.92 907.4,-342.59 1070.96,-318.02 1166.74,-304.65"/>
<polygon fill="#757575" stroke="#757575" points="1167.22,-308.12 1176.64,-303.27 1166.26,-301.18 1167.22,-308.12"/>
</g>
<!-- dist/cluster/cluster.service.js&#45;&gt;dist/cluster/cluster.constants.js -->
<g id="edge10" class="edge">
<title>dist/cluster/cluster.service.js&#45;&gt;dist/cluster/cluster.constants.js</title>
<path fill="none" stroke="#757575" d="M1055.53,-384.19C1137.84,-387.84 1261.87,-397.31 1367,-421.92 1404.47,-430.69 1445.43,-446.96 1473.41,-459.17"/>
<polygon fill="#757575" stroke="#757575" points="1472.18,-462.45 1482.74,-463.3 1475.01,-456.05 1472.18,-462.45"/>
</g>
<!-- dist/cluster/cluster.service.js&#45;&gt;dist/errors/index.js -->
<g id="edge11" class="edge">
<title>dist/cluster/cluster.service.js&#45;&gt;dist/errors/index.js</title>
<path fill="none" stroke="#757575" d="M1038.4,-370.41C1051.68,-366.8 1065.07,-362.08 1077,-355.92 1096.02,-346.09 1093.98,-333.73 1113,-323.92 1129.58,-315.36 1148.67,-309.3 1166.9,-305.03"/>
<polygon fill="#757575" stroke="#757575" points="1167.9,-308.39 1176.92,-302.83 1166.4,-301.55 1167.9,-308.39"/>
</g>
<!-- dist/utils/index.js -->
<g id="node8" class="node">
<title>dist/utils/index.js</title>
<path fill="none" stroke="#cfffac" d="M1289.83,-355.42C1289.83,-355.42 1190.17,-355.42 1190.17,-355.42 1186.33,-355.42 1182.5,-351.58 1182.5,-347.75 1182.5,-347.75 1182.5,-340.08 1182.5,-340.08 1182.5,-336.25 1186.33,-332.42 1190.17,-332.42 1190.17,-332.42 1289.83,-332.42 1289.83,-332.42 1293.67,-332.42 1297.5,-336.25 1297.5,-340.08 1297.5,-340.08 1297.5,-347.75 1297.5,-347.75 1297.5,-351.58 1293.67,-355.42 1289.83,-355.42"/>
<text text-anchor="middle" x="1240" y="-340.22" font-family="Arial" font-size="14.00" fill="#cfffac">dist/utils/index.js</text>
</g>
<!-- dist/cluster/cluster.service.js&#45;&gt;dist/utils/index.js -->
<g id="edge12" class="edge">
<title>dist/cluster/cluster.service.js&#45;&gt;dist/utils/index.js</title>
<path fill="none" stroke="#757575" d="M1047.6,-370.41C1087.41,-364.9 1134.46,-358.39 1171.95,-353.2"/>
<polygon fill="#757575" stroke="#757575" points="1172.83,-356.61 1182.25,-351.77 1171.87,-349.68 1172.83,-356.61"/>
</g>
<!-- dist/cluster/common/cluster.decorator.js -->
<g id="node9" class="node">
<title>dist/cluster/common/cluster.decorator.js</title>
<path fill="none" stroke="#c6c5fe" d="M1359.33,-567.42C1359.33,-567.42 1120.67,-567.42 1120.67,-567.42 1116.83,-567.42 1113,-563.58 1113,-559.75 1113,-559.75 1113,-552.08 1113,-552.08 1113,-548.25 1116.83,-544.42 1120.67,-544.42 1120.67,-544.42 1359.33,-544.42 1359.33,-544.42 1363.17,-544.42 1367,-548.25 1367,-552.08 1367,-552.08 1367,-559.75 1367,-559.75 1367,-563.58 1363.17,-567.42 1359.33,-567.42"/>
<text text-anchor="middle" x="1240" y="-552.22" font-family="Arial" font-size="14.00" fill="#c6c5fe">dist/cluster/common/cluster.decorator.js</text>
</g>
<!-- dist/cluster/common/index.js&#45;&gt;dist/cluster/common/cluster.decorator.js -->
<g id="edge14" class="edge">
<title>dist/cluster/common/index.js&#45;&gt;dist/cluster/common/cluster.decorator.js</title>
<path fill="none" stroke="#757575" d="M1041.69,-526.45C1075.9,-531.56 1116.3,-537.59 1151.61,-542.86"/>
<polygon fill="#757575" stroke="#757575" points="1151.5,-546.39 1161.91,-544.4 1152.54,-539.46 1151.5,-546.39"/>
</g>
<!-- dist/cluster/common/cluster.utils.js -->
<g id="node10" class="node">
<title>dist/cluster/common/cluster.utils.js</title>
<path fill="none" stroke="#cfffac" d="M1343.33,-526.42C1343.33,-526.42 1136.67,-526.42 1136.67,-526.42 1132.83,-526.42 1129,-522.58 1129,-518.75 1129,-518.75 1129,-511.08 1129,-511.08 1129,-507.25 1132.83,-503.42 1136.67,-503.42 1136.67,-503.42 1343.33,-503.42 1343.33,-503.42 1347.17,-503.42 1351,-507.25 1351,-511.08 1351,-511.08 1351,-518.75 1351,-518.75 1351,-522.58 1347.17,-526.42 1343.33,-526.42"/>
<text text-anchor="middle" x="1240" y="-511.22" font-family="Arial" font-size="14.00" fill="#cfffac">dist/cluster/common/cluster.utils.js</text>
</g>
<!-- dist/cluster/common/index.js&#45;&gt;dist/cluster/common/cluster.utils.js -->
<g id="edge15" class="edge">
<title>dist/cluster/common/index.js&#45;&gt;dist/cluster/common/cluster.utils.js</title>
<path fill="none" stroke="#757575" d="M1057.82,-514.92C1077.36,-514.92 1098.24,-514.92 1118.61,-514.92"/>
<polygon fill="#757575" stroke="#757575" points="1118.88,-518.42 1128.88,-514.92 1118.88,-511.42 1118.88,-518.42"/>
</g>
<!-- dist/cluster/cluster.module.js -->
<g id="node6" class="node">
<title>dist/cluster/cluster.module.js</title>
<path fill="none" stroke="#c6c5fe" d="M301.33,-428.42C301.33,-428.42 130.67,-428.42 130.67,-428.42 126.83,-428.42 123,-424.58 123,-420.75 123,-420.75 123,-413.08 123,-413.08 123,-409.25 126.83,-405.42 130.67,-405.42 130.67,-405.42 301.33,-405.42 301.33,-405.42 305.17,-405.42 309,-409.25 309,-413.08 309,-413.08 309,-420.75 309,-420.75 309,-424.58 305.17,-428.42 301.33,-428.42"/>
<text text-anchor="middle" x="216" y="-413.22" font-family="Arial" font-size="14.00" fill="#c6c5fe">dist/cluster/cluster.module.js</text>
</g>
<!-- dist/cluster/cluster.module.js&#45;&gt;dist/cluster/cluster&#45;core.module.js -->
<g id="edge5" class="edge">
<title>dist/cluster/cluster.module.js&#45;&gt;dist/cluster/cluster&#45;core.module.js</title>
<path fill="none" stroke="#757575" d="M309.26,-424.34C317.62,-425.02 326.16,-425.71 334.71,-426.39"/>
<polygon fill="#757575" stroke="#757575" points="334.48,-429.89 344.73,-427.2 335.05,-422.91 334.48,-429.89"/>
</g>
<!-- dist/errors/messages.constant.js -->
<g id="node11" class="node">
<title>dist/errors/messages.constant.js</title>
<path fill="none" stroke="#cfffac" d="M1606.33,-326.42C1606.33,-326.42 1410.67,-326.42 1410.67,-326.42 1406.83,-326.42 1403,-322.58 1403,-318.75 1403,-318.75 1403,-311.08 1403,-311.08 1403,-307.25 1406.83,-303.42 1410.67,-303.42 1410.67,-303.42 1606.33,-303.42 1606.33,-303.42 1610.17,-303.42 1614,-307.25 1614,-311.08 1614,-311.08 1614,-318.75 1614,-318.75 1614,-322.58 1610.17,-326.42 1606.33,-326.42"/>
<text text-anchor="middle" x="1508.5" y="-311.22" font-family="Arial" font-size="14.00" fill="#cfffac">dist/errors/messages.constant.js</text>
</g>
<!-- dist/errors/index.js&#45;&gt;dist/errors/messages.constant.js -->
<g id="edge16" class="edge">
<title>dist/errors/index.js&#45;&gt;dist/errors/messages.constant.js</title>
<path fill="none" stroke="#757575" d="M1303.15,-299.58C1329.82,-301.58 1361.86,-303.99 1392.58,-306.29"/>
<polygon fill="#757575" stroke="#757575" points="1392.7,-309.81 1402.94,-307.07 1393.23,-302.83 1392.7,-309.81"/>
</g>
<!-- dist/errors/redis.error.js -->
<g id="node12" class="node">
<title>dist/errors/redis.error.js</title>
<path fill="none" stroke="#cfffac" d="M1578.33,-285.42C1578.33,-285.42 1438.67,-285.42 1438.67,-285.42 1434.83,-285.42 1431,-281.58 1431,-277.75 1431,-277.75 1431,-270.08 1431,-270.08 1431,-266.25 1434.83,-262.42 1438.67,-262.42 1438.67,-262.42 1578.33,-262.42 1578.33,-262.42 1582.17,-262.42 1586,-266.25 1586,-270.08 1586,-270.08 1586,-277.75 1586,-277.75 1586,-281.58 1582.17,-285.42 1578.33,-285.42"/>
<text text-anchor="middle" x="1508.5" y="-270.22" font-family="Arial" font-size="14.00" fill="#cfffac">dist/errors/redis.error.js</text>
</g>
<!-- dist/errors/index.js&#45;&gt;dist/errors/redis.error.js -->
<g id="edge17" class="edge">
<title>dist/errors/index.js&#45;&gt;dist/errors/redis.error.js</title>
<path fill="none" stroke="#757575" d="M1303.15,-290.02C1338.16,-287.26 1382.44,-283.77 1420.82,-280.75"/>
<polygon fill="#757575" stroke="#757575" points="1421.26,-284.22 1430.96,-279.95 1420.71,-277.24 1421.26,-284.22"/>
</g>
<!-- dist/cluster/common/cluster.decorator.js&#45;&gt;dist/cluster/cluster.constants.js -->
<g id="edge13" class="edge">
<title>dist/cluster/common/cluster.decorator.js&#45;&gt;dist/cluster/cluster.constants.js</title>
<path fill="none" stroke="#757575" d="M1331.44,-544.39C1343.5,-542.03 1355.62,-539.23 1367,-535.92 1406.05,-524.54 1448.6,-504.98 1476.52,-491.08"/>
<polygon fill="#757575" stroke="#757575" points="1478.4,-494.05 1485.76,-486.42 1475.25,-487.8 1478.4,-494.05"/>
</g>
<!-- dist/health/index.js -->
<g id="node13" class="node">
<title>dist/health/index.js</title>
<path fill="none" stroke="#c6c5fe" d="M510.33,-310.42C510.33,-310.42 397.67,-310.42 397.67,-310.42 393.83,-310.42 390,-306.58 390,-302.75 390,-302.75 390,-295.08 390,-295.08 390,-291.25 393.83,-287.42 397.67,-287.42 397.67,-287.42 510.33,-287.42 510.33,-287.42 514.17,-287.42 518,-291.25 518,-295.08 518,-295.08 518,-302.75 518,-302.75 518,-306.58 514.17,-310.42 510.33,-310.42"/>
<text text-anchor="middle" x="454" y="-295.22" font-family="Arial" font-size="14.00" fill="#c6c5fe">dist/health/index.js</text>
</g>
<!-- dist/health/indicators/redis.health.js -->
<g id="node14" class="node">
<title>dist/health/indicators/redis.health.js</title>
<path fill="none" stroke="#c6c5fe" d="M1069.33,-306.42C1069.33,-306.42 857.67,-306.42 857.67,-306.42 853.83,-306.42 850,-302.58 850,-298.75 850,-298.75 850,-291.08 850,-291.08 850,-287.25 853.83,-283.42 857.67,-283.42 857.67,-283.42 1069.33,-283.42 1069.33,-283.42 1073.17,-283.42 1077,-287.25 1077,-291.08 1077,-291.08 1077,-298.75 1077,-298.75 1077,-302.58 1073.17,-306.42 1069.33,-306.42"/>
<text text-anchor="middle" x="963.5" y="-291.22" font-family="Arial" font-size="14.00" fill="#c6c5fe">dist/health/indicators/redis.health.js</text>
</g>
<!-- dist/health/index.js&#45;&gt;dist/health/indicators/redis.health.js -->
<g id="edge18" class="edge">
<title>dist/health/index.js&#45;&gt;dist/health/indicators/redis.health.js</title>
<path fill="none" stroke="#757575" d="M518.08,-299.98C543.25,-300.36 572.5,-300.73 599,-300.92 694.55,-301.58 718.46,-302.85 814,-300.92 822.34,-300.75 830.95,-300.53 839.62,-300.27"/>
<polygon fill="#757575" stroke="#757575" points="839.93,-303.76 849.81,-299.95 839.71,-296.76 839.93,-303.76"/>
</g>
<!-- dist/health/redis&#45;health.module.js -->
<g id="node15" class="node">
<title>dist/health/redis&#45;health.module.js</title>
<path fill="none" stroke="#c6c5fe" d="M806.33,-291.42C806.33,-291.42 606.67,-291.42 606.67,-291.42 602.83,-291.42 599,-287.58 599,-283.75 599,-283.75 599,-276.08 599,-276.08 599,-272.25 602.83,-268.42 606.67,-268.42 606.67,-268.42 806.33,-268.42 806.33,-268.42 810.17,-268.42 814,-272.25 814,-276.08 814,-276.08 814,-283.75 814,-283.75 814,-287.58 810.17,-291.42 806.33,-291.42"/>
<text text-anchor="middle" x="706.5" y="-276.22" font-family="Arial" font-size="14.00" fill="#c6c5fe">dist/health/redis&#45;health.module.js</text>
</g>
<!-- dist/health/index.js&#45;&gt;dist/health/redis&#45;health.module.js -->
<g id="edge19" class="edge">
<title>dist/health/index.js&#45;&gt;dist/health/redis&#45;health.module.js</title>
<path fill="none" stroke="#757575" d="M518.21,-294.12C539.74,-292.49 564.54,-290.61 588.9,-288.76"/>
<polygon fill="#757575" stroke="#757575" points="589.23,-292.25 598.94,-288 588.7,-285.27 589.23,-292.25"/>
</g>
<!-- dist/health/indicators/redis.health.js&#45;&gt;dist/errors/index.js -->
<g id="edge20" class="edge">
<title>dist/health/indicators/redis.health.js&#45;&gt;dist/errors/index.js</title>
<path fill="none" stroke="#757575" d="M1077.34,-294.92C1107.5,-294.92 1139.28,-294.92 1166.61,-294.92"/>
<polygon fill="#757575" stroke="#757575" points="1166.85,-298.42 1176.85,-294.92 1166.85,-291.42 1166.85,-298.42"/>
</g>
<!-- dist/health/redis&#45;health.module.js&#45;&gt;dist/health/indicators/redis.health.js -->
<g id="edge21" class="edge">
<title>dist/health/redis&#45;health.module.js&#45;&gt;dist/health/indicators/redis.health.js</title>
<path fill="none" stroke="#757575" d="M814.17,-286.19C822.6,-286.69 831.16,-287.19 839.7,-287.69"/>
<polygon fill="#757575" stroke="#757575" points="839.5,-291.19 849.69,-288.28 839.91,-284.2 839.5,-291.19"/>
</g>
<!-- dist/index.js -->
<g id="node16" class="node">
<title>dist/index.js</title>
<path fill="none" stroke="#c6c5fe" d="M79.33,-310.42C79.33,-310.42 7.67,-310.42 7.67,-310.42 3.83,-310.42 0,-306.58 0,-302.75 0,-302.75 0,-295.08 0,-295.08 0,-291.25 3.83,-287.42 7.67,-287.42 7.67,-287.42 79.33,-287.42 79.33,-287.42 83.17,-287.42 87,-291.25 87,-295.08 87,-295.08 87,-302.75 87,-302.75 87,-306.58 83.17,-310.42 79.33,-310.42"/>
<text text-anchor="middle" x="43.5" y="-295.22" font-family="Arial" font-size="14.00" fill="#c6c5fe">dist/index.js</text>
</g>
<!-- dist/index.js&#45;&gt;dist/cluster/cluster.constants.js -->
<g id="edge22" class="edge">
<title>dist/index.js&#45;&gt;dist/cluster/cluster.constants.js</title>
<path fill="none" stroke="#757575" d="M45.76,-310.45C50.01,-343.79 66.88,-441.22 123,-492.92 236,-597.02 299.36,-595.92 453,-595.92 453,-595.92 453,-595.92 964.5,-595.92 1143.59,-595.92 1198.02,-636.23 1367,-576.92 1416.79,-559.44 1464.18,-518.17 1489.18,-493.82"/>
<polygon fill="#757575" stroke="#757575" points="1491.85,-496.09 1496.48,-486.56 1486.92,-491.13 1491.85,-496.09"/>
</g>
<!-- dist/index.js&#45;&gt;dist/cluster/cluster.service.js -->
<g id="edge24" class="edge">
<title>dist/index.js&#45;&gt;dist/cluster/cluster.service.js</title>
<path fill="none" stroke="#757575" d="M82.12,-310.52C94.97,-314.07 109.51,-317.63 123,-319.92 386.85,-364.55 702.74,-377.05 861.24,-380.55"/>
<polygon fill="#757575" stroke="#757575" points="861.38,-384.06 871.45,-380.77 861.53,-377.06 861.38,-384.06"/>
</g>
<!-- dist/index.js&#45;&gt;dist/cluster/common/index.js -->
<g id="edge25" class="edge">
<title>dist/index.js&#45;&gt;dist/cluster/common/index.js</title>
<path fill="none" stroke="#757575" d="M47.38,-310.58C54.76,-337.85 77.1,-405.87 123,-437.92 366.26,-607.78 750.67,-556.91 900.15,-528.37"/>
<polygon fill="#757575" stroke="#757575" points="900.93,-531.79 910.08,-526.45 899.59,-524.92 900.93,-531.79"/>
</g>
<!-- dist/index.js&#45;&gt;dist/cluster/cluster.module.js -->
<g id="edge23" class="edge">
<title>dist/index.js&#45;&gt;dist/cluster/cluster.module.js</title>
<path fill="none" stroke="#757575" d="M55.04,-310.68C69.33,-326.13 96.16,-353.47 123,-371.92 139.69,-383.39 159.74,-393.56 176.86,-401.32"/>
<polygon fill="#757575" stroke="#757575" points="175.47,-404.53 186.03,-405.37 178.3,-398.13 175.47,-404.53"/>
</g>
<!-- dist/redis/common/index.js -->
<g id="node17" class="node">
<title>dist/redis/common/index.js</title>
<path fill="none" stroke="#c6c5fe" d="M1044.33,-133.42C1044.33,-133.42 882.67,-133.42 882.67,-133.42 878.83,-133.42 875,-129.58 875,-125.75 875,-125.75 875,-118.08 875,-118.08 875,-114.25 878.83,-110.42 882.67,-110.42 882.67,-110.42 1044.33,-110.42 1044.33,-110.42 1048.17,-110.42 1052,-114.25 1052,-118.08 1052,-118.08 1052,-125.75 1052,-125.75 1052,-129.58 1048.17,-133.42 1044.33,-133.42"/>
<text text-anchor="middle" x="963.5" y="-118.22" font-family="Arial" font-size="14.00" fill="#c6c5fe">dist/redis/common/index.js</text>
</g>
<!-- dist/index.js&#45;&gt;dist/redis/common/index.js -->
<g id="edge26" class="edge">
<title>dist/index.js&#45;&gt;dist/redis/common/index.js</title>
<path fill="none" stroke="#757575" d="M47.22,-287.01C54.25,-259.23 75.9,-190.18 123,-159.92 377.47,3.56 770.34,-72.81 910.57,-107.78"/>
<polygon fill="#757575" stroke="#757575" points="910.06,-111.26 920.61,-110.32 911.78,-104.47 910.06,-111.26"/>
</g>
<!-- dist/redis/redis.constants.js -->
<g id="node18" class="node">
<title>dist/redis/redis.constants.js</title>
<path fill="none" stroke="#cfffac" d="M1590.33,-136.42C1590.33,-136.42 1426.67,-136.42 1426.67,-136.42 1422.83,-136.42 1419,-132.58 1419,-128.75 1419,-128.75 1419,-121.08 1419,-121.08 1419,-117.25 1422.83,-113.42 1426.67,-113.42 1426.67,-113.42 1590.33,-113.42 1590.33,-113.42 1594.17,-113.42 1598,-117.25 1598,-121.08 1598,-121.08 1598,-128.75 1598,-128.75 1598,-132.58 1594.17,-136.42 1590.33,-136.42"/>
<text text-anchor="middle" x="1508.5" y="-121.22" font-family="Arial" font-size="14.00" fill="#cfffac">dist/redis/redis.constants.js</text>
</g>
<!-- dist/index.js&#45;&gt;dist/redis/redis.constants.js -->
<g id="edge27" class="edge">
<title>dist/index.js&#45;&gt;dist/redis/redis.constants.js</title>
<path fill="none" stroke="#757575" d="M44.97,-287.34C47.1,-250.91 58.83,-137.69 123,-80.92 235.65,18.75 302.59,-5.92 453,-5.92 453,-5.92 453,-5.92 964.5,-5.92 1143.92,-5.92 1196.59,19.22 1367,-36.92 1413.37,-52.19 1459.98,-85.87 1486.15,-106.85"/>
<polygon fill="#757575" stroke="#757575" points="1483.94,-109.56 1493.91,-113.17 1488.37,-104.14 1483.94,-109.56"/>
</g>
<!-- dist/redis/redis.module.js -->
<g id="node19" class="node">
<title>dist/redis/redis.module.js</title>
<path fill="none" stroke="#c6c5fe" d="M291.33,-192.42C291.33,-192.42 140.67,-192.42 140.67,-192.42 136.83,-192.42 133,-188.58 133,-184.75 133,-184.75 133,-177.08 133,-177.08 133,-173.25 136.83,-169.42 140.67,-169.42 140.67,-169.42 291.33,-169.42 291.33,-169.42 295.17,-169.42 299,-173.25 299,-177.08 299,-177.08 299,-184.75 299,-184.75 299,-188.58 295.17,-192.42 291.33,-192.42"/>
<text text-anchor="middle" x="216" y="-177.22" font-family="Arial" font-size="14.00" fill="#c6c5fe">dist/redis/redis.module.js</text>
</g>
<!-- dist/index.js&#45;&gt;dist/redis/redis.module.js -->
<g id="edge28" class="edge">
<title>dist/index.js&#45;&gt;dist/redis/redis.module.js</title>
<path fill="none" stroke="#757575" d="M55.04,-287.16C69.33,-271.7 96.16,-244.36 123,-225.92 139.69,-214.45 159.74,-204.28 176.86,-196.52"/>
<polygon fill="#757575" stroke="#757575" points="178.3,-199.71 186.03,-192.46 175.47,-193.31 178.3,-199.71"/>
</g>
<!-- dist/redis/redis.service.js -->
<g id="node20" class="node">
<title>dist/redis/redis.service.js</title>
<path fill="none" stroke="#c6c5fe" d="M1037.83,-254.42C1037.83,-254.42 889.17,-254.42 889.17,-254.42 885.33,-254.42 881.5,-250.58 881.5,-246.75 881.5,-246.75 881.5,-239.08 881.5,-239.08 881.5,-235.25 885.33,-231.42 889.17,-231.42 889.17,-231.42 1037.83,-231.42 1037.83,-231.42 1041.67,-231.42 1045.5,-235.25 1045.5,-239.08 1045.5,-239.08 1045.5,-246.75 1045.5,-246.75 1045.5,-250.58 1041.67,-254.42 1037.83,-254.42"/>
<text text-anchor="middle" x="963.5" y="-239.22" font-family="Arial" font-size="14.00" fill="#c6c5fe">dist/redis/redis.service.js</text>
</g>
<!-- dist/index.js&#45;&gt;dist/redis/redis.service.js -->
<g id="edge29" class="edge">
<title>dist/index.js&#45;&gt;dist/redis/redis.service.js</title>
<path fill="none" stroke="#757575" d="M83.31,-287.34C95.86,-284.05 109.92,-280.84 123,-278.92 392.65,-239.22 715.85,-238.29 870.82,-240.69"/>
<polygon fill="#757575" stroke="#757575" points="871.17,-244.19 881.23,-240.86 871.29,-237.19 871.17,-244.19"/>
</g>
<!-- dist/redis/common/redis.decorator.js -->
<g id="node21" class="node">
<title>dist/redis/common/redis.decorator.js</title>
<path fill="none" stroke="#c6c5fe" d="M1349.33,-136.42C1349.33,-136.42 1130.67,-136.42 1130.67,-136.42 1126.83,-136.42 1123,-132.58 1123,-128.75 1123,-128.75 1123,-121.08 1123,-121.08 1123,-117.25 1126.83,-113.42 1130.67,-113.42 1130.67,-113.42 1349.33,-113.42 1349.33,-113.42 1353.17,-113.42 1357,-117.25 1357,-121.08 1357,-121.08 1357,-128.75 1357,-128.75 1357,-132.58 1353.17,-136.42 1349.33,-136.42"/>
<text text-anchor="middle" x="1240" y="-121.22" font-family="Arial" font-size="14.00" fill="#c6c5fe">dist/redis/common/redis.decorator.js</text>
</g>
<!-- dist/redis/common/index.js&#45;&gt;dist/redis/common/redis.decorator.js -->
<g id="edge30" class="edge">
<title>dist/redis/common/index.js&#45;&gt;dist/redis/common/redis.decorator.js</title>
<path fill="none" stroke="#757575" d="M1052.11,-122.87C1071.39,-123.09 1092.18,-123.31 1112.65,-123.54"/>
<polygon fill="#757575" stroke="#757575" points="1112.63,-127.04 1122.66,-123.65 1112.7,-120.04 1112.63,-127.04"/>
</g>
<!-- dist/redis/common/redis.utils.js -->
<g id="node22" class="node">
<title>dist/redis/common/redis.utils.js</title>
<path fill="none" stroke="#cfffac" d="M1333.33,-95.42C1333.33,-95.42 1146.67,-95.42 1146.67,-95.42 1142.83,-95.42 1139,-91.58 1139,-87.75 1139,-87.75 1139,-80.08 1139,-80.08 1139,-76.25 1142.83,-72.42 1146.67,-72.42 1146.67,-72.42 1333.33,-72.42 1333.33,-72.42 1337.17,-72.42 1341,-76.25 1341,-80.08 1341,-80.08 1341,-87.75 1341,-87.75 1341,-91.58 1337.17,-95.42 1333.33,-95.42"/>
<text text-anchor="middle" x="1240" y="-80.22" font-family="Arial" font-size="14.00" fill="#cfffac">dist/redis/common/redis.utils.js</text>
</g>
<!-- dist/redis/common/index.js&#45;&gt;dist/redis/common/redis.utils.js -->
<g id="edge31" class="edge">
<title>dist/redis/common/index.js&#45;&gt;dist/redis/common/redis.utils.js</title>
<path fill="none" stroke="#757575" d="M1047.6,-110.41C1078.5,-106.14 1113.76,-101.25 1145.52,-96.86"/>
<polygon fill="#757575" stroke="#757575" points="1146.28,-100.29 1155.71,-95.45 1145.32,-93.35 1146.28,-100.29"/>
</g>
<!-- dist/redis/redis&#45;core.module.js -->
<g id="node23" class="node">
<title>dist/redis/redis&#45;core.module.js</title>
<path fill="none" stroke="#c6c5fe" d="M544.83,-173.42C544.83,-173.42 363.17,-173.42 363.17,-173.42 359.33,-173.42 355.5,-169.58 355.5,-165.75 355.5,-165.75 355.5,-158.08 355.5,-158.08 355.5,-154.25 359.33,-150.42 363.17,-150.42 363.17,-150.42 544.83,-150.42 544.83,-150.42 548.67,-150.42 552.5,-154.25 552.5,-158.08 552.5,-158.08 552.5,-165.75 552.5,-165.75 552.5,-169.58 548.67,-173.42 544.83,-173.42"/>
<text text-anchor="middle" x="454" y="-158.22" font-family="Arial" font-size="14.00" fill="#c6c5fe">dist/redis/redis&#45;core.module.js</text>
</g>
<!-- dist/redis/redis.module.js&#45;&gt;dist/redis/redis&#45;core.module.js -->
<g id="edge37" class="edge">
<title>dist/redis/redis.module.js&#45;&gt;dist/redis/redis&#45;core.module.js</title>
<path fill="none" stroke="#757575" d="M299.21,-174.3C314.05,-173.1 329.73,-171.84 345.17,-170.6"/>
<polygon fill="#757575" stroke="#757575" points="345.58,-174.08 355.27,-169.79 345.02,-167.1 345.58,-174.08"/>
</g>
<!-- dist/redis/redis.service.js&#45;&gt;dist/errors/index.js -->
<g id="edge42" class="edge">
<title>dist/redis/redis.service.js&#45;&gt;dist/errors/index.js</title>
<path fill="none" stroke="#757575" d="M1025.42,-254.46C1067.62,-262.45 1123.94,-273.12 1168.15,-281.5"/>
<polygon fill="#757575" stroke="#757575" points="1167.77,-284.99 1178.25,-283.41 1169.08,-278.11 1167.77,-284.99"/>
</g>
<!-- dist/redis/redis.service.js&#45;&gt;dist/utils/index.js -->
<g id="edge44" class="edge">
<title>dist/redis/redis.service.js&#45;&gt;dist/utils/index.js</title>
<path fill="none" stroke="#757575" d="M1029.09,-254.5C1045.51,-259.23 1062.58,-265.8 1077,-274.92 1097.5,-287.87 1092.13,-303.56 1113,-315.92 1130.82,-326.46 1152.18,-333.04 1172.22,-337.15"/>
<polygon fill="#757575" stroke="#757575" points="1171.76,-340.62 1182.24,-339.02 1173.05,-333.74 1171.76,-340.62"/>
</g>
<!-- dist/redis/redis.service.js&#45;&gt;dist/redis/redis.constants.js -->
<g id="edge43" class="edge">
<title>dist/redis/redis.service.js&#45;&gt;dist/redis/redis.constants.js</title>
<path fill="none" stroke="#757575" d="M1045.73,-235.05C1127.77,-225.93 1257.66,-208.27 1367,-178.92 1404.03,-168.98 1444.75,-152.7 1472.78,-140.61"/>
<polygon fill="#757575" stroke="#757575" points="1474.38,-143.73 1482.14,-136.52 1471.58,-137.31 1474.38,-143.73"/>
</g>
<!-- dist/redis/common/redis.decorator.js&#45;&gt;dist/redis/redis.constants.js -->
<g id="edge32" class="edge">
<title>dist/redis/common/redis.decorator.js&#45;&gt;dist/redis/redis.constants.js</title>
<path fill="none" stroke="#757575" d="M1357.12,-124.92C1374.19,-124.92 1391.65,-124.92 1408.34,-124.92"/>
<polygon fill="#757575" stroke="#757575" points="1408.62,-128.42 1418.62,-124.92 1408.62,-121.42 1408.62,-128.42"/>
</g>
<!-- dist/redis/redis&#45;core.module.js&#45;&gt;dist/redis/common/index.js -->
<g id="edge33" class="edge">
<title>dist/redis/redis&#45;core.module.js&#45;&gt;dist/redis/common/index.js</title>
<path fill="none" stroke="#757575" d="M524.79,-150.41C548.31,-146.89 574.74,-143.32 599,-140.92 688.79,-132.04 791.5,-127.16 864.79,-124.57"/>
<polygon fill="#757575" stroke="#757575" points="865.05,-128.06 874.93,-124.22 864.81,-121.07 865.05,-128.06"/>
</g>
<!-- dist/redis/redis&#45;core.module.js&#45;&gt;dist/redis/redis.constants.js -->
<g id="edge34" class="edge">
<title>dist/redis/redis&#45;core.module.js&#45;&gt;dist/redis/redis.constants.js</title>
<path fill="none" stroke="#757575" d="M489.76,-150.36C611.58,-111.5 1030,8.13 1367,-62.92 1408.07,-71.58 1451.77,-93.03 1479.32,-108.27"/>
<polygon fill="#757575" stroke="#757575" points="1477.94,-111.51 1488.37,-113.37 1481.37,-105.41 1477.94,-111.51"/>
</g>
<!-- dist/redis/redis&#45;core.module.js&#45;&gt;dist/redis/redis.service.js -->
<g id="edge36" class="edge">
<title>dist/redis/redis&#45;core.module.js&#45;&gt;dist/redis/redis.service.js</title>
<path fill="none" stroke="#757575" d="M527.17,-173.44C620.34,-188.31 782.09,-214.12 880.01,-229.75"/>
<polygon fill="#757575" stroke="#757575" points="879.74,-233.25 890.17,-231.37 880.84,-226.34 879.74,-233.25"/>
</g>
<!-- dist/redis/redis.providers.js -->
<g id="node24" class="node">
<title>dist/redis/redis.providers.js</title>
<path fill="none" stroke="#c6c5fe" d="M786.83,-173.42C786.83,-173.42 626.17,-173.42 626.17,-173.42 622.33,-173.42 618.5,-169.58 618.5,-165.75 618.5,-165.75 618.5,-158.08 618.5,-158.08 618.5,-154.25 622.33,-150.42 626.17,-150.42 626.17,-150.42 786.83,-150.42 786.83,-150.42 790.67,-150.42 794.5,-154.25 794.5,-158.08 794.5,-158.08 794.5,-165.75 794.5,-165.75 794.5,-169.58 790.67,-173.42 786.83,-173.42"/>
<text text-anchor="middle" x="706.5" y="-158.22" font-family="Arial" font-size="14.00" fill="#c6c5fe">dist/redis/redis.providers.js</text>
</g>
<!-- dist/redis/redis&#45;core.module.js&#45;&gt;dist/redis/redis.providers.js -->
<g id="edge35" class="edge">
<title>dist/redis/redis&#45;core.module.js&#45;&gt;dist/redis/redis.providers.js</title>
<path fill="none" stroke="#757575" d="M552.57,-161.92C570.88,-161.92 590.03,-161.92 608.33,-161.92"/>
<polygon fill="#757575" stroke="#757575" points="608.4,-165.42 618.4,-161.92 608.4,-158.42 608.4,-165.42"/>
</g>
<!-- dist/redis/redis.providers.js&#45;&gt;dist/errors/index.js -->
<g id="edge38" class="edge">
<title>dist/redis/redis.providers.js&#45;&gt;dist/errors/index.js</title>
<path fill="none" stroke="#757575" d="M794.91,-173.42C887,-186.01 1025.66,-206.47 1077,-221.92 1124.92,-236.33 1177.16,-261.79 1209,-278.51"/>
<polygon fill="#757575" stroke="#757575" points="1207.73,-281.79 1218.2,-283.39 1211.01,-275.61 1207.73,-281.79"/>
</g>
<!-- dist/redis/redis.providers.js&#45;&gt;dist/redis/common/index.js -->
<g id="edge39" class="edge">
<title>dist/redis/redis.providers.js&#45;&gt;dist/redis/common/index.js</title>
<path fill="none" stroke="#757575" d="M780.91,-150.4C811.58,-145.59 847.38,-139.98 879.04,-135.01"/>
<polygon fill="#757575" stroke="#757575" points="879.83,-138.43 889.16,-133.42 878.74,-131.51 879.83,-138.43"/>
</g>
<!-- dist/redis/redis.providers.js&#45;&gt;dist/redis/redis.constants.js -->
<g id="edge40" class="edge">
<title>dist/redis/redis.providers.js&#45;&gt;dist/redis/redis.constants.js</title>
<path fill="none" stroke="#757575" d="M794.62,-162.87C920.99,-163.53 1162.41,-162.06 1367,-144.92 1386.85,-143.25 1408.17,-140.65 1428.06,-137.86"/>
<polygon fill="#757575" stroke="#757575" points="1428.6,-141.32 1438,-136.43 1427.61,-134.39 1428.6,-141.32"/>
</g>
<!-- dist/redis/redis.providers.js&#45;&gt;dist/redis/redis.service.js -->
<g id="edge41" class="edge">
<title>dist/redis/redis.providers.js&#45;&gt;dist/redis/redis.service.js</title>
<path fill="none" stroke="#757575" d="M774.14,-173.42C787.72,-177.07 801.63,-181.81 814,-187.92 832.42,-197.02 831.52,-207.93 850,-216.92 859.66,-221.62 870.21,-225.49 880.85,-228.67"/>
<polygon fill="#757575" stroke="#757575" points="880.05,-232.08 890.62,-231.4 881.93,-225.34 880.05,-232.08"/>
</g>
<!-- health.js -->
<g id="node25" class="node">
<title>health.js</title>
<path fill="none" stroke="#c6c5fe" d="M241.83,-310.42C241.83,-310.42 190.17,-310.42 190.17,-310.42 186.33,-310.42 182.5,-306.58 182.5,-302.75 182.5,-302.75 182.5,-295.08 182.5,-295.08 182.5,-291.25 186.33,-287.42 190.17,-287.42 190.17,-287.42 241.83,-287.42 241.83,-287.42 245.67,-287.42 249.5,-291.25 249.5,-295.08 249.5,-295.08 249.5,-302.75 249.5,-302.75 249.5,-306.58 245.67,-310.42 241.83,-310.42"/>
<text text-anchor="middle" x="216" y="-295.22" font-family="Arial" font-size="14.00" fill="#c6c5fe">health.js</text>
</g>
<!-- health.js&#45;&gt;dist/health/index.js -->
<g id="edge45" class="edge">
<title>health.js&#45;&gt;dist/health/index.js</title>
<path fill="none" stroke="#757575" d="M249.81,-298.92C283.23,-298.92 336.17,-298.92 379.63,-298.92"/>
<polygon fill="#757575" stroke="#757575" points="379.88,-302.42 389.88,-298.92 379.88,-295.42 379.88,-302.42"/>
</g>
</g>
</svg>
