<?xml version="1.0" encoding="UTF-8" standalone="no"?>
<!DOCTYPE svg PUBLIC "-//W3C//DTD SVG 1.1//EN"
 "http://www.w3.org/Graphics/SVG/1.1/DTD/svg11.dtd">
<!-- Generated by graphviz version 2.43.0 (0)
 -->
<!-- Title: G Pages: 1 -->
<svg width="1657pt" height="703pt"
 viewBox="0.00 0.00 1657.20 703.18" xmlns="http://www.w3.org/2000/svg" xmlns:xlink="http://www.w3.org/1999/xlink">
<g id="graph0" class="graph" transform="scale(1 1) rotate(0) translate(21.6 681.58)">
<title>G</title>
<polygon fill="#111111" stroke="transparent" points="-21.6,21.6 -21.6,-681.58 1635.6,-681.58 1635.6,21.6 -21.6,21.6"/>
<!-- dist/cluster/cluster&#45;core.module.js -->
<g id="node1" class="node">
<title>dist/cluster/cluster&#45;core.module.js</title>
<path fill="none" stroke="#c6c5fe" d="M555.33,-543.9C555.33,-543.9 352.67,-543.9 352.67,-543.9 348.83,-543.9 345,-540.07 345,-536.23 345,-536.23 345,-528.57 345,-528.57 345,-524.73 348.83,-520.9 352.67,-520.9 352.67,-520.9 555.33,-520.9 555.33,-520.9 559.17,-520.9 563,-524.73 563,-528.57 563,-528.57 563,-536.23 563,-536.23 563,-540.07 559.17,-543.9 555.33,-543.9"/>
<text text-anchor="middle" x="454" y="-528.7" font-family="Arial" font-size="14.00" fill="#c6c5fe">dist/cluster/cluster&#45;core.module.js</text>
</g>
<!-- dist/cluster/cluster.constants.js -->
<g id="node2" class="node">
<title>dist/cluster/cluster.constants.js</title>
<path fill="none" stroke="#cfffac" d="M1600.33,-574.9C1600.33,-574.9 1416.67,-574.9 1416.67,-574.9 1412.83,-574.9 1409,-571.07 1409,-567.23 1409,-567.23 1409,-559.57 1409,-559.57 1409,-555.73 1412.83,-551.9 1416.67,-551.9 1416.67,-551.9 1600.33,-551.9 1600.33,-551.9 1604.17,-551.9 1608,-555.73 1608,-559.57 1608,-559.57 1608,-567.23 1608,-567.23 1608,-571.07 1604.17,-574.9 1600.33,-574.9"/>
<text text-anchor="middle" x="1508.5" y="-559.7" font-family="Arial" font-size="14.00" fill="#cfffac">dist/cluster/cluster.constants.js</text>
</g>
<!-- dist/cluster/cluster&#45;core.module.js&#45;&gt;dist/cluster/cluster.constants.js -->
<g id="edge1" class="edge">
<title>dist/cluster/cluster&#45;core.module.js&#45;&gt;dist/cluster/cluster.constants.js</title>
<path fill="none" stroke="#757575" d="M472.21,-544C498.29,-560.79 549.97,-591.11 599,-602.4 910.94,-674.2 1298.66,-607.8 1446.44,-577.08"/>
<polygon fill="#757575" stroke="#757575" points="1447.59,-580.41 1456.66,-574.93 1446.15,-573.56 1447.59,-580.41"/>
</g>
<!-- dist/cluster/cluster.providers.js -->
<g id="node3" class="node">
<title>dist/cluster/cluster.providers.js</title>
<path fill="none" stroke="#c6c5fe" d="M797.33,-592.9C797.33,-592.9 615.67,-592.9 615.67,-592.9 611.83,-592.9 608,-589.07 608,-585.23 608,-585.23 608,-577.57 608,-577.57 608,-573.73 611.83,-569.9 615.67,-569.9 615.67,-569.9 797.33,-569.9 797.33,-569.9 801.17,-569.9 805,-573.73 805,-577.57 805,-577.57 805,-585.23 805,-585.23 805,-589.07 801.17,-592.9 797.33,-592.9"/>
<text text-anchor="middle" x="706.5" y="-577.7" font-family="Arial" font-size="14.00" fill="#c6c5fe">dist/cluster/cluster.providers.js</text>
</g>
<!-- dist/cluster/cluster&#45;core.module.js&#45;&gt;dist/cluster/cluster.providers.js -->
<g id="edge2" class="edge">
<title>dist/cluster/cluster&#45;core.module.js&#45;&gt;dist/cluster/cluster.providers.js</title>
<path fill="none" stroke="#757575" d="M514.05,-543.95C550.7,-551.12 597.95,-560.36 636.35,-567.87"/>
<polygon fill="#757575" stroke="#757575" points="635.93,-571.36 646.42,-569.84 637.27,-564.49 635.93,-571.36"/>
</g>
<!-- dist/cluster/cluster.service.js -->
<g id="node4" class="node">
<title>dist/cluster/cluster.service.js</title>
<path fill="none" stroke="#c6c5fe" d="M1047.83,-478.9C1047.83,-478.9 879.17,-478.9 879.17,-478.9 875.33,-478.9 871.5,-475.07 871.5,-471.23 871.5,-471.23 871.5,-463.57 871.5,-463.57 871.5,-459.73 875.33,-455.9 879.17,-455.9 879.17,-455.9 1047.83,-455.9 1047.83,-455.9 1051.67,-455.9 1055.5,-459.73 1055.5,-463.57 1055.5,-463.57 1055.5,-471.23 1055.5,-471.23 1055.5,-475.07 1051.67,-478.9 1047.83,-478.9"/>
<text text-anchor="middle" x="963.5" y="-463.7" font-family="Arial" font-size="14.00" fill="#c6c5fe">dist/cluster/cluster.service.js</text>
</g>
<!-- dist/cluster/cluster&#45;core.module.js&#45;&gt;dist/cluster/cluster.service.js -->
<g id="edge3" class="edge">
<title>dist/cluster/cluster&#45;core.module.js&#45;&gt;dist/cluster/cluster.service.js</title>
<path fill="none" stroke="#757575" d="M544.85,-520.89C633.99,-509.48 770.29,-492.02 862.73,-480.18"/>
<polygon fill="#757575" stroke="#757575" points="863.19,-483.65 872.66,-478.91 862.3,-476.71 863.19,-483.65"/>
</g>
<!-- dist/cluster/common/index.js -->
<g id="node5" class="node">
<title>dist/cluster/common/index.js</title>
<path fill="none" stroke="#c6c5fe" d="M1049.83,-552.9C1049.83,-552.9 877.17,-552.9 877.17,-552.9 873.33,-552.9 869.5,-549.07 869.5,-545.23 869.5,-545.23 869.5,-537.57 869.5,-537.57 869.5,-533.73 873.33,-529.9 877.17,-529.9 877.17,-529.9 1049.83,-529.9 1049.83,-529.9 1053.67,-529.9 1057.5,-533.73 1057.5,-537.57 1057.5,-537.57 1057.5,-545.23 1057.5,-545.23 1057.5,-549.07 1053.67,-552.9 1049.83,-552.9"/>
<text text-anchor="middle" x="963.5" y="-537.7" font-family="Arial" font-size="14.00" fill="#c6c5fe">dist/cluster/common/index.js</text>
</g>
<!-- dist/cluster/cluster&#45;core.module.js&#45;&gt;dist/cluster/common/index.js -->
<g id="edge4" class="edge">
<title>dist/cluster/cluster&#45;core.module.js&#45;&gt;dist/cluster/common/index.js</title>
<path fill="none" stroke="#757575" d="M563.25,-534.32C650.76,-535.87 773.13,-538.04 859.27,-539.57"/>
<polygon fill="#757575" stroke="#757575" points="859.26,-543.07 869.32,-539.75 859.39,-536.07 859.26,-543.07"/>
</g>
<!-- dist/errors/index.js -->
<g id="node6" class="node">
<title>dist/errors/index.js</title>
<path fill="none" stroke="#c6c5fe" d="M1295.33,-351.9C1295.33,-351.9 1184.67,-351.9 1184.67,-351.9 1180.83,-351.9 1177,-348.07 1177,-344.23 1177,-344.23 1177,-336.57 1177,-336.57 1177,-332.73 1180.83,-328.9 1184.67,-328.9 1184.67,-328.9 1295.33,-328.9 1295.33,-328.9 1299.17,-328.9 1303,-332.73 1303,-336.57 1303,-336.57 1303,-344.23 1303,-344.23 1303,-348.07 1299.17,-351.9 1295.33,-351.9"/>
<text text-anchor="middle" x="1240" y="-336.7" font-family="Arial" font-size="14.00" fill="#c6c5fe">dist/errors/index.js</text>
</g>
<!-- dist/cluster/cluster&#45;core.module.js&#45;&gt;dist/errors/index.js -->
<g id="edge5" class="edge">
<title>dist/cluster/cluster&#45;core.module.js&#45;&gt;dist/errors/index.js</title>
<path fill="none" stroke="#757575" d="M485.02,-520.84C513.92,-509.97 559.03,-493.73 599,-482.4 802.22,-424.78 1047.15,-376.08 1166.51,-353.64"/>
<polygon fill="#757575" stroke="#757575" points="1167.44,-357.03 1176.62,-351.75 1166.15,-350.15 1167.44,-357.03"/>
</g>
<!-- dist/cluster/cluster.providers.js&#45;&gt;dist/cluster/cluster.constants.js -->
<g id="edge7" class="edge">
<title>dist/cluster/cluster.providers.js&#45;&gt;dist/cluster/cluster.constants.js</title>
<path fill="none" stroke="#757575" d="M805.2,-579.2C955.39,-575.82 1242.04,-569.37 1398.68,-565.85"/>
<polygon fill="#757575" stroke="#757575" points="1398.88,-569.35 1408.8,-565.62 1398.73,-562.35 1398.88,-569.35"/>
</g>
<!-- dist/cluster/cluster.providers.js&#45;&gt;dist/cluster/cluster.service.js -->
<g id="edge8" class="edge">
<title>dist/cluster/cluster.providers.js&#45;&gt;dist/cluster/cluster.service.js</title>
<path fill="none" stroke="#757575" d="M733.35,-569.84C779.36,-549.27 875.49,-506.3 927.42,-483.08"/>
<polygon fill="#757575" stroke="#757575" points="928.88,-486.27 936.58,-478.99 926.02,-479.88 928.88,-486.27"/>
</g>
<!-- dist/cluster/cluster.providers.js&#45;&gt;dist/cluster/common/index.js -->
<g id="edge9" class="edge">
<title>dist/cluster/cluster.providers.js&#45;&gt;dist/cluster/common/index.js</title>
<path fill="none" stroke="#757575" d="M780.91,-569.88C811.58,-565.07 847.38,-559.46 879.04,-554.49"/>
<polygon fill="#757575" stroke="#757575" points="879.83,-557.91 889.16,-552.9 878.74,-551 879.83,-557.91"/>
</g>
<!-- dist/cluster/cluster.service.js&#45;&gt;dist/cluster/cluster.constants.js -->
<g id="edge10" class="edge">
<title>dist/cluster/cluster.service.js&#45;&gt;dist/cluster/cluster.constants.js</title>
<path fill="none" stroke="#757575" d="M1055.58,-458.49C1138.47,-453.25 1263.34,-452.58 1367,-482.4 1412.22,-495.41 1458.27,-525.95 1484.8,-545.59"/>
<polygon fill="#757575" stroke="#757575" points="1482.93,-548.56 1493.02,-551.79 1487.14,-542.97 1482.93,-548.56"/>
</g>
<!-- dist/cluster/cluster.service.js&#45;&gt;dist/errors/index.js -->
<g id="edge11" class="edge">
<title>dist/cluster/cluster.service.js&#45;&gt;dist/errors/index.js</title>
<path fill="none" stroke="#757575" d="M1041.45,-455.83C1053.79,-452.25 1066.08,-447.55 1077,-441.4 1096.99,-430.14 1094.52,-418 1113,-404.4 1140.07,-384.47 1174.25,-367.55 1200.18,-356.11"/>
<polygon fill="#757575" stroke="#757575" points="1201.89,-359.19 1209.68,-352.01 1199.11,-352.76 1201.89,-359.19"/>
</g>
<!-- dist/utils/index.js -->
<g id="node8" class="node">
<title>dist/utils/index.js</title>
<path fill="none" stroke="#cfffac" d="M1558.33,-418.9C1558.33,-418.9 1458.67,-418.9 1458.67,-418.9 1454.83,-418.9 1451,-415.07 1451,-411.23 1451,-411.23 1451,-403.57 1451,-403.57 1451,-399.73 1454.83,-395.9 1458.67,-395.9 1458.67,-395.9 1558.33,-395.9 1558.33,-395.9 1562.17,-395.9 1566,-399.73 1566,-403.57 1566,-403.57 1566,-411.23 1566,-411.23 1566,-415.07 1562.17,-418.9 1558.33,-418.9"/>
<text text-anchor="middle" x="1508.5" y="-403.7" font-family="Arial" font-size="14.00" fill="#cfffac">dist/utils/index.js</text>
</g>
<!-- dist/cluster/cluster.service.js&#45;&gt;dist/utils/index.js -->
<g id="edge12" class="edge">
<title>dist/cluster/cluster.service.js&#45;&gt;dist/utils/index.js</title>
<path fill="none" stroke="#757575" d="M1052.01,-455.85C1072.04,-453.31 1093.25,-450.69 1113,-448.4 1228.05,-435.06 1362.22,-421.55 1440.71,-413.85"/>
<polygon fill="#757575" stroke="#757575" points="1441.33,-417.31 1450.94,-412.85 1440.65,-410.34 1441.33,-417.31"/>
</g>
<!-- dist/cluster/common/cluster.decorator.js -->
<g id="node9" class="node">
<title>dist/cluster/common/cluster.decorator.js</title>
<path fill="none" stroke="#c6c5fe" d="M1359.33,-513.9C1359.33,-513.9 1120.67,-513.9 1120.67,-513.9 1116.83,-513.9 1113,-510.07 1113,-506.23 1113,-506.23 1113,-498.57 1113,-498.57 1113,-494.73 1116.83,-490.9 1120.67,-490.9 1120.67,-490.9 1359.33,-490.9 1359.33,-490.9 1363.17,-490.9 1367,-494.73 1367,-498.57 1367,-498.57 1367,-506.23 1367,-506.23 1367,-510.07 1363.17,-513.9 1359.33,-513.9"/>
<text text-anchor="middle" x="1240" y="-498.7" font-family="Arial" font-size="14.00" fill="#c6c5fe">dist/cluster/common/cluster.decorator.js</text>
</g>
<!-- dist/cluster/common/index.js&#45;&gt;dist/cluster/common/cluster.decorator.js -->
<g id="edge16" class="edge">
<title>dist/cluster/common/index.js&#45;&gt;dist/cluster/common/cluster.decorator.js</title>
<path fill="none" stroke="#757575" d="M1045.74,-529.86C1077.84,-525.3 1114.86,-520.04 1147.86,-515.35"/>
<polygon fill="#757575" stroke="#757575" points="1148.56,-518.79 1157.96,-513.91 1147.57,-511.86 1148.56,-518.79"/>
</g>
<!-- dist/cluster/common/cluster.utils.js -->
<g id="node10" class="node">
<title>dist/cluster/common/cluster.utils.js</title>
<path fill="none" stroke="#c6c5fe" d="M1343.33,-554.9C1343.33,-554.9 1136.67,-554.9 1136.67,-554.9 1132.83,-554.9 1129,-551.07 1129,-547.23 1129,-547.23 1129,-539.57 1129,-539.57 1129,-535.73 1132.83,-531.9 1136.67,-531.9 1136.67,-531.9 1343.33,-531.9 1343.33,-531.9 1347.17,-531.9 1351,-535.73 1351,-539.57 1351,-539.57 1351,-547.23 1351,-547.23 1351,-551.07 1347.17,-554.9 1343.33,-554.9"/>
<text text-anchor="middle" x="1240" y="-539.7" font-family="Arial" font-size="14.00" fill="#c6c5fe">dist/cluster/common/cluster.utils.js</text>
</g>
<!-- dist/cluster/common/index.js&#45;&gt;dist/cluster/common/cluster.utils.js -->
<g id="edge17" class="edge">
<title>dist/cluster/common/index.js&#45;&gt;dist/cluster/common/cluster.utils.js</title>
<path fill="none" stroke="#757575" d="M1057.82,-542.08C1077.36,-542.22 1098.24,-542.37 1118.61,-542.52"/>
<polygon fill="#757575" stroke="#757575" points="1118.86,-546.02 1128.88,-542.6 1118.91,-539.03 1118.86,-546.02"/>
</g>
<!-- dist/errors/messages.constant.js -->
<g id="node11" class="node">
<title>dist/errors/messages.constant.js</title>
<path fill="none" stroke="#cfffac" d="M1606.33,-315.9C1606.33,-315.9 1410.67,-315.9 1410.67,-315.9 1406.83,-315.9 1403,-312.07 1403,-308.23 1403,-308.23 1403,-300.57 1403,-300.57 1403,-296.73 1406.83,-292.9 1410.67,-292.9 1410.67,-292.9 1606.33,-292.9 1606.33,-292.9 1610.17,-292.9 1614,-296.73 1614,-300.57 1614,-300.57 1614,-308.23 1614,-308.23 1614,-312.07 1610.17,-315.9 1606.33,-315.9"/>
<text text-anchor="middle" x="1508.5" y="-300.7" font-family="Arial" font-size="14.00" fill="#cfffac">dist/errors/messages.constant.js</text>
</g>
<!-- dist/errors/index.js&#45;&gt;dist/errors/messages.constant.js -->
<g id="edge18" class="edge">
<title>dist/errors/index.js&#45;&gt;dist/errors/messages.constant.js</title>
<path fill="none" stroke="#757575" d="M1303.15,-332.01C1335.55,-327.63 1375.89,-322.18 1412.15,-317.28"/>
<polygon fill="#757575" stroke="#757575" points="1412.82,-320.72 1422.26,-315.92 1411.88,-313.79 1412.82,-320.72"/>
</g>
<!-- dist/errors/redis.error.js -->
<g id="node12" class="node">
<title>dist/errors/redis.error.js</title>
<path fill="none" stroke="#cfffac" d="M1578.33,-356.9C1578.33,-356.9 1438.67,-356.9 1438.67,-356.9 1434.83,-356.9 1431,-353.07 1431,-349.23 1431,-349.23 1431,-341.57 1431,-341.57 1431,-337.73 1434.83,-333.9 1438.67,-333.9 1438.67,-333.9 1578.33,-333.9 1578.33,-333.9 1582.17,-333.9 1586,-337.73 1586,-341.57 1586,-341.57 1586,-349.23 1586,-349.23 1586,-353.07 1582.17,-356.9 1578.33,-356.9"/>
<text text-anchor="middle" x="1508.5" y="-341.7" font-family="Arial" font-size="14.00" fill="#cfffac">dist/errors/redis.error.js</text>
</g>
<!-- dist/errors/index.js&#45;&gt;dist/errors/redis.error.js -->
<g id="edge19" class="edge">
<title>dist/errors/index.js&#45;&gt;dist/errors/redis.error.js</title>
<path fill="none" stroke="#757575" d="M1303.15,-341.57C1338.16,-342.22 1382.44,-343.05 1420.82,-343.77"/>
<polygon fill="#757575" stroke="#757575" points="1420.89,-347.28 1430.96,-343.96 1421.03,-340.28 1420.89,-347.28"/>
</g>
<!-- dist/cluster/cluster.module.js -->
<g id="node7" class="node">
<title>dist/cluster/cluster.module.js</title>
<path fill="none" stroke="#c6c5fe" d="M301.33,-525.9C301.33,-525.9 130.67,-525.9 130.67,-525.9 126.83,-525.9 123,-522.07 123,-518.23 123,-518.23 123,-510.57 123,-510.57 123,-506.73 126.83,-502.9 130.67,-502.9 130.67,-502.9 301.33,-502.9 301.33,-502.9 305.17,-502.9 309,-506.73 309,-510.57 309,-510.57 309,-518.23 309,-518.23 309,-522.07 305.17,-525.9 301.33,-525.9"/>
<text text-anchor="middle" x="216" y="-510.7" font-family="Arial" font-size="14.00" fill="#c6c5fe">dist/cluster/cluster.module.js</text>
</g>
<!-- dist/cluster/cluster.module.js&#45;&gt;dist/cluster/cluster&#45;core.module.js -->
<g id="edge6" class="edge">
<title>dist/cluster/cluster.module.js&#45;&gt;dist/cluster/cluster&#45;core.module.js</title>
<path fill="none" stroke="#757575" d="M309.26,-521.44C317.62,-522.07 326.16,-522.73 334.71,-523.38"/>
<polygon fill="#757575" stroke="#757575" points="334.5,-526.87 344.73,-524.14 335.03,-519.89 334.5,-526.87"/>
</g>
<!-- dist/cluster/common/cluster.decorator.js&#45;&gt;dist/cluster/cluster.constants.js -->
<g id="edge13" class="edge">
<title>dist/cluster/common/cluster.decorator.js&#45;&gt;dist/cluster/cluster.constants.js</title>
<path fill="none" stroke="#757575" d="M1318.56,-513.92C1334.64,-516.7 1351.42,-519.9 1367,-523.4 1398.84,-530.56 1434.18,-540.63 1461.45,-548.88"/>
<polygon fill="#757575" stroke="#757575" points="1460.52,-552.25 1471.11,-551.82 1462.56,-545.56 1460.52,-552.25"/>
</g>
<!-- dist/cluster/common/cluster.decorator.js&#45;&gt;dist/utils/index.js -->
<g id="edge14" class="edge">
<title>dist/cluster/common/cluster.decorator.js&#45;&gt;dist/utils/index.js</title>
<path fill="none" stroke="#757575" d="M1273.41,-490.85C1321.6,-473.67 1412.16,-441.39 1465.41,-422.41"/>
<polygon fill="#757575" stroke="#757575" points="1466.65,-425.68 1474.9,-419.02 1464.3,-419.08 1466.65,-425.68"/>
</g>
<!-- dist/cluster/common/cluster.utils.js&#45;&gt;dist/cluster/cluster.constants.js -->
<g id="edge15" class="edge">
<title>dist/cluster/common/cluster.utils.js&#45;&gt;dist/cluster/cluster.constants.js</title>
<path fill="none" stroke="#757575" d="M1351.32,-551.68C1366.94,-552.85 1383,-554.06 1398.59,-555.23"/>
<polygon fill="#757575" stroke="#757575" points="1398.53,-558.73 1408.77,-555.99 1399.06,-551.75 1398.53,-558.73"/>
</g>
<!-- dist/health/index.js -->
<g id="node13" class="node">
<title>dist/health/index.js</title>
<path fill="none" stroke="#c6c5fe" d="M510.33,-341.9C510.33,-341.9 397.67,-341.9 397.67,-341.9 393.83,-341.9 390,-338.07 390,-334.23 390,-334.23 390,-326.57 390,-326.57 390,-322.73 393.83,-318.9 397.67,-318.9 397.67,-318.9 510.33,-318.9 510.33,-318.9 514.17,-318.9 518,-322.73 518,-326.57 518,-326.57 518,-334.23 518,-334.23 518,-338.07 514.17,-341.9 510.33,-341.9"/>
<text text-anchor="middle" x="454" y="-326.7" font-family="Arial" font-size="14.00" fill="#c6c5fe">dist/health/index.js</text>
</g>
<!-- dist/health/indicators/redis.health.js -->
<g id="node14" class="node">
<title>dist/health/indicators/redis.health.js</title>
<path fill="none" stroke="#c6c5fe" d="M1069.33,-351.9C1069.33,-351.9 857.67,-351.9 857.67,-351.9 853.83,-351.9 850,-348.07 850,-344.23 850,-344.23 850,-336.57 850,-336.57 850,-332.73 853.83,-328.9 857.67,-328.9 857.67,-328.9 1069.33,-328.9 1069.33,-328.9 1073.17,-328.9 1077,-332.73 1077,-336.57 1077,-336.57 1077,-344.23 1077,-344.23 1077,-348.07 1073.17,-351.9 1069.33,-351.9"/>
<text text-anchor="middle" x="963.5" y="-336.7" font-family="Arial" font-size="14.00" fill="#c6c5fe">dist/health/indicators/redis.health.js</text>
</g>
<!-- dist/health/index.js&#45;&gt;dist/health/indicators/redis.health.js -->
<g id="edge20" class="edge">
<title>dist/health/index.js&#45;&gt;dist/health/indicators/redis.health.js</title>
<path fill="none" stroke="#757575" d="M518.09,-329.87C543.26,-329.68 572.5,-329.49 599,-329.4 694.55,-329.07 718.51,-325.87 814,-329.4 822.36,-329.71 830.97,-330.12 839.65,-330.59"/>
<polygon fill="#757575" stroke="#757575" points="839.66,-334.1 849.85,-331.18 840.06,-327.11 839.66,-334.1"/>
</g>
<!-- dist/health/redis&#45;health.module.js -->
<g id="node15" class="node">
<title>dist/health/redis&#45;health.module.js</title>
<path fill="none" stroke="#c6c5fe" d="M806.33,-360.9C806.33,-360.9 606.67,-360.9 606.67,-360.9 602.83,-360.9 599,-357.07 599,-353.23 599,-353.23 599,-345.57 599,-345.57 599,-341.73 602.83,-337.9 606.67,-337.9 606.67,-337.9 806.33,-337.9 806.33,-337.9 810.17,-337.9 814,-341.73 814,-345.57 814,-345.57 814,-353.23 814,-353.23 814,-357.07 810.17,-360.9 806.33,-360.9"/>
<text text-anchor="middle" x="706.5" y="-345.7" font-family="Arial" font-size="14.00" fill="#c6c5fe">dist/health/redis&#45;health.module.js</text>
</g>
<!-- dist/health/index.js&#45;&gt;dist/health/redis&#45;health.module.js -->
<g id="edge21" class="edge">
<title>dist/health/index.js&#45;&gt;dist/health/redis&#45;health.module.js</title>
<path fill="none" stroke="#757575" d="M518.21,-335.19C539.74,-336.83 564.54,-338.71 588.9,-340.56"/>
<polygon fill="#757575" stroke="#757575" points="588.7,-344.05 598.94,-341.32 589.23,-337.07 588.7,-344.05"/>
</g>
<!-- dist/health/indicators/redis.health.js&#45;&gt;dist/errors/index.js -->
<g id="edge22" class="edge">
<title>dist/health/indicators/redis.health.js&#45;&gt;dist/errors/index.js</title>
<path fill="none" stroke="#757575" d="M1077.34,-340.4C1107.5,-340.4 1139.28,-340.4 1166.61,-340.4"/>
<polygon fill="#757575" stroke="#757575" points="1166.85,-343.9 1176.85,-340.4 1166.85,-336.9 1166.85,-343.9"/>
</g>
<!-- dist/health/redis&#45;health.module.js&#45;&gt;dist/health/indicators/redis.health.js -->
<g id="edge23" class="edge">
<title>dist/health/redis&#45;health.module.js&#45;&gt;dist/health/indicators/redis.health.js</title>
<path fill="none" stroke="#757575" d="M814.17,-345.64C822.6,-345.34 831.16,-345.04 839.7,-344.73"/>
<polygon fill="#757575" stroke="#757575" points="839.82,-348.23 849.69,-344.38 839.57,-341.24 839.82,-348.23"/>
</g>
<!-- dist/index.js -->
<g id="node16" class="node">
<title>dist/index.js</title>
<path fill="none" stroke="#c6c5fe" d="M79.33,-341.9C79.33,-341.9 7.67,-341.9 7.67,-341.9 3.83,-341.9 0,-338.07 0,-334.23 0,-334.23 0,-326.57 0,-326.57 0,-322.73 3.83,-318.9 7.67,-318.9 7.67,-318.9 79.33,-318.9 79.33,-318.9 83.17,-318.9 87,-322.73 87,-326.57 87,-326.57 87,-334.23 87,-334.23 87,-338.07 83.17,-341.9 79.33,-341.9"/>
<text text-anchor="middle" x="43.5" y="-326.7" font-family="Arial" font-size="14.00" fill="#c6c5fe">dist/index.js</text>
</g>
<!-- dist/index.js&#45;&gt;dist/cluster/cluster.constants.js -->
<g id="edge24" class="edge">
<title>dist/index.js&#45;&gt;dist/cluster/cluster.constants.js</title>
<path fill="none" stroke="#757575" d="M45.64,-341.92C49.62,-376.21 65.96,-478.72 123,-535.4 234.14,-645.84 296.32,-659.4 453,-659.4 453,-659.4 453,-659.4 964.5,-659.4 1144.1,-659.4 1192.82,-667.21 1367,-623.4 1406.58,-613.45 1449.33,-593.78 1477.15,-579.68"/>
<polygon fill="#757575" stroke="#757575" points="1479.05,-582.64 1486.34,-574.95 1475.84,-576.41 1479.05,-582.64"/>
</g>
<!-- dist/index.js&#45;&gt;dist/cluster/cluster.service.js -->
<g id="edge26" class="edge">
<title>dist/index.js&#45;&gt;dist/cluster/cluster.service.js</title>
<path fill="none" stroke="#757575" d="M83.81,-341.94C96.26,-345.32 110.14,-348.8 123,-351.4 262.38,-379.56 669.88,-431.33 861.15,-455"/>
<polygon fill="#757575" stroke="#757575" points="860.85,-458.49 871.21,-456.24 861.71,-451.54 860.85,-458.49"/>
</g>
<!-- dist/index.js&#45;&gt;dist/cluster/common/index.js -->
<g id="edge27" class="edge">
<title>dist/index.js&#45;&gt;dist/cluster/common/index.js</title>
<path fill="none" stroke="#757575" d="M59.24,-341.94C74.39,-353.21 99.08,-370 123,-379.4 376.14,-478.85 696.97,-518.93 858.92,-533.68"/>
<polygon fill="#757575" stroke="#757575" points="859.08,-537.21 869.35,-534.61 859.71,-530.23 859.08,-537.21"/>
</g>
<!-- dist/index.js&#45;&gt;dist/cluster/cluster.module.js -->
<g id="edge25" class="edge">
<title>dist/index.js&#45;&gt;dist/cluster/cluster.module.js</title>
<path fill="none" stroke="#757575" d="M47.6,-342.27C55.47,-370.11 78.78,-440.25 123,-479.4 132.49,-487.8 144.2,-494.27 156.06,-499.23"/>
<polygon fill="#757575" stroke="#757575" points="154.96,-502.56 165.55,-502.88 157.48,-496.03 154.96,-502.56"/>
</g>
<!-- dist/redis/common/index.js -->
<g id="node17" class="node">
<title>dist/redis/common/index.js</title>
<path fill="none" stroke="#c6c5fe" d="M1044.33,-127.9C1044.33,-127.9 882.67,-127.9 882.67,-127.9 878.83,-127.9 875,-124.07 875,-120.23 875,-120.23 875,-112.57 875,-112.57 875,-108.73 878.83,-104.9 882.67,-104.9 882.67,-104.9 1044.33,-104.9 1044.33,-104.9 1048.17,-104.9 1052,-108.73 1052,-112.57 1052,-112.57 1052,-120.23 1052,-120.23 1052,-124.07 1048.17,-127.9 1044.33,-127.9"/>
<text text-anchor="middle" x="963.5" y="-112.7" font-family="Arial" font-size="14.00" fill="#c6c5fe">dist/redis/common/index.js</text>
</g>
<!-- dist/index.js&#45;&gt;dist/redis/common/index.js -->
<g id="edge28" class="edge">
<title>dist/index.js&#45;&gt;dist/redis/common/index.js</title>
<path fill="none" stroke="#757575" d="M46.43,-318.85C52.07,-288.98 71.56,-208.94 123,-172.4 369.27,2.5 765.44,-68.62 908.66,-102.42"/>
<polygon fill="#757575" stroke="#757575" points="907.99,-105.86 918.53,-104.79 909.62,-99.05 907.99,-105.86"/>
</g>
<!-- dist/redis/redis.constants.js -->
<g id="node18" class="node">
<title>dist/redis/redis.constants.js</title>
<path fill="none" stroke="#cfffac" d="M1590.33,-147.9C1590.33,-147.9 1426.67,-147.9 1426.67,-147.9 1422.83,-147.9 1419,-144.07 1419,-140.23 1419,-140.23 1419,-132.57 1419,-132.57 1419,-128.73 1422.83,-124.9 1426.67,-124.9 1426.67,-124.9 1590.33,-124.9 1590.33,-124.9 1594.17,-124.9 1598,-128.73 1598,-132.57 1598,-132.57 1598,-140.23 1598,-140.23 1598,-144.07 1594.17,-147.9 1590.33,-147.9"/>
<text text-anchor="middle" x="1508.5" y="-132.7" font-family="Arial" font-size="14.00" fill="#cfffac">dist/redis/redis.constants.js</text>
</g>
<!-- dist/index.js&#45;&gt;dist/redis/redis.constants.js -->
<g id="edge29" class="edge">
<title>dist/index.js&#45;&gt;dist/redis/redis.constants.js</title>
<path fill="none" stroke="#757575" d="M44.54,-318.68C45.33,-279.52 53.38,-152.02 123,-86.4 233.21,17.48 301.55,-1.4 453,-1.4 453,-1.4 453,-1.4 964.5,-1.4 1160.93,-1.4 1385.83,-85.63 1471.67,-121.02"/>
<polygon fill="#757575" stroke="#757575" points="1470.39,-124.28 1480.96,-124.89 1473.08,-117.82 1470.39,-124.28"/>
</g>
<!-- dist/redis/redis.module.js -->
<g id="node19" class="node">
<title>dist/redis/redis.module.js</title>
<path fill="none" stroke="#c6c5fe" d="M291.33,-204.9C291.33,-204.9 140.67,-204.9 140.67,-204.9 136.83,-204.9 133,-201.07 133,-197.23 133,-197.23 133,-189.57 133,-189.57 133,-185.73 136.83,-181.9 140.67,-181.9 140.67,-181.9 291.33,-181.9 291.33,-181.9 295.17,-181.9 299,-185.73 299,-189.57 299,-189.57 299,-197.23 299,-197.23 299,-201.07 295.17,-204.9 291.33,-204.9"/>
<text text-anchor="middle" x="216" y="-189.7" font-family="Arial" font-size="14.00" fill="#c6c5fe">dist/redis/redis.module.js</text>
</g>
<!-- dist/index.js&#45;&gt;dist/redis/redis.module.js -->
<g id="edge30" class="edge">
<title>dist/index.js&#45;&gt;dist/redis/redis.module.js</title>
<path fill="none" stroke="#757575" d="M56,-318.73C70.9,-303.84 97.93,-277.61 123,-257.4 144.18,-240.32 169.68,-222.8 188.45,-210.42"/>
<polygon fill="#757575" stroke="#757575" points="190.37,-213.35 196.82,-204.95 186.54,-207.49 190.37,-213.35"/>
</g>
<!-- dist/redis/redis.service.js -->
<g id="node20" class="node">
<title>dist/redis/redis.service.js</title>
<path fill="none" stroke="#c6c5fe" d="M1037.83,-207.9C1037.83,-207.9 889.17,-207.9 889.17,-207.9 885.33,-207.9 881.5,-204.07 881.5,-200.23 881.5,-200.23 881.5,-192.57 881.5,-192.57 881.5,-188.73 885.33,-184.9 889.17,-184.9 889.17,-184.9 1037.83,-184.9 1037.83,-184.9 1041.67,-184.9 1045.5,-188.73 1045.5,-192.57 1045.5,-192.57 1045.5,-200.23 1045.5,-200.23 1045.5,-204.07 1041.67,-207.9 1037.83,-207.9"/>
<text text-anchor="middle" x="963.5" y="-192.7" font-family="Arial" font-size="14.00" fill="#c6c5fe">dist/redis/redis.service.js</text>
</g>
<!-- dist/index.js&#45;&gt;dist/redis/redis.service.js -->
<g id="edge31" class="edge">
<title>dist/index.js&#45;&gt;dist/redis/redis.service.js</title>
<path fill="none" stroke="#757575" d="M86.26,-318.82C98.08,-315.8 110.99,-312.74 123,-310.4 392.74,-257.9 715.9,-221.31 870.84,-205.37"/>
<polygon fill="#757575" stroke="#757575" points="871.66,-208.81 881.25,-204.31 870.94,-201.84 871.66,-208.81"/>
</g>
<!-- dist/redis/common/redis.decorator.js -->
<g id="node21" class="node">
<title>dist/redis/common/redis.decorator.js</title>
<path fill="none" stroke="#c6c5fe" d="M1349.33,-245.9C1349.33,-245.9 1130.67,-245.9 1130.67,-245.9 1126.83,-245.9 1123,-242.07 1123,-238.23 1123,-238.23 1123,-230.57 1123,-230.57 1123,-226.73 1126.83,-222.9 1130.67,-222.9 1130.67,-222.9 1349.33,-222.9 1349.33,-222.9 1353.17,-222.9 1357,-226.73 1357,-230.57 1357,-230.57 1357,-238.23 1357,-238.23 1357,-242.07 1353.17,-245.9 1349.33,-245.9"/>
<text text-anchor="middle" x="1240" y="-230.7" font-family="Arial" font-size="14.00" fill="#c6c5fe">dist/redis/common/redis.decorator.js</text>
</g>
<!-- dist/redis/common/index.js&#45;&gt;dist/redis/common/redis.decorator.js -->
<g id="edge32" class="edge">
<title>dist/redis/common/index.js&#45;&gt;dist/redis/common/redis.decorator.js</title>
<path fill="none" stroke="#757575" d="M991.32,-127.93C1040.83,-149.21 1146.6,-194.68 1202.55,-218.73"/>
<polygon fill="#757575" stroke="#757575" points="1201.5,-222.09 1212.07,-222.82 1204.27,-215.66 1201.5,-222.09"/>
</g>
<!-- dist/redis/common/redis.utils.js -->
<g id="node22" class="node">
<title>dist/redis/common/redis.utils.js</title>
<path fill="none" stroke="#c6c5fe" d="M1333.33,-127.9C1333.33,-127.9 1146.67,-127.9 1146.67,-127.9 1142.83,-127.9 1139,-124.07 1139,-120.23 1139,-120.23 1139,-112.57 1139,-112.57 1139,-108.73 1142.83,-104.9 1146.67,-104.9 1146.67,-104.9 1333.33,-104.9 1333.33,-104.9 1337.17,-104.9 1341,-108.73 1341,-112.57 1341,-112.57 1341,-120.23 1341,-120.23 1341,-124.07 1337.17,-127.9 1333.33,-127.9"/>
<text text-anchor="middle" x="1240" y="-112.7" font-family="Arial" font-size="14.00" fill="#c6c5fe">dist/redis/common/redis.utils.js</text>
</g>
<!-- dist/redis/common/index.js&#45;&gt;dist/redis/common/redis.utils.js -->
<g id="edge33" class="edge">
<title>dist/redis/common/index.js&#45;&gt;dist/redis/common/redis.utils.js</title>
<path fill="none" stroke="#757575" d="M1052.11,-116.4C1076.49,-116.4 1103.28,-116.4 1128.78,-116.4"/>
<polygon fill="#757575" stroke="#757575" points="1128.86,-119.9 1138.86,-116.4 1128.86,-112.9 1128.86,-119.9"/>
</g>
<!-- dist/redis/redis&#45;core.module.js -->
<g id="node23" class="node">
<title>dist/redis/redis&#45;core.module.js</title>
<path fill="none" stroke="#c6c5fe" d="M544.83,-186.9C544.83,-186.9 363.17,-186.9 363.17,-186.9 359.33,-186.9 355.5,-183.07 355.5,-179.23 355.5,-179.23 355.5,-171.57 355.5,-171.57 355.5,-167.73 359.33,-163.9 363.17,-163.9 363.17,-163.9 544.83,-163.9 544.83,-163.9 548.67,-163.9 552.5,-167.73 552.5,-171.57 552.5,-171.57 552.5,-179.23 552.5,-179.23 552.5,-183.07 548.67,-186.9 544.83,-186.9"/>
<text text-anchor="middle" x="454" y="-171.7" font-family="Arial" font-size="14.00" fill="#c6c5fe">dist/redis/redis&#45;core.module.js</text>
</g>
<!-- dist/redis/redis.module.js&#45;&gt;dist/redis/redis&#45;core.module.js -->
<g id="edge42" class="edge">
<title>dist/redis/redis.module.js&#45;&gt;dist/redis/redis&#45;core.module.js</title>
<path fill="none" stroke="#757575" d="M299.21,-187.13C314.05,-186 329.73,-184.8 345.17,-183.62"/>
<polygon fill="#757575" stroke="#757575" points="345.56,-187.1 355.27,-182.85 345.03,-180.13 345.56,-187.1"/>
</g>
<!-- dist/redis/redis.service.js&#45;&gt;dist/errors/index.js -->
<g id="edge46" class="edge">
<title>dist/redis/redis.service.js&#45;&gt;dist/errors/index.js</title>
<path fill="none" stroke="#757575" d="M1045.68,-205.9C1056.97,-209.77 1067.83,-215.09 1077,-222.4 1105.61,-245.19 1085.67,-272.09 1113,-296.4 1128.25,-309.97 1147.94,-319.41 1167.19,-325.96"/>
<polygon fill="#757575" stroke="#757575" points="1166.3,-329.35 1176.89,-329.03 1168.41,-322.67 1166.3,-329.35"/>
</g>
<!-- dist/redis/redis.service.js&#45;&gt;dist/utils/index.js -->
<g id="edge48" class="edge">
<title>dist/redis/redis.service.js&#45;&gt;dist/utils/index.js</title>
<path fill="none" stroke="#757575" d="M1038.4,-207.91C1051.68,-211.52 1065.07,-216.24 1077,-222.4 1096.02,-232.23 1094.12,-244.32 1113,-254.4 1215.89,-309.34 1269.47,-256.43 1367,-320.4 1388.71,-334.64 1382.18,-350.89 1403,-366.4 1418.1,-377.65 1436.68,-386.25 1453.97,-392.59"/>
<polygon fill="#757575" stroke="#757575" points="1452.82,-395.9 1463.42,-395.89 1455.13,-389.29 1452.82,-395.9"/>
</g>
<!-- dist/redis/redis.service.js&#45;&gt;dist/redis/redis.constants.js -->
<g id="edge47" class="edge">
<title>dist/redis/redis.service.js&#45;&gt;dist/redis/redis.constants.js</title>
<path fill="none" stroke="#757575" d="M1045.51,-195.27C1127.11,-193.18 1256.41,-187.22 1367,-170.4 1397.58,-165.75 1431.28,-157.69 1458.01,-150.59"/>
<polygon fill="#757575" stroke="#757575" points="1459.15,-153.91 1467.89,-147.93 1457.33,-147.15 1459.15,-153.91"/>
</g>
<!-- dist/redis/common/redis.decorator.js&#45;&gt;dist/utils/index.js -->
<g id="edge35" class="edge">
<title>dist/redis/common/redis.decorator.js&#45;&gt;dist/utils/index.js</title>
<path fill="none" stroke="#757575" d="M1327.64,-245.99C1342.04,-251.05 1355.89,-258.23 1367,-268.4 1401.23,-299.73 1370.55,-333.23 1403,-366.4 1414.24,-377.88 1429.07,-386.22 1444.03,-392.25"/>
<polygon fill="#757575" stroke="#757575" points="1443.24,-395.69 1453.83,-395.89 1445.67,-389.13 1443.24,-395.69"/>
</g>
<!-- dist/redis/common/redis.decorator.js&#45;&gt;dist/redis/redis.constants.js -->
<g id="edge34" class="edge">
<title>dist/redis/common/redis.decorator.js&#45;&gt;dist/redis/redis.constants.js</title>
<path fill="none" stroke="#757575" d="M1313.88,-222.84C1331.52,-219.1 1350.15,-214.33 1367,-208.4 1408.11,-193.93 1452.36,-169.65 1479.99,-153.34"/>
<polygon fill="#757575" stroke="#757575" points="1481.9,-156.27 1488.69,-148.14 1478.31,-150.26 1481.9,-156.27"/>
</g>
<!-- dist/redis/common/redis.utils.js&#45;&gt;dist/redis/redis.constants.js -->
<g id="edge36" class="edge">
<title>dist/redis/common/redis.utils.js&#45;&gt;dist/redis/redis.constants.js</title>
<path fill="none" stroke="#757575" d="M1341.37,-123.93C1363.38,-125.58 1386.66,-127.33 1408.61,-128.98"/>
<polygon fill="#757575" stroke="#757575" points="1408.36,-132.47 1418.59,-129.73 1408.88,-125.49 1408.36,-132.47"/>
</g>
<!-- dist/redis/redis&#45;core.module.js&#45;&gt;dist/errors/index.js -->
<g id="edge37" class="edge">
<title>dist/redis/redis&#45;core.module.js&#45;&gt;dist/errors/index.js</title>
<path fill="none" stroke="#757575" d="M509.82,-186.94C650.36,-216.52 1023.06,-294.95 1174.08,-326.74"/>
<polygon fill="#757575" stroke="#757575" points="1173.63,-330.22 1184.13,-328.85 1175.07,-323.37 1173.63,-330.22"/>
</g>
<!-- dist/redis/redis&#45;core.module.js&#45;&gt;dist/redis/common/index.js -->
<g id="edge38" class="edge">
<title>dist/redis/redis&#45;core.module.js&#45;&gt;dist/redis/common/index.js</title>
<path fill="none" stroke="#757575" d="M487.4,-163.88C516.27,-154.16 559.89,-140.85 599,-134.4 688.16,-119.7 791.16,-115.8 864.7,-115.23"/>
<polygon fill="#757575" stroke="#757575" points="864.89,-118.73 874.87,-115.17 864.85,-111.73 864.89,-118.73"/>
</g>
<!-- dist/redis/redis&#45;core.module.js&#45;&gt;dist/redis/redis.constants.js -->
<g id="edge39" class="edge">
<title>dist/redis/redis&#45;core.module.js&#45;&gt;dist/redis/redis.constants.js</title>
<path fill="none" stroke="#757575" d="M475.19,-163.88C502.36,-149.02 552.62,-123.75 599,-112.4 761.7,-72.58 1343.63,-92.06 1367,-95.4 1401.72,-100.36 1439.85,-111.9 1467.62,-121.47"/>
<polygon fill="#757575" stroke="#757575" points="1466.76,-124.88 1477.35,-124.89 1469.08,-118.27 1466.76,-124.88"/>
</g>
<!-- dist/redis/redis&#45;core.module.js&#45;&gt;dist/redis/redis.service.js -->
<g id="edge41" class="edge">
<title>dist/redis/redis&#45;core.module.js&#45;&gt;dist/redis/redis.service.js</title>
<path fill="none" stroke="#757575" d="M552.55,-179.44C644.46,-183.24 781.1,-188.89 870.98,-192.61"/>
<polygon fill="#757575" stroke="#757575" points="871.03,-196.12 881.16,-193.03 871.31,-189.12 871.03,-196.12"/>
</g>
<!-- dist/redis/redis.providers.js -->
<g id="node24" class="node">
<title>dist/redis/redis.providers.js</title>
<path fill="none" stroke="#c6c5fe" d="M786.83,-166.9C786.83,-166.9 626.17,-166.9 626.17,-166.9 622.33,-166.9 618.5,-163.07 618.5,-159.23 618.5,-159.23 618.5,-151.57 618.5,-151.57 618.5,-147.73 622.33,-143.9 626.17,-143.9 626.17,-143.9 786.83,-143.9 786.83,-143.9 790.67,-143.9 794.5,-147.73 794.5,-151.57 794.5,-151.57 794.5,-159.23 794.5,-159.23 794.5,-163.07 790.67,-166.9 786.83,-166.9"/>
<text text-anchor="middle" x="706.5" y="-151.7" font-family="Arial" font-size="14.00" fill="#c6c5fe">dist/redis/redis.providers.js</text>
</g>
<!-- dist/redis/redis&#45;core.module.js&#45;&gt;dist/redis/redis.providers.js -->
<g id="edge40" class="edge">
<title>dist/redis/redis&#45;core.module.js&#45;&gt;dist/redis/redis.providers.js</title>
<path fill="none" stroke="#757575" d="M552.57,-167.61C570.88,-166.15 590.03,-164.62 608.33,-163.16"/>
<polygon fill="#757575" stroke="#757575" points="608.71,-166.64 618.4,-162.35 608.15,-159.66 608.71,-166.64"/>
</g>
<!-- dist/redis/redis.providers.js&#45;&gt;dist/redis/common/index.js -->
<g id="edge43" class="edge">
<title>dist/redis/redis.providers.js&#45;&gt;dist/redis/common/index.js</title>
<path fill="none" stroke="#757575" d="M782.97,-143.86C812.53,-139.34 846.59,-134.13 877.04,-129.47"/>
<polygon fill="#757575" stroke="#757575" points="877.86,-132.89 887.22,-127.91 876.81,-125.97 877.86,-132.89"/>
</g>
<!-- dist/redis/redis.providers.js&#45;&gt;dist/redis/redis.constants.js -->
<g id="edge44" class="edge">
<title>dist/redis/redis.providers.js&#45;&gt;dist/redis/redis.constants.js</title>
<path fill="none" stroke="#757575" d="M794.64,-153.33C944.72,-149.77 1251.04,-142.49 1408.78,-138.74"/>
<polygon fill="#757575" stroke="#757575" points="1409.03,-142.24 1418.95,-138.5 1408.87,-135.24 1409.03,-142.24"/>
</g>
<!-- dist/redis/redis.providers.js&#45;&gt;dist/redis/redis.service.js -->
<g id="edge45" class="edge">
<title>dist/redis/redis.providers.js&#45;&gt;dist/redis/redis.service.js</title>
<path fill="none" stroke="#757575" d="M779.21,-166.93C810.85,-172.02 848.2,-178.02 880.9,-183.28"/>
<polygon fill="#757575" stroke="#757575" points="880.46,-186.75 890.89,-184.89 881.57,-179.84 880.46,-186.75"/>
</g>
<!-- health/index.js -->
<g id="node25" class="node">
<title>health/index.js</title>
<path fill="none" stroke="#c6c5fe" d="M259.83,-341.9C259.83,-341.9 172.17,-341.9 172.17,-341.9 168.33,-341.9 164.5,-338.07 164.5,-334.23 164.5,-334.23 164.5,-326.57 164.5,-326.57 164.5,-322.73 168.33,-318.9 172.17,-318.9 172.17,-318.9 259.83,-318.9 259.83,-318.9 263.67,-318.9 267.5,-322.73 267.5,-326.57 267.5,-326.57 267.5,-334.23 267.5,-334.23 267.5,-338.07 263.67,-341.9 259.83,-341.9"/>
<text text-anchor="middle" x="216" y="-326.7" font-family="Arial" font-size="14.00" fill="#c6c5fe">health/index.js</text>
</g>
<!-- health/index.js&#45;&gt;dist/health/index.js -->
<g id="edge49" class="edge">
<title>health/index.js&#45;&gt;dist/health/index.js</title>
<path fill="none" stroke="#757575" d="M267.63,-330.4C300.31,-330.4 343.36,-330.4 379.75,-330.4"/>
<polygon fill="#757575" stroke="#757575" points="379.82,-333.9 389.82,-330.4 379.82,-326.9 379.82,-333.9"/>
</g>
</g>
</svg>
