<?xml version="1.0" encoding="UTF-8" standalone="no"?>
<!DOCTYPE svg PUBLIC "-//W3C//DTD SVG 1.1//EN"
 "http://www.w3.org/Graphics/SVG/1.1/DTD/svg11.dtd">
<!-- Generated by graphviz version 2.43.0 (0)
 -->
<!-- Title: G Pages: 1 -->
<svg width="1419pt" height="719pt"
 viewBox="0.00 0.00 1419.20 719.43" xmlns="http://www.w3.org/2000/svg" xmlns:xlink="http://www.w3.org/1999/xlink">
<g id="graph0" class="graph" transform="scale(1 1) rotate(0) translate(21.6 697.83)">
<title>G</title>
<polygon fill="#111111" stroke="transparent" points="-21.6,21.6 -21.6,-697.83 1397.6,-697.83 1397.6,21.6 -21.6,21.6"/>
<!-- dist/cluster/cluster&#45;manager.js -->
<g id="node1" class="node">
<title>dist/cluster/cluster&#45;manager.js</title>
<path fill="none" stroke="#c6c5fe" d="M815.83,-210.45C815.83,-210.45 635.17,-210.45 635.17,-210.45 631.33,-210.45 627.5,-206.62 627.5,-202.78 627.5,-202.78 627.5,-195.12 627.5,-195.12 627.5,-191.28 631.33,-187.45 635.17,-187.45 635.17,-187.45 815.83,-187.45 815.83,-187.45 819.67,-187.45 823.5,-191.28 823.5,-195.12 823.5,-195.12 823.5,-202.78 823.5,-202.78 823.5,-206.62 819.67,-210.45 815.83,-210.45"/>
<text text-anchor="middle" x="725.5" y="-195.25" font-family="Arial" font-size="14.00" fill="#c6c5fe">dist/cluster/cluster&#45;manager.js</text>
</g>
<!-- dist/cluster/cluster.constants.js -->
<g id="node2" class="node">
<title>dist/cluster/cluster.constants.js</title>
<path fill="none" stroke="#cfffac" d="M1362.33,-107.45C1362.33,-107.45 1178.67,-107.45 1178.67,-107.45 1174.83,-107.45 1171,-103.62 1171,-99.78 1171,-99.78 1171,-92.12 1171,-92.12 1171,-88.28 1174.83,-84.45 1178.67,-84.45 1178.67,-84.45 1362.33,-84.45 1362.33,-84.45 1366.17,-84.45 1370,-88.28 1370,-92.12 1370,-92.12 1370,-99.78 1370,-99.78 1370,-103.62 1366.17,-107.45 1362.33,-107.45"/>
<text text-anchor="middle" x="1270.5" y="-92.25" font-family="Arial" font-size="14.00" fill="#cfffac">dist/cluster/cluster.constants.js</text>
</g>
<!-- dist/cluster/cluster&#45;manager.js&#45;&gt;dist/cluster/cluster.constants.js -->
<g id="edge1" class="edge">
<title>dist/cluster/cluster&#45;manager.js&#45;&gt;dist/cluster/cluster.constants.js</title>
<path fill="none" stroke="#757575" d="M821.35,-187.36C827.51,-185.02 833.46,-182.24 839,-178.95 861.02,-165.87 852.47,-146.14 875,-133.95 922.68,-108.15 1061.15,-99.71 1160.56,-97.04"/>
<polygon fill="#757575" stroke="#757575" points="1160.75,-100.54 1170.66,-96.78 1160.58,-93.54 1160.75,-100.54"/>
</g>
<!-- dist/errors/index.js -->
<g id="node3" class="node">
<title>dist/errors/index.js</title>
<path fill="none" stroke="#c6c5fe" d="M1057.33,-314.45C1057.33,-314.45 946.67,-314.45 946.67,-314.45 942.83,-314.45 939,-310.62 939,-306.78 939,-306.78 939,-299.12 939,-299.12 939,-295.28 942.83,-291.45 946.67,-291.45 946.67,-291.45 1057.33,-291.45 1057.33,-291.45 1061.17,-291.45 1065,-295.28 1065,-299.12 1065,-299.12 1065,-306.78 1065,-306.78 1065,-310.62 1061.17,-314.45 1057.33,-314.45"/>
<text text-anchor="middle" x="1002" y="-299.25" font-family="Arial" font-size="14.00" fill="#c6c5fe">dist/errors/index.js</text>
</g>
<!-- dist/cluster/cluster&#45;manager.js&#45;&gt;dist/errors/index.js -->
<g id="edge2" class="edge">
<title>dist/cluster/cluster&#45;manager.js&#45;&gt;dist/errors/index.js</title>
<path fill="none" stroke="#757575" d="M804.48,-210.53C816.5,-214.12 828.43,-218.81 839,-224.95 859.4,-236.8 855.05,-251.36 875,-263.95 892.15,-274.77 912.51,-282.77 931.8,-288.6"/>
<polygon fill="#757575" stroke="#757575" points="930.9,-291.99 941.47,-291.38 932.83,-285.26 930.9,-291.99"/>
</g>
<!-- dist/utils/index.js -->
<g id="node4" class="node">
<title>dist/utils/index.js</title>
<path fill="none" stroke="#cfffac" d="M1320.33,-354.45C1320.33,-354.45 1220.67,-354.45 1220.67,-354.45 1216.83,-354.45 1213,-350.62 1213,-346.78 1213,-346.78 1213,-339.12 1213,-339.12 1213,-335.28 1216.83,-331.45 1220.67,-331.45 1220.67,-331.45 1320.33,-331.45 1320.33,-331.45 1324.17,-331.45 1328,-335.28 1328,-339.12 1328,-339.12 1328,-346.78 1328,-346.78 1328,-350.62 1324.17,-354.45 1320.33,-354.45"/>
<text text-anchor="middle" x="1270.5" y="-339.25" font-family="Arial" font-size="14.00" fill="#cfffac">dist/utils/index.js</text>
</g>
<!-- dist/cluster/cluster&#45;manager.js&#45;&gt;dist/utils/index.js -->
<g id="edge3" class="edge">
<title>dist/cluster/cluster&#45;manager.js&#45;&gt;dist/utils/index.js</title>
<path fill="none" stroke="#757575" d="M812.21,-210.45C913.8,-225.19 1076.01,-252.48 1129,-282.95 1149.73,-294.87 1144.17,-311.2 1165,-322.95 1176.54,-329.46 1189.81,-333.89 1202.95,-336.9"/>
<polygon fill="#757575" stroke="#757575" points="1202.43,-340.36 1212.93,-338.93 1203.83,-333.5 1202.43,-340.36"/>
</g>
<!-- dist/errors/messages.constant.js -->
<g id="node11" class="node">
<title>dist/errors/messages.constant.js</title>
<path fill="none" stroke="#cfffac" d="M1368.33,-313.45C1368.33,-313.45 1172.67,-313.45 1172.67,-313.45 1168.83,-313.45 1165,-309.62 1165,-305.78 1165,-305.78 1165,-298.12 1165,-298.12 1165,-294.28 1168.83,-290.45 1172.67,-290.45 1172.67,-290.45 1368.33,-290.45 1368.33,-290.45 1372.17,-290.45 1376,-294.28 1376,-298.12 1376,-298.12 1376,-305.78 1376,-305.78 1376,-309.62 1372.17,-313.45 1368.33,-313.45"/>
<text text-anchor="middle" x="1270.5" y="-298.25" font-family="Arial" font-size="14.00" fill="#cfffac">dist/errors/messages.constant.js</text>
</g>
<!-- dist/errors/index.js&#45;&gt;dist/errors/messages.constant.js -->
<g id="edge19" class="edge">
<title>dist/errors/index.js&#45;&gt;dist/errors/messages.constant.js</title>
<path fill="none" stroke="#757575" d="M1065.15,-302.72C1091.82,-302.62 1123.86,-302.5 1154.58,-302.38"/>
<polygon fill="#757575" stroke="#757575" points="1154.95,-305.88 1164.94,-302.34 1154.92,-298.88 1154.95,-305.88"/>
</g>
<!-- dist/cluster/cluster.module.js -->
<g id="node5" class="node">
<title>dist/cluster/cluster.module.js</title>
<path fill="none" stroke="#c6c5fe" d="M317.33,-186.45C317.33,-186.45 146.67,-186.45 146.67,-186.45 142.83,-186.45 139,-182.62 139,-178.78 139,-178.78 139,-171.12 139,-171.12 139,-167.28 142.83,-163.45 146.67,-163.45 146.67,-163.45 317.33,-163.45 317.33,-163.45 321.17,-163.45 325,-167.28 325,-171.12 325,-171.12 325,-178.78 325,-178.78 325,-182.62 321.17,-186.45 317.33,-186.45"/>
<text text-anchor="middle" x="232" y="-171.25" font-family="Arial" font-size="14.00" fill="#c6c5fe">dist/cluster/cluster.module.js</text>
</g>
<!-- dist/cluster/cluster.module.js&#45;&gt;dist/cluster/cluster&#45;manager.js -->
<g id="edge4" class="edge">
<title>dist/cluster/cluster.module.js&#45;&gt;dist/cluster/cluster&#45;manager.js</title>
<path fill="none" stroke="#757575" d="M325.16,-179.45C408.05,-183.5 529.84,-189.44 617.11,-193.71"/>
<polygon fill="#757575" stroke="#757575" points="617.15,-197.21 627.31,-194.2 617.49,-190.22 617.15,-197.21"/>
</g>
<!-- dist/cluster/cluster.module.js&#45;&gt;dist/cluster/cluster.constants.js -->
<g id="edge5" class="edge">
<title>dist/cluster/cluster.module.js&#45;&gt;dist/cluster/cluster.constants.js</title>
<path fill="none" stroke="#757575" d="M252.22,-163.32C276.64,-149.06 320.5,-125.17 361,-111.95 686.05,-5.87 788.85,-32.21 1129,-66.95 1157.76,-69.89 1189.33,-76.12 1215.25,-82.06"/>
<polygon fill="#757575" stroke="#757575" points="1214.71,-85.53 1225.25,-84.41 1216.31,-78.72 1214.71,-85.53"/>
</g>
<!-- dist/cluster/cluster.module.js&#45;&gt;dist/errors/index.js -->
<g id="edge8" class="edge">
<title>dist/cluster/cluster.module.js&#45;&gt;dist/errors/index.js</title>
<path fill="none" stroke="#757575" d="M289.95,-186.5C312.1,-190.87 337.71,-195.8 361,-199.95 566.36,-236.52 809.84,-274.13 928.59,-292.1"/>
<polygon fill="#757575" stroke="#757575" points="928.24,-295.59 938.65,-293.62 929.29,-288.67 928.24,-295.59"/>
</g>
<!-- dist/cluster/cluster.providers.js -->
<g id="node6" class="node">
<title>dist/cluster/cluster.providers.js</title>
<path fill="none" stroke="#c6c5fe" d="M559.33,-166.45C559.33,-166.45 377.67,-166.45 377.67,-166.45 373.83,-166.45 370,-162.62 370,-158.78 370,-158.78 370,-151.12 370,-151.12 370,-147.28 373.83,-143.45 377.67,-143.45 377.67,-143.45 559.33,-143.45 559.33,-143.45 563.17,-143.45 567,-147.28 567,-151.12 567,-151.12 567,-158.78 567,-158.78 567,-162.62 563.17,-166.45 559.33,-166.45"/>
<text text-anchor="middle" x="468.5" y="-151.25" font-family="Arial" font-size="14.00" fill="#c6c5fe">dist/cluster/cluster.providers.js</text>
</g>
<!-- dist/cluster/cluster.module.js&#45;&gt;dist/cluster/cluster.providers.js -->
<g id="edge6" class="edge">
<title>dist/cluster/cluster.module.js&#45;&gt;dist/cluster/cluster.providers.js</title>
<path fill="none" stroke="#757575" d="M325.01,-167.1C336.42,-166.13 348.17,-165.13 359.79,-164.14"/>
<polygon fill="#757575" stroke="#757575" points="360.29,-167.61 369.96,-163.27 359.7,-160.63 360.29,-167.61"/>
</g>
<!-- dist/cluster/common/index.js -->
<g id="node7" class="node">
<title>dist/cluster/common/index.js</title>
<path fill="none" stroke="#c6c5fe" d="M811.83,-128.45C811.83,-128.45 639.17,-128.45 639.17,-128.45 635.33,-128.45 631.5,-124.62 631.5,-120.78 631.5,-120.78 631.5,-113.12 631.5,-113.12 631.5,-109.28 635.33,-105.45 639.17,-105.45 639.17,-105.45 811.83,-105.45 811.83,-105.45 815.67,-105.45 819.5,-109.28 819.5,-113.12 819.5,-113.12 819.5,-120.78 819.5,-120.78 819.5,-124.62 815.67,-128.45 811.83,-128.45"/>
<text text-anchor="middle" x="725.5" y="-113.25" font-family="Arial" font-size="14.00" fill="#c6c5fe">dist/cluster/common/index.js</text>
</g>
<!-- dist/cluster/cluster.module.js&#45;&gt;dist/cluster/common/index.js -->
<g id="edge7" class="edge">
<title>dist/cluster/cluster.module.js&#45;&gt;dist/cluster/common/index.js</title>
<path fill="none" stroke="#757575" d="M261.93,-163.26C287.51,-153.52 326.09,-140.24 361,-133.95 447.85,-118.29 548.14,-114.66 621.35,-114.59"/>
<polygon fill="#757575" stroke="#757575" points="621.49,-118.09 631.49,-114.61 621.5,-111.09 621.49,-118.09"/>
</g>
<!-- dist/cluster/cluster.providers.js&#45;&gt;dist/cluster/cluster&#45;manager.js -->
<g id="edge9" class="edge">
<title>dist/cluster/cluster.providers.js&#45;&gt;dist/cluster/cluster&#45;manager.js</title>
<path fill="none" stroke="#757575" d="M536.17,-166.45C570.43,-172.36 612.34,-179.6 647.92,-185.74"/>
<polygon fill="#757575" stroke="#757575" points="647.33,-189.19 657.78,-187.44 648.52,-182.29 647.33,-189.19"/>
</g>
<!-- dist/cluster/cluster.providers.js&#45;&gt;dist/cluster/cluster.constants.js -->
<g id="edge10" class="edge">
<title>dist/cluster/cluster.providers.js&#45;&gt;dist/cluster/cluster.constants.js</title>
<path fill="none" stroke="#757575" d="M490.4,-143.24C517.47,-128.81 566.58,-105.07 612,-95.95 804.38,-57.32 1034.85,-70.57 1165.52,-83.44"/>
<polygon fill="#757575" stroke="#757575" points="1165.23,-86.93 1175.53,-84.45 1165.93,-79.96 1165.23,-86.93"/>
</g>
<!-- dist/cluster/cluster.providers.js&#45;&gt;dist/cluster/common/index.js -->
<g id="edge11" class="edge">
<title>dist/cluster/cluster.providers.js&#45;&gt;dist/cluster/common/index.js</title>
<path fill="none" stroke="#757575" d="M546.7,-143.45C575.16,-139.21 607.59,-134.37 636.9,-130"/>
<polygon fill="#757575" stroke="#757575" points="637.75,-133.42 647.12,-128.48 636.72,-126.49 637.75,-133.42"/>
</g>
<!-- dist/cluster/default&#45;options.js -->
<g id="node8" class="node">
<title>dist/cluster/default&#45;options.js</title>
<path fill="none" stroke="#cfffac" d="M811.33,-169.45C811.33,-169.45 639.67,-169.45 639.67,-169.45 635.83,-169.45 632,-165.62 632,-161.78 632,-161.78 632,-154.12 632,-154.12 632,-150.28 635.83,-146.45 639.67,-146.45 639.67,-146.45 811.33,-146.45 811.33,-146.45 815.17,-146.45 819,-150.28 819,-154.12 819,-154.12 819,-161.78 819,-161.78 819,-165.62 815.17,-169.45 811.33,-169.45"/>
<text text-anchor="middle" x="725.5" y="-154.25" font-family="Arial" font-size="14.00" fill="#cfffac">dist/cluster/default&#45;options.js</text>
</g>
<!-- dist/cluster/cluster.providers.js&#45;&gt;dist/cluster/default&#45;options.js -->
<g id="edge12" class="edge">
<title>dist/cluster/cluster.providers.js&#45;&gt;dist/cluster/default&#45;options.js</title>
<path fill="none" stroke="#757575" d="M567.36,-156.1C585.17,-156.31 603.8,-156.53 621.75,-156.74"/>
<polygon fill="#757575" stroke="#757575" points="621.89,-160.24 631.93,-156.86 621.97,-153.24 621.89,-160.24"/>
</g>
<!-- dist/cluster/common/cluster.decorator.js -->
<g id="node9" class="node">
<title>dist/cluster/common/cluster.decorator.js</title>
<path fill="none" stroke="#c6c5fe" d="M1121.33,-207.45C1121.33,-207.45 882.67,-207.45 882.67,-207.45 878.83,-207.45 875,-203.62 875,-199.78 875,-199.78 875,-192.12 875,-192.12 875,-188.28 878.83,-184.45 882.67,-184.45 882.67,-184.45 1121.33,-184.45 1121.33,-184.45 1125.17,-184.45 1129,-188.28 1129,-192.12 1129,-192.12 1129,-199.78 1129,-199.78 1129,-203.62 1125.17,-207.45 1121.33,-207.45"/>
<text text-anchor="middle" x="1002" y="-192.25" font-family="Arial" font-size="14.00" fill="#c6c5fe">dist/cluster/common/cluster.decorator.js</text>
</g>
<!-- dist/cluster/common/index.js&#45;&gt;dist/cluster/common/cluster.decorator.js -->
<g id="edge17" class="edge">
<title>dist/cluster/common/index.js&#45;&gt;dist/cluster/common/cluster.decorator.js</title>
<path fill="none" stroke="#757575" d="M819.65,-128.48C826.38,-130.82 832.91,-133.62 839,-136.95 859.69,-148.27 854.2,-164.82 875,-175.95 878.27,-177.7 881.65,-179.3 885.11,-180.78"/>
<polygon fill="#757575" stroke="#757575" points="883.86,-184.05 894.45,-184.38 886.37,-177.52 883.86,-184.05"/>
</g>
<!-- dist/cluster/common/cluster.utils.js -->
<g id="node10" class="node">
<title>dist/cluster/common/cluster.utils.js</title>
<path fill="none" stroke="#c6c5fe" d="M1105.33,-166.45C1105.33,-166.45 898.67,-166.45 898.67,-166.45 894.83,-166.45 891,-162.62 891,-158.78 891,-158.78 891,-151.12 891,-151.12 891,-147.28 894.83,-143.45 898.67,-143.45 898.67,-143.45 1105.33,-143.45 1105.33,-143.45 1109.17,-143.45 1113,-147.28 1113,-151.12 1113,-151.12 1113,-158.78 1113,-158.78 1113,-162.62 1109.17,-166.45 1105.33,-166.45"/>
<text text-anchor="middle" x="1002" y="-151.25" font-family="Arial" font-size="14.00" fill="#c6c5fe">dist/cluster/common/cluster.utils.js</text>
</g>
<!-- dist/cluster/common/index.js&#45;&gt;dist/cluster/common/cluster.utils.js -->
<g id="edge18" class="edge">
<title>dist/cluster/common/index.js&#45;&gt;dist/cluster/common/cluster.utils.js</title>
<path fill="none" stroke="#757575" d="M809.6,-128.45C840.5,-132.73 875.76,-137.61 907.52,-142.01"/>
<polygon fill="#757575" stroke="#757575" points="907.32,-145.51 917.71,-143.42 908.28,-138.58 907.32,-145.51"/>
</g>
<!-- dist/cluster/common/cluster.decorator.js&#45;&gt;dist/cluster/cluster.constants.js -->
<g id="edge13" class="edge">
<title>dist/cluster/common/cluster.decorator.js&#45;&gt;dist/cluster/cluster.constants.js</title>
<path fill="none" stroke="#757575" d="M1099.19,-184.39C1109.38,-182.07 1119.49,-179.29 1129,-175.95 1172.55,-160.67 1218.11,-132.02 1245.14,-113.47"/>
<polygon fill="#757575" stroke="#757575" points="1247.36,-116.19 1253.57,-107.61 1243.36,-110.45 1247.36,-116.19"/>
</g>
<!-- dist/cluster/common/cluster.decorator.js&#45;&gt;dist/utils/index.js -->
<g id="edge14" class="edge">
<title>dist/cluster/common/cluster.decorator.js&#45;&gt;dist/utils/index.js</title>
<path fill="none" stroke="#757575" d="M1075.68,-207.47C1094.81,-213.39 1114.21,-222.37 1129,-235.95 1159.82,-264.26 1132.56,-296.51 1165,-322.95 1175.77,-331.73 1189.24,-337.08 1202.89,-340.25"/>
<polygon fill="#757575" stroke="#757575" points="1202.33,-343.71 1212.82,-342.19 1203.68,-336.84 1202.33,-343.71"/>
</g>
<!-- dist/cluster/common/cluster.utils.js&#45;&gt;dist/cluster/cluster.constants.js -->
<g id="edge15" class="edge">
<title>dist/cluster/common/cluster.utils.js&#45;&gt;dist/cluster/cluster.constants.js</title>
<path fill="none" stroke="#757575" d="M1060.46,-143.44C1081.99,-139.03 1106.64,-133.88 1129,-128.95 1156.32,-122.92 1186.55,-115.87 1211.94,-109.84"/>
<polygon fill="#757575" stroke="#757575" points="1212.86,-113.22 1221.78,-107.5 1211.24,-106.41 1212.86,-113.22"/>
</g>
<!-- dist/cluster/common/cluster.utils.js&#45;&gt;dist/utils/index.js -->
<g id="edge16" class="edge">
<title>dist/cluster/common/cluster.utils.js&#45;&gt;dist/utils/index.js</title>
<path fill="none" stroke="#757575" d="M1113.1,-164.73C1118.84,-167.8 1124.2,-171.5 1129,-175.95 1178.31,-221.7 1116.24,-276.62 1165,-322.95 1175.29,-332.73 1188.82,-338.44 1202.72,-341.64"/>
<polygon fill="#757575" stroke="#757575" points="1202.38,-345.14 1212.86,-343.55 1203.68,-338.26 1202.38,-345.14"/>
</g>
<!-- dist/health/index.js -->
<g id="node12" class="node">
<title>dist/health/index.js</title>
<path fill="none" stroke="#c6c5fe" d="M288.33,-610.45C288.33,-610.45 175.67,-610.45 175.67,-610.45 171.83,-610.45 168,-606.62 168,-602.78 168,-602.78 168,-595.12 168,-595.12 168,-591.28 171.83,-587.45 175.67,-587.45 175.67,-587.45 288.33,-587.45 288.33,-587.45 292.17,-587.45 296,-591.28 296,-595.12 296,-595.12 296,-602.78 296,-602.78 296,-606.62 292.17,-610.45 288.33,-610.45"/>
<text text-anchor="middle" x="232" y="-595.25" font-family="Arial" font-size="14.00" fill="#c6c5fe">dist/health/index.js</text>
</g>
<!-- dist/health/indicators/redis.health.js -->
<g id="node13" class="node">
<title>dist/health/indicators/redis.health.js</title>
<path fill="none" stroke="#c6c5fe" d="M831.33,-592.45C831.33,-592.45 619.67,-592.45 619.67,-592.45 615.83,-592.45 612,-588.62 612,-584.78 612,-584.78 612,-577.12 612,-577.12 612,-573.28 615.83,-569.45 619.67,-569.45 619.67,-569.45 831.33,-569.45 831.33,-569.45 835.17,-569.45 839,-573.28 839,-577.12 839,-577.12 839,-584.78 839,-584.78 839,-588.62 835.17,-592.45 831.33,-592.45"/>
<text text-anchor="middle" x="725.5" y="-577.25" font-family="Arial" font-size="14.00" fill="#c6c5fe">dist/health/indicators/redis.health.js</text>
</g>
<!-- dist/health/index.js&#45;&gt;dist/health/indicators/redis.health.js -->
<g id="edge20" class="edge">
<title>dist/health/index.js&#45;&gt;dist/health/indicators/redis.health.js</title>
<path fill="none" stroke="#757575" d="M296.25,-596.63C373.12,-593.82 504.58,-589 601.63,-585.45"/>
<polygon fill="#757575" stroke="#757575" points="601.93,-588.94 611.8,-585.08 601.67,-581.95 601.93,-588.94"/>
</g>
<!-- dist/health/redis&#45;health.module.js -->
<g id="node14" class="node">
<title>dist/health/redis&#45;health.module.js</title>
<path fill="none" stroke="#c6c5fe" d="M568.33,-630.45C568.33,-630.45 368.67,-630.45 368.67,-630.45 364.83,-630.45 361,-626.62 361,-622.78 361,-622.78 361,-615.12 361,-615.12 361,-611.28 364.83,-607.45 368.67,-607.45 368.67,-607.45 568.33,-607.45 568.33,-607.45 572.17,-607.45 576,-611.28 576,-615.12 576,-615.12 576,-622.78 576,-622.78 576,-626.62 572.17,-630.45 568.33,-630.45"/>
<text text-anchor="middle" x="468.5" y="-615.25" font-family="Arial" font-size="14.00" fill="#c6c5fe">dist/health/redis&#45;health.module.js</text>
</g>
<!-- dist/health/index.js&#45;&gt;dist/health/redis&#45;health.module.js -->
<g id="edge21" class="edge">
<title>dist/health/index.js&#45;&gt;dist/health/redis&#45;health.module.js</title>
<path fill="none" stroke="#757575" d="M296.15,-604.34C313.05,-605.78 331.88,-607.38 350.69,-608.99"/>
<polygon fill="#757575" stroke="#757575" points="350.56,-612.49 360.82,-609.85 351.15,-605.51 350.56,-612.49"/>
</g>
<!-- dist/health/indicators/redis.health.js&#45;&gt;dist/errors/index.js -->
<g id="edge22" class="edge">
<title>dist/health/indicators/redis.health.js&#45;&gt;dist/errors/index.js</title>
<path fill="none" stroke="#757575" d="M766.8,-569.39C791.24,-560.34 821.06,-545.3 839,-521.95 883.15,-464.5 829.75,-419.54 875,-362.95 892.3,-341.32 919.28,-327.04 943.84,-317.86"/>
<polygon fill="#757575" stroke="#757575" points="945.19,-321.1 953.46,-314.47 942.87,-314.49 945.19,-321.1"/>
</g>
<!-- dist/health/redis&#45;health.module.js&#45;&gt;dist/health/indicators/redis.health.js -->
<g id="edge23" class="edge">
<title>dist/health/redis&#45;health.module.js&#45;&gt;dist/health/indicators/redis.health.js</title>
<path fill="none" stroke="#757575" d="M546.7,-607.45C575.16,-603.21 607.59,-598.37 636.9,-594"/>
<polygon fill="#757575" stroke="#757575" points="637.75,-597.42 647.12,-592.48 636.72,-590.49 637.75,-597.42"/>
</g>
<!-- dist/index.js -->
<g id="node15" class="node">
<title>dist/index.js</title>
<path fill="none" stroke="#c6c5fe" d="M87.33,-301.45C87.33,-301.45 15.67,-301.45 15.67,-301.45 11.83,-301.45 8,-297.62 8,-293.78 8,-293.78 8,-286.12 8,-286.12 8,-282.28 11.83,-278.45 15.67,-278.45 15.67,-278.45 87.33,-278.45 87.33,-278.45 91.17,-278.45 95,-282.28 95,-286.12 95,-286.12 95,-293.78 95,-293.78 95,-297.62 91.17,-301.45 87.33,-301.45"/>
<text text-anchor="middle" x="51.5" y="-286.25" font-family="Arial" font-size="14.00" fill="#c6c5fe">dist/index.js</text>
</g>
<!-- dist/index.js&#45;&gt;dist/cluster/cluster&#45;manager.js -->
<g id="edge24" class="edge">
<title>dist/index.js&#45;&gt;dist/cluster/cluster&#45;manager.js</title>
<path fill="none" stroke="#757575" d="M95.05,-284.19C201.51,-269.77 481.49,-231.86 629.56,-211.81"/>
<polygon fill="#757575" stroke="#757575" points="630.12,-215.26 639.56,-210.45 629.18,-208.33 630.12,-215.26"/>
</g>
<!-- dist/index.js&#45;&gt;dist/cluster/cluster.constants.js -->
<g id="edge25" class="edge">
<title>dist/index.js&#45;&gt;dist/cluster/cluster.constants.js</title>
<path fill="none" stroke="#757575" d="M53.79,-278.29C58.34,-243.16 76.8,-137.45 139,-83.95 253.16,14.25 316.91,-0.95 467.5,-0.95 467.5,-0.95 467.5,-0.95 726.5,-0.95 906.14,-0.95 954.57,5.03 1129,-37.95 1167.96,-47.55 1210.21,-66.21 1238.1,-79.78"/>
<polygon fill="#757575" stroke="#757575" points="1236.82,-83.05 1247.33,-84.34 1239.92,-76.78 1236.82,-83.05"/>
</g>
<!-- dist/index.js&#45;&gt;dist/cluster/cluster.module.js -->
<g id="edge26" class="edge">
<title>dist/index.js&#45;&gt;dist/cluster/cluster.module.js</title>
<path fill="none" stroke="#757575" d="M70.6,-278.29C102.22,-257.92 167.65,-215.76 204.43,-192.07"/>
<polygon fill="#757575" stroke="#757575" points="206.61,-194.83 213.12,-186.47 202.82,-188.94 206.61,-194.83"/>
</g>
<!-- dist/index.js&#45;&gt;dist/cluster/common/index.js -->
<g id="edge27" class="edge">
<title>dist/index.js&#45;&gt;dist/cluster/common/index.js</title>
<path fill="none" stroke="#757575" d="M56.32,-278.18C65.67,-251.35 92.44,-185.51 139,-153.95 303.34,-42.57 556.85,-79.35 668.47,-103.24"/>
<polygon fill="#757575" stroke="#757575" points="667.99,-106.72 678.5,-105.43 669.48,-99.88 667.99,-106.72"/>
</g>
<!-- dist/redis/common/index.js -->
<g id="node16" class="node">
<title>dist/redis/common/index.js</title>
<path fill="none" stroke="#c6c5fe" d="M806.33,-512.45C806.33,-512.45 644.67,-512.45 644.67,-512.45 640.83,-512.45 637,-508.62 637,-504.78 637,-504.78 637,-497.12 637,-497.12 637,-493.28 640.83,-489.45 644.67,-489.45 644.67,-489.45 806.33,-489.45 806.33,-489.45 810.17,-489.45 814,-493.28 814,-497.12 814,-497.12 814,-504.78 814,-504.78 814,-508.62 810.17,-512.45 806.33,-512.45"/>
<text text-anchor="middle" x="725.5" y="-497.25" font-family="Arial" font-size="14.00" fill="#c6c5fe">dist/redis/common/index.js</text>
</g>
<!-- dist/index.js&#45;&gt;dist/redis/common/index.js -->
<g id="edge28" class="edge">
<title>dist/index.js&#45;&gt;dist/redis/common/index.js</title>
<path fill="none" stroke="#757575" d="M56.41,-301.58C65.97,-328.12 93.13,-393.4 139,-425.95 288.16,-531.81 513.94,-526.51 636.99,-513.6"/>
<polygon fill="#757575" stroke="#757575" points="637.56,-517.06 647.12,-512.5 636.8,-510.1 637.56,-517.06"/>
</g>
<!-- dist/redis/redis&#45;manager.js -->
<g id="node17" class="node">
<title>dist/redis/redis&#45;manager.js</title>
<path fill="none" stroke="#c6c5fe" d="M805.33,-391.45C805.33,-391.45 645.67,-391.45 645.67,-391.45 641.83,-391.45 638,-387.62 638,-383.78 638,-383.78 638,-376.12 638,-376.12 638,-372.28 641.83,-368.45 645.67,-368.45 645.67,-368.45 805.33,-368.45 805.33,-368.45 809.17,-368.45 813,-372.28 813,-376.12 813,-376.12 813,-383.78 813,-383.78 813,-387.62 809.17,-391.45 805.33,-391.45"/>
<text text-anchor="middle" x="725.5" y="-376.25" font-family="Arial" font-size="14.00" fill="#c6c5fe">dist/redis/redis&#45;manager.js</text>
</g>
<!-- dist/index.js&#45;&gt;dist/redis/redis&#45;manager.js -->
<g id="edge29" class="edge">
<title>dist/index.js&#45;&gt;dist/redis/redis&#45;manager.js</title>
<path fill="none" stroke="#757575" d="M95.05,-295.65C201.23,-309.87 480.01,-347.21 628.38,-367.08"/>
<polygon fill="#757575" stroke="#757575" points="628.02,-370.56 638.4,-368.42 628.95,-363.62 628.02,-370.56"/>
</g>
<!-- dist/redis/redis.constants.js -->
<g id="node18" class="node">
<title>dist/redis/redis.constants.js</title>
<path fill="none" stroke="#cfffac" d="M1352.33,-492.45C1352.33,-492.45 1188.67,-492.45 1188.67,-492.45 1184.83,-492.45 1181,-488.62 1181,-484.78 1181,-484.78 1181,-477.12 1181,-477.12 1181,-473.28 1184.83,-469.45 1188.67,-469.45 1188.67,-469.45 1352.33,-469.45 1352.33,-469.45 1356.17,-469.45 1360,-473.28 1360,-477.12 1360,-477.12 1360,-484.78 1360,-484.78 1360,-488.62 1356.17,-492.45 1352.33,-492.45"/>
<text text-anchor="middle" x="1270.5" y="-477.25" font-family="Arial" font-size="14.00" fill="#cfffac">dist/redis/redis.constants.js</text>
</g>
<!-- dist/index.js&#45;&gt;dist/redis/redis.constants.js -->
<g id="edge30" class="edge">
<title>dist/index.js&#45;&gt;dist/redis/redis.constants.js</title>
<path fill="none" stroke="#757575" d="M53.83,-301.73C60.14,-355.42 88.86,-576.3 139,-619.95 249.89,-716.49 320.47,-658.95 467.5,-658.95 467.5,-658.95 467.5,-658.95 726.5,-658.95 932.42,-658.95 1161.38,-541.94 1240.65,-497.66"/>
<polygon fill="#757575" stroke="#757575" points="1242.58,-500.59 1249.57,-492.63 1239.14,-494.49 1242.58,-500.59"/>
</g>
<!-- dist/redis/redis.module.js -->
<g id="node19" class="node">
<title>dist/redis/redis.module.js</title>
<path fill="none" stroke="#c6c5fe" d="M307.33,-416.45C307.33,-416.45 156.67,-416.45 156.67,-416.45 152.83,-416.45 149,-412.62 149,-408.78 149,-408.78 149,-401.12 149,-401.12 149,-397.28 152.83,-393.45 156.67,-393.45 156.67,-393.45 307.33,-393.45 307.33,-393.45 311.17,-393.45 315,-397.28 315,-401.12 315,-401.12 315,-408.78 315,-408.78 315,-412.62 311.17,-416.45 307.33,-416.45"/>
<text text-anchor="middle" x="232" y="-401.25" font-family="Arial" font-size="14.00" fill="#c6c5fe">dist/redis/redis.module.js</text>
</g>
<!-- dist/index.js&#45;&gt;dist/redis/redis.module.js -->
<g id="edge31" class="edge">
<title>dist/index.js&#45;&gt;dist/redis/redis.module.js</title>
<path fill="none" stroke="#757575" d="M70.6,-301.61C102.22,-321.98 167.65,-364.14 204.43,-387.83"/>
<polygon fill="#757575" stroke="#757575" points="202.82,-390.96 213.12,-393.43 206.61,-385.07 202.82,-390.96"/>
</g>
<!-- dist/redis/common/redis.decorator.js -->
<g id="node20" class="node">
<title>dist/redis/common/redis.decorator.js</title>
<path fill="none" stroke="#c6c5fe" d="M1111.33,-394.45C1111.33,-394.45 892.67,-394.45 892.67,-394.45 888.83,-394.45 885,-390.62 885,-386.78 885,-386.78 885,-379.12 885,-379.12 885,-375.28 888.83,-371.45 892.67,-371.45 892.67,-371.45 1111.33,-371.45 1111.33,-371.45 1115.17,-371.45 1119,-375.28 1119,-379.12 1119,-379.12 1119,-386.78 1119,-386.78 1119,-390.62 1115.17,-394.45 1111.33,-394.45"/>
<text text-anchor="middle" x="1002" y="-379.25" font-family="Arial" font-size="14.00" fill="#c6c5fe">dist/redis/common/redis.decorator.js</text>
</g>
<!-- dist/redis/common/index.js&#45;&gt;dist/redis/common/redis.decorator.js -->
<g id="edge32" class="edge">
<title>dist/redis/common/index.js&#45;&gt;dist/redis/common/redis.decorator.js</title>
<path fill="none" stroke="#757575" d="M753.32,-489.42C802.83,-468.14 908.6,-422.67 964.55,-398.62"/>
<polygon fill="#757575" stroke="#757575" points="966.27,-401.69 974.07,-394.53 963.5,-395.26 966.27,-401.69"/>
</g>
<!-- dist/redis/common/redis.utils.js -->
<g id="node21" class="node">
<title>dist/redis/common/redis.utils.js</title>
<path fill="none" stroke="#c6c5fe" d="M1095.33,-512.45C1095.33,-512.45 908.67,-512.45 908.67,-512.45 904.83,-512.45 901,-508.62 901,-504.78 901,-504.78 901,-497.12 901,-497.12 901,-493.28 904.83,-489.45 908.67,-489.45 908.67,-489.45 1095.33,-489.45 1095.33,-489.45 1099.17,-489.45 1103,-493.28 1103,-497.12 1103,-497.12 1103,-504.78 1103,-504.78 1103,-508.62 1099.17,-512.45 1095.33,-512.45"/>
<text text-anchor="middle" x="1002" y="-497.25" font-family="Arial" font-size="14.00" fill="#c6c5fe">dist/redis/common/redis.utils.js</text>
</g>
<!-- dist/redis/common/index.js&#45;&gt;dist/redis/common/redis.utils.js -->
<g id="edge33" class="edge">
<title>dist/redis/common/index.js&#45;&gt;dist/redis/common/redis.utils.js</title>
<path fill="none" stroke="#757575" d="M814.11,-500.95C838.49,-500.95 865.28,-500.95 890.78,-500.95"/>
<polygon fill="#757575" stroke="#757575" points="890.86,-504.45 900.86,-500.95 890.86,-497.45 890.86,-504.45"/>
</g>
<!-- dist/redis/redis&#45;manager.js&#45;&gt;dist/errors/index.js -->
<g id="edge38" class="edge">
<title>dist/redis/redis&#45;manager.js&#45;&gt;dist/errors/index.js</title>
<path fill="none" stroke="#757575" d="M795.37,-368.4C810.11,-364.73 825.35,-360 839,-353.95 856.81,-346.06 857.1,-336.63 875,-328.95 891.89,-321.71 910.93,-316.43 929,-312.61"/>
<polygon fill="#757575" stroke="#757575" points="929.8,-316.02 938.92,-310.64 928.43,-309.16 929.8,-316.02"/>
</g>
<!-- dist/redis/redis&#45;manager.js&#45;&gt;dist/utils/index.js -->
<g id="edge40" class="edge">
<title>dist/redis/redis&#45;manager.js&#45;&gt;dist/utils/index.js</title>
<path fill="none" stroke="#757575" d="M813.18,-369.09C833.44,-366.81 854.96,-364.6 875,-362.95 989.96,-353.47 1124.15,-347.81 1202.68,-345.05"/>
<polygon fill="#757575" stroke="#757575" points="1203.04,-348.54 1212.92,-344.69 1202.8,-341.54 1203.04,-348.54"/>
</g>
<!-- dist/redis/redis&#45;manager.js&#45;&gt;dist/redis/redis.constants.js -->
<g id="edge39" class="edge">
<title>dist/redis/redis&#45;manager.js&#45;&gt;dist/redis/redis.constants.js</title>
<path fill="none" stroke="#757575" d="M797.4,-391.46C904.16,-408.85 1097.16,-440.46 1129,-446.95 1157.66,-452.79 1189.34,-460.36 1215.35,-466.88"/>
<polygon fill="#757575" stroke="#757575" points="1214.84,-470.36 1225.39,-469.41 1216.55,-463.57 1214.84,-470.36"/>
</g>
<!-- dist/redis/redis.module.js&#45;&gt;dist/errors/index.js -->
<g id="edge41" class="edge">
<title>dist/redis/redis.module.js&#45;&gt;dist/errors/index.js</title>
<path fill="none" stroke="#757575" d="M300.35,-393.42C319.89,-390.21 341.28,-386.81 361,-383.95 566.43,-354.11 809.88,-325.02 928.61,-311.23"/>
<polygon fill="#757575" stroke="#757575" points="929.14,-314.7 938.67,-310.07 928.33,-307.74 929.14,-314.7"/>
</g>
<!-- dist/redis/redis.module.js&#45;&gt;dist/redis/common/index.js -->
<g id="edge42" class="edge">
<title>dist/redis/redis.module.js&#45;&gt;dist/redis/common/index.js</title>
<path fill="none" stroke="#757575" d="M264.17,-416.48C289.85,-425.6 327.38,-438.07 361,-445.95 449.88,-466.77 552.91,-481.49 626.53,-490.43"/>
<polygon fill="#757575" stroke="#757575" points="626.37,-493.94 636.72,-491.66 627.21,-486.99 626.37,-493.94"/>
</g>
<!-- dist/redis/redis.module.js&#45;&gt;dist/redis/redis&#45;manager.js -->
<g id="edge43" class="edge">
<title>dist/redis/redis.module.js&#45;&gt;dist/redis/redis&#45;manager.js</title>
<path fill="none" stroke="#757575" d="M315.27,-400.77C401.4,-396.38 536.57,-389.51 627.76,-384.87"/>
<polygon fill="#757575" stroke="#757575" points="628.02,-388.36 637.82,-384.36 627.66,-381.37 628.02,-388.36"/>
</g>
<!-- dist/redis/redis.module.js&#45;&gt;dist/redis/redis.constants.js -->
<g id="edge44" class="edge">
<title>dist/redis/redis.module.js&#45;&gt;dist/redis/redis.constants.js</title>
<path fill="none" stroke="#757575" d="M249.08,-416.58C272.5,-432.92 317.92,-462.42 361,-477.95 467.55,-516.35 499.17,-512.14 612,-521.95 840.91,-541.86 901.53,-554.46 1129,-521.95 1163.72,-516.99 1201.85,-505.45 1229.62,-495.88"/>
<polygon fill="#757575" stroke="#757575" points="1231.08,-499.08 1239.35,-492.46 1228.76,-492.47 1231.08,-499.08"/>
</g>
<!-- dist/redis/redis.providers.js -->
<g id="node23" class="node">
<title>dist/redis/redis.providers.js</title>
<path fill="none" stroke="#c6c5fe" d="M548.83,-436.45C548.83,-436.45 388.17,-436.45 388.17,-436.45 384.33,-436.45 380.5,-432.62 380.5,-428.78 380.5,-428.78 380.5,-421.12 380.5,-421.12 380.5,-417.28 384.33,-413.45 388.17,-413.45 388.17,-413.45 548.83,-413.45 548.83,-413.45 552.67,-413.45 556.5,-417.28 556.5,-421.12 556.5,-421.12 556.5,-428.78 556.5,-428.78 556.5,-432.62 552.67,-436.45 548.83,-436.45"/>
<text text-anchor="middle" x="468.5" y="-421.25" font-family="Arial" font-size="14.00" fill="#c6c5fe">dist/redis/redis.providers.js</text>
</g>
<!-- dist/redis/redis.module.js&#45;&gt;dist/redis/redis.providers.js -->
<g id="edge45" class="edge">
<title>dist/redis/redis.module.js&#45;&gt;dist/redis/redis.providers.js</title>
<path fill="none" stroke="#757575" d="M315.02,-411.95C332.85,-413.47 351.88,-415.09 370.23,-416.65"/>
<polygon fill="#757575" stroke="#757575" points="370.09,-420.15 380.35,-417.52 370.68,-413.18 370.09,-420.15"/>
</g>
<!-- dist/redis/common/redis.decorator.js&#45;&gt;dist/utils/index.js -->
<g id="edge35" class="edge">
<title>dist/redis/common/redis.decorator.js&#45;&gt;dist/utils/index.js</title>
<path fill="none" stroke="#757575" d="M1079.73,-371.43C1118.52,-365.61 1165.16,-358.61 1202.49,-353.01"/>
<polygon fill="#757575" stroke="#757575" points="1203.39,-356.41 1212.76,-351.47 1202.35,-349.49 1203.39,-356.41"/>
</g>
<!-- dist/redis/common/redis.decorator.js&#45;&gt;dist/redis/redis.constants.js -->
<g id="edge34" class="edge">
<title>dist/redis/common/redis.decorator.js&#45;&gt;dist/redis/redis.constants.js</title>
<path fill="none" stroke="#757575" d="M1075.88,-394.51C1093.52,-398.25 1112.15,-403.02 1129,-408.95 1170.11,-423.42 1214.36,-447.7 1241.99,-464.01"/>
<polygon fill="#757575" stroke="#757575" points="1240.31,-467.09 1250.69,-469.21 1243.9,-461.08 1240.31,-467.09"/>
</g>
<!-- dist/redis/common/redis.utils.js&#45;&gt;dist/utils/index.js -->
<g id="edge37" class="edge">
<title>dist/redis/common/redis.utils.js&#45;&gt;dist/utils/index.js</title>
<path fill="none" stroke="#757575" d="M1022.6,-489.33C1069.19,-461.71 1186.72,-392.03 1241.1,-359.79"/>
<polygon fill="#757575" stroke="#757575" points="1243.06,-362.7 1249.87,-354.59 1239.49,-356.67 1243.06,-362.7"/>
</g>
<!-- dist/redis/common/redis.utils.js&#45;&gt;dist/redis/redis.constants.js -->
<g id="edge36" class="edge">
<title>dist/redis/common/redis.utils.js&#45;&gt;dist/redis/redis.constants.js</title>
<path fill="none" stroke="#757575" d="M1103.37,-493.42C1125.38,-491.77 1148.66,-490.02 1170.61,-488.37"/>
<polygon fill="#757575" stroke="#757575" points="1170.88,-491.86 1180.59,-487.62 1170.36,-484.88 1170.88,-491.86"/>
</g>
<!-- dist/redis/default&#45;options.js -->
<g id="node22" class="node">
<title>dist/redis/default&#45;options.js</title>
<path fill="none" stroke="#cfffac" d="M805.83,-432.45C805.83,-432.45 645.17,-432.45 645.17,-432.45 641.33,-432.45 637.5,-428.62 637.5,-424.78 637.5,-424.78 637.5,-417.12 637.5,-417.12 637.5,-413.28 641.33,-409.45 645.17,-409.45 645.17,-409.45 805.83,-409.45 805.83,-409.45 809.67,-409.45 813.5,-413.28 813.5,-417.12 813.5,-417.12 813.5,-424.78 813.5,-424.78 813.5,-428.62 809.67,-432.45 805.83,-432.45"/>
<text text-anchor="middle" x="725.5" y="-417.25" font-family="Arial" font-size="14.00" fill="#cfffac">dist/redis/default&#45;options.js</text>
</g>
<!-- dist/redis/redis.providers.js&#45;&gt;dist/redis/common/index.js -->
<g id="edge46" class="edge">
<title>dist/redis/redis.providers.js&#45;&gt;dist/redis/common/index.js</title>
<path fill="none" stroke="#757575" d="M532.37,-436.45C547.02,-440.18 562.32,-444.94 576,-450.95 593.61,-458.68 594.35,-467.33 612,-474.95 622.93,-479.67 634.84,-483.6 646.69,-486.85"/>
<polygon fill="#757575" stroke="#757575" points="646.04,-490.3 656.6,-489.42 647.8,-483.52 646.04,-490.3"/>
</g>
<!-- dist/redis/redis.providers.js&#45;&gt;dist/redis/redis&#45;manager.js -->
<g id="edge48" class="edge">
<title>dist/redis/redis.providers.js&#45;&gt;dist/redis/redis&#45;manager.js</title>
<path fill="none" stroke="#757575" d="M534.84,-413.42C569.77,-407.25 612.95,-399.64 649.28,-393.22"/>
<polygon fill="#757575" stroke="#757575" points="650.09,-396.63 659.33,-391.45 648.88,-389.74 650.09,-396.63"/>
</g>
<!-- dist/redis/redis.providers.js&#45;&gt;dist/redis/redis.constants.js -->
<g id="edge49" class="edge">
<title>dist/redis/redis.providers.js&#45;&gt;dist/redis/redis.constants.js</title>
<path fill="none" stroke="#757575" d="M556.83,-436.2C575.04,-438.31 594.13,-440.36 612,-441.95 809.81,-459.6 1041.83,-471.25 1170.61,-476.92"/>
<polygon fill="#757575" stroke="#757575" points="1170.7,-480.43 1180.84,-477.37 1171,-473.43 1170.7,-480.43"/>
</g>
<!-- dist/redis/redis.providers.js&#45;&gt;dist/redis/default&#45;options.js -->
<g id="edge47" class="edge">
<title>dist/redis/redis.providers.js&#45;&gt;dist/redis/default&#45;options.js</title>
<path fill="none" stroke="#757575" d="M556.54,-423.58C579.29,-423.23 603.96,-422.84 627.2,-422.48"/>
<polygon fill="#757575" stroke="#757575" points="627.47,-425.97 637.42,-422.32 627.36,-418.97 627.47,-425.97"/>
</g>
<!-- health/index.js -->
<g id="node24" class="node">
<title>health/index.js</title>
<path fill="none" stroke="#c6c5fe" d="M95.33,-610.45C95.33,-610.45 7.67,-610.45 7.67,-610.45 3.83,-610.45 0,-606.62 0,-602.78 0,-602.78 0,-595.12 0,-595.12 0,-591.28 3.83,-587.45 7.67,-587.45 7.67,-587.45 95.33,-587.45 95.33,-587.45 99.17,-587.45 103,-591.28 103,-595.12 103,-595.12 103,-602.78 103,-602.78 103,-606.62 99.17,-610.45 95.33,-610.45"/>
<text text-anchor="middle" x="51.5" y="-595.25" font-family="Arial" font-size="14.00" fill="#c6c5fe">health/index.js</text>
</g>
<!-- health/index.js&#45;&gt;dist/health/index.js -->
<g id="edge50" class="edge">
<title>health/index.js&#45;&gt;dist/health/index.js</title>
<path fill="none" stroke="#757575" d="M103.17,-598.95C120.13,-598.95 139.39,-598.95 157.72,-598.95"/>
<polygon fill="#757575" stroke="#757575" points="157.79,-602.45 167.79,-598.95 157.79,-595.45 157.79,-602.45"/>
</g>
</g>
</svg>
