<?xml version="1.0" encoding="UTF-8" standalone="no"?>
<!DOCTYPE svg PUBLIC "-//W3C//DTD SVG 1.1//EN"
 "http://www.w3.org/Graphics/SVG/1.1/DTD/svg11.dtd">
<!-- Generated by graphviz version 2.43.0 (0)
 -->
<!-- Title: G Pages: 1 -->
<svg width="1426pt" height="649pt"
 viewBox="0.00 0.00 1426.20 648.91" xmlns="http://www.w3.org/2000/svg" xmlns:xlink="http://www.w3.org/1999/xlink">
<g id="graph0" class="graph" transform="scale(1 1) rotate(0) translate(21.6 627.31)">
<title>G</title>
<polygon fill="#111111" stroke="transparent" points="-21.6,21.6 -21.6,-627.31 1404.6,-627.31 1404.6,21.6 -21.6,21.6"/>
<!-- cluster/cluster&#45;core.module.js -->
<g id="node1" class="node">
<title>cluster/cluster&#45;core.module.js</title>
<path fill="none" stroke="#c6c5fe" d="M480.33,-452.21C480.33,-452.21 302.67,-452.21 302.67,-452.21 298.83,-452.21 295,-448.37 295,-444.54 295,-444.54 295,-436.87 295,-436.87 295,-433.04 298.83,-429.21 302.67,-429.21 302.67,-429.21 480.33,-429.21 480.33,-429.21 484.17,-429.21 488,-433.04 488,-436.87 488,-436.87 488,-444.54 488,-444.54 488,-448.37 484.17,-452.21 480.33,-452.21"/>
<text text-anchor="middle" x="391.5" y="-437.01" font-family="Arial" font-size="14.00" fill="#c6c5fe">cluster/cluster&#45;core.module.js</text>
</g>
<!-- cluster/cluster.constants.js -->
<g id="node2" class="node">
<title>cluster/cluster.constants.js</title>
<path fill="none" stroke="#cfffac" d="M1369.33,-539.21C1369.33,-539.21 1210.67,-539.21 1210.67,-539.21 1206.83,-539.21 1203,-535.37 1203,-531.54 1203,-531.54 1203,-523.87 1203,-523.87 1203,-520.04 1206.83,-516.21 1210.67,-516.21 1210.67,-516.21 1369.33,-516.21 1369.33,-516.21 1373.17,-516.21 1377,-520.04 1377,-523.87 1377,-523.87 1377,-531.54 1377,-531.54 1377,-535.37 1373.17,-539.21 1369.33,-539.21"/>
<text text-anchor="middle" x="1290" y="-524.01" font-family="Arial" font-size="14.00" fill="#cfffac">cluster/cluster.constants.js</text>
</g>
<!-- cluster/cluster&#45;core.module.js&#45;&gt;cluster/cluster.constants.js -->
<g id="edge1" class="edge">
<title>cluster/cluster&#45;core.module.js&#45;&gt;cluster/cluster.constants.js</title>
<path fill="none" stroke="#757575" d="M417.14,-452.24C443.15,-463.95 485.61,-481.72 524,-491.71 799.08,-563.28 877.7,-571.79 1161,-548.71 1180.69,-547.1 1201.91,-544.13 1221.3,-540.92"/>
<polygon fill="#757575" stroke="#757575" points="1221.99,-544.35 1231.26,-539.22 1220.82,-537.45 1221.99,-544.35"/>
</g>
<!-- cluster/cluster.health.js -->
<g id="node3" class="node">
<title>cluster/cluster.health.js</title>
<path fill="none" stroke="#c6c5fe" d="M678.83,-343.21C678.83,-343.21 541.17,-343.21 541.17,-343.21 537.33,-343.21 533.5,-339.37 533.5,-335.54 533.5,-335.54 533.5,-327.87 533.5,-327.87 533.5,-324.04 537.33,-320.21 541.17,-320.21 541.17,-320.21 678.83,-320.21 678.83,-320.21 682.67,-320.21 686.5,-324.04 686.5,-327.87 686.5,-327.87 686.5,-335.54 686.5,-335.54 686.5,-339.37 682.67,-343.21 678.83,-343.21"/>
<text text-anchor="middle" x="610" y="-328.01" font-family="Arial" font-size="14.00" fill="#c6c5fe">cluster/cluster.health.js</text>
</g>
<!-- cluster/cluster&#45;core.module.js&#45;&gt;cluster/cluster.health.js -->
<g id="edge2" class="edge">
<title>cluster/cluster&#45;core.module.js&#45;&gt;cluster/cluster.health.js</title>
<path fill="none" stroke="#757575" d="M415.67,-429.04C454.49,-409.5 532.75,-370.09 576.87,-347.88"/>
<polygon fill="#757575" stroke="#757575" points="578.64,-350.91 586,-343.29 575.49,-344.66 578.64,-350.91"/>
</g>
<!-- cluster/cluster.providers.js -->
<g id="node4" class="node">
<title>cluster/cluster.providers.js</title>
<path fill="none" stroke="#c6c5fe" d="M688.33,-461.21C688.33,-461.21 531.67,-461.21 531.67,-461.21 527.83,-461.21 524,-457.37 524,-453.54 524,-453.54 524,-445.87 524,-445.87 524,-442.04 527.83,-438.21 531.67,-438.21 531.67,-438.21 688.33,-438.21 688.33,-438.21 692.17,-438.21 696,-442.04 696,-445.87 696,-445.87 696,-453.54 696,-453.54 696,-457.37 692.17,-461.21 688.33,-461.21"/>
<text text-anchor="middle" x="610" y="-446.01" font-family="Arial" font-size="14.00" fill="#c6c5fe">cluster/cluster.providers.js</text>
</g>
<!-- cluster/cluster&#45;core.module.js&#45;&gt;cluster/cluster.providers.js -->
<g id="edge3" class="edge">
<title>cluster/cluster&#45;core.module.js&#45;&gt;cluster/cluster.providers.js</title>
<path fill="none" stroke="#757575" d="M488.09,-444.68C496.55,-445.03 505.11,-445.39 513.56,-445.74"/>
<polygon fill="#757575" stroke="#757575" points="513.67,-449.25 523.81,-446.17 513.96,-442.25 513.67,-449.25"/>
</g>
<!-- cluster/cluster.service.js -->
<g id="node5" class="node">
<title>cluster/cluster.service.js</title>
<path fill="none" stroke="#c6c5fe" d="M885.33,-380.21C885.33,-380.21 741.67,-380.21 741.67,-380.21 737.83,-380.21 734,-376.37 734,-372.54 734,-372.54 734,-364.87 734,-364.87 734,-361.04 737.83,-357.21 741.67,-357.21 741.67,-357.21 885.33,-357.21 885.33,-357.21 889.17,-357.21 893,-361.04 893,-364.87 893,-364.87 893,-372.54 893,-372.54 893,-376.37 889.17,-380.21 885.33,-380.21"/>
<text text-anchor="middle" x="813.5" y="-365.01" font-family="Arial" font-size="14.00" fill="#c6c5fe">cluster/cluster.service.js</text>
</g>
<!-- cluster/cluster&#45;core.module.js&#45;&gt;cluster/cluster.service.js -->
<g id="edge4" class="edge">
<title>cluster/cluster&#45;core.module.js&#45;&gt;cluster/cluster.service.js</title>
<path fill="none" stroke="#757575" d="M459.98,-429.14C535.14,-416.25 656.42,-395.46 735.31,-381.94"/>
<polygon fill="#757575" stroke="#757575" points="735.92,-385.39 745.19,-380.25 734.74,-378.49 735.92,-385.39"/>
</g>
<!-- cluster/common/index.js -->
<g id="node6" class="node">
<title>cluster/common/index.js</title>
<path fill="none" stroke="#c6c5fe" d="M887.33,-501.21C887.33,-501.21 739.67,-501.21 739.67,-501.21 735.83,-501.21 732,-497.37 732,-493.54 732,-493.54 732,-485.87 732,-485.87 732,-482.04 735.83,-478.21 739.67,-478.21 739.67,-478.21 887.33,-478.21 887.33,-478.21 891.17,-478.21 895,-482.04 895,-485.87 895,-485.87 895,-493.54 895,-493.54 895,-497.37 891.17,-501.21 887.33,-501.21"/>
<text text-anchor="middle" x="813.5" y="-486.01" font-family="Arial" font-size="14.00" fill="#c6c5fe">cluster/common/index.js</text>
</g>
<!-- cluster/cluster&#45;core.module.js&#45;&gt;cluster/common/index.js -->
<g id="edge5" class="edge">
<title>cluster/cluster&#45;core.module.js&#45;&gt;cluster/common/index.js</title>
<path fill="none" stroke="#757575" d="M435.11,-452.23C460.7,-458.7 493.99,-466.32 524,-470.71 589.83,-480.32 664.83,-485.07 721.86,-487.42"/>
<polygon fill="#757575" stroke="#757575" points="721.8,-490.92 731.93,-487.82 722.07,-483.93 721.8,-490.92"/>
</g>
<!-- cluster/cluster.health.js&#45;&gt;cluster/cluster.service.js -->
<g id="edge6" class="edge">
<title>cluster/cluster.health.js&#45;&gt;cluster/cluster.service.js</title>
<path fill="none" stroke="#757575" d="M673.65,-343.21C694.5,-347.04 717.89,-351.33 739.45,-355.29"/>
<polygon fill="#757575" stroke="#757575" points="739.07,-358.78 749.54,-357.15 740.34,-351.9 739.07,-358.78"/>
</g>
<!-- errors/index.js -->
<g id="node7" class="node">
<title>errors/index.js</title>
<path fill="none" stroke="#c6c5fe" d="M1088.83,-339.21C1088.83,-339.21 1003.17,-339.21 1003.17,-339.21 999.33,-339.21 995.5,-335.37 995.5,-331.54 995.5,-331.54 995.5,-323.87 995.5,-323.87 995.5,-320.04 999.33,-316.21 1003.17,-316.21 1003.17,-316.21 1088.83,-316.21 1088.83,-316.21 1092.67,-316.21 1096.5,-320.04 1096.5,-323.87 1096.5,-323.87 1096.5,-331.54 1096.5,-331.54 1096.5,-335.37 1092.67,-339.21 1088.83,-339.21"/>
<text text-anchor="middle" x="1046" y="-324.01" font-family="Arial" font-size="14.00" fill="#c6c5fe">errors/index.js</text>
</g>
<!-- cluster/cluster.health.js&#45;&gt;errors/index.js -->
<g id="edge7" class="edge">
<title>cluster/cluster.health.js&#45;&gt;errors/index.js</title>
<path fill="none" stroke="#757575" d="M686.6,-331.01C771.43,-330.23 907.34,-328.98 985.14,-328.26"/>
<polygon fill="#757575" stroke="#757575" points="985.29,-331.76 995.25,-328.17 985.22,-324.76 985.29,-331.76"/>
</g>
<!-- cluster/cluster.providers.js&#45;&gt;cluster/cluster.constants.js -->
<g id="edge9" class="edge">
<title>cluster/cluster.providers.js&#45;&gt;cluster/cluster.constants.js</title>
<path fill="none" stroke="#757575" d="M696.3,-441.63C805.67,-433.7 1000.38,-427.77 1161,-466.71 1198.07,-475.69 1237.17,-496.15 1262.25,-510.9"/>
<polygon fill="#757575" stroke="#757575" points="1260.45,-513.9 1270.83,-516.05 1264.05,-507.9 1260.45,-513.9"/>
</g>
<!-- cluster/cluster.providers.js&#45;&gt;cluster/cluster.service.js -->
<g id="edge10" class="edge">
<title>cluster/cluster.providers.js&#45;&gt;cluster/cluster.service.js</title>
<path fill="none" stroke="#757575" d="M660.37,-438.08C672.39,-434.31 684.96,-429.56 696,-423.71 714.15,-414.08 713.92,-404.47 732,-394.71 739.79,-390.5 748.38,-386.83 756.96,-383.68"/>
<polygon fill="#757575" stroke="#757575" points="758.29,-386.92 766.59,-380.34 756,-380.31 758.29,-386.92"/>
</g>
<!-- cluster/cluster.providers.js&#45;&gt;cluster/common/index.js -->
<g id="edge11" class="edge">
<title>cluster/cluster.providers.js&#45;&gt;cluster/common/index.js</title>
<path fill="none" stroke="#757575" d="M669.01,-461.22C692.62,-465.91 720.06,-471.36 744.59,-476.23"/>
<polygon fill="#757575" stroke="#757575" points="744.06,-479.69 754.55,-478.2 745.42,-472.82 744.06,-479.69"/>
</g>
<!-- cluster/cluster.providers.js&#45;&gt;errors/index.js -->
<g id="edge12" class="edge">
<title>cluster/cluster.providers.js&#45;&gt;errors/index.js</title>
<path fill="none" stroke="#757575" d="M693.68,-438.16C764.91,-427.15 861.4,-409.36 895,-389.71 915.93,-377.46 909.91,-360.68 931,-348.71 947.39,-339.4 967.05,-334.1 985.39,-331.11"/>
<polygon fill="#757575" stroke="#757575" points="986.01,-334.55 995.41,-329.67 985.01,-327.62 986.01,-334.55"/>
</g>
<!-- cluster/cluster.service.js&#45;&gt;cluster/cluster.constants.js -->
<g id="edge13" class="edge">
<title>cluster/cluster.service.js&#45;&gt;cluster/cluster.constants.js</title>
<path fill="none" stroke="#757575" d="M878.12,-380.27C977.28,-398.32 1157.75,-431.29 1161,-432.71 1204.13,-451.48 1246.41,-487.2 1269.96,-509.09"/>
<polygon fill="#757575" stroke="#757575" points="1267.81,-511.87 1277.48,-516.2 1272.62,-506.79 1267.81,-511.87"/>
</g>
<!-- cluster/cluster.service.js&#45;&gt;errors/index.js -->
<g id="edge14" class="edge">
<title>cluster/cluster.service.js&#45;&gt;errors/index.js</title>
<path fill="none" stroke="#757575" d="M879.32,-357.18C912.48,-351.28 952.58,-344.14 985.03,-338.37"/>
<polygon fill="#757575" stroke="#757575" points="986.04,-341.75 995.27,-336.55 984.81,-334.86 986.04,-341.75"/>
</g>
<!-- utils/index.js -->
<g id="node9" class="node">
<title>utils/index.js</title>
<path fill="none" stroke="#cfffac" d="M1083.33,-380.21C1083.33,-380.21 1008.67,-380.21 1008.67,-380.21 1004.83,-380.21 1001,-376.37 1001,-372.54 1001,-372.54 1001,-364.87 1001,-364.87 1001,-361.04 1004.83,-357.21 1008.67,-357.21 1008.67,-357.21 1083.33,-357.21 1083.33,-357.21 1087.17,-357.21 1091,-361.04 1091,-364.87 1091,-364.87 1091,-372.54 1091,-372.54 1091,-376.37 1087.17,-380.21 1083.33,-380.21"/>
<text text-anchor="middle" x="1046" y="-365.01" font-family="Arial" font-size="14.00" fill="#cfffac">utils/index.js</text>
</g>
<!-- cluster/cluster.service.js&#45;&gt;utils/index.js -->
<g id="edge15" class="edge">
<title>cluster/cluster.service.js&#45;&gt;utils/index.js</title>
<path fill="none" stroke="#757575" d="M893.18,-368.71C925.24,-368.71 961.51,-368.71 990.56,-368.71"/>
<polygon fill="#757575" stroke="#757575" points="990.91,-372.21 1000.91,-368.71 990.91,-365.21 990.91,-372.21"/>
</g>
<!-- cluster/common/cluster&#45;utils.js -->
<g id="node10" class="node">
<title>cluster/common/cluster&#45;utils.js</title>
<path fill="none" stroke="#cfffac" d="M1137.83,-498.21C1137.83,-498.21 954.17,-498.21 954.17,-498.21 950.33,-498.21 946.5,-494.37 946.5,-490.54 946.5,-490.54 946.5,-482.87 946.5,-482.87 946.5,-479.04 950.33,-475.21 954.17,-475.21 954.17,-475.21 1137.83,-475.21 1137.83,-475.21 1141.67,-475.21 1145.5,-479.04 1145.5,-482.87 1145.5,-482.87 1145.5,-490.54 1145.5,-490.54 1145.5,-494.37 1141.67,-498.21 1137.83,-498.21"/>
<text text-anchor="middle" x="1046" y="-483.01" font-family="Arial" font-size="14.00" fill="#cfffac">cluster/common/cluster&#45;utils.js</text>
</g>
<!-- cluster/common/index.js&#45;&gt;cluster/common/cluster&#45;utils.js -->
<g id="edge17" class="edge">
<title>cluster/common/index.js&#45;&gt;cluster/common/cluster&#45;utils.js</title>
<path fill="none" stroke="#757575" d="M895.12,-488.66C908.39,-488.48 922.33,-488.3 936.15,-488.12"/>
<polygon fill="#757575" stroke="#757575" points="936.22,-491.62 946.18,-487.99 936.13,-484.62 936.22,-491.62"/>
</g>
<!-- cluster/common/cluster.decorator.js -->
<g id="node11" class="node">
<title>cluster/common/cluster.decorator.js</title>
<path fill="none" stroke="#c6c5fe" d="M1153.33,-539.21C1153.33,-539.21 938.67,-539.21 938.67,-539.21 934.83,-539.21 931,-535.37 931,-531.54 931,-531.54 931,-523.87 931,-523.87 931,-520.04 934.83,-516.21 938.67,-516.21 938.67,-516.21 1153.33,-516.21 1153.33,-516.21 1157.17,-516.21 1161,-520.04 1161,-523.87 1161,-523.87 1161,-531.54 1161,-531.54 1161,-535.37 1157.17,-539.21 1153.33,-539.21"/>
<text text-anchor="middle" x="1046" y="-524.01" font-family="Arial" font-size="14.00" fill="#c6c5fe">cluster/common/cluster.decorator.js</text>
</g>
<!-- cluster/common/index.js&#45;&gt;cluster/common/cluster.decorator.js -->
<g id="edge18" class="edge">
<title>cluster/common/index.js&#45;&gt;cluster/common/cluster.decorator.js</title>
<path fill="none" stroke="#757575" d="M884.28,-501.21C909.78,-505.41 938.81,-510.2 965.12,-514.54"/>
<polygon fill="#757575" stroke="#757575" points="964.62,-518 975.06,-516.18 965.76,-511.1 964.62,-518"/>
</g>
<!-- errors/messages.constant.js -->
<g id="node12" class="node">
<title>errors/messages.constant.js</title>
<path fill="none" stroke="#cfffac" d="M1375.33,-359.21C1375.33,-359.21 1204.67,-359.21 1204.67,-359.21 1200.83,-359.21 1197,-355.37 1197,-351.54 1197,-351.54 1197,-343.87 1197,-343.87 1197,-340.04 1200.83,-336.21 1204.67,-336.21 1204.67,-336.21 1375.33,-336.21 1375.33,-336.21 1379.17,-336.21 1383,-340.04 1383,-343.87 1383,-343.87 1383,-351.54 1383,-351.54 1383,-355.37 1379.17,-359.21 1375.33,-359.21"/>
<text text-anchor="middle" x="1290" y="-344.01" font-family="Arial" font-size="14.00" fill="#cfffac">errors/messages.constant.js</text>
</g>
<!-- errors/index.js&#45;&gt;errors/messages.constant.js -->
<g id="edge19" class="edge">
<title>errors/index.js&#45;&gt;errors/messages.constant.js</title>
<path fill="none" stroke="#757575" d="M1096.56,-331.8C1122.63,-333.96 1155.61,-336.68 1186.87,-339.27"/>
<polygon fill="#757575" stroke="#757575" points="1186.69,-342.76 1196.94,-340.1 1187.26,-335.79 1186.69,-342.76"/>
</g>
<!-- errors/redis.error.js -->
<g id="node13" class="node">
<title>errors/redis.error.js</title>
<path fill="none" stroke="#cfffac" d="M1347.33,-318.21C1347.33,-318.21 1232.67,-318.21 1232.67,-318.21 1228.83,-318.21 1225,-314.37 1225,-310.54 1225,-310.54 1225,-302.87 1225,-302.87 1225,-299.04 1228.83,-295.21 1232.67,-295.21 1232.67,-295.21 1347.33,-295.21 1347.33,-295.21 1351.17,-295.21 1355,-299.04 1355,-302.87 1355,-302.87 1355,-310.54 1355,-310.54 1355,-314.37 1351.17,-318.21 1347.33,-318.21"/>
<text text-anchor="middle" x="1290" y="-303.01" font-family="Arial" font-size="14.00" fill="#cfffac">errors/redis.error.js</text>
</g>
<!-- errors/index.js&#45;&gt;errors/redis.error.js -->
<g id="edge20" class="edge">
<title>errors/index.js&#45;&gt;errors/redis.error.js</title>
<path fill="none" stroke="#757575" d="M1096.56,-323.41C1130.58,-320.45 1176.33,-316.48 1214.7,-313.15"/>
<polygon fill="#757575" stroke="#757575" points="1215.13,-316.63 1224.79,-312.28 1214.52,-309.66 1215.13,-316.63"/>
</g>
<!-- cluster/cluster.module.js -->
<g id="node8" class="node">
<title>cluster/cluster.module.js</title>
<path fill="none" stroke="#c6c5fe" d="M251.33,-433.21C251.33,-433.21 105.67,-433.21 105.67,-433.21 101.83,-433.21 98,-429.37 98,-425.54 98,-425.54 98,-417.87 98,-417.87 98,-414.04 101.83,-410.21 105.67,-410.21 105.67,-410.21 251.33,-410.21 251.33,-410.21 255.17,-410.21 259,-414.04 259,-417.87 259,-417.87 259,-425.54 259,-425.54 259,-429.37 255.17,-433.21 251.33,-433.21"/>
<text text-anchor="middle" x="178.5" y="-418.01" font-family="Arial" font-size="14.00" fill="#c6c5fe">cluster/cluster.module.js</text>
</g>
<!-- cluster/cluster.module.js&#45;&gt;cluster/cluster&#45;core.module.js -->
<g id="edge8" class="edge">
<title>cluster/cluster.module.js&#45;&gt;cluster/cluster&#45;core.module.js</title>
<path fill="none" stroke="#757575" d="M259.27,-428.89C267.57,-429.64 276.1,-430.41 284.64,-431.17"/>
<polygon fill="#757575" stroke="#757575" points="284.37,-434.66 294.64,-432.08 285,-427.69 284.37,-434.66"/>
</g>
<!-- cluster/common/cluster.decorator.js&#45;&gt;cluster/cluster.constants.js -->
<g id="edge16" class="edge">
<title>cluster/common/cluster.decorator.js&#45;&gt;cluster/cluster.constants.js</title>
<path fill="none" stroke="#757575" d="M1161.27,-527.71C1171.73,-527.71 1182.26,-527.71 1192.55,-527.71"/>
<polygon fill="#757575" stroke="#757575" points="1192.74,-531.21 1202.74,-527.71 1192.74,-524.21 1192.74,-531.21"/>
</g>
<!-- index.js -->
<g id="node14" class="node">
<title>index.js</title>
<path fill="none" stroke="#c6c5fe" d="M54.33,-323.21C54.33,-323.21 7.67,-323.21 7.67,-323.21 3.83,-323.21 0,-319.37 0,-315.54 0,-315.54 0,-307.87 0,-307.87 0,-304.04 3.83,-300.21 7.67,-300.21 7.67,-300.21 54.33,-300.21 54.33,-300.21 58.17,-300.21 62,-304.04 62,-307.87 62,-307.87 62,-315.54 62,-315.54 62,-319.37 58.17,-323.21 54.33,-323.21"/>
<text text-anchor="middle" x="31" y="-308.01" font-family="Arial" font-size="14.00" fill="#c6c5fe">index.js</text>
</g>
<!-- index.js&#45;&gt;cluster/cluster.constants.js -->
<g id="edge21" class="edge">
<title>index.js&#45;&gt;cluster/cluster.constants.js</title>
<path fill="none" stroke="#757575" d="M33.06,-323.48C36.49,-354.92 50.04,-441.71 98,-490.71 195.71,-590.53 250.81,-605.71 390.5,-605.71 390.5,-605.71 390.5,-605.71 814.5,-605.71 969.42,-605.71 1009.35,-599.4 1161,-567.71 1190.78,-561.48 1223.5,-551.19 1248.41,-542.61"/>
<polygon fill="#757575" stroke="#757575" points="1249.6,-545.9 1257.89,-539.29 1247.29,-539.29 1249.6,-545.9"/>
</g>
<!-- index.js&#45;&gt;cluster/cluster.health.js -->
<g id="edge22" class="edge">
<title>index.js&#45;&gt;cluster/cluster.health.js</title>
<path fill="none" stroke="#757575" d="M62.21,-312.75C147.46,-315.71 392.24,-324.19 523.47,-328.74"/>
<polygon fill="#757575" stroke="#757575" points="523.38,-332.24 533.49,-329.09 523.62,-325.24 523.38,-332.24"/>
</g>
<!-- index.js&#45;&gt;cluster/cluster.service.js -->
<g id="edge24" class="edge">
<title>index.js&#45;&gt;cluster/cluster.service.js</title>
<path fill="none" stroke="#757575" d="M62.23,-321.97C73.35,-325.33 86.12,-328.71 98,-330.71 320.81,-368.2 587.69,-371.6 723.54,-370.42"/>
<polygon fill="#757575" stroke="#757575" points="723.92,-373.92 733.89,-370.32 723.86,-366.92 723.92,-373.92"/>
</g>
<!-- index.js&#45;&gt;cluster/common/index.js -->
<g id="edge25" class="edge">
<title>index.js&#45;&gt;cluster/common/index.js</title>
<path fill="none" stroke="#757575" d="M34.1,-323.59C39.44,-350 56.23,-413.56 98,-442.71 303.7,-586.27 629.04,-532.71 757.62,-503.59"/>
<polygon fill="#757575" stroke="#757575" points="758.66,-506.94 767.62,-501.28 757.09,-500.12 758.66,-506.94"/>
</g>
<!-- index.js&#45;&gt;cluster/cluster.module.js -->
<g id="edge23" class="edge">
<title>index.js&#45;&gt;cluster/cluster.module.js</title>
<path fill="none" stroke="#757575" d="M39.96,-323.34C51.3,-339.19 73.45,-367.66 98,-385.71 108.99,-393.79 122.09,-400.64 134.45,-406.12"/>
<polygon fill="#757575" stroke="#757575" points="133.14,-409.37 143.71,-410.05 135.87,-402.92 133.14,-409.37"/>
</g>
<!-- redis/common/index.js -->
<g id="node15" class="node">
<title>redis/common/index.js</title>
<path fill="none" stroke="#c6c5fe" d="M881.83,-104.21C881.83,-104.21 745.17,-104.21 745.17,-104.21 741.33,-104.21 737.5,-100.37 737.5,-96.54 737.5,-96.54 737.5,-88.87 737.5,-88.87 737.5,-85.04 741.33,-81.21 745.17,-81.21 745.17,-81.21 881.83,-81.21 881.83,-81.21 885.67,-81.21 889.5,-85.04 889.5,-88.87 889.5,-88.87 889.5,-96.54 889.5,-96.54 889.5,-100.37 885.67,-104.21 881.83,-104.21"/>
<text text-anchor="middle" x="813.5" y="-89.01" font-family="Arial" font-size="14.00" fill="#c6c5fe">redis/common/index.js</text>
</g>
<!-- index.js&#45;&gt;redis/common/index.js -->
<g id="edge26" class="edge">
<title>index.js&#45;&gt;redis/common/index.js</title>
<path fill="none" stroke="#757575" d="M34.3,-300.11C40.08,-274.28 57.68,-211.82 98,-180.71 289.85,-32.65 600.97,-58.39 740.63,-79.59"/>
<polygon fill="#757575" stroke="#757575" points="740.37,-83.09 750.79,-81.17 741.44,-76.18 740.37,-83.09"/>
</g>
<!-- redis/redis.constants.js -->
<g id="node16" class="node">
<title>redis/redis.constants.js</title>
<path fill="none" stroke="#cfffac" d="M1359.33,-144.21C1359.33,-144.21 1220.67,-144.21 1220.67,-144.21 1216.83,-144.21 1213,-140.37 1213,-136.54 1213,-136.54 1213,-128.87 1213,-128.87 1213,-125.04 1216.83,-121.21 1220.67,-121.21 1220.67,-121.21 1359.33,-121.21 1359.33,-121.21 1363.17,-121.21 1367,-125.04 1367,-128.87 1367,-128.87 1367,-136.54 1367,-136.54 1367,-140.37 1363.17,-144.21 1359.33,-144.21"/>
<text text-anchor="middle" x="1290" y="-129.01" font-family="Arial" font-size="14.00" fill="#cfffac">redis/redis.constants.js</text>
</g>
<!-- index.js&#45;&gt;redis/redis.constants.js -->
<g id="edge27" class="edge">
<title>index.js&#45;&gt;redis/redis.constants.js</title>
<path fill="none" stroke="#757575" d="M32.03,-300.17C32.78,-264.86 39.94,-157.22 98,-99.71 194.45,-4.17 254.74,-11.71 390.5,-11.71 390.5,-11.71 390.5,-11.71 814.5,-11.71 968.73,-11.71 1016.86,24.17 1161,-30.71 1207.28,-48.33 1249.88,-89.24 1272.35,-113.55"/>
<polygon fill="#757575" stroke="#757575" points="1269.88,-116.04 1279.18,-121.11 1275.07,-111.34 1269.88,-116.04"/>
</g>
<!-- redis/redis.health.js -->
<g id="node17" class="node">
<title>redis/redis.health.js</title>
<path fill="none" stroke="#c6c5fe" d="M668.83,-263.21C668.83,-263.21 551.17,-263.21 551.17,-263.21 547.33,-263.21 543.5,-259.37 543.5,-255.54 543.5,-255.54 543.5,-247.87 543.5,-247.87 543.5,-244.04 547.33,-240.21 551.17,-240.21 551.17,-240.21 668.83,-240.21 668.83,-240.21 672.67,-240.21 676.5,-244.04 676.5,-247.87 676.5,-247.87 676.5,-255.54 676.5,-255.54 676.5,-259.37 672.67,-263.21 668.83,-263.21"/>
<text text-anchor="middle" x="610" y="-248.01" font-family="Arial" font-size="14.00" fill="#c6c5fe">redis/redis.health.js</text>
</g>
<!-- index.js&#45;&gt;redis/redis.health.js -->
<g id="edge28" class="edge">
<title>index.js&#45;&gt;redis/redis.health.js</title>
<path fill="none" stroke="#757575" d="M49.37,-300.15C62.21,-292.27 80.45,-282.44 98,-277.71 248.09,-237.25 431.75,-239.96 532.96,-245.72"/>
<polygon fill="#757575" stroke="#757575" points="532.9,-249.22 543.09,-246.32 533.32,-242.23 532.9,-249.22"/>
</g>
<!-- redis/redis.module.js -->
<g id="node18" class="node">
<title>redis/redis.module.js</title>
<path fill="none" stroke="#c6c5fe" d="M241.33,-213.21C241.33,-213.21 115.67,-213.21 115.67,-213.21 111.83,-213.21 108,-209.37 108,-205.54 108,-205.54 108,-197.87 108,-197.87 108,-194.04 111.83,-190.21 115.67,-190.21 115.67,-190.21 241.33,-190.21 241.33,-190.21 245.17,-190.21 249,-194.04 249,-197.87 249,-197.87 249,-205.54 249,-205.54 249,-209.37 245.17,-213.21 241.33,-213.21"/>
<text text-anchor="middle" x="178.5" y="-198.01" font-family="Arial" font-size="14.00" fill="#c6c5fe">redis/redis.module.js</text>
</g>
<!-- index.js&#45;&gt;redis/redis.module.js -->
<g id="edge29" class="edge">
<title>index.js&#45;&gt;redis/redis.module.js</title>
<path fill="none" stroke="#757575" d="M40.22,-300.01C51.68,-284.37 73.8,-256.56 98,-238.71 109.42,-230.28 123.07,-223.08 135.8,-217.34"/>
<polygon fill="#757575" stroke="#757575" points="137.52,-220.41 145.32,-213.23 134.75,-213.98 137.52,-220.41"/>
</g>
<!-- redis/redis.service.js -->
<g id="node19" class="node">
<title>redis/redis.service.js</title>
<path fill="none" stroke="#c6c5fe" d="M875.33,-263.21C875.33,-263.21 751.67,-263.21 751.67,-263.21 747.83,-263.21 744,-259.37 744,-255.54 744,-255.54 744,-247.87 744,-247.87 744,-244.04 747.83,-240.21 751.67,-240.21 751.67,-240.21 875.33,-240.21 875.33,-240.21 879.17,-240.21 883,-244.04 883,-247.87 883,-247.87 883,-255.54 883,-255.54 883,-259.37 879.17,-263.21 875.33,-263.21"/>
<text text-anchor="middle" x="813.5" y="-248.01" font-family="Arial" font-size="14.00" fill="#c6c5fe">redis/redis.service.js</text>
</g>
<!-- index.js&#45;&gt;redis/redis.service.js -->
<g id="edge30" class="edge">
<title>index.js&#45;&gt;redis/redis.service.js</title>
<path fill="none" stroke="#757575" d="M62.22,-311.07C156.33,-308.82 452.5,-299.86 696,-271.71 711.22,-269.95 727.47,-267.51 742.85,-264.95"/>
<polygon fill="#757575" stroke="#757575" points="743.55,-268.38 752.82,-263.25 742.37,-261.48 743.55,-268.38"/>
</g>
<!-- redis/common/redis&#45;utils.js -->
<g id="node20" class="node">
<title>redis/common/redis&#45;utils.js</title>
<path fill="none" stroke="#cfffac" d="M1127.33,-63.21C1127.33,-63.21 964.67,-63.21 964.67,-63.21 960.83,-63.21 957,-59.37 957,-55.54 957,-55.54 957,-47.87 957,-47.87 957,-44.04 960.83,-40.21 964.67,-40.21 964.67,-40.21 1127.33,-40.21 1127.33,-40.21 1131.17,-40.21 1135,-44.04 1135,-47.87 1135,-47.87 1135,-55.54 1135,-55.54 1135,-59.37 1131.17,-63.21 1127.33,-63.21"/>
<text text-anchor="middle" x="1046" y="-48.01" font-family="Arial" font-size="14.00" fill="#cfffac">redis/common/redis&#45;utils.js</text>
</g>
<!-- redis/common/index.js&#45;&gt;redis/common/redis&#45;utils.js -->
<g id="edge31" class="edge">
<title>redis/common/index.js&#45;&gt;redis/common/redis&#45;utils.js</title>
<path fill="none" stroke="#757575" d="M878.28,-81.15C895.4,-78.07 913.9,-74.75 931,-71.71 943.25,-69.53 956.25,-67.23 968.92,-65"/>
<polygon fill="#757575" stroke="#757575" points="969.74,-68.41 978.98,-63.23 968.53,-61.52 969.74,-68.41"/>
</g>
<!-- redis/common/redis.decorator.js -->
<g id="node21" class="node">
<title>redis/common/redis.decorator.js</title>
<path fill="none" stroke="#c6c5fe" d="M1142.83,-104.21C1142.83,-104.21 949.17,-104.21 949.17,-104.21 945.33,-104.21 941.5,-100.37 941.5,-96.54 941.5,-96.54 941.5,-88.87 941.5,-88.87 941.5,-85.04 945.33,-81.21 949.17,-81.21 949.17,-81.21 1142.83,-81.21 1142.83,-81.21 1146.67,-81.21 1150.5,-85.04 1150.5,-88.87 1150.5,-88.87 1150.5,-96.54 1150.5,-96.54 1150.5,-100.37 1146.67,-104.21 1142.83,-104.21"/>
<text text-anchor="middle" x="1046" y="-89.01" font-family="Arial" font-size="14.00" fill="#c6c5fe">redis/common/redis.decorator.js</text>
</g>
<!-- redis/common/index.js&#45;&gt;redis/common/redis.decorator.js -->
<g id="edge32" class="edge">
<title>redis/common/index.js&#45;&gt;redis/common/redis.decorator.js</title>
<path fill="none" stroke="#757575" d="M889.66,-92.71C902.98,-92.71 917.11,-92.71 931.22,-92.71"/>
<polygon fill="#757575" stroke="#757575" points="931.47,-96.21 941.47,-92.71 931.47,-89.21 931.47,-96.21"/>
</g>
<!-- redis/redis.health.js&#45;&gt;redis/redis.service.js -->
<g id="edge39" class="edge">
<title>redis/redis.health.js&#45;&gt;redis/redis.service.js</title>
<path fill="none" stroke="#757575" d="M676.7,-251.71C694.9,-251.71 714.85,-251.71 733.72,-251.71"/>
<polygon fill="#757575" stroke="#757575" points="733.77,-255.21 743.77,-251.71 733.77,-248.21 733.77,-255.21"/>
</g>
<!-- redis/redis&#45;core.module.js -->
<g id="node22" class="node">
<title>redis/redis&#45;core.module.js</title>
<path fill="none" stroke="#c6c5fe" d="M469.83,-193.21C469.83,-193.21 313.17,-193.21 313.17,-193.21 309.33,-193.21 305.5,-189.37 305.5,-185.54 305.5,-185.54 305.5,-177.87 305.5,-177.87 305.5,-174.04 309.33,-170.21 313.17,-170.21 313.17,-170.21 469.83,-170.21 469.83,-170.21 473.67,-170.21 477.5,-174.04 477.5,-177.87 477.5,-177.87 477.5,-185.54 477.5,-185.54 477.5,-189.37 473.67,-193.21 469.83,-193.21"/>
<text text-anchor="middle" x="391.5" y="-178.01" font-family="Arial" font-size="14.00" fill="#c6c5fe">redis/redis&#45;core.module.js</text>
</g>
<!-- redis/redis.module.js&#45;&gt;redis/redis&#45;core.module.js -->
<g id="edge40" class="edge">
<title>redis/redis.module.js&#45;&gt;redis/redis&#45;core.module.js</title>
<path fill="none" stroke="#757575" d="M249.17,-195.1C263.94,-193.7 279.78,-192.2 295.31,-190.73"/>
<polygon fill="#757575" stroke="#757575" points="295.83,-194.2 305.46,-189.77 295.17,-187.23 295.83,-194.2"/>
</g>
<!-- redis/redis.service.js&#45;&gt;errors/index.js -->
<g id="edge45" class="edge">
<title>redis/redis.service.js&#45;&gt;errors/index.js</title>
<path fill="none" stroke="#757575" d="M849.51,-263.25C889.9,-276.57 956.41,-298.5 1000.45,-313.02"/>
<polygon fill="#757575" stroke="#757575" points="999.45,-316.37 1010.04,-316.18 1001.64,-309.72 999.45,-316.37"/>
</g>
<!-- redis/redis.service.js&#45;&gt;utils/index.js -->
<g id="edge47" class="edge">
<title>redis/redis.service.js&#45;&gt;utils/index.js</title>
<path fill="none" stroke="#757575" d="M824.69,-263.53C843.43,-284.43 885.63,-327.68 931,-348.71 949.55,-357.3 971.37,-362.23 990.92,-365.04"/>
<polygon fill="#757575" stroke="#757575" points="990.55,-368.52 1000.91,-366.32 991.44,-361.58 990.55,-368.52"/>
</g>
<!-- redis/redis.service.js&#45;&gt;redis/redis.constants.js -->
<g id="edge46" class="edge">
<title>redis/redis.service.js&#45;&gt;redis/redis.constants.js</title>
<path fill="none" stroke="#757575" d="M883.17,-242.47C953.76,-232.03 1066.43,-212.77 1161,-184.71 1193.83,-174.97 1229.85,-159.92 1255.29,-148.51"/>
<polygon fill="#757575" stroke="#757575" points="1256.84,-151.65 1264.5,-144.34 1253.94,-145.28 1256.84,-151.65"/>
</g>
<!-- redis/common/redis.decorator.js&#45;&gt;redis/redis.constants.js -->
<g id="edge33" class="edge">
<title>redis/common/redis.decorator.js&#45;&gt;redis/redis.constants.js</title>
<path fill="none" stroke="#757575" d="M1116.67,-104.22C1145.65,-109.01 1179.45,-114.6 1209.4,-119.55"/>
<polygon fill="#757575" stroke="#757575" points="1208.96,-123.02 1219.4,-121.2 1210.11,-116.12 1208.96,-123.02"/>
</g>
<!-- redis/redis&#45;core.module.js&#45;&gt;redis/common/index.js -->
<g id="edge34" class="edge">
<title>redis/redis&#45;core.module.js&#45;&gt;redis/common/index.js</title>
<path fill="none" stroke="#757575" d="M410.8,-170.09C435.45,-155.11 481.17,-129.54 524,-117.71 590.63,-99.29 668.91,-93.44 727.1,-91.98"/>
<polygon fill="#757575" stroke="#757575" points="727.44,-95.47 737.36,-91.76 727.29,-88.47 727.44,-95.47"/>
</g>
<!-- redis/redis&#45;core.module.js&#45;&gt;redis/redis.constants.js -->
<g id="edge35" class="edge">
<title>redis/redis&#45;core.module.js&#45;&gt;redis/redis.constants.js</title>
<path fill="none" stroke="#757575" d="M431.81,-170.18C457.74,-163.13 492.59,-154.73 524,-150.71 768.41,-119.37 1060.25,-123.99 1202.48,-128.92"/>
<polygon fill="#757575" stroke="#757575" points="1202.75,-132.43 1212.87,-129.29 1203,-125.43 1202.75,-132.43"/>
</g>
<!-- redis/redis&#45;core.module.js&#45;&gt;redis/redis.health.js -->
<g id="edge36" class="edge">
<title>redis/redis&#45;core.module.js&#45;&gt;redis/redis.health.js</title>
<path fill="none" stroke="#757575" d="M426.2,-193.25C452.72,-202.27 490.64,-215.03 524,-225.71 535.83,-229.49 548.62,-233.47 560.6,-237.14"/>
<polygon fill="#757575" stroke="#757575" points="559.84,-240.57 570.43,-240.14 561.89,-233.87 559.84,-240.57"/>
</g>
<!-- redis/redis&#45;core.module.js&#45;&gt;redis/redis.service.js -->
<g id="edge38" class="edge">
<title>redis/redis&#45;core.module.js&#45;&gt;redis/redis.service.js</title>
<path fill="none" stroke="#757575" d="M466.16,-193.21C527.66,-202.91 617.61,-217.31 696,-230.71 710.16,-233.12 725.26,-235.79 739.75,-238.38"/>
<polygon fill="#757575" stroke="#757575" points="739.2,-241.84 749.66,-240.16 740.43,-234.95 739.2,-241.84"/>
</g>
<!-- redis/redis.providers.js -->
<g id="node23" class="node">
<title>redis/redis.providers.js</title>
<path fill="none" stroke="#c6c5fe" d="M678.33,-183.21C678.33,-183.21 541.67,-183.21 541.67,-183.21 537.83,-183.21 534,-179.37 534,-175.54 534,-175.54 534,-167.87 534,-167.87 534,-164.04 537.83,-160.21 541.67,-160.21 541.67,-160.21 678.33,-160.21 678.33,-160.21 682.17,-160.21 686,-164.04 686,-167.87 686,-167.87 686,-175.54 686,-175.54 686,-179.37 682.17,-183.21 678.33,-183.21"/>
<text text-anchor="middle" x="610" y="-168.01" font-family="Arial" font-size="14.00" fill="#c6c5fe">redis/redis.providers.js</text>
</g>
<!-- redis/redis&#45;core.module.js&#45;&gt;redis/redis.providers.js -->
<g id="edge37" class="edge">
<title>redis/redis&#45;core.module.js&#45;&gt;redis/redis.providers.js</title>
<path fill="none" stroke="#757575" d="M477.76,-177.77C492.75,-177.08 508.37,-176.35 523.38,-175.66"/>
<polygon fill="#757575" stroke="#757575" points="523.83,-179.14 533.66,-175.19 523.51,-172.15 523.83,-179.14"/>
</g>
<!-- redis/redis.providers.js&#45;&gt;errors/index.js -->
<g id="edge41" class="edge">
<title>redis/redis.providers.js&#45;&gt;errors/index.js</title>
<path fill="none" stroke="#757575" d="M686.17,-179.65C744.74,-187.63 827.21,-202.89 895,-230.71 944.4,-250.98 995.21,-287.86 1023.18,-309.84"/>
<polygon fill="#757575" stroke="#757575" points="1021.1,-312.66 1031.1,-316.15 1025.46,-307.18 1021.1,-312.66"/>
</g>
<!-- redis/redis.providers.js&#45;&gt;redis/common/index.js -->
<g id="edge42" class="edge">
<title>redis/redis.providers.js&#45;&gt;redis/common/index.js</title>
<path fill="none" stroke="#757575" d="M640.73,-160.05C675.95,-146.24 734.74,-123.19 773.56,-107.97"/>
<polygon fill="#757575" stroke="#757575" points="774.94,-111.19 782.97,-104.28 772.39,-104.67 774.94,-111.19"/>
</g>
<!-- redis/redis.providers.js&#45;&gt;redis/redis.constants.js -->
<g id="edge43" class="edge">
<title>redis/redis.providers.js&#45;&gt;redis/redis.constants.js</title>
<path fill="none" stroke="#757575" d="M686.27,-169.8C792.29,-166.77 991.6,-159.81 1161,-146.71 1174.54,-145.66 1188.86,-144.32 1202.83,-142.89"/>
<polygon fill="#757575" stroke="#757575" points="1203.35,-146.35 1212.93,-141.83 1202.62,-139.39 1203.35,-146.35"/>
</g>
<!-- redis/redis.providers.js&#45;&gt;redis/redis.service.js -->
<g id="edge44" class="edge">
<title>redis/redis.providers.js&#45;&gt;redis/redis.service.js</title>
<path fill="none" stroke="#757575" d="M659.34,-183.33C671.63,-187.13 684.58,-191.9 696,-197.71 713.83,-206.77 714.29,-215.41 732,-224.71 740.81,-229.33 750.57,-233.4 760.17,-236.87"/>
<polygon fill="#757575" stroke="#757575" points="759.07,-240.2 769.67,-240.15 761.36,-233.58 759.07,-240.2"/>
</g>
</g>
</svg>
